<svg width="200" height="96" viewBox="0 0 200 96" fill="none" xmlns="http://www.w3.org/2000/svg">
<g clip-path="url(#clip0)">
<path d="M181.276 13.3534V0.000202637H166.553V13.3534H159.527V24.2511H166.56L166.622 44.073C166.622 50.2128 167.827 52.4028 170.719 55.265C173.178 57.7184 176.17 58.188 180.84 58.188C182.16 58.188 183.256 58.2139 184.251 58.2428L184.286 58.2437C185.111 58.2661 185.873 58.2868 186.629 58.2868C187.842 58.2868 188.886 58.2352 190.02 58.1156L190.979 58.0163V47.3815H189.718C189.309 47.4531 188.618 47.4259 187.813 47.3941C187.707 47.3899 187.598 47.3856 187.489 47.3815C187.12 47.3665 186.734 47.3713 186.332 47.3763C186.124 47.3789 185.912 47.3815 185.696 47.3815C181.817 47.3815 181.286 47.3368 181.276 43.1549L181.276 24.2511H190.179V13.3534H181.276Z" fill="#008AD2"/>
<path fill-rule="evenodd" clip-rule="evenodd" d="M79.4755 35.2639C79.4755 20.3398 71.7014 11.4299 58.6795 11.4299C53.4596 11.4299 48.7682 13.3179 45.6759 16.5763V12.2956H29.5023V71.2611H45.6759V54.7027C48.7012 57.2782 52.8682 58.5827 58.0963 58.5827C70.8849 58.5827 79.4755 49.2103 79.4755 35.2639ZM62.524 35.5263C62.524 29.965 60.3634 24.0222 54.2975 24.0222C48.6576 24.0222 45.6759 27.9999 45.6759 35.5263C45.6759 41.7351 48.9381 46.072 53.6102 46.072C59.1918 46.072 62.524 42.1302 62.524 35.5263Z" fill="#008AD2"/>
<path d="M24.1735 71.2609V12.2959H8V71.2609H24.1735Z" fill="#008AD2"/>
<path d="M152.762 16.617C150.454 13.0532 146.548 11.3206 140.815 11.3206C135.211 11.3206 130.291 13.4346 125.814 17.7751C123.636 13.4346 119.533 11.3206 113.313 11.3206C108.156 11.3206 103.699 13.1915 100.038 16.8891V12.1824H84.8039V57.3012H100.304V35.3482C100.304 31.5498 100.706 29.7103 101.962 27.7726C102.857 26.375 104.763 24.8815 107.424 24.8815C109.638 24.8815 110.882 25.4682 111.595 26.8481C112.284 28.1676 112.391 30.2728 112.396 32.3701L112.396 57.3012H127.804V35.3482C127.804 31.5513 128.207 29.7108 129.46 27.7726C130.355 26.375 132.261 24.8815 134.923 24.8815C137.68 24.8815 138.556 25.8851 139.01 26.7569C139.632 27.9657 139.897 29.684 139.897 32.5011V57.3012H155.306V28.4459C155.306 23.0148 154.496 19.2548 152.762 16.617Z" fill="#008AD2"/>
<path d="M24.1735 9.80402V0H8V9.80402H24.1735Z" fill="#008AD2"/>
<path d="M99.7667 70.3285C98.1178 69.1705 96.0845 68.5904 93.6668 68.5904C90.9305 68.5904 88.7329 69.3351 87.0719 70.823C85.4109 72.3108 84.5806 74.2627 84.5806 76.6776C84.5806 79.6057 85.9601 81.9107 88.7207 83.5946L90.4791 84.436L92.2375 85.1675C93.7271 85.7293 94.8511 86.2167 95.6083 86.6316C96.0237 86.8266 96.4512 87.1316 96.8904 87.546C97.6233 88.205 97.9895 89.01 97.9895 89.9614C97.9895 91.1817 97.5437 92.1696 96.6526 92.9259C95.7609 93.6823 94.5944 94.0602 93.1535 94.0602C91.4438 94.0602 90.0394 93.5972 88.9404 92.6696C87.8413 91.743 87.2915 90.5596 87.2915 89.1199C87.2915 88.8519 87.3524 88.4431 87.4751 87.894C87.5968 87.3453 87.7434 86.7901 87.9143 86.2288L84.5806 87.0708C84.4097 87.9249 84.324 88.5835 84.324 89.0465C84.324 91.1204 85.1725 92.7978 86.8705 94.0784C88.5676 95.3591 90.784 95.9999 93.5197 95.9999C96.4512 95.9999 98.8198 95.2309 100.627 93.6939C102.435 92.1574 103.338 90.1442 103.338 87.6559C103.338 86.2415 102.997 84.9487 102.313 83.7769C101.629 82.6057 100.676 81.6675 99.4553 80.9593C98.698 80.5201 97.2323 79.8858 95.059 79.0565C94.8145 78.9831 94.5092 78.8797 94.143 78.7455C93.7763 78.6118 93.4649 78.4897 93.2088 78.3797C92.9522 78.2698 92.6281 78.1356 92.2375 77.977C91.847 77.8184 91.5721 77.6969 91.4134 77.6107C91.2541 77.5256 91.0776 77.4284 90.8823 77.3184C90.6866 77.2085 90.5278 77.093 90.4056 76.9709C89.4531 76.2632 88.9774 75.3483 88.9774 74.2262C88.9774 73.0798 89.4105 72.1528 90.2778 71.4445C91.1441 70.7379 92.2741 70.3832 93.6668 70.3832C95.2294 70.3832 96.5425 70.8169 97.6051 71.6826C98.6676 72.5489 99.1986 73.592 99.1986 74.8118C99.1986 75.0555 99.1621 75.3787 99.0886 75.7814C99.016 76.1842 98.9425 76.5682 98.8689 76.9339L102.13 76.2389L102.24 74.6654C102.24 72.9334 101.414 71.4876 99.7667 70.3285Z" fill="#008AD2"/>
<path fill-rule="evenodd" clip-rule="evenodd" d="M125.101 95.4874L117.7 69.1027H111.912L104.108 95.4874L106.744 95.4869L108.47 89.5228H116.786L118.471 95.4874H125.101ZM116.162 87.1439L112.793 74.7791L109.173 87.1439H116.162Z" fill="#008AD2"/>
<path d="M136.569 66.6143L142.468 61.6011H136.239L133.381 66.6143H136.569Z" fill="#008AD2"/>
<path d="M133.271 86.8981V69.1026H126.677V86.9244C126.677 88.7785 126.866 90.2426 127.244 91.3155C127.623 92.3895 128.277 93.2674 129.205 93.9503C131.036 95.3171 133.516 96 136.642 96C139.988 96 142.431 95.1707 143.97 93.5116C144.726 92.7061 145.24 91.8343 145.508 90.8951C145.776 89.9558 145.911 88.5957 145.911 86.8145V69.1026H143.676V86.8981C143.676 88.1402 143.603 89.1028 143.457 89.7841C143.311 90.4665 143.068 91.0638 142.727 91.5744C141.779 92.9391 140.342 93.6215 138.419 93.6215C136.569 93.6215 135.182 93.0248 134.257 91.8307C133.795 91.1489 133.515 90.5764 133.418 90.1134C133.32 89.6509 133.271 88.5789 133.271 86.8981Z" fill="#008AD2"/>
<path fill-rule="evenodd" clip-rule="evenodd" d="M168.021 72.744C165.933 70.3169 163.081 69.1026 159.466 69.1026H149.684V95.4873H159.43C163.631 95.4873 166.757 93.963 168.809 90.9133C170.372 88.5957 171.153 85.8388 171.153 82.6427C171.153 78.471 170.109 75.1721 168.021 72.744ZM162.984 74.702C162.08 72.3357 160.48 71.1523 158.185 71.1523H156.279V93.4381H158.587C162.299 93.4381 164.156 89.9979 164.156 83.1184C164.156 79.6052 163.765 76.8002 162.984 74.702Z" fill="#008AD2"/>
<path d="M190.351 71.4811V69.1027H174.121V95.4873H191.89V93.1089H180.715V82.1306H188.849V79.8616H180.715V71.4811H190.351Z" fill="#008AD2"/>
</g>
<defs>
<clipPath id="clip0">
<path d="M0 0H200V96H0V0Z" fill="white"/>
</clipPath>
</defs>
</svg>
