<svg width="32" height="32" viewBox="0 0 32 32" fill="none" xmlns="http://www.w3.org/2000/svg">
<path fill-rule="evenodd" clip-rule="evenodd" d="M30.1529 8.00004V10.3237H31.7021V12.2201H30.1529L30.1529 15.5097C30.1547 16.2374 30.247 16.2452 30.9221 16.2452C31.0326 16.2452 31.1369 16.2412 31.234 16.2452C31.3981 16.2513 31.5415 16.2593 31.622 16.2452H31.8414V18.0958L31.6746 18.1131C31.4772 18.1339 31.2955 18.1429 31.0845 18.1429C30.951 18.1429 30.8166 18.1392 30.6707 18.1352C30.4974 18.1302 30.3068 18.1257 30.0771 18.1257C29.2644 18.1257 28.7438 18.044 28.3158 17.617C27.8126 17.119 27.6028 16.7379 27.6028 15.6694L27.5921 12.2201H26.3682V10.3237H27.5909V8.00004H30.1529ZM8.05654 12.1803C9.11211 12.1803 9.48809 13.2144 9.48809 14.1822C9.48809 15.3314 8.90823 16.0173 7.93695 16.0173C7.12391 16.0173 6.55624 15.2626 6.55624 14.1822C6.55624 12.8725 7.07511 12.1803 8.05654 12.1803ZM8.81909 9.98899C11.0851 9.98899 12.4379 11.5395 12.4379 14.1365C12.4379 16.5634 10.943 18.1944 8.71759 18.1944C7.80783 18.1944 7.0827 17.9674 6.55624 17.5192V20.4006H3.74177V10.1396H6.55624V10.8846C7.09435 10.3175 7.91074 9.98899 8.81909 9.98899ZM2.81447 10.1397V20.4006H0V10.1397H2.81447ZM23.112 9.96998C24.1097 9.96998 24.7894 10.2715 25.1911 10.8916C25.4927 11.3507 25.6337 12.005 25.6337 12.9501V17.9714H22.9523V13.6557C22.9523 13.1655 22.9062 12.8665 22.7979 12.6562C22.719 12.5044 22.5665 12.3298 22.0867 12.3298C21.6235 12.3298 21.2918 12.5897 21.1361 12.8329C20.918 13.1702 20.848 13.4905 20.848 14.1512V17.9714H18.1666L18.1666 13.6329C18.1659 13.268 18.1472 12.9016 18.0273 12.672C17.9032 12.4319 17.6866 12.3298 17.3014 12.3298C16.8384 12.3298 16.5067 12.5897 16.351 12.8329C16.1323 13.1701 16.0624 13.4902 16.0624 14.1512V17.9714H13.3652V10.1199H16.0161V10.939C16.6532 10.2955 17.4288 9.96998 18.3262 9.96998C19.4086 9.96998 20.1226 10.3379 20.5016 11.0932C21.2806 10.3379 22.1368 9.96998 23.112 9.96998ZM2.81447 8V9.70606H0V8H2.81447Z" fill="#233E81"/>
<path fill-rule="evenodd" clip-rule="evenodd" d="M14.9075 19.936C15.3283 19.936 15.6821 20.0369 15.969 20.2385C16.2558 20.4401 16.3994 20.6917 16.3994 20.9931L16.3803 21.267L15.8128 21.3879C15.8256 21.3243 15.8384 21.2574 15.851 21.1873C15.8638 21.1173 15.8702 21.061 15.8702 21.0186C15.8702 20.8063 15.7778 20.6248 15.5929 20.4741C15.408 20.3234 15.1795 20.248 14.9075 20.248C14.6652 20.248 14.4685 20.3097 14.3178 20.4327C14.1669 20.5559 14.0915 20.7172 14.0915 20.9167C14.0915 21.112 14.1743 21.2712 14.34 21.3943C14.3613 21.4156 14.3889 21.4357 14.423 21.4548C14.457 21.4739 14.4877 21.4909 14.5154 21.5057C14.543 21.5207 14.5909 21.5418 14.6588 21.5694C14.7268 21.597 14.7832 21.6204 14.8278 21.6395C14.8724 21.6586 14.9266 21.6799 14.9904 21.7031C15.0541 21.7265 15.1073 21.7445 15.1498 21.7573C15.528 21.9016 15.7831 22.012 15.9148 22.0884C16.1272 22.2116 16.293 22.3749 16.4122 22.5787C16.5311 22.7826 16.5905 23.0076 16.5905 23.2537C16.5905 23.6867 16.4334 24.037 16.1188 24.3044C15.8042 24.5719 15.3921 24.7057 14.8819 24.7057C14.4059 24.7057 14.0202 24.5942 13.7249 24.3713C13.4294 24.1485 13.2817 23.8566 13.2817 23.4957C13.2817 23.4151 13.2967 23.3005 13.3264 23.1519L13.9065 23.0054C13.8768 23.103 13.8513 23.1997 13.8301 23.2951C13.8087 23.3907 13.7981 23.4618 13.7981 23.5085C13.7981 23.759 13.8938 23.9649 14.0851 24.1262C14.2763 24.2876 14.5207 24.3682 14.8182 24.3682C15.069 24.3682 15.272 24.3024 15.4271 24.1708C15.5822 24.0392 15.6598 23.8673 15.6598 23.6549C15.6598 23.4893 15.596 23.3493 15.4685 23.2346C15.3921 23.1625 15.3177 23.1094 15.2454 23.0755C15.1136 23.0033 14.918 22.9184 14.6588 22.8207L14.3528 22.6934L14.0468 22.547C13.5665 22.2539 13.3264 21.8528 13.3264 21.3433C13.3264 20.9231 13.4709 20.5834 13.7599 20.3245C14.049 20.0656 14.4314 19.936 14.9075 19.936ZM18.2358 21.0129L18.8221 23.1646H17.6059L18.2358 21.0129ZM19.0897 20.0251L20.3776 24.6165H19.2238L18.9306 23.5786H17.4835L17.1832 24.6164L16.7245 24.6165L18.0825 20.0251H19.0897ZM23.3997 18.7197L22.3732 19.5921H21.8185L22.3158 18.7197H23.3997ZM21.7993 20.0251V23.1218C21.7993 23.4143 21.8078 23.6009 21.8249 23.6813C21.8418 23.7619 21.8905 23.8615 21.9709 23.9802C22.1319 24.188 22.3732 24.2918 22.6953 24.2918C23.0298 24.2918 23.2798 24.1731 23.4449 23.9356C23.5042 23.8467 23.5464 23.7428 23.5719 23.624C23.5973 23.5055 23.6101 23.338 23.6101 23.1218V20.0251H23.9989V23.1073C23.9989 23.4172 23.9754 23.6539 23.9288 23.8174C23.8821 23.9808 23.7927 24.1325 23.6611 24.2727C23.3934 24.5614 22.9682 24.7057 22.386 24.7057C21.842 24.7057 21.4105 24.5869 21.0918 24.349C20.9303 24.2302 20.8164 24.0774 20.7506 23.8905C20.6847 23.7038 20.6518 23.4491 20.6518 23.1264V20.0251H21.7993ZM26.1347 20.3818C26.5341 20.3818 26.8125 20.5877 26.9699 20.9995C27.1057 21.3646 27.1738 21.8528 27.1738 22.4641C27.1738 23.6612 26.8508 24.2599 26.2047 24.2599H25.803V20.3818H26.1347ZM26.3578 20.0251C26.9868 20.0251 27.483 20.2364 27.8464 20.6588C28.2098 21.0813 28.3915 21.6554 28.3915 22.3813C28.3915 22.9375 28.2555 23.4172 27.9835 23.8205C27.6265 24.3512 27.0824 24.6165 26.3514 24.6165H24.6555V20.0251H26.3578ZM31.7322 20.0251V20.439H30.0555V21.8974H31.4709V22.2922H30.0555V24.2026H32.0001V24.6165H28.9079V20.0251H31.7322Z" fill="#19A6DC"/>
</svg>
