<svg width="32" height="32" viewBox="0 0 32 32" fill="none" xmlns="http://www.w3.org/2000/svg">
<g clip-path="url(#clip0)">
<path d="M30.1529 10.3237V8.00004H27.5909V10.3237H26.3682V12.2201H27.5921L27.6028 15.6694C27.6028 16.7379 27.8126 17.119 28.3158 17.617C28.7438 18.044 29.2644 18.1257 30.0771 18.1257C30.3068 18.1257 30.4974 18.1302 30.6707 18.1352L30.6767 18.1354C30.8203 18.1393 30.9528 18.1429 31.0845 18.1429C31.2955 18.1429 31.4772 18.1339 31.6746 18.1131L31.8414 18.0958V16.2452H31.622C31.5509 16.2576 31.4306 16.2529 31.2904 16.2474C31.272 16.2466 31.2531 16.2459 31.234 16.2452C31.17 16.2426 31.1027 16.2434 31.0327 16.2443C30.9966 16.2447 30.9597 16.2452 30.9221 16.2452C30.247 16.2452 30.1547 16.2374 30.1529 15.5097L30.1529 12.2201H31.7021V10.3237H30.1529Z" fill="#008AD2"/>
<path fill-rule="evenodd" clip-rule="evenodd" d="M12.4379 14.1365C12.4379 11.5395 11.0851 9.98899 8.81909 9.98899C7.91074 9.98899 7.09435 10.3175 6.55624 10.8846V10.1396H3.74177V20.4006H6.55624V17.5192C7.0827 17.9674 7.80783 18.1944 8.71759 18.1944C10.943 18.1944 12.4379 16.5634 12.4379 14.1365ZM9.48809 14.1822C9.48809 13.2144 9.11211 12.1803 8.05654 12.1803C7.07511 12.1803 6.55624 12.8725 6.55624 14.1822C6.55624 15.2626 7.12391 16.0173 7.93695 16.0173C8.90823 16.0173 9.48809 15.3314 9.48809 14.1822Z" fill="#008AD2"/>
<path d="M2.81447 20.4006V10.1397H0V20.4006H2.81447Z" fill="#008AD2"/>
<path d="M25.1911 10.8916C24.7894 10.2715 24.1097 9.96998 23.112 9.96998C22.1368 9.96998 21.2806 10.3379 20.5016 11.0932C20.1226 10.3379 19.4086 9.96998 18.3262 9.96998C17.4288 9.96998 16.6532 10.2955 16.0161 10.939V10.1199H13.3652V17.9714H16.0624V14.1512C16.0624 13.4902 16.1323 13.1701 16.351 12.8329C16.5067 12.5897 16.8384 12.3298 17.3014 12.3298C17.6866 12.3298 17.9032 12.4319 18.0273 12.672C18.1472 12.9016 18.1659 13.268 18.1666 13.6329L18.1666 17.9714H20.848V14.1512C20.848 13.4905 20.918 13.1702 21.1361 12.8329C21.2918 12.5897 21.6235 12.3298 22.0867 12.3298C22.5665 12.3298 22.719 12.5044 22.7979 12.6562C22.9062 12.8665 22.9523 13.1655 22.9523 13.6557V17.9714H25.6337V12.9501C25.6337 12.005 25.4927 11.3507 25.1911 10.8916Z" fill="#008AD2"/>
<path d="M2.81447 9.70606V8H0V9.70606H2.81447Z" fill="#008AD2"/>
<path d="M15.969 20.2385C15.6821 20.0369 15.3283 19.936 14.9075 19.936C14.4314 19.936 14.049 20.0656 13.7599 20.3245C13.4709 20.5834 13.3264 20.9231 13.3264 21.3433C13.3264 21.8528 13.5665 22.2539 14.0468 22.547L14.3528 22.6934L14.6588 22.8207C14.918 22.9184 15.1136 23.0033 15.2454 23.0755C15.3177 23.1094 15.3921 23.1625 15.4685 23.2346C15.596 23.3493 15.6598 23.4893 15.6598 23.6549C15.6598 23.8673 15.5822 24.0392 15.4271 24.1708C15.272 24.3024 15.069 24.3682 14.8182 24.3682C14.5207 24.3682 14.2763 24.2876 14.0851 24.1262C13.8938 23.9649 13.7981 23.759 13.7981 23.5085C13.7981 23.4618 13.8087 23.3907 13.8301 23.2951C13.8513 23.1997 13.8768 23.103 13.9065 23.0054L13.3264 23.1519C13.2967 23.3005 13.2817 23.4151 13.2817 23.4957C13.2817 23.8566 13.4294 24.1485 13.7249 24.3713C14.0202 24.5942 14.4059 24.7057 14.8819 24.7057C15.3921 24.7057 15.8042 24.5719 16.1188 24.3044C16.4334 24.037 16.5905 23.6867 16.5905 23.2537C16.5905 23.0076 16.5311 22.7826 16.4122 22.5787C16.293 22.3749 16.1272 22.2116 15.9148 22.0884C15.7831 22.012 15.528 21.9016 15.1498 21.7573C15.1073 21.7445 15.0541 21.7265 14.9904 21.7031C14.9266 21.6799 14.8724 21.6586 14.8278 21.6395C14.7832 21.6204 14.7268 21.597 14.6588 21.5694C14.5909 21.5418 14.543 21.5207 14.5154 21.5057C14.4877 21.4909 14.457 21.4739 14.423 21.4548C14.3889 21.4357 14.3613 21.4156 14.34 21.3943C14.1743 21.2712 14.0915 21.112 14.0915 20.9167C14.0915 20.7172 14.1669 20.5559 14.3178 20.4327C14.4685 20.3097 14.6652 20.248 14.9075 20.248C15.1795 20.248 15.408 20.3234 15.5929 20.4741C15.7778 20.6248 15.8702 20.8063 15.8702 21.0186C15.8702 21.061 15.8638 21.1173 15.851 21.1873C15.8384 21.2574 15.8256 21.3243 15.8128 21.3879L16.3803 21.267L16.3994 20.9931C16.3994 20.6917 16.2558 20.4401 15.969 20.2385Z" fill="#008AD2"/>
<path fill-rule="evenodd" clip-rule="evenodd" d="M20.3776 24.6165L19.0897 20.0251H18.0825L16.7245 24.6165L17.1832 24.6164L17.4835 23.5786H18.9306L19.2238 24.6165H20.3776ZM18.8221 23.1646L18.2358 21.0129L17.6059 23.1646H18.8221Z" fill="#008AD2"/>
<path d="M22.3732 19.5921L23.3997 18.7197H22.3158L21.8185 19.5921H22.3732Z" fill="#008AD2"/>
<path d="M21.7993 23.1218V20.0251H20.6518V23.1264C20.6518 23.4491 20.6847 23.7038 20.7506 23.8905C20.8164 24.0774 20.9303 24.2302 21.0918 24.349C21.4105 24.5869 21.842 24.7057 22.386 24.7057C22.9682 24.7057 23.3934 24.5614 23.6611 24.2727C23.7927 24.1325 23.8821 23.9808 23.9288 23.8174C23.9754 23.6539 23.9989 23.4172 23.9989 23.1073V20.0251H23.6101V23.1218C23.6101 23.338 23.5973 23.5055 23.5719 23.624C23.5464 23.7428 23.5042 23.8467 23.4449 23.9356C23.2798 24.1731 23.0298 24.2918 22.6953 24.2918C22.3732 24.2918 22.1319 24.188 21.9709 23.9802C21.8905 23.8615 21.8418 23.7619 21.8249 23.6813C21.8078 23.6009 21.7993 23.4143 21.7993 23.1218Z" fill="#008AD2"/>
<path fill-rule="evenodd" clip-rule="evenodd" d="M27.8464 20.6588C27.483 20.2364 26.9868 20.0251 26.3578 20.0251H24.6555V24.6165H26.3514C27.0824 24.6165 27.6265 24.3512 27.9835 23.8205C28.2555 23.4172 28.3915 22.9375 28.3915 22.3813C28.3915 21.6554 28.2098 21.0813 27.8464 20.6588ZM26.9699 20.9995C26.8125 20.5877 26.5341 20.3818 26.1347 20.3818H25.803V24.2599H26.2047C26.8508 24.2599 27.1738 23.6612 27.1738 22.4641C27.1738 21.8528 27.1057 21.3646 26.9699 20.9995Z" fill="#008AD2"/>
<path d="M31.7322 20.439V20.0251H28.9079V24.6165H32.0001V24.2026H30.0555V22.2922H31.4709V21.8974H30.0555V20.439H31.7322Z" fill="#008AD2"/>
</g>
<defs>
<clipPath id="clip0">
<path d="M0 0H32V32H0V0Z" fill="white"/>
</clipPath>
</defs>
</svg>
