<svg width="24" height="24" viewBox="0 0 24 24" fill="none" xmlns="http://www.w3.org/2000/svg">
<path fill-rule="evenodd" clip-rule="evenodd" d="M22.6146 6.00003V7.74278H23.7766V9.16508H22.6146L22.6147 11.6323C22.616 12.178 22.6853 12.1839 23.1916 12.1839C23.2745 12.1839 23.3527 12.1809 23.4255 12.1839C23.5486 12.1885 23.6561 12.1945 23.7165 12.1839H23.8811V13.5719L23.756 13.5848C23.6079 13.6004 23.4716 13.6072 23.3134 13.6072C23.2132 13.6072 23.1125 13.6044 23.003 13.6014C22.8731 13.5976 22.7301 13.5943 22.5578 13.5943C21.9483 13.5943 21.5579 13.533 21.2368 13.2128C20.8594 12.8392 20.7021 12.5534 20.7021 11.7521L20.6941 9.16508H19.7762V7.74278H20.6932V6.00003H22.6146ZM6.0424 9.13519C6.83408 9.13519 7.11607 9.9108 7.11607 10.6366C7.11607 11.4985 6.68117 12.013 5.95271 12.013C5.34294 12.013 4.91718 11.4469 4.91718 10.6366C4.91718 9.65434 5.30633 9.13519 6.0424 9.13519ZM6.61432 7.49174C8.31384 7.49174 9.32846 8.65459 9.32846 10.6024C9.32846 12.4226 8.20727 13.6458 6.53819 13.6458C5.85587 13.6458 5.31202 13.4755 4.91718 13.1394V15.3005H2.80633V7.60473H4.91718V8.16342C5.32076 7.73816 5.93305 7.49174 6.61432 7.49174ZM2.11085 7.60477V15.3004H0V7.60477H2.11085ZM17.334 7.47749C18.0823 7.47749 18.5921 7.7036 18.8933 8.16873C19.1196 8.513 19.2253 9.00371 19.2253 9.71255V13.4785H17.2142V10.2418C17.2142 9.87414 17.1796 9.64987 17.0984 9.49212C17.0392 9.37833 16.9249 9.24735 16.565 9.24735C16.2176 9.24735 15.9689 9.44226 15.8521 9.62468C15.6885 9.87764 15.636 10.1178 15.636 10.6134V13.4785H13.6249L13.6249 10.2247C13.6244 9.95097 13.6104 9.67623 13.5205 9.50402C13.4274 9.32392 13.265 9.24735 12.9761 9.24735C12.6288 9.24735 12.38 9.44226 12.2632 9.62468C12.0993 9.87757 12.0468 10.1176 12.0468 10.6134V13.4785H10.0239V7.58995H12.0121V8.20424C12.4899 7.72165 13.0716 7.47749 13.7446 7.47749C14.5564 7.47749 15.0919 7.75339 15.3762 8.31987C15.9605 7.75339 16.6026 7.47749 17.334 7.47749ZM2.11085 6V7.27955H0V6H2.11085Z" fill="#233E81"/>
<path fill-rule="evenodd" clip-rule="evenodd" d="M11.1805 14.9517C11.4961 14.9517 11.7615 15.0275 11.9766 15.1786C12.1917 15.3299 12.2994 15.5186 12.2994 15.7446L12.2851 15.95L11.8595 16.0407C11.8691 15.9929 11.8787 15.9428 11.8881 15.8903C11.8977 15.8377 11.9025 15.7955 11.9025 15.7637C11.9025 15.6045 11.8332 15.4684 11.6945 15.3553C11.5559 15.2423 11.3845 15.1857 11.1805 15.1857C10.9988 15.1857 10.8513 15.232 10.7382 15.3242C10.625 15.4167 10.5685 15.5377 10.5685 15.6873C10.5685 15.8337 10.6306 15.9531 10.7549 16.0455C10.7709 16.0614 10.7916 16.0765 10.8171 16.0909C10.8426 16.1052 10.8657 16.1179 10.8864 16.129C10.9072 16.1403 10.943 16.1561 10.994 16.1768C11.045 16.1975 11.0873 16.215 11.1208 16.2294C11.1542 16.2437 11.1948 16.2597 11.2427 16.2771C11.2905 16.2946 11.3303 16.3081 11.3622 16.3177C11.6459 16.4259 11.8372 16.5087 11.936 16.566C12.0953 16.6585 12.2196 16.7809 12.309 16.9338C12.3982 17.0867 12.4428 17.2554 12.4428 17.44C12.4428 17.7648 12.3249 18.0275 12.089 18.2281C11.8531 18.4287 11.5439 18.529 11.1613 18.529C10.8043 18.529 10.515 18.4454 10.2935 18.2783C10.0719 18.1111 9.96118 17.8922 9.96118 17.6215C9.96118 17.5611 9.97237 17.4751 9.99468 17.3637L10.4298 17.2538C10.4075 17.327 10.3883 17.3995 10.3724 17.4711C10.3564 17.5428 10.3485 17.5961 10.3485 17.6311C10.3485 17.819 10.4202 17.9735 10.5637 18.0944C10.7071 18.2154 10.8904 18.2759 11.1135 18.2759C11.3016 18.2759 11.4538 18.2265 11.5702 18.1278C11.6865 18.0291 11.7447 17.9002 11.7447 17.7409C11.7447 17.6168 11.6969 17.5117 11.6013 17.4257C11.5439 17.3716 11.4881 17.3318 11.4339 17.3063C11.3351 17.2522 11.1884 17.1886 10.994 17.1153L10.7645 17.0198L10.535 16.91C10.1747 16.6902 9.99468 16.3894 9.99468 16.0072C9.99468 15.6921 10.103 15.4373 10.3198 15.2431C10.5366 15.0489 10.8234 14.9517 11.1805 14.9517ZM13.6767 15.7594L14.1164 17.3732H13.2043L13.6767 15.7594ZM14.3172 15.0186L15.2831 18.4621H14.4177L14.1978 17.6837H13.1125L12.8873 18.4621L12.5433 18.4621L13.5618 15.0186H14.3172ZM17.5497 14.0396L16.7798 14.6938H16.3638L16.7368 14.0396H17.5497ZM16.3494 15.0186V17.3411C16.3494 17.5605 16.3557 17.7004 16.3685 17.7608C16.3812 17.8212 16.4178 17.8959 16.4781 17.9849C16.5988 18.1407 16.7798 18.2186 17.0213 18.2186C17.2723 18.2186 17.4597 18.1296 17.5836 17.9514C17.6281 17.8848 17.6597 17.8069 17.6788 17.7178C17.6978 17.6289 17.7074 17.5032 17.7074 17.3411V15.0186H17.9991V17.3302C17.9991 17.5627 17.9815 17.7402 17.9464 17.8628C17.9114 17.9854 17.8444 18.0992 17.7457 18.2043C17.5449 18.4208 17.2261 18.529 16.7894 18.529C16.3814 18.529 16.0577 18.4399 15.8187 18.2615C15.6976 18.1724 15.6122 18.0578 15.5628 17.9177C15.5134 17.7776 15.4887 17.5866 15.4887 17.3446V15.0186H16.3494ZM19.6009 15.2861C19.9004 15.2861 20.1093 15.4406 20.2273 15.7494C20.3292 16.0232 20.3802 16.3893 20.3802 16.8478C20.3802 17.7457 20.1379 18.1947 19.6534 18.1947H19.3522V15.2861H19.6009ZM19.7682 15.0186C20.24 15.0186 20.6122 15.1771 20.8847 15.4938C21.1573 15.8107 21.2935 16.2413 21.2935 16.7858C21.2935 17.2029 21.1915 17.5627 20.9875 17.8652C20.7197 18.2632 20.3117 18.4621 19.7634 18.4621H18.4915V15.0186H19.7682ZM23.799 15.0186V15.329H22.5415V16.4228H23.603V16.7189H22.5415V18.1517H23.9999V18.4621H21.6808V15.0186H23.799Z" fill="#19A6DC"/>
</svg>
