<svg width="64" height="96" viewBox="0 0 64 96" fill="none" xmlns="http://www.w3.org/2000/svg">
<path fill-rule="evenodd" clip-rule="evenodd" d="M46.1529 40V42.3237H47.7021V44.2201H46.1529L46.1529 47.5097C46.1547 48.2374 46.247 48.2452 46.9221 48.2452C47.0326 48.2452 47.1369 48.2412 47.234 48.2452C47.3981 48.2513 47.5415 48.2593 47.622 48.2452H47.8414V50.0958L47.6746 50.1131C47.4772 50.1339 47.2955 50.1429 47.0845 50.1429C46.951 50.1429 46.8166 50.1392 46.6707 50.1352C46.4974 50.1302 46.3068 50.1257 46.0771 50.1257C45.2644 50.1257 44.7438 50.044 44.3158 49.617C43.8126 49.119 43.6028 48.7379 43.6028 47.6694L43.5921 44.2201H42.3682V42.3237H43.5909V40H46.1529ZM24.0565 44.1803C25.1121 44.1803 25.4881 45.2144 25.4881 46.1822C25.4881 47.3314 24.9082 48.0173 23.9369 48.0173C23.1239 48.0173 22.5562 47.2626 22.5562 46.1822C22.5562 44.8725 23.0751 44.1803 24.0565 44.1803ZM24.8191 41.989C27.0851 41.989 28.4379 43.5395 28.4379 46.1365C28.4379 48.5634 26.943 50.1944 24.7176 50.1944C23.8078 50.1944 23.0827 49.9674 22.5562 49.5192V52.4006H19.7418V42.1396H22.5562V42.8846C23.0943 42.3175 23.9107 41.989 24.8191 41.989ZM18.8145 42.1397V52.4006H16V42.1397H18.8145ZM39.112 41.97C40.1097 41.97 40.7894 42.2715 41.1911 42.8916C41.4927 43.3507 41.6337 44.005 41.6337 44.9501V49.9714H38.9523V45.6557C38.9523 45.1655 38.9062 44.8665 38.7979 44.6562C38.719 44.5044 38.5665 44.3298 38.0867 44.3298C37.6235 44.3298 37.2918 44.5897 37.1361 44.8329C36.918 45.1702 36.848 45.4905 36.848 46.1512V49.9714H34.1666L34.1666 45.6329C34.1659 45.268 34.1472 44.9016 34.0273 44.672C33.9032 44.4319 33.6866 44.3298 33.3014 44.3298C32.8384 44.3298 32.5067 44.5897 32.351 44.8329C32.1323 45.1701 32.0624 45.4902 32.0624 46.1512V49.9714H29.3652V42.1199H32.0161V42.939C32.6532 42.2955 33.4288 41.97 34.3262 41.97C35.4086 41.97 36.1226 42.3379 36.5016 43.0932C37.2806 42.3379 38.1368 41.97 39.112 41.97ZM18.8145 40V41.7061H16V40H18.8145Z" fill="#233E81"/>
<path fill-rule="evenodd" clip-rule="evenodd" d="M30.9075 51.936C31.3283 51.936 31.6821 52.0369 31.969 52.2385C32.2558 52.4401 32.3994 52.6917 32.3994 52.9931L32.3803 53.267L31.8128 53.3879C31.8256 53.3243 31.8384 53.2574 31.851 53.1873C31.8638 53.1173 31.8702 53.061 31.8702 53.0186C31.8702 52.8063 31.7778 52.6248 31.5929 52.4741C31.408 52.3234 31.1795 52.248 30.9075 52.248C30.6652 52.248 30.4685 52.3097 30.3178 52.4327C30.1669 52.5559 30.0915 52.7172 30.0915 52.9167C30.0915 53.112 30.1743 53.2712 30.34 53.3943C30.3613 53.4156 30.3889 53.4357 30.423 53.4548C30.457 53.4739 30.4877 53.4909 30.5154 53.5057C30.543 53.5207 30.5909 53.5418 30.6588 53.5694C30.7268 53.597 30.7832 53.6204 30.8278 53.6395C30.8724 53.6586 30.9266 53.6799 30.9904 53.7031C31.0541 53.7265 31.1073 53.7445 31.1498 53.7573C31.528 53.9016 31.7831 54.012 31.9148 54.0884C32.1272 54.2116 32.293 54.3749 32.4122 54.5787C32.5311 54.7826 32.5905 55.0076 32.5905 55.2537C32.5905 55.6867 32.4334 56.037 32.1188 56.3044C31.8042 56.5719 31.3921 56.7057 30.8819 56.7057C30.4059 56.7057 30.0202 56.5942 29.7249 56.3713C29.4294 56.1485 29.2817 55.8566 29.2817 55.4957C29.2817 55.4151 29.2967 55.3005 29.3264 55.1519L29.9065 55.0054C29.8768 55.103 29.8513 55.1997 29.8301 55.2951C29.8087 55.3907 29.7981 55.4618 29.7981 55.5085C29.7981 55.759 29.8938 55.9649 30.0851 56.1262C30.2763 56.2876 30.5207 56.3682 30.8182 56.3682C31.069 56.3682 31.272 56.3024 31.4271 56.1708C31.5822 56.0392 31.6598 55.8673 31.6598 55.6549C31.6598 55.4893 31.596 55.3493 31.4685 55.2346C31.3921 55.1625 31.3177 55.1094 31.2454 55.0755C31.1136 55.0033 30.918 54.9184 30.6588 54.8207L30.3528 54.6934L30.0468 54.547C29.5665 54.2539 29.3264 53.8528 29.3264 53.3433C29.3264 52.9231 29.4709 52.5834 29.7599 52.3245C30.049 52.0656 30.4314 51.936 30.9075 51.936ZM34.2358 53.0129L34.8221 55.1646H33.6059L34.2358 53.0129ZM35.0897 52.0251L36.3776 56.6165H35.2238L34.9306 55.5786H33.4835L33.1832 56.6164L32.7245 56.6165L34.0825 52.0251H35.0897ZM39.3997 50.7197L38.3732 51.5921H37.8185L38.3158 50.7197H39.3997ZM37.7993 52.0251V55.1218C37.7993 55.4143 37.8078 55.6009 37.8249 55.6813C37.8418 55.7619 37.8905 55.8615 37.9709 55.9802C38.1319 56.188 38.3732 56.2918 38.6953 56.2918C39.0298 56.2918 39.2798 56.1731 39.4449 55.9356C39.5042 55.8467 39.5464 55.7428 39.5719 55.624C39.5973 55.5055 39.6101 55.338 39.6101 55.1218V52.0251H39.9989V55.1073C39.9989 55.4172 39.9754 55.6539 39.9288 55.8174C39.8821 55.9808 39.7927 56.1325 39.6611 56.2727C39.3934 56.5614 38.9682 56.7057 38.386 56.7057C37.842 56.7057 37.4105 56.5869 37.0918 56.349C36.9303 56.2302 36.8164 56.0774 36.7506 55.8905C36.6847 55.7038 36.6518 55.4491 36.6518 55.1264V52.0251H37.7993ZM42.1347 52.3818C42.5341 52.3818 42.8125 52.5877 42.9699 52.9995C43.1057 53.3646 43.1738 53.8528 43.1738 54.4641C43.1738 55.6612 42.8508 56.2599 42.2047 56.2599H41.803V52.3818H42.1347ZM42.3578 52.0251C42.9868 52.0251 43.483 52.2364 43.8464 52.6588C44.2098 53.0813 44.3915 53.6554 44.3915 54.3813C44.3915 54.9375 44.2555 55.4172 43.9835 55.8205C43.6265 56.3512 43.0824 56.6165 42.3514 56.6165H40.6555V52.0251H42.3578ZM47.7322 52.0251V52.439H46.0555V53.8974H47.4709V54.2922H46.0555V56.2026H48.0001V56.6165H44.9079V52.0251H47.7322Z" fill="#19A6DC"/>
</svg>
