<svg width="64" height="96" viewBox="0 0 64 96" fill="none" xmlns="http://www.w3.org/2000/svg">
<path d="M46.1529 42.3237V40H43.5909V42.3237H42.3682V44.2201H43.5921L43.6028 47.6694C43.6028 48.7379 43.8126 49.119 44.3158 49.617C44.7438 50.044 45.2644 50.1257 46.0771 50.1257C46.3068 50.1257 46.4974 50.1302 46.6707 50.1352L46.6767 50.1354C46.8203 50.1393 46.9528 50.1429 47.0845 50.1429C47.2955 50.1429 47.4772 50.1339 47.6746 50.1131L47.8414 50.0958V48.2452H47.622C47.5509 48.2576 47.4306 48.2529 47.2904 48.2474C47.272 48.2466 47.2531 48.2459 47.234 48.2452C47.17 48.2426 47.1027 48.2434 47.0327 48.2443C46.9966 48.2447 46.9597 48.2452 46.9221 48.2452C46.247 48.2452 46.1547 48.2374 46.1529 47.5097L46.1529 44.2201H47.7021V42.3237H46.1529Z" fill="#008AD2"/>
<path fill-rule="evenodd" clip-rule="evenodd" d="M28.4379 46.1365C28.4379 43.5395 27.0851 41.989 24.8191 41.989C23.9107 41.989 23.0943 42.3175 22.5562 42.8846V42.1396H19.7418V52.4006H22.5562V49.5192C23.0827 49.9674 23.8078 50.1944 24.7176 50.1944C26.943 50.1944 28.4379 48.5634 28.4379 46.1365ZM25.4881 46.1822C25.4881 45.2144 25.1121 44.1803 24.0565 44.1803C23.0751 44.1803 22.5562 44.8725 22.5562 46.1822C22.5562 47.2626 23.1239 48.0173 23.9369 48.0173C24.9082 48.0173 25.4881 47.3314 25.4881 46.1822Z" fill="#008AD2"/>
<path d="M18.8145 52.4006V42.1397H16V52.4006H18.8145Z" fill="#008AD2"/>
<path d="M41.1911 42.8916C40.7894 42.2715 40.1097 41.97 39.112 41.97C38.1368 41.97 37.2806 42.3379 36.5016 43.0932C36.1226 42.3379 35.4086 41.97 34.3262 41.97C33.4288 41.97 32.6532 42.2955 32.0161 42.939V42.1199H29.3652V49.9714H32.0624V46.1512C32.0624 45.4902 32.1323 45.1701 32.351 44.8329C32.5067 44.5897 32.8384 44.3298 33.3014 44.3298C33.6866 44.3298 33.9032 44.4319 34.0273 44.672C34.1472 44.9016 34.1659 45.268 34.1666 45.6329L34.1666 49.9714H36.848V46.1512C36.848 45.4905 36.918 45.1702 37.1361 44.8329C37.2918 44.5897 37.6235 44.3298 38.0867 44.3298C38.5665 44.3298 38.719 44.5044 38.7979 44.6562C38.9062 44.8665 38.9523 45.1655 38.9523 45.6557V49.9714H41.6337V44.9501C41.6337 44.005 41.4927 43.3507 41.1911 42.8916Z" fill="#008AD2"/>
<path d="M18.8145 41.7061V40H16V41.7061H18.8145Z" fill="#008AD2"/>
<path d="M31.9689 52.2383C31.682 52.0368 31.3282 51.9359 30.9074 51.9359C30.4313 51.9359 30.0489 52.0655 29.7598 52.3244C29.4708 52.5833 29.3263 52.9229 29.3263 53.3432C29.3263 53.8527 29.5664 54.2538 30.0467 54.5468L30.3527 54.6933L30.6587 54.8206C30.9179 54.9183 31.1135 55.0031 31.2453 55.0753C31.3176 55.1093 31.392 55.1623 31.4684 55.2344C31.5959 55.3491 31.6597 55.4892 31.6597 55.6548C31.6597 55.8671 31.5821 56.039 31.427 56.1706C31.2719 56.3023 31.0689 56.368 30.8181 56.368C30.5206 56.368 30.2762 56.2875 30.085 56.126C29.8937 55.9648 29.798 55.7589 29.798 55.5083C29.798 55.4617 29.8086 55.3906 29.83 55.295C29.8512 55.1995 29.8767 55.1029 29.9064 55.0052L29.3263 55.1518C29.2965 55.3004 29.2816 55.415 29.2816 55.4956C29.2816 55.8565 29.4293 56.1483 29.7248 56.3712C30.0201 56.5941 30.4058 56.7056 30.8818 56.7056C31.392 56.7056 31.8041 56.5718 32.1187 56.3043C32.4332 56.0369 32.5904 55.6866 32.5904 55.2536C32.5904 55.0074 32.531 54.7825 32.4121 54.5786C32.2929 54.3748 32.1271 54.2115 31.9147 54.0883C31.783 54.0118 31.5279 53.9015 31.1497 53.7571C31.1072 53.7444 31.054 53.7264 30.9903 53.703C30.9265 53.6797 30.8723 53.6585 30.8277 53.6394C30.7831 53.6202 30.7267 53.5969 30.6587 53.5693C30.5908 53.5417 30.5429 53.5205 30.5153 53.5055C30.4876 53.4907 30.4569 53.4738 30.4229 53.4547C30.3888 53.4356 30.3612 53.4155 30.3399 53.3942C30.1742 53.2711 30.0914 53.1118 30.0914 52.9166C30.0914 52.7171 30.1668 52.5558 30.3177 52.4325C30.4684 52.3096 30.6651 52.2478 30.9074 52.2478C31.1794 52.2478 31.4079 52.3233 31.5928 52.474C31.7777 52.6247 31.8701 52.8062 31.8701 53.0185C31.8701 53.0609 31.8637 53.1171 31.8509 53.1872C31.8383 53.2573 31.8255 53.3241 31.8127 53.3878L32.3802 53.2668L32.3993 52.993C32.3993 52.6916 32.2557 52.44 31.9689 52.2383Z" fill="#008AD2"/>
<path fill-rule="evenodd" clip-rule="evenodd" d="M36.3775 56.6164L35.0896 52.025H34.0824L32.7244 56.6164L33.1831 56.6163L33.4834 55.5784H34.9305L35.2237 56.6164H36.3775ZM34.822 55.1645L34.2357 53.0128L33.6058 55.1645H34.822Z" fill="#008AD2"/>
<path d="M38.3731 51.592L39.3996 50.7196H38.3157L37.8184 51.592H38.3731Z" fill="#008AD2"/>
<path d="M37.7992 55.1217V52.025H36.6517V55.1263C36.6517 55.4489 36.6846 55.7037 36.7505 55.8904C36.8163 56.0773 36.9302 56.2301 37.0917 56.3489C37.4104 56.5867 37.8419 56.7056 38.3859 56.7056C38.9681 56.7056 39.3933 56.5613 39.661 56.2726C39.7926 56.1324 39.882 55.9807 39.9286 55.8172C39.9753 55.6538 39.9988 55.4171 39.9988 55.1072V52.025H39.6099V55.1217C39.6099 55.3379 39.5971 55.5054 39.5718 55.6239C39.5463 55.7427 39.5041 55.8466 39.4448 55.9355C39.2797 56.1729 39.0297 56.2917 38.6952 56.2917C38.3731 56.2917 38.1318 56.1878 37.9708 55.9801C37.8904 55.8614 37.8417 55.7618 37.8247 55.6812C37.8077 55.6007 37.7992 55.4142 37.7992 55.1217Z" fill="#008AD2"/>
<path fill-rule="evenodd" clip-rule="evenodd" d="M43.8463 52.6587C43.4829 52.2363 42.9867 52.025 42.3576 52.025H40.6554V56.6164H42.3513C43.0823 56.6164 43.6264 56.3511 43.9834 55.8204C44.2554 55.4171 44.3914 54.9374 44.3914 54.3812C44.3914 53.6552 44.2097 53.0812 43.8463 52.6587ZM42.9698 52.9994C42.8124 52.5876 42.534 52.3817 42.1346 52.3817H41.8029V56.2598H42.2046C42.8507 56.2598 43.1737 55.6611 43.1737 54.464C43.1737 53.8526 43.1056 53.3645 42.9698 52.9994Z" fill="#008AD2"/>
<path d="M47.7321 52.4389V52.025H44.9078V56.6164H48V56.2025H46.0554V54.2921H47.4708V53.8972H46.0554V52.4389H47.7321Z" fill="#008AD2"/>
</svg>
