<svg width="160" height="24" viewBox="0 0 160 24" fill="none" xmlns="http://www.w3.org/2000/svg">
<path d="M58.3574 4.49728V6.82462e-05H53.399V4.49728H51.0328V8.16753H53.4014L53.4221 14.8433C53.4221 16.9112 53.8281 17.6487 54.8019 18.6127C55.6304 19.439 56.6378 19.5971 58.2109 19.5971C58.6553 19.5971 59.0243 19.6058 59.3596 19.6156L59.3715 19.6159C59.6494 19.6234 59.9057 19.6304 60.1605 19.6304C60.5689 19.6304 60.9205 19.613 61.3026 19.5727L61.6254 19.5393V15.9576H61.2008C61.0631 15.9817 60.8304 15.9725 60.5591 15.9618C60.5233 15.9604 60.4869 15.959 60.4499 15.9576C60.3259 15.9525 60.1958 15.9542 60.0602 15.9558C59.9903 15.9567 59.919 15.9576 59.8462 15.9576C58.5397 15.9576 58.3609 15.9425 58.3575 14.5341L58.3574 8.16753H61.3559V4.49728H58.3574Z" fill="#008AD2"/>
<path fill-rule="evenodd" clip-rule="evenodd" d="M24.0722 11.8765C24.0722 6.85022 21.454 3.84946 17.0683 3.84946C15.3103 3.84946 13.7303 4.48534 12.6889 5.58273V4.14104H7.24177V24H12.6889V18.4233C13.7078 19.2907 15.1112 19.73 16.8719 19.73C21.179 19.73 24.0722 16.5735 24.0722 11.8765ZM18.3631 11.9649C18.3631 10.0919 17.6354 8.09041 15.5925 8.09041C13.6931 8.09041 12.6889 9.43008 12.6889 11.9649C12.6889 14.0559 13.7875 15.5166 15.3611 15.5166C17.2409 15.5166 18.3631 14.189 18.3631 11.9649Z" fill="#008AD2"/>
<path d="M5.44708 23.9999V4.14114H0V23.9999H5.44708Z" fill="#008AD2"/>
<path d="M48.7545 5.59645C47.9771 4.39618 46.6616 3.81268 44.7306 3.81268C42.8433 3.81268 41.1862 4.52465 39.6786 5.98647C38.945 4.52465 37.5631 3.81268 35.4682 3.81268C33.7316 3.81268 32.2304 4.44275 30.9973 5.68807V4.10289H25.8668V19.2985H31.087V11.9049C31.087 10.6256 31.2223 10.0061 31.6454 9.35354C31.9469 8.88281 32.5888 8.37984 33.4849 8.37984C34.2305 8.37984 34.6497 8.57742 34.8898 9.04217C35.1218 9.48657 35.158 10.1955 35.1593 10.9019L35.1594 19.2985H40.3489V11.9049C40.3489 10.6261 40.4843 10.0063 40.9066 9.35354C41.2079 8.88281 41.8498 8.37984 42.7463 8.37984C43.675 8.37984 43.97 8.71783 44.1227 9.01146C44.3323 9.41854 44.4216 9.99726 44.4216 10.946V19.2985H49.6111V9.58028C49.6111 7.75113 49.3383 6.48483 48.7545 5.59645Z" fill="#008AD2"/>
<path d="M5.44708 3.30189V0H0V3.30189H5.44708Z" fill="#008AD2"/>
<path d="M69.5278 11.0223C68.9725 10.6323 68.2877 10.4369 67.4735 10.4369C66.5519 10.4369 65.8118 10.6878 65.2524 11.1888C64.693 11.6899 64.4133 12.3473 64.4133 13.1606C64.4133 14.1468 64.878 14.9231 65.8077 15.4902L66.3999 15.7736L66.9921 16.0199C67.4938 16.2092 67.8723 16.3733 68.1273 16.513C68.2672 16.5787 68.4112 16.6814 68.5592 16.821C68.806 17.0429 68.9293 17.314 68.9293 17.6345C68.9293 18.0455 68.7792 18.3782 68.479 18.6329C68.1788 18.8876 67.7859 19.0149 67.3006 19.0149C66.7248 19.0149 66.2518 18.859 65.8817 18.5466C65.5115 18.2345 65.3263 17.836 65.3263 17.3511C65.3263 17.2608 65.3468 17.1231 65.3882 16.9382C65.4292 16.7534 65.4785 16.5664 65.5361 16.3774L64.4133 16.6609C64.3558 16.9486 64.3269 17.1704 64.3269 17.3263C64.3269 18.0248 64.6127 18.5897 65.1846 19.021C65.7561 19.4524 66.5026 19.6682 67.4239 19.6682C68.4112 19.6682 69.2089 19.4092 69.8177 18.8915C70.4265 18.3741 70.7307 17.6961 70.7307 16.858C70.7307 16.3816 70.6158 15.9462 70.3855 15.5516C70.1549 15.1572 69.8339 14.8412 69.423 14.6027C69.1679 14.4547 68.6743 14.2411 67.9424 13.9618C67.86 13.9371 67.7572 13.9023 67.6339 13.8571C67.5104 13.812 67.4055 13.7709 67.3192 13.7339C67.2328 13.6969 67.1236 13.6517 66.9921 13.5983C66.8606 13.5448 66.768 13.5039 66.7145 13.4749C66.6609 13.4462 66.6015 13.4135 66.5357 13.3765C66.4698 13.3394 66.4163 13.3005 66.3751 13.2594C66.0543 13.0211 65.8941 12.7129 65.8941 12.335C65.8941 11.9489 66.04 11.6367 66.3321 11.3982C66.6238 11.1602 67.0044 11.0408 67.4735 11.0408C67.9997 11.0408 68.442 11.1868 68.7998 11.4784C69.1577 11.7701 69.3365 12.1214 69.3365 12.5323C69.3365 12.6143 69.3242 12.7232 69.2995 12.8588C69.275 12.9944 69.2503 13.1238 69.2255 13.247L70.3238 13.0129L70.3607 12.4829C70.3607 11.8996 70.0828 11.4127 69.5278 11.0223Z" fill="#008AD2"/>
<path fill-rule="evenodd" clip-rule="evenodd" d="M78.0602 19.4956L75.5676 10.6095H73.6183L70.99 19.4956L71.8777 19.4954L72.459 17.4868H75.2597L75.8271 19.4956H78.0602ZM75.0496 16.6856L73.9148 12.5212L72.6958 16.6856H75.0496Z" fill="#008AD2"/>
<path d="M81.9224 9.7714L83.9091 8.08301H81.8114L80.8488 9.7714H81.9224Z" fill="#008AD2"/>
<path d="M80.8118 16.6028V10.6095H78.5908V16.6116C78.5908 17.2361 78.6546 17.7292 78.782 18.0905C78.9094 18.4522 79.1298 18.7479 79.4424 18.9779C80.0592 19.4382 80.8943 19.6682 81.9472 19.6682C83.074 19.6682 83.8968 19.3889 84.4149 18.8301C84.6698 18.5589 84.8426 18.2652 84.933 17.9489C85.0234 17.6326 85.0688 17.1745 85.0688 16.5746V10.6095H84.3162V16.6028C84.3162 17.0211 84.2914 17.3453 84.2424 17.5748C84.193 17.8046 84.1114 18.0057 83.9966 18.1777C83.677 18.6373 83.1933 18.8672 82.5457 18.8672C81.9224 18.8672 81.4554 18.6662 81.1438 18.264C80.9882 18.0344 80.8939 17.8416 80.8611 17.6857C80.8282 17.5299 80.8118 17.1689 80.8118 16.6028Z" fill="#008AD2"/>
<path fill-rule="evenodd" clip-rule="evenodd" d="M92.5152 11.8358C91.8119 11.0184 90.8514 10.6095 89.634 10.6095H86.3396V19.4955H89.6217C91.0366 19.4955 92.0895 18.9822 92.7804 17.9551C93.3069 17.1745 93.5701 16.246 93.5701 15.1696C93.5701 13.7646 93.2186 12.6536 92.5152 11.8358ZM90.8188 12.4953C90.5142 11.6983 89.9753 11.2998 89.2024 11.2998H88.5605V18.8054H89.3378C90.5882 18.8054 91.2134 17.6468 91.2134 15.3298C91.2134 14.1466 91.0817 13.2019 90.8188 12.4953Z" fill="#008AD2"/>
<path d="M100.036 11.4105V10.6095H94.5697V19.4956H100.554V18.6945H96.7906V14.9971H99.5299V14.233H96.7906V11.4105H100.036Z" fill="#008AD2"/>
</svg>
