<svg width="160" height="24" viewBox="0 0 160 24" fill="none" xmlns="http://www.w3.org/2000/svg">
<path fill-rule="evenodd" clip-rule="evenodd" d="M67.4735 10.4369C68.2877 10.4369 68.9725 10.6323 69.5278 11.0223C70.0828 11.4127 70.3607 11.8996 70.3607 12.4829L70.3238 13.0129L69.2255 13.247C69.2503 13.1238 69.275 12.9944 69.2995 12.8588C69.3242 12.7232 69.3365 12.6143 69.3365 12.5323C69.3365 12.1214 69.1577 11.7701 68.7998 11.4784C68.442 11.1868 67.9997 11.0408 67.4735 11.0408C67.0044 11.0408 66.6238 11.1602 66.3321 11.3982C66.04 11.6367 65.8941 11.9489 65.8941 12.335C65.8941 12.7129 66.0543 13.0211 66.3751 13.2594C66.4163 13.3005 66.4698 13.3394 66.5357 13.3765C66.6015 13.4135 66.6609 13.4462 66.7145 13.4749C66.768 13.5039 66.8606 13.5448 66.9921 13.5983C67.1236 13.6517 67.2328 13.6969 67.3192 13.7339C67.4055 13.7709 67.5104 13.812 67.6339 13.8571C67.7572 13.9023 67.86 13.9371 67.9423 13.9618C68.6743 14.2411 69.1679 14.4547 69.423 14.6027C69.8339 14.8412 70.1549 15.1572 70.3855 15.5516C70.6158 15.9462 70.7307 16.3816 70.7307 16.858C70.7307 17.6961 70.4265 18.3741 69.8177 18.8915C69.2089 19.4092 68.4112 19.6682 67.4239 19.6682C66.5026 19.6682 65.7561 19.4524 65.1846 19.021C64.6127 18.5897 64.3269 18.0248 64.3269 17.3263C64.3269 17.1704 64.3558 16.9486 64.4133 16.6609L65.5361 16.3774C65.4785 16.5664 65.4292 16.7534 65.3882 16.9382C65.3468 17.1231 65.3263 17.2608 65.3263 17.3511C65.3263 17.836 65.5115 18.2345 65.8817 18.5466C66.2518 18.859 66.7248 19.0149 67.3006 19.0149C67.7859 19.0149 68.1788 18.8876 68.479 18.6329C68.7792 18.3782 68.9293 18.0455 68.9293 17.6345C68.9293 17.314 68.806 17.0429 68.5592 16.821C68.4112 16.6814 68.2672 16.5787 68.1273 16.513C67.8723 16.3733 67.4938 16.2092 66.9921 16.0199L66.3999 15.7736L65.8077 15.4902C64.8779 14.9231 64.4133 14.1468 64.4133 13.1606C64.4133 12.3473 64.693 11.6899 65.2524 11.1888C65.8118 10.6878 66.5519 10.4369 67.4735 10.4369ZM73.9149 12.5212L75.0496 16.6856H72.6958L73.9149 12.5212ZM75.5676 10.6095L78.0602 19.4956H75.8271L75.2597 17.4868H72.459L71.8777 19.4954L70.99 19.4956L73.6183 10.6095H75.5676ZM83.9091 8.08301L81.9224 9.7714H80.8488L81.8114 8.08301H83.9091ZM80.8118 10.6095V16.6028C80.8118 17.1689 80.8282 17.5299 80.8611 17.6857C80.8939 17.8416 80.9882 18.0344 81.1438 18.264C81.4554 18.6662 81.9224 18.8672 82.5457 18.8672C83.1933 18.8672 83.677 18.6373 83.9966 18.1777C84.1114 18.0057 84.193 17.8046 84.2424 17.5748C84.2914 17.3453 84.3162 17.0211 84.3162 16.6028V10.6095H85.0688V16.5746C85.0688 17.1745 85.0234 17.6326 84.933 17.9489C84.8426 18.2652 84.6698 18.5589 84.4149 18.8301C83.8968 19.3889 83.074 19.6682 81.9472 19.6682C80.8943 19.6682 80.0592 19.4382 79.4423 18.9779C79.1298 18.7479 78.9094 18.4522 78.782 18.0905C78.6546 17.7292 78.5908 17.2361 78.5908 16.6116V10.6095H80.8118ZM89.2024 11.2998C89.9753 11.2998 90.5142 11.6983 90.8188 12.4953C91.0817 13.2019 91.2134 14.1466 91.2134 15.3298C91.2134 17.6468 90.5882 18.8054 89.3378 18.8054H88.5605V11.2998H89.2024ZM89.634 10.6095C90.8514 10.6095 91.8119 11.0184 92.5152 11.8358C93.2186 12.6536 93.5701 13.7646 93.5701 15.1696C93.5701 16.246 93.3069 17.1745 92.7804 17.9551C92.0895 18.9822 91.0366 19.4955 89.6217 19.4955H86.3396V10.6095H89.634ZM100.036 10.6095V11.4105H96.7906V14.233H99.5299V14.9971H96.7906V18.6945H100.554V19.4956H94.5697V10.6095H100.036Z" fill="#19A6DC"/>
<path fill-rule="evenodd" clip-rule="evenodd" d="M58.3574 6.82462e-05V4.49728H61.3559V8.16753H58.3574L58.3575 14.5341C58.3609 15.9425 58.5397 15.9576 59.8462 15.9576C60.0601 15.9576 60.262 15.9499 60.4499 15.9576C60.7674 15.9695 61.045 15.9849 61.2008 15.9576H61.6254V19.5393L61.3026 19.5727C60.9205 19.613 60.5689 19.6304 60.1605 19.6304C59.9021 19.6304 59.6421 19.6232 59.3596 19.6156C59.0243 19.6058 58.6553 19.5971 58.2109 19.5971C56.6378 19.5971 55.6304 19.439 54.8019 18.6127C53.8281 17.6487 53.4221 16.9112 53.4221 14.8433L53.4014 8.16753H51.0328V4.49728H53.399V6.82462e-05H58.3574ZM15.5925 8.09041C17.6354 8.09041 18.3631 10.0919 18.3631 11.9649C18.3631 14.189 17.2409 15.5166 15.3611 15.5166C13.7875 15.5166 12.6889 14.0559 12.6889 11.9649C12.6889 9.43008 13.6931 8.09041 15.5925 8.09041ZM17.0683 3.84946C21.454 3.84946 24.0722 6.85022 24.0722 11.8765C24.0722 16.5735 21.179 19.73 16.8719 19.73C15.1112 19.73 13.7078 19.2907 12.6889 18.4233V24H7.24177V4.14104H12.6889V5.58273C13.7303 4.48534 15.3103 3.84946 17.0683 3.84946ZM5.44708 4.14114V23.9999H0V4.14114H5.44708ZM44.7306 3.81268C46.6616 3.81268 47.9771 4.39618 48.7545 5.59645C49.3383 6.48483 49.6111 7.75113 49.6111 9.58028V19.2985H44.4216V10.946C44.4216 9.99726 44.3323 9.41854 44.1227 9.01146C43.97 8.71783 43.675 8.37984 42.7463 8.37984C41.8498 8.37984 41.2079 8.88281 40.9066 9.35354C40.4843 10.0063 40.3489 10.6261 40.3489 11.9049V19.2985H35.1594L35.1593 10.9019C35.158 10.1955 35.1218 9.48657 34.8898 9.04217C34.6497 8.57742 34.2305 8.37984 33.4849 8.37984C32.5888 8.37984 31.9469 8.88281 31.6454 9.35354C31.2223 10.0061 31.087 10.6256 31.087 11.9049V19.2985H25.8668V4.10289H30.9973V5.68807C32.2304 4.44275 33.7316 3.81268 35.4682 3.81268C37.5631 3.81268 38.945 4.52465 39.6786 5.98647C41.1862 4.52465 42.8433 3.81268 44.7306 3.81268ZM5.44708 0V3.30189H0V0H5.44708Z" fill="#233E81"/>
</svg>
