<svg width="24" height="24" viewBox="0 0 24 24" fill="none" xmlns="http://www.w3.org/2000/svg">
<path d="M22.6146 7.74278V6.00003H20.6932V7.74278H19.7762V9.16508H20.6941L20.7021 11.7521C20.7021 12.5534 20.8594 12.8392 21.2368 13.2128C21.5579 13.533 21.9483 13.5943 22.5578 13.5943C22.7301 13.5943 22.8731 13.5976 23.003 13.6014L23.0075 13.6015C23.1153 13.6045 23.2146 13.6072 23.3134 13.6072C23.4716 13.6072 23.6079 13.6004 23.756 13.5848L23.8811 13.5719V12.1839H23.7165C23.6632 12.1932 23.573 12.1897 23.4678 12.1855C23.454 12.185 23.4398 12.1844 23.4255 12.1839C23.3775 12.1819 23.3271 12.1825 23.2745 12.1832C23.2474 12.1835 23.2198 12.1839 23.1916 12.1839C22.6853 12.1839 22.616 12.178 22.6147 11.6323L22.6146 9.16508H23.7766V7.74278H22.6146Z" fill="#008AD2"/>
<path fill-rule="evenodd" clip-rule="evenodd" d="M9.32846 10.6024C9.32846 8.65459 8.31384 7.49174 6.61432 7.49174C5.93305 7.49174 5.32076 7.73816 4.91718 8.16342V7.60473H2.80633V15.3005H4.91718V13.1394C5.31202 13.4755 5.85587 13.6458 6.53819 13.6458C8.20727 13.6458 9.32846 12.4226 9.32846 10.6024ZM7.11607 10.6366C7.11607 9.9108 6.83408 9.13519 6.0424 9.13519C5.30633 9.13519 4.91718 9.65434 4.91718 10.6366C4.91718 11.4469 5.34294 12.013 5.95271 12.013C6.68117 12.013 7.11607 11.4985 7.11607 10.6366Z" fill="#008AD2"/>
<path d="M2.11085 15.3004V7.60477H0V15.3004H2.11085Z" fill="#008AD2"/>
<path d="M18.8933 8.16873C18.5921 7.7036 18.0823 7.47749 17.334 7.47749C16.6026 7.47749 15.9605 7.75339 15.3762 8.31987C15.0919 7.75339 14.5564 7.47749 13.7446 7.47749C13.0716 7.47749 12.4899 7.72165 12.0121 8.20424V7.58995H10.0239V13.4785H12.0468V10.6134C12.0468 10.1176 12.0993 9.87757 12.2632 9.62468C12.38 9.44226 12.6288 9.24735 12.9761 9.24735C13.265 9.24735 13.4274 9.32392 13.5205 9.50402C13.6104 9.67623 13.6244 9.95097 13.6249 10.2247L13.6249 13.4785H15.636V10.6134C15.636 10.1178 15.6885 9.87764 15.8521 9.62468C15.9689 9.44226 16.2176 9.24735 16.565 9.24735C16.9249 9.24735 17.0392 9.37833 17.0984 9.49212C17.1796 9.64987 17.2142 9.87414 17.2142 10.2418V13.4785H19.2253V9.71255C19.2253 9.00371 19.1196 8.513 18.8933 8.16873Z" fill="#008AD2"/>
<path d="M2.11085 7.27955V6H0V7.27955H2.11085Z" fill="#008AD2"/>
<path d="M11.9766 15.1786C11.7615 15.0275 11.4961 14.9517 11.1805 14.9517C10.8234 14.9517 10.5366 15.0489 10.3198 15.2431C10.103 15.4373 9.99468 15.6921 9.99468 16.0072C9.99468 16.3894 10.1747 16.6902 10.535 16.91L10.7645 17.0198L10.994 17.1153C11.1884 17.1886 11.3351 17.2522 11.4339 17.3063C11.4881 17.3318 11.5439 17.3716 11.6013 17.4257C11.6969 17.5117 11.7447 17.6168 11.7447 17.7409C11.7447 17.9002 11.6865 18.0291 11.5702 18.1278C11.4538 18.2265 11.3016 18.2759 11.1135 18.2759C10.8904 18.2759 10.7071 18.2154 10.5637 18.0944C10.4202 17.9735 10.3485 17.819 10.3485 17.6311C10.3485 17.5961 10.3564 17.5428 10.3724 17.4711C10.3883 17.3995 10.4075 17.327 10.4298 17.2538L9.99468 17.3637C9.97237 17.4751 9.96118 17.5611 9.96118 17.6215C9.96118 17.8922 10.0719 18.1111 10.2935 18.2783C10.515 18.4454 10.8043 18.529 11.1613 18.529C11.5439 18.529 11.8531 18.4287 12.089 18.2281C12.3249 18.0275 12.4428 17.7648 12.4428 17.44C12.4428 17.2554 12.3982 17.0867 12.309 16.9338C12.2196 16.7809 12.0953 16.6585 11.936 16.566C11.8372 16.5087 11.6459 16.4259 11.3622 16.3177C11.3303 16.3081 11.2905 16.2946 11.2427 16.2771C11.1948 16.2597 11.1542 16.2437 11.1208 16.2294C11.0873 16.215 11.045 16.1975 10.994 16.1768C10.943 16.1561 10.9072 16.1403 10.8864 16.129C10.8657 16.1179 10.8426 16.1052 10.8171 16.0909C10.7916 16.0765 10.7709 16.0614 10.7549 16.0455C10.6306 15.9531 10.5685 15.8337 10.5685 15.6873C10.5685 15.5377 10.625 15.4167 10.7382 15.3242C10.8513 15.232 10.9988 15.1857 11.1805 15.1857C11.3845 15.1857 11.5559 15.2423 11.6945 15.3553C11.8332 15.4684 11.9025 15.6045 11.9025 15.7637C11.9025 15.7955 11.8977 15.8377 11.8881 15.8903C11.8787 15.9428 11.8691 15.9929 11.8595 16.0407L12.2851 15.95L12.2994 15.7446C12.2994 15.5186 12.1917 15.3299 11.9766 15.1786Z" fill="#008AD2"/>
<path fill-rule="evenodd" clip-rule="evenodd" d="M15.2831 18.4621L14.3172 15.0186H13.5618L12.5433 18.4621L12.8873 18.4621L13.1125 17.6837H14.1978L14.4177 18.4621H15.2831ZM14.1164 17.3732L13.6767 15.7594L13.2043 17.3732H14.1164Z" fill="#008AD2"/>
<path d="M16.7798 14.6938L17.5497 14.0396H16.7368L16.3638 14.6938H16.7798Z" fill="#008AD2"/>
<path d="M16.3494 17.3411V15.0186H15.4887V17.3446C15.4887 17.5866 15.5134 17.7776 15.5628 17.9177C15.6122 18.0578 15.6976 18.1724 15.8187 18.2615C16.0577 18.4399 16.3814 18.529 16.7894 18.529C17.2261 18.529 17.5449 18.4208 17.7457 18.2043C17.8444 18.0991 17.9114 17.9854 17.9464 17.8628C17.9815 17.7402 17.9991 17.5627 17.9991 17.3302V15.0186H17.7074V17.3411C17.7074 17.5032 17.6978 17.6289 17.6788 17.7178C17.6597 17.8069 17.6281 17.8848 17.5836 17.9514C17.4597 18.1296 17.2723 18.2186 17.0213 18.2186C16.7798 18.2186 16.5988 18.1407 16.4781 17.9849C16.4178 17.8959 16.3812 17.8212 16.3685 17.7608C16.3557 17.7004 16.3494 17.5605 16.3494 17.3411Z" fill="#008AD2"/>
<path fill-rule="evenodd" clip-rule="evenodd" d="M20.8847 15.4938C20.6122 15.1771 20.24 15.0186 19.7682 15.0186H18.4915V18.4621H19.7634C20.3117 18.4621 20.7197 18.2632 20.9875 17.8652C21.1915 17.5627 21.2935 17.2029 21.2935 16.7858C21.2935 16.2413 21.1573 15.8107 20.8847 15.4938ZM20.2273 15.7494C20.1093 15.4406 19.9004 15.2861 19.6009 15.2861H19.3522V18.1947H19.6534C20.1379 18.1947 20.3802 17.7457 20.3802 16.8478C20.3802 16.3893 20.3292 16.0232 20.2273 15.7494Z" fill="#008AD2"/>
<path d="M23.799 15.329V15.0186H21.6808V18.4621H23.9999V18.1517H22.5415V16.7189H23.603V16.4228H22.5415V15.329H23.799Z" fill="#008AD2"/>
</svg>
