<svg width="200" height="96" viewBox="0 0 200 96" fill="none" xmlns="http://www.w3.org/2000/svg">
<g clip-path="url(#clip0)">
<path fill-rule="evenodd" clip-rule="evenodd" d="M181.276 0.000202637V13.3534H190.179V24.2511H181.276L181.276 43.1549C181.286 47.3368 181.817 47.3815 185.696 47.3815C186.331 47.3815 186.931 47.3587 187.489 47.3815C188.431 47.417 189.256 47.4625 189.718 47.3815H190.979V58.0163L190.02 58.1156C188.886 58.2352 187.842 58.2868 186.629 58.2868C185.862 58.2868 185.09 58.2656 184.251 58.2428C183.256 58.2139 182.16 58.188 180.84 58.188C176.17 58.188 173.178 57.7184 170.719 55.265C167.827 52.4028 166.622 50.2128 166.622 44.073L166.56 24.2511H159.527V13.3534H166.553V0.000202637H181.276ZM54.2975 24.0222C60.3634 24.0222 62.524 29.965 62.524 35.5263C62.524 42.1302 59.1918 46.072 53.6102 46.072C48.9381 46.072 45.6759 41.7351 45.6759 35.5263C45.6759 27.9999 48.6576 24.0222 54.2975 24.0222ZM58.6795 11.4299C71.7014 11.4299 79.4755 20.3398 79.4755 35.2639C79.4755 49.2103 70.8849 58.5827 58.0963 58.5827C52.8682 58.5827 48.7012 57.2782 45.6759 54.7027V71.2611H29.5023V12.2956H45.6759V16.5763C48.7682 13.3179 53.4596 11.4299 58.6795 11.4299ZM24.1735 12.2959V71.2609H8V12.2959H24.1735ZM140.815 11.3206C146.548 11.3206 150.454 13.0532 152.762 16.617C154.496 19.2548 155.306 23.0148 155.306 28.4459V57.3012H139.897V32.5011C139.897 29.684 139.632 27.9657 139.01 26.7569C138.556 25.8851 137.68 24.8815 134.923 24.8815C132.261 24.8815 130.355 26.375 129.46 27.7726C128.207 29.7108 127.804 31.5513 127.804 35.3482V57.3012H112.396L112.396 32.3701C112.391 30.2728 112.284 28.1676 111.595 26.8481C110.882 25.4682 109.638 24.8815 107.424 24.8815C104.763 24.8815 102.857 26.375 101.962 27.7726C100.706 29.7103 100.304 31.5498 100.304 35.3482V57.3012H84.8039V12.1824H100.038V16.8891C103.699 13.1915 108.156 11.3206 113.313 11.3206C119.533 11.3206 123.636 13.4346 125.814 17.7751C130.291 13.4346 135.211 11.3206 140.815 11.3206ZM24.1735 0V9.80402H8V0H24.1735Z" fill="#233E81"/>
<path fill-rule="evenodd" clip-rule="evenodd" d="M93.6668 68.5904C96.0845 68.5904 98.1178 69.1705 99.7667 70.3285C101.414 71.4876 102.24 72.9334 102.24 74.6654L102.13 76.2389L98.8689 76.9339C98.9425 76.5682 99.016 76.1842 99.0886 75.7814C99.1621 75.3787 99.1986 75.0555 99.1986 74.8118C99.1986 73.592 98.6676 72.5489 97.6051 71.6826C96.5425 70.8169 95.2294 70.3832 93.6668 70.3832C92.2741 70.3832 91.1441 70.7379 90.2778 71.4445C89.4105 72.1528 88.9774 73.0798 88.9774 74.2262C88.9774 75.3483 89.4531 76.2632 90.4056 76.9709C90.5278 77.093 90.6866 77.2085 90.8823 77.3184C91.0776 77.4284 91.2541 77.5256 91.4134 77.6107C91.5721 77.6969 91.847 77.8184 92.2375 77.977C92.6281 78.1356 92.9522 78.2698 93.2088 78.3797C93.4649 78.4897 93.7763 78.6118 94.143 78.7455C94.5092 78.8797 94.8145 78.9831 95.059 79.0565C97.2323 79.8858 98.698 80.5201 99.4553 80.9593C100.676 81.6675 101.629 82.6057 102.313 83.7769C102.997 84.9487 103.338 86.2415 103.338 87.6559C103.338 90.1442 102.435 92.1574 100.627 93.6939C98.8198 95.2309 96.4512 95.9999 93.5197 95.9999C90.784 95.9999 88.5676 95.3591 86.8705 94.0784C85.1725 92.7978 84.324 91.1204 84.324 89.0465C84.324 88.5834 84.4097 87.9249 84.5806 87.0708L87.9143 86.2288C87.7434 86.7901 87.5968 87.3453 87.4751 87.894C87.3524 88.4431 87.2915 88.8519 87.2915 89.1199C87.2915 90.5596 87.8413 91.743 88.9404 92.6696C90.0394 93.5972 91.4438 94.0602 93.1535 94.0602C94.5944 94.0602 95.7609 93.6823 96.6526 92.9259C97.5437 92.1696 97.9895 91.1817 97.9895 89.9614C97.9895 89.01 97.6233 88.205 96.8904 87.546C96.4512 87.1316 96.0237 86.8266 95.6083 86.6316C94.8511 86.2167 93.7271 85.7293 92.2375 85.1675L90.4791 84.436L88.7207 83.5946C85.9601 81.9107 84.5806 79.6057 84.5806 76.6776C84.5806 74.2627 85.4109 72.3108 87.0719 70.823C88.7329 69.3351 90.9305 68.5904 93.6668 68.5904ZM112.793 74.7791L116.162 87.1439H109.173L112.793 74.7791ZM117.7 69.1027L125.101 95.4874H118.471L116.786 89.5228H108.47L106.744 95.4869L104.108 95.4874L111.912 69.1027H117.7ZM142.468 61.6011L136.569 66.6143H133.381L136.239 61.6011H142.468ZM133.271 69.1026V86.8981C133.271 88.5789 133.32 89.6509 133.418 90.1134C133.515 90.5764 133.795 91.1489 134.257 91.8307C135.182 93.0248 136.569 93.6215 138.419 93.6215C140.342 93.6215 141.779 92.9391 142.727 91.5744C143.068 91.0638 143.311 90.4665 143.457 89.7841C143.603 89.1028 143.676 88.1402 143.676 86.8981V69.1026H145.911V86.8145C145.911 88.5957 145.776 89.9558 145.508 90.8951C145.24 91.8343 144.726 92.7061 143.97 93.5116C142.431 95.1707 139.988 96 136.642 96C133.516 96 131.036 95.3171 129.205 93.9503C128.277 93.2674 127.623 92.3895 127.244 91.3155C126.866 90.2426 126.677 88.7785 126.677 86.9244V69.1026H133.271ZM158.185 71.1523C160.48 71.1523 162.08 72.3357 162.984 74.702C163.765 76.8003 164.156 79.6052 164.156 83.1184C164.156 89.9979 162.299 93.4381 158.587 93.4381H156.279V71.1523H158.185ZM159.466 69.1026C163.081 69.1026 165.933 70.3169 168.021 72.744C170.109 75.1721 171.153 78.471 171.153 82.6427C171.153 85.8388 170.372 88.5957 168.809 90.9133C166.757 93.963 163.631 95.4873 159.43 95.4873H149.684V69.1026H159.466ZM190.351 69.1027V71.4811H180.715V79.8616H188.849V82.1306H180.715V93.1089H191.89V95.4873H174.121V69.1027H190.351Z" fill="#19A6DC"/>
</g>
<defs>
<clipPath id="clip0">
<path d="M0 0H200V96H0V0Z" fill="white"/>
</clipPath>
</defs>
</svg>
