<svg width="160" height="24" viewBox="0 0 160 24" fill="none" xmlns="http://www.w3.org/2000/svg">
<path d="M99.9096 0.297374L95.998 13.005L90.9805 0.297374L85.8507 13.005L82.4157 1.15521C82.0446 -0.0263244 81.3589 0.242276 81.3589 0.242276H75.0652C78.6647 1.42305 79.4023 4.05013 79.4023 4.05013L85.7458 23.8332L90.9805 8.44874L96.2627 23.8332L103.658 0.297374H99.9096Z" fill="#008AD2"/>
<path fill-rule="evenodd" clip-rule="evenodd" d="M117.243 0L103.82 23.5312C103.82 23.5312 110.573 21.4911 116.969 21.4911C123.363 21.4911 130.484 23.5312 130.484 23.5312L117.243 0ZM122.721 17.5065L111.946 17.6014L117.243 7.68916L122.721 17.5065Z" fill="#008AD2"/>
<path d="M149.999 0.37252H145.799L139.494 9.86001L133.185 0.37252H128.981L137.484 13.1605V23.9627H141.5V13.1605L149.999 0.37252Z" fill="#008AD2"/>
<path d="M0 0.130036V23.8411H4.11986V0.130036H0Z" fill="#008AD2"/>
<path d="M27.8556 0.129883H23.2628V13.3012L8.45108 0.129883V23.8409H13.0416V10.8984L27.8556 23.8409V0.129883Z" fill="#008AD2"/>
<path d="M47.1785 0.129883H32.4844V23.8409H36.6043V13.1161H45.1638V8.9363H36.6043V4.31194H47.1785V0.129883Z" fill="#008AD2"/>
<path d="M75.1313 12.0919C75.1313 10.4444 74.8032 8.87868 74.205 7.45226L74.153 7.40099C74.153 7.40099 72.6919 5.26137 67.8638 6.12457C69.6348 7.49512 70.7806 9.65617 70.7806 12.0919C70.7806 16.2327 67.4723 19.5883 63.3917 19.5883C59.311 19.5883 56.0043 16.2327 56.0043 12.0919C56.0043 7.95197 59.311 4.59638 63.3917 4.59638C64.9802 4.59638 66.4518 5.10603 67.6541 5.97152L71.6593 3.63676C69.5375 1.5025 66.6147 0.18169 63.3917 0.18169C56.9087 0.18169 51.6551 5.51314 51.6551 12.0919C51.6551 18.6677 56.9087 23.9999 63.3917 23.9999C69.877 23.9999 75.1313 18.6677 75.1313 12.0919Z" fill="#008AD2"/>
</svg>
