<svg width="160" height="24" viewBox="0 0 160 24" fill="none" xmlns="http://www.w3.org/2000/svg">
<path fill-rule="evenodd" clip-rule="evenodd" d="M95.998 13.005L99.9096 0.297374H103.658L96.2627 23.8332L90.9805 8.44874L85.7458 23.8332L79.4023 4.05013C79.4023 4.05013 78.6647 1.42305 75.0652 0.242276H81.3589C81.3589 0.242276 82.0446 -0.0263243 82.4157 1.15521L85.8507 13.005L90.9805 0.297374L95.998 13.005ZM103.82 23.5312L117.243 0L130.484 23.5312C130.484 23.5312 123.363 21.4911 116.969 21.4911C110.573 21.4911 103.82 23.5312 103.82 23.5312ZM111.946 17.6014L122.721 17.5065L117.243 7.68916L111.946 17.6014ZM145.799 0.37252H149.999L141.5 13.1605V23.9627H137.484V13.1605L128.981 0.37252H133.185L139.494 9.86001L145.799 0.37252Z" fill="#38B449"/>
<path fill-rule="evenodd" clip-rule="evenodd" d="M0 23.8411V0.130036H4.11986V23.8411H0ZM23.2628 0.129883H27.8556V23.8409L13.0416 10.8984V23.8409H8.45108V0.129883L23.2628 13.3012V0.129883ZM36.6043 0.129883H47.1785V4.31194H36.6043V8.9363H45.1638V13.1161H36.6043V23.8409H32.4844V0.129883H34.0593H36.6043ZM74.205 7.45226C74.8032 8.87868 75.1313 10.4444 75.1313 12.0919C75.1313 18.6677 69.877 23.9999 63.3917 23.9999C56.9087 23.9999 51.6551 18.6677 51.6551 12.0919C51.6551 5.51314 56.9087 0.18169 63.3917 0.18169C66.6147 0.18169 69.5375 1.5025 71.6593 3.63676L67.6541 5.97152C66.4518 5.10603 64.9802 4.59638 63.3917 4.59638C59.311 4.59638 56.0043 7.95197 56.0043 12.0919C56.0043 16.2327 59.311 19.5883 63.3917 19.5883C67.4723 19.5883 70.7806 16.2327 70.7806 12.0919C70.7806 9.65617 69.6348 7.49512 67.8638 6.12457C72.6919 5.26137 74.153 7.40099 74.153 7.40099L74.205 7.45226Z" fill="#0079B8"/>
</svg>
