<svg width="64" height="96" viewBox="0 0 64 96" fill="none" xmlns="http://www.w3.org/2000/svg">
<path fill-rule="evenodd" clip-rule="evenodd" d="M46.296 41.7681C47.0996 43.6845 47.5404 45.788 47.5404 48.0015C47.5404 56.8361 40.4812 64 31.7682 64C23.0582 64 16 56.8361 16 48.0015C16 39.1629 23.0582 32 31.7682 32C36.0983 32 40.0252 33.7745 42.8758 36.6419L37.4948 39.7787C35.8795 38.6159 33.9023 37.9312 31.7682 37.9312C26.2858 37.9312 21.8431 42.4395 21.8431 48.0015C21.8431 53.5647 26.2858 58.0729 31.7682 58.0729C37.2506 58.0729 41.6952 53.5647 41.6952 48.0015C41.6952 44.7291 40.1559 41.8257 37.7765 39.9843C44.2631 38.8246 46.2261 41.6992 46.2261 41.6992L46.296 41.7681Z" fill="#008AD2"/>
</svg>
