<svg width="200" height="96" viewBox="0 0 200 96" fill="none" xmlns="http://www.w3.org/2000/svg">
<path fill-rule="evenodd" clip-rule="evenodd" d="M127.998 49.3401L133.213 32.3965H138.212L128.351 63.7777L121.308 43.265L114.328 63.7777L105.87 37.4002C105.87 37.4002 104.887 33.8974 100.087 32.323H108.479C108.479 32.323 109.393 31.9649 109.888 33.5403L114.468 49.3401L121.308 32.3965L127.998 49.3401ZM138.427 63.3751L156.325 32L173.979 63.3751C173.979 63.3751 164.484 60.6549 155.959 60.6549C147.432 60.6549 138.427 63.3751 138.427 63.3751ZM149.262 55.4686L163.628 55.3421L156.325 42.2523L149.262 55.4686ZM194.399 32.4967H200L188.668 49.5474V63.9504H183.313V49.5474L171.975 32.4967H177.581L185.992 45.1467L194.399 32.4967Z" fill="#38B449"/>
<path fill-rule="evenodd" clip-rule="evenodd" d="M0 63.7884V32.1735H5.49318V63.7884H0ZM31.0173 32.1733H37.141V63.7882L17.3889 46.5314V63.7882H11.2682V32.1733L31.0173 49.7352V32.1733ZM48.8059 32.1733H62.905V37.7494H48.8059V43.9153H60.2187V49.4883H48.8059V63.7882H43.3128V32.1733H45.4127H48.8059ZM98.9405 41.9366C99.738 43.8385 100.176 45.9261 100.176 48.1228C100.176 56.8905 93.1697 64.0002 84.5227 64.0002C75.8786 64.0002 68.8738 56.8905 68.8738 48.1228C68.8738 39.351 75.8786 32.2424 84.5227 32.2424C88.8201 32.2424 92.7172 34.0035 95.5462 36.8492L90.2059 39.9622C88.6028 38.8082 86.6407 38.1287 84.5227 38.1287C79.0818 38.1287 74.6728 42.6028 74.6728 48.1228C74.6728 53.6438 79.0818 58.118 84.5227 58.118C89.9635 58.118 94.3746 53.6438 94.3746 48.1228C94.3746 44.8751 92.8469 41.9937 90.4855 40.1663C96.923 39.0154 98.8711 41.8682 98.8711 41.8682L98.9405 41.9366Z" fill="#0079B8"/>
</svg>
