<svg width="32" height="32" viewBox="0 0 32 32" fill="none" xmlns="http://www.w3.org/2000/svg">
<path fill-rule="evenodd" clip-rule="evenodd" d="M30.296 9.7681C31.0996 11.6845 31.5404 13.788 31.5404 16.0015C31.5404 24.8361 24.4812 32 15.7682 32C7.05819 32 0 24.8361 0 16.0015C0 7.16286 7.05819 0 15.7682 0C20.0984 0 24.0252 1.77452 26.8759 4.64193L21.4948 7.7787C19.8795 6.6159 17.9024 5.93118 15.7682 5.93118C10.2858 5.93118 5.84315 10.4395 5.84315 16.0015C5.84315 21.5647 10.2858 26.0729 15.7682 26.0729C21.2506 26.0729 25.6953 21.5647 25.6953 16.0015C25.6953 12.7291 24.1559 9.82567 21.7765 7.98432C28.2632 6.82461 30.2261 9.69921 30.2261 9.69921L30.296 9.7681Z" fill="#008AD2"/>
</svg>
