<svg width="24" height="24" viewBox="0 0 24 24" fill="none" xmlns="http://www.w3.org/2000/svg">
<path fill-rule="evenodd" clip-rule="evenodd" d="M22.722 7.32607C23.3247 8.76337 23.6553 10.341 23.6553 12.0012C23.6553 18.6271 18.3609 24 11.8261 24C5.29364 24 0 18.6271 0 12.0012C0 5.37215 5.29364 0 11.8261 0C15.0738 0 18.0189 1.33089 20.1569 3.48145L16.1211 5.83402C14.9096 4.96193 13.4268 4.44839 11.8261 4.44839C7.71436 4.44839 4.38236 7.82959 4.38236 12.0012C4.38236 16.1735 7.71436 19.5547 11.8261 19.5547C15.9379 19.5547 19.2715 16.1735 19.2715 12.0012C19.2715 9.5468 18.117 7.36925 16.3324 5.98824C21.1974 5.11846 22.6696 7.27441 22.6696 7.27441L22.722 7.32607Z" fill="#008AD2"/>
</svg>
