<svg width="200" height="96" viewBox="0 0 200 96" fill="none" xmlns="http://www.w3.org/2000/svg">
<path d="M133.214 32.3965L127.998 49.3401L121.308 32.3965L114.468 49.3401L109.888 33.5403C109.393 31.9649 108.479 32.323 108.479 32.323H100.087C104.887 33.8974 105.87 37.4002 105.87 37.4002L114.328 63.7778L121.308 43.2651L128.351 63.7778L138.212 32.3965H133.214Z" fill="#008AD2"/>
<path fill-rule="evenodd" clip-rule="evenodd" d="M156.325 32L138.428 63.3752C138.428 63.3752 147.432 60.655 155.959 60.655C164.485 60.655 173.98 63.3752 173.98 63.3752L156.325 32ZM163.629 55.3421L149.262 55.4686L156.325 42.2523L163.629 55.3421Z" fill="#008AD2"/>
<path d="M200 32.4967H194.399L185.993 45.1468L177.581 32.4967H171.975L183.313 49.5474V63.9504H188.668V49.5474L200 32.4967Z" fill="#008AD2"/>
<path d="M0 32.1735V63.7885H5.49319V32.1735H0Z" fill="#008AD2"/>
<path d="M37.1411 32.1733H31.0173V49.7353L11.2682 32.1733V63.7883H17.3889V46.5314L37.1411 63.7883V32.1733Z" fill="#008AD2"/>
<path d="M62.9051 32.1733H43.3128V63.7883H48.806V49.4884H60.2188V43.9153H48.806V37.7494H62.9051V32.1733Z" fill="#008AD2"/>
<path d="M100.176 48.1228C100.176 45.9261 99.7382 43.8385 98.9407 41.9366L98.8713 41.8682C98.8713 41.8682 96.9232 39.0154 90.4856 40.1663C92.8471 41.9937 94.3747 44.8751 94.3747 48.1228C94.3747 53.6439 89.9637 58.118 84.5228 58.118C79.0819 58.118 74.6729 53.6439 74.6729 48.1228C74.6729 42.6029 79.0819 38.1287 84.5228 38.1287C86.6408 38.1287 88.603 38.8082 90.2061 39.9622L95.5464 36.8492C92.7173 34.0035 88.8202 32.2424 84.5228 32.2424C75.8787 32.2424 68.8739 39.3511 68.8739 48.1228C68.8739 56.8905 75.8787 64.0002 84.5228 64.0002C93.1699 64.0002 100.176 56.8905 100.176 48.1228Z" fill="#008AD2"/>
</svg>
