<svg width="200" height="96" viewBox="0 0 200 96" fill="none" xmlns="http://www.w3.org/2000/svg">
<path d="M100 49.2072C55.1012 49.2072 16.5637 39.1572 0 24.8231C12.271 43.2918 52.3947 56.8328 100 56.8328C147.605 56.8328 187.729 43.2918 200 24.8231C183.439 39.16 144.902 49.2072 100 49.2072Z" fill="#E0922E"/>
<path d="M63.1474 25.4584C62.5745 24.9927 62.0016 24.6484 61.4315 24.4255C60.8586 24.2025 60.3054 24.0896 59.7692 24.0896C59.089 24.0896 58.5359 24.2505 58.1069 24.5722C57.6779 24.894 57.4634 25.3145 57.4634 25.8338C57.4634 26.1922 57.5707 26.4857 57.7851 26.7199C57.9996 26.9514 58.2819 27.1546 58.629 27.3239C58.979 27.4932 59.3712 27.6428 59.8087 27.767C60.2461 27.8912 60.6808 28.0266 61.1097 28.1706C62.8257 28.7435 64.0844 29.5083 64.8802 30.465C65.6761 31.4218 66.074 32.6692 66.074 34.2073C66.074 35.2459 65.8991 36.1829 65.5519 37.0239C65.202 37.8649 64.694 38.5846 64.0223 39.1829C63.3506 39.7812 62.5293 40.2469 61.5528 40.5771C60.5763 40.9073 59.4728 41.0738 58.2395 41.0738C55.6826 41.0738 53.3119 40.3146 51.1303 38.7934L53.3825 34.5544C54.1699 35.2515 54.946 35.7708 55.7165 36.1095C56.4841 36.4482 57.2461 36.6203 57.9968 36.6203C58.8548 36.6203 59.4954 36.4228 59.9159 36.0305C60.3364 35.6382 60.5453 35.1895 60.5453 34.6899C60.5453 34.3851 60.4917 34.1227 60.3844 33.8997C60.2772 33.6767 60.0994 33.4707 59.8482 33.2816C59.597 33.0925 59.2725 32.9204 58.8689 32.7595C58.4653 32.5986 57.9799 32.4208 57.407 32.2233C56.7268 32.0088 56.0608 31.7717 55.4088 31.5121C54.7569 31.2524 54.1755 30.9081 53.6647 30.4792C53.1539 30.0502 52.7446 29.5083 52.4314 28.8564C52.1181 28.2044 51.9629 27.3775 51.9629 26.3756C51.9629 25.3737 52.1294 24.4678 52.4596 23.6522C52.7898 22.8394 53.2555 22.1423 53.8538 21.5609C54.4521 20.9795 55.1859 20.528 56.0523 20.2062C56.9187 19.8845 57.8896 19.7236 58.962 19.7236C59.9639 19.7236 61.011 19.8619 62.1003 20.1385C63.1897 20.4151 64.2368 20.8215 65.2387 21.3577L63.1474 25.4584Z" fill="#E0922E"/>
<path d="M82.0618 36.9926H74.5491L73.3411 40.5063H67.7334L75.4324 20.2794H81.1728L88.8719 40.5063H83.2641L82.0618 36.9926ZM80.6676 32.9963L78.3054 26.2625L75.9432 32.9963H80.6676Z" fill="#E0922E"/>
<path d="M96.094 20.2795V31.2777C96.094 31.8675 96.1166 32.4715 96.1617 33.0896C96.2069 33.7076 96.3395 34.2664 96.5653 34.766C96.7883 35.2655 97.1411 35.6747 97.6237 35.988C98.1063 36.3012 98.7864 36.4565 99.6613 36.4565C100.536 36.4565 101.214 36.3012 101.688 35.988C102.162 35.6747 102.515 35.2683 102.746 34.766C102.977 34.2664 103.116 33.7076 103.161 33.0896C103.206 32.4715 103.229 31.8675 103.229 31.2777V20.2795H108.461V32.003C108.461 35.1498 107.741 37.4499 106.302 38.8977C104.863 40.3455 102.647 41.0708 99.6613 41.0708C96.6754 41.0708 94.4571 40.3455 93.0093 38.8977C91.5615 37.4499 90.8362 35.1498 90.8362 32.003V20.2795H96.094ZM104.676 16.5485L99.5258 20.0904L97.4882 18.1854L101.863 14L104.676 16.5485Z" fill="#E0922E"/>
<path d="M112.565 20.2794H120.345C121.723 20.2794 123.015 20.5559 124.223 21.1119C125.431 21.6651 126.487 22.4045 127.39 23.3245C128.293 24.2446 129.004 25.3199 129.523 26.5447C130.043 27.7695 130.302 29.0537 130.302 30.3942C130.302 31.7178 130.048 32.9935 129.537 34.2183C129.027 35.4432 128.321 36.5213 127.418 37.4498C126.515 38.3811 125.459 39.1234 124.251 39.6765C123.043 40.2325 121.742 40.5091 120.348 40.5091H112.567V20.2794H112.565ZM117.822 36.0528H119.03C119.942 36.0528 120.757 35.9089 121.471 35.6238C122.185 35.3388 122.789 34.9436 123.283 34.4441C123.774 33.9446 124.15 33.3491 124.409 32.6605C124.669 31.9718 124.799 31.2155 124.799 30.3942C124.799 29.5899 124.666 28.8392 124.395 28.1421C124.127 27.445 123.746 26.8467 123.255 26.3443C122.764 25.8448 122.16 25.4497 121.443 25.1646C120.726 24.8796 119.922 24.7357 119.03 24.7357H117.822V36.0528Z" fill="#E0922E"/>
<path d="M144.947 24.7329H138.696V28.114H144.597V32.5674H138.696V36.0557H144.947V40.5092H133.438V20.2823H144.947V24.7329Z" fill="#E0922E"/>
<path d="M138.523 81.1918H146.42L142.319 61.8623H134.318L123.963 81.1918H131.651L132.684 78.7759H138.317L138.523 81.1918ZM134.6 74.2886L137.174 68.2631H137.425L137.936 74.2886H134.6Z" fill="#226AB3"/>
<path d="M79.7421 81.1918H87.6387L83.538 61.8623H75.537L65.1823 81.1918H72.87L73.9029 78.7759H79.5361L79.7421 81.1918ZM75.8192 74.2886L78.3931 68.2631H78.6443L79.1551 74.2886H75.8192Z" fill="#226AB3"/>
<path d="M96.6443 81.1918L99.9858 61.8623H92.727L89.3855 81.1918H96.6443Z" fill="#226AB3"/>
<path d="M67.1692 62.3164L66.0854 69.4707C63.5257 66.2986 58.1776 67.7774 57.4861 71.2883C56.5096 76.2441 62.4165 76.6618 65.521 73.7069L64.1917 80.4577C63.266 80.8669 63.0149 80.9092 62.1202 81.1237C61.251 81.3354 60.3563 81.4511 59.4532 81.4709C58.3413 81.4906 57.3337 81.3862 56.425 81.1576C55.5388 80.9403 54.7062 80.7681 53.9696 80.2771C52.567 79.357 51.3647 78.1858 50.741 76.7577C50.1173 75.3269 49.9113 73.5263 50.1229 71.7229C50.2951 70.2751 50.8906 68.9515 51.5369 67.7548C52.1775 66.5554 53.0665 65.4688 54.1982 64.481C55.2678 63.5384 56.4334 62.83 57.695 62.3474C58.9509 61.8705 60.3225 61.6137 61.8041 61.5854C62.6818 61.5629 66.3366 61.941 67.1692 62.3164Z" fill="#226AB3"/>
<path d="M113.155 81.3644L108.354 71.9551H117.32L122.121 81.3644H113.155Z" fill="#226AB3"/>
<path d="M108.986 71.0997L118.158 61.6904H127.116L117.944 71.0997H108.986Z" fill="#E0922E"/>
<path d="M99.179 81.3644L108.354 71.9551H117.312L108.137 81.3644H99.179Z" fill="#E0922E"/>
<path d="M108.983 71.0997L104.183 61.6904H113.152L117.949 71.0997H108.983Z" fill="#226AB3"/>
</svg>
