<svg width="160" height="24" viewBox="0 0 160 24" fill="none" xmlns="http://www.w3.org/2000/svg">
<path d="M134.497 18.9812H140.13L137.205 5.19187H131.497L124.11 18.9812H129.595L130.331 17.2578H134.35L134.497 18.9812ZM131.698 14.0566L133.535 9.75812H133.714L134.078 14.0566H131.698Z" fill="#226AB3"/>
<path d="M92.5633 18.9812H98.1966L95.2712 5.19187H89.5634L82.1765 18.9812H87.6608L88.3977 17.2578H92.4163L92.5633 18.9812ZM89.7648 14.0566L91.6009 9.75812H91.7801L92.1445 14.0566H89.7648Z" fill="#226AB3"/>
<path d="M104.621 18.9812L107.005 5.19187H101.827L99.4428 18.9812H104.621Z" fill="#226AB3"/>
<path d="M83.5939 5.51579L82.8208 10.6196C80.9947 8.35662 77.1794 9.41161 76.6862 11.9162C75.9895 15.4516 80.2035 15.7496 82.4181 13.6416L81.4699 18.4575C80.8095 18.7495 80.6303 18.7797 79.9921 18.9327C79.372 19.0837 78.7337 19.1662 78.0895 19.1803C77.2962 19.1944 76.5774 19.1199 75.9292 18.9569C75.297 18.8018 74.703 18.679 74.1775 18.3287C73.1769 17.6723 72.3192 16.8368 71.8743 15.8181C71.4293 14.7973 71.2824 13.5128 71.4334 12.2263C71.5562 11.1934 71.981 10.2492 72.442 9.3955C72.8991 8.53983 73.5333 7.7647 74.3406 7.06003C75.1037 6.38757 75.9352 5.88223 76.8352 5.53794C77.7311 5.19769 78.7096 5.01447 79.7666 4.99434C80.3927 4.97823 83 5.24802 83.5939 5.51579Z" fill="#226AB3"/>
<path d="M116.399 19.1041L112.975 12.3916H119.371L122.796 19.1041H116.399Z" fill="#226AB3"/>
<path d="M113.425 11.7818L119.969 5.06934H126.359L119.816 11.7818H113.425Z" fill="#E0922E"/>
<path d="M106.429 19.1041L112.975 12.3916H119.365L112.82 19.1041H106.429Z" fill="#E0922E"/>
<path d="M113.423 11.7818L109.999 5.06934H116.397L119.82 11.7818H113.423Z" fill="#226AB3"/>
<path d="M8.70317 8.17427C8.29446 7.84207 7.88576 7.59644 7.47906 7.43739C7.07036 7.27834 6.67574 7.19781 6.29321 7.19781C5.80799 7.19781 5.41338 7.31256 5.10735 7.54208C4.80132 7.77161 4.64831 8.07159 4.64831 8.44205C4.64831 8.69774 4.72481 8.90713 4.87783 9.07424C5.03084 9.23933 5.23218 9.38429 5.47982 9.50509C5.72947 9.62589 6.00932 9.7326 6.32139 9.82119C6.63346 9.90977 6.94352 10.0064 7.24954 10.1091C8.47366 10.5178 9.3716 11.0634 9.93936 11.7459C10.5071 12.4285 10.791 13.3184 10.791 14.4156C10.791 15.1565 10.6662 15.825 10.4185 16.4249C10.1689 17.0249 9.80648 17.5383 9.32731 17.9651C8.84813 18.392 8.26225 18.7242 7.56564 18.9597C6.86902 19.1953 6.08181 19.3141 5.20198 19.3141C3.37789 19.3141 1.68668 18.7725 0.130371 17.6873L1.73701 14.6633C2.29874 15.1606 2.85241 15.531 3.40205 15.7726C3.94968 16.0142 4.49328 16.137 5.02883 16.137C5.64088 16.137 6.09791 15.9961 6.3979 15.7162C6.69789 15.4364 6.84688 15.1163 6.84688 14.7599C6.84688 14.5425 6.80862 14.3552 6.73211 14.1962C6.65561 14.0371 6.52877 13.8901 6.34958 13.7552C6.17039 13.6204 5.93886 13.4975 5.65095 13.3828C5.36305 13.268 5.01675 13.1412 4.60804 13.0002C4.12282 12.8472 3.64768 12.6781 3.1826 12.4929C2.71752 12.3077 2.30277 12.062 1.93835 11.756C1.57394 11.45 1.282 11.0634 1.05852 10.5983C0.83504 10.1333 0.724306 9.54334 0.724306 8.82861C0.724306 8.11387 0.843096 7.46759 1.07866 6.88574C1.31422 6.3059 1.64641 5.8086 2.07324 5.39385C2.50007 4.9791 3.02354 4.65697 3.64164 4.42745C4.25973 4.19793 4.95232 4.08317 5.71739 4.08317C6.43213 4.08317 7.17907 4.18182 7.95622 4.37913C8.73337 4.57644 9.48032 4.86636 10.1951 5.24889L8.70317 8.17427Z" fill="#E0922E"/>
<path d="M22.1965 16.4026H16.837L15.9753 18.9092H11.9747L17.4671 4.47961H21.5623L27.0547 18.9092H23.0542L22.1965 16.4026ZM21.2019 13.5517L19.5167 8.74789L17.8316 13.5517H21.2019Z" fill="#E0922E"/>
<path d="M32.2068 4.47968V12.3257C32.2068 12.7465 32.2229 13.1773 32.2552 13.6182C32.2874 14.0591 32.382 14.4578 32.5431 14.8141C32.7021 15.1705 32.9538 15.4624 33.2981 15.6859C33.6424 15.9094 34.1276 16.0201 34.7517 16.0201C35.3758 16.0201 35.8591 15.9094 36.1973 15.6859C36.5355 15.4624 36.7872 15.1725 36.9523 14.8141C37.1174 14.4578 37.216 14.0591 37.2483 13.6182C37.2805 13.1773 37.2966 12.7465 37.2966 12.3257V4.47968H41.0293V12.8431C41.0293 15.088 40.5159 16.7288 39.4891 17.7617C38.4623 18.7945 36.8818 19.3119 34.7517 19.3119C32.6216 19.3119 31.0391 18.7945 30.0063 17.7617C28.9734 16.7288 28.456 15.088 28.456 12.8431V4.47968H32.2068ZM38.3294 1.81805L34.6551 4.34478L33.2014 2.98578L36.3221 0L38.3294 1.81805Z" fill="#E0922E"/>
<path d="M43.9567 4.47961H49.5075C50.49 4.47961 51.4121 4.67692 52.2738 5.07354C53.1355 5.46816 53.8885 5.99565 54.5327 6.652C55.177 7.30835 55.6844 8.07543 56.0548 8.94922C56.4253 9.82301 56.6105 10.7391 56.6105 11.6954C56.6105 12.6397 56.4293 13.5497 56.0649 14.4235C55.7005 15.2973 55.1971 16.0664 54.5529 16.7288C53.9086 17.3932 53.1556 17.9227 52.2939 18.3173C51.4322 18.7139 50.5041 18.9112 49.5095 18.9112H43.9587V4.47961H43.9567ZM47.7075 15.7322H48.5692C49.2195 15.7322 49.8014 15.6295 50.3108 15.4261C50.8201 15.2228 51.251 14.9409 51.6033 14.5846C51.9537 14.2282 52.2214 13.8034 52.4067 13.3121C52.5919 12.8209 52.6845 12.2813 52.6845 11.6954C52.6845 11.1216 52.5899 10.5861 52.3966 10.0888C52.2053 9.59148 51.9335 9.16465 51.5832 8.80627C51.2329 8.44991 50.802 8.16805 50.2906 7.9647C49.7793 7.76135 49.2054 7.65867 48.5692 7.65867H47.7075V15.7322Z" fill="#E0922E"/>
<path d="M67.0578 7.65672H62.5983V10.0687H66.8081V13.2458H62.5983V15.7342H67.0578V18.9113H58.8474V4.48168H67.0578V7.65672Z" fill="#E0922E"/>
</svg>
