<svg width="200" height="96" viewBox="0 0 200 96" fill="none" xmlns="http://www.w3.org/2000/svg">
<path d="M96.094 31.2777V20.2795H90.8362V32.003C90.8362 35.1498 91.5615 37.4499 93.0094 38.8977C94.4572 40.3455 96.6754 41.0708 99.6613 41.0708C102.647 41.0708 104.863 40.3455 106.302 38.8977C107.741 37.4499 108.461 35.1498 108.461 32.003V20.2795H103.229V31.2777C103.229 31.8675 103.206 32.4715 103.161 33.0896C103.116 33.7076 102.977 34.2664 102.746 34.766C102.515 35.2683 102.162 35.6747 101.688 35.988C101.214 36.3012 100.536 36.4565 99.6613 36.4565C98.7865 36.4565 98.1063 36.3012 97.6237 35.988C97.1411 35.6747 96.7883 35.2655 96.5654 34.766C96.3396 34.2664 96.2069 33.7076 96.1618 33.0896C96.1166 32.4715 96.094 31.8675 96.094 31.2777Z" fill="#008AD2"/>
<path d="M99.5259 20.0904L104.676 16.5485L101.863 14L97.4882 18.1854L99.5259 20.0904Z" fill="#008AD2"/>
<path d="M61.4315 24.4255C62.0016 24.6484 62.5745 24.9927 63.1474 25.4584L65.2387 21.3577C64.2368 20.8215 63.1898 20.4151 62.1004 20.1385C61.011 19.8619 59.964 19.7236 58.9621 19.7236C57.8896 19.7236 56.9188 19.8845 56.0523 20.2062C55.1859 20.528 54.4521 20.9795 53.8538 21.5609C53.2555 22.1423 52.7898 22.8394 52.4596 23.6522C52.1294 24.4678 51.9629 25.3737 51.9629 26.3756C51.9629 27.3775 52.1182 28.2044 52.4314 28.8564C52.7447 29.5083 53.1539 30.0502 53.6647 30.4792C54.1756 30.9081 54.7569 31.2524 55.4089 31.5121C56.0608 31.7717 56.7268 32.0088 57.407 32.2233C57.9799 32.4208 58.4654 32.5986 58.8689 32.7595C59.2725 32.9204 59.5971 33.0925 59.8482 33.2816C60.0994 33.4707 60.2772 33.6767 60.3845 33.8997C60.4917 34.1227 60.5453 34.3851 60.5453 34.6899C60.5453 35.1895 60.3365 35.6382 59.916 36.0305C59.4955 36.4228 58.8548 36.6203 57.9969 36.6203C57.2461 36.6203 56.4841 36.4482 55.7165 36.1095C54.946 35.7708 54.1699 35.2515 53.3825 34.5544L51.1304 38.7934C53.312 40.3146 55.6826 41.0738 58.2396 41.0738C59.4729 41.0738 60.5764 40.9073 61.5529 40.5771C62.5294 40.2469 63.3506 39.7812 64.0223 39.1829C64.694 38.5846 65.202 37.8649 65.552 37.0239C65.8991 36.1829 66.0741 35.2459 66.0741 34.2073C66.0741 32.6692 65.6761 31.4218 64.8803 30.465C64.0844 29.5083 62.8257 28.7435 61.1098 28.1706C60.6808 28.0266 60.2462 27.8912 59.8087 27.767C59.3713 27.6428 58.979 27.4932 58.629 27.3239C58.2819 27.1546 57.9997 26.9514 57.7852 26.7199C57.5707 26.4857 57.4635 26.1922 57.4635 25.8338C57.4635 25.3145 57.6779 24.894 58.1069 24.5722C58.5359 24.2505 59.0891 24.0896 59.7692 24.0896C60.3054 24.0896 60.8586 24.2025 61.4315 24.4255Z" fill="#008AD2"/>
<path d="M100 49.2073C55.1012 49.2073 16.5637 39.1573 0 24.8232C12.271 43.2919 52.3947 56.8329 100 56.8329C147.605 56.8329 187.729 43.2919 200 24.8232C183.439 39.1602 144.902 49.2073 100 49.2073Z" fill="#008AD2"/>
<path d="M66.0854 69.4707L67.1692 62.3164C66.3366 61.941 62.6818 61.5629 61.8041 61.5854C60.3225 61.6137 58.9509 61.8705 57.695 62.3474C56.4334 62.83 55.2678 63.5384 54.1982 64.481C53.0665 65.4688 52.1775 66.5554 51.5369 67.7548C50.8906 68.9515 50.2951 70.2751 50.1229 71.7229C49.9113 73.5263 50.1173 75.3269 50.741 76.7577C51.3647 78.1858 52.567 79.357 53.9696 80.2771C54.6429 80.7259 55.3964 80.9083 56.1977 81.1023L56.2 81.1029C56.2744 81.1209 56.3497 81.1392 56.425 81.1576C57.3337 81.3862 58.3413 81.4906 59.4532 81.4709C60.3563 81.4511 61.251 81.3354 62.1202 81.1237L62.3339 81.0728C63.0621 80.8995 63.3442 80.8324 64.1917 80.4577L65.521 73.7069C62.4165 76.6618 56.5096 76.2441 57.4861 71.2883C58.1776 67.7774 63.5257 66.2986 66.0854 69.4707Z" fill="#008AD2"/>
<path fill-rule="evenodd" clip-rule="evenodd" d="M87.6388 81.1917H79.7422L79.5362 78.7759H73.9031L72.8701 81.1917H65.1824L75.5371 61.8623H83.5381L87.6388 81.1917ZM78.3932 68.2631L75.8194 74.2886H79.1552L78.6444 68.2631H78.3932Z" fill="#008AD2"/>
<path fill-rule="evenodd" clip-rule="evenodd" d="M146.42 81.1917H138.524L138.317 78.7759H132.684L131.651 81.1917H123.964L134.318 61.8623H142.319L146.42 81.1917ZM137.174 68.2631L134.601 74.2886H137.936L137.426 68.2631H137.174Z" fill="#008AD2"/>
<path d="M96.6443 81.1917L99.9858 61.8623H92.727L89.3855 81.1917H96.6443Z" fill="#008AD2"/>
<path fill-rule="evenodd" clip-rule="evenodd" d="M82.0619 36.9926H74.5491L73.3412 40.5063H67.7334L75.4324 20.2794H81.1729L88.8719 40.5063H83.2641L82.0619 36.9926ZM80.6677 32.9963L78.3055 26.2625L75.9433 32.9963H80.6677Z" fill="#008AD2"/>
<path fill-rule="evenodd" clip-rule="evenodd" d="M112.567 20.2794H120.345C121.723 20.2794 123.015 20.5559 124.223 21.1119C125.431 21.6651 126.487 22.4045 127.39 23.3245C128.293 24.2446 129.004 25.3199 129.523 26.5447C130.043 27.7695 130.302 29.0537 130.302 30.3942C130.302 31.7178 130.048 32.9935 129.537 34.2183C129.027 35.4432 128.321 36.5213 127.418 37.4498C126.515 38.3811 125.459 39.1234 124.251 39.6765C123.043 40.2325 121.742 40.5091 120.348 40.5091H112.567V20.2794ZM117.822 36.0528H119.03C119.942 36.0528 120.757 35.9089 121.471 35.6238C122.186 35.3388 122.789 34.9436 123.283 34.4441C123.774 33.9446 124.15 33.3491 124.409 32.6605C124.669 31.9718 124.799 31.2155 124.799 30.3942C124.799 29.5899 124.666 28.8392 124.395 28.1421C124.127 27.445 123.746 26.8467 123.255 26.3443C122.764 25.8448 122.16 25.4497 121.443 25.1646C120.726 24.8796 119.922 24.7357 119.03 24.7357H117.822V36.0528Z" fill="#008AD2"/>
<path d="M138.696 24.7329H144.947V20.2823H133.438V40.5092H144.947V36.0557H138.696V32.5674H144.597V28.114H138.696V24.7329Z" fill="#008AD2"/>
<path d="M113.155 81.3642L111.431 77.9858L108.137 81.3642H99.179L108.354 71.9549H117.32L122.121 81.3642H113.155Z" fill="#008AD2"/>
<path d="M118.158 61.6904L114.871 65.0625L113.152 61.6904H104.183L108.983 71.0997H117.95L117.948 71.0959L127.116 61.6904H118.158Z" fill="#008AD2"/>
</svg>
