<svg width="200" height="96" viewBox="0 0 200 96" fill="none" xmlns="http://www.w3.org/2000/svg">
<path fill-rule="evenodd" clip-rule="evenodd" d="M101.1 16H94.1575V22.9422H101.1V16ZM93.8013 23.0425H86.8591V29.9847H93.8013V23.0425ZM108.485 23.0425H101.543V29.9847H108.485V23.0425ZM101.1 30.506H94.1575V37.4482H101.1V30.506ZM46 19.9927C87.5856 76.4705 137.928 66.9127 127.328 24.5115C125.069 74.2111 81.7984 56.3124 46 19.9927ZM109.798 23.6425H116.74V30.5847H109.798V23.6425ZM102.412 30.8623H109.355V37.8044H102.412V30.8623ZM116.74 30.8623H123.682V37.8044H116.74V30.8623ZM109.277 38.3266H116.219V45.2688H109.277V38.3266ZM79.3656 23.6425H85.8822V30.5847H79.3656V23.6425ZM72.2406 31.0272H78.7572V37.9694H72.2406V31.0272ZM79.2785 38.3266H85.795V45.2688H79.2785V38.3266ZM86.3162 30.8623H92.8328V37.8044H86.3162V30.8623ZM62.2121 62.8213H59.9967V80.6919H62.2121V62.8213ZM50.9865 63.6013C49.224 63.6013 47.8402 63.7523 46.7827 63.9285V80.6919H48.9727V73.896C49.4762 74.0216 50.0799 74.0469 50.7343 74.0469C52.8737 74.0469 54.7618 73.4169 55.9196 72.1841C56.7755 71.3029 57.2283 70.0954 57.2283 68.5598C57.2283 67.0494 56.6743 65.8157 55.7433 65.0104C54.7365 64.1048 53.1512 63.6013 50.9865 63.6013ZM50.7849 72.2854C50.0546 72.2854 49.4508 72.2348 48.9727 72.1091H48.9718V65.5148C49.3496 65.4144 50.0799 65.3385 51.0362 65.3385C53.453 65.3385 55.0383 66.4213 55.0383 68.661C55.0383 71.0019 53.4277 72.2854 50.7849 72.2854ZM72.5058 79.1563L72.6821 80.6919V80.69H74.6959C74.5449 79.8594 74.4943 78.8282 74.4943 77.7707V73.2153C74.4943 70.7741 73.5877 68.2316 69.863 68.2316C68.3274 68.2316 66.8677 68.66 65.8609 69.3144L66.3643 70.7741C67.2202 70.22 68.4033 69.8675 69.5359 69.8675C72.0277 69.8675 72.3043 71.6797 72.3043 72.6866V72.9388C67.5971 72.9144 64.9796 74.525 64.9796 77.4697C64.9796 79.2313 66.2387 80.9685 68.7052 80.9685C70.4415 80.9685 71.7502 80.1125 72.4299 79.1563H72.5058ZM67.1949 77.2175C67.1949 74.8522 69.939 74.4238 72.3549 74.4744H72.354V76.5875C72.354 76.8144 72.3043 77.0657 72.2283 77.2925C71.8758 78.3247 70.869 79.3316 69.2837 79.3316C68.1512 79.3316 67.1949 78.6519 67.1949 77.2175ZM77.9686 68.5092C78.0436 69.516 78.069 70.5482 78.069 71.8064H78.068V80.692H80.2833V73.3673C80.2833 72.9895 80.334 72.6117 80.4343 72.3351C80.8121 71.1023 81.9446 70.0701 83.4043 70.0701C85.493 70.0701 86.2233 71.706 86.2233 73.6692V80.692H88.4396V73.4179C88.4396 69.2395 85.8221 68.2326 84.1355 68.2326C82.1218 68.2326 80.7118 69.3651 80.108 70.5229H80.0574L79.9318 68.5092H77.9686ZM95.738 79.131C94.2277 79.131 92.7933 78.6275 91.8117 78.0238L91.2586 79.8603C92.1652 80.465 93.9521 80.9432 95.588 80.9432C99.5902 80.9432 101.528 78.6782 101.528 76.0607C101.528 73.5688 100.068 72.1841 97.1986 71.0769C94.8577 70.1713 93.8255 69.3903 93.8255 67.805C93.8255 66.6472 94.7067 65.2625 97.0224 65.2625C98.5571 65.2625 99.6896 65.766 100.244 66.0678L100.847 64.281C100.093 63.8535 98.8346 63.4503 97.0974 63.4503C93.8002 63.4503 91.6102 65.4135 91.6102 68.0563C91.6102 70.4478 93.3221 71.8822 96.0905 72.8638C98.3818 73.745 99.2874 74.6516 99.2874 76.2369C99.2874 77.9478 97.9777 79.131 95.738 79.131ZM111.091 79.1563L111.268 80.6919V80.69H113.281C113.131 79.8594 113.08 78.8282 113.08 77.7707V73.2153C113.08 70.7741 112.173 68.2316 108.449 68.2316C106.913 68.2316 105.453 68.66 104.446 69.3144L104.95 70.7741C105.806 70.22 106.989 69.8675 108.121 69.8675C110.613 69.8675 110.89 71.6797 110.89 72.6866V72.9388C106.183 72.9144 103.565 74.525 103.565 77.4697C103.565 79.2313 104.823 80.9685 107.29 80.9685C109.027 80.9685 110.336 80.1125 111.015 79.1563H111.091ZM105.78 77.2175C105.78 74.8522 108.525 74.4238 110.94 74.4744H110.94V76.5875C110.94 76.8144 110.89 77.0657 110.814 77.2925C110.461 78.3247 109.455 79.3316 107.869 79.3316C106.737 79.3316 105.78 78.6519 105.78 77.2175ZM126.948 80.692C126.873 79.7357 126.848 78.6276 126.848 77.3695V68.5092H124.633V75.9848C124.633 76.387 124.557 76.7901 124.431 77.1173C124.029 78.0988 122.997 79.131 121.512 79.131C119.498 79.131 118.793 77.5701 118.793 75.2545V68.5092H116.578V75.6323C116.578 79.911 118.869 80.9685 120.781 80.9685C122.946 80.9685 124.23 79.6851 124.809 78.7035H124.86L124.985 80.692H126.948ZM125.338 63.2488L122.267 66.8479H120.682L122.897 63.2488H125.338ZM141.044 62.8232V77.5457C141.044 78.6285 141.069 79.8613 141.144 80.6919H139.156L139.055 78.5779H139.005C138.325 79.9372 136.84 80.9694 134.851 80.9694C131.907 80.9694 129.642 78.4775 129.642 74.7782C129.616 70.7254 132.134 68.2344 135.104 68.2344C136.966 68.2344 138.225 69.1157 138.779 70.0972H138.829V62.8232H141.044ZM138.828 73.4675C138.828 73.191 138.803 72.8132 138.728 72.5366C138.401 71.1266 137.192 69.9697 135.531 69.9697C133.241 69.9697 131.881 71.9835 131.881 74.676C131.881 77.1425 133.09 79.1816 135.481 79.1816C136.966 79.1816 138.325 78.2 138.727 76.5388C138.803 76.2369 138.827 75.935 138.827 75.5825V73.4675H138.828ZM145.951 75.0032C146.002 77.9985 147.915 79.2313 150.13 79.2313C151.715 79.2313 152.672 78.9548 153.503 78.6023L153.881 80.1876C153.101 80.5401 151.767 80.9432 149.829 80.9432C146.079 80.9432 143.838 78.4767 143.838 74.8017C143.838 71.1267 146.003 68.2326 149.551 68.2326C153.528 68.2326 154.585 71.7313 154.585 73.971C154.585 74.3588 154.548 74.673 154.521 74.8977L154.521 74.898L154.514 74.9613L154.509 75.0032H145.951ZM152.446 73.4179C152.471 72.0089 151.866 69.8189 149.375 69.8189C147.136 69.8189 146.154 71.8832 145.978 73.4179H152.446Z" fill="#008AD2"/>
</svg>
