<svg width="64" height="96" viewBox="0 0 64 96" fill="none" xmlns="http://www.w3.org/2000/svg">
<path d="M16 41.5439C32.0794 63.3815 51.5448 59.6859 47.4461 43.2912C46.5725 62.5079 29.8417 55.5872 16 41.5439Z" fill="#C13036"/>
<path d="M40.668 42.9551H43.3522V45.6393H40.668V42.9551Z" fill="#5E8B80"/>
<path d="M37.8123 45.7467H40.4969V48.4309H37.8123V45.7467Z" fill="#5E8B80"/>
<path d="M46.0365 45.7467H43.3522V48.4309H46.0365V45.7467Z" fill="#5E8B80"/>
<path d="M40.4664 48.6328H43.1507V51.3171H40.4664V48.6328Z" fill="#5E8B80"/>
<path d="M34.6206 40H37.3048V42.6842H34.6206V40Z" fill="#DD9F31"/>
<path d="M31.7986 42.723H34.4828V45.4073H31.7986V42.723Z" fill="#DD9F31"/>
<path d="M40.1605 42.723H37.4763V45.4073H40.1605V42.723Z" fill="#DD9F31"/>
<path d="M34.6206 45.6088H37.3048V48.2931H34.6206V45.6088Z" fill="#DD9F31"/>
<path d="M28.9012 42.9551H31.4209V45.6393H28.9012V42.9551Z" fill="#145F99"/>
<path d="M26.1462 45.8104H28.6659V48.4947H26.1462V45.8104Z" fill="#145F99"/>
<path d="M31.3872 48.6328H28.8675V51.3171H31.3872V48.6328Z" fill="#145F99"/>
<path d="M31.5887 45.7467H34.1084V48.4309H31.5887V45.7467Z" fill="#145F99"/>
</svg>
