<svg width="32" height="32" viewBox="0 0 32 32" fill="none" xmlns="http://www.w3.org/2000/svg">
<path d="M0 9.54395C16.0794 31.3815 35.5448 27.6859 31.4461 11.2912C30.5725 30.5079 13.8417 23.5872 0 9.54395Z" fill="#C13036"/>
<path d="M24.668 10.9551H27.3522V13.6393H24.668V10.9551Z" fill="#5E8B80"/>
<path d="M21.8123 13.7467H24.4969V16.4309H21.8123V13.7467Z" fill="#5E8B80"/>
<path d="M30.0365 13.7467H27.3522V16.4309H30.0365V13.7467Z" fill="#5E8B80"/>
<path d="M24.4664 16.6328H27.1507V19.3171H24.4664V16.6328Z" fill="#5E8B80"/>
<path d="M18.6206 8H21.3048V10.6842H18.6206V8Z" fill="#DD9F31"/>
<path d="M15.7986 10.723H18.4828V13.4073H15.7986V10.723Z" fill="#DD9F31"/>
<path d="M24.1605 10.723H21.4763V13.4073H24.1605V10.723Z" fill="#DD9F31"/>
<path d="M18.6206 13.6088H21.3048V16.2931H18.6206V13.6088Z" fill="#DD9F31"/>
<path d="M12.9012 10.9551H15.4209V13.6393H12.9012V10.9551Z" fill="#145F99"/>
<path d="M10.1462 13.8104H12.6659V16.4947H10.1462V13.8104Z" fill="#145F99"/>
<path d="M15.3872 16.6328H12.8675V19.3171H15.3872V16.6328Z" fill="#145F99"/>
<path d="M15.5887 13.7467H18.1084V16.4309H15.5887V13.7467Z" fill="#145F99"/>
</svg>
