<svg width="200" height="96" viewBox="0 0 200 96" fill="none" xmlns="http://www.w3.org/2000/svg">
<path d="M46 19.9932C87.5856 76.471 137.928 66.9132 127.328 24.5119C125.069 74.2116 81.7984 56.3129 46 19.9932Z" fill="#C13036"/>
<path d="M109.798 23.6426H116.74V30.5848H109.798V23.6426Z" fill="#5E8B80"/>
<path d="M102.412 30.8623H109.355V37.8045H102.412V30.8623Z" fill="#5E8B80"/>
<path d="M123.682 30.8623H116.74V37.8045H123.682V30.8623Z" fill="#5E8B80"/>
<path d="M109.277 38.3267H116.219V45.2689H109.277V38.3267Z" fill="#5E8B80"/>
<path d="M94.1576 16H101.1V22.9422H94.1576V16Z" fill="#DD9F31"/>
<path d="M86.8591 23.0425H93.8013V29.9847H86.8591V23.0425Z" fill="#DD9F31"/>
<path d="M108.485 23.0425H101.543V29.9847H108.485V23.0425Z" fill="#DD9F31"/>
<path d="M94.1576 30.506H101.1V37.4482H94.1576V30.506Z" fill="#DD9F31"/>
<path d="M79.3657 23.6426H85.8823V30.5848H79.3657V23.6426Z" fill="#145F99"/>
<path d="M72.2407 31.0273H78.7573V37.9695H72.2407V31.0273Z" fill="#145F99"/>
<path d="M85.7951 38.3267H79.2786V45.2689H85.7951V38.3267Z" fill="#145F99"/>
<path d="M86.3164 30.8623H92.8329V37.8045H86.3164V30.8623Z" fill="#145F99"/>
<path d="M59.9967 62.8213H62.2121V80.6919H59.9967V62.8213Z" fill="#12507F"/>
<path fill-rule="evenodd" clip-rule="evenodd" d="M46.7827 63.9285C47.8402 63.7523 49.224 63.6013 50.9865 63.6013C53.1512 63.6013 54.7365 64.1048 55.7433 65.0104C56.6743 65.8157 57.2283 67.0494 57.2283 68.5598C57.2283 70.0954 56.7755 71.3029 55.9196 72.1841C54.7618 73.4169 52.8737 74.0469 50.7343 74.0469C50.0799 74.0469 49.4762 74.0216 48.9727 73.896V80.6919H46.7827V63.9285ZM48.9727 72.1091C49.4508 72.2348 50.0546 72.2854 50.7849 72.2854C53.4277 72.2854 55.0383 71.0019 55.0383 68.661C55.0383 66.4213 53.453 65.3385 51.0362 65.3385C50.0799 65.3385 49.3496 65.4144 48.9718 65.5148V72.1091H48.9727Z" fill="#12507F"/>
<path fill-rule="evenodd" clip-rule="evenodd" d="M72.5058 79.1563L72.6821 80.6919V80.69H74.6959C74.5449 79.8594 74.4943 78.8282 74.4943 77.7707V73.2153C74.4943 70.7741 73.5877 68.2316 69.863 68.2316C68.3274 68.2316 66.8677 68.66 65.8609 69.3144L66.3643 70.7741C67.2202 70.22 68.4033 69.8675 69.5359 69.8675C72.0277 69.8675 72.3043 71.6797 72.3043 72.6866V72.9388C67.5971 72.9144 64.9796 74.525 64.9796 77.4697C64.9796 79.2313 66.2387 80.9685 68.7052 80.9685C70.4415 80.9685 71.7502 80.1125 72.4299 79.1563H72.5058ZM67.1949 77.2175C67.1949 74.8522 69.939 74.4238 72.3549 74.4744H72.354V76.5875C72.354 76.8144 72.3043 77.0657 72.2283 77.2925C71.8758 78.3247 70.869 79.3316 69.2837 79.3316C68.1512 79.3316 67.1949 78.6519 67.1949 77.2175Z" fill="#12507F"/>
<path d="M78.069 71.8064C78.069 70.5482 78.0436 69.516 77.9686 68.5092H79.9318L80.0574 70.5229H80.108C80.7118 69.3651 82.1218 68.2326 84.1355 68.2326C85.8221 68.2326 88.4396 69.2395 88.4396 73.4179V80.692H86.2233V73.6692C86.2233 71.706 85.493 70.0701 83.4043 70.0701C81.9446 70.0701 80.8121 71.1023 80.4343 72.3351C80.334 72.6117 80.2833 72.9895 80.2833 73.3673V80.692H78.068V71.8064H78.069Z" fill="#12507F"/>
<path d="M95.738 79.131C94.2277 79.131 92.7933 78.6275 91.8117 78.0238L91.2586 79.8603C92.1652 80.465 93.9521 80.9432 95.588 80.9432C99.5902 80.9432 101.528 78.6782 101.528 76.0607C101.528 73.5688 100.068 72.1841 97.1986 71.0769C94.8577 70.1713 93.8255 69.3903 93.8255 67.805C93.8255 66.6472 94.7067 65.2625 97.0224 65.2625C98.5571 65.2625 99.6896 65.766 100.244 66.0678L100.847 64.281C100.093 63.8535 98.8346 63.4503 97.0974 63.4503C93.8002 63.4503 91.6102 65.4135 91.6102 68.0563C91.6102 70.4478 93.3221 71.8822 96.0905 72.8638C98.3818 73.745 99.2874 74.6516 99.2874 76.2369C99.2874 77.9479 97.9777 79.131 95.738 79.131Z" fill="#12507F"/>
<path fill-rule="evenodd" clip-rule="evenodd" d="M111.268 80.6919L111.091 79.1563H111.015C110.336 80.1125 109.027 80.9685 107.29 80.9685C104.823 80.9685 103.565 79.2313 103.565 77.4697C103.565 74.525 106.183 72.9144 110.89 72.9388V72.6866C110.89 71.6797 110.613 69.8675 108.121 69.8675C106.989 69.8675 105.806 70.22 104.95 70.7741L104.446 69.3144C105.453 68.66 106.913 68.2316 108.449 68.2316C112.173 68.2316 113.08 70.7741 113.08 73.2153V77.7707C113.08 78.8282 113.131 79.8594 113.281 80.69H111.268V80.6919ZM110.94 74.4744C108.525 74.4238 105.78 74.8522 105.78 77.2175C105.78 78.6519 106.737 79.3316 107.869 79.3316C109.455 79.3316 110.461 78.3247 110.814 77.2925C110.89 77.0657 110.94 76.8144 110.94 76.5875V74.4744H110.94Z" fill="#12507F"/>
<path d="M126.948 80.692C126.873 79.7357 126.848 78.6276 126.848 77.3695V68.5092H124.633V75.9848C124.633 76.387 124.557 76.7901 124.431 77.1173C124.029 78.0988 122.997 79.131 121.512 79.131C119.498 79.131 118.793 77.5701 118.793 75.2545V68.5092H116.578V75.6323C116.578 79.911 118.869 80.9685 120.781 80.9685C122.946 80.9685 124.23 79.6851 124.809 78.7035H124.86L124.985 80.692H126.948Z" fill="#12507F"/>
<path d="M122.267 66.8479L125.338 63.2488H122.897L120.682 66.8479H122.267Z" fill="#12507F"/>
<path fill-rule="evenodd" clip-rule="evenodd" d="M141.044 62.8232V77.5457C141.044 78.6285 141.069 79.8613 141.144 80.6919H139.156L139.055 78.5779H139.005C138.325 79.9372 136.84 80.9694 134.851 80.9694C131.907 80.9694 129.642 78.4775 129.642 74.7782C129.616 70.7254 132.134 68.2344 135.104 68.2344C136.966 68.2344 138.225 69.1157 138.779 70.0972H138.829V62.8232H141.044ZM138.828 73.4675C138.828 73.191 138.803 72.8132 138.728 72.5366C138.401 71.1266 137.192 69.9697 135.531 69.9697C133.241 69.9697 131.881 71.9835 131.881 74.676C131.881 77.1425 133.09 79.1816 135.481 79.1816C136.966 79.1816 138.325 78.2 138.727 76.5388C138.803 76.2369 138.827 75.935 138.827 75.5825V73.4675H138.828Z" fill="#12507F"/>
<path fill-rule="evenodd" clip-rule="evenodd" d="M150.13 79.2314C147.915 79.2314 146.002 77.9985 145.951 75.0032H154.509C154.513 74.9707 154.517 74.9356 154.521 74.898C154.548 74.6732 154.585 74.3589 154.585 73.971C154.585 71.7314 153.528 68.2326 149.551 68.2326C146.003 68.2326 143.838 71.1267 143.838 74.8017C143.838 78.4767 146.079 80.9432 149.829 80.9432C151.767 80.9432 153.101 80.5401 153.881 80.1876L153.503 78.6023C152.672 78.9548 151.715 79.2314 150.13 79.2314ZM149.375 69.8189C151.866 69.8189 152.471 72.0089 152.446 73.4179H145.978C146.154 71.8832 147.136 69.8189 149.375 69.8189Z" fill="#12507F"/>
</svg>
