<svg width="24" height="24" viewBox="0 0 24 24" fill="none" xmlns="http://www.w3.org/2000/svg">
<path d="M0 7.1582C12.0595 23.5364 26.6586 20.7647 23.5846 8.46861C22.9294 22.8812 10.3813 17.6907 0 7.1582Z" fill="#C13036"/>
<path d="M18.5009 8.21582H20.5141V10.229H18.5009V8.21582Z" fill="#5E8B80"/>
<path d="M16.3591 10.3095H18.3726V12.3227H16.3591V10.3095Z" fill="#5E8B80"/>
<path d="M22.5273 10.3095H20.5141V12.3227H22.5273V10.3095Z" fill="#5E8B80"/>
<path d="M18.3498 12.4741H20.3629V14.4873H18.3498V12.4741Z" fill="#5E8B80"/>
<path d="M13.9654 6H15.9786V8.01319H13.9654V6Z" fill="#DD9F31"/>
<path d="M11.8489 8.04228H13.8621V10.0555H11.8489V8.04228Z" fill="#DD9F31"/>
<path d="M18.1203 8.04228H16.1072V10.0555H18.1203V8.04228Z" fill="#DD9F31"/>
<path d="M13.9654 10.2066H15.9786V12.2198H13.9654V10.2066Z" fill="#DD9F31"/>
<path d="M9.67582 8.21582H11.5656V10.229H9.67582V8.21582Z" fill="#145F99"/>
<path d="M7.60962 10.3573H9.49938V12.3705H7.60962V10.3573Z" fill="#145F99"/>
<path d="M11.5403 12.4741H9.65054V14.4873H11.5403V12.4741Z" fill="#145F99"/>
<path d="M11.6915 10.3095H13.5812V12.3227H11.6915V10.3095Z" fill="#145F99"/>
</svg>
