<svg width="160" height="24" viewBox="0 0 160 24" fill="none" xmlns="http://www.w3.org/2000/svg">
<g clip-path="url(#clip0)">
<path d="M0 2.21094C23.0201 33.4748 50.8879 28.184 45.02 4.71234C43.7693 32.2241 19.8166 22.3161 0 2.21094Z" fill="#C13036"/>
<path d="M35.3159 4.23047H39.1589V8.07339H35.3159V4.23047Z" fill="#5E8B80"/>
<path d="M31.2275 8.22704H35.071V12.07H31.2275V8.22704Z" fill="#5E8B80"/>
<path d="M43.0018 8.22704H39.1588V12.07H43.0018V8.22704Z" fill="#5E8B80"/>
<path d="M35.0274 12.359H38.8703V16.2019H35.0274V12.359Z" fill="#5E8B80"/>
<path d="M26.658 0H30.501V3.84292H26.658V0Z" fill="#DD9F31"/>
<path d="M22.6179 3.89845H26.4608V7.74137H22.6179V3.89845Z" fill="#DD9F31"/>
<path d="M34.5893 3.89845H30.7464V7.74137H34.5893V3.89845Z" fill="#DD9F31"/>
<path d="M26.658 8.02993H30.501V11.8729H26.658V8.02993Z" fill="#DD9F31"/>
<path d="M18.47 4.23047H22.0773V8.07339H18.47V4.23047Z" fill="#145F99"/>
<path d="M14.5259 8.31836H18.1332V12.1613H14.5259V8.31836Z" fill="#145F99"/>
<path d="M22.0291 12.359H18.4217V16.2019H22.0291V12.359Z" fill="#145F99"/>
<path d="M22.3176 8.22704H25.9249V12.07H22.3176V8.22704Z" fill="#145F99"/>
<path d="M62.1937 4H63.9027V17.7859H62.1937V4Z" fill="#12507F"/>
<path fill-rule="evenodd" clip-rule="evenodd" d="M52 4.85414C52.8158 4.71817 53.8833 4.60174 55.2429 4.60174C56.9128 4.60174 58.1358 4.99011 58.9125 5.68873C59.6306 6.30998 60.0581 7.26172 60.0581 8.42682C60.0581 9.61145 59.7088 10.5429 59.0485 11.2228C58.1553 12.1738 56.6987 12.6598 55.0484 12.6598C54.5435 12.6598 54.0778 12.6403 53.6894 12.5434V17.7859H52V4.85414ZM53.6894 11.1649C54.0583 11.2618 54.524 11.3009 55.0874 11.3009C57.1261 11.3009 58.3686 10.3108 58.3686 8.50493C58.3686 6.77717 57.1457 5.94186 55.2812 5.94186C54.5435 5.94186 53.9802 6.00043 53.6887 6.07782V11.1649H53.6894Z" fill="#12507F"/>
<path fill-rule="evenodd" clip-rule="evenodd" d="M71.8436 16.6013L71.9795 17.7859V17.7845H73.533C73.4166 17.1437 73.3775 16.3482 73.3775 15.5324V12.0183C73.3775 10.135 72.6782 8.17367 69.8048 8.17367C68.6202 8.17367 67.4942 8.50418 66.7174 9.00898L67.1058 10.135C67.7661 9.70761 68.6788 9.43568 69.5524 9.43568C71.4747 9.43568 71.6881 10.8337 71.6881 11.6104V11.8049C68.0568 11.7861 66.0376 13.0286 66.0376 15.3002C66.0376 16.6592 67.0089 17.9993 68.9117 17.9993C70.2511 17.9993 71.2607 17.339 71.785 16.6013H71.8436ZM67.7466 15.1057C67.7466 13.281 69.8634 12.9505 71.7271 12.9896H71.7264V14.6197C71.7264 14.7947 71.6881 14.9885 71.6295 15.1635C71.3576 15.9598 70.5809 16.7365 69.3579 16.7365C68.4843 16.7365 67.7466 16.2122 67.7466 15.1057Z" fill="#12507F"/>
<path d="M76.1351 10.9313C76.1351 9.96079 76.1156 9.16453 76.0577 8.38779H77.5722L77.6691 9.94126H77.7081C78.1739 9.04809 79.2616 8.17445 80.8151 8.17445C82.1161 8.17445 84.1353 8.95118 84.1353 12.1746V17.786H82.4257V12.3684C82.4257 10.854 81.8623 9.59195 80.2509 9.59195C79.1249 9.59195 78.2513 10.3882 77.9598 11.3392C77.8824 11.5526 77.8434 11.844 77.8434 12.1355V17.786H76.1344V10.9313H76.1351Z" fill="#12507F"/>
<path d="M89.7656 16.5818C88.6005 16.5818 87.4939 16.1934 86.7367 15.7277L86.31 17.1444C87.0094 17.6109 88.3878 17.9797 89.6498 17.9797C92.7372 17.9797 94.2321 16.2325 94.2321 14.2132C94.2321 12.2909 93.1061 11.2227 90.8923 10.3686C89.0865 9.67 88.2902 9.06756 88.2902 7.84461C88.2902 6.95144 88.97 5.88325 90.7564 5.88325C91.9403 5.88325 92.8139 6.27162 93.2413 6.50449L93.7071 5.12604C93.1249 4.79626 92.1543 4.48527 90.8142 4.48527C88.2707 4.48527 86.5812 5.99969 86.5812 8.03843C86.5812 9.88335 87.9018 10.9899 90.0375 11.7471C91.805 12.4269 92.5036 13.1263 92.5036 14.3492C92.5036 15.6691 91.4933 16.5818 89.7656 16.5818Z" fill="#12507F"/>
<path fill-rule="evenodd" clip-rule="evenodd" d="M101.746 17.7859L101.61 16.6013H101.551C101.027 17.339 100.017 17.9993 98.677 17.9993C96.7742 17.9993 95.8037 16.6592 95.8037 15.3002C95.8037 13.0286 97.8229 11.7861 101.454 11.8049V11.6104C101.454 10.8337 101.241 9.43568 99.3185 9.43568C98.4449 9.43568 97.5322 9.70761 96.8719 10.135L96.4835 9.00898C97.2602 8.50418 98.3863 8.17367 99.5709 8.17367C102.444 8.17367 103.144 10.135 103.144 12.0183V15.5324C103.144 16.3482 103.183 17.1437 103.299 17.7845H101.746V17.7859ZM101.493 12.9896C99.6295 12.9505 97.5126 13.281 97.5126 15.1057C97.5126 16.2122 98.2503 16.7365 99.124 16.7365C100.347 16.7365 101.124 15.9598 101.396 15.1635C101.454 14.9885 101.492 14.7947 101.492 14.6197V12.9896H101.493Z" fill="#12507F"/>
<path d="M113.842 17.786C113.784 17.0483 113.765 16.1934 113.765 15.2229V8.38778H112.056V14.1547C112.056 14.465 111.997 14.7759 111.9 15.0283C111.59 15.7856 110.794 16.5818 109.648 16.5818C108.095 16.5818 107.551 15.3777 107.551 13.5913V8.38778H105.842V13.8828C105.842 17.1835 107.609 17.9993 109.085 17.9993C110.755 17.9993 111.745 17.0092 112.192 16.252H112.231L112.328 17.786H113.842Z" fill="#12507F"/>
<path d="M110.231 7.10625L112.6 4.32983H110.717L109.008 7.10625H110.231Z" fill="#12507F"/>
<path fill-rule="evenodd" clip-rule="evenodd" d="M124.716 4.00145V15.3588C124.716 16.1941 124.735 17.1452 124.793 17.7859H123.259L123.182 16.1551H123.143C122.618 17.2037 121.473 18 119.939 18C117.667 18 115.92 16.0777 115.92 13.2239C115.9 10.0974 117.842 8.17584 120.133 8.17584C121.57 8.17584 122.541 8.85567 122.968 9.61287H123.007V4.00145H124.716ZM123.007 12.2128C123.007 11.9995 122.987 11.708 122.929 11.4947C122.677 10.407 121.745 9.51452 120.463 9.51452C118.696 9.51452 117.648 11.068 117.648 13.1451C117.648 15.0478 118.58 16.6208 120.424 16.6208C121.57 16.6208 122.618 15.8636 122.929 14.5821C122.987 14.3492 123.006 14.1163 123.006 13.8444V12.2128H123.007Z" fill="#12507F"/>
<path fill-rule="evenodd" clip-rule="evenodd" d="M131.725 16.6592C130.016 16.6592 128.541 15.7082 128.502 13.3975H135.103C135.106 13.3724 135.109 13.3453 135.113 13.3163C135.133 13.1429 135.162 12.9005 135.162 12.6012C135.162 10.8735 134.347 8.17445 131.279 8.17445C128.541 8.17445 126.872 10.407 126.872 13.242C126.872 16.077 128.6 17.9798 131.493 17.9798C132.988 17.9798 134.017 17.6688 134.619 17.3969L134.327 16.1739C133.686 16.4459 132.948 16.6592 131.725 16.6592ZM131.143 9.39813C133.064 9.39813 133.531 11.0876 133.511 12.1746H128.522C128.658 10.9906 129.415 9.39813 131.143 9.39813Z" fill="#12507F"/>
</g>
<defs>
<clipPath id="clip0">
<path d="M0 0H160V24H0V0Z" fill="white"/>
</clipPath>
</defs>
</svg>
