<svg width="200" height="96" viewBox="0 0 200 96" fill="none" xmlns="http://www.w3.org/2000/svg">
<path fill-rule="evenodd" clip-rule="evenodd" d="M197.662 34.498L194.301 40.6247C192.577 39.2817 190.71 38.6086 188.7 38.6086C187.809 38.6086 186.982 38.8378 186.223 39.2938C185.461 39.7514 185.08 40.3697 185.08 41.1477C185.08 41.686 185.318 42.1695 185.792 42.5989C186.264 43.0291 186.709 43.3253 187.126 43.4859C187.542 43.6473 188.111 43.8362 188.829 44.05L190.983 44.6546C193.511 45.3543 195.477 46.3414 196.886 47.6166C198.293 48.8935 198.998 50.6739 198.998 52.9572C198.998 56.6384 197.877 59.3656 195.635 61.1388C193.224 63.0476 190.15 64 186.415 64C182.337 64 178.531 62.8458 174.998 60.5343L178.619 54.1671C181.174 56.2623 183.673 57.3099 186.114 57.3099C187.206 57.3099 188.16 57.0484 188.979 56.5238C189.797 56 190.206 55.2413 190.206 54.247C190.206 52.8765 188.843 51.8152 186.114 51.063C186.029 51.0371 185.683 50.9427 185.08 50.7813C183.529 50.3777 182.308 50.0024 181.417 49.6521C180.526 49.3035 179.636 48.8128 178.747 48.1816C177.857 47.5504 177.224 46.7506 176.852 45.7837C176.477 44.816 176.29 43.6207 176.29 42.1961C176.29 39.1332 177.339 36.6683 179.436 34.8006C181.532 32.933 184.218 32 187.493 32C189.13 32 190.875 32.2284 192.727 32.6844C194.582 33.1421 196.224 33.7466 197.662 34.498ZM165.353 32H173V49.53C173 52.066 172.809 54.1955 172.427 55.9176C172.045 57.6406 171.195 59.1772 169.878 60.5276C167.64 62.8434 164.347 64 160.001 64C155.653 64 152.36 62.8434 150.122 60.5276C148.805 59.1772 147.955 57.6406 147.573 55.9176C147.191 54.1955 147 52.066 147 49.53V32H154.647V48.414C154.745 49.4067 154.804 50.8945 154.804 50.8945C154.804 50.8945 154.962 52.3003 155.161 53.1275C155.358 53.9537 155.634 54.6161 155.991 55.112C156.346 55.608 156.866 56.0286 157.551 56.373C158.235 56.7174 159.053 56.8888 160.001 56.8888C160.95 56.8888 161.765 56.7174 162.45 56.373C163.134 56.0286 163.657 55.608 164.011 55.112C164.366 54.6161 164.643 53.9537 164.841 53.1275C165.038 52.3003 165.156 51.556 165.196 50.8945C165.237 50.233 165.257 49.4067 165.353 48.414V32ZM128.983 38.4017V46.2586H130.363C131.142 46.2586 131.734 46.2519 132.139 46.2376C132.542 46.2234 133.059 46.1481 133.687 46.0075C134.313 45.8686 134.78 45.6736 135.088 45.4233C135.392 45.1723 135.666 44.7957 135.902 44.2944C136.138 43.7922 136.257 43.1654 136.257 42.4138C136.257 41.6338 136.146 40.9861 135.923 40.4705C135.7 39.9558 135.435 39.5583 135.128 39.2796C134.821 39.0009 134.369 38.7992 133.77 38.6729C133.17 38.5482 132.655 38.472 132.223 38.4436C131.791 38.4168 131.17 38.4017 130.363 38.4017H128.983ZM121 64V32H133.543C137.083 32 139.878 32.857 141.926 34.5701C143.975 36.2841 145 38.8827 145 42.3642C145 49.4971 141.279 53.0632 133.836 53.0632H129.195V64H121ZM107.307 41.9913C105.573 40.4096 103.51 39.6188 101.117 39.6188C98.7229 39.6188 96.6602 40.4096 94.9264 41.9913C93.1926 43.5722 92.3257 45.4048 92.3257 47.486C92.3257 50.016 93.1786 52.1304 94.8851 53.8308C96.5908 55.5305 98.6676 56.3807 101.117 56.3807C103.564 56.3807 105.641 55.5305 107.347 53.8308C109.053 52.1304 109.906 50.016 109.906 47.486C109.906 45.4048 109.039 43.5722 107.307 41.9913ZM93.1738 33.9297C95.6034 32.644 98.212 32 101.001 32C103.788 32 106.397 32.644 108.828 33.9297C111.257 35.2177 113.227 37.0541 114.737 39.4429C116.245 41.8308 117 44.497 117 47.4429C117 52.2985 115.498 56.2726 112.493 59.3636C109.487 62.4545 105.656 64 101.001 64C96.3441 64 92.5146 62.4545 89.5095 59.3636C86.5037 56.2726 85 52.2985 85 47.4429C85 44.497 85.7545 41.8308 87.2644 39.4429C88.7727 37.0541 90.7427 35.2177 93.1738 33.9297ZM76.8462 40V64H69.1538V40H63V32H83V40H76.8462ZM59 33.5311V43.0016C58.1679 41.9282 57.121 41.1025 55.8591 40.5238C54.5981 39.9459 53.2588 39.657 51.8454 39.657C49.3783 39.657 47.3677 40.4633 45.8152 42.0751C44.2618 43.6868 43.4847 45.6893 43.4847 48.0799C43.4847 50.4988 44.2693 52.4802 45.836 54.0258C47.4027 55.5714 49.4466 56.343 51.9695 56.343C53.3013 56.343 54.5906 56.0549 55.8383 55.477C57.086 54.8983 58.1404 54.113 59 53.1186V62.59C55.8383 63.5303 53.4396 64 51.8046 64C47.3394 64 43.4165 62.5093 40.034 59.5262C36.6775 56.5989 35 52.7692 35 48.0404C35 43.6868 36.5392 39.979 39.6184 36.9161C41.171 35.385 43.0008 34.1824 45.1081 33.3099C47.2153 32.4366 49.3642 32 51.5539 32C53.966 32 56.4488 32.5109 59 33.5311Z" fill="#002439"/>
<path fill-rule="evenodd" clip-rule="evenodd" d="M30.7372 39.4429C29.2273 37.0549 27.2573 35.2177 24.8285 33.9297C22.3974 32.644 19.788 32 17.0012 32C14.212 32 11.6034 32.644 9.17384 33.9297C6.74274 35.2177 4.77266 37.0549 3.26436 39.4429C1.75453 41.8308 1 44.497 1 47.4429C1 52.2985 2.50369 56.2726 5.50952 59.3636C8.51459 62.4545 12.3449 64 17.0012 64C21.6559 64 25.4869 62.4545 28.492 59.3636C31.4979 56.2726 33 52.2985 33 47.4429C33 44.497 32.2455 41.8308 30.7372 39.4429ZM28.5611 51.4216L27.6167 50.6939L27.2679 51.1809L28.3567 52.0194C28.4235 52.5295 28.6317 54.7389 27.493 56.3107C26.8345 57.221 25.8218 57.759 24.4941 57.9216L22.2851 56.4335L21.559 54.9525L21.038 55.2275L21.6135 56.4016L19.0748 56.765L19.1548 57.366L21.9923 56.9595L24.113 58.3894C24.0231 58.9258 23.6374 60.6363 22.2267 61.521C21.0057 62.287 19.3177 62.2487 17.2085 61.4063V46.7517C17.8516 47.4116 18.6 47.96 18.643 47.9911L18.978 47.4937C18.965 47.4842 17.824 46.6481 17.2085 45.847V35.5914C17.552 35.1562 19.3599 33.1046 22.2236 34.2946C25.1088 35.4918 25.065 38.719 25.0281 39.3503C23.2778 41.2249 21.6811 40.9332 21.6104 40.9189L21.4921 41.5135C21.5144 41.5183 21.6727 41.5501 21.9324 41.5501C22.6093 41.5501 23.9739 41.3206 25.3977 39.8245C25.775 39.9265 26.8968 40.3091 27.5169 41.4075C28.0701 42.3862 28.0824 43.6958 27.5776 45.2875L24.823 46.1396L23.4338 44.8659L23.0465 45.3202L24.4104 46.5708L23.967 47.8994L24.5202 48.0979L24.9789 46.7246L27.7366 45.8717C28.2622 46.4121 30.3367 48.8264 28.5611 51.4216ZM14.7727 55.4708L13.3159 55.3242L9.6147 58.3689C9.70075 58.8878 10.0857 60.6341 11.5079 61.5236C12.7304 62.2872 14.4162 62.2474 16.5223 61.4057V51.3636L15.1915 50.7587L15.4258 50.2031L16.5223 50.7021V35.5916C16.2549 35.2512 15.0954 33.9281 13.2375 33.9281C12.715 33.9281 12.1372 34.0325 11.5072 34.294C8.6819 35.4664 8.67345 38.6634 8.70342 39.329C9.06762 39.5976 10.4269 40.5333 12.1972 40.8776L12.2225 40.8824C12.944 41.0689 13.8176 40.3014 14.0935 39.9881L14.5261 40.3978L14.5238 40.4003C14.464 40.4662 13.7412 41.2626 12.8618 41.4698C13.2437 41.8715 13.7101 42.4223 13.8422 42.836L13.2875 43.0273C13.1638 42.6399 12.4615 41.8843 12.0089 41.4579C10.1403 41.0745 8.74875 40.1125 8.35535 39.8175C7.9996 39.9108 6.84552 40.2886 6.21392 41.4069C5.68222 42.349 5.6607 43.6019 6.10789 45.1124L8.26622 44.1447C8.54437 43.9064 9.59088 43.0488 10.1802 43.0488V43.6561C9.98812 43.6561 9.54862 43.9184 9.11449 44.238C9.7653 44.564 10.453 45.3092 10.7096 45.6089L10.2724 46.0122C9.59011 45.2168 8.76028 44.5871 8.53591 44.6851L6.07792 45.7875C5.77211 46.084 3.27724 48.6576 5.17202 51.4242L6.15015 50.6917L6.49207 51.1835L5.3741 52.0212C5.30725 52.5409 5.10594 54.7503 6.24005 56.3133C6.89623 57.218 7.90278 57.7528 9.22206 57.9186L12.9286 54.8691C12.9164 54.5319 12.8941 53.7428 12.9363 53.3929L13.5164 53.4686C13.4849 53.7277 13.4965 54.335 13.5095 54.7344L14.8288 54.8667L14.7727 55.4708Z" fill="#002439"/>
</svg>
