<svg width="200" height="96" viewBox="0 0 200 96" fill="none" xmlns="http://www.w3.org/2000/svg">
<path d="M90.1836 17.2699V73.9994H111.327V57.8566H117.367V73.9995H137V49.9598L117.4 35.2371V35.2124H111.327V0L90.1836 17.2699Z" fill="white"/>
<path d="M63 86.6667H64.5034V96H63V86.6667Z" fill="white"/>
<path d="M63 82.7778H64.5579V84.3333H63V82.7778Z" fill="white"/>
<path d="M80.1787 88.2625V82H81.6947V96H80.1787V89.6993H72.3056V96H70.7895V82H72.3056V88.2625H80.1787Z" fill="white"/>
<path fill-rule="evenodd" clip-rule="evenodd" d="M91 85.1111C93.7201 85.1111 94.9368 87.5133 94.9368 89.8952C94.9368 90.1265 94.9026 90.4485 94.9012 90.461L94.8669 90.7658H87.7905C87.9232 92.9867 89.3154 94.509 91.2653 94.509C92.7715 94.509 93.7215 93.4681 93.7852 93.3982L93.7886 93.3946L94.0625 93.0726L94.8341 94.3574L94.6473 94.5574C94.5945 94.6168 93.2908 96 91.2653 96C88.4282 96 86.3684 93.7181 86.3684 90.5751C86.3684 87.8587 87.9589 85.1111 91 85.1111ZM90.9828 86.5615C89.4537 86.5615 88.2784 87.629 87.9032 89.3154H93.5019C93.3293 87.5837 92.4064 86.5615 90.9828 86.5615Z" fill="white"/>
<path fill-rule="evenodd" clip-rule="evenodd" d="M103.792 85.1111C106.118 85.1111 107.4 86.5412 107.4 89.1356V95.7671H105.963V94.5668C105.926 94.6153 105.887 94.6621 105.845 94.709C105.337 95.2967 104.444 96 103.089 96C101.414 96 99.6105 95.0091 99.6105 92.8319C99.6105 89.1388 104.179 89.1388 105.682 89.1388H105.963C105.96 87.4071 105.258 86.6006 103.755 86.6006C102.294 86.6006 101.33 87.443 101.32 87.4539L101.046 87.6978L100.226 86.4787L100.439 86.2724C100.488 86.2255 101.669 85.1111 103.792 85.1111ZM103.124 94.548C104.878 94.548 105.963 92.5866 105.963 90.7705V90.5907H105.7C103.417 90.5907 101.085 90.8502 101.085 92.7741C101.085 93.6556 101.786 94.548 103.124 94.548Z" fill="white"/>
<path d="M114.878 94.5541L115.189 94.5009V95.8951L114.974 95.9544C114.958 95.959 114.802 96 114.637 96C113.776 96 112.853 95.3903 112.853 93.6768V82H114.048V93.4305C114.048 94.5693 114.478 94.5693 114.682 94.5693C114.762 94.5693 114.833 94.5599 114.863 94.5559C114.871 94.5548 114.876 94.5541 114.878 94.5541Z" fill="white"/>
<path d="M124.124 94.5163L124.535 94.427L124.537 95.8983L124.265 95.9546C124.238 95.9598 124.028 96 123.719 96C122.707 96 120.345 95.615 120.345 92.048V86.9786H119.084V85.5449H120.345V82.7778H121.827V85.5449H124.328V86.9786H121.827V91.9901C121.827 94.1031 122.877 94.5476 123.759 94.5476C123.98 94.5476 124.124 94.5163 124.124 94.5163Z" fill="white"/>
<path d="M133.539 85.5783C136.641 85.5783 137 87.8895 137 89.6275V96H135.533V89.9133C135.533 88.0469 135.213 87.035 133.539 87.035C131.917 87.035 130.478 88.1769 130.042 89.8109C129.946 90.1441 129.902 90.5354 129.902 91.0169V96H128.432V82H129.902V87.3102C130.641 86.4114 131.874 85.5783 133.539 85.5783Z" fill="white"/>
<path d="M63 73.9995V43.0101L82.6327 25.7402V73.9995H63Z" fill="white"/>
</svg>
