<svg width="64" height="96" viewBox="0 0 64 96" fill="none" xmlns="http://www.w3.org/2000/svg">
<path fill-rule="evenodd" clip-rule="evenodd" d="M45.7372 39.4429C44.2273 37.0549 42.2573 35.2177 39.8285 33.9297C37.3974 32.644 34.788 32 32.0012 32C29.212 32 26.6034 32.644 24.1738 33.9297C21.7427 35.2177 19.7727 37.0549 18.2644 39.4429C16.7545 41.8308 16 44.497 16 47.4429C16 52.2985 17.5037 56.2726 20.5095 59.3636C23.5146 62.4545 27.3449 64 32.0012 64C36.6559 64 40.4869 62.4545 43.492 59.3636C46.4979 56.2726 48 52.2985 48 47.4429C48 44.497 47.2455 41.8308 45.7372 39.4429ZM43.5615 51.4221L42.6172 50.6944L42.2684 51.1814L43.3572 52.0199C43.424 52.53 43.6322 54.7394 42.4935 56.3112C41.835 57.2214 40.8223 57.7595 39.4946 57.9221L37.2856 56.434L36.5595 54.953L36.0385 55.228L36.614 56.4021L34.0753 56.7655L34.1552 57.3665L36.9928 56.96L39.1135 58.3899C39.0236 58.9263 38.6379 60.6368 37.2272 61.5215C36.0062 62.2875 34.3181 62.2492 32.209 61.4068V46.7522C32.8521 47.4121 33.6005 47.9605 33.6435 47.9916L33.9785 47.4942C33.9655 47.4847 32.8244 46.6486 32.209 45.8475V35.5919C32.5524 35.1567 34.3604 33.1051 37.2241 34.2951C40.1093 35.4922 40.0655 38.7195 40.0286 39.3508C38.2783 41.2254 36.6816 40.9337 36.6109 40.9194L36.4926 41.514C36.5149 41.5187 36.6732 41.5506 36.9329 41.5506C37.6098 41.5506 38.9744 41.3211 40.3982 39.825C40.7755 39.927 41.8973 40.3096 42.5173 41.408C43.0706 42.3867 43.0829 43.6963 42.578 45.288L39.8235 46.14L38.4343 44.8664L38.047 45.3207L39.4108 46.5713L38.9675 47.8999L39.5207 48.0984L39.9794 46.7251L42.7371 45.8722C43.2627 46.4126 45.3372 48.8269 43.5615 51.4221ZM29.7717 55.4713L28.3149 55.3247L24.6137 58.3694C24.6998 58.8883 25.0847 60.6346 26.507 61.5241C27.7294 62.2877 29.4152 62.2479 31.5213 61.4062V51.3641L30.1905 50.7592L30.4248 50.2036L31.5213 50.7026V35.5921C31.2539 35.2517 30.0945 33.9286 28.2365 33.9286C27.7141 33.9286 27.1363 34.033 26.5062 34.2945C23.6809 35.4669 23.6725 38.6639 23.7024 39.3294C24.0666 39.5981 25.4259 40.5338 27.1962 40.8781L27.2215 40.8829C27.943 41.0694 28.8167 40.3019 29.0925 39.9886L29.5251 40.3983L29.5228 40.4008C29.463 40.4667 28.7402 41.2631 27.8608 41.4703C28.2427 41.872 28.7091 42.4228 28.8413 42.8365L28.2865 43.0278C28.1628 42.6404 27.4605 41.8848 27.0079 41.4584C25.1393 41.075 23.7478 40.1129 23.3544 39.818C22.9986 39.9113 21.8445 40.2891 21.2129 41.4074C20.6812 42.3495 20.6597 43.6024 21.1069 45.1129L23.2652 44.1452C23.5434 43.9069 24.5899 43.0493 25.1792 43.0493V43.6566C24.9871 43.6566 24.5476 43.9189 24.1135 44.2385C24.7643 44.5645 25.452 45.3097 25.7086 45.6094L25.2714 46.0127C24.5891 45.2173 23.7593 44.5876 23.5349 44.6856L21.0769 45.788C20.7711 46.0845 18.2763 48.6581 20.171 51.4247L21.1492 50.6922L21.4911 51.184L20.3731 52.0217C20.3063 52.5414 20.105 54.7508 21.2391 56.3138C21.8953 57.2185 22.9018 57.7533 24.2211 57.9191L27.9277 54.8696C27.9154 54.5324 27.8931 53.7433 27.9354 53.3934L28.5155 53.4691C28.484 53.7282 28.4955 54.3355 28.5086 54.7348L29.8278 54.8672L29.7717 55.4713Z" fill="#008AD2"/>
</svg>
