<svg width="24" height="24" viewBox="0 0 24 24" fill="none" xmlns="http://www.w3.org/2000/svg">
<path d="M15.7603 5.75951C16.1688 6.16802 16.1688 6.83035 15.7603 7.23886L12.707 10.2921C12.3165 10.6826 11.6833 10.6826 11.2928 10.2921L8.23966 7.23885C7.83116 6.83035 7.83116 6.16803 8.23967 5.75953C8.65616 5.34303 9.33425 5.35238 9.73911 5.78019L11.9999 8.16919L14.2609 5.78015C14.6658 5.35236 15.3438 5.34302 15.7603 5.75951Z" fill="#008AD2"/>
<path d="M8.23969 18.2389C7.83118 17.8304 7.83118 17.168 8.23969 16.7595L11.293 13.7063C11.6835 13.3158 12.3167 13.3158 12.7072 13.7063L15.7604 16.7595C16.1689 17.168 16.1689 17.8303 15.7603 18.2388C15.3439 18.6553 14.6658 18.646 14.2609 18.2182L12.0001 15.8292L9.73911 18.2182C9.33425 18.646 8.65617 18.6553 8.23969 18.2389Z" fill="#008AD2"/>
</svg>
