<svg width="24" height="24" viewBox="0 0 24 24" fill="none" xmlns="http://www.w3.org/2000/svg">
<path d="M12 3C13.1 3 14 3.6 14.6 4.5L21.6 16.5C22.1 17.4 22.2 18.6 21.6 19.5C21.1 20.4 20.1 21 19 21H5C3.9 21 2.89999 20.4 2.39999 19.5C1.89999 18.6 1.89999 17.4 2.39999 16.5L9.39999 4.5C9.99999 3.6 10.9 3 12 3ZM11.2 5.5L4.2 17.5C4 17.8 4 18.2 4.2 18.5C4.4 18.8 4.70001 19 5.10001 19H19.1C19.5 19 19.8 18.8 20 18.5C20.2 18.2 20.2 17.8 20 17.5L13 5.5C12.8 5.2 12.5 5 12.2 5C11.9 5 11.3 5.2 11.2 5.5ZM12 14C12.6 14 13 13.6 13 13V9C13 8.4 12.6 8 12 8C11.4 8 11 8.4 11 9V13C11 13.6 11.4 14 12 14ZM12 18C12.6 18 13 17.6 13 17C13 16.4 12.6 16 12 16C11.4 16 11 16.4 11 17C11 17.6 11.4 18 12 18Z" fill="white"/>
</svg>
