<svg width="24" height="24" viewBox="0 0 24 24" fill="none" xmlns="http://www.w3.org/2000/svg">
<path d="M7.60002 6.70001L11.9 11.3C12.3 11.7 12.3 12.3 11.9 12.7L7.60002 17.3C7.30002 17.7 6.7 17.7 6.3 17.4C6.3 17.4 6.30002 17.4 6.20002 17.3C5.80002 16.9 5.80002 16.3 6.20002 15.9L9.8 12L6.20002 8.10002C5.80002 7.70002 5.80002 7.10001 6.20002 6.70001C6.60002 6.30001 7.20002 6.30001 7.60002 6.70001C7.60002 6.70001 7.50002 6.70001 7.60002 6.70001ZM11.8 6.70001C12.2 6.30001 12.7 6.30002 13.1 6.60002C13.1 6.60002 13.1 6.60001 13.2 6.70001L17.5 11.3C17.9 11.7 17.9 12.3 17.5 12.7L13.2 17.3C12.9 17.7 12.3 17.7 11.9 17.4C11.9 17.4 11.9 17.4 11.8 17.3C11.4 16.9 11.4 16.3 11.8 15.9L15.4 12L11.8 8.10002C11.4 7.70002 11.4 7.10001 11.8 6.70001Z" fill="white"/>
</svg>
