<svg width="24" height="24" viewBox="0 0 24 24" fill="none" xmlns="http://www.w3.org/2000/svg">
<path d="M11 19C11.6 19 12 19.4 12 20C12 20.6 11.6 21 11 21C10.4 21 10 20.6 10 20C10 19.4 10.4 19 11 19ZM14 19C14.6 19 15 19.4 15 20C15 20.6 14.6 21 14 21C13.4 21 13 20.6 13 20C13 19.4 13.4 19 14 19ZM17 19C17.6 19 18 19.4 18 20C18 20.6 17.6 21 17 21C16.4 21 16 20.6 16 20C16 19.4 16.4 19 17 19ZM20 19C20.6 19 21 19.4 21 20C21 20.6 20.6 21 20 21C19.4 21 19 20.6 19 20C19 19.4 19.4 19 20 19ZM20.3 3.10002C20.9 3.70002 20.9 4.60003 20.3 5.20003L14.3 11.2L12.2 9.10002L18.2 3.10002C18.8 2.50002 19.7 2.50002 20.3 3.10002ZM14.6 12.9L11.5 9.80001L3 18.3C2.7 18.6 2.60001 19 2.80001 19.3C2.90001 19.7 3.20001 19.9 3.60001 20C4.10001 20.1 4.5 20.1 5 20.1C8.2 20.1 11.5 18.1 14.7 14.2C15 13.8 14.9 13.2 14.6 12.9ZM6.10001 18L11.4 12.7L12.1 13.4L12.4 13.7C10.3 16.1 8.20001 17.5 6.10001 18Z" fill="white"/>
</svg>
