<svg width="24" height="24" viewBox="0 0 24 24" fill="none" xmlns="http://www.w3.org/2000/svg">
<path d="M16 5V3H18C19.1 3 20 3.9 20 5V20C20 21.1 19.1 22 18 22H6C4.9 22 4 21.1 4 20V5C4 3.9 4.9 3 6 3H8V5H6V20H18V5H16ZM9.5 2H14.5C14.8 2 15 2.2 15 2.5V4.5C15 4.8 14.8 5 14.5 5H9.5C9.2 5 9 4.8 9 4.5V2.5C9 2.2 9.2 2 9.5 2ZM11.5 9H16.5C16.8 9 17 9.2 17 9.5C17 9.8 16.8 10 16.5 10H11.5C11.2 10 11 9.8 11 9.5C11 9.2 11.2 9 11.5 9ZM10.9 7.89999L8.89999 9.89999C8.79999 9.99999 8.7 10 8.5 10C8.3 10 8.20001 9.99999 8.10001 9.89999L7.10001 8.89999C6.90001 8.69999 6.90001 8.40001 7.10001 8.20001C7.30001 8.00001 7.59999 8.00001 7.79999 8.20001L8.39999 8.79999L10 7.20001C10.2 7.00001 10.5 7.00001 10.7 7.20001C11 7.30001 11 7.69999 10.9 7.89999ZM11.5 13H16.5C16.8 13 17 13.2 17 13.5C17 13.8 16.8 14 16.5 14H11.5C11.2 14 11 13.8 11 13.5C11 13.2 11.2 13 11.5 13ZM10.9 11.9L8.89999 13.9C8.79999 14 8.7 14 8.5 14C8.3 14 8.20001 14 8.10001 13.9L7.10001 12.9C6.90001 12.7 6.90001 12.4 7.10001 12.2C7.30001 12 7.59999 12 7.79999 12.2L8.39999 12.8L10 11.2C10.2 11 10.5 11 10.7 11.2C11 11.3 11 11.7 10.9 11.9ZM11.5 17H16.5C16.8 17 17 17.2 17 17.5C17 17.8 16.8 18 16.5 18H11.5C11.2 18 11 17.8 11 17.5C11 17.2 11.2 17 11.5 17ZM10.9 15.9L8.89999 17.9C8.79999 18 8.7 18 8.5 18C8.3 18 8.20001 18 8.10001 17.9L7.10001 16.9C6.90001 16.7 6.90001 16.4 7.10001 16.2C7.30001 16 7.59999 16 7.79999 16.2L8.39999 16.8L10 15.2C10.2 15 10.5 15 10.7 15.2C11 15.3 11 15.7 10.9 15.9Z" fill="white"/>
</svg>
