<svg width="24" height="24" viewBox="0 0 24 24" fill="none" xmlns="http://www.w3.org/2000/svg">
<path d="M21.9 12.3C20.3 9.09997 16.4 7.09998 12 7.09998C7.60003 7.09998 3.80002 9.09997 2.10002 12.3C2.00002 12.6 2.00002 12.9 2.10002 13.2C2.80002 14.6 4.00003 15.8 5.50003 16.7C6.00003 17 6.60003 16.8 6.90003 16.4C7.20003 15.9 7.00002 15.3 6.60002 15C5.60002 14.4 4.70003 13.6 4.20003 12.7C5.60003 10.6 8.50002 9.09998 11.7 8.99998C11.9 9.29998 12 9.79998 12 10.2C12 11.4 11.1 12.4 10 12.4C8.90003 12.4 8.10003 11.5 8.00003 10.3C7.90003 10.6 7.90003 10.9 7.90003 11.3C7.90003 13.8 9.70003 15.7 12 15.7C14.3 15.7 16.1 13.7 16.1 11.3C16.1 10.7 16 10.1 15.8 9.59998C17.6 10.2 19 11.3 19.9 12.6C19.3 13.5 18.5 14.3 17.5 14.9C17 15.2 16.9 15.8 17.1 16.3C17.3 16.6 17.6 16.8 18 16.8C18.2 16.8 18.3 16.8 18.5 16.7C20 15.8 21.2 14.6 22 13.2C22 13 22 12.6 21.9 12.3Z" fill="white"/>
</svg>
