<svg width="24" height="24" viewBox="0 0 24 24" fill="none" xmlns="http://www.w3.org/2000/svg">
<g clip-path="url(#clip0)">
<path fill-rule="evenodd" clip-rule="evenodd" d="M0 9V10V20C0 21.1 0.9 22 2 22H18C19.1 22 20 21.1 20 20V19H21C21.3079 19 21.5987 18.8581 21.7882 18.6154C21.9777 18.3727 22.0448 18.0562 21.9702 17.7575L21.5308 16H23C23.3688 16 23.7077 15.797 23.8817 15.4719C24.0557 15.1467 24.0366 14.7522 23.8321 14.4453L20 8.69722V6C20 4.9 19.1 4 18 4H17C17 2.9 16.1 2 15 2C13.9 2 13 2.9 13 4H7C7 2.9 6.1 2 5 2C3.9 2 3 2.9 3 4H2C0.9 4 0 4.9 0 6V9ZM19.4692 16H5C4.66565 16 4.35342 15.8329 4.16795 15.5547L2.97037 13.7583L3.78079 17H19.7192L19.4692 16ZM2 20V18.1231L2.02987 18.2425C2.14116 18.6877 2.54114 19 3.00001 19H18V20H2ZM5.53518 14L2.86852 10H18.4648L21.1315 14H5.53518Z" fill="white"/>
</g>
<defs>
<clipPath id="clip0">
<path d="M0 0H24V24H0V0Z" fill="white"/>
</clipPath>
</defs>
</svg>
