<svg width="24" height="24" viewBox="0 0 24 24" fill="none" xmlns="http://www.w3.org/2000/svg">
<path d="M19.5 21H4.5C3 21 2 20 2 18.5V8C2 6.4 3.3 5 4.8 5H7L8.9 3.2C9.1 3.1 9.3 3 9.5 3H14.5C14.7 3 15 3.1 15.1 3.2L17 5H19.2C20.7 5 22 6.4 22 8V18.5C22 20 21 21 19.5 21ZM5 7C4.6 7 4 7.5 4 8V18C4 18.4 4.6 19 5 19H19C19.4 19 20 18.4 20 18V8C20 7.5 19.4 7 19 7H16C15 6 15 6 14 5H10C9 6 9 6 8 7H5ZM12 18C9.2 18 7 15.8 7 13C7 10.2 9.2 8 12 8C14.8 8 17 10.2 17 13C17 15.8 14.8 18 12 18ZM12 10C10.3 10 9 11.3 9 13C9 14.7 10.3 16 12 16C13.7 16 15 14.7 15 13C15 11.3 13.7 10 12 10Z" fill="white"/>
</svg>
