<svg width="24" height="24" viewBox="0 0 24 24" fill="none" xmlns="http://www.w3.org/2000/svg">
<path d="M11 8C11 7.44772 11.4477 7 12 7C12.5523 7 13 7.44772 13 8C13 8.55228 12.5523 9 12 9C11.4477 9 11 8.55228 11 8Z" fill="white"/>
<path fill-rule="evenodd" clip-rule="evenodd" d="M1.7072 3.00716C1.31668 2.61663 1.31668 1.98347 1.7072 1.59294C2.09772 1.20242 2.73089 1.20242 3.12141 1.59294L4.52847 3H19.0001C20.1047 3 21.0001 3.89543 21.0001 5V19.4716L21.5062 19.9777C21.8967 20.3682 21.8967 21.0014 21.5062 21.3919C21.1157 21.7825 20.4825 21.7825 20.092 21.3919L13 14.3V16C13 16.5523 12.5523 17 12 17C11.4477 17 11 16.5523 11 16V12.3L1.7072 3.00716ZM13 11.4715V11C13 10.4477 12.5523 10 12 10C11.8609 10 11.7285 10.0284 11.6082 10.0797L6.52847 5H19.0001V17.4716L13 11.4715Z" fill="white"/>
<path d="M4.00009 7C4.55238 7 5.00009 7.44772 5.00009 8V19H16.0001C16.5524 19 17.0001 19.4477 17.0001 20C17.0001 20.5523 16.5524 21 16.0001 21H5.00009C3.89552 21 3.00009 20.1046 3.00009 19V8C3.00009 7.44772 3.44781 7 4.00009 7Z" fill="white"/>
</svg>
