<svg width="24" height="24" viewBox="0 0 24 24" fill="none" xmlns="http://www.w3.org/2000/svg">
<path d="M19 21C19 21.6 18.6 22 18 22C17.6 22 17.2 21.7 17.1 21.3C16.8 21.2 16.1 21 15 21C13.9 21 13.2 21.2 12.9 21.3C12.8 21.7 12.4 22 12 22C11.4 22 11 21.6 11 21C11 19.5 13.1 19 15 19C16.9 19 19 19.5 19 21ZM15 19C14.4 19 14 18.6 14 18V15H11C10.9 15 10.8 15 10.7 14.9C9.80002 17.4 8.50002 19.8 6.70002 21.7C6.50002 21.9 6.20001 22 6.00001 22C5.80001 22 5.5 21.9 5.3 21.7C4.9 21.3 4.9 20.7 5.3 20.3C6.6 19 7.6 17.3 8.3 15.6H8.20002C7.90002 15.6 7.50001 15.4 7.40001 15.1L5.3 11.7C5.2 11.5 5.10002 11.2 5.20002 10.9C5.30002 10.6 5.40002 10.4 5.70002 10.3L9.70002 8.10001C9.80002 8.00001 10 8 10.1 8C10.1 7.9 10.1 7.89999 10.1 7.79999C8.90002 7.39999 8.10002 6.3 8.10002 5C8.10002 3.3 9.40002 2 11.1 2C11.7 2 12.1 2.4 12.1 3C12.1 3.6 11.7 4 11.1 4C10.5 4 10.1 4.4 10.1 5C10.1 5.6 10.5 6 11.1 6C11.7 6 12.1 5.6 12.1 5C12.1 4.4 12.5 4 13.1 4C13.7 4 14.1 4.4 14.1 5C14.1 6.3 13.2 7.39999 12.1 7.79999C12.1 7.89999 12.1 7.9 12.1 8C12.1 9.5 11.9 11.2 11.4 13H15.1C15.7 13 16.1 13.4 16.1 14V18C16 18.6 15.6 19 15 19ZM8.90001 13.9C9.30001 12.7 9.6 11.4 9.8 10.3L7.50001 11.6L8.90001 13.9Z" fill="white"/>
</svg>
