<svg width="24" height="24" viewBox="0 0 24 24" fill="none" xmlns="http://www.w3.org/2000/svg">
<path d="M22 7V11C22 11.6 21.6 12 21 12C20.4 12 20 11.6 20 11V7C20 6.4 19.6 6 19 6C18.4 6 18 6.4 18 7V16.5C18 19.5 15.5 22 12.5 22C9.6 22 7.3 19.8 7 17H6C5.4 17 5 16.6 5 16C3.3 16 2 14.7 2 13V6C2 4.3 3.3 3 5 3C5.6 3 6 3.4 6 4C6 4.6 5.6 5 5 5C4.4 5 4 5.4 4 6V8.89999C4.3 8.99999 4.6 9 5 9C5.8 9 6.5 8.4 7 8C7.7 8.4 8.9 9 10 9C10.7 9 11.4 8.90001 12 8.70001V6C12 5.4 11.6 5 11 5H8C7.4 5 7 4.6 7 4V2C7 1.4 7.4 1 8 1C8.6 1 9 1.4 9 2V3H11C12.7 3 14 4.3 14 6V13C14 14.7 12.7 16 11 16C11 16.6 10.6 17 10 17H9.1C9.3 18.7 10.8 20 12.5 20C14.4 20 16 18.4 16 16.5V7C16 5.3 17.3 4 19 4C20.7 4 22 5.3 22 7ZM20 15C20 15.6 20.4 16 21 16C21.6 16 22 15.5 22 15C22 14.7 21.7 14 21 13C20.3 14 20 14.7 20 15ZM20 19C20 19.6 20.4 20 21 20C21.6 20 22 19.5 22 19C22 18.7 21.7 18 21 17C20.3 18 20 18.7 20 19Z" fill="white"/>
</svg>
