<svg width="24" height="24" viewBox="0 0 24 24" fill="none" xmlns="http://www.w3.org/2000/svg">
<path d="M8.37266 18.5048C8.17391 18.699 8.17391 18.9903 8.37266 19.1845L11.1553 21.9029C11.2547 22 11.354 22 11.5528 22C11.8509 22 12.0497 21.8058 12.0497 21.5146V19.767C16.4224 19.767 20 16.2718 20 12C20 10.6408 19.6025 9.28155 18.9068 8.11651C18.6087 7.63107 18.0124 7.53399 17.5155 7.72816C17.0186 8.01942 16.9192 8.60194 17.118 9.08738C17.6149 9.96117 17.913 11.0291 17.913 12C17.913 15.2039 15.2298 17.8252 11.9503 17.8252V16.0777C11.9503 15.9806 11.8509 15.7864 11.8509 15.6893C11.6522 15.4951 11.354 15.4951 11.1553 15.6893L8.37266 18.5048ZM11.9503 4.23301V2.48544C11.9503 2.19417 12.1491 2 12.4472 2C12.5466 2 12.7453 2.09709 12.8447 2.09709L15.6273 4.81554C15.8261 5.00972 15.8261 5.30098 15.6273 5.49515L12.8447 8.2136C12.646 8.40777 12.3478 8.40777 12.1491 8.2136C12.0497 8.11651 12.0497 8.01942 12.0497 7.82524V6.07767C8.77019 6.07767 6.08696 8.69902 6.08696 11.9029C6.08696 12.9709 6.38509 13.9417 6.88198 14.8155C7.18012 15.301 6.98137 15.8835 6.48447 16.1748C6.28571 16.2718 6.18633 16.2718 5.98758 16.2718C5.68944 16.2718 5.29193 16.0777 5.09317 15.7864C4.39752 14.6214 4 13.2621 4 11.9029C4 7.72815 7.57764 4.23301 11.9503 4.23301Z" fill="white"/>
</svg>
