<svg width="24" height="24" viewBox="0 0 24 24" fill="none" xmlns="http://www.w3.org/2000/svg">
<path d="M12 3C12.5523 3 13 3.44772 13 4C13 4.55228 12.5523 5 12 5H5V19H19V12C19 11.4477 19.4477 11 20 11C20.5523 11 21 11.4477 21 12V19C21 20.1046 20.1046 21 19 21H5C3.89543 21 3 20.1046 3 19V5C3 3.89543 3.89543 3 5 3H12Z" fill="white"/>
<path d="M20 3C20.5523 3 21 3.44772 21 4V8C21 8.55228 20.5523 9 20 9C19.4477 9 19 8.55228 19 8V6.34876L11.6281 13.7207C11.2556 14.0931 10.6518 14.0931 10.2793 13.7207C9.90689 13.3482 9.90689 12.7444 10.2793 12.3719L17.6512 5L16 5C15.4477 5 15 4.55228 15 4C15 3.44772 15.4477 3 16 3H20Z" fill="white"/>
</svg>
