<svg width="24" height="24" viewBox="0 0 24 24" fill="none" xmlns="http://www.w3.org/2000/svg">
<path fill-rule="evenodd" clip-rule="evenodd" d="M22 20C22 21.1 21.1 22 20 22H4C2.9 22 2 21.1 2 20V6C2 4.9 2.9 4 4 4H5C5 2.9 5.9 2 7 2C8.1 2 9 2.9 9 4H15C15 2.9 15.9 2 17 2C18.1 2 19 2.9 19 4H20C21.1 4 22 4.9 22 6V20ZM20 20V10H4V20H20ZM14 14C14 13.4477 14.4477 13 15 13H18C18.5523 13 19 13.4477 19 14V17C19 17.5523 18.5523 18 18 18H15C14.4477 18 14 17.5523 14 17V14ZM12 16C11.4477 16 11 16.4477 11 17C11 17.5523 11.4477 18 12 18C12.5523 18 13 17.5523 13 17C13 16.4477 12.5523 16 12 16ZM8 17C8 16.4477 8.44772 16 9 16C9.55228 16 10 16.4477 10 17C10 17.5523 9.55228 18 9 18C8.44772 18 8 17.5523 8 17ZM6 16C5.44772 16 5 16.4477 5 17C5 17.5523 5.44772 18 6 18C6.55228 18 7 17.5523 7 17C7 16.4477 6.55228 16 6 16Z" fill="white"/>
</svg>
