<svg width="24" height="24" viewBox="0 0 24 24" fill="none" xmlns="http://www.w3.org/2000/svg">
<path d="M6.80002 17.4C5.30002 14.8 5.70001 11.4001 7.90001 9.20006L7.40001 8.70006C6.50001 7.80006 6.30002 6.40003 6.80002 5.30003L6.70001 5.20005L6.00001 4.50004C5.60001 4.10004 5.60001 3.50005 6.00001 3.10005C6.40001 2.70005 7.00001 2.70005 7.40001 3.10005L8.10002 3.80003L8.20001 3.90004C9.30001 3.40004 10.7 3.60004 11.6 4.50004L15.8 8.70006C16.2 9.10006 16.2 9.70005 15.8 10.1L13 12.9C12.6 13.3 12 13.3 11.6 12.9L9.20001 10.5C7.50001 12.3 7.30002 15 8.80002 17H15.9V16H15.4C15.1 16 14.9 15.8 14.9 15.5C14.9 15.2 15.1 15 15.4 15H18.4C18.7 15 18.9 15.2 18.9 15.5C18.9 15.8 18.7 16 18.4 16H18V17C19.1 17 20 17.9 20 19V20C20 21.1 19.1 22 18 22H8.00001C6.90001 22 6.00001 21.1 6.00001 20V19C6.00001 18.3 6.30002 17.8 6.80002 17.4ZM17.7 11.2001L14.2 14.7001C14 14.9001 13.7 14.9001 13.5 14.7001C13.3 14.5001 13.3 14.2 13.5 14L17 10.5C17.2 10.3 17.5 10.3 17.7 10.5C17.9 10.7 17.9 11.0001 17.7 11.2001ZM13.8 9.40004L10.3 5.90004C9.90002 5.50004 9.30001 5.50004 8.90001 5.90004C8.50001 6.30004 8.50001 6.90003 8.90001 7.30003L12.4 10.8L13.8 9.40004ZM8.00001 19V20H18V19H8.00001Z" fill="white"/>
</svg>
