<svg width="24" height="24" viewBox="0 0 24 24" fill="none" xmlns="http://www.w3.org/2000/svg">
<path d="M9.39999 11H14.6C15.2 11 15.6 10.6 15.6 10C15.6 9.7 15.5 9.5 15.3 9.3L12.7 6.69999C12.3 6.29999 11.7 6.29999 11.3 6.69999L8.69999 9.3C8.29999 9.7 8.29999 10.3 8.69999 10.7C8.89999 10.9 9.09999 11 9.39999 11ZM8.69999 14.7L11.3 17.3C11.7 17.7 12.3 17.7 12.7 17.3L15.3 14.7C15.7 14.3 15.7 13.7 15.3 13.3C15.1 13.1 14.9 13 14.6 13H9.39999C8.79999 13 8.39999 13.4 8.39999 14C8.39999 14.3 8.49999 14.5 8.69999 14.7Z" fill="white"/>
</svg>
