<svg width="24" height="24" viewBox="0 0 24 24" fill="none" xmlns="http://www.w3.org/2000/svg">
<path d="M12 2C6.5 2 2 6.5 2 12C2 17.5 6.5 22 12 22C17.5 22 22 17.5 22 12C22 6.5 17.5 2 12 2ZM12 20C7.6 20 4 16.4 4 12C4 7.6 7.6 4 12 4C16.4 4 20 7.6 20 12C20 16.4 16.4 20 12 20ZM15.7 14.8C16.1 15.2 16.1 15.8 15.7 16.2C15.5 16.4 15.2 16.5 15 16.5C14.8 16.5 14.5 16.4 14.3 16.2L11.3 13.2C11.2 13.1 11.1 13 11.1 12.9C11 12.8 11 12.6 11 12.5V7.5C11 6.9 11.4 6.5 12 6.5C12.6 6.5 13 6.9 13 7.5V12.1L15.7 14.8Z" fill="white"/>
</svg>
