<svg width="24" height="24" viewBox="0 0 24 24" fill="none" xmlns="http://www.w3.org/2000/svg">
<path fill-rule="evenodd" clip-rule="evenodd" d="M9.00054 4.20041C9.40049 2.90058 10.6002 2.00023 12 2C13.3998 2.00023 14.5995 2.90058 14.9995 4.20041C15 4.5 15 5 15 5C15 5.55228 14.5523 6 14 6C13.4645 6 13.0273 5.57912 13.0012 5.05012C13.0001 5.03424 12.9995 5.01768 12.9995 5.0004C12.9995 4.40058 12.5997 4.00064 12 4.0004C11.4003 4.00064 11.0005 4.40058 11.0005 5.0004C11.0005 5.5004 10.7006 5.9004 10.2006 6.0004C8.00055 6.5004 7.00052 7.7004 7.00052 10.0004V15.0004C7.00052 15.2004 6.9005 15.4004 6.80051 15.6004L5.80052 17.0004C9.1287 17.0001 11.146 17.0002 13.5305 17.0003L18.1995 17.0004L17.1995 15.6004C17.0995 15.4004 16.9995 15.2004 16.9995 15.0004L17 13C17 12.4477 17.4477 12 18 12C18.5523 12 19 12.4477 19 13C19 13.0136 18.9997 13.0272 18.9992 13.0407V14.7004L19.7992 15.9004C20.3992 16.8004 20.0992 18.1004 19.1992 18.7004C18.8992 18.9004 18.4992 19.0004 18.0992 19.0004H14.0326C14.6144 19.0146 15 19.4109 15 20C15 21.2 13.7 22 12 22C10.3 22 9 21.2 9 20C9 19.4109 9.38556 19.0146 9.96742 19.0004H5.90081C5.50081 19.0004 5.10083 18.9004 4.80083 18.7004C3.90083 18.1004 3.60083 16.8004 4.20083 15.9004L5.00081 14.7004V10.0004C5.00081 7.0004 6.30054 5.00041 9.00054 4.20041ZM10.0314 19.0004C10.5167 19.0127 10.9021 19.3105 11 19.8C11.1 19.9 11.5 20 12 20C12.5 20 12.9 19.9 13 19.8C13.0982 19.4073 13.4855 19.0146 13.9727 19.0004H10.0314ZM21 8C21 9.65685 19.6569 11 18 11C16.3431 11 15 9.65685 15 8C15 6.34315 16.3431 5 18 5C19.6569 5 21 6.34315 21 8Z" fill="white"/>
</svg>
