<svg width="24" height="24" viewBox="0 0 24 24" fill="none" xmlns="http://www.w3.org/2000/svg">
<path fill-rule="evenodd" clip-rule="evenodd" d="M12.0003 2C10.6005 2.00023 9.40076 2.90058 9.00081 4.20041C8.3787 4.38474 7.83094 4.63277 7.35628 4.94206L5.12141 2.7072C4.73089 2.31668 4.09772 2.31668 3.7072 2.7072C3.31668 3.09772 3.31668 3.73089 3.7072 4.12141L20.6778 21.092C21.0683 21.4825 21.7015 21.4825 22.092 21.092C22.4825 20.7015 22.4825 20.0683 22.092 19.6778L20.0125 17.5983C20.1894 17.0359 20.136 16.4052 19.7994 15.9004L18.9995 14.7004V10.0004C18.9995 7.0004 17.6997 5.00041 14.9997 4.20041C14.5998 2.90058 13.4 2.00023 12.0003 2ZM16.9997 14.5855V10.0004C16.9997 7.7004 15.9997 6.5004 13.7997 6.0004C13.2997 5.9004 12.9997 5.5004 12.9997 5.0004C12.9997 4.40058 12.6 4.00064 12.0003 4.0004C11.4006 4.00064 11.0008 4.40058 11.0008 5.0004C11.0008 5.5004 10.7008 5.9004 10.2008 6.0004C9.69621 6.11508 9.25473 6.26659 8.87397 6.45976L16.9997 14.5855Z" fill="white"/>
<path fill-rule="evenodd" clip-rule="evenodd" d="M7.00009 9.0004L7.00062 15.0004C7.00062 15.2004 6.90059 15.4004 6.8006 15.6004L5.80061 17.0004H10.5C10.5083 17.0002 14.9917 17 15.0001 17C15.5524 17 16.0001 17.4477 16.0001 18C16.0001 18.5523 15.5524 19 15.0001 19L14.0327 19.0004C14.6145 19.0146 15.0001 19.4109 15.0001 20C15.0001 21.2 13.7001 22 12.0001 22C10.3001 22 9.00009 21.2 9.00009 20C9.00009 19.4109 9.38566 19.0146 9.96751 19.0004H5.9009C5.5009 19.0004 5.10092 18.9004 4.80092 18.7004C3.90092 18.1004 3.60092 16.8004 4.20092 15.9004L5.00091 14.7004L5.00009 11.5C4.99955 11.4865 5.00009 9.01363 5.00009 9C5.00009 8.44772 5.44781 8 6.00009 8C6.55238 8 7.00009 8.44811 7.00009 9.0004ZM10.0315 19.0004C10.5168 19.0127 10.9022 19.3105 11.0001 19.8C11.1001 19.9 11.5001 20 12.0001 20C12.5001 20 12.9001 19.9 13.0001 19.8C13.0983 19.4073 13.4856 19.0146 13.9728 19.0004H10.0315Z" fill="white"/>
</svg>
