<svg width="24" height="24" viewBox="0 0 24 24" fill="none" xmlns="http://www.w3.org/2000/svg">
<path d="M8.55566 8.44446C8.55566 8.99674 8.10795 9.44446 7.55566 9.44446C7.00338 9.44446 6.55566 8.99674 6.55566 8.44446C6.55566 7.89217 7.00338 7.44446 7.55566 7.44446C8.10795 7.44446 8.55566 7.89217 8.55566 8.44446Z" fill="white"/>
<path d="M7.55566 13C8.10795 13 8.55566 12.5523 8.55566 12C8.55566 11.4477 8.10795 11 7.55566 11C7.00338 11 6.55566 11.4477 6.55566 12C6.55566 12.5523 7.00338 13 7.55566 13Z" fill="white"/>
<path d="M7.55566 16.5555C8.10795 16.5555 8.55566 16.1078 8.55566 15.5555C8.55566 15.0033 8.10795 14.5555 7.55566 14.5555C7.00338 14.5555 6.55566 15.0033 6.55566 15.5555C6.55566 16.1078 7.00338 16.5555 7.55566 16.5555Z" fill="white"/>
<path d="M16.4444 7.55554H11.1111C10.6201 7.55554 10.2222 7.95351 10.2222 8.44443C10.2222 8.93535 10.6201 9.33332 11.1111 9.33332H16.4444C16.9353 9.33332 17.3333 8.93535 17.3333 8.44443C17.3333 7.95351 16.9353 7.55554 16.4444 7.55554Z" fill="white"/>
<path d="M11.1111 11.1111H16.4444C16.9353 11.1111 17.3333 11.5091 17.3333 12C17.3333 12.4909 16.9353 12.8889 16.4444 12.8889H11.1111C10.6201 12.8889 10.2222 12.4909 10.2222 12C10.2222 11.5091 10.6201 11.1111 11.1111 11.1111Z" fill="white"/>
<path d="M16.4444 14.6666H11.1111C10.6201 14.6666 10.2222 15.0646 10.2222 15.5555C10.2222 16.0464 10.6201 16.4444 11.1111 16.4444H16.4444C16.9353 16.4444 17.3333 16.0464 17.3333 15.5555C17.3333 15.0646 16.9353 14.6666 16.4444 14.6666Z" fill="white"/>
<path fill-rule="evenodd" clip-rule="evenodd" d="M6 3C4.34315 3 3 4.34315 3 6V18C3 19.6569 4.34315 21 6 21H18C19.6569 21 21 19.6569 21 18V6C21 4.34315 19.6569 3 18 3H6ZM5 6C5 5.44772 5.44772 5 6 5H18C18.5523 5 19 5.44772 19 6V18C19 18.5523 18.5523 19 18 19H6C5.44772 19 5 18.5523 5 18V6Z" fill="white"/>
</svg>
