<svg width="24" height="24" viewBox="0 0 24 24" fill="none" xmlns="http://www.w3.org/2000/svg">
<path d="M8.23969 10.2395C7.83118 9.83102 7.83118 9.16869 8.23969 8.76018L11.293 5.70695C11.6835 5.31643 12.3167 5.31643 12.7072 5.70696L15.7604 8.76018C16.1689 9.16869 16.1689 9.831 15.7603 10.2395C15.3439 10.656 14.6658 10.6467 14.2609 10.2188L12.0001 7.82985L9.73911 10.2189C9.33425 10.6467 8.65617 10.656 8.23969 10.2395Z" fill="#008AD2"/>
<path d="M15.7603 13.7602C16.1688 14.1687 16.1688 14.831 15.7603 15.2395L12.707 18.2927C12.3165 18.6833 11.6833 18.6833 11.2928 18.2927L8.23966 15.2395C7.83116 14.831 7.83116 14.1687 8.23967 13.7602C8.65616 13.3437 9.33425 13.353 9.73911 13.7809L11.9999 16.1698L14.2609 13.7808C14.6658 13.353 15.3438 13.3437 15.7603 13.7602Z" fill="#008AD2"/>
</svg>
