<svg width="24" height="24" viewBox="0 0 24 24" fill="none" xmlns="http://www.w3.org/2000/svg">
<path d="M6 8C6 4.7 8.7 2 12 2C12.6 2 13 2.4 13 3C13 3.6 12.6 4 12 4C9.8 4 8 5.8 8 8C8 10.2 9.8 12 12 12C14.2 12 16 10.2 16 8C16 6.9 15.5 5.8 14.7 5C14.3 4.6 14.3 3.99998 14.6 3.59998C15 3.19998 15.6 3.2 16 3.5C17.3 4.6 18 6.3 18 8C18 11.3 15.3 14 12 14C8.7 14 6 11.3 6 8ZM17 14.4C16.7 14.3 16.4 14.2 16 14.2C15.7 14.1 15.4 14.1 15 14C14.7 14 14.4 14.1 14.2 14.3L12 16.5L9.8 14.3C9.6 14.1 9.3 14 9 14C8.7 14 8.3 14.1 8 14.2C7.7 14.3 7.3 14.3 7 14.4C3.4 15.4 2 17.9 2 20C2 20.6 2.4 21 3 21C3.6 21 4 20.6 4 20C4 18.4 5.1 17.2 7 16.5V18H6C5.4 18 5 18.5 5 19V21.5C5 21.8 5.2 22 5.5 22H6.5C6.8 22 7 21.8 7 21.5C7 21.2 6.8 21 6.5 21H6V19.5C6 19.2 6.2 19 6.5 19H8.5C8.8 19 9 19.2 9 19.5V21H8.5C8.2 21 8 21.2 8 21.5C8 21.8 8.2 22 8.5 22H9.5C9.8 22 10 21.8 10 21.5V19C10 18.4 9.6 18 9 18H8V16.2C8.2 16.1 8.5 16.1 8.7 16L11.2 18.6C11.6 19 12.3 19 12.6 18.6L15.1 16C15.4 16 15.6 16.1 15.8 16.2V18.1C15.2 18.3 14.8 18.9 14.8 19.5C14.8 20.3 15.5 21 16.3 21C17.1 21 17.8 20.3 17.8 19.5C17.8 18.8 17.4 18.3 16.8 18.1V16.5C18.7 17.2 19.8 18.4 19.8 20C19.8 20.6 20.2 21 20.8 21C21.4 21 21.8 20.6 21.8 20C22 17.9 20.6 15.4 17 14.4Z" fill="white"/>
</svg>
