<svg width="24" height="24" viewBox="0 0 24 24" fill="none" xmlns="http://www.w3.org/2000/svg">
<path d="M11 4C11 3.44772 11.4477 3 12 3C12.5523 3 13 3.44772 13 4V8H17C17.5523 8 18 8.44771 18 9C18 9.55228 17.5523 10 17 10H13V14C13 14.5523 12.5523 15 12 15C11.4477 15 11 14.5523 11 14V10H7C6.44771 10 6 9.55228 6 9C6 8.44772 6.44772 8 7 8H11V4Z" fill="white"/>
<path d="M3 13C3.55228 13 4 13.4477 4 14V18H20V14C20 13.4477 20.4477 13 21 13C21.5523 13 22 13.4477 22 14V18C22 19.1046 21.1046 20 20 20H4C2.89543 20 2 19.1046 2 18V14C2 13.4477 2.44772 13 3 13Z" fill="white"/>
</svg>
