<svg width="24" height="24" viewBox="0 0 24 24" fill="none" xmlns="http://www.w3.org/2000/svg">
<path d="M17.3 22H6.7C5.2 22 4 20.7 4 19.1V4.89999C4 3.29999 5.2 2 6.7 2H11C11.6 2 12 2.4 12 3C12 3.6 11.6 4 11 4H6.7C6.3 4 6 4.39999 6 4.89999V19.1C6 19.6 6.3 20 6.7 20H17.3C17.7 20 18 19.6 18 19.1V11C18 10.4 18.4 10 19 10C19.6 10 20 10.4 20 11V19.1C20 20.7 18.8 22 17.3 22ZM13.5 2C13.2 2 13 2.2 13 2.5V7.10001C13 8.20001 13.9 9 14.9 9H19.5C19.6 9 19.7 8.89999 19.8 8.89999C20 8.69999 20 8.40001 19.8 8.20001L13.8 2.20001C13.7 2.10001 13.6 2 13.5 2ZM12 10C11.4 10 11 10.4 11 11V18C11 18.6 11.4 19 12 19C12.6 19 13 18.6 13 18V11C13 10.4 12.6 10 12 10ZM9 13C8.4 13 8 13.4 8 14V18C8 18.6 8.4 19 9 19C9.6 19 10 18.6 10 18V14C10 13.4 9.6 13 9 13ZM15 15C14.4 15 14 15.4 14 16V18C14 18.6 14.4 19 15 19C15.6 19 16 18.6 16 18V16C16 15.4 15.6 15 15 15Z" fill="white"/>
</svg>
