<svg width="24" height="24" viewBox="0 0 24 24" fill="none" xmlns="http://www.w3.org/2000/svg">
<path d="M9.60001 20C7.90001 20 7 18.4 7 17.3C7 16.5 7.4 15.7 7.8 15H5C3.3 15 2 13.7 2 12C2 11.9 2 11.9 2 11.8C2.2 10.9 3 6.3 3.8 5C4.6 3.7 6.49999 3 7.89999 3H12.9C14.7 3 15.9 4.2 15.9 5.9V12.5C15.9 14.7 11.7 19.2 11.6 19.2C11.2 19.7 10.4 20 9.60001 20ZM4 12.1C4 12.9 4.7 13 5 13H8C8.6 13 9.49999 13.3 9.89999 14C10.2 14.5 10.2 15 9.89999 15.5L9.8 15.6C9.2 16.4 9 17 9 17.3C9 17.4 9.20001 18 9.60001 18C9.80001 18 10.1 18 10.3 17.7C11.6 16.4 14 13.2 14 12.4V5.8C14 5.6 14 4.9 13 4.9H8C7.1 4.9 5.9 5.4 5.5 5.9C5.1 6.7 4.4 10 4 12.1ZM19.5 14C18.1 14 17 12.9 17 11.5V5.5C17 4.1 18.1 3 19.5 3C20.9 3 22 4.1 22 5.5V11.5C22 12.9 20.9 14 19.5 14ZM19.5 5C19.2 5 19 5.2 19 5.5V11.5C19 11.8 19.2 12 19.5 12C19.8 12 20 11.8 20 11.5V5.5C20 5.2 19.8 5 19.5 5Z" fill="white"/>
</svg>
