<svg width="24" height="24" viewBox="0 0 24 24" fill="none" xmlns="http://www.w3.org/2000/svg">
<path d="M9.79999 16.5C6.09999 16.5 3 13.5 3 9.70001C3 6.00001 5.99999 2.89999 9.79999 2.89999C13.5 2.89999 16.6 5.90001 16.6 9.70001C16.5 13.5 13.5 16.5 9.79999 16.5ZM9.79999 14.6C12.5 14.6 14.6 12.4 14.6 9.79999C14.6 7.09999 12.4 5 9.79999 5C7.09999 5 5 7.19999 5 9.79999C4.9 12.4 7.09999 14.6 9.79999 14.6ZM16.6 15.3L20.7 19.4C21.1 19.8 21.1 20.4 20.7 20.8C20.3 21.2 19.7 21.2 19.3 20.8L15.2 16.7C14.8 16.3 14.8 15.7 15.2 15.3C15.6 14.9 16.2 14.9 16.6 15.3Z" fill="white"/>
</svg>
