<svg width="24" height="24" viewBox="0 0 24 24" fill="none" xmlns="http://www.w3.org/2000/svg">
<path d="M13 6C13 3.8 14.8 2 17 2C17.6 2 18 2.4 18 3C18 3.6 17.6 4 17 4C15.9 4 15 4.9 15 6C15 7.1 15.9 8 17 8C18.1 8 19 7.1 19 6C19 5.4 19.4 5 20 5C20.6 5 21 5.4 21 6C21 8.2 19.2 10 17 10C14.8 10 13 8.2 13 6ZM7 9C8.7 9 10 7.7 10 6C10 4.3 8.7 3 7 3C6.4 3 6 3.4 6 4C6 4.6 6.4 5 7 5C7.6 5 8 5.4 8 6C8 6.6 7.6 7 7 7C6.4 7 6 6.6 6 6C6 5.4 5.6 5 5 5C4.4 5 4 5.4 4 6C4 7.7 5.3 9 7 9ZM21 17V14.7C21 12.6 19.2 11 17 11C14.8 11 13 12.7 13 14.7V17H3C2.4 17 2 17.4 2 18C2 18.6 2.4 19 3 19H13V21C13 21.6 13.4 22 14 22C14.6 22 15 21.6 15 21V14.7C15 13.7 15.9 13 17 13C18.1 13 19 13.8 19 14.7V21C19 21.6 19.4 22 20 22C20.6 22 21 21.6 21 21V19C21.6 19 22 18.6 22 18C22 17.4 21.6 17 21 17ZM3 15V13.7C3 11.6 4.8 10 7 10C9.2 10 11 11.7 11 13.7V15C11 15.6 10.6 16 10 16C9.4 16 9 15.6 9 15V13.7C9 12.7 8.1 12 7 12C5.9 12 5 12.8 5 13.7V15C5 15.6 4.6 16 4 16C3.4 16 3 15.6 3 15Z" fill="white"/>
</svg>
