<svg width="24" height="24" viewBox="0 0 24 24" fill="none" xmlns="http://www.w3.org/2000/svg">
<path d="M6 8C6 6.3 6.7 4.7 8 3.5C8.4 3.1 8.99999 3.19998 9.39999 3.59998C9.79999 3.99998 9.7 4.6 9.3 5C8.5 5.8 8 6.8 8 8C8 10.2 9.8 12 12 12C14.2 12 16 10.2 16 8C16 5.8 14.2 4 12 4C11.4 4 11 3.6 11 3C11 2.4 11.4 2 12 2C15.3 2 18 4.7 18 8C18 11.3 15.3 14 12 14C8.7 14 6 11.3 6 8ZM12 15C6.4 15 2 17.6 2 21C2 21.6 2.4 22 3 22C3.6 22 4 21.6 4 21C4 19.1 7.3 17 12 17C16.7 17 20 19.1 20 21C20 21.6 20.4 22 21 22C21.6 22 22 21.6 22 21C22 17.6 17.6 15 12 15ZM12 11C13.3 11 14.4 10.2 14.8 9H9.10001C9.60001 10.2 10.7 11 12 11Z" fill="white"/>
</svg>
