<svg width="24" height="24" viewBox="0 0 24 24" fill="none" xmlns="http://www.w3.org/2000/svg">
<path d="M15.6 5.19999C15.3 4.99999 15 4.99998 14.7 5.09998L4.89999 8.99998H3C2.4 8.99998 2 9.39998 2 9.99998V14C2 14.6 2.4 15 3 15H4.79999L5.60001 15.3C5.10001 16 4.90001 16.9 5.20001 17.8C5.60001 19.1 6.80001 20 8.10001 20C8.40001 20 8.59999 20 8.89999 19.9C10.1 19.6 10.9 18.6 11 17.5L14.6 19C14.7 19 14.8 19.1 15 19.1C15.2 19.1 15.4 19 15.6 18.9C15.9 18.7 16 18.4 16 18.1V6.09998C16 5.69998 15.8 5.39999 15.6 5.19999ZM9 16.7C9.2 17.2 8.79999 17.8 8.29999 17.9C7.79999 18.1 7.20001 17.7 7.10001 17.2C7.00001 16.7 7.20001 16.3 7.60001 16L9 16.7ZM14 16.5L5.39999 13C5.29999 13 5.2 12.9 5 12.9H4V10.9H5C5.1 10.9 5.29999 10.9 5.39999 10.8L14 7.29997V16.5ZM22 12.0001C22 12.6001 21.6 13 21 13H19C18.4 13 18 12.6 18 12C18 11.4 18.4 11.0001 19 11.0001H21C21.6 11.0001 22 11.5001 22 12.0001ZM18.3 8.59998C18.1 8.09998 18.2 7.59997 18.7 7.29997L20.5 6.19999C21 5.89999 21.6 6.09998 21.9 6.49998C21.9 6.49998 21.9 6.49998 21.9 6.59998L22 6.69999C22.2 7.19999 22.1 7.69998 21.6 7.99998L19.8 9.09999C19.3 9.39999 18.7 9.19997 18.4 8.79997C18.4 8.79997 18.4 8.79999 18.4 8.69999L18.3 8.59998ZM21.9 17.4L21.8 17.5C21.5 18 20.9 18.2 20.5 17.9C20.5 17.9 20.5 17.9 20.4 17.9L18.6 16.8C18.2 16.5 18 15.9 18.2 15.5L18.3 15.4C18.6 14.9 19.2 14.7 19.6 15C19.6 15 19.6 15 19.7 15L21.5 16.1C22 16.3 22.1 16.9 21.9 17.4Z" fill="white"/>
</svg>
