<svg width="24" height="24" viewBox="0 0 24 24" fill="none" xmlns="http://www.w3.org/2000/svg">
<path d="M18 11C18 10.4 18.4 10 19 10C19.6 10 20 10.4 20 11V19.1C20 20.7 18.8 22 17.3 22H6.70001C5.20001 22 4 20.7 4 19.1V4.90002C4 3.30002 5.20001 2.00003 6.70001 2.00003H11C11.6 2.00003 12 2.40003 12 3.00003C12 3.60003 11.6 4.00003 11 4.00003H6.70001C6.30001 4.00003 6 4.40002 6 4.90002V19.1C6 19.6 6.30001 20 6.70001 20H17.3C17.7 20 18 19.6 18 19.1V11ZM13.8 2.10004L19.8 8.10004C20 8.30004 20 8.60002 19.8 8.80002C19.7 8.90002 19.6 8.90002 19.5 8.90002H14.9C13.8 8.90002 13 8.00003 13 7.00003V2.40002C13 2.10002 13.2 1.90002 13.5 1.90002C13.6 2.00002 13.7 2.10004 13.8 2.10004ZM8 12H16C16.6 12 17 12.4 17 13C17 13.6 16.6 14 16 14H8C7.4 14 7 13.6 7 13C7 12.4 7.4 12 8 12ZM8 16H13C13.6 16 14 16.4 14 17C14 17.6 13.6 18 13 18H8C7.4 18 7 17.6 7 17C7 16.4 7.4 16 8 16Z" fill="white"/>
</svg>
