<svg width="24" height="24" viewBox="0 0 24 24" fill="none" xmlns="http://www.w3.org/2000/svg">
<path d="M20 15H18.8C18.4 13.8 17.3 13 16 13C14.7 13 13.6 13.8 13.2 15H4C3.5 15 3 15.4 3 16C3 16.6 3.4 17 4 17H13.2C13.6 18.2 14.7 19 16 19C17.3 19 18.4 18.2 18.8 17H20C20.6 17 21 16.6 21 16C21 15.4 20.6 15 20 15ZM16 17C15.4 17 15 16.6 15 16C15 15.4 15.4 15 16 15C16.6 15 17 15.4 17 16C17 16.6 16.6 17 16 17ZM4 9H5.2C5.6 10.2 6.7 11 8 11C9.3 11 10.4 10.2 10.8 9H20C20.5 9 21 8.6 21 8C21 7.4 20.6 7 20 7H10.8C10.4 5.8 9.3 5 8 5C6.7 5 5.6 5.8 5.2 7H4C3.4 7 3 7.4 3 8C3 8.6 3.4 9 4 9ZM8 7C8.6 7 9 7.4 9 8C9 8.6 8.6 9 8 9C7.4 9 7 8.6 7 8C7 7.4 7.4 7 8 7Z" fill="white"/>
</svg>
