<svg width="24" height="24" viewBox="0 0 24 24" fill="none" xmlns="http://www.w3.org/2000/svg">
<path fill-rule="evenodd" clip-rule="evenodd" d="M4 8C3.44772 8 3 7.55228 3 7C3 6.44772 3.44772 6 4 6H20C20.5523 6 21 6.44772 21 7C21 7.55228 20.5523 8 20 8H4ZM3 12C3 12.5523 3.44772 13 4 13H14C14.5523 13 15 12.5523 15 12C15 11.4477 14.5523 11 14 11H4C3.44772 11 3 11.4477 3 12ZM3 17C3 17.5523 3.44772 18 4 18H8C8.55228 18 9 17.5523 9 17C9 16.4477 8.55228 16 8 16H4C3.44772 16 3 16.4477 3 17Z" fill="white"/>
</svg>
