<svg width="24" height="24" viewBox="0 0 24 24" fill="none" xmlns="http://www.w3.org/2000/svg">
<path d="M22 7.5V21C22 21.6 21.6 22 21 22C20.4 22 20 21.6 20 21V7.60001H16.5C15.9 7.60001 15.5 7.20001 15.5 6.60001V4H8.5V6.60001C8.5 7.20001 8.1 7.60001 7.5 7.60001H4V21C4 21.6 3.6 22 3 22C2.4 22 2 21.6 2 21V7.5C2 6.5 2.9 5.60001 3.9 5.60001H6.5V3C6.5 2.4 6.9 2 7.5 2H16.5C17.1 2 17.5 2.4 17.5 3V5.60001H20.1C21.1 5.60001 22 6.5 22 7.5ZM11 6V8H9V10H11V12H13V10H15V8H13V6H11ZM10 21H14V17H10V21ZM5 19H9V17H5V19ZM15 19H19V17H15V19ZM15 16H19V14H15V16ZM10 16H14V14H10V16ZM5 16H9V14H5V16Z" fill="white"/>
</svg>
