<svg width="24" height="24" viewBox="0 0 24 24" fill="none" xmlns="http://www.w3.org/2000/svg">
<path d="M11.8 5C11.7 5 11.6 5 11.5 5C10.7 5 10 4.3 10 3.5C10 2.7 10.7 2 11.5 2C12.2 2 12.7 2.4 12.9 3H13C13.6 3 14 3.4 14 4V8C14 10.4 12.3 12.4 10 12.9V17C10 18.7 11.3 20 13 20C14.7 20 16 18.7 16 17V16.8C14.8 16.4 14 15.3 14 14C14 12.3 15.3 11 17 11C18.7 11 20 12.3 20 14C20 15.3 19.2 16.4 18 16.8V17C18 19.8 15.8 22 13 22C10.2 22 8 19.8 8 17V12.9C5.7 12.4 4 10.4 4 8V4C4 3.4 4.4 3 5 3H5.10001C5.30001 2.4 5.9 2 6.5 2C7.3 2 8 2.7 8 3.5C8 4.3 7.3 5 6.5 5C6.4 5 6.3 5 6.2 5C6.1 5 6.1 5 6 5V8C6 9.7 7.3 11 9 11C10.7 11 12 9.7 12 8V5C11.9 5 11.8 5 11.8 5ZM17 15C17.6 15 18 14.6 18 14C18 13.4 17.6 13 17 13C16.4 13 16 13.4 16 14C16 14.6 16.4 15 17 15Z" fill="white"/>
</svg>
