<svg width="24" height="24" viewBox="0 0 24 24" fill="none" xmlns="http://www.w3.org/2000/svg">
<path d="M15.4 9.6C15.6 10 15.6 10.5 15.6 11C15.6 11.8 15.4 12.5 15.1 13.1L16.5 14.6C16.6 14.4 16.7 14.2 16.9 14.1C17.8 13.6 18.5 12.9 19 12.2C18.3 11.1 17 10.1 15.4 9.6ZM8.39998 10.5C8.59998 11.2 9.09999 11.8 9.69999 12L12.4 15C12.2 15 12.1 15 11.9 15C9.89998 15 8.19999 13.2 8.19999 11C8.29999 10.8 8.29998 10.6 8.39998 10.5ZM9.79999 7.2C10.5 7.1 11.2 7 12 7C15.9 7 19.4 8.8 20.9 11.7C21.1 12 21.1 12.4 20.9 12.7C20.2 14 19.2 15.1 17.8 15.9L20.7 19.1C21 19.5 21 20.1 20.7 20.4C20.4 20.8 19.8 20.8 19.5 20.5C19.5 20.5 19.5 20.5 19.4 20.4L5.39998 4.8C5.09998 4.4 5.09998 3.8 5.39998 3.5C5.69998 3.1 6.3 3.1 6.6 3.4C6.6 3.4 6.59999 3.4 6.69999 3.5L9.79999 7.2ZM6.49999 8.3L7.89998 9.8C6.69998 10.4 5.59999 11.2 4.99999 12.1C5.49999 12.8 6.2 13.5 7.1 14C7.5 14.3 7.69999 14.9 7.49999 15.4C7.29999 15.9 6.69999 16.1 6.29999 15.8C4.89999 15 3.79999 13.9 3.19999 12.6C2.99999 12.3 2.99999 11.9 3.19999 11.6C3.79999 10.3 4.99999 9.2 6.49999 8.3Z" fill="white"/>
</svg>
