<svg width="24" height="24" viewBox="0 0 24 24" fill="none" xmlns="http://www.w3.org/2000/svg">
<path d="M6.9 20.9998H4.4C3.6 20.9998 3 20.3998 3 19.5998V17.0998C3 16.5998 3.2 16.0998 3.6 15.7998L14.1 5.29981L15.7 3.6998C16.4 2.9998 17.6 2.9998 18.4 3.6998L20.5 5.79981C20.9 6.19981 21.1 6.59981 21.1 7.09981C21.1 7.59981 20.9 8.0998 20.5 8.3998L18.9 9.99981L8.4 20.4998C7.9 20.7998 7.4 20.9998 6.9 20.9998ZM4.9 19.4998C4.9 19.5998 4.9 19.4998 4.9 19.4998V19.4998ZM4.9 18.9998H6.9L18.9 6.99981L16.9 4.99981L15.3 6.59981L4.9 17.0998V18.9998Z" fill="white"/>
</svg>
