<svg width="24" height="24" viewBox="0 0 24 24" fill="none" xmlns="http://www.w3.org/2000/svg">
<path d="M3.99999 12V9C3.99999 8.4 4.39999 8 4.99999 8C4.99999 4.7 8.09999 2 12 2C15.9 2 19 4.7 19 8C19.6 8 20 8.4 20 9V12C20 12.6 19.6 13 19 13C19 14.7 17.9 16 16.5 16H15C14.4 16 14 15.6 14 15C14 14.4 14.4 14 15 14H16.5C16.7 14 17 13.6 17 13V8C17 5.8 14.8 4 12 4C9.19999 4 6.99999 5.8 6.99999 8V11V12C6.99999 12.6 6.59999 13 5.99999 13H4.99999C4.39999 13 3.99999 12.6 3.99999 12ZM20.5 19.1C15.8 16.3 8.19999 16.3 3.49999 19.1C2.99999 19.4 2.9 20 3.2 20.5C3.5 21 4.1 21.1 4.6 20.8C8.7 18.3 15.4 18.3 19.6 20.8C19.8 20.9 19.9 20.9 20.1 20.9C20.4 20.9 20.8 20.7 21 20.4C21.1 20 21 19.4 20.5 19.1ZM12 6C9.19999 6 6.99999 8.2 6.99999 11C6.99999 13.8 9.19999 16 12 16C12.6 16 13 15.6 13 15C13 14.4 12.6 14 12 14C10.3 14 8.99999 12.7 8.99999 11C8.99999 9.3 10.3 8 12 8C13.7 8 15 9.3 15 11C15 11.6 15.4 12 16 12C16.6 12 17 11.6 17 11C17 8.2 14.8 6 12 6Z" fill="white"/>
</svg>
