<svg width="24" height="24" viewBox="0 0 24 24" fill="none" xmlns="http://www.w3.org/2000/svg">
<path d="M6 4C5.72386 4 5.5 4.22386 5.5 4.5V6.5C5.5 6.63261 5.55268 6.75979 5.64645 6.85355L10.5 11.7071V14.5C10.5 14.6326 10.5527 14.7598 10.6464 14.8536L12.6464 16.8536C12.8417 17.0488 13.1583 17.0488 13.3536 16.8536C13.5488 16.6583 13.5488 16.3417 13.3536 16.1464L11.5 14.2929V11.5C11.5 11.3674 11.4473 11.2402 11.3536 11.1464L6.5 6.29289V5H17.5V6.29289L12.6464 11.1464C12.4512 11.3417 12.4512 11.6583 12.6464 11.8536C12.8417 12.0488 13.1583 12.0488 13.3536 11.8536L18.3536 6.85355C18.4473 6.75979 18.5 6.63261 18.5 6.5V4.5C18.5 4.22386 18.2761 4 18 4H6Z" fill="white"/>
<path d="M4 15C4 14.4477 3.55228 14 3 14C2.44772 14 2 14.4477 2 15V19C2 20.1046 2.89543 21 4 21H20C21.1046 21 22 20.1046 22 19V15C22 14.4477 21.5523 14 21 14C20.4477 14 20 14.4477 20 15V19H4V15Z" fill="white"/>
</svg>
