<svg width="24" height="24" viewBox="0 0 24 24" fill="none" xmlns="http://www.w3.org/2000/svg">
<path d="M5 3C5 2.44772 4.55228 2 4 2C3.44772 2 3 2.44772 3 3V15C3 16.6569 4.34315 18 6 18H18.5859L16.7929 19.7929C16.4024 20.1834 16.4024 20.8166 16.7929 21.2071C17.1834 21.5976 17.8166 21.5976 18.2071 21.2071L21.7073 17.7071C21.8948 17.5196 22.0002 17.2652 22.0002 17C22.0002 16.7348 21.8948 16.4804 21.7073 16.2929L18.2071 12.793C17.8165 12.4025 17.1834 12.4025 16.7929 12.793C16.4024 13.1836 16.4024 13.8167 16.7929 14.2072L18.5858 16H6C5.44772 16 5 15.5523 5 15V3Z" fill="white"/>
</svg>
