<svg width="24" height="24" viewBox="0 0 24 24" fill="none" xmlns="http://www.w3.org/2000/svg">
<path d="M4 2C4 1.44772 4.44772 1 5 1C5.55228 1 6 1.44772 6 2V4H8C8.55228 4 9 4.44771 9 5C9 5.55228 8.55228 6 8 6H6V8C6 8.55228 5.55228 9 5 9C4.44772 9 4 8.55228 4 8V6H2C1.44772 6 1 5.55228 1 5C1 4.44772 1.44772 4 2 4H4V2Z" fill="white"/>
<path fill-rule="evenodd" clip-rule="evenodd" d="M15.1113 3C13.7116 3.00023 12.5118 3.90058 12.1119 5.20041C9.41187 6.00041 8.11214 8.0004 8.11214 11.0004V15.7004L7.31215 16.9004C6.71215 17.8004 7.01216 19.1004 7.91216 19.7004C8.21216 19.9004 8.61214 20.0004 9.01214 20.0004H13.0787C12.4969 20.0146 12.1113 20.4109 12.1113 21C12.1113 22.2 13.4113 23 15.1113 23C16.8113 23 18.1113 22.2 18.1113 21C18.1113 20.4109 17.7258 20.0146 17.1439 20.0004H21.2105C21.6105 20.0004 22.0105 19.9004 22.3105 19.7004C23.2105 19.1004 23.5105 17.8004 22.9105 16.9004L22.1105 15.7004V11.0004C22.1105 8.0004 20.8108 6.00041 18.1108 5.20041C17.7108 3.90058 16.5111 3.00023 15.1113 3ZM14.1113 20.8C14.0134 20.3105 13.628 20.0127 13.1427 20.0004H17.0841C16.5968 20.0146 16.2095 20.4073 16.1113 20.8C16.0113 20.9 15.6113 21 15.1113 21C14.6113 21 14.2113 20.9 14.1113 20.8ZM20.3108 16.6004L21.3108 18.0004L16.6419 18.0003C14.2573 18.0002 12.24 18.0001 8.91185 18.0004L9.91184 16.6004C10.0118 16.4004 10.1119 16.2004 10.1119 16.0004V11.0004C10.1119 8.7004 11.1119 7.5004 13.3119 7.0004C13.8119 6.9004 14.1119 6.5004 14.1119 6.0004C14.1119 5.40058 14.5116 5.00064 15.1113 5.0004C15.711 5.00064 16.1108 5.40058 16.1108 6.0004C16.1108 6.5004 16.4108 6.9004 16.9108 7.0004C19.1108 7.5004 20.1108 8.7004 20.1108 11.0004V16.0004C20.1108 16.2004 20.2108 16.4004 20.3108 16.6004Z" fill="white"/>
</svg>
