<svg width="24" height="24" viewBox="0 0 24 24" fill="none" xmlns="http://www.w3.org/2000/svg">
<path d="M11.3 21C11.3 21 11.2 21 11.1 21C10.8 20.9 10.6 20.7 10.6 20.4V20.2999C11.3 17.2999 11.7 13.9 11.7 10.6C11.7 10.3 12 9.99996 12.3 9.99996C12.7 9.99996 12.9 10.3 12.9 10.6C12.9 14.1 12.5 17.5 11.8 20.6C11.8 20.8 11.5 21 11.3 21ZM13.9 20.9H13.8C13.5 20.8 13.3 20.5999 13.3 20.2999V20.2C13.8 17.7 14.1 15.1 14.2 12.5C14.2 12.2 14.5 11.9 14.9 11.9C15.2 11.9 15.5 12.2 15.5 12.5C15.4 15.1 15.1 17.8 14.6 20.4C14.4 20.7 14.2 20.9 13.9 20.9ZM8.79999 20.4H8.70001C8.40001 20.3 8.20001 20.0999 8.20001 19.7999V19.7C8.40001 18.7 8.59999 17.7 8.79999 16.7C8.89999 16.4 9.19998 16.1 9.59998 16.2C9.89998 16.2 10.2 16.5 10.2 16.8V16.9C10.1 17.9 9.89998 18.9 9.59998 20C9.39998 20.2 9.09999 20.4 8.79999 20.4ZM16.3 20.2H16.2C15.8 20.1 15.6 19.8 15.7 19.5C16.2 16.6 16.5 13.6 16.5 10.6C16.5 8.29997 14.6 6.49996 12.3 6.49996C10.9 6.49996 9.50001 7.19996 8.70001 8.39996C8.50001 8.69996 8.09999 8.79997 7.79999 8.59997C7.59999 8.49997 7.5 8.29997 7.5 8.09997C7.5 7.99997 7.49998 7.89995 7.59998 7.79995C8.59998 6.19995 10.4 5.29995 12.3 5.29995C15.3 5.29995 17.8 7.69997 17.8 10.7C17.8 13.8 17.5 16.7999 17 19.7999C16.9 19.9 16.6 20.2 16.3 20.2ZM6.70001 19.2999H6.59998C6.29998 19.1999 6.09998 19 6.09998 18.7V18.6C6.59998 16 6.90002 13.2 6.90002 10.6C6.90002 10.2 7.2 9.99996 7.5 9.99996C7.9 9.99996 8.09998 10.3 8.09998 10.6C8.09998 13.4 7.79999 16.2 7.29999 18.9C7.29999 19.1 7.00001 19.2999 6.70001 19.2999ZM18.9 18.4C18.8 18.4 18.8 18.4 18.9 18.4C18.5 18.3 18.2 18 18.3 17.7C18.6 15.3 18.8 12.9 18.8 10.5C18.8 10.2 19.1 9.89996 19.4 9.89996C19.7 9.89996 20 10.2 20 10.5C20 13 19.8 15.5 19.5 17.9C19.5 18.2 19.2 18.4 18.9 18.4ZM4.70001 17.4H4.59998C4.29998 17.4 4 17.1 4 16.8V16.7C4.3 14.7 4.5 12.7 4.5 10.7C4.5 6.89997 7.20002 3.69997 10.9 3.09997C14.9 2.39997 18.7 4.69996 19.8 8.49996C19.8 8.59996 19.8 8.59997 19.8 8.69997C19.8 8.99997 19.6 9.19995 19.3 9.29995C19 9.39995 18.6 9.19996 18.5 8.89996C17.6 5.79996 14.4 3.89996 11.1 4.39996C7.99998 4.89996 5.79999 7.59995 5.79999 10.8C5.79999 12.9 5.59999 14.9 5.29999 17C5.19999 17.2 5.00001 17.4 4.70001 17.4ZM9.5 15.7C9.1 15.7 8.79999 15.4 8.79999 15.1C8.79999 15.1 8.79999 15.1 8.79999 15C8.99999 13.5 9 12 9 10.5C9 8.79996 10.5 7.39996 12.3 7.39996C14.1 7.39996 15.6 8.79996 15.6 10.5C15.6 10.8 15.3 11.1 14.9 11.1C14.5 11.1 14.2 10.8 14.2 10.5C14.2 9.49996 13.3 8.59997 12.2 8.59997C11.1 8.59997 10.2 9.39996 10.2 10.5C10.2 12 10.1 13.6 10 15.1C10.1 15.5 9.8 15.7 9.5 15.7Z" fill="white"/>
</svg>
