<svg width="24" height="24" viewBox="0 0 24 24" fill="none" xmlns="http://www.w3.org/2000/svg">
<path d="M19 11C19 10.4 19.4 10 20 10C20.6 10 21 10.4 21 11V16.1C21 17.7 19.8 19 18.3 19H10.7C9.20001 19 8 17.7 8 16.1V4.90002C8 3.30002 9.20001 2.00003 10.7 2.00003H12C12.6 2.00003 13 2.40003 13 3.00003C13 3.60003 12.6 4.00003 12 4.00003H10.7C10.3 4.00003 10 4.40002 10 4.90002V16.1C10 16.6 10.3 17 10.7 17H18.3C18.7 17 19 16.6 19 16.1V11ZM13.3 20C13.9 20 14.3 20.4 14.3 21C14.3 21.6 13.9 22 13.3 22H5.70001C4.20001 22 3 20.7 3 19.1V7.90002C3 6.30002 4.20001 5.00003 5.70001 5.00003H6C6.6 5.00003 7 5.40003 7 6.00003C7 6.60003 6.6 7.00003 6 7.00003H5.70001C5.30001 7.00003 5 7.40002 5 7.90002V19.1C5 19.6 5.30001 20 5.70001 20H13.3ZM14.8 2.10004L20.8 8.10004C21 8.30004 21 8.60002 20.8 8.80002C20.7 8.90002 20.6 8.90002 20.5 8.90002H15.9C14.8 8.90002 14 8.00003 14 7.00003V2.40002C14 2.10002 14.2 1.90002 14.5 1.90002C14.6 2.00002 14.7 2.10004 14.8 2.10004Z" fill="white"/>
</svg>
