<svg width="24" height="24" viewBox="0 0 24 24" fill="none" xmlns="http://www.w3.org/2000/svg">
<path fill-rule="evenodd" clip-rule="evenodd" d="M5 7C4.44772 7 4 7.44772 4 8C4 8.55228 4.44772 9 5 9V19C5 20.6569 6.34315 22 8 22H16C17.6569 22 19 20.6569 19 19V9C19.5523 9 20 8.55228 20 8C20 7.44772 19.5523 7 19 7H5ZM13 9H11V16C11 16.5523 10.5523 17 10 17C9.44772 17 9 16.5523 9 16V9H7V19C7 19.5523 7.44772 20 8 20H16C16.5523 20 17 19.5523 17 19V9H15V16C15 16.5523 14.5523 17 14 17C13.4477 17 13 16.5523 13 16V9Z" fill="white"/>
<path d="M11 3C10.4477 3 10 3.44772 10 4H5C4.44772 4 4 4.44772 4 5C4 5.55228 4.44772 6 5 6H19C19.5523 6 20 5.55228 20 5C20 4.44772 19.5523 4 19 4H14C14 3.44772 13.5523 3 13 3H11Z" fill="white"/>
</svg>
