<svg width="24" height="24" viewBox="0 0 24 24" fill="none" xmlns="http://www.w3.org/2000/svg">
<path d="M16 21H11C9.2 21 8 19.8 8 18.1V11.5C8 9.30002 12.2 4.80002 12.3 4.80002C12.9 4.20002 13.6 3.90002 14.4 3.90002C16.1 3.90002 17 5.50003 17 6.60003C17 7.40003 16.6 8.20002 16.2 8.90002H19C20.7 8.90002 22 10.2 22 11.9C22 12 22 12 22 12.1C21.8 13 21 17.6 20.2 18.9C19.3 20.3 17.4 21 16 21ZM14.4 6.00002C14.2 6.00002 13.9 6.00002 13.7 6.30002C12.4 7.60002 10 10.8 10 11.6V18.2C10 18.4 10 19.1 11 19.1H16C16.9 19.1 18.1 18.6 18.5 18.1C18.9 17.4 19.7 14.2 20 12.1C20 11.3 19.3 11.2 19 11.2H16C15.4 11.2 14.5 10.9 14.1 10.2C13.8 9.70003 13.8 9.20003 14.1 8.70003L14.2 8.60003C14.8 7.80003 15 7.20002 15 6.90002C15 6.60002 14.8 6.00002 14.4 6.00002ZM4.5 21C3.1 21 2 19.9 2 18.5V12.5C2 11.1 3.1 10 4.5 10C5.9 10 7 11.1 7 12.5V18.5C7 19.9 5.9 21 4.5 21ZM4.5 12C4.2 12 4 12.2 4 12.5V18.5C4 18.8 4.2 19 4.5 19C4.8 19 5 18.8 5 18.5V12.5C5 12.2 4.8 12 4.5 12Z" fill="white"/>
</svg>
