<svg width="24" height="24" viewBox="0 0 24 24" fill="none" xmlns="http://www.w3.org/2000/svg">
<path d="M11.9995 3C12.3802 3 12.7278 3.2161 12.8963 3.55743L15.3086 8.44542L20.7028 9.22924C21.0795 9.28398 21.3925 9.54782 21.5101 9.90983C21.6277 10.2718 21.5296 10.6692 21.2571 10.9349L17.3538 14.7397L18.2752 20.1121C18.3396 20.4873 18.1853 20.8664 17.8774 21.0902C17.5694 21.3139 17.1612 21.3434 16.8243 21.1663L11.9995 18.6298L7.17481 21.1663C6.8379 21.3434 6.42963 21.3139 6.12169 21.0902C5.81374 20.8664 5.65952 20.4873 5.72386 20.1121L6.64531 14.7397L2.74202 10.9349C2.46945 10.6692 2.37135 10.2718 2.48898 9.90983C2.6066 9.54782 2.91955 9.28398 3.29623 9.22924L8.69044 8.44542L11.1028 3.55743C11.2713 3.2161 11.6189 3 11.9995 3Z" fill="white"/>
</svg>
