<svg width="24" height="24" viewBox="0 0 24 24" fill="none" xmlns="http://www.w3.org/2000/svg">
<path d="M11 10C11 9.44772 11.4477 9 12 9C12.5523 9 13 9.44772 13 10V13C13 13.5523 12.5523 14 12 14C11.4477 14 11 13.5523 11 13V10Z" fill="white"/>
<path d="M12 6C11.4477 6 11 6.44772 11 7C11 7.55228 11.4477 8 12 8C12.5523 8 13 7.55228 13 7C13 6.44772 12.5523 6 12 6Z" fill="white"/>
<path fill-rule="evenodd" clip-rule="evenodd" d="M6 5C6 4.44772 6.44772 4 7 4H17C17.5523 4 18 4.44772 18 5V15C18 15.5523 17.5523 16 17 16H7C6.44771 16 6 15.5523 6 15V5ZM7 5H17V15H7V5Z" fill="white"/>
<path d="M4 15C4 14.4477 3.55228 14 3 14C2.44772 14 2 14.4477 2 15V19C2 20.1046 2.89543 21 4 21H20C21.1046 21 22 20.1046 22 19V15C22 14.4477 21.5523 14 21 14C20.4477 14 20 14.4477 20 15V19H4V15Z" fill="white"/>
</svg>
