<svg width="24" height="24" viewBox="0 0 24 24" fill="none" xmlns="http://www.w3.org/2000/svg">
<path d="M3 1C3 0.447715 3.44772 0 4 0C4.55228 0 5 0.447715 5 1V3H7C7.55228 3 8 3.44771 8 4C8 4.55228 7.55228 5 7 5H5V7C5 7.55228 4.55228 8 4 8C3.44772 8 3 7.55228 3 7V5H1C0.447715 5 0 4.55228 0 4C0 3.44772 0.447715 3 1 3H3V1Z" fill="white"/>
<path d="M10 4C10 3.44772 10.4477 3 11 3H19C20.1046 3 21 3.89543 21 5V19C21 20.1046 20.1046 21 19 21H5C3.89543 21 3 20.1046 3 19V11C3 10.4477 3.44772 10 4 10C4.55228 10 5 10.4477 5 11V19H19V5H11C10.4477 5 10 4.55228 10 4Z" fill="white"/>
<path d="M11 11C11 10.4477 11.4477 10 12 10C12.5523 10 13 10.4477 13 11V16C13 16.5523 12.5523 17 12 17C11.4477 17 11 16.5523 11 16V11Z" fill="white"/>
<path d="M12 7C11.4477 7 11 7.44772 11 8C11 8.55229 11.4477 9 12 9C12.5523 9 13 8.55229 13 8C13 7.44772 12.5523 7 12 7Z" fill="white"/>
</svg>
