<svg width="24" height="24" viewBox="0 0 24 24" fill="none" xmlns="http://www.w3.org/2000/svg">
<path d="M18 7.29999L20 8.70001C19.8 10.1 19.3 10.9 18.9 11.6C18.6 12.1 18.3 12.6 18.2 13.2C18.1 13.6 18 14.1 17.9 14.6C17.2 17.9 16.5 21 14.8 21C14 21 13.8 19.8 13.6 18C13.4 16.3 13.1 14 12.1 14C11.1 14 10.8 16.3 10.6 18C10.4 19.8 10.2 21 9.40002 21C7.70002 21 7.00002 17.9 6.30002 14.6C6.20002 14.1 6.10002 13.7 6.00002 13.2C5.90002 12.6 5.60002 12.1 5.30002 11.6C4.80002 10.7 4.20001 9.70001 4.20001 7.60001C4.20001 5.00001 6.40001 2.89999 9.10001 2.89999C10.2 2.89999 11.3 3.29999 12.2 3.89999C12.9 3.39999 13.7 2.99999 14.5 2.89999L16 4.79999V4.89999C15.8 4.89999 15.6 4.79999 15.4 4.79999C14.7 4.79999 14.1 4.99999 13.5 5.39999L12.3 6.29999L11.1 5.39999C10.6 4.99999 9.90001 4.79999 9.20001 4.79999C7.60001 4.79999 6.30002 6 6.30002 7.5C6.30002 8.8 6.50001 9.29999 7.20001 10.4C7.30001 10.5 7.30002 10.6 7.30002 10.6C7.70002 11.3 8.00001 11.9 8.10001 12.6C8.20001 13 8.30002 13.3 8.40002 14C8.60002 15 8.80002 15.8 8.90002 16.4C9.00002 15.4 9.20002 14.7 9.50002 14C10 12.7 10.8 11.8 12.2 11.8C13.6 11.8 14.5 12.7 14.9 14C15.1 14.6 15.3 15.4 15.5 16.4C15.7 15.8 15.8 15.1 16 14C16.1 13.3 16.2 13 16.3 12.6C16.5 11.9 16.7 11.3 17.1 10.6C17.1 10.5 17.2 10.5 17.2 10.4C17.9 9.29999 18.1 8.8 18.1 7.5C18 7.5 18 7.39999 18 7.29999ZM14 1L18 4L22 1L19 5L22 9L18 6L14 9L17 5L14 1Z" fill="white"/>
</svg>
