<svg width="24" height="24" viewBox="0 0 24 24" fill="none" xmlns="http://www.w3.org/2000/svg">
<path d="M16.4 6.70001L12.1 11.3C11.7 11.7 11.7 12.3 12.1 12.7L16.4 17.3C16.7 17.7 17.3 17.7 17.7 17.4C17.7 17.4 17.7 17.4 17.8 17.3C18.2 16.9 18.2 16.3 17.8 15.9L14.2 12L17.8 8.10002C18.2 7.70002 18.2 7.10001 17.8 6.70001C17.4 6.30001 16.8 6.30001 16.4 6.70001C16.4 6.70001 16.5 6.70001 16.4 6.70001ZM12.2 6.70001C11.8 6.30001 11.3 6.30002 10.9 6.60002C10.9 6.60002 10.9 6.60001 10.8 6.70001L6.50001 11.3C6.10001 11.7 6.10001 12.3 6.50001 12.7L10.8 17.3C11.1 17.7 11.7 17.7 12.1 17.4C12.1 17.4 12.1 17.4 12.2 17.3C12.6 16.9 12.6 16.3 12.2 15.9L8.60002 12L12.2 8.10002C12.6 7.70002 12.6 7.10001 12.2 6.70001Z" fill="white"/>
</svg>
