<svg width="24" height="24" viewBox="0 0 24 24" fill="none" xmlns="http://www.w3.org/2000/svg">
<path d="M4 8H2.50382C2.32065 8 2.229 8 2.1374 7.89332C1.9542 7.67995 1.9542 7.3599 2.1374 7.14653L4.70229 4.15932C4.78778 4.05975 4.89323 4.00664 5 4C5.10677 4.00664 5.21222 4.05975 5.29771 4.15932L7.8626 7.14653C8.0458 7.3599 8.0458 7.67995 7.8626 7.89332C7.771 8 7.67935 8 7.49618 8L6 8V10C6 10.5523 5.55228 11 5 11C4.44772 11 4 10.5523 4 10V8Z" fill="white"/>
<path d="M14 17C14 17.5523 13.5523 18 13 18C12.4477 18 12 17.5523 12 17C12 16.4477 12.4477 16 13 16C13.5523 16 14 16.4477 14 17Z" fill="white"/>
<path d="M13 10C12.4477 10 12 10.4477 12 11V14C12 14.5523 12.4477 15 13 15C13.5523 15 14 14.5523 14 14V11C14 10.4477 13.5523 10 13 10Z" fill="white"/>
<path fill-rule="evenodd" clip-rule="evenodd" d="M10.4019 7.5C11.5566 5.5 14.4433 5.5 15.598 7.5L20.7942 16.5C21.9489 18.5 20.5055 21 18.1961 21H7.80379C5.4944 21 4.05101 18.5 5.20572 16.5L10.4019 7.5ZM13.866 8.5C13.4811 7.83333 12.5188 7.83333 12.1339 8.5L6.93777 17.5C6.55287 18.1667 7.03399 19 7.80379 19H18.1961C18.9659 19 19.447 18.1667 19.0621 17.5L13.866 8.5Z" fill="white"/>
</svg>
