<svg width="24" height="24" viewBox="0 0 24 24" fill="none" xmlns="http://www.w3.org/2000/svg">
<path d="M21 3H7C6.4 3 6 3.4 6 4V8H3C2.4 8 2 8.4 2 9V18.1C2 19.7 3.3 21 5 21H7H10H19C20.7 21 22 19.7 22 18V4C22 3.4 21.6 3 21 3ZM6 18.1C6 18.6 5.6 19 5 19C4.4 19 4 18.6 4 18.1V10H6V18.1ZM20 18C20 18.5 19.6 19 19 19H8V5H20V18ZM15 10C15 9.4 15.4 9 15.9 9H17C17.5 9 17.9 9.4 17.9 10C17.9 10.6 17.5 11 17 11H15.9C15.4 11 15 10.6 15 10ZM10 13C10 12.4 10.4 12 10.9 12H17C17.5 12 17.9 12.4 17.9 13C17.9 13.6 17.5 14 17 14H10.9C10.4 14 10 13.6 10 13ZM10 16C10 15.4 10.4 15 10.9 15H17C17.5 15 17.9 15.4 17.9 16C17.9 16.6 17.5 17 17 17H10.9C10.4 17 10 16.6 10 16ZM10 9.89999V8C10 7.4 10.4 6.89999 11 6.89999H13C13.6 6.89999 14 7.4 14 8V9.89999C14 10.5 13.6 11 13 11H11C10.4 11 10 10.5 10 9.89999Z" fill="white"/>
</svg>
