<svg width="24" height="24" viewBox="0 0 24 24" fill="none" xmlns="http://www.w3.org/2000/svg">
<path fill-rule="evenodd" clip-rule="evenodd" d="M12 2C10.6002 2.00023 9.40049 2.90058 9.00054 4.20041C6.30054 5.00041 5.00081 7.0004 5.00081 10.0004V14.7004L4.20083 15.9004C3.60083 16.8004 3.90083 18.1004 4.80083 18.7004C5.10083 18.9004 5.50081 19.0004 5.90081 19.0004H18.0992C18.4992 19.0004 18.8992 18.9004 19.1992 18.7004C20.0992 18.1004 20.3992 16.8004 19.7992 15.9004L18.9992 14.7004V10.0004C18.9992 7.0004 17.6995 5.00041 14.9995 4.20041C14.5995 2.90058 13.3998 2.00023 12 2ZM17.1995 15.6004L18.1995 17.0004C16.3282 17.0004 14.8713 17.0003 13.5305 17.0003C11.146 17.0002 9.1287 17.0001 5.80052 17.0004L6.80051 15.6004C6.9005 15.4004 7.00052 15.2004 7.00052 15.0004V10.0004C7.00052 7.7004 8.00055 6.5004 10.2006 6.0004C10.7006 5.9004 11.0005 5.5004 11.0005 5.0004C11.0005 4.40058 11.4003 4.00064 12 4.0004C12.5997 4.00064 12.9995 4.40058 12.9995 5.0004C12.9995 5.5004 13.2994 5.9004 13.7994 6.0004C15.9994 6.5004 16.9995 7.7004 16.9995 10.0004V15.0004C16.9995 15.2004 17.0995 15.4004 17.1995 15.6004Z" fill="white"/>
<path d="M9 20C9 21.2 10.3 22 12 22C13.7 22 15 21.2 15 20C15 19.4 14.6 19 14 19C13.5 19 13.1 19.4 13 19.8C12.9 19.9 12.5 20 12 20C11.5 20 11.1 19.9 11 19.8C10.9 19.3 10.5 19 10 19C9.4 19 9 19.4 9 20Z" fill="white"/>
</svg>
