<svg width="24" height="24" viewBox="0 0 24 24" fill="none" xmlns="http://www.w3.org/2000/svg">
<path d="M13.8 12.3L18.2 16.7C18.6 17.1 18.6 17.7 18.2 18.1L18.1 18.2C17.7 18.6 17.1 18.6 16.7 18.2L12.3 13.8L7.90001 18.2C7.50001 18.6 6.90001 18.6 6.50001 18.2L6.40001 18.1C6.00001 17.7 6.00001 17.1 6.40001 16.7L10.8 12.3L6.40001 7.90001C6.00001 7.50001 6.00001 6.90001 6.40001 6.50001L6.50001 6.40001C6.90001 6.00001 7.50001 6.00001 7.90001 6.40001L12.3 10.8L16.7 6.40001C17.1 6.00001 17.7 6.00001 18.1 6.40001L18.2 6.50001C18.6 6.90001 18.6 7.50001 18.2 7.90001L13.8 12.3Z" fill="white"/>
</svg>
