<svg width="24" height="24" viewBox="0 0 24 24" fill="none" xmlns="http://www.w3.org/2000/svg">
<path fill-rule="evenodd" clip-rule="evenodd" d="M1.23373 3.58874C1.71973 2.60041 2.89196 2.31977 3.77138 2.67154L3.79391 2.68087L21.2939 10.1809C21.3119 10.1886 21.3297 10.1968 21.3472 10.2056C21.7407 10.4024 22.0977 10.7593 22.2944 11.1528C22.3068 11.1776 22.3182 11.2029 22.3285 11.2286C22.6948 12.1446 22.3752 13.3781 21.2845 13.8232L3.89947 21.2739C3.68529 21.411 3.47315 21.4558 3.36441 21.4739C3.20554 21.5004 3.05976 21.5001 3.00754 21.5C3.00475 21.5 3.00223 21.5 2.99999 21.5C2.47274 21.5 1.95566 21.3199 1.56789 20.9321C1.18011 20.5443 0.999993 20.0273 0.999993 19.5V14.9C0.999993 13.821 1.84459 13.0913 2.70388 12.9194C2.72472 12.9153 2.74568 12.9118 2.76674 12.9089L9.52681 12L2.76674 11.0911C2.74568 11.0883 2.72471 11.0848 2.70388 11.0806C1.84459 10.9087 0.999993 10.179 0.999993 9.10001V4.50001C0.999993 4.49776 0.999988 4.49524 0.999983 4.49245C0.999888 4.44023 0.999622 4.29447 1.0261 4.13561C1.04455 4.02488 1.09065 3.8069 1.23373 3.58874ZM2.99999 4.5359C3.00198 4.53179 3.00395 4.52766 3.00588 4.52352C3.01236 4.52392 3.0185 4.5251 3.02404 4.52686L20.4554 11.9974C20.4568 11.9985 20.4582 11.9996 20.4596 12.0008L3.00607 19.4809C3.00404 19.4817 3.00202 19.4826 2.99999 19.4835V14.9258C3.00647 14.9198 3.01655 14.9119 3.03084 14.9041C3.0443 14.8967 3.0599 14.8901 3.07712 14.8852L14.9332 13.2911C15.0425 13.2764 15.1486 13.2437 15.2472 13.1944C15.3943 13.1209 15.5752 13.0141 15.7321 12.8571C15.8911 12.6981 16.1 12.4088 16.1 12C16.1 11.6868 15.9733 11.3972 15.8059 11.1878C15.6254 10.9622 15.3148 10.7316 14.889 10.703L3.07712 9.11483C3.0599 9.10991 3.0443 9.10335 3.03084 9.09594C3.01655 9.08807 3.00647 9.08025 2.99999 9.07424V4.5359Z" fill="white"/>
</svg>
