<svg width="24" height="24" viewBox="0 0 24 24" fill="none" xmlns="http://www.w3.org/2000/svg">
<path d="M13.4 22H9.60001C9.00001 22 8.60001 21.6 8.60001 21V19.4C8.00001 19.1 7.40001 18.8 6.80001 18.3L5.60001 19.1C5.40001 19.2 5.10001 19.3 4.80001 19.2C4.50001 19.1 4.30001 19 4.20001 18.7L2.30001 15.2C2.00001 14.7 2.20001 14.1 2.70001 13.9L4.00001 13.1C3.90001 12.4 3.90001 11.6 4.00001 10.9L2.70001 10.1C2.20001 9.80001 2.10001 9.2 2.30001 8.8L4.20001 5.3C4.30001 5.1 4.60001 4.9 4.80001 4.8C5.10001 4.7 5.30001 4.79999 5.60001 4.89999L6.80001 5.7C7.30001 5.3 7.90001 4.90001 8.60001 4.60001V3C8.60001 2.4 9.00001 2 9.60001 2H13.4C14 2 14.4 2.4 14.4 3V4.60001C15 4.90001 15.6 5.2 16.2 5.7L17.4 4.89999C17.6 4.79999 17.9 4.7 18.2 4.8C18.5 4.9 18.7 5 18.8 5.3L20.7 8.8C21 9.3 20.8 9.90001 20.3 10.1L19 10.9C19.1 11.3 19.1 11.6 19.1 12C19.1 12.6 18.7 13 18.1 13C17.5 13 17.1 12.6 17.1 12C17.1 11.5 17 11.1 16.9 10.6C16.8 10.2 17 9.7 17.4 9.5L18.5 8.89999L17.6 7.2L16.6 7.8C16.2 8 15.7 8 15.4 7.7C14.8 7.1 14 6.6 13.1 6.3C12.7 6.2 12.4 5.8 12.4 5.3V4H10.6V5.3C10.6 5.7 10.3 6.1 9.90001 6.3C9.00001 6.6 8.30001 7 7.60001 7.7C7.30001 8 6.80001 8.1 6.40001 7.8L5.40001 7.2L4.50001 8.89999L5.60001 9.5C6.00001 9.7 6.20001 10.2 6.10001 10.6C5.90001 11.5 5.90001 12.5 6.10001 13.4C6.20001 13.8 6.00001 14.3 5.60001 14.5L4.50001 15.1L5.40001 16.8L6.40001 16.2C6.80001 16 7.30001 16 7.60001 16.3C8.20001 16.9 9.00001 17.4 9.90001 17.7C10.3 17.8 10.6 18.2 10.6 18.7V20H12.4V18.7C12.4 18.3 12.7 17.9 13.1 17.7C13.5 17.6 13.9 17.4 14.3 17.2C14.8 16.9 15.4 17.1 15.7 17.5C16 18 15.8 18.6 15.4 18.9C15.1 19.1 14.8 19.2 14.5 19.4V21C14.4 21.6 14 22 13.4 22ZM9.60001 8.5L12 10L12.3 12.5L10.1 13.5L7.70001 12C7.70001 13.4 8.40001 14.7 9.60001 15.5C10.8 16.2 12.3 16.2 13.4 15.5L17.9 18.2C18.8 18.7 19.9 18.5 20.5 17.6V17.5V17.4C21 16.5 20.7 15.3 19.8 14.7L15.2 11.9C15.2 10.5 14.5 9.19999 13.3 8.39999C12.1 7.59999 10.8 7.8 9.60001 8.5Z" fill="white"/>
</svg>
