<svg width="24" height="24" viewBox="0 0 24 24" fill="none" xmlns="http://www.w3.org/2000/svg">
<path d="M10.3 15.8L7.2 12.7C6.8 12.3 6.8 11.7 7.2 11.3C7.6 10.9 8.2 10.9 8.6 11.3L11 13.7L15.9 8.8C16.3 8.4 16.9 8.4 17.3 8.8C17.7 9.2 17.7 9.8 17.3 10.2L11.7 15.8C11.3 16.2 10.7 16.2 10.3 15.8ZM21 18V6C21 4.3 19.7 3 18 3H6C4.3 3 3 4.3 3 6V18C3 19.7 4.3 21 6 21H18C19.7 21 21 19.7 21 18ZM18 5C18.6 5 19 5.4 19 6V18C19 18.6 18.6 19 18 19H6C5.4 19 5 18.6 5 18V6C5 5.4 5.4 5 6 5H18Z" fill="white"/>
</svg>
