<svg width="24" height="24" viewBox="0 0 24 24" fill="none" xmlns="http://www.w3.org/2000/svg">
<path d="M6.84997 7.75002L11.45 12.05C11.85 12.45 12.45 12.45 12.85 12.05L17.45 7.75002C17.85 7.45002 17.85 6.85 17.55 6.45C17.55 6.45 17.55 6.45002 17.45 6.35002C17.05 5.95002 16.45 5.95002 16.05 6.35002L12.15 9.95L8.24998 6.35002C7.84998 5.95002 7.24997 5.95002 6.84997 6.35002C6.44997 6.75002 6.44997 7.35002 6.84997 7.75002C6.84997 7.75002 6.84997 7.65002 6.84997 7.75002ZM6.84997 11.95C6.44997 12.35 6.44998 12.85 6.74998 13.25C6.74998 13.25 6.74997 13.25 6.84997 13.35L11.45 17.65C11.85 18.05 12.45 18.05 12.85 17.65L17.45 13.35C17.85 13.05 17.85 12.45 17.55 12.05C17.55 12.05 17.55 12.05 17.45 11.95C17.05 11.55 16.45 11.55 16.05 11.95L12.15 15.55L8.24998 11.95C7.84998 11.55 7.24997 11.55 6.84997 11.95Z" fill="white"/>
</svg>
