<svg width="24" height="24" viewBox="0 0 24 24" fill="none" xmlns="http://www.w3.org/2000/svg">
<path d="M14 23H10C9.40001 23 9.00001 22.6 9.00001 22V15.5C9.00001 14.9 9.40001 14.5 10 14.5C10.6 14.5 11 14.9 11 15.5V21H13V15.5C13 15.1 13.2 14.8 13.5 14.6C13.8 14.4 14.2 14.4 14.5 14.6L19.3 17.4L20.3 15.7L15.5 12.9C15.2 12.7 15 12.4 15 12C15 11.6 15.2 11.3 15.5 11.1L20.3 8.29999L19.3 6.59998L17.9001 7.40002C17.4001 7.70002 16.8 7.5 16.5 7C16.2 6.5 16.4 5.89998 16.9 5.59998L19.1 4.29999C19.3 4.19999 19.6001 4.10001 19.9001 4.20001C20.2001 4.30001 20.4 4.40001 20.5 4.70001L22.5 8.20001C22.8 8.70001 22.6 9.29998 22.1 9.59998L18 12L22.2 14.4C22.7 14.7 22.8 15.3 22.6 15.8L20.6 19.3C20.5 19.5 20.2 19.7 20 19.8C19.7 19.9 19.5 19.8 19.2 19.7L15 17.3V22.1C15 22.6 14.6 23 14 23ZM4.89968 19.6L7.09969 18.3C7.59969 18 7.69968 17.4 7.49968 16.9C7.19968 16.4 6.59969 16.3 6.09969 16.5L4.69969 17.3L3.69969 15.6L8.49968 12.8C8.79968 12.6 8.99968 12.3 8.99968 11.9C8.99968 11.5 8.79968 11.2 8.49968 11L3.69969 8.20001L4.69969 6.5L9.49968 9.29999C9.79968 9.49999 10.1997 9.49999 10.4997 9.29999C10.7997 9.09999 10.9997 8.80002 10.9997 8.40002V3H12.9997V8.5C12.9997 9.1 13.3997 9.5 13.9997 9.5C14.5997 9.5 14.9997 9.1 14.9997 8.5V2C14.9997 1.4 14.5997 1 13.9997 1H9.99968C9.39968 1 8.99968 1.4 8.99968 2V6.79999L4.7997 4.40002C4.5997 4.30002 4.29968 4.19999 3.99968 4.29999C3.69968 4.39999 3.49968 4.49999 3.39968 4.79999L1.39968 8.29999C1.09968 8.79999 1.2997 9.40001 1.7997 9.70001L5.99968 12.1L1.7997 14.5C1.2997 14.8 1.19968 15.4 1.39968 15.9L3.39968 19.4C3.49968 19.6 3.79968 19.8 3.99968 19.9C4.09968 19.9 4.1997 19.9 4.2997 19.9C4.5997 19.7 4.79968 19.7 4.89968 19.6Z" fill="white"/>
</svg>
