<svg width="78" height="24" viewBox="0 0 78 24" fill="none" xmlns="http://www.w3.org/2000/svg">
<path d="M30.7021 22.7586C30.7021 23.0878 30.571 23.4036 30.3376 23.6364C30.1041 23.8692 29.7876 24 29.4574 24C29.1273 24 28.8107 23.8692 28.5773 23.6364C28.3439 23.4036 28.2128 23.0878 28.2128 22.7586V18.9828C28.747 20.3294 29.6013 21.5265 30.7021 22.471V22.7586ZM42.3191 3.72414C42.3191 3.96966 42.3921 4.20967 42.5289 4.41381C42.6657 4.61795 42.8601 4.77706 43.0875 4.87102C43.3149 4.96498 43.5652 4.98956 43.8067 4.94166C44.0481 4.89376 44.2699 4.77553 44.444 4.60192C44.618 4.42831 44.7366 4.20712 44.7846 3.96632C44.8326 3.72551 44.808 3.47591 44.7138 3.24908C44.6196 3.02225 44.46 2.82837 44.2553 2.69197C44.0507 2.55556 43.81 2.48276 43.5638 2.48276C43.2337 2.48276 42.9171 2.61354 42.6837 2.84635C42.4503 3.07915 42.3191 3.3949 42.3191 3.72414ZM44.8085 22.7586C44.8085 23.0878 44.6774 23.4036 44.444 23.6364C44.2105 23.8692 43.8939 24 43.5638 24C43.2337 24 42.9171 23.8692 42.6837 23.6364C42.4503 23.4036 42.3191 23.0878 42.3191 22.7586V21.6352C40.7696 23.1538 38.6831 24.0033 36.5106 24C34.3099 24 32.1993 23.1281 30.6432 21.576C29.087 20.024 28.2128 17.919 28.2128 15.7241C28.2128 14.1877 27.6008 12.7142 26.5115 11.6278C25.4222 10.5414 23.9448 9.93103 22.4043 9.93103C20.8637 9.93103 19.3863 10.5414 18.297 11.6278C17.2077 12.7142 16.5957 14.1877 16.5957 15.7241V22.7586C16.5957 23.0878 16.4646 23.4036 16.2312 23.6364C15.9978 23.8692 15.6812 24 15.3511 24C15.021 24 14.7044 23.8692 14.4709 23.6364C14.2375 23.4036 14.1064 23.0878 14.1064 22.7586V15.7241C14.1064 14.1877 13.4944 12.7142 12.4051 11.6278C11.3158 10.5414 9.83839 9.93103 8.29787 9.93103C6.75736 9.93103 5.27994 10.5414 4.19063 11.6278C3.10133 12.7142 2.48936 14.1877 2.48936 15.7241V22.7586C2.48936 23.0878 2.35823 23.4036 2.1248 23.6364C1.89138 23.8692 1.57479 24 1.24468 24C0.914571 24 0.597981 23.8692 0.364558 23.6364C0.131135 23.4036 0 23.0878 0 22.7586V8.68965C0 8.36042 0.131135 8.04467 0.364558 7.81186C0.597981 7.57906 0.914571 7.44827 1.24468 7.44827C1.57479 7.44827 1.89138 7.57906 2.1248 7.81186C2.35823 8.04467 2.48936 8.36042 2.48936 8.68965V9.81724C4.03782 8.29647 6.12468 7.44536 8.29787 7.44827C9.71078 7.44852 11.1002 7.80858 12.3345 8.49435C13.5689 9.18011 14.6072 10.1689 15.3511 11.3669C16.095 10.1689 17.1333 9.18011 18.3676 8.49435C19.6019 7.80858 20.9913 7.44852 22.4043 7.44827C24.605 7.44827 26.7156 8.32019 28.2717 9.87222C29.8279 11.4242 30.7021 13.5292 30.7021 15.7241C30.7021 17.2606 31.3141 18.7341 32.4034 19.8205C33.4927 20.9069 34.9701 21.5172 36.5106 21.5172C37.6876 21.5183 38.8372 21.1628 39.807 20.4978C40.7769 19.8327 41.5212 18.8895 41.9416 17.7931C42.3804 19.613 43.3837 21.2485 44.8085 22.4669V22.7586ZM70.5319 15.7241C70.5319 14.1877 69.9199 12.7142 68.8306 11.6278C67.7413 10.5414 66.2639 9.93103 64.7234 9.93103C63.6479 9.93121 62.5936 10.2292 61.678 10.7917C60.7623 11.3543 60.0212 12.1594 59.5372 13.1172V9.26689C61.0068 8.08749 62.8371 7.44567 64.7234 7.44827C66.9241 7.44827 69.0347 8.32019 70.5909 9.87222C72.147 11.4242 73.0213 13.5292 73.0213 15.7241V22.7586C73.0213 23.0878 72.8901 23.4036 72.6567 23.6364C72.4233 23.8692 72.1067 24 71.7766 24C71.4465 24 71.1299 23.8692 70.8965 23.6364C70.663 23.4036 70.5319 23.0878 70.5319 22.7586V21.6352C68.9824 23.1538 66.8959 24.0033 64.7234 24C62.5227 24 60.4121 23.1281 58.8559 21.576C57.2998 20.024 56.4255 17.919 56.4255 15.7241C56.4255 14.1877 55.8136 12.7142 54.7243 11.6278C53.635 10.5414 52.1575 9.93103 50.617 9.93103C49.5416 9.93121 48.4873 10.2292 47.5716 10.7917C46.6559 11.3543 45.9148 12.1594 45.4309 13.1172V9.26689C46.9004 8.08749 48.7307 7.44567 50.617 7.44827C52.7902 7.44536 54.8771 8.29647 56.4255 9.81724V1.24138C56.4255 0.912145 56.5567 0.596394 56.7901 0.36359C57.0235 0.130787 57.3401 0 57.6702 0C58.0003 0 58.3169 0.130787 58.5503 0.36359C58.7838 0.596394 58.9149 0.912145 58.9149 1.24138V15.7241C58.9149 17.2606 59.5269 18.7341 60.6162 19.8205C61.7055 20.9069 63.1829 21.5172 64.7234 21.5172C66.2639 21.5172 67.7413 20.9069 68.8306 19.8205C69.9199 18.7341 70.5319 17.2606 70.5319 15.7241ZM57.2927 20.64C56.5212 21.682 55.5153 22.5289 54.3558 23.1125C53.1964 23.696 51.9158 24 50.617 24C48.4163 24 46.3057 23.1281 44.7495 21.576C43.1934 20.024 42.3191 17.919 42.3191 15.7241C42.3191 14.1877 41.7072 12.7142 40.6179 11.6278C39.5286 10.5414 38.0512 9.93103 36.5106 9.93103C35.3328 9.93113 34.1828 10.2884 33.2133 10.9553C32.2437 11.6223 31.5003 12.5675 31.0818 13.6655C30.8389 12.6481 30.4175 11.6814 29.8371 10.8103C30.6074 9.7675 31.6128 8.91987 32.772 8.33586C33.9312 7.75185 35.2119 7.44781 36.5106 7.44827C38.6837 7.44625 40.7702 8.29723 42.3191 9.81724V8.68965C42.3191 8.36042 42.4503 8.04467 42.6837 7.81186C42.9171 7.57906 43.2337 7.44827 43.5638 7.44827C43.8939 7.44827 44.2105 7.57906 44.444 7.81186C44.6774 8.04467 44.8085 8.36042 44.8085 8.68965V15.7241C44.8085 17.2606 45.4205 18.7341 46.5098 19.8205C47.5991 20.9069 49.0765 21.5172 50.617 21.5172C51.7936 21.5179 52.9427 21.1622 53.9122 20.4972C54.8816 19.8322 55.6257 18.8892 56.0459 17.7931C56.2902 18.8079 56.7123 19.7716 57.2927 20.64ZM75.5106 22.7586C75.5106 23.0041 75.5836 23.2441 75.7204 23.4483C75.8572 23.6524 76.0516 23.8115 76.279 23.9055C76.5064 23.9995 76.7567 24.024 76.9981 23.9761C77.2396 23.9282 77.4614 23.81 77.6354 23.6364C77.8095 23.4628 77.9281 23.2416 77.9761 23.0008C78.0241 22.76 77.9995 22.5104 77.9053 22.2836C77.8111 22.0567 77.6515 21.8628 77.4468 21.7264C77.2421 21.59 77.0015 21.5172 76.7553 21.5172C76.4252 21.5172 76.1086 21.648 75.8752 21.8808C75.6418 22.1136 75.5106 22.4294 75.5106 22.7586Z" fill="#0050E5"/>
</svg>
