<svg width="200" height="96" viewBox="0 0 200 96" fill="none" xmlns="http://www.w3.org/2000/svg">
<path d="M116.298 81.734C116.672 82.4312 116.855 83.2146 116.83 84.0053V88.2606C116.831 88.3425 116.815 88.4237 116.784 88.4996C116.753 88.5754 116.707 88.6443 116.649 88.7022C116.591 88.7601 116.522 88.806 116.447 88.837C116.371 88.868 116.289 88.8836 116.208 88.8829C116.123 88.8861 116.039 88.8716 115.96 88.8405C115.881 88.8094 115.81 88.7622 115.75 88.7021C115.692 88.6445 115.645 88.5757 115.614 88.4999C115.583 88.424 115.568 88.3426 115.569 88.2606V84.0053C115.591 83.4245 115.459 82.8481 115.186 82.335C114.937 81.9103 114.566 81.5696 114.122 81.3563C113.66 81.1442 113.158 81.0343 112.649 81.0343C112.14 81.0343 111.638 81.1442 111.176 81.3563C110.766 81.5451 110.414 81.8387 110.154 82.2074C109.903 82.5671 109.77 82.997 109.777 83.4361V88.2765C109.768 88.3958 109.727 88.5105 109.658 88.6078C109.588 88.7052 109.493 88.7815 109.383 88.8282C109.273 88.875 109.152 88.8905 109.034 88.8729C108.916 88.8553 108.805 88.8054 108.713 88.7287C108.654 88.6692 108.609 88.5985 108.578 88.5207C108.548 88.443 108.534 88.3599 108.537 88.2765V76.7393C108.543 76.6187 108.582 76.502 108.65 76.4024C108.719 76.3028 108.814 76.2243 108.924 76.1756C109.035 76.127 109.157 76.1101 109.276 76.127C109.396 76.1439 109.508 76.1939 109.601 76.2712C109.659 76.3342 109.704 76.408 109.733 76.4883C109.762 76.5686 109.775 76.6539 109.771 76.7393V81.1276C110.075 80.7917 110.435 80.5109 110.835 80.2978C111.43 79.9857 112.094 79.8266 112.766 79.835C113.488 79.8226 114.202 79.9869 114.846 80.3138C115.458 80.6353 115.963 81.129 116.298 81.734ZM132.495 81.9787C132.85 82.6829 133.032 83.4614 133.027 84.2499C133.032 84.3278 133.019 84.4058 132.991 84.4784C132.962 84.551 132.918 84.6165 132.862 84.6702C132.746 84.7756 132.593 84.831 132.436 84.8244H125.809C125.847 85.3005 125.987 85.7628 126.218 86.1808C126.494 86.6864 126.905 87.1061 127.404 87.3936C127.931 87.6964 128.531 87.8491 129.138 87.835C129.542 87.835 129.943 87.7666 130.325 87.6329C130.675 87.5181 131 87.3375 131.282 87.101C131.397 87.0041 131.541 86.9496 131.692 86.9468C131.833 86.9364 131.974 86.9801 132.085 87.0691C132.148 87.1215 132.2 87.1863 132.238 87.2594C132.275 87.3326 132.298 87.4126 132.303 87.4946C132.306 87.5704 132.291 87.6458 132.259 87.7144C132.226 87.7829 132.178 87.8426 132.117 87.8882C131.707 88.2194 131.243 88.4767 130.745 88.6489C130.104 88.8896 129.418 88.989 128.735 88.9403C128.052 88.8917 127.388 88.6961 126.787 88.367C126.117 87.9936 125.565 87.441 125.192 86.7712C124.795 86.05 124.596 85.2375 124.612 84.4148C124.589 83.5955 124.772 82.7835 125.144 82.0531C125.492 81.3932 126.014 80.8413 126.654 80.4574C127.327 80.0561 128.1 79.8515 128.883 79.8669C129.643 79.8475 130.394 80.0429 131.048 80.4308C131.665 80.8013 132.167 81.3376 132.495 81.9787ZM126.17 82.6382C125.995 82.9964 125.88 83.381 125.83 83.7765H131.819C131.783 83.3633 131.673 82.9598 131.495 82.585C131.275 82.1017 130.92 81.6918 130.473 81.4042C129.995 81.1092 129.44 80.9612 128.878 80.9787C128.301 80.9669 127.732 81.1201 127.239 81.4201C126.777 81.7193 126.407 82.141 126.17 82.6382ZM148.277 82.0744C148.683 82.7874 148.896 83.5942 148.894 84.4148V88.2606C148.896 88.3443 148.881 88.4276 148.85 88.5054C148.819 88.5832 148.772 88.6537 148.713 88.7127C148.588 88.8268 148.424 88.8879 148.255 88.8829C148.086 88.889 147.922 88.8278 147.798 88.7127C147.738 88.6543 147.69 88.5839 147.659 88.506C147.628 88.428 147.614 88.3444 147.617 88.2606V87.2553C147.281 87.7293 146.847 88.1263 146.346 88.4201C145.696 88.7827 144.962 88.9662 144.218 88.9521C143.424 88.9637 142.641 88.7557 141.958 88.351C141.291 87.9589 140.741 87.3973 140.362 86.7233C139.968 86.0127 139.768 85.2111 139.782 84.3989C139.768 83.5795 139.974 82.7713 140.378 82.0585C140.774 81.3856 141.341 80.8296 142.021 80.4467C142.733 80.0561 143.531 79.8513 144.343 79.8513C145.155 79.8513 145.953 80.0561 146.665 80.4467C147.335 80.8389 147.891 81.4001 148.277 82.0744ZM147.213 86.1595C147.499 85.6215 147.648 85.0215 147.648 84.4122C147.648 83.8029 147.499 83.2029 147.213 82.6648C146.935 82.1627 146.529 81.7426 146.037 81.4467C145.523 81.1503 144.94 80.9943 144.346 80.9943C143.752 80.9943 143.169 81.1503 142.654 81.4467C142.158 81.742 141.747 82.1619 141.463 82.6648C141.173 83.2017 141.022 83.8022 141.022 84.4122C141.022 85.0222 141.173 85.6226 141.463 86.1595C141.913 86.9226 142.644 87.4781 143.5 87.7061C144.356 87.934 145.268 87.816 146.037 87.3776C146.532 87.0848 146.938 86.664 147.213 86.1595ZM159.154 87.6382H158.745C158.595 87.6363 158.448 87.5943 158.32 87.5167C158.192 87.4391 158.087 87.3286 158.016 87.1968C157.811 86.8517 157.711 86.4542 157.729 86.0531V76.7233C157.734 76.6402 157.722 76.5568 157.693 76.4788C157.663 76.4009 157.618 76.33 157.559 76.2711C157.5 76.2122 157.429 76.1665 157.351 76.1372C157.273 76.1079 157.19 76.0955 157.106 76.101C157.023 76.0964 156.941 76.1093 156.863 76.139C156.785 76.1686 156.715 76.2143 156.656 76.273C156.597 76.3318 156.552 76.4022 156.522 76.4798C156.492 76.5574 156.479 76.6404 156.484 76.7233V86.0531C156.474 86.5591 156.572 87.0615 156.771 87.5265C156.943 87.9269 157.221 88.2727 157.575 88.5265C157.918 88.7646 158.327 88.8893 158.745 88.8829H158.958C159.149 88.8902 159.338 88.83 159.489 88.7127C159.557 88.6594 159.611 88.5904 159.646 88.5116C159.682 88.4328 159.697 88.3467 159.692 88.2606C159.7 88.0991 159.649 87.9403 159.548 87.8138C159.5 87.7564 159.44 87.7108 159.371 87.6803C159.303 87.6499 159.229 87.6355 159.154 87.6382ZM170.856 87.6382H170.415C170.179 87.6467 169.944 87.6036 169.726 87.5117C169.508 87.4198 169.313 87.2815 169.154 87.1063C168.817 86.7331 168.639 86.2422 168.66 85.7393V81.3723H170.511C170.662 81.3769 170.809 81.3215 170.92 81.218C170.973 81.168 171.015 81.1077 171.043 81.0409C171.071 80.9741 171.086 80.9023 171.085 80.8297C171.087 80.7554 171.073 80.6815 171.045 80.6128C171.017 80.5441 170.974 80.4821 170.92 80.4308C170.867 80.3775 170.803 80.3362 170.732 80.3096C170.661 80.283 170.586 80.2717 170.511 80.2765H168.66V77.7393C168.663 77.6545 168.649 77.5698 168.619 77.4906C168.588 77.4115 168.541 77.3396 168.481 77.2796C168.421 77.2195 168.349 77.1726 168.27 77.1419C168.191 77.1111 168.106 77.0972 168.021 77.101C167.938 77.0973 167.855 77.1116 167.778 77.1428C167.701 77.174 167.632 77.2214 167.575 77.2818C167.516 77.3423 167.47 77.4139 167.44 77.4926C167.41 77.5712 167.396 77.6551 167.399 77.7393V80.2765H166.335C166.261 80.2725 166.186 80.2841 166.117 80.3107C166.047 80.3373 165.984 80.3782 165.931 80.4308C165.877 80.4821 165.835 80.5441 165.806 80.6128C165.778 80.6815 165.764 80.7554 165.766 80.8297C165.766 80.9023 165.78 80.9741 165.808 81.0409C165.837 81.1077 165.878 81.168 165.931 81.218C166.04 81.3206 166.185 81.3761 166.335 81.3723H167.399V85.7393C167.39 86.3082 167.525 86.8701 167.793 87.3723C168.043 87.8319 168.41 88.2172 168.856 88.4893C169.324 88.7682 169.86 88.9101 170.404 88.8989H170.745C170.925 88.9038 171.101 88.8433 171.239 88.7287C171.302 88.6717 171.352 88.6017 171.385 88.5236C171.418 88.4456 171.434 88.3613 171.431 88.2765C171.437 88.1094 171.38 87.9461 171.271 87.8191C171.218 87.7573 171.152 87.7077 171.077 87.6737C171.003 87.6398 170.922 87.6222 170.84 87.6223L170.856 87.6382ZM186.702 81.734C186.365 81.1305 185.861 80.6373 185.25 80.3138C184.608 79.987 183.896 79.8226 183.176 79.835C182.503 79.8252 181.839 79.9844 181.245 80.2978C180.844 80.5096 180.484 80.7905 180.181 81.1276V76.7393C180.185 76.6534 180.172 76.5675 180.142 76.487C180.112 76.4065 180.065 76.333 180.005 76.2712C179.946 76.214 179.876 76.1695 179.799 76.1402C179.723 76.1109 179.641 76.0976 179.559 76.101C179.473 76.0937 179.387 76.1052 179.306 76.1347C179.225 76.1642 179.152 76.211 179.091 76.2718C179.03 76.3326 178.984 76.4059 178.954 76.4867C178.925 76.5674 178.913 76.6536 178.92 76.7393V88.2606C178.917 88.3435 178.931 88.4261 178.96 88.5037C178.989 88.5813 179.034 88.6523 179.09 88.7127C179.153 88.7705 179.227 88.8153 179.308 88.8445C179.388 88.8737 179.473 88.8868 179.559 88.8829C179.642 88.8875 179.724 88.8746 179.802 88.845C179.88 88.8153 179.95 88.7696 180.009 88.7109C180.068 88.6522 180.113 88.5817 180.143 88.5041C180.173 88.4265 180.186 88.3435 180.181 88.2606V83.4202C180.173 82.9816 180.303 82.5516 180.553 82.1914C180.816 81.8237 181.17 81.5304 181.58 81.3404C182.032 81.1269 182.527 81.0196 183.027 81.0265C183.545 81.0192 184.059 81.1321 184.527 81.3563C184.971 81.5688 185.342 81.9097 185.59 82.335C185.868 82.8467 186.002 83.4237 185.979 84.0053V88.2606C185.976 88.3427 185.991 88.4245 186.022 88.5006C186.053 88.5767 186.1 88.6453 186.16 88.7021C186.219 88.7625 186.29 88.8098 186.369 88.841C186.448 88.8721 186.532 88.8864 186.617 88.8829C186.699 88.8848 186.781 88.8697 186.857 88.8386C186.933 88.8075 187.001 88.761 187.059 88.7021C187.117 88.6445 187.163 88.5757 187.194 88.4999C187.225 88.424 187.241 88.3426 187.239 88.2606V84.0053C187.261 83.2144 187.076 82.4315 186.702 81.734Z" fill="#808080"/>
<path d="M78.7234 66.5106C78.7234 67.3571 78.3872 68.1688 77.7886 68.7674C77.1901 69.3659 76.3783 69.7021 75.5319 69.7021C74.6855 69.7021 73.8737 69.3659 73.2752 68.7674C72.6767 68.1688 72.3404 67.3571 72.3404 66.5106V56.8032C73.7103 60.2654 75.9007 63.3431 78.7234 65.7713V66.5106ZM108.511 17.5745C108.511 18.2057 108.698 18.8227 109.048 19.3476C109.399 19.8724 109.898 20.2815 110.481 20.523C111.064 20.7646 111.706 20.8278 112.325 20.7046C112.944 20.5815 113.513 20.2775 113.959 19.8312C114.405 19.3849 114.709 18.8162 114.832 18.1971C114.955 17.578 114.892 16.9363 114.651 16.3531C114.409 15.77 114 15.2715 113.475 14.9208C112.95 14.5702 112.333 14.383 111.702 14.383C110.856 14.383 110.044 14.7192 109.445 15.3177C108.847 15.9163 108.511 16.728 108.511 17.5745ZM114.894 66.5106C114.894 67.3571 114.557 68.1688 113.959 68.7674C113.36 69.3659 112.549 69.7021 111.702 69.7021C110.856 69.7021 110.044 69.3659 109.445 68.7674C108.847 68.1688 108.511 67.3571 108.511 66.5106V63.6223C104.538 67.5268 99.1875 69.7107 93.617 69.7021C87.9741 69.7021 82.5623 67.4605 78.5722 63.4704C74.5821 59.4802 72.3404 54.0684 72.3404 48.4255C72.3404 44.4755 70.7713 40.6872 67.9782 37.8942C65.1851 35.1011 61.3968 33.5319 57.4468 33.5319C53.4968 33.5319 49.7085 35.1011 46.9154 37.8942C44.1223 40.6872 42.5532 44.4755 42.5532 48.4255V66.5106C42.5532 67.3571 42.2169 68.1688 41.6184 68.7674C41.0199 69.3659 40.2081 69.7021 39.3617 69.7021C38.5153 69.7021 37.7035 69.3659 37.105 68.7674C36.5065 68.1688 36.1702 67.3571 36.1702 66.5106V48.4255C36.1702 44.4755 34.6011 40.6872 31.808 37.8942C29.0149 35.1011 25.2266 33.5319 21.2766 33.5319C17.3266 33.5319 13.5383 35.1011 10.7452 37.8942C7.95212 40.6872 6.38298 44.4755 6.38298 48.4255V66.5106C6.38298 67.3571 6.04674 68.1688 5.44822 68.7674C4.8497 69.3659 4.03792 69.7021 3.19149 69.7021C2.34505 69.7021 1.53328 69.3659 0.934763 68.7674C0.336243 68.1688 0 67.3571 0 66.5106V30.3404C0 29.494 0.336243 28.6822 0.934763 28.0837C1.53328 27.4852 2.34505 27.1489 3.19149 27.1489C4.03792 27.1489 4.8497 27.4852 5.44822 28.0837C6.04674 28.6822 6.38298 29.494 6.38298 30.3404V33.2394C10.3534 29.3296 15.7043 27.1415 21.2766 27.1489C24.8994 27.1496 28.4621 28.0753 31.627 29.8383C34.792 31.6014 37.4543 34.1434 39.3617 37.2234C41.2691 34.1434 43.9314 31.6014 47.0964 29.8383C50.2613 28.0753 53.824 27.1496 57.4468 27.1489C63.0897 27.1489 68.5015 29.3906 72.4916 33.3807C76.4818 37.3708 78.7234 42.7826 78.7234 48.4255C78.7234 52.3756 80.2926 56.1638 83.0856 58.9569C85.8787 61.75 89.667 63.3191 93.617 63.3191C96.6349 63.322 99.5824 62.408 102.069 60.6982C104.556 58.9884 106.465 56.5635 107.543 53.7447C108.668 58.4236 111.24 62.6284 114.894 65.7606V66.5106ZM180.851 48.4255C180.851 44.4755 179.282 40.6872 176.489 37.8942C173.696 35.1011 169.907 33.5319 165.957 33.5319C163.2 33.5324 160.497 34.2984 158.149 35.7447C155.801 37.191 153.9 39.2608 152.66 41.7234V31.8245C156.428 28.7923 161.121 27.1422 165.957 27.1489C171.6 27.1489 177.012 29.3906 181.002 33.3807C184.992 37.3708 187.234 42.7826 187.234 48.4255V66.5106C187.234 67.3571 186.898 68.1688 186.299 68.7674C185.701 69.3659 184.889 69.7021 184.043 69.7021C183.196 69.7021 182.384 69.3659 181.786 68.7674C181.187 68.1688 180.851 67.3571 180.851 66.5106V63.6223C176.878 67.5268 171.528 69.7107 165.957 69.7021C160.315 69.7021 154.903 67.4605 150.913 63.4704C146.922 59.4802 144.681 54.0684 144.681 48.4255C144.681 44.4755 143.112 40.6872 140.319 37.8942C137.526 35.1011 133.737 33.5319 129.787 33.5319C127.03 33.5324 124.326 34.2984 121.978 35.7447C119.631 37.191 117.73 39.2608 116.489 41.7234V31.8245C120.258 28.7923 124.951 27.1422 129.787 27.1489C135.36 27.1415 140.71 29.3296 144.681 33.2394V11.1915C144.681 10.3451 145.017 9.53328 145.616 8.93476C146.214 8.33624 147.026 8 147.872 8C148.719 8 149.531 8.33624 150.129 8.93476C150.728 9.53328 151.064 10.3451 151.064 11.1915V48.4255C151.064 52.3756 152.633 56.1638 155.426 58.9569C158.219 61.75 162.007 63.3191 165.957 63.3191C169.907 63.3191 173.696 61.75 176.489 58.9569C179.282 56.1638 180.851 52.3756 180.851 48.4255ZM146.904 61.0638C144.926 63.7428 142.347 65.92 139.374 67.4204C136.401 68.9207 133.117 69.7022 129.787 69.7021C124.144 69.7021 118.733 67.4605 114.742 63.4704C110.752 59.4802 108.511 54.0684 108.511 48.4255C108.511 44.4755 106.941 40.6872 104.148 37.8942C101.355 35.1011 97.5671 33.5319 93.617 33.5319C90.5969 33.5322 87.6483 34.4506 85.1622 36.1653C82.6761 37.88 80.77 40.31 79.6968 43.133C79.074 40.5172 77.9935 38.0321 76.5053 35.7926C78.4805 33.1115 81.0584 30.9323 84.0308 29.4309C87.0032 27.9294 90.2869 27.1477 93.617 27.1489C99.1889 27.1437 104.539 29.3315 108.511 33.2394V30.3404C108.511 29.494 108.847 28.6822 109.445 28.0837C110.044 27.4852 110.856 27.1489 111.702 27.1489C112.549 27.1489 113.36 27.4852 113.959 28.0837C114.557 28.6822 114.894 29.494 114.894 30.3404V48.4255C114.894 52.3756 116.463 56.1638 119.256 58.9569C122.049 61.75 125.837 63.3191 129.787 63.3191C132.804 63.3209 135.751 62.4064 138.236 60.6967C140.722 58.987 142.63 56.5627 143.707 53.7447C144.334 56.3536 145.416 58.8313 146.904 61.0638ZM193.617 66.5106C193.617 67.1419 193.804 67.7589 194.155 68.2837C194.506 68.8086 195.004 69.2176 195.587 69.4592C196.17 69.7007 196.812 69.7639 197.431 69.6408C198.05 69.5177 198.619 69.2137 199.065 68.7674C199.512 68.321 199.816 67.7523 199.939 67.1333C200.062 66.5142 199.999 65.8725 199.757 65.2893C199.516 64.7061 199.106 64.2077 198.582 63.857C198.057 63.5063 197.44 63.3191 196.809 63.3191C195.962 63.3191 195.15 63.6554 194.552 64.2539C193.953 64.8524 193.617 65.6642 193.617 66.5106Z" fill="#0055FF"/>
</svg>
