<svg width="64" height="96" viewBox="0 0 64 96" fill="none" xmlns="http://www.w3.org/2000/svg">
<path d="M31.8148 51.2217C31.4291 51.2217 31.1247 51.0826 30.9017 50.8044C30.6812 50.5235 30.571 50.1311 30.571 49.6271C30.571 49.1074 30.6655 48.6126 30.8544 48.1428C31.0433 47.6703 31.2913 47.3055 31.5983 47.0482C31.9053 46.7884 32.2425 46.6584 32.6098 46.6584C32.8643 46.6584 33.0834 46.7136 33.2671 46.8238C33.4534 46.934 33.5977 47.0942 33.7001 47.3042H33.7315L33.9559 46.7411H34.869L33.9323 51.143H33.031L33.0861 50.5721H33.0703C32.7187 51.0052 32.3002 51.2217 31.8148 51.2217ZM32.2792 50.265C32.4603 50.265 32.6348 50.177 32.8027 50.0012C32.9706 49.8253 33.1057 49.5878 33.2081 49.2885C33.3104 48.9867 33.3616 48.6454 33.3616 48.2648C33.3616 48.0785 33.3104 47.9249 33.2081 47.8042C33.1084 47.6808 32.9759 47.6191 32.8106 47.6191C32.6321 47.6191 32.4616 47.7136 32.2989 47.9026C32.1388 48.0916 32.0103 48.341 31.9132 48.6507C31.8187 48.9604 31.7715 49.2675 31.7715 49.572C31.7715 49.803 31.8148 49.9762 31.9014 50.0917C31.9906 50.2072 32.1165 50.265 32.2792 50.265Z" fill="#C52C26"/>
<path d="M35.7195 46.7411H36.9042L36.365 49.3122C36.323 49.4906 36.302 49.6468 36.302 49.7807C36.302 50.1035 36.4437 50.265 36.7271 50.265C36.9685 50.265 37.1875 50.1154 37.3843 49.8161C37.5811 49.5169 37.7359 49.0995 37.8488 48.5641L38.2345 46.7411H39.4192L38.4864 51.143H37.5811L37.6638 50.328H37.6402C37.2597 50.9238 36.794 51.2217 36.2429 51.2217C35.8808 51.2217 35.604 51.1141 35.4125 50.8989C35.2209 50.681 35.1252 50.3673 35.1252 49.9579C35.1252 49.7138 35.1566 49.4342 35.2196 49.1192L35.7195 46.7411Z" fill="#C52C26"/>
<path d="M40.8364 51.2217C40.4507 51.2217 40.1463 51.0813 39.9233 50.8004C39.7029 50.5196 39.5927 50.1259 39.5927 49.6193C39.5927 49.1048 39.6858 48.6139 39.8721 48.1467C40.061 47.6769 40.309 47.312 40.616 47.0522C40.923 46.7897 41.2615 46.6584 41.6315 46.6584C41.8466 46.6584 42.0316 46.707 42.1864 46.8041C42.3438 46.9012 42.4921 47.0679 42.6312 47.3042H42.6627L42.6705 47.1939C42.6863 46.9052 42.7191 46.6493 42.7689 46.4261L43.068 45.0166H44.2527L42.9539 51.143H42.0526L42.1077 50.5721H42.092C41.9057 50.8004 41.7102 50.9658 41.5055 51.0682C41.3035 51.1705 41.0804 51.2217 40.8364 51.2217ZM41.3323 50.265C41.5055 50.265 41.6734 50.1757 41.8361 49.9972C42.0014 49.8161 42.1339 49.576 42.2336 49.2767C42.3334 48.9775 42.3832 48.6559 42.3832 48.3121C42.3832 48.1021 42.3334 47.9341 42.2336 47.8081C42.1366 47.6821 42.0027 47.6191 41.8322 47.6191C41.6538 47.6191 41.4832 47.7136 41.3205 47.9026C41.1605 48.0916 41.0319 48.341 40.9348 48.6507C40.8403 48.9604 40.7931 49.2675 40.7931 49.572C40.7931 50.034 40.9729 50.265 41.3323 50.265Z" fill="#C52C26"/>
<path d="M46.4493 47.5128C46.2184 47.5128 46.0006 47.6178 45.7959 47.8278C45.5912 48.0378 45.4574 48.2937 45.3945 48.5956H45.5716C45.9783 48.5956 46.2945 48.5326 46.5201 48.4066C46.7484 48.278 46.8625 48.1047 46.8625 47.8869C46.8625 47.6375 46.7248 47.5128 46.4493 47.5128ZM45.8038 51.2217C45.2528 51.2217 44.8251 51.0734 44.5207 50.7768C44.2163 50.4802 44.0641 50.0615 44.0641 49.5208C44.0641 48.9775 44.1717 48.4827 44.3869 48.0365C44.6047 47.5876 44.8985 47.2464 45.2685 47.0128C45.6385 46.7766 46.057 46.6584 46.524 46.6584C46.9885 46.6584 47.3506 46.7661 47.6103 46.9813C47.8701 47.1939 48 47.4866 48 47.8593C48 48.3501 47.7809 48.7294 47.3427 48.9972C46.9045 49.2623 46.2787 49.3948 45.4653 49.3948H45.2646L45.2567 49.4775V49.5563C45.2567 49.7951 45.3236 49.9841 45.4574 50.1232C45.5939 50.2597 45.788 50.328 46.0399 50.328C46.2682 50.328 46.4755 50.303 46.6618 50.2532C46.8481 50.2033 47.0738 50.1154 47.3388 49.9894V50.8831C46.8875 51.1089 46.3758 51.2217 45.8038 51.2217Z" fill="#C52C26"/>
<path d="M19.0817 45.1369C19.5587 44.7342 20.4797 44.3321 21.7014 44.0084C22.9168 43.6863 24.4101 43.4469 26.0141 43.3579C29.2267 43.1796 32.8577 43.606 35.5851 45.1538L35.743 44.8755C32.9404 43.2849 29.2389 42.8585 25.9964 43.0384C24.3729 43.1285 22.8579 43.3709 21.6194 43.6991C20.3872 44.0256 19.4086 44.4421 18.8753 44.8923L19.0817 45.1369Z" fill="#005284"/>
<path d="M37.1956 44.6921C37.1956 44.603 37.2677 44.5308 37.3568 44.5308H37.8404C37.9295 44.5308 38.0016 44.603 38.0016 44.6921V45.0952H38.4047C38.4937 45.0952 38.5659 45.1674 38.5659 45.2565V45.7403C38.5659 45.8294 38.4937 45.9016 38.4047 45.9016H38.0016V46.3048C38.0016 46.3938 37.9295 46.466 37.8404 46.466H37.3568C37.2677 46.466 37.1956 46.3938 37.1956 46.3048V45.9016H36.7925C36.7035 45.9016 36.6313 45.8294 36.6313 45.7403V45.2565C36.6313 45.1674 36.7035 45.0952 36.7925 45.0952H37.1956V44.6921Z" fill="#005284"/>
<path d="M16 51.1428L17.228 45.3866H18.4284L17.2004 51.1428H16Z" fill="#005284"/>
<path fill-rule="evenodd" clip-rule="evenodd" d="M21.2665 46.6583C21.6496 46.6583 21.9513 46.8 22.1718 47.0835C22.3948 47.3644 22.5063 47.7581 22.5063 48.2647C22.5063 48.766 22.4158 49.249 22.2347 49.7136C22.0563 50.1756 21.811 50.5431 21.4987 50.816C21.1865 51.0864 20.8427 51.2216 20.4675 51.2216C20.2497 51.2216 20.0621 51.173 19.9047 51.0759C19.7473 50.9788 19.6016 50.8134 19.4678 50.5798H19.4363C19.4048 50.9972 19.3484 51.3843 19.2671 51.7413L18.9837 53.08H17.799L19.1451 46.741H20.0503L19.9834 47.4103H20.0188C20.3809 46.909 20.7968 46.6583 21.2665 46.6583ZM20.7903 47.619C20.6118 47.619 20.4387 47.7082 20.2707 47.8867C20.1054 48.0626 19.9716 48.2988 19.8693 48.5954C19.7696 48.8894 19.7197 49.2149 19.7197 49.5719C19.7197 49.7819 19.7682 49.9498 19.8653 50.0758C19.9624 50.2018 20.0962 50.2648 20.2668 50.2648C20.4426 50.2648 20.6105 50.1743 20.7706 49.9932C20.9306 49.812 21.0592 49.564 21.1563 49.249C21.256 48.9314 21.3059 48.6191 21.3059 48.3119C21.3059 47.85 21.134 47.619 20.7903 47.619Z" fill="#005284"/>
<path fill-rule="evenodd" clip-rule="evenodd" d="M23.3568 50.7767C23.6611 51.0733 24.0888 51.2216 24.6399 51.2216C25.2119 51.2216 25.7235 51.1087 26.1748 50.883V49.9892C25.9098 50.1152 25.6842 50.2031 25.4979 50.253C25.3116 50.3029 25.1043 50.3278 24.876 50.3278C24.6241 50.3278 24.4299 50.2596 24.2935 50.1231C24.1597 49.984 24.0928 49.795 24.0928 49.5561V49.4774L24.1006 49.3947H24.3014C25.1148 49.3947 25.7406 49.2621 26.1788 48.997C26.617 48.7293 26.8361 48.35 26.8361 47.8592C26.8361 47.4864 26.7062 47.1938 26.4464 46.9812C26.1866 46.7659 25.8245 46.6583 25.3601 46.6583C24.8931 46.6583 24.4745 46.7764 24.1046 47.0127C23.7346 47.2463 23.4407 47.5875 23.2229 48.0363C23.0078 48.4826 22.9002 48.9773 22.9002 49.5207C22.9002 50.0614 23.0524 50.4801 23.3568 50.7767ZM24.632 47.8277C24.8366 47.6177 25.0544 47.5127 25.2853 47.5127C25.5608 47.5127 25.6986 47.6374 25.6986 47.8867C25.6986 48.1046 25.5845 48.2778 25.3562 48.4064C25.1305 48.5324 24.8143 48.5954 24.4076 48.5954H24.2305C24.2935 48.2936 24.4273 48.0377 24.632 47.8277Z" fill="#005284"/>
<path d="M29.9811 49.69C29.9811 50.1835 29.8171 50.5627 29.4892 50.8279C29.1638 51.0903 28.7099 51.2216 28.1273 51.2216C27.8466 51.2216 27.6013 51.2019 27.3913 51.1625C27.184 51.1232 26.9899 51.0575 26.8088 50.9657V49.9892C27.2208 50.2255 27.6393 50.3436 28.0644 50.3436C28.2743 50.3436 28.4461 50.3016 28.58 50.2176C28.7138 50.131 28.7807 50.0142 28.7807 49.8672C28.7807 49.7543 28.7322 49.6532 28.6351 49.564C28.538 49.4748 28.3661 49.3619 28.1195 49.2254C27.802 49.0469 27.5803 48.8697 27.4543 48.6939C27.3284 48.5154 27.2654 48.3054 27.2654 48.0639C27.2654 47.6177 27.4097 47.2725 27.6983 47.0284C27.9896 46.7817 28.4042 46.6583 28.9421 46.6583C29.4695 46.6583 29.9457 46.783 30.3708 47.0323L29.9811 47.8788C29.6138 47.6584 29.2753 47.5481 28.9657 47.5481C28.8161 47.5481 28.6954 47.5822 28.6036 47.6505C28.5117 47.7161 28.4658 47.8054 28.4658 47.9182C28.4658 48.0206 28.5078 48.1111 28.5918 48.1899C28.6757 48.266 28.8332 48.3631 29.0641 48.4812C29.3868 48.6466 29.6203 48.8264 29.7647 49.0207C29.909 49.2149 29.9811 49.438 29.9811 49.69Z" fill="#005284"/>
</svg>
