<svg width="32" height="32" viewBox="0 0 32 32" fill="none" xmlns="http://www.w3.org/2000/svg">
<path d="M5.7014 12.0084C4.4797 12.3321 3.5587 12.7342 3.08173 13.1369L2.87531 12.8923C3.40864 12.4421 4.38723 12.0256 5.61943 11.6991C6.85793 11.3709 8.37289 11.1285 9.99639 11.0384C13.239 10.8585 16.9404 11.2849 19.743 12.8755L19.5851 13.1538C16.8577 11.606 13.2267 11.1796 10.0141 11.3579C8.41006 11.4469 6.91681 11.6863 5.7014 12.0084Z" fill="#005284"/>
<path d="M21.3568 12.5308C21.2678 12.5308 21.1956 12.603 21.1956 12.6921V13.0952H20.7925C20.7035 13.0952 20.6313 13.1674 20.6313 13.2565V13.7403C20.6313 13.8294 20.7035 13.9016 20.7925 13.9016H21.1956V14.3048C21.1956 14.3938 21.2678 14.466 21.3568 14.466H21.8404C21.9295 14.466 22.0016 14.3938 22.0016 14.3048V13.9016H22.4047C22.4937 13.9016 22.5659 13.8294 22.5659 13.7403V13.2565C22.5659 13.1674 22.4937 13.0952 22.4047 13.0952H22.0016V12.6921C22.0016 12.603 21.9295 12.5308 21.8404 12.5308H21.3568Z" fill="#005284"/>
<path d="M0 19.1428L1.22799 13.3866H2.42843L1.20044 19.1428H0Z" fill="#005284"/>
<path fill-rule="evenodd" clip-rule="evenodd" d="M6.17175 15.0835C5.95135 14.8 5.6496 14.6583 5.26651 14.6583C4.79682 14.6583 4.38094 14.909 4.01884 15.4103H3.98341L4.05032 14.741H3.14507L1.79901 21.08H2.9837L3.26708 19.7413C3.34843 19.3843 3.40484 18.9972 3.43633 18.5798H3.46781C3.60163 18.8134 3.74726 18.9788 3.90469 19.0759C4.06213 19.173 4.24974 19.2216 4.46752 19.2216C4.84274 19.2216 5.18647 19.0864 5.49872 18.8161C5.81097 18.5431 6.0563 18.1756 6.23473 17.7136C6.41578 17.249 6.5063 16.766 6.5063 16.2647C6.5063 15.7581 6.39479 15.3644 6.17175 15.0835ZM4.27073 15.8867C4.43866 15.7082 4.61184 15.619 4.79027 15.619C5.134 15.619 5.30586 15.85 5.30586 16.312C5.30586 16.6191 5.25601 16.9314 5.1563 17.249C5.05922 17.564 4.93064 17.812 4.77059 17.9932C4.61053 18.1743 4.4426 18.2648 4.2668 18.2648C4.09624 18.2648 3.96242 18.2018 3.86534 18.0758C3.76825 17.9499 3.71971 17.7819 3.71971 17.5719C3.71971 17.2149 3.76956 16.8894 3.86927 16.5954C3.9716 16.2988 4.10542 16.0626 4.27073 15.8867Z" fill="#005284"/>
<path fill-rule="evenodd" clip-rule="evenodd" d="M7.35676 18.7767C7.66114 19.0733 8.08884 19.2216 8.63986 19.2216C9.21187 19.2216 9.72353 19.1087 10.1748 18.883V17.9892C9.90983 18.1152 9.68417 18.2032 9.49788 18.253C9.31158 18.3029 9.10429 18.3278 8.87601 18.3278C8.62411 18.3278 8.42994 18.2596 8.2935 18.1231C8.15968 17.984 8.09277 17.795 8.09277 17.5561V17.4774L8.10064 17.3947H8.30137C9.11479 17.3947 9.74059 17.2621 10.1788 16.997C10.617 16.7293 10.8361 16.35 10.8361 15.8592C10.8361 15.4864 10.7062 15.1938 10.4464 14.9812C10.1867 14.7659 9.82455 14.6583 9.36012 14.6583C8.89306 14.6583 8.47455 14.7764 8.10458 15.0127C7.73461 15.2463 7.44073 15.5875 7.22295 16.0363C7.00778 16.4826 6.9002 16.9773 6.9002 17.5207C6.9002 18.0614 7.05239 18.4801 7.35676 18.7767ZM8.63199 15.8277C8.83665 15.6177 9.05444 15.5127 9.28534 15.5127C9.56085 15.5127 9.69861 15.6374 9.69861 15.8867C9.69861 16.1046 9.58447 16.2778 9.35618 16.4064C9.13053 16.5324 8.81435 16.5954 8.40764 16.5954H8.23053C8.2935 16.2936 8.42732 16.0377 8.63199 15.8277Z" fill="#005284"/>
<path d="M13.4892 18.8279C13.8171 18.5628 13.9811 18.1835 13.9811 17.69C13.9811 17.438 13.909 17.2149 13.7647 17.0207C13.6204 16.8264 13.3868 16.6466 13.0641 16.4813C12.8332 16.3631 12.6757 16.266 12.5918 16.1899C12.5078 16.1111 12.4658 16.0206 12.4658 15.9182C12.4658 15.8054 12.5118 15.7161 12.6036 15.6505C12.6954 15.5822 12.8161 15.5481 12.9657 15.5481C13.2753 15.5481 13.6138 15.6584 13.9811 15.8789L14.3708 15.0323C13.9457 14.783 13.4695 14.6583 12.9421 14.6583C12.4042 14.6583 11.9896 14.7817 11.6983 15.0284C11.4097 15.2725 11.2654 15.6177 11.2654 16.0639C11.2654 16.3054 11.3284 16.5154 11.4543 16.6939C11.5803 16.8697 11.802 17.0469 12.1195 17.2254C12.3661 17.3619 12.538 17.4748 12.6351 17.564C12.7322 17.6532 12.7807 17.7543 12.7807 17.8672C12.7807 18.0142 12.7138 18.131 12.58 18.2176C12.4462 18.3016 12.2743 18.3436 12.0644 18.3436C11.6393 18.3436 11.2208 18.2255 10.8088 17.9892V18.9657C10.9899 19.0575 11.1841 19.1232 11.3913 19.1625C11.6013 19.2019 11.8466 19.2216 12.1274 19.2216C12.7099 19.2216 13.1638 19.0903 13.4892 18.8279Z" fill="#005284"/>
<path fill-rule="evenodd" clip-rule="evenodd" d="M24.8364 19.2221C24.4507 19.2221 24.1463 19.0817 23.9233 18.8008C23.7029 18.52 23.5927 18.1262 23.5927 17.6196C23.5927 17.1052 23.6858 16.6143 23.8721 16.1471C24.061 15.6773 24.309 15.3124 24.616 15.0525C24.923 14.7901 25.2615 14.6588 25.6315 14.6588C25.8466 14.6588 26.0316 14.7074 26.1864 14.8045C26.3438 14.9016 26.4921 15.0683 26.6312 15.3045H26.6627L26.6705 15.1943C26.6863 14.9056 26.7191 14.6496 26.7689 14.4265L27.068 13.017H28.2527L26.9539 19.1434H26.0526L26.1077 18.5725H26.0919C25.9057 18.8008 25.7102 18.9662 25.5055 19.0686C25.3035 19.1709 25.0804 19.2221 24.8364 19.2221ZM25.3323 18.2654C25.5055 18.2654 25.6734 18.1761 25.8361 17.9976C26.0014 17.8165 26.1339 17.5763 26.2336 17.2771C26.3333 16.9779 26.3832 16.6563 26.3832 16.3125C26.3832 16.1025 26.3333 15.9345 26.2336 15.8085C26.1366 15.6825 26.0027 15.6195 25.8322 15.6195C25.6538 15.6195 25.4832 15.714 25.3205 15.903C25.1605 16.092 25.0319 16.3413 24.9348 16.6511C24.8403 16.9608 24.7931 17.2679 24.7931 17.5724C24.7931 18.0344 24.9729 18.2654 25.3323 18.2654Z" fill="#005284"/>
<path fill-rule="evenodd" clip-rule="evenodd" d="M14.9017 18.8048C15.1247 19.083 15.4291 19.2221 15.8148 19.2221C16.3002 19.2221 16.7187 19.0056 17.0703 18.5725H17.0861L17.031 19.1434H17.9323L18.869 14.7415H17.9559L17.7315 15.3045H17.7001C17.5977 15.0945 17.4534 14.9344 17.2671 14.8242C17.0834 14.7139 16.8643 14.6588 16.6098 14.6588C16.2425 14.6588 15.9053 14.7887 15.5983 15.0486C15.2913 15.3058 15.0433 15.6707 14.8544 16.1432C14.6655 16.613 14.571 17.1078 14.571 17.6275C14.571 18.1315 14.6812 18.5239 14.9017 18.8048ZM16.8027 18.0016C16.6347 18.1774 16.4603 18.2654 16.2792 18.2654C16.1165 18.2654 15.9906 18.2076 15.9014 18.0921C15.8148 17.9766 15.7715 17.8034 15.7715 17.5724C15.7715 17.2679 15.8187 16.9608 15.9132 16.6511C16.0103 16.3413 16.1388 16.092 16.2989 15.903C16.4616 15.714 16.6321 15.6195 16.8105 15.6195C16.9759 15.6195 17.1084 15.6812 17.2081 15.8046C17.3104 15.9253 17.3616 16.0789 17.3616 16.2652C17.3616 16.6458 17.3104 16.9871 17.2081 17.2889C17.1057 17.5881 16.9706 17.8257 16.8027 18.0016Z" fill="#005284"/>
<path d="M20.9042 14.7415H19.7195L19.2196 17.1196C19.1566 17.4346 19.1252 17.7141 19.1252 17.9582C19.1252 18.3677 19.2209 18.6814 19.4125 18.8993C19.604 19.1145 19.8808 19.2221 20.2429 19.2221C20.794 19.2221 21.2597 18.9242 21.6402 18.3283H21.6638L21.5811 19.1434H22.4864L23.4192 14.7415H22.2345L21.8488 16.5645C21.7359 17.0999 21.5811 17.5173 21.3843 17.8165C21.1875 18.1157 20.9684 18.2654 20.727 18.2654C20.4437 18.2654 20.302 18.1039 20.302 17.7811C20.302 17.6472 20.323 17.491 20.365 17.3125L20.9042 14.7415Z" fill="#005284"/>
<path fill-rule="evenodd" clip-rule="evenodd" d="M28.5207 18.7772C28.8251 19.0738 29.2528 19.2221 29.8038 19.2221C30.3758 19.2221 30.8875 19.1092 31.3388 18.8835V17.9897C31.0738 18.1157 30.8481 18.2037 30.6618 18.2535C30.4755 18.3034 30.2682 18.3283 30.0399 18.3283C29.788 18.3283 29.5939 18.2601 29.4574 18.1236C29.3236 17.9845 29.2567 17.7955 29.2567 17.5566V17.4779L29.2646 17.3952H29.4653C30.2787 17.3952 30.9045 17.2627 31.3427 16.9976C31.7809 16.7298 32 16.3505 32 15.8597C32 15.487 31.8701 15.1943 31.6103 14.9817C31.3506 14.7664 30.9885 14.6588 30.5241 14.6588C30.057 14.6588 29.6385 14.7769 29.2685 15.0132C28.8985 15.2468 28.6047 15.588 28.3869 16.0369C28.1717 16.4831 28.0641 16.9779 28.0641 17.5212C28.0641 18.0619 28.2163 18.4806 28.5207 18.7772ZM29.7959 15.8282C30.0006 15.6182 30.2184 15.5132 30.4493 15.5132C30.7248 15.5132 30.8625 15.6379 30.8625 15.8872C30.8625 16.1051 30.7484 16.2783 30.5201 16.407C30.2945 16.533 29.9783 16.596 29.5716 16.596H29.3945C29.4574 16.2941 29.5913 16.0382 29.7959 15.8282Z" fill="#005284"/>
</svg>
