<svg width="24" height="24" viewBox="0 0 24 24" fill="none" xmlns="http://www.w3.org/2000/svg">
<path d="M4.27605 8.75628C3.35977 8.99909 2.66902 9.30068 2.31129 9.60265L2.15648 9.41926C2.55648 9.08161 3.29042 8.76918 4.21457 8.52429C5.14345 8.27815 6.27967 8.09634 7.49729 8.02878C9.92922 7.89385 12.7053 8.2137 14.8073 9.40659L14.6888 9.61532C12.6433 8.45449 9.92 8.13473 7.51059 8.26842C6.30755 8.33517 5.1876 8.51473 4.27605 8.75628Z" fill="#005284"/>
<path d="M16.0176 9.14809C15.9508 9.14809 15.8967 9.20224 15.8967 9.26904V9.57142H15.5944C15.5276 9.57142 15.4735 9.62557 15.4735 9.69237V10.0552C15.4735 10.122 15.5276 10.1762 15.5944 10.1762H15.8967V10.4786C15.8967 10.5454 15.9508 10.5995 16.0176 10.5995H16.3803C16.4471 10.5995 16.5012 10.5454 16.5012 10.4786V10.1762H16.8035C16.8703 10.1762 16.9244 10.122 16.9244 10.0552V9.69237C16.9244 9.62557 16.8703 9.57142 16.8035 9.57142H16.5012V9.26904C16.5012 9.20224 16.4471 9.14809 16.3803 9.14809H16.0176Z" fill="#005284"/>
<path d="M0 14.1071L0.920993 9.78992H1.82132L0.90033 14.1071H0Z" fill="#005284"/>
<path fill-rule="evenodd" clip-rule="evenodd" d="M4.62882 11.0626C4.46351 10.85 4.2372 10.7437 3.94988 10.7437C3.59762 10.7437 3.2857 10.9317 3.01413 11.3077H2.98756L3.03774 10.8057H2.3588L1.34925 15.56H2.23778L2.45031 14.556C2.51132 14.2882 2.55363 13.9979 2.57724 13.6849H2.60086C2.70122 13.8601 2.81044 13.9841 2.92852 14.0569C3.0466 14.1298 3.1873 14.1662 3.35064 14.1662C3.63206 14.1662 3.88986 14.0648 4.12404 13.862C4.35822 13.6573 4.54223 13.3817 4.67605 13.0352C4.81183 12.6868 4.87973 12.3245 4.87973 11.9485C4.87973 11.5686 4.79609 11.2733 4.62882 11.0626ZM3.20305 11.665C3.329 11.5312 3.45888 11.4642 3.5927 11.4642C3.8505 11.4642 3.9794 11.6375 3.9794 11.984C3.9794 12.2143 3.94201 12.4486 3.86723 12.6868C3.79441 12.923 3.69798 13.109 3.57794 13.2449C3.45789 13.3807 3.33195 13.4486 3.2001 13.4486C3.07218 13.4486 2.97182 13.4014 2.899 13.3069C2.82619 13.2124 2.78978 13.0864 2.78978 12.9289C2.78978 12.6612 2.82717 12.4171 2.90195 12.1966C2.9787 11.9741 3.07907 11.7969 3.20305 11.665Z" fill="#005284"/>
<path fill-rule="evenodd" clip-rule="evenodd" d="M5.51757 13.8325C5.74585 14.055 6.06663 14.1662 6.47989 14.1662C6.9089 14.1662 7.29265 14.0815 7.63113 13.9122V13.2419C7.43237 13.3364 7.26313 13.4024 7.12341 13.4398C6.98368 13.4772 6.82822 13.4959 6.65701 13.4959C6.46809 13.4959 6.32246 13.4447 6.22013 13.3423C6.11976 13.238 6.06958 13.0962 6.06958 12.9171V12.858L6.07548 12.796H6.22603C6.83609 12.796 7.30544 12.6966 7.63409 12.4978C7.96273 12.297 8.12705 12.0125 8.12705 11.6444C8.12705 11.3648 8.02964 11.1453 7.83482 10.9859C7.63999 10.8244 7.36841 10.7437 7.02009 10.7437C6.6698 10.7437 6.35591 10.8323 6.07843 11.0095C5.80096 11.1847 5.58055 11.4406 5.41721 11.7773C5.25584 12.1119 5.17515 12.483 5.17515 12.8905C5.17515 13.2961 5.28929 13.6101 5.51757 13.8325ZM6.47399 11.6207C6.62749 11.4633 6.79083 11.3845 6.964 11.3845C7.17064 11.3845 7.27395 11.478 7.27395 11.665C7.27395 11.8284 7.18835 11.9584 7.01714 12.0548C6.8479 12.1493 6.61076 12.1966 6.30573 12.1966H6.1729C6.22013 11.9702 6.32049 11.7782 6.47399 11.6207Z" fill="#005284"/>
<path d="M10.1169 13.8709C10.3629 13.6721 10.4859 13.3876 10.4859 13.0175C10.4859 12.8285 10.4317 12.6612 10.3235 12.5155C10.2153 12.3698 10.0401 12.235 9.79807 12.1109C9.62489 12.0224 9.50681 11.9495 9.44384 11.8924C9.38086 11.8334 9.34938 11.7654 9.34938 11.6887C9.34938 11.604 9.38381 11.5371 9.45269 11.4879C9.52157 11.4367 9.61209 11.4111 9.72427 11.4111C9.95648 11.4111 10.2103 11.4938 10.4859 11.6591L10.7781 11.0243C10.4593 10.8372 10.1021 10.7437 9.70656 10.7437C9.30313 10.7437 8.9922 10.8363 8.77376 11.0213C8.55728 11.2044 8.44905 11.4633 8.44905 11.7979C8.44905 11.979 8.49628 12.1365 8.59074 12.2704C8.6852 12.4023 8.85149 12.5352 9.08961 12.669C9.2746 12.7714 9.40349 12.8561 9.47631 12.923C9.54912 12.9899 9.58553 13.0657 9.58553 13.1504C9.58553 13.2606 9.53535 13.3482 9.43498 13.4132C9.33462 13.4762 9.20572 13.5077 9.04828 13.5077C8.72948 13.5077 8.41559 13.4191 8.10663 13.2419V13.9742C8.24241 14.0432 8.38804 14.0924 8.54351 14.1219C8.70094 14.1514 8.88494 14.1662 9.09551 14.1662C9.53239 14.1662 9.87285 14.0678 10.1169 13.8709Z" fill="#005284"/>
<path fill-rule="evenodd" clip-rule="evenodd" d="M18.6273 14.1666C18.338 14.1666 18.1097 14.0613 17.9425 13.8506C17.7772 13.64 17.6945 13.3447 17.6945 12.9647C17.6945 12.5789 17.7644 12.2107 17.9041 11.8603C18.0458 11.5079 18.2318 11.2343 18.462 11.0394C18.6922 10.8425 18.9461 10.7441 19.2236 10.7441C19.385 10.7441 19.5237 10.7805 19.6398 10.8534C19.7579 10.9262 19.8691 11.0512 19.9734 11.2284H19.997L20.0029 11.1457C20.0147 10.9292 20.0393 10.7372 20.0767 10.5699L20.301 9.51273H21.1896L20.2154 14.1075H19.5394L19.5808 13.6793H19.569C19.4292 13.8506 19.2826 13.9746 19.1291 14.0514C18.9776 14.1282 18.8103 14.1666 18.6273 14.1666ZM18.9992 13.449C19.1291 13.449 19.2551 13.3821 19.3771 13.2482C19.5011 13.1124 19.6005 12.9322 19.6752 12.7078C19.75 12.4834 19.7874 12.2422 19.7874 11.9844C19.7874 11.8269 19.75 11.7009 19.6752 11.6064C19.6024 11.5119 19.5021 11.4646 19.3741 11.4646C19.2403 11.4646 19.1124 11.5355 18.9904 11.6772C18.8703 11.819 18.7739 12.006 18.7011 12.2383C18.6303 12.4706 18.5948 12.7009 18.5948 12.9293C18.5948 13.2758 18.7296 13.449 18.9992 13.449Z" fill="#005284"/>
<path fill-rule="evenodd" clip-rule="evenodd" d="M11.1762 13.8536C11.3435 14.0622 11.5718 14.1666 11.8611 14.1666C12.2251 14.1666 12.539 14.0042 12.8027 13.6793H12.8145L12.7732 14.1075H13.4492L14.1518 10.8061H13.4669L13.2987 11.2284H13.275C13.1983 11.0709 13.0901 10.9508 12.9503 10.8681C12.8126 10.7855 12.6483 10.7441 12.4574 10.7441C12.1819 10.7441 11.929 10.8416 11.6987 11.0365C11.4685 11.2294 11.2825 11.503 11.1408 11.8574C10.9991 12.2098 10.9283 12.5808 10.9283 12.9706C10.9283 13.3486 11.0109 13.6429 11.1762 13.8536ZM12.602 13.2512C12.4761 13.3831 12.3452 13.449 12.2094 13.449C12.0874 13.449 11.9929 13.4057 11.926 13.3191C11.8611 13.2325 11.8286 13.1025 11.8286 12.9293C11.8286 12.7009 11.864 12.4706 11.9349 12.2383C12.0077 12.006 12.1041 11.819 12.2242 11.6772C12.3462 11.5355 12.4741 11.4646 12.6079 11.4646C12.7319 11.4646 12.8313 11.5109 12.9061 11.6034C12.9828 11.694 13.0212 11.8091 13.0212 11.9489C13.0212 12.2344 12.9828 12.4903 12.9061 12.7167C12.8293 12.9411 12.728 13.1193 12.602 13.2512Z" fill="#005284"/>
<path d="M15.6781 10.8061H14.7896L14.4147 12.5897C14.3675 12.8259 14.3439 13.0356 14.3439 13.2187C14.3439 13.5258 14.4157 13.761 14.5594 13.9244C14.703 14.0859 14.9106 14.1666 15.1822 14.1666C15.5955 14.1666 15.9448 13.9431 16.2301 13.4963H16.2478L16.1859 14.1075H16.8648L17.5644 10.8061H16.6759L16.3866 12.1733C16.302 12.5749 16.1859 12.888 16.0383 13.1124C15.8907 13.3368 15.7263 13.449 15.5453 13.449C15.3327 13.449 15.2265 13.3279 15.2265 13.0858C15.2265 12.9854 15.2422 12.8683 15.2737 12.7344L15.6781 10.8061Z" fill="#005284"/>
<path fill-rule="evenodd" clip-rule="evenodd" d="M21.3905 13.8329C21.6188 14.0554 21.9396 14.1666 22.3528 14.1666C22.7818 14.1666 23.1656 14.0819 23.5041 13.9126V13.2423C23.3053 13.3368 23.1361 13.4027 22.9964 13.4402C22.8566 13.4776 22.7012 13.4963 22.53 13.4963C22.341 13.4963 22.1954 13.4451 22.0931 13.3427C21.9927 13.2384 21.9425 13.0966 21.9425 12.9175V12.8584L21.9484 12.7964H22.099C22.709 12.7964 23.1784 12.697 23.507 12.4982C23.8357 12.2974 24 12.0129 24 11.6448C24 11.3652 23.9026 11.1457 23.7078 10.9863C23.5129 10.8248 23.2414 10.7441 22.893 10.7441C22.5427 10.7441 22.2289 10.8327 21.9514 11.0099C21.6739 11.1851 21.4535 11.441 21.2902 11.7776C21.1288 12.1123 21.0481 12.4834 21.0481 12.8909C21.0481 13.2964 21.1622 13.6104 21.3905 13.8329ZM22.3469 11.6211C22.5004 11.4636 22.6638 11.3849 22.837 11.3849C23.0436 11.3849 23.1469 11.4784 23.1469 11.6654C23.1469 11.8288 23.0613 11.9588 22.8901 12.0552C22.7208 12.1497 22.4837 12.197 22.1787 12.197H22.0458C22.0931 11.9706 22.1934 11.7786 22.3469 11.6211Z" fill="#005284"/>
</svg>
