<svg width="64" height="96" viewBox="0 0 64 96" fill="none" xmlns="http://www.w3.org/2000/svg">
<path d="M21.7014 44.0084C20.4797 44.3321 19.5587 44.7342 19.0817 45.1369L18.8753 44.8923C19.4086 44.4421 20.3872 44.0256 21.6194 43.6991C22.8579 43.3709 24.3729 43.1285 25.9964 43.0384C29.239 42.8585 32.9404 43.2849 35.743 44.8755L35.5851 45.1538C32.8577 43.606 29.2267 43.1796 26.0141 43.3579C24.4101 43.4469 22.9168 43.6863 21.7014 44.0084Z" fill="#005284"/>
<path d="M37.3568 44.5308C37.2678 44.5308 37.1956 44.603 37.1956 44.6921V45.0952H36.7925C36.7035 45.0952 36.6313 45.1674 36.6313 45.2565V45.7403C36.6313 45.8294 36.7035 45.9016 36.7925 45.9016H37.1956V46.3048C37.1956 46.3938 37.2678 46.466 37.3568 46.466H37.8404C37.9295 46.466 38.0016 46.3938 38.0016 46.3048V45.9016H38.4047C38.4937 45.9016 38.5659 45.8294 38.5659 45.7403V45.2565C38.5659 45.1674 38.4937 45.0952 38.4047 45.0952H38.0016V44.6921C38.0016 44.603 37.9295 44.5308 37.8404 44.5308H37.3568Z" fill="#005284"/>
<path d="M16 51.1428L17.228 45.3866H18.4284L17.2004 51.1428H16Z" fill="#005284"/>
<path fill-rule="evenodd" clip-rule="evenodd" d="M22.1718 47.0835C21.9513 46.8 21.6496 46.6583 21.2665 46.6583C20.7968 46.6583 20.3809 46.909 20.0188 47.4103H19.9834L20.0503 46.741H19.1451L17.799 53.08H18.9837L19.2671 51.7413C19.3484 51.3843 19.4048 50.9972 19.4363 50.5798H19.4678C19.6016 50.8134 19.7473 50.9788 19.9047 51.0759C20.0621 51.173 20.2497 51.2216 20.4675 51.2216C20.8427 51.2216 21.1865 51.0864 21.4987 50.8161C21.811 50.5431 22.0563 50.1756 22.2347 49.7136C22.4158 49.249 22.5063 48.766 22.5063 48.2647C22.5063 47.7581 22.3948 47.3644 22.1718 47.0835ZM20.2707 47.8867C20.4387 47.7082 20.6118 47.619 20.7903 47.619C21.134 47.619 21.3059 47.85 21.3059 48.312C21.3059 48.6191 21.256 48.9314 21.1563 49.249C21.0592 49.564 20.9306 49.812 20.7706 49.9932C20.6105 50.1743 20.4426 50.2648 20.2668 50.2648C20.0962 50.2648 19.9624 50.2018 19.8653 50.0758C19.7683 49.9499 19.7197 49.7819 19.7197 49.5719C19.7197 49.2149 19.7696 48.8894 19.8693 48.5954C19.9716 48.2988 20.1054 48.0626 20.2707 47.8867Z" fill="#005284"/>
<path fill-rule="evenodd" clip-rule="evenodd" d="M23.3568 50.7767C23.6611 51.0733 24.0888 51.2216 24.6399 51.2216C25.2119 51.2216 25.7235 51.1087 26.1748 50.883V49.9892C25.9098 50.1152 25.6842 50.2032 25.4979 50.253C25.3116 50.3029 25.1043 50.3278 24.876 50.3278C24.6241 50.3278 24.4299 50.2596 24.2935 50.1231C24.1597 49.984 24.0928 49.795 24.0928 49.5561V49.4774L24.1006 49.3947H24.3014C25.1148 49.3947 25.7406 49.2621 26.1788 48.997C26.617 48.7293 26.8361 48.35 26.8361 47.8592C26.8361 47.4864 26.7062 47.1938 26.4464 46.9812C26.1867 46.7659 25.8246 46.6583 25.3601 46.6583C24.8931 46.6583 24.4746 46.7764 24.1046 47.0127C23.7346 47.2463 23.4407 47.5875 23.2229 48.0363C23.0078 48.4826 22.9002 48.9773 22.9002 49.5207C22.9002 50.0614 23.0524 50.4801 23.3568 50.7767ZM24.632 47.8277C24.8367 47.6177 25.0544 47.5127 25.2853 47.5127C25.5609 47.5127 25.6986 47.6374 25.6986 47.8867C25.6986 48.1046 25.5845 48.2778 25.3562 48.4064C25.1305 48.5324 24.8143 48.5954 24.4076 48.5954H24.2305C24.2935 48.2936 24.4273 48.0377 24.632 47.8277Z" fill="#005284"/>
<path d="M29.4892 50.8279C29.8171 50.5628 29.9811 50.1835 29.9811 49.69C29.9811 49.438 29.909 49.2149 29.7647 49.0207C29.6204 48.8264 29.3868 48.6466 29.0641 48.4813C28.8332 48.3631 28.6757 48.266 28.5918 48.1899C28.5078 48.1111 28.4658 48.0206 28.4658 47.9182C28.4658 47.8054 28.5118 47.7161 28.6036 47.6505C28.6954 47.5822 28.8161 47.5481 28.9657 47.5481C29.2753 47.5481 29.6138 47.6584 29.9811 47.8789L30.3708 47.0323C29.9457 46.783 29.4695 46.6583 28.9421 46.6583C28.4042 46.6583 27.9896 46.7817 27.6983 47.0284C27.4097 47.2725 27.2654 47.6177 27.2654 48.0639C27.2654 48.3054 27.3284 48.5154 27.4543 48.6939C27.5803 48.8697 27.802 49.0469 28.1195 49.2254C28.3661 49.3619 28.538 49.4748 28.6351 49.564C28.7322 49.6532 28.7807 49.7543 28.7807 49.8672C28.7807 50.0142 28.7138 50.131 28.58 50.2176C28.4462 50.3016 28.2743 50.3436 28.0644 50.3436C27.6393 50.3436 27.2208 50.2255 26.8088 49.9892V50.9657C26.9899 51.0575 27.1841 51.1232 27.3913 51.1625C27.6013 51.2019 27.8466 51.2216 28.1274 51.2216C28.7099 51.2216 29.1638 51.0903 29.4892 50.8279Z" fill="#005284"/>
<path fill-rule="evenodd" clip-rule="evenodd" d="M40.8364 51.2221C40.4507 51.2221 40.1463 51.0817 39.9233 50.8008C39.7029 50.52 39.5927 50.1262 39.5927 49.6196C39.5927 49.1052 39.6858 48.6143 39.8721 48.1471C40.061 47.6773 40.309 47.3124 40.616 47.0525C40.923 46.7901 41.2615 46.6588 41.6315 46.6588C41.8466 46.6588 42.0316 46.7074 42.1864 46.8045C42.3438 46.9016 42.4921 47.0683 42.6312 47.3045H42.6627L42.6705 47.1943C42.6863 46.9056 42.7191 46.6496 42.7689 46.4265L43.068 45.017H44.2527L42.9539 51.1434H42.0526L42.1077 50.5725H42.0919C41.9057 50.8008 41.7102 50.9662 41.5055 51.0686C41.3035 51.1709 41.0804 51.2221 40.8364 51.2221ZM41.3323 50.2654C41.5055 50.2654 41.6734 50.1761 41.8361 49.9976C42.0014 49.8165 42.1339 49.5763 42.2336 49.2771C42.3333 48.9779 42.3832 48.6563 42.3832 48.3125C42.3832 48.1025 42.3333 47.9345 42.2336 47.8085C42.1366 47.6825 42.0027 47.6195 41.8322 47.6195C41.6538 47.6195 41.4832 47.714 41.3205 47.903C41.1605 48.092 41.0319 48.3413 40.9348 48.6511C40.8403 48.9608 40.7931 49.2679 40.7931 49.5724C40.7931 50.0344 40.9729 50.2654 41.3323 50.2654Z" fill="#005284"/>
<path fill-rule="evenodd" clip-rule="evenodd" d="M30.9017 50.8048C31.1247 51.083 31.4291 51.2221 31.8148 51.2221C32.3002 51.2221 32.7187 51.0056 33.0703 50.5725H33.0861L33.031 51.1434H33.9323L34.869 46.7415H33.9559L33.7315 47.3045H33.7001C33.5977 47.0945 33.4534 46.9344 33.2671 46.8242C33.0834 46.7139 32.8643 46.6588 32.6098 46.6588C32.2425 46.6588 31.9053 46.7887 31.5983 47.0486C31.2913 47.3058 31.0433 47.6707 30.8544 48.1432C30.6655 48.613 30.571 49.1078 30.571 49.6275C30.571 50.1315 30.6812 50.5239 30.9017 50.8048ZM32.8027 50.0016C32.6347 50.1774 32.4603 50.2654 32.2792 50.2654C32.1165 50.2654 31.9906 50.2076 31.9014 50.0921C31.8148 49.9766 31.7715 49.8034 31.7715 49.5724C31.7715 49.2679 31.8187 48.9608 31.9132 48.6511C32.0103 48.3413 32.1388 48.092 32.2989 47.903C32.4616 47.714 32.6321 47.6195 32.8105 47.6195C32.9759 47.6195 33.1084 47.6812 33.2081 47.8046C33.3104 47.9253 33.3616 48.0789 33.3616 48.2652C33.3616 48.6458 33.3104 48.9871 33.2081 49.2889C33.1057 49.5881 32.9706 49.8257 32.8027 50.0016Z" fill="#005284"/>
<path d="M36.9042 46.7415H35.7195L35.2196 49.1196C35.1566 49.4346 35.1252 49.7141 35.1252 49.9582C35.1252 50.3677 35.2209 50.6814 35.4125 50.8993C35.604 51.1145 35.8808 51.2221 36.2429 51.2221C36.794 51.2221 37.2597 50.9242 37.6402 50.3283H37.6638L37.5811 51.1434H38.4864L39.4192 46.7415H38.2345L37.8488 48.5645C37.7359 49.0999 37.5811 49.5173 37.3843 49.8165C37.1875 50.1157 36.9684 50.2654 36.727 50.2654C36.4437 50.2654 36.302 50.1039 36.302 49.7811C36.302 49.6472 36.323 49.491 36.365 49.3125L36.9042 46.7415Z" fill="#005284"/>
<path fill-rule="evenodd" clip-rule="evenodd" d="M44.5207 50.7772C44.8251 51.0738 45.2528 51.2221 45.8038 51.2221C46.3758 51.2221 46.8875 51.1092 47.3388 50.8835V49.9897C47.0738 50.1157 46.8481 50.2037 46.6618 50.2535C46.4755 50.3034 46.2682 50.3283 46.0399 50.3283C45.788 50.3283 45.5939 50.2601 45.4574 50.1236C45.3236 49.9845 45.2567 49.7955 45.2567 49.5566V49.4779L45.2646 49.3952H45.4653C46.2787 49.3952 46.9045 49.2627 47.3427 48.9976C47.7809 48.7298 48 48.3505 48 47.8597C48 47.487 47.8701 47.1943 47.6103 46.9817C47.3506 46.7664 46.9885 46.6588 46.5241 46.6588C46.057 46.6588 45.6385 46.7769 45.2685 47.0132C44.8985 47.2468 44.6047 47.588 44.3869 48.0369C44.1717 48.4831 44.0641 48.9779 44.0641 49.5212C44.0641 50.0619 44.2163 50.4806 44.5207 50.7772ZM45.7959 47.8282C46.0006 47.6182 46.2184 47.5132 46.4493 47.5132C46.7248 47.5132 46.8625 47.6379 46.8625 47.8872C46.8625 48.1051 46.7484 48.2783 46.5201 48.407C46.2945 48.533 45.9783 48.596 45.5716 48.596H45.3945C45.4574 48.2941 45.5913 48.0382 45.7959 47.8282Z" fill="#005284"/>
</svg>
