<svg width="32" height="32" viewBox="0 0 32 32" fill="none" xmlns="http://www.w3.org/2000/svg">
<path d="M15.8148 19.2217C15.4291 19.2217 15.1247 19.0826 14.9017 18.8044C14.6812 18.5235 14.571 18.1311 14.571 17.6271C14.571 17.1074 14.6655 16.6126 14.8544 16.1428C15.0433 15.6703 15.2913 15.3055 15.5983 15.0482C15.9053 14.7884 16.2425 14.6584 16.6098 14.6584C16.8643 14.6584 17.0834 14.7136 17.2671 14.8238C17.4534 14.934 17.5977 15.0942 17.7001 15.3042H17.7315L17.9559 14.7411H18.869L17.9323 19.143H17.031L17.0861 18.5721H17.0703C16.7187 19.0052 16.3002 19.2217 15.8148 19.2217ZM16.2792 18.265C16.4603 18.265 16.6348 18.177 16.8027 18.0012C16.9706 17.8253 17.1057 17.5878 17.2081 17.2885C17.3104 16.9867 17.3616 16.6454 17.3616 16.2648C17.3616 16.0785 17.3104 15.9249 17.2081 15.8042C17.1084 15.6808 16.9759 15.6191 16.8106 15.6191C16.6321 15.6191 16.4616 15.7136 16.2989 15.9026C16.1388 16.0916 16.0103 16.341 15.9132 16.6507C15.8187 16.9604 15.7715 17.2675 15.7715 17.572C15.7715 17.803 15.8148 17.9762 15.9014 18.0917C15.9906 18.2072 16.1165 18.265 16.2792 18.265Z" fill="#C52C26"/>
<path d="M19.7195 14.7411H20.9042L20.365 17.3122C20.323 17.4906 20.302 17.6468 20.302 17.7807C20.302 18.1035 20.4437 18.265 20.7271 18.265C20.9685 18.265 21.1875 18.1154 21.3843 17.8161C21.5811 17.5169 21.7359 17.0995 21.8488 16.5641L22.2345 14.7411H23.4192L22.4864 19.143H21.5811L21.6638 18.328H21.6402C21.2597 18.9238 20.794 19.2217 20.2429 19.2217C19.8808 19.2217 19.604 19.1141 19.4125 18.8989C19.2209 18.681 19.1252 18.3673 19.1252 17.9579C19.1252 17.7138 19.1566 17.4342 19.2196 17.1192L19.7195 14.7411Z" fill="#C52C26"/>
<path d="M24.8364 19.2217C24.4507 19.2217 24.1463 19.0813 23.9233 18.8004C23.7029 18.5196 23.5927 18.1259 23.5927 17.6193C23.5927 17.1048 23.6858 16.6139 23.8721 16.1467C24.061 15.6769 24.309 15.312 24.616 15.0522C24.923 14.7897 25.2615 14.6584 25.6315 14.6584C25.8466 14.6584 26.0316 14.707 26.1864 14.8041C26.3438 14.9012 26.4921 15.0679 26.6312 15.3042H26.6627L26.6705 15.1939C26.6863 14.9052 26.7191 14.6493 26.7689 14.4261L27.068 13.0166H28.2527L26.9539 19.143H26.0526L26.1077 18.5721H26.092C25.9057 18.8004 25.7102 18.9658 25.5055 19.0682C25.3035 19.1705 25.0804 19.2217 24.8364 19.2217ZM25.3323 18.265C25.5055 18.265 25.6734 18.1757 25.8361 17.9972C26.0014 17.8161 26.1339 17.576 26.2336 17.2767C26.3334 16.9775 26.3832 16.6559 26.3832 16.3121C26.3832 16.1021 26.3334 15.9341 26.2336 15.8081C26.1366 15.6821 26.0027 15.6191 25.8322 15.6191C25.6538 15.6191 25.4832 15.7136 25.3205 15.9026C25.1605 16.0916 25.0319 16.341 24.9348 16.6507C24.8403 16.9604 24.7931 17.2675 24.7931 17.572C24.7931 18.034 24.9729 18.265 25.3323 18.265Z" fill="#C52C26"/>
<path d="M30.4493 15.5128C30.2184 15.5128 30.0006 15.6178 29.7959 15.8278C29.5912 16.0378 29.4574 16.2937 29.3945 16.5956H29.5716C29.9783 16.5956 30.2945 16.5326 30.5201 16.4066C30.7484 16.278 30.8625 16.1047 30.8625 15.8869C30.8625 15.6375 30.7248 15.5128 30.4493 15.5128ZM29.8038 19.2217C29.2528 19.2217 28.8251 19.0734 28.5207 18.7768C28.2163 18.4802 28.0641 18.0615 28.0641 17.5208C28.0641 16.9775 28.1717 16.4827 28.3869 16.0365C28.6047 15.5876 28.8985 15.2464 29.2685 15.0128C29.6385 14.7766 30.057 14.6584 30.524 14.6584C30.9885 14.6584 31.3506 14.7661 31.6103 14.9813C31.8701 15.1939 32 15.4866 32 15.8593C32 16.3501 31.7809 16.7294 31.3427 16.9972C30.9045 17.2623 30.2787 17.3948 29.4653 17.3948H29.2646L29.2567 17.4775V17.5563C29.2567 17.7951 29.3236 17.9841 29.4574 18.1232C29.5939 18.2597 29.788 18.328 30.0399 18.328C30.2682 18.328 30.4755 18.303 30.6618 18.2532C30.8481 18.2033 31.0738 18.1154 31.3388 17.9894V18.8831C30.8875 19.1089 30.3758 19.2217 29.8038 19.2217Z" fill="#C52C26"/>
<path d="M3.08172 13.1369C3.5587 12.7342 4.4797 12.3321 5.7014 12.0084C6.9168 11.6863 8.41006 11.4469 10.0141 11.3579C13.2267 11.1796 16.8577 11.606 19.5851 13.1538L19.743 12.8755C16.9404 11.2849 13.2389 10.8585 9.99639 11.0384C8.37288 11.1285 6.85792 11.3709 5.61943 11.6991C4.38723 12.0256 3.40864 12.4421 2.87531 12.8923L3.08172 13.1369Z" fill="#005284"/>
<path d="M21.1956 12.6921C21.1956 12.603 21.2677 12.5308 21.3568 12.5308H21.8404C21.9295 12.5308 22.0016 12.603 22.0016 12.6921V13.0952H22.4047C22.4937 13.0952 22.5659 13.1674 22.5659 13.2565V13.7403C22.5659 13.8294 22.4937 13.9016 22.4047 13.9016H22.0016V14.3048C22.0016 14.3938 21.9295 14.466 21.8404 14.466H21.3568C21.2677 14.466 21.1956 14.3938 21.1956 14.3048V13.9016H20.7925C20.7035 13.9016 20.6313 13.8294 20.6313 13.7403V13.2565C20.6313 13.1674 20.7035 13.0952 20.7925 13.0952H21.1956V12.6921Z" fill="#005284"/>
<path d="M0 19.1428L1.22799 13.3866H2.42843L1.20044 19.1428H0Z" fill="#005284"/>
<path fill-rule="evenodd" clip-rule="evenodd" d="M5.2665 14.6583C5.64959 14.6583 5.95134 14.8 6.17175 15.0835C6.39478 15.3644 6.5063 15.7581 6.5063 16.2647C6.5063 16.766 6.41577 17.249 6.23472 17.7136C6.0563 18.1756 5.81096 18.5431 5.49872 18.816C5.18647 19.0864 4.84274 19.2216 4.46752 19.2216C4.24974 19.2216 4.06213 19.173 3.90469 19.0759C3.74726 18.9788 3.60163 18.8134 3.46781 18.5798H3.43632C3.40484 18.9972 3.34842 19.3843 3.26708 19.7413L2.9837 21.08H1.79901L3.14507 14.741H4.05032L3.98341 15.4103H4.01883C4.38093 14.909 4.79682 14.6583 5.2665 14.6583ZM4.79026 15.619C4.61184 15.619 4.43866 15.7082 4.27073 15.8867C4.10542 16.0626 3.9716 16.2988 3.86927 16.5954C3.76956 16.8894 3.71971 17.2149 3.71971 17.5719C3.71971 17.7819 3.76825 17.9498 3.86533 18.0758C3.96242 18.2018 4.09624 18.2648 4.26679 18.2648C4.44259 18.2648 4.61052 18.1743 4.77058 17.9932C4.93064 17.812 5.05921 17.564 5.1563 17.249C5.25601 16.9314 5.30586 16.6191 5.30586 16.3119C5.30586 15.85 5.134 15.619 4.79026 15.619Z" fill="#005284"/>
<path fill-rule="evenodd" clip-rule="evenodd" d="M7.35676 18.7767C7.66113 19.0733 8.08883 19.2216 8.63985 19.2216C9.21187 19.2216 9.72353 19.1087 10.1748 18.883V17.9892C9.90983 18.1152 9.68417 18.2031 9.49787 18.253C9.31157 18.3029 9.10429 18.3278 8.87601 18.3278C8.62411 18.3278 8.42994 18.2596 8.2935 18.1231C8.15968 17.984 8.09277 17.795 8.09277 17.5561V17.4774L8.10064 17.3947H8.30137C9.11478 17.3947 9.74058 17.2621 10.1788 16.997C10.617 16.7293 10.8361 16.35 10.8361 15.8592C10.8361 15.4864 10.7062 15.1938 10.4464 14.9812C10.1866 14.7659 9.82455 14.6583 9.36012 14.6583C8.89306 14.6583 8.47455 14.7764 8.10458 15.0127C7.7346 15.2463 7.44073 15.5875 7.22294 16.0363C7.00778 16.4826 6.9002 16.9773 6.9002 17.5207C6.9002 18.0614 7.05239 18.4801 7.35676 18.7767ZM8.63198 15.8277C8.83665 15.6177 9.05443 15.5127 9.28533 15.5127C9.56085 15.5127 9.6986 15.6374 9.6986 15.8867C9.6986 16.1046 9.58446 16.2778 9.35618 16.4064C9.13052 16.5324 8.81434 16.5954 8.40764 16.5954H8.23052C8.2935 16.2936 8.42732 16.0377 8.63198 15.8277Z" fill="#005284"/>
<path d="M13.9811 17.69C13.9811 18.1835 13.8171 18.5627 13.4892 18.8279C13.1638 19.0903 12.7099 19.2216 12.1273 19.2216C11.8466 19.2216 11.6013 19.2019 11.3913 19.1625C11.184 19.1232 10.9899 19.0575 10.8088 18.9657V17.9892C11.2208 18.2255 11.6393 18.3436 12.0644 18.3436C12.2743 18.3436 12.4461 18.3016 12.58 18.2176C12.7138 18.131 12.7807 18.0142 12.7807 17.8672C12.7807 17.7543 12.7322 17.6532 12.6351 17.564C12.538 17.4748 12.3661 17.3619 12.1195 17.2254C11.802 17.0469 11.5803 16.8697 11.4543 16.6939C11.3284 16.5154 11.2654 16.3054 11.2654 16.0639C11.2654 15.6177 11.4097 15.2725 11.6983 15.0284C11.9896 14.7817 12.4042 14.6583 12.9421 14.6583C13.4695 14.6583 13.9457 14.783 14.3708 15.0323L13.9811 15.8788C13.6138 15.6584 13.2753 15.5481 12.9657 15.5481C12.8161 15.5481 12.6954 15.5822 12.6036 15.6505C12.5117 15.7161 12.4658 15.8054 12.4658 15.9182C12.4658 16.0206 12.5078 16.1111 12.5918 16.1899C12.6757 16.266 12.8332 16.3631 13.0641 16.4812C13.3868 16.6466 13.6203 16.8264 13.7647 17.0207C13.909 17.2149 13.9811 17.438 13.9811 17.69Z" fill="#005284"/>
</svg>
