<svg width="200" height="96" viewBox="0 0 200 96" fill="none" xmlns="http://www.w3.org/2000/svg">
<path d="M19.2608 29.3554C22.2419 26.839 27.9981 24.3257 35.6337 22.3024C43.23 20.2894 52.5629 18.793 62.5882 18.2368C82.6667 17.1227 105.361 19.7874 122.407 29.461L123.394 27.7216C105.877 17.7809 82.7435 15.1154 62.4774 16.2399C52.3305 16.8029 42.862 18.3179 35.1214 20.3691C27.4202 22.4099 21.304 25.0134 17.9707 27.8271L19.2608 29.3554Z" fill="#005284"/>
<path d="M132.472 26.5753C132.472 26.0187 132.923 25.5674 133.48 25.5674H136.503C137.059 25.5674 137.51 26.0187 137.51 26.5753V29.0952H140.029C140.586 29.0952 141.037 29.5464 141.037 30.1031V33.1269C141.037 33.6836 140.586 34.1349 140.029 34.1349H137.51V36.6547C137.51 37.2114 137.059 37.6627 136.503 37.6627H133.48C132.923 37.6627 132.472 37.2114 132.472 36.6547V34.1349H129.953C129.397 34.1349 128.946 33.6836 128.946 33.1269V30.1031C128.946 29.5464 129.397 29.0952 129.953 29.0952H132.472V26.5753Z" fill="#005284"/>
<path fill-rule="evenodd" clip-rule="evenodd" d="M149.501 64.7515C150.895 66.5069 152.797 67.3846 155.208 67.3846C156.733 67.3846 158.127 67.0647 159.39 66.4249C160.669 65.7851 161.891 64.7515 163.055 63.3243H163.153L162.809 66.8924H168.442L176.56 28.6025H169.156L167.286 37.4122C166.975 38.8066 166.77 40.4061 166.671 42.2107L166.622 42.8997H166.425C165.556 41.4233 164.629 40.3815 163.645 39.7745C162.678 39.1675 161.522 38.864 160.177 38.864C157.865 38.864 155.749 39.6843 153.83 41.3248C151.912 42.9489 150.362 45.2293 149.181 48.1658C148.017 51.0859 147.435 54.1537 147.435 57.3692C147.435 60.5354 148.123 62.9962 149.501 64.7515ZM161.456 59.7315C160.439 60.8471 159.39 61.4049 158.307 61.4049C156.061 61.4049 154.937 59.9612 154.937 57.0739C154.937 55.1709 155.233 53.2514 155.823 51.3156C156.43 49.3798 157.233 47.8213 158.234 46.6401C159.25 45.4589 160.316 44.8684 161.432 44.8684C162.497 44.8684 163.334 45.2621 163.941 46.0495C164.564 46.837 164.875 47.8869 164.875 49.1993C164.875 51.3484 164.564 53.3581 163.941 55.2283C163.317 57.0985 162.489 58.5996 161.456 59.7315Z" fill="#005284"/>
<path d="M0 66.8924L7.67494 30.9157H15.1777L7.50274 66.8924H0Z" fill="#005284"/>
<path fill-rule="evenodd" clip-rule="evenodd" d="M32.9156 38.864C35.31 38.864 37.1959 39.7499 38.5735 41.5217C39.9674 43.277 40.6644 45.7378 40.6644 48.904C40.6644 52.0375 40.0986 55.056 38.967 57.9598C37.8519 60.8471 36.3185 63.1438 34.367 64.85C32.4155 66.5397 30.2671 67.3846 27.922 67.3846C26.5609 67.3846 25.3883 67.0811 24.4043 66.4741C23.4204 65.8671 22.5102 64.8336 21.6738 63.3735H21.477C21.2802 65.9819 20.9277 68.4017 20.4193 70.6328L18.6481 78.9995H11.2438L19.6567 39.3808H25.3145L24.8963 43.5641H25.1177C27.3808 40.4307 29.9801 38.864 32.9156 38.864ZM29.9391 44.8684C28.824 44.8684 27.7416 45.4261 26.6921 46.5417C25.6589 47.6408 24.8225 49.1173 24.1829 50.9711C23.5598 52.8085 23.2482 54.8428 23.2482 57.0739C23.2482 58.3863 23.5516 59.4362 24.1583 60.2237C24.7651 61.0111 25.6015 61.4049 26.6675 61.4049C27.7662 61.4049 28.8158 60.8389 29.8162 59.7069C30.8165 58.575 31.6201 57.0247 32.2269 55.056C32.8501 53.071 33.1616 51.1188 33.1616 49.1993C33.1616 46.312 32.0875 44.8684 29.9391 44.8684Z" fill="#005284"/>
<path fill-rule="evenodd" clip-rule="evenodd" d="M45.9798 64.6039C47.8821 66.4577 50.5552 67.3846 53.9991 67.3846C57.5742 67.3846 60.7721 66.6791 63.5928 65.2683V59.6823C61.9364 60.4698 60.5261 61.0193 59.3617 61.331C58.1974 61.6427 56.9018 61.7986 55.475 61.7986C53.9007 61.7986 52.6871 61.372 51.8344 60.519C50.998 59.6495 50.5798 58.4683 50.5798 56.9754V56.4833L50.629 55.9665H51.8836C56.9674 55.9665 60.8787 55.1381 63.6174 53.4811C66.3561 51.8078 67.7254 49.4372 67.7254 46.3694C67.7254 44.0399 66.9137 42.2107 65.2901 40.8819C63.6666 39.5366 61.4034 38.864 58.5007 38.864C55.5816 38.864 52.9659 39.6023 50.6536 41.0787C48.3413 42.5388 46.5046 44.6715 45.1434 47.4768C43.7986 50.2657 43.1263 53.3581 43.1263 56.754C43.1263 60.1334 44.0774 62.7501 45.9798 64.6039ZM53.9499 46.1726C55.2291 44.8602 56.5902 44.2039 58.0334 44.2039C59.7553 44.2039 60.6163 44.9832 60.6163 46.5417C60.6163 47.9033 59.9029 48.9861 58.4761 49.7899C57.0658 50.5774 55.0897 50.9711 52.5477 50.9711H51.4408C51.8344 49.0845 52.6707 47.485 53.9499 46.1726Z" fill="#005284"/>
<path d="M87.3821 57.8121C87.3821 60.8963 86.3572 63.2669 84.3072 64.9238C82.2737 66.5643 79.4366 67.3846 75.7959 67.3846C74.0412 67.3846 72.5078 67.2615 71.1959 67.0155C69.9003 66.7694 68.6868 66.3592 67.5552 65.7851V59.6823C70.1299 61.1588 72.7456 61.897 75.4023 61.897C76.7143 61.897 77.7885 61.6345 78.6248 61.1096C79.4612 60.5682 79.8794 59.8382 79.8794 58.9195C79.8794 58.214 79.576 57.5824 78.9692 57.0247C78.3624 56.4669 77.2883 55.7614 75.7467 54.9084C73.7624 53.7928 72.3766 52.6855 71.5895 51.5863C70.8023 50.4708 70.4087 49.1583 70.4087 47.649C70.4087 44.8602 71.3107 42.7029 73.1146 41.1772C74.935 39.6351 77.5261 38.864 80.888 38.864C84.1842 38.864 87.1607 39.6433 89.8174 41.2018L87.3821 46.4925C85.0862 45.1144 82.9707 44.4254 81.0355 44.4254C80.1008 44.4254 79.3464 44.6387 78.7724 45.0652C78.1984 45.4753 77.9115 46.0331 77.9115 46.7386C77.9115 47.3784 78.1738 47.9443 78.6986 48.4365C79.2234 48.9123 80.2074 49.5192 81.6505 50.2575C83.6677 51.291 85.1272 52.4148 86.0292 53.6288C86.9311 54.8428 87.3821 56.2372 87.3821 57.8121Z" fill="#005284"/>
<path fill-rule="evenodd" clip-rule="evenodd" d="M93.1157 64.7761C94.5097 66.5151 96.412 67.3846 98.8227 67.3846C101.857 67.3846 104.472 66.0311 106.67 63.3243H106.768L106.424 66.8924H112.057L117.912 39.3808H112.205L110.802 42.8997H110.606C109.966 41.5873 109.064 40.5866 107.9 39.8976C106.752 39.2085 105.382 38.864 103.792 38.864C101.496 38.864 99.3885 39.6761 97.4698 41.3002C95.551 42.9079 94.0013 45.1883 92.8205 48.1412C91.6398 51.0777 91.0494 54.1701 91.0494 57.4184C91.0494 60.5682 91.7382 63.0208 93.1157 64.7761ZM104.997 59.7561C103.948 60.8553 102.857 61.4049 101.725 61.4049C100.709 61.4049 99.9215 61.0439 99.3639 60.3221C98.8227 59.6003 98.5521 58.5175 98.5521 57.0739C98.5521 55.1709 98.8473 53.2514 99.4377 51.3156C100.044 49.3798 100.848 47.8213 101.848 46.6401C102.865 45.4589 103.931 44.8684 105.046 44.8684C106.079 44.8684 106.908 45.2539 107.531 46.0249C108.17 46.7796 108.49 47.7393 108.49 48.904C108.49 51.2828 108.17 53.4155 107.531 55.3021C106.891 57.1723 106.047 58.657 104.997 59.7561Z" fill="#005284"/>
<path d="M123.227 39.3808H130.631L127.261 55.4497C126.999 56.5653 126.868 57.5414 126.868 58.3781C126.868 60.3959 127.753 61.4049 129.524 61.4049C131.033 61.4049 132.403 60.4698 133.632 58.5996C134.862 56.7294 135.83 54.1209 136.535 50.7743L138.946 39.3808H146.35L140.52 66.8924H134.862L135.379 61.7986H135.231C132.854 65.5226 129.943 67.3846 126.499 67.3846C124.236 67.3846 122.505 66.712 121.308 65.3667C120.111 64.0051 119.513 62.0447 119.513 59.4854C119.513 57.9598 119.709 56.2126 120.103 54.244L123.227 39.3808Z" fill="#005284"/>
<path fill-rule="evenodd" clip-rule="evenodd" d="M186.254 67.3846C182.81 67.3846 180.137 66.4577 178.235 64.6039C176.332 62.7501 175.381 60.1334 175.381 56.754C175.381 53.3581 176.054 50.2657 177.398 47.4768C178.759 44.6715 180.596 42.5388 182.909 41.0787C185.221 39.6023 187.837 38.864 190.756 38.864C193.658 38.864 195.922 39.5366 197.545 40.8819C199.169 42.2107 199.98 44.0399 199.98 46.3694C199.98 49.4372 198.611 51.8078 195.872 53.4811C193.134 55.1381 189.222 55.9665 184.139 55.9665H182.884L182.835 56.4833V56.9754C182.835 58.4683 183.253 59.6495 184.089 60.519C184.942 61.372 186.156 61.7986 187.73 61.7986C189.157 61.7986 190.452 61.6427 191.617 61.331C192.781 61.0193 194.191 60.4698 195.848 59.6823V65.2683C193.027 66.6791 189.829 67.3846 186.254 67.3846ZM190.288 44.2039C188.845 44.2039 187.484 44.8602 186.205 46.1726C184.926 47.485 184.089 49.0845 183.696 50.9711H184.803C187.345 50.9711 189.321 50.5774 190.731 49.7899C192.158 48.9861 192.871 47.9033 192.871 46.5417C192.871 44.9832 192.01 44.2039 190.288 44.2039Z" fill="#005284"/>
</svg>
