<svg width="160" height="24" viewBox="0 0 160 24" fill="none" xmlns="http://www.w3.org/2000/svg">
<path d="M11.3123 3.00076C8.88832 3.6431 7.06093 4.44097 6.11455 5.23983L5.70501 4.75466C6.7632 3.86141 8.70485 3.03488 11.1497 2.38702C13.607 1.73584 16.6129 1.25488 19.8342 1.07615C26.2679 0.719177 33.6119 1.56535 39.1728 4.72115L38.8595 5.27335C33.448 2.20236 26.2435 1.35643 19.8693 1.7101C16.6867 1.88669 13.7239 2.36172 11.3123 3.00076Z" fill="#005284"/>
<path d="M42.3747 4.03728C42.1981 4.03728 42.0549 4.18054 42.0549 4.35726V5.15721H41.2552C41.0785 5.15721 40.9353 5.30047 40.9353 5.47719V6.43714C40.9353 6.61386 41.0785 6.75712 41.2552 6.75712H42.0549V7.55708C42.0549 7.7338 42.1981 7.87706 42.3747 7.87706H43.3343C43.511 7.87706 43.6542 7.7338 43.6542 7.55708V6.75712H44.4539C44.6305 6.75712 44.7737 6.61386 44.7737 6.43714V5.47719C44.7737 5.30047 44.6305 5.15721 44.4539 5.15721H43.6542V4.35726C43.6542 4.18054 43.511 4.03728 43.3343 4.03728H42.3747Z" fill="#005284"/>
<path d="M0 17.1565L2.4365 5.73526H4.81833L2.38183 17.1565H0Z" fill="#005284"/>
<path fill-rule="evenodd" clip-rule="evenodd" d="M12.2456 9.10226C11.8083 8.53979 11.2096 8.25856 10.4494 8.25856C9.51754 8.25856 8.69236 8.75592 7.97391 9.75066H7.90362L8.03638 8.42261H6.24024L3.56947 21H5.92006L6.48233 18.3439C6.64372 17.6356 6.75566 16.8674 6.81813 16.0394H6.88061C7.14612 16.5029 7.43506 16.831 7.74744 17.0237C8.05981 17.2164 8.43205 17.3127 8.86416 17.3127C9.60865 17.3127 10.2907 17.0445 10.9102 16.5081C11.5297 15.9665 12.0165 15.2373 12.3705 14.3207C12.7298 13.3989 12.9094 12.4406 12.9094 11.4459C12.9094 10.4407 12.6881 9.65952 12.2456 9.10226ZM8.4737 10.6959C8.8069 10.3418 9.1505 10.1647 9.50453 10.1647C10.1865 10.1647 10.5275 10.623 10.5275 11.5396C10.5275 12.149 10.4286 12.7687 10.2308 13.3989C10.0382 14.0239 9.78306 14.516 9.46548 14.8754C9.1479 15.2347 8.8147 15.4144 8.46589 15.4144C8.12749 15.4144 7.86197 15.2894 7.66934 15.0394C7.47671 14.7894 7.3804 14.4561 7.3804 14.0395C7.3804 13.3312 7.47932 12.6854 7.67715 12.1021C7.88019 11.5136 8.14571 11.0449 8.4737 10.6959Z" fill="#005284"/>
<path fill-rule="evenodd" clip-rule="evenodd" d="M14.5968 16.43C15.2007 17.0185 16.0493 17.3127 17.1426 17.3127C18.2776 17.3127 19.2928 17.0888 20.1883 16.6409V14.8676C19.6624 15.1175 19.2147 15.292 18.8451 15.391C18.4754 15.4899 18.0641 15.5394 17.6112 15.5394C17.1114 15.5394 16.7261 15.404 16.4554 15.1332C16.1899 14.8571 16.0571 14.4822 16.0571 14.0082V13.852L16.0728 13.6879H16.471C18.085 13.6879 19.3266 13.4249 20.1961 12.8989C21.0655 12.3677 21.5002 11.6151 21.5002 10.6412C21.5002 9.90169 21.2425 9.321 20.7271 8.89914C20.2117 8.47208 19.4932 8.25856 18.5717 8.25856C17.645 8.25856 16.8146 8.49292 16.0806 8.96164C15.3465 9.42516 14.7634 10.1022 14.3313 10.9928C13.9044 11.8781 13.6909 12.8599 13.6909 13.9379C13.6909 15.0108 13.9929 15.8415 14.5968 16.43ZM17.127 10.5787C17.5331 10.1621 17.9652 9.95377 18.4234 9.95377C18.97 9.95377 19.2433 10.2012 19.2433 10.6959C19.2433 11.1282 19.0169 11.4719 18.5639 11.7271C18.1162 11.9771 17.4888 12.1021 16.6819 12.1021H16.3305C16.4554 11.5032 16.7209 10.9954 17.127 10.5787Z" fill="#005284"/>
<path d="M26.7643 16.5315C27.4151 16.0055 27.7405 15.253 27.7405 14.2738C27.7405 13.7739 27.5973 13.3312 27.3109 12.9458C27.0246 12.5604 26.5613 12.2036 25.9209 11.8755C25.4627 11.6412 25.1504 11.4485 24.9838 11.2974C24.8172 11.1412 24.7339 10.9615 24.7339 10.7584C24.7339 10.5345 24.825 10.3574 25.0072 10.2272C25.1894 10.0918 25.4289 10.0241 25.7257 10.0241C26.34 10.0241 27.0116 10.2428 27.7405 10.6803L28.5136 9.0007C27.6702 8.50594 26.7253 8.25856 25.6788 8.25856C24.6115 8.25856 23.789 8.50333 23.2111 8.99289C22.6384 9.47724 22.352 10.1621 22.352 11.0475C22.352 11.5266 22.477 11.9432 22.7269 12.2974C22.9768 12.6463 23.4167 12.9979 24.0467 13.352C24.536 13.6228 24.8771 13.8468 25.0697 14.0239C25.2623 14.2009 25.3586 14.4014 25.3586 14.6254C25.3586 14.917 25.2259 15.1488 24.9604 15.3207C24.6948 15.4873 24.3538 15.5706 23.9373 15.5706C23.0939 15.5706 22.2635 15.3363 21.4462 14.8676V16.8049C21.8054 16.9872 22.1907 17.1174 22.6019 17.1955C23.0184 17.2737 23.5052 17.3127 24.0623 17.3127C25.2181 17.3127 26.1187 17.0523 26.7643 16.5315Z" fill="#005284"/>
<path fill-rule="evenodd" clip-rule="evenodd" d="M49.2788 17.3138C48.5134 17.3138 47.9095 17.0351 47.467 16.4779C47.0297 15.9206 46.811 15.1394 46.811 14.1342C46.811 13.1135 46.9958 12.1396 47.3655 11.2125C47.7403 10.2803 48.2323 9.55638 48.8414 9.04079C49.4506 8.51998 50.1222 8.25958 50.8562 8.25958C51.2831 8.25958 51.6502 8.35593 51.9573 8.54863C52.2697 8.74132 52.5639 9.07203 52.8398 9.54076H52.9023L52.9179 9.32202C52.9491 8.74914 53.0142 8.24135 53.1131 7.79867L53.7066 5.00195H56.0572L53.4801 17.1575H51.6918L51.8012 16.0248H51.7699C51.4003 16.4779 51.0124 16.806 50.6063 17.0091C50.2055 17.2122 49.7629 17.3138 49.2788 17.3138ZM50.2627 15.4154C50.6063 15.4154 50.9395 15.2384 51.2623 14.8842C51.5903 14.5249 51.8532 14.0483 52.051 13.4546C52.2489 12.8609 52.3478 12.2229 52.3478 11.5406C52.3478 11.124 52.2489 10.7907 52.051 10.5407C51.8584 10.2907 51.5929 10.1657 51.2545 10.1657C50.9005 10.1657 50.5621 10.3532 50.2393 10.7282C49.9217 11.1032 49.6666 11.5979 49.474 12.2125C49.2866 12.827 49.1929 13.4364 49.1929 14.0405C49.1929 14.9571 49.5495 15.4154 50.2627 15.4154Z" fill="#005284"/>
<path fill-rule="evenodd" clip-rule="evenodd" d="M29.5669 16.4857C30.0094 17.0377 30.6133 17.3138 31.3786 17.3138C32.3418 17.3138 33.1722 16.8841 33.8698 16.0248H33.901L33.7917 17.1575H35.58L37.4386 8.42363H35.6269L35.1817 9.54076H35.1193C34.9162 9.12411 34.6299 8.80643 34.2603 8.58769C33.8958 8.36895 33.4611 8.25958 32.9561 8.25958C32.2272 8.25958 31.5582 8.51738 30.9491 9.03298C30.34 9.54336 29.848 10.2673 29.4732 11.2047C29.0983 12.137 28.9109 13.1187 28.9109 14.1499C28.9109 15.1498 29.1295 15.9284 29.5669 16.4857ZM33.3388 14.892C33.0056 15.241 32.6593 15.4154 32.3001 15.4154C31.9773 15.4154 31.7274 15.3008 31.5504 15.0717C31.3786 14.8425 31.2927 14.4988 31.2927 14.0405C31.2927 13.4364 31.3864 12.827 31.5739 12.2125C31.7665 11.5979 32.0216 11.1032 32.3392 10.7282C32.6619 10.3532 33.0004 10.1657 33.3544 10.1657C33.6824 10.1657 33.9453 10.2881 34.1431 10.5329C34.3461 10.7725 34.4477 11.0771 34.4477 11.4469C34.4477 12.2021 34.3461 12.8791 34.1431 13.478C33.9401 14.0718 33.6719 14.5431 33.3388 14.892Z" fill="#005284"/>
<path d="M41.4767 8.42363H39.1261L38.1343 13.1421C38.0093 13.7671 37.9469 14.3217 37.9469 14.8061C37.9469 15.6185 38.1369 16.2409 38.5169 16.6732C38.897 17.1002 39.4462 17.3138 40.1647 17.3138C41.258 17.3138 42.1821 16.7226 42.937 15.5404H42.9838L42.8199 17.1575H44.616L46.4668 8.42363H44.1162L43.3509 12.0406C43.127 13.1031 42.8199 13.9311 42.4294 14.5249C42.0389 15.1186 41.6042 15.4154 41.1252 15.4154C40.563 15.4154 40.2818 15.0951 40.2818 14.4545C40.2818 14.1889 40.3235 13.8791 40.4068 13.5249L41.4767 8.42363Z" fill="#005284"/>
<path fill-rule="evenodd" clip-rule="evenodd" d="M56.5889 16.431C57.1928 17.0195 58.0414 17.3138 59.1347 17.3138C60.2696 17.3138 61.2849 17.0898 62.1803 16.6419V14.8686C61.6545 15.1186 61.2068 15.293 60.8371 15.392C60.4675 15.4909 60.0562 15.5404 59.6033 15.5404C59.1035 15.5404 58.7182 15.405 58.4475 15.1342C58.182 14.8582 58.0492 14.4832 58.0492 14.0093V13.853L58.0648 13.689H58.4631C60.077 13.689 61.3187 13.426 62.1881 12.8999C63.0576 12.3687 63.4923 11.6162 63.4923 10.6423C63.4923 9.90272 63.2346 9.32202 62.7192 8.90017C62.2037 8.47311 61.4853 8.25958 60.5638 8.25958C59.6371 8.25958 58.8067 8.49394 58.0726 8.96267C57.3386 9.42618 56.7555 10.1032 56.3234 10.9938C55.8964 11.8792 55.683 12.8609 55.683 13.9389C55.683 15.0118 55.985 15.8425 56.5889 16.431ZM59.1191 10.5798C59.5252 10.1631 59.9573 9.9548 60.4154 9.9548C60.9621 9.9548 61.2354 10.2022 61.2354 10.6969C61.2354 11.1292 61.0089 11.4729 60.556 11.7281C60.1083 11.9781 59.4809 12.1031 58.6739 12.1031H58.3225C58.4475 11.5042 58.713 10.9964 59.1191 10.5798Z" fill="#005284"/>
</svg>
