<svg width="24" height="24" viewBox="0 0 24 24" fill="none" xmlns="http://www.w3.org/2000/svg">
<path d="M11.861 14.4165C11.5717 14.4165 11.3435 14.3122 11.1762 14.1035C11.0109 13.8929 10.9282 13.5986 10.9282 13.2206C10.9282 12.8308 10.9991 12.4597 11.1408 12.1073C11.2825 11.753 11.4684 11.4793 11.6987 11.2864C11.9289 11.0915 12.1818 10.9941 12.4573 10.9941C12.6482 10.9941 12.8125 11.0354 12.9503 11.1181C13.09 11.2008 13.1982 11.3209 13.275 11.4784H13.2986L13.4669 11.0561H14.1517L13.4491 14.3575H12.7732L12.8145 13.9293H12.8027C12.539 14.2541 12.2251 14.4165 11.861 14.4165ZM12.2093 13.699C12.3451 13.699 12.476 13.633 12.6019 13.5011C12.7279 13.3692 12.8292 13.1911 12.906 12.9666C12.9827 12.7402 13.0211 12.4843 13.0211 12.1989C13.0211 12.0591 12.9827 11.9439 12.906 11.8534C12.8312 11.7609 12.7318 11.7146 12.6079 11.7146C12.474 11.7146 12.3461 11.7855 12.2241 11.9272C12.1041 12.0689 12.0076 12.256 11.9348 12.4883C11.864 12.7206 11.8286 12.9509 11.8286 13.1793C11.8286 13.3525 11.861 13.4824 11.926 13.569C11.9929 13.6557 12.0873 13.699 12.2093 13.699Z" fill="#C52C26"/>
<path d="M14.7895 11.0561H15.6781L15.2737 12.9844C15.2422 13.1182 15.2264 13.2354 15.2264 13.3358C15.2264 13.5779 15.3327 13.699 15.5452 13.699C15.7263 13.699 15.8906 13.5868 16.0382 13.3623C16.1858 13.1379 16.3019 12.8249 16.3865 12.4233L16.6758 11.0561H17.5643L16.8647 14.3575H16.1858L16.2478 13.7462H16.2301C15.9447 14.1931 15.5954 14.4165 15.1821 14.4165C14.9106 14.4165 14.703 14.3358 14.5593 14.1744C14.4156 14.011 14.3438 13.7757 14.3438 13.4686C14.3438 13.2856 14.3674 13.0759 14.4147 12.8397L14.7895 11.0561Z" fill="#C52C26"/>
<path d="M18.6272 14.4165C18.338 14.4165 18.1097 14.3112 17.9424 14.1006C17.7771 13.8899 17.6944 13.5946 17.6944 13.2147C17.6944 12.8288 17.7643 12.4607 17.904 12.1103C18.0457 11.7579 18.2317 11.4843 18.4619 11.2894C18.6922 11.0925 18.9461 10.9941 19.2235 10.9941C19.3849 10.9941 19.5236 11.0305 19.6397 11.1033C19.7578 11.1762 19.869 11.3012 19.9733 11.4784H19.9969L20.0028 11.3957C20.0146 11.1791 20.0392 10.9872 20.0766 10.8198L20.301 9.7627H21.1895L20.2154 14.3575H19.5394L19.5807 13.9293H19.5689C19.4292 14.1006 19.2826 14.2246 19.1291 14.3014C18.9775 14.3781 18.8103 14.4165 18.6272 14.4165ZM18.9992 13.699C19.1291 13.699 19.255 13.632 19.377 13.4982C19.501 13.3623 19.6004 13.1822 19.6752 12.9578C19.75 12.7334 19.7873 12.4922 19.7873 12.2343C19.7873 12.0768 19.75 11.9508 19.6752 11.8563C19.6024 11.7618 19.502 11.7146 19.3741 11.7146C19.2403 11.7146 19.1123 11.7855 18.9903 11.9272C18.8703 12.0689 18.7739 12.256 18.701 12.4883C18.6302 12.7206 18.5948 12.9509 18.5948 13.1793C18.5948 13.5257 18.7296 13.699 18.9992 13.699Z" fill="#C52C26"/>
<path d="M22.8369 11.6349C22.6637 11.6349 22.5004 11.7136 22.3469 11.8711C22.1934 12.0286 22.093 12.2205 22.0458 12.4469H22.1786C22.4836 12.4469 22.7208 12.3997 22.89 12.3052C23.0612 12.2087 23.1468 12.0788 23.1468 11.9154C23.1468 11.7284 23.0435 11.6349 22.8369 11.6349ZM22.3528 14.4165C21.9395 14.4165 21.6187 14.3053 21.3905 14.0829C21.1622 13.8604 21.048 13.5464 21.048 13.1409C21.048 12.7334 21.1287 12.3623 21.2901 12.0276C21.4534 11.691 21.6738 11.435 21.9513 11.2598C22.2288 11.0827 22.5427 10.9941 22.893 10.9941C23.2413 10.9941 23.5129 11.0748 23.7077 11.2362C23.9025 11.3957 23.9999 11.6152 23.9999 11.8947C23.9999 12.2629 23.8356 12.5473 23.507 12.7481C23.1783 12.947 22.709 13.0464 22.0989 13.0464H21.9484L21.9425 13.1084V13.1674C21.9425 13.3466 21.9926 13.4883 22.093 13.5927C22.1953 13.695 22.341 13.7462 22.5299 13.7462C22.7011 13.7462 22.8566 13.7275 22.9963 13.6901C23.136 13.6527 23.3053 13.5868 23.504 13.4923V14.1626C23.1655 14.3319 22.7818 14.4165 22.3528 14.4165Z" fill="#C52C26"/>
<path d="M2.31129 9.85265C2.66902 9.55068 3.35977 9.24909 4.27605 9.00628C5.1876 8.76473 6.30754 8.58517 7.51059 8.51842C9.92 8.38473 12.6433 8.70449 14.6888 9.86532L14.8073 9.65659C12.7053 8.4637 9.92921 8.14385 7.49729 8.27878C6.27966 8.34634 5.14344 8.52815 4.21457 8.77429C3.29042 9.01918 2.55648 9.33161 2.15648 9.66926L2.31129 9.85265Z" fill="#005284"/>
<path d="M15.8967 9.51904C15.8967 9.45224 15.9508 9.39809 16.0176 9.39809H16.3803C16.4471 9.39809 16.5012 9.45224 16.5012 9.51904V9.82142H16.8035C16.8703 9.82142 16.9244 9.87557 16.9244 9.94237V10.3052C16.9244 10.372 16.8703 10.4262 16.8035 10.4262H16.5012V10.7286C16.5012 10.7954 16.4471 10.8495 16.3803 10.8495H16.0176C15.9508 10.8495 15.8967 10.7954 15.8967 10.7286V10.4262H15.5944C15.5276 10.4262 15.4735 10.372 15.4735 10.3052V9.94237C15.4735 9.87557 15.5276 9.82142 15.5944 9.82142H15.8967V9.51904Z" fill="#005284"/>
<path d="M0 14.3571L0.920992 10.0399H1.82132L0.900329 14.3571H0Z" fill="#005284"/>
<path fill-rule="evenodd" clip-rule="evenodd" d="M3.94988 10.9937C4.2372 10.9937 4.46351 11.1 4.62881 11.3126C4.79609 11.5233 4.87972 11.8186 4.87972 12.1985C4.87972 12.5745 4.81183 12.9368 4.67604 13.2852C4.54222 13.6317 4.35822 13.9073 4.12404 14.112C3.88985 14.3148 3.63206 14.4162 3.35064 14.4162C3.1873 14.4162 3.0466 14.3798 2.92852 14.3069C2.81044 14.2341 2.70122 14.1101 2.60086 13.9349H2.57724C2.55363 14.2479 2.51132 14.5382 2.45031 14.806L2.23778 15.81H1.34925L2.3588 11.0557H3.03774L2.98756 11.5577H3.01412C3.2857 11.1817 3.59762 10.9937 3.94988 10.9937ZM3.5927 11.7142C3.45888 11.7142 3.32899 11.7812 3.20305 11.915C3.07907 12.0469 2.9787 12.2241 2.90195 12.4466C2.82717 12.6671 2.78978 12.9112 2.78978 13.1789C2.78978 13.3364 2.82619 13.4624 2.899 13.5569C2.97181 13.6514 3.07218 13.6986 3.20009 13.6986C3.33195 13.6986 3.45789 13.6307 3.57794 13.4949C3.69798 13.359 3.79441 13.173 3.86722 12.9368C3.94201 12.6986 3.9794 12.4643 3.9794 12.234C3.9794 11.8875 3.8505 11.7142 3.5927 11.7142Z" fill="#005284"/>
<path fill-rule="evenodd" clip-rule="evenodd" d="M5.51757 14.0825C5.74585 14.305 6.06662 14.4162 6.47989 14.4162C6.9089 14.4162 7.29265 14.3315 7.63113 14.1622V13.4919C7.43237 13.5864 7.26313 13.6524 7.1234 13.6898C6.98368 13.7272 6.82821 13.7459 6.657 13.7459C6.46808 13.7459 6.32246 13.6947 6.22012 13.5923C6.11976 13.488 6.06958 13.3462 6.06958 13.1671V13.108L6.07548 13.046H6.22603C6.83609 13.046 7.30544 12.9466 7.63408 12.7478C7.96273 12.547 8.12705 12.2625 8.12705 11.8944C8.12705 11.6148 8.02964 11.3953 7.83481 11.2359C7.63999 11.0744 7.36841 10.9937 7.02009 10.9937C6.6698 10.9937 6.35591 11.0823 6.07843 11.2595C5.80095 11.4347 5.58054 11.6906 5.41721 12.0273C5.25584 12.3619 5.17515 12.733 5.17515 13.1405C5.17515 13.5461 5.28929 13.8601 5.51757 14.0825ZM6.47399 11.8707C6.62749 11.7133 6.79082 11.6345 6.964 11.6345C7.17063 11.6345 7.27395 11.728 7.27395 11.915C7.27395 12.0784 7.18835 12.2084 7.01714 12.3048C6.84789 12.3993 6.61076 12.4466 6.30573 12.4466H6.17289C6.22012 12.2202 6.32049 12.0282 6.47399 11.8707Z" fill="#005284"/>
<path d="M10.4859 13.2675C10.4859 13.6376 10.3629 13.9221 10.1169 14.1209C9.87284 14.3178 9.53239 14.4162 9.09551 14.4162C8.88494 14.4162 8.70094 14.4014 8.5435 14.3719C8.38804 14.3424 8.24241 14.2931 8.10662 14.2242V13.4919C8.41559 13.6691 8.72947 13.7577 9.04828 13.7577C9.20571 13.7577 9.33461 13.7262 9.43498 13.6632C9.53534 13.5982 9.58552 13.5106 9.58552 13.4004C9.58552 13.3157 9.54912 13.2399 9.4763 13.173C9.40349 13.1061 9.27459 13.0214 9.0896 12.919C8.85149 12.7852 8.68519 12.6523 8.59073 12.5204C8.49627 12.3865 8.44904 12.229 8.44904 12.0479C8.44904 11.7133 8.55728 11.4544 8.77375 11.2713C8.99219 11.0862 9.30313 10.9937 9.70655 10.9937C10.1021 10.9937 10.4593 11.0872 10.7781 11.2743L10.4859 11.9091C10.2103 11.7438 9.95648 11.6611 9.72426 11.6611C9.61209 11.6611 9.52157 11.6867 9.45269 11.7379C9.38381 11.7871 9.34937 11.854 9.34937 11.9387C9.34937 12.0154 9.38086 12.0834 9.44383 12.1424C9.50681 12.1995 9.62488 12.2723 9.79806 12.3609C10.0401 12.485 10.2153 12.6198 10.3235 12.7655C10.4317 12.9112 10.4859 13.0785 10.4859 13.2675Z" fill="#005284"/>
</svg>
