<svg width="200" height="96" viewBox="0 0 200 96" fill="none" xmlns="http://www.w3.org/2000/svg">
<path d="M98.8424 67.3846C96.4317 67.3846 94.5294 66.5151 93.1354 64.7761C91.7579 63.0208 91.0691 60.5682 91.0691 57.4184C91.0691 54.1701 91.6595 51.0777 92.8402 48.1412C94.021 45.1883 95.5707 42.9079 97.4895 41.3002C99.4082 39.6761 101.516 38.864 103.811 38.864C105.402 38.864 106.772 39.2085 107.92 39.8976C109.084 40.5866 109.986 41.5873 110.625 42.8997H110.822L112.224 39.3808H117.931L112.077 66.8924H106.444L106.788 63.3243H106.69C104.492 66.0311 101.876 67.3846 98.8424 67.3846ZM101.745 61.4049C102.877 61.4049 103.967 60.8553 105.017 59.7561C106.066 58.657 106.911 57.1723 107.551 55.3021C108.19 53.4155 108.51 51.2828 108.51 48.904C108.51 47.7393 108.19 46.7796 107.551 46.0249C106.927 45.2539 106.099 44.8684 105.066 44.8684C103.951 44.8684 102.885 45.4589 101.868 46.6401C100.868 47.8213 100.064 49.3798 99.4574 51.3156C98.867 53.2514 98.5718 55.1709 98.5718 57.0739C98.5718 58.5175 98.8424 59.6003 99.3836 60.3221C99.9412 61.0439 100.728 61.4049 101.745 61.4049Z" fill="#C52C26"/>
<path d="M123.247 39.3808H130.651L127.281 55.4497C127.019 56.5653 126.887 57.5414 126.887 58.3781C126.887 60.3959 127.773 61.4049 129.544 61.4049C131.053 61.4049 132.422 60.4698 133.652 58.5996C134.882 56.7294 135.85 54.1209 136.555 50.7742L138.966 39.3808H146.37L140.54 66.8924H134.882L135.399 61.7986H135.251C132.873 65.5226 129.962 67.3846 126.518 67.3846C124.255 67.3846 122.525 66.712 121.328 65.3667C120.131 64.0051 119.532 62.0447 119.532 59.4854C119.532 57.9597 119.729 56.2126 120.123 54.244L123.247 39.3808Z" fill="#C52C26"/>
<path d="M155.228 67.3846C152.817 67.3846 150.915 66.5069 149.521 64.7515C148.143 62.9962 147.454 60.5354 147.454 57.3692C147.454 54.1537 148.036 51.0859 149.201 48.1658C150.382 45.2293 151.931 42.9489 153.85 41.3248C155.769 39.6843 157.884 38.864 160.197 38.864C161.541 38.864 162.698 39.1675 163.665 39.7745C164.649 40.3815 165.576 41.4232 166.445 42.8997H166.642L166.691 42.2107C166.789 40.4061 166.994 38.8066 167.306 37.4122L169.175 28.6025H176.58L168.462 66.8924H162.829L163.173 63.3243H163.075C161.91 64.7515 160.689 65.7851 159.409 66.4249C158.147 67.0647 156.753 67.3846 155.228 67.3846ZM158.327 61.4049C159.409 61.4049 160.459 60.8471 161.476 59.7315C162.509 58.5996 163.337 57.0985 163.96 55.2283C164.584 53.3581 164.895 51.3484 164.895 49.1993C164.895 47.8869 164.584 46.837 163.96 46.0495C163.354 45.2621 162.517 44.8684 161.451 44.8684C160.336 44.8684 159.27 45.4589 158.253 46.6401C157.253 47.8213 156.449 49.3798 155.843 51.3156C155.252 53.2514 154.957 55.1709 154.957 57.0739C154.957 59.9612 156.08 61.4049 158.327 61.4049Z" fill="#C52C26"/>
<path d="M190.308 44.2039C188.865 44.2039 187.504 44.8602 186.225 46.1726C184.945 47.485 184.109 49.0845 183.715 50.9711H184.822C187.364 50.9711 189.34 50.5774 190.751 49.7899C192.178 48.9861 192.891 47.9033 192.891 46.5417C192.891 44.9832 192.03 44.2039 190.308 44.2039ZM186.274 67.3846C182.83 67.3846 180.157 66.4577 178.254 64.6039C176.352 62.7501 175.401 60.1334 175.401 56.754C175.401 53.3581 176.073 50.2657 177.418 47.4768C178.779 44.6715 180.616 42.5388 182.928 41.0787C185.241 39.6023 187.856 38.864 190.775 38.864C193.678 38.864 195.941 39.5366 197.565 40.8819C199.188 42.2107 200 44.0399 200 46.3694C200 49.4372 198.631 51.8078 195.892 53.4811C193.153 55.138 189.242 55.9665 184.158 55.9665H182.904L182.854 56.4833V56.9754C182.854 58.4683 183.273 59.6495 184.109 60.519C184.962 61.372 186.175 61.7986 187.75 61.7986C189.176 61.7986 190.472 61.6427 191.636 61.331C192.801 61.0193 194.211 60.4698 195.867 59.6823V65.2683C193.047 66.6791 189.849 67.3846 186.274 67.3846Z" fill="#C52C26"/>
<path d="M19.2608 29.3554C22.2419 26.839 27.9981 24.3257 35.6337 22.3024C43.23 20.2894 52.5629 18.793 62.5882 18.2368C82.6667 17.1227 105.361 19.7874 122.407 29.461L123.394 27.7216C105.877 17.7809 82.7435 15.1154 62.4774 16.2399C52.3305 16.8029 42.862 18.3179 35.1214 20.3691C27.4202 22.4099 21.304 25.0134 17.9707 27.8271L19.2608 29.3554Z" fill="#005284"/>
<path d="M132.472 26.5753C132.472 26.0187 132.923 25.5674 133.48 25.5674H136.503C137.059 25.5674 137.51 26.0187 137.51 26.5753V29.0952H140.029C140.586 29.0952 141.037 29.5464 141.037 30.1031V33.1269C141.037 33.6836 140.586 34.1349 140.029 34.1349H137.51V36.6547C137.51 37.2114 137.059 37.6627 136.503 37.6627H133.48C132.923 37.6627 132.472 37.2114 132.472 36.6547V34.1349H129.953C129.397 34.1349 128.946 33.6836 128.946 33.1269V30.1031C128.946 29.5464 129.397 29.0952 129.953 29.0952H132.472V26.5753Z" fill="#005284"/>
<path d="M0 66.8928L7.67494 30.916H15.1777L7.50274 66.8928H0Z" fill="#005284"/>
<path fill-rule="evenodd" clip-rule="evenodd" d="M32.9156 38.8644C35.31 38.8644 37.1959 39.7502 38.5735 41.522C39.9674 43.2774 40.6644 45.7382 40.6644 48.9044C40.6644 52.0378 40.0986 55.0564 38.967 57.9601C37.8519 60.8474 36.3185 63.1442 34.367 64.8503C32.4155 66.54 30.2671 67.3849 27.922 67.3849C26.5609 67.3849 25.3883 67.0814 24.4043 66.4744C23.4204 65.8674 22.5102 64.8339 21.6738 63.3738H21.477C21.2802 65.9823 20.9277 68.402 20.4193 70.6332L18.6481 78.9998H11.2438L19.6567 39.3811H25.3145L24.8963 43.5645H25.1177C27.3808 40.4311 29.9802 38.8644 32.9156 38.8644ZM29.9391 44.8687C28.824 44.8687 27.7416 45.4265 26.6921 46.542C25.6589 47.6412 24.8225 49.1177 24.1829 50.9714C23.5598 52.8088 23.2482 54.8431 23.2482 57.0742C23.2482 58.3866 23.5516 59.4366 24.1583 60.224C24.7651 61.0115 25.6015 61.4052 26.6675 61.4052C27.7662 61.4052 28.8158 60.8392 29.8162 59.7072C30.8165 58.5753 31.6201 57.025 32.2269 55.0564C32.8501 53.0713 33.1616 51.1191 33.1616 49.1997C33.1616 46.3124 32.0875 44.8687 29.9391 44.8687Z" fill="#005284"/>
<path fill-rule="evenodd" clip-rule="evenodd" d="M45.9798 64.6042C47.8821 66.458 50.5552 67.3849 53.9991 67.3849C57.5742 67.3849 60.7721 66.6795 63.5928 65.2686V59.6826C61.9364 60.4701 60.5261 61.0197 59.3617 61.3314C58.1974 61.6431 56.9018 61.7989 55.475 61.7989C53.9007 61.7989 52.6871 61.3724 51.8344 60.5193C50.998 59.6498 50.5798 58.4687 50.5798 56.9758V56.4836L50.629 55.9669H51.8836C56.9674 55.9669 60.8787 55.1384 63.6174 53.4815C66.3561 51.8081 67.7254 49.4376 67.7254 46.3698C67.7254 44.0402 66.9137 42.211 65.2901 40.8822C63.6666 39.537 61.4034 38.8644 58.5007 38.8644C55.5816 38.8644 52.9659 39.6026 50.6536 41.0791C48.3413 42.5391 46.5046 44.6718 45.1434 47.4771C43.7986 50.266 43.1263 53.3584 43.1263 56.7543C43.1263 60.1338 44.0774 62.7504 45.9798 64.6042ZM53.9499 46.1729C55.2291 44.8605 56.5902 44.2043 58.0334 44.2043C59.7553 44.2043 60.6163 44.9835 60.6163 46.542C60.6163 47.9037 59.9029 48.9864 58.4761 49.7903C57.0658 50.5777 55.0897 50.9714 52.5477 50.9714H51.4408C51.8344 49.0848 52.6707 47.4853 53.9499 46.1729Z" fill="#005284"/>
<path d="M87.3821 57.8124C87.3821 60.8966 86.3572 63.2672 84.3072 64.9241C82.2737 66.5646 79.4366 67.3849 75.7959 67.3849C74.0412 67.3849 72.5078 67.2619 71.1959 67.0158C69.9003 66.7697 68.6868 66.3596 67.5552 65.7854V59.6826C70.1299 61.1591 72.7456 61.8974 75.4023 61.8974C76.7143 61.8974 77.7885 61.6349 78.6248 61.1099C79.4612 60.5685 79.8794 59.8385 79.8794 58.9198C79.8794 58.2144 79.576 57.5828 78.9692 57.025C78.3624 56.4672 77.2883 55.7618 75.7467 54.9087C73.7624 53.7932 72.3766 52.6858 71.5895 51.5866C70.8023 50.4711 70.4087 49.1587 70.4087 47.6494C70.4087 44.8605 71.3107 42.7032 73.1146 41.1775C74.935 39.6354 77.5261 38.8644 80.888 38.8644C84.1842 38.8644 87.1607 39.6436 89.8174 41.2021L87.3821 46.4928C85.0862 45.1148 82.9707 44.4257 81.0355 44.4257C80.1008 44.4257 79.3464 44.639 78.7724 45.0656C78.1984 45.4757 77.9115 46.0335 77.9115 46.7389C77.9115 47.3787 78.1738 47.9447 78.6986 48.4368C79.2234 48.9126 80.2074 49.5196 81.6505 50.2578C83.6677 51.2913 85.1272 52.4151 86.0292 53.6291C86.9311 54.8431 87.3821 56.2375 87.3821 57.8124Z" fill="#005284"/>
</svg>
