<svg width="64" height="96" viewBox="0 0 64 96" fill="none" xmlns="http://www.w3.org/2000/svg">
<path d="M42.53 36H38.5642C35.8291 36.6865 29.812 38.6037 29.812 41.4419C29.812 45.2567 38.1539 47.1153 38.1539 51.907C38.1539 55.7219 26.21 59.1405 23.8852 59.9079C23.8086 59.934 23.7293 59.9647 23.6472 60H42.53C43.9807 60 45.3721 59.412 46.3979 58.3652C47.4238 57.3185 48.0001 55.8989 48.0001 54.4186V41.5814C48.0001 40.1011 47.4238 38.6815 46.3979 37.6348C45.3721 36.588 43.9807 36 42.53 36V36Z" fill="#F8D001"/>
<path d="M21.038 59.9777C19.6671 59.8668 18.3875 59.2332 17.4539 58.2031C16.5203 57.1729 16.0012 55.8217 16 54.4186V41.5814C16 40.1011 16.5763 38.6815 17.6022 37.6348C18.628 36.588 20.0193 36 21.4701 36H33.2308L32.8205 36.0698C25.4359 37.3033 23.1111 38.7433 23.1111 40.186C23.1111 42.7898 31.3163 45.0698 31.3163 50.5814C31.3163 54.8874 21.1556 59.8493 21.038 59.9777ZM26.9402 48.5581H24.2051V45.7674H21.1966V48.5581H18.4615V51.3488H21.1966V53.8605H24.2051V51.3488H26.9402V48.5581Z" fill="#027642"/>
</svg>
