<svg width="24" height="24" viewBox="0 0 24 24" fill="none" xmlns="http://www.w3.org/2000/svg">
<path d="M19.8974 3H16.9231C14.8718 3.51488 10.3589 4.95279 10.3589 7.0814C10.3589 9.94256 16.6154 11.3365 16.6154 14.9302C16.6154 17.7914 7.65741 20.3553 5.91381 20.9309C5.85638 20.9505 5.79689 20.9735 5.73535 21H19.8974C20.9855 21 22.029 20.559 22.7984 19.7739C23.5678 18.9889 24 17.9242 24 16.814V7.18605C24 6.07584 23.5678 5.0111 22.7984 4.22606C22.029 3.44103 20.9855 3 19.8974 3V3Z" fill="#F8D001"/>
<path d="M3.77847 20.9833C2.75034 20.9001 1.79063 20.4249 1.09042 19.6523C0.390218 18.8797 0.000902062 17.8663 0 16.814L0 7.18605C0 6.07584 0.432234 5.0111 1.20161 4.22606C1.971 3.44103 3.0145 3 4.10257 3L12.9231 3L12.6154 3.05233C7.07693 3.97744 5.33334 5.05744 5.33334 6.13953C5.33334 8.09233 11.4872 9.80233 11.4872 13.936C11.4872 17.1656 3.86667 20.887 3.77847 20.9833ZM8.20514 12.4186H6.15385V10.3256H3.89744V12.4186H1.84616V14.5116H3.89744V16.3953H6.15385V14.5116H8.20514V12.4186Z" fill="#027642"/>
</svg>
