<svg width="200" height="96" viewBox="0 0 200 96" fill="none" xmlns="http://www.w3.org/2000/svg">
<path d="M66.9829 58.9591L70.0224 51.6336C71.1622 52.4484 72.3866 53.1409 73.6748 53.6994C74.6225 54.1067 75.6415 54.3273 76.6748 54.3489C77.2139 54.3775 77.7497 54.2502 78.2168 53.9826C78.387 53.881 78.5278 53.7377 78.6256 53.5666C78.7235 53.3955 78.775 53.2024 78.7752 53.0059C78.7752 52.2782 77.8411 51.7263 75.968 51.3405L74.5545 51.0377C72.8043 50.6901 71.2117 49.8005 70.0076 48.4982C68.9358 47.2229 68.3748 45.6034 68.431 43.9466C68.3899 42.6471 68.6437 41.3549 69.174 40.1651C69.7042 38.9752 70.4974 37.9177 71.4952 37.0703C73.5348 35.3089 76.2102 34.4266 79.5215 34.4233C81.0393 34.4122 82.5518 34.6011 84.019 34.9849C85.5659 35.4089 87.0583 36.007 88.4671 36.7675L85.566 43.6291C84.7186 42.9982 83.7894 42.4824 82.8032 42.0956C81.9477 41.7571 81.0361 41.5783 80.1146 41.5682C79.5797 41.5392 79.0468 41.654 78.5726 41.9003C78.4053 41.9904 78.2662 42.1241 78.1703 42.2868C78.0745 42.4495 78.0256 42.6351 78.029 42.8233C78.029 43.5624 79.3469 44.2136 81.9828 44.7768C82.4029 44.8745 82.734 44.9477 82.9713 44.9917C84.6526 45.3136 86.1727 46.1921 87.2809 47.4824C88.342 48.7617 88.9017 50.3756 88.8575 52.0291C88.8971 53.3734 88.6323 54.7094 88.0825 55.9397C87.5327 57.1699 86.7118 58.2632 85.6796 59.1398C83.5577 60.9761 80.7999 61.8942 77.4062 61.8942C75.645 61.8977 73.8919 61.6594 72.197 61.1861C70.3744 60.6543 68.6237 59.9066 66.9829 58.9591Z" fill="#1C358A"/>
<path d="M92.0603 61.1861V34.985H109.798V42.0908H101.396V44.6157H109.007V51.3308H101.396V54.0901H110.016V61.1861H92.0603Z" fill="#1C358A"/>
<path d="M111.464 58.9592L114.508 51.6336C115.647 52.4494 116.872 53.142 118.16 53.6994C119.108 54.1076 120.127 54.3282 121.16 54.3489C121.698 54.378 122.232 54.2506 122.697 53.9826C122.869 53.882 123.011 53.7391 123.11 53.5678C123.209 53.3966 123.261 53.203 123.261 53.0059C123.261 52.2782 122.327 51.7264 120.454 51.3406L119.04 51.0378C117.289 50.692 115.696 49.8022 114.493 48.4982C113.42 47.2237 112.857 45.604 112.912 43.9466C112.872 42.6472 113.126 41.3555 113.656 40.1657C114.186 38.976 114.979 37.9184 115.976 37.0703C118.015 35.3089 120.691 34.4266 124.002 34.4233C125.521 34.4222 127.034 34.6209 128.5 35.0143C130.046 35.4277 131.538 36.016 132.948 36.7675L130.052 43.6292C129.204 42.9982 128.275 42.4824 127.289 42.0957C126.433 41.7571 125.522 41.5783 124.6 41.5682C124.065 41.5393 123.532 41.654 123.058 41.9003C122.891 41.99 122.751 42.1236 122.655 42.2864C122.559 42.4492 122.511 42.635 122.515 42.8233C122.515 43.5624 123.833 44.2136 126.468 44.7768C126.889 44.8745 127.215 44.9478 127.457 44.9917C129.138 45.3137 130.658 46.1922 131.767 47.4824C132.828 48.7617 133.387 50.3757 133.343 52.0292C133.383 53.3734 133.118 54.7095 132.568 55.9397C132.018 57.1699 131.197 58.2633 130.165 59.1399C128.047 60.9761 125.289 61.8943 121.892 61.8943C120.131 61.8977 118.378 61.6594 116.683 61.1861C114.859 60.6535 113.107 59.9058 111.464 58.9592Z" fill="#1C358A"/>
<path d="M133.027 61.1861L142.486 34.985H153.107L162.384 61.1861H152.124L151.274 57.8945H144.083L143.267 61.1861H133.027ZM145.674 51.6629H149.628L148.813 48.6887C148.417 47.1845 148.14 46.0271 147.997 45.2164C147.861 44.4588 147.77 43.694 147.725 42.9259H147.562C147.522 43.6944 147.431 44.4595 147.29 45.2164C147.145 46.0271 146.874 47.1845 146.475 48.6887L145.674 51.6629Z" fill="#1C358A"/>
<path d="M163.847 61.1861V34.985H175.244C179.257 34.985 182.19 35.7485 184.041 37.2755C185.893 38.8024 186.819 41.2264 186.819 44.5473C186.819 47.6371 185.985 49.895 184.318 51.321C182.651 52.7471 180.008 53.4601 176.391 53.4601H173.425V61.1861H163.847ZM173.435 42.2617V46.6278H174.918C175.657 46.6768 176.392 46.479 177.004 46.0661C177.245 45.8758 177.437 45.631 177.564 45.3523C177.69 45.0737 177.747 44.7692 177.73 44.4643C177.745 44.1549 177.685 43.8466 177.555 43.5646C177.425 43.2827 177.229 43.0353 176.984 42.8429C176.382 42.4236 175.653 42.2186 174.918 42.2617H173.435Z" fill="#1C358A"/>
<path d="M190.303 61.1861V34.985H200V61.1861H190.303Z" fill="#1C358A"/>
<path d="M47.9402 27H40.7739C35.8316 28.2014 24.9585 31.5565 24.9585 36.5233C24.9585 43.1993 40.0326 46.4519 40.0326 54.8372C40.0326 61.5133 18.4495 67.4958 14.2486 68.8388C14.1102 68.8844 13.9669 68.9381 13.8186 69H47.9402C50.5618 69 53.076 67.9709 54.9297 66.1392C56.7834 64.3074 57.8248 61.823 57.8248 59.2326V36.7674C57.8248 34.177 56.7834 31.6926 54.9297 29.8608C53.076 28.0291 50.5618 27 47.9402 27V27Z" fill="#F8D001"/>
<path d="M9.10371 68.9609C6.62659 68.7669 4.31428 67.6582 2.62723 65.8554C0.940178 64.0525 0.0021734 61.688 0 59.2326L0 36.7674C0 34.177 1.04141 31.6926 2.89513 29.8608C4.74885 28.0291 7.26304 27 9.8846 27H31.1365L30.3951 27.1221C17.0509 29.2807 12.85 31.8007 12.85 34.3256C12.85 38.8821 27.6769 42.8721 27.6769 52.5174C27.6769 60.053 9.31623 68.7363 9.10371 68.9609ZM19.7692 48.9767H14.8269V44.093H9.39037V48.9767H4.44807V53.8605H9.39037V58.2558H14.8269V53.8605H19.7692V48.9767Z" fill="#027642"/>
</svg>
