<svg width="200" height="96" viewBox="0 0 200 96" fill="none" xmlns="http://www.w3.org/2000/svg">
<path d="M66.9632 58.9395L70.0272 51.614C71.4109 52.5419 72.597 53.2256 73.6842 53.6651C74.7714 54.1047 75.7598 54.3 76.6988 54.3C77.3412 54.3 77.8849 54.2023 78.2308 53.9093C78.6261 53.6651 78.7744 53.3233 78.7744 52.9326C78.7744 52.2 77.8354 51.6628 75.9575 51.2721C75.3645 51.1256 74.8703 51.0279 74.5243 50.9791C72.5476 50.4907 71.0156 49.6605 69.9778 48.4395C68.94 47.2186 68.3963 45.7047 68.3963 43.8977C68.3963 41.0651 69.4342 38.7698 71.4603 37.0116C73.4865 35.2535 76.1552 34.3744 79.4663 34.3744C80.9983 34.3744 82.4809 34.5698 83.9634 34.9605C85.446 35.3512 86.9286 35.9372 88.4112 36.7674L85.4954 43.6047C84.5565 42.9209 83.6669 42.4326 82.7279 42.0907C81.789 41.7488 80.8994 41.5535 80.0593 41.5535C79.4169 41.5535 78.8732 41.6512 78.5273 41.8954C78.1814 42.1395 77.9837 42.4326 77.9837 42.8233C77.9837 43.5558 79.318 44.1907 81.9372 44.7767C82.382 44.8744 82.6785 44.9233 82.9256 44.9721C84.7541 45.3628 86.1873 46.193 87.2251 47.4628C88.2629 48.7326 88.8065 50.2465 88.8065 52.0047C88.8065 54.8861 87.7687 57.2791 85.6437 59.1349C83.5187 60.9907 80.7512 61.8698 77.3907 61.8698C75.661 61.8698 73.9313 61.6256 72.1522 61.1372C70.472 60.6488 68.6929 59.9163 66.9632 58.9395ZM92.0682 61.1861V34.9605H109.81V42.0907H101.408V44.6302H109.019V51.3209H101.408V54.0558H110.007V61.1861H92.0682ZM111.441 58.9395L114.505 51.614C115.888 52.5419 117.074 53.2256 118.162 53.6651C119.249 54.1047 120.237 54.3 121.176 54.3C121.819 54.3 122.362 54.2023 122.708 53.9093C123.104 53.6651 123.252 53.3233 123.252 52.9326C123.252 52.2 122.313 51.6628 120.435 51.2721C119.842 51.1256 119.348 51.0279 119.002 50.9791C117.025 50.4907 115.493 49.6605 114.455 48.4395C113.417 47.2186 112.874 45.7047 112.874 43.8977C112.874 41.0651 113.912 38.7698 115.938 37.0116C117.964 35.2535 120.633 34.3744 123.944 34.3744C125.476 34.3744 126.958 34.5698 128.441 34.9605C129.923 35.3512 131.406 35.9372 132.889 36.7674L129.973 43.6047C129.034 42.9209 128.144 42.4326 127.205 42.0907C126.266 41.7488 125.377 41.5535 124.537 41.5535C123.894 41.5535 123.351 41.6512 123.005 41.8954C122.659 42.1395 122.461 42.4326 122.461 42.8233C122.461 43.5558 123.795 44.1907 126.415 44.7767C126.859 44.8744 127.156 44.9233 127.403 44.9721C129.232 45.3628 130.665 46.193 131.702 47.4628C132.74 48.7326 133.284 50.2465 133.284 52.0047C133.284 54.8861 132.246 57.2791 130.121 59.1349C127.996 60.9907 125.229 61.8698 121.868 61.8698C120.138 61.8698 118.409 61.6256 116.63 61.1372C114.949 60.6488 113.22 59.9163 111.441 58.9395ZM133.037 61.1861L142.476 34.9605H153.101L162.392 61.1861H152.113L151.273 57.914H144.057L143.267 61.1861H133.037ZM145.688 51.6628H149.642L148.851 48.6837C148.456 47.1698 148.159 45.9977 148.011 45.2163C147.863 44.386 147.764 43.6535 147.764 42.9209H147.616C147.566 43.6535 147.467 44.386 147.368 45.2163C147.22 46.0465 146.973 47.1698 146.528 48.6837L145.688 51.6628ZM163.825 61.1861V34.9605H175.241C179.244 34.9605 182.16 35.7419 184.038 37.2558C185.915 38.7698 186.805 41.2116 186.805 44.5326C186.805 47.6093 185.965 49.9047 184.285 51.3209C182.604 52.7372 179.985 53.4698 176.328 53.4698H173.363V61.1861H163.825ZM173.412 42.286V46.6326H174.895C175.785 46.6326 176.476 46.4372 176.971 46.0465C177.465 45.6558 177.712 45.1186 177.712 44.4349C177.712 43.7512 177.465 43.214 176.971 42.8233C176.476 42.4326 175.785 42.2372 174.895 42.2372H173.412V42.286ZM190.314 61.1861V34.9605H200V61.1861H190.314ZM47.9367 27H40.7709C35.829 28.2209 24.9568 31.5419 24.9568 36.5233C24.9568 43.214 40.0297 46.4372 40.0297 54.8372C40.0297 61.5279 18.4334 67.4861 14.2328 68.8535C14.0845 68.9023 13.9362 68.9512 13.788 69H47.8873C53.3234 69 57.7712 64.6047 57.7712 59.2326V36.7674C57.8206 31.3953 53.3729 27 47.9367 27ZM9.09315 68.9512C4.00296 68.5605 0 64.3605 0 59.2326V36.7674C0 31.3953 4.44774 27 9.88386 27H31.1342C30.8871 27.0488 30.64 27.0977 30.3929 27.0977C17.0497 29.2953 12.849 31.786 12.849 34.3256C12.849 38.8674 27.6748 42.8721 27.6748 52.493C27.6748 60.0628 9.34025 68.7558 9.09315 68.9512ZM19.7677 48.9767H14.8258V44.093H9.38967V48.9767H4.44774V53.8605H9.38967V58.2558H14.8258V53.8605H19.7677V48.9767Z" fill="#008AD2"/>
</svg>
