<svg width="160" height="24" viewBox="0 0 160 24" fill="none" xmlns="http://www.w3.org/2000/svg">
<path d="M38.2647 18.2512L40.0155 14.0651C40.8062 14.5954 41.484 14.986 42.1053 15.2372C42.7265 15.4884 43.2913 15.6 43.8279 15.6C44.195 15.6 44.5056 15.5442 44.7033 15.3767C44.9292 15.2372 45.0139 15.0419 45.0139 14.8186C45.0139 14.4 44.4774 14.093 43.4043 13.8698C43.0654 13.786 42.783 13.7302 42.5853 13.7023C41.4557 13.4233 40.5803 12.9488 39.9873 12.2512C39.3943 11.5535 39.0836 10.6884 39.0836 9.65581C39.0836 8.03721 39.6767 6.72558 40.8345 5.72093C41.9923 4.71628 43.5172 4.21395 45.4093 4.21395C46.2847 4.21395 47.1319 4.32558 47.9791 4.54884C48.8263 4.77209 49.6735 5.10698 50.5207 5.5814L48.8545 9.48837C48.318 9.09768 47.8097 8.81861 47.2731 8.62326C46.7365 8.42791 46.2282 8.31628 45.7482 8.31628C45.3811 8.31628 45.0704 8.37209 44.8727 8.51163C44.6751 8.65116 44.5621 8.81861 44.5621 9.04186C44.5621 9.46047 45.3246 9.82326 46.8213 10.1581C47.0754 10.214 47.2449 10.2419 47.3861 10.2698C48.4309 10.493 49.2499 10.9674 49.8429 11.693C50.4359 12.4186 50.7466 13.2837 50.7466 14.2884C50.7466 15.9349 50.1535 17.3023 48.9392 18.3628C47.7249 19.4233 46.1435 19.9256 44.2232 19.9256C43.2348 19.9256 42.2465 19.786 41.2298 19.507C40.2697 19.2279 39.2531 18.8093 38.2647 18.2512ZM52.6104 19.5349V4.54884H62.7484V8.62326H57.9477V10.0744H62.2966V13.8977H57.9477V15.4605H62.8614V19.5349H52.6104ZM63.6803 18.2512L65.4312 14.0651C66.2219 14.5954 66.8996 14.986 67.5209 15.2372C68.1422 15.4884 68.707 15.6 69.2435 15.6C69.6106 15.6 69.9213 15.5442 70.1189 15.3767C70.3449 15.2372 70.4296 15.0419 70.4296 14.8186C70.4296 14.4 69.893 14.093 68.8199 13.8698C68.481 13.786 68.1987 13.7302 68.001 13.7023C66.8714 13.4233 65.996 12.9488 65.4029 12.2512C64.8099 11.5535 64.4993 10.6884 64.4993 9.65581C64.4993 8.03721 65.0923 6.72558 66.2501 5.72093C67.4079 4.71628 68.9329 4.21395 70.8249 4.21395C71.7004 4.21395 72.5476 4.32558 73.3947 4.54884C74.2419 4.77209 75.0891 5.10698 75.9363 5.5814L74.2702 9.48837C73.7336 9.09768 73.2253 8.81861 72.6888 8.62326C72.1522 8.42791 71.6439 8.31628 71.1638 8.31628C70.7967 8.31628 70.4861 8.37209 70.2884 8.51163C70.0907 8.65116 69.9778 8.81861 69.9778 9.04186C69.9778 9.46047 70.7402 9.82326 72.2369 10.1581C72.4911 10.214 72.6605 10.2419 72.8017 10.2698C73.8466 10.493 74.6655 10.9674 75.2586 11.693C75.8516 12.4186 76.1622 13.2837 76.1622 14.2884C76.1622 15.9349 75.5692 17.3023 74.3549 18.3628C73.1406 19.4233 71.5592 19.9256 69.6389 19.9256C68.6505 19.9256 67.6621 19.786 66.6455 19.507C65.6853 19.2279 64.6969 18.8093 63.6803 18.2512ZM76.021 19.5349L81.4148 4.54884H87.4863L92.7954 19.5349H86.9215L86.4414 17.6651H82.3185L81.8666 19.5349H76.021ZM83.2504 14.093H85.5095L85.0577 12.3907C84.8318 11.5256 84.6623 10.8558 84.5776 10.4093C84.4929 9.93488 84.4364 9.51628 84.4364 9.09767H84.3517C84.3235 9.51628 84.267 9.93488 84.2105 10.4093C84.1258 10.8837 83.9846 11.5256 83.7304 12.3907L83.2504 14.093ZM93.6143 19.5349V4.54884H100.138C102.425 4.54884 104.091 4.99535 105.164 5.86047C106.237 6.72558 106.746 8.12093 106.746 10.0186C106.746 11.7767 106.266 13.0884 105.305 13.8977C104.345 14.707 102.849 15.1256 100.759 15.1256H99.0645V19.5349H93.6143ZM99.0928 8.73488V11.2186H99.94C100.448 11.2186 100.844 11.107 101.126 10.8837C101.408 10.6605 101.55 10.3535 101.55 9.96279C101.55 9.57209 101.408 9.26512 101.126 9.04186C100.844 8.81861 100.448 8.70698 99.94 8.70698H99.0928V8.73488ZM108.751 19.5349V4.54884H114.286V19.5349H108.751ZM27.3924 0H23.2977C20.4737 0.697674 14.261 2.59535 14.261 5.44186C14.261 9.26512 22.8741 11.107 22.8741 15.907C22.8741 19.7302 10.5334 23.1349 8.13301 23.9163C8.04829 23.9442 7.96357 23.9721 7.87885 24H27.3642C30.4705 24 33.0121 21.4884 33.0121 18.4186V5.5814C33.0403 2.51163 30.4988 0 27.3924 0ZM5.19609 23.9721C2.28741 23.7488 0 21.3488 0 18.4186V5.5814C0 2.51163 2.54156 0 5.64792 0H17.791C17.6498 0.027907 17.5086 0.055814 17.3674 0.055814C9.74266 1.31163 7.3423 2.73488 7.3423 4.18605C7.3423 6.7814 15.8142 9.06977 15.8142 14.5674C15.8142 18.893 5.33729 23.8605 5.19609 23.9721ZM11.2958 12.5581H8.47188V9.76744H5.36553V12.5581H2.54156V15.3488H5.36553V17.8605H8.47188V15.3488H11.2958V12.5581Z" fill="#008AD2"/>
</svg>
