<svg width="24" height="24" viewBox="0 0 24 24" fill="none" xmlns="http://www.w3.org/2000/svg">
<path fill-rule="evenodd" clip-rule="evenodd" d="M1.09042 19.6523C1.79063 20.4249 2.75034 20.9001 3.77847 20.9833C3.78811 20.9727 3.88771 20.9189 4.0575 20.8272C5.4413 20.0794 11.4872 16.8126 11.4872 13.936C11.4872 11.4862 9.3257 9.8876 7.56476 8.58527C6.35444 7.69016 5.33334 6.93499 5.33334 6.13953C5.33334 5.05744 7.07693 3.97744 12.6154 3.05233L12.9231 3H4.10257C3.0145 3 1.971 3.44103 1.20161 4.22606C0.432234 5.0111 0 6.07584 0 7.18605V16.814C0.000902062 17.8663 0.390218 18.8797 1.09042 19.6523ZM6.15385 12.4186H8.20514V14.5116H6.15385V16.3953H3.89744V14.5116H1.84616V12.4186H3.89744V10.3256H6.15385V12.4186Z" fill="#008AD2"/>
<path d="M16.9231 3H19.8974C20.9855 3 22.029 3.44103 22.7984 4.22606C23.5678 5.0111 24 6.07584 24 7.18605V16.814C24 17.9242 23.5678 18.9889 22.7984 19.7739C22.029 20.559 20.9855 21 19.8974 21H5.73535C5.79689 20.9735 5.85638 20.9505 5.91381 20.9309C6.06216 20.882 6.26273 20.8186 6.50556 20.7419C9.11687 19.9169 16.6154 17.548 16.6154 14.9302C16.6154 13.0311 14.8681 11.7463 13.2203 10.5346C11.75 9.45345 10.3589 8.43054 10.3589 7.0814C10.3589 4.95279 14.8718 3.51488 16.9231 3Z" fill="#008AD2"/>
</svg>
