<svg width="32" height="32" viewBox="0 0 32 32" fill="none" xmlns="http://www.w3.org/2000/svg">
<path fill-rule="evenodd" clip-rule="evenodd" d="M1.45389 26.2031C2.3875 27.2332 3.66712 27.8668 5.03795 27.9777C5.05081 27.9636 5.18361 27.8919 5.40999 27.7696C7.25507 26.7726 15.3163 22.4168 15.3163 18.5814C15.3163 15.3149 12.4343 13.1835 10.0863 11.447C8.47258 10.2535 7.11112 9.24665 7.11112 8.18605C7.11112 6.74326 9.43591 5.30326 16.8205 4.06977L17.2308 4H5.47009C4.01933 4 2.62799 4.58804 1.60215 5.63475C0.576311 6.68147 0 8.10112 0 9.5814V22.4186C0.00120275 23.8217 0.52029 25.1729 1.45389 26.2031ZM8.20514 16.5581H10.9402V19.3488H8.20514V21.8605H5.19659V19.3488H2.46154V16.5581H5.19659V13.7674H8.20514V16.5581Z" fill="#008AD2"/>
<path d="M22.5642 4H26.53C27.9807 4 29.3721 4.58804 30.3979 5.63475C31.4238 6.68147 32.0001 8.10112 32.0001 9.5814V22.4186C32.0001 23.8989 31.4238 25.3185 30.3979 26.3652C29.3721 27.412 27.9807 28 26.53 28H7.64722C7.72927 27.9647 7.80858 27.934 7.88517 27.9079C8.08296 27.8426 8.35038 27.7581 8.67415 27.6558C12.1559 26.5559 22.1539 23.3973 22.1539 19.907C22.1539 17.3748 19.8242 15.6617 17.6272 14.0461C15.6668 12.6046 13.812 11.2407 13.812 9.44186C13.812 6.60372 19.8291 4.68651 22.5642 4Z" fill="#008AD2"/>
</svg>
