<svg width="160" height="24" viewBox="0 0 160 24" fill="none" xmlns="http://www.w3.org/2000/svg">
<path d="M38.1802 18.2624L39.9127 14.0764C40.5624 14.542 41.2603 14.9377 41.9945 15.2569C42.5347 15.4896 43.1156 15.6157 43.7045 15.628C44.0118 15.6443 44.3172 15.5716 44.5835 15.4187C44.6805 15.3606 44.7608 15.2788 44.8165 15.181C44.8723 15.0832 44.9017 14.9729 44.9018 14.8606C44.9018 14.4448 44.3694 14.1294 43.3017 13.9089L42.496 13.7359C41.4984 13.5372 40.5906 13.029 39.9042 12.2848C39.2933 11.556 38.9735 10.6306 39.0056 9.68383C38.9821 8.94125 39.1268 8.2029 39.4291 7.52296C39.7313 6.84302 40.1834 6.23876 40.7522 5.75452C41.9147 4.74801 43.4397 4.24383 45.3272 4.24197C46.1923 4.2356 47.0544 4.34353 47.8908 4.5629C48.7725 4.80516 49.6232 5.14693 50.4262 5.5815L48.7725 9.50243C48.2895 9.14188 47.7599 8.84716 47.1977 8.62615C46.7101 8.43269 46.1905 8.3305 45.6652 8.32476C45.3603 8.3082 45.0566 8.37378 44.7863 8.51452C44.6909 8.56601 44.6116 8.64239 44.557 8.73537C44.5024 8.82836 44.4745 8.9344 44.4764 9.04197C44.4764 9.46429 45.2276 9.83639 46.7301 10.1582C46.9696 10.2141 47.1583 10.2559 47.2935 10.281C48.2519 10.465 49.1184 10.967 49.75 11.7043C50.3549 12.4353 50.6739 13.3576 50.6487 14.3024C50.6713 15.0706 50.5203 15.834 50.2069 16.537C49.8936 17.24 49.4256 17.8648 48.8373 18.3657C47.6278 19.415 46.0559 19.9396 44.1215 19.9396C43.1176 19.9416 42.1183 19.8054 41.1522 19.535C40.1134 19.2311 39.1154 18.8038 38.1802 18.2624Z" fill="#1C358A"/>
<path d="M52.4743 19.5351V4.56297H62.5849V8.62344H57.7958V10.0662H62.1342V13.9034H57.7958V15.4802H62.7089V19.5351H52.4743Z" fill="#1C358A"/>
<path d="M63.5342 18.2624L65.2695 14.0764C65.9188 14.5426 66.6168 14.9383 67.3514 15.2569C67.8914 15.4901 68.4724 15.6162 69.0614 15.628C69.3678 15.6446 69.6724 15.5719 69.9375 15.4187C70.0352 15.3612 70.1162 15.2795 70.1725 15.1817C70.2288 15.0838 70.2585 14.9732 70.2586 14.8606C70.2586 14.4448 69.7262 14.1294 68.6585 13.909L67.8528 13.7359C66.8548 13.5384 65.9467 13.0299 65.2611 12.2848C64.6491 11.5565 64.3283 10.6309 64.3596 9.68384C64.3368 8.94135 64.4817 8.20318 64.7839 7.52334C65.0861 6.84349 65.5379 6.23916 66.1062 5.75454C67.2687 4.74803 68.7937 4.24384 70.6812 4.24198C71.5471 4.24134 72.4092 4.3549 73.2448 4.57966C74.126 4.8159 74.9767 5.15208 75.7802 5.58152L74.1293 9.50245C73.6463 9.1419 73.1167 8.84717 72.5546 8.62617C72.0669 8.43271 71.5473 8.33051 71.0221 8.32477C70.7172 8.30822 70.4134 8.37379 70.1431 8.51454C70.0476 8.56578 69.9681 8.64211 69.9134 8.73515C69.8588 8.82819 69.831 8.93435 69.8332 9.04198C69.8332 9.46431 70.5845 9.8364 72.0869 10.1583C72.3264 10.2141 72.5123 10.2559 72.6504 10.2811C73.6087 10.465 74.4752 10.967 75.1069 11.7043C75.7117 12.4353 76.0307 13.3576 76.0055 14.3024C76.0281 15.0706 75.8772 15.8341 75.5638 16.537C75.2504 17.24 74.7824 17.8648 74.1941 18.3657C72.9865 19.415 71.4146 19.9397 69.4783 19.9397C68.4744 19.9416 67.4751 19.8054 66.5091 19.535C65.4695 19.2307 64.4706 18.8034 63.5342 18.2624Z" fill="#1C358A"/>
<path d="M75.8252 19.5351L81.2172 4.56297H87.2711L92.5589 19.5351H86.7105L86.226 17.6541H82.1271L81.6623 19.5351H75.8252ZM83.0342 14.0932H85.2879L84.8231 12.3937C84.5977 11.5341 84.4399 10.8727 84.3582 10.4095C84.2807 9.9766 84.229 9.53956 84.2033 9.10065H84.1103C84.0875 9.5398 84.0357 9.97701 83.9554 10.4095C83.8728 10.8727 83.7178 11.5341 83.4906 12.3937L83.0342 14.0932Z" fill="#1C358A"/>
<path d="M93.3928 19.5351V4.56297H99.8891C102.177 4.56297 103.848 4.99925 104.904 5.87181C105.959 6.74437 106.487 8.12948 106.487 10.0272C106.487 11.7927 106.012 13.083 105.061 13.8979C104.111 14.7127 102.605 15.1202 100.543 15.1202H98.8524V19.5351H93.3928ZM98.858 8.72111V11.216H99.7031C100.125 11.244 100.543 11.131 100.892 10.8951C101.03 10.7863 101.139 10.6464 101.211 10.4872C101.283 10.3279 101.316 10.1539 101.306 9.97971C101.314 9.80293 101.28 9.62673 101.206 9.46564C101.132 9.30454 101.021 9.16318 100.881 9.0532C100.537 8.81358 100.122 8.69649 99.7031 8.72111H98.858Z" fill="#1C358A"/>
<path d="M108.473 19.5351V4.56297H114V19.5351H108.473Z" fill="#1C358A"/>
<path d="M27.326 0H23.2412C20.4241 0.686512 14.2265 2.60372 14.2265 5.44186C14.2265 9.25674 22.8187 11.1153 22.8187 15.907C22.8187 19.7219 10.5163 23.1405 8.1218 23.9079C8.04292 23.934 7.96122 23.9647 7.87671 24H27.326C28.8203 24 30.2534 23.412 31.31 22.3652C32.3667 21.3185 32.9603 19.8989 32.9603 18.4186V5.5814C32.9603 4.10112 32.3667 2.68147 31.31 1.63475C30.2534 0.588038 28.8203 0 27.326 0V0Z" fill="#F8D001"/>
<path d="M5.18912 23.9777C3.77716 23.8668 2.45914 23.2332 1.49752 22.2031C0.535901 21.1729 0.00123884 19.8217 0 18.4186L0 5.5814C0 4.10112 0.593604 2.68147 1.65022 1.63475C2.70685 0.588038 4.13993 0 5.63422 0L17.7478 0L17.3252 0.0697674C9.71903 1.30326 7.32449 2.74326 7.32449 4.18605C7.32449 6.78977 15.7758 9.06977 15.7758 14.5814C15.7758 18.8874 5.31025 23.8493 5.18912 23.9777ZM11.2684 12.5581H8.45133V9.76744H5.35251V12.5581H2.5354V15.3488H5.35251V17.8605H8.45133V15.3488H11.2684V12.5581Z" fill="#027642"/>
</svg>
