<svg width="64" height="96" viewBox="0 0 64 96" fill="none" xmlns="http://www.w3.org/2000/svg">
<path d="M42.5524 36H38.5832C35.8459 36.6977 29.8237 38.5953 29.8237 41.4419C29.8237 45.2651 38.1726 47.107 38.1726 51.907C38.1726 55.7302 26.2104 59.1349 23.8836 59.9163C23.8015 59.9442 23.7194 59.9721 23.6372 60H42.525C45.5361 60 47.9998 57.4884 47.9998 54.4186V41.5814C48.0271 38.5116 45.5635 36 42.5524 36ZM21.0367 59.9721C18.2173 59.7488 16 57.3488 16 54.4186V41.5814C16 38.5116 18.4636 36 21.4747 36H33.2454C33.1085 36.0279 32.9716 36.0558 32.8348 36.0558C25.4439 37.3116 23.1171 38.7349 23.1171 40.186C23.1171 42.7814 31.3292 45.0698 31.3292 50.5674C31.3292 54.893 21.1736 59.8605 21.0367 59.9721ZM26.9495 48.5581H24.2121V45.7674H21.201V48.5581H18.4636V51.3488H21.201V53.8605H24.2121V51.3488H26.9495V48.5581Z" fill="#008AD2"/>
</svg>
