<svg width="32" height="32" viewBox="0 0 32 32" fill="none" xmlns="http://www.w3.org/2000/svg">
<path d="M26.53 4H22.5642C19.8291 4.68651 13.812 6.60372 13.812 9.44186C13.812 13.2567 22.1539 15.1153 22.1539 19.907C22.1539 23.7219 10.21 27.1405 7.88517 27.9079C7.80858 27.934 7.72927 27.9647 7.64722 28H26.53C27.9807 28 29.3721 27.412 30.3979 26.3652C31.4238 25.3185 32.0001 23.8989 32.0001 22.4186V9.5814C32.0001 8.10112 31.4238 6.68147 30.3979 5.63475C29.3721 4.58804 27.9807 4 26.53 4V4Z" fill="#F8D001"/>
<path d="M5.03795 27.9777C3.66712 27.8668 2.3875 27.2332 1.45389 26.2031C0.52029 25.1729 0.00120275 23.8217 0 22.4186L0 9.5814C0 8.10112 0.576311 6.68147 1.60215 5.63475C2.62799 4.58804 4.01933 4 5.47009 4L17.2308 4L16.8205 4.06977C9.43591 5.30326 7.11112 6.74326 7.11112 8.18605C7.11112 10.7898 15.3163 13.0698 15.3163 18.5814C15.3163 22.8874 5.15556 27.8493 5.03795 27.9777ZM10.9402 16.5581H8.20514V13.7674H5.19659V16.5581H2.46154V19.3488H5.19659V21.8605H8.20514V19.3488H10.9402V16.5581Z" fill="#027642"/>
</svg>
