<svg width="32" height="32" viewBox="0 0 32 32" fill="none" xmlns="http://www.w3.org/2000/svg">
<path fill-rule="evenodd" clip-rule="evenodd" d="M29.7372 7.44286C28.2273 5.0549 26.2573 3.21769 23.8285 1.92966C21.3974 0.644017 18.788 0 16.0012 0C13.212 0 10.6034 0.644017 8.17384 1.92966C5.74274 3.21769 3.77266 5.0549 2.26436 7.44286C0.754532 9.83083 0 12.497 0 15.4429C0 20.2985 1.50369 24.2726 4.50952 27.3636C7.51459 30.4545 11.3449 32 16.0012 32C20.6559 32 24.4869 30.4545 27.492 27.3636C30.4979 24.2726 32 20.2985 32 15.4429C32 12.497 31.2455 9.83083 29.7372 7.44286ZM27.5611 19.4216L26.6167 18.6939L26.2679 19.1809L27.3567 20.0194C27.4235 20.5295 27.6317 22.7389 26.493 24.3107C25.8345 25.221 24.8218 25.759 23.4941 25.9216L21.2851 24.4335L20.559 22.9525L20.038 23.2275L20.6135 24.4016L18.0748 24.765L18.1548 25.366L20.9923 24.9595L23.113 26.3894C23.0231 26.9258 22.6374 28.6363 21.2267 29.521C20.0057 30.287 18.3177 30.2487 16.2085 29.4063V14.7517C16.8516 15.4116 17.6 15.96 17.643 15.9911L17.978 15.4937C17.965 15.4842 16.824 14.6481 16.2085 13.847V3.59138C16.552 3.15619 18.3599 1.10458 21.2236 2.29458C24.1088 3.49175 24.065 6.71901 24.0281 7.35027C22.2778 9.22494 20.6811 8.93322 20.6104 8.91887L20.4921 9.51347C20.5144 9.51825 20.6727 9.55014 20.9324 9.55014C21.6093 9.55014 22.9739 9.32058 24.3977 7.82452C24.775 7.92654 25.8968 8.30913 26.5169 9.40746C27.0701 10.3862 27.0824 11.6958 26.5776 13.2875L23.823 14.1396L22.4338 12.8659L22.0465 13.3202L23.4104 14.5708L22.967 15.8994L23.5202 16.0979L23.9789 14.7246L26.7366 13.8717C27.2622 14.4121 29.3367 16.8264 27.5611 19.4216ZM13.7727 23.4708L12.3159 23.3242L8.6147 26.3689C8.70075 26.8878 9.0857 28.6341 10.5079 29.5236C11.7304 30.2872 13.4162 30.2474 15.5223 29.4057V19.3636L14.1915 18.7587L14.4258 18.2031L15.5223 18.7021V3.59158C15.2549 3.25124 14.0954 1.92814 12.2375 1.92814C11.715 1.92814 11.1372 2.03255 10.5072 2.29398C7.6819 3.46644 7.67345 6.66341 7.70342 7.32895C8.06762 7.59756 9.42686 8.5333 11.1972 8.87762L11.2225 8.88241C11.944 9.06892 12.8176 8.30136 13.0935 7.98811L13.5261 8.3978L13.5238 8.40031C13.464 8.46619 12.7412 9.26259 11.8618 9.46983C12.2437 9.87154 12.7101 10.4223 12.8422 10.836L12.2875 11.0273C12.1638 10.6399 11.4615 9.8843 11.0089 9.45788C9.14026 9.07449 7.74875 8.11245 7.35535 7.81754C6.9996 7.9108 5.84552 8.2886 5.21392 9.40686C4.68222 10.349 4.6607 11.6019 5.10789 13.1124L7.26622 12.1447C7.54437 11.9064 8.59088 11.0488 9.18021 11.0488V11.6561C8.98812 11.6561 8.54862 11.9184 8.11449 12.238C8.7653 12.564 9.45298 13.3092 9.70961 13.6089L9.27241 14.0122C8.59011 13.2168 7.76028 12.5871 7.53591 12.6851L5.07792 13.7875C4.77211 14.084 2.27724 16.6576 4.17202 19.4242L5.15015 18.6917L5.49207 19.1835L4.3741 20.0212C4.30725 20.5409 4.10594 22.7503 5.24005 24.3133C5.89623 25.218 6.90278 25.7528 8.22206 25.9186L11.9286 22.8691C11.9164 22.5319 11.8941 21.7428 11.9363 21.3929L12.5164 21.4686C12.4849 21.7277 12.4965 22.335 12.5095 22.7344L13.8288 22.8667L13.7727 23.4708Z" fill="#002439"/>
</svg>
