<svg width="24" height="24" viewBox="0 0 24 24" fill="none" xmlns="http://www.w3.org/2000/svg">
<path fill-rule="evenodd" clip-rule="evenodd" d="M20.5857 6.65179C19.6421 5.15931 18.4108 4.01106 16.8928 3.20604C15.3734 2.40251 13.7425 2 12.0007 2C10.2575 2 8.62713 2.40251 7.10865 3.20604C5.58921 4.01106 4.35791 5.15931 3.41523 6.65179C2.47158 8.14427 2 9.8106 2 11.6518C2 14.6866 2.9398 17.1704 4.81845 19.1022C6.69662 21.0341 9.09055 22 12.0007 22C14.9099 22 17.3043 21.0341 19.1825 19.1022C21.0612 17.1704 22 14.6866 22 11.6518C22 9.8106 21.5284 8.14427 20.5857 6.65179ZM19.226 14.1388L18.6358 13.684L18.4177 13.9884L19.0982 14.5124C19.14 14.8313 19.2701 16.2121 18.5584 17.1945C18.1469 17.7634 17.514 18.0997 16.6841 18.2013L15.3035 17.2712L14.8497 16.3457L14.5241 16.5175L14.8838 17.2513L13.2971 17.4785L13.347 17.8541L15.1205 17.6L16.4459 18.4937C16.3897 18.829 16.1487 19.898 15.267 20.451C14.5039 20.9297 13.4488 20.9058 12.1306 20.3792V11.2201C12.5326 11.6326 13.0003 11.9753 13.0272 11.9947L13.2366 11.6839C13.2284 11.6779 12.5153 11.1554 12.1306 10.6547V4.24492C12.3453 3.97293 13.4752 2.69067 15.2651 3.43442C17.0683 4.18265 17.0409 6.19969 17.0179 6.59423C15.9239 7.7659 14.926 7.58357 14.8818 7.5746L14.8079 7.94623C14.8218 7.94922 14.9207 7.96914 15.083 7.96914C15.5061 7.96914 16.359 7.82568 17.2489 6.89063C17.4847 6.9544 18.1858 7.19351 18.5733 7.87997C18.9191 8.49171 18.9268 9.31018 18.6113 10.305L16.8897 10.8375L16.0214 10.0415L15.7794 10.3254L16.6318 11.107L16.3547 11.9375L16.7005 12.0615L16.9871 11.2032L18.7107 10.6702C19.0392 11.0079 20.3358 12.5168 19.226 14.1388ZM10.6073 16.6696L9.69683 16.5779L7.38357 18.4809C7.43736 18.8052 7.67795 19.8966 8.56685 20.4526C9.33089 20.9298 10.3845 20.9049 11.7008 20.3789V14.1026L10.8691 13.7245L11.0155 13.3773L11.7008 13.6891V4.24505C11.5337 4.03233 10.809 3.20539 9.64784 3.20539C9.32129 3.20539 8.96016 3.27065 8.56637 3.43405C6.80058 4.16684 6.7953 6.16494 6.81403 6.5809C7.04165 6.74878 7.89117 7.33362 8.99762 7.54882L9.01346 7.55181C9.4644 7.66838 10.0104 7.18866 10.1828 6.99288L10.4532 7.24893L10.4518 7.2505C10.4144 7.29169 9.9626 7.78943 9.41301 7.91895C9.65169 8.17003 9.94318 8.51425 10.0258 8.7728L9.67906 8.89235C9.60174 8.65025 9.16281 8.178 8.87996 7.91148C7.71205 7.67187 6.84236 7.07059 6.59648 6.88628C6.37414 6.94456 5.65284 7.18069 5.25809 7.8796C4.92577 8.46842 4.91233 9.25152 5.19182 10.1955L6.54078 9.59077C6.71462 9.44182 7.36869 8.9058 7.73702 8.9058V9.2854C7.61696 9.2854 7.34227 9.44929 7.07095 9.64905C7.4777 9.8528 7.9075 10.3186 8.0679 10.5059L7.79465 10.7579C7.36821 10.2608 6.84956 9.86725 6.70934 9.92852L5.17309 10.6175C4.98196 10.8028 3.42266 12.4113 4.6069 14.1404L5.21823 13.6826L5.43193 13.99L4.7332 14.5136C4.69142 14.8384 4.5656 16.2192 5.27442 17.1961C5.68453 17.7615 6.31363 18.0958 7.13818 18.1994L9.45479 16.2935C9.44711 16.0827 9.43318 15.5896 9.45959 15.3709L9.82217 15.4182C9.80248 15.5801 9.80968 15.9597 9.81784 16.2093L10.6424 16.292L10.6073 16.6696Z" fill="#008AD2"/>
</svg>
