<svg width="160" height="24" viewBox="0 0 160 24" fill="none" xmlns="http://www.w3.org/2000/svg">
<path fill-rule="evenodd" clip-rule="evenodd" d="M17.8713 1.44725C19.6929 2.41327 21.1705 3.79117 22.3029 5.58215C23.4341 7.37312 24 9.37272 24 11.5821C24 15.2239 22.8734 18.2044 20.619 20.5227C18.3652 22.8409 15.4919 24 12.0009 24C8.50866 24 5.63594 22.8409 3.38214 20.5227C1.12776 18.2044 0 15.2239 0 11.5821C0 9.37272 0.565899 7.37312 1.69827 5.58215C2.8295 3.79117 4.30706 2.41327 6.13038 1.44725C7.95255 0.483013 9.909 0 12.0009 0C14.091 0 16.048 0.483013 17.8713 1.44725ZM19.9627 14.0204L20.6709 14.5662C22.0027 12.6198 20.4467 10.8091 20.0526 10.4038L17.9843 11.0434L17.6403 12.0734L17.2254 11.9246L17.5579 10.9281L16.535 9.99014L16.8254 9.6494L17.8673 10.6047L19.9333 9.96563C20.3119 8.77185 20.3027 7.78968 19.8878 7.0556C19.4227 6.23185 18.5813 5.94491 18.2984 5.86839C17.2306 6.99044 16.2071 7.16261 15.6994 7.16261C15.5046 7.16261 15.3859 7.13869 15.3692 7.13511L15.4579 6.68916C15.511 6.69992 16.7085 6.91871 18.0212 5.51271C18.0489 5.03926 18.0817 2.61882 15.9178 1.72094C13.77 0.828442 12.4141 2.36715 12.1565 2.69354V10.3853C12.6181 10.9861 13.4738 11.6131 13.4836 11.6203L13.2324 11.9933C13.2001 11.97 12.6388 11.5587 12.1565 11.0638V22.0547C13.7384 22.6866 15.0044 22.7153 15.9201 22.1408C16.9782 21.4772 17.2674 20.1944 17.3349 19.7921L15.7444 18.7196L13.6162 19.0245L13.5563 18.5738L15.4603 18.3012L15.0286 17.4206L15.4193 17.2144L15.9639 18.3251L17.6207 19.4412C18.6165 19.3192 19.376 18.9157 19.8699 18.233C20.7239 17.0542 20.5678 15.3971 20.5176 15.0146L19.701 14.3857L19.9627 14.0204ZM9.23691 17.4931L10.3295 17.6031L10.3716 17.15L9.38213 17.0508C9.37234 16.7513 9.36369 16.2958 9.38732 16.1015L8.95223 16.0447C8.92054 16.3071 8.93725 16.8989 8.94647 17.1518L6.16653 19.4389C5.17708 19.3146 4.42216 18.9135 3.93002 18.235C3.07945 17.0627 3.23043 15.4057 3.28056 15.0159L4.11904 14.3876L3.8626 14.0188L3.12901 14.5682C1.70792 12.4932 3.57907 10.563 3.80843 10.3406L5.65192 9.51385C5.8202 9.44033 6.44257 9.91258 6.9543 10.5092L7.2822 10.2067C7.08972 9.98192 6.57396 9.42299 6.08586 9.1785C6.41145 8.93878 6.74108 8.74211 6.88515 8.74211V8.2866C6.44315 8.2866 5.65826 8.92982 5.44965 9.10855L3.8309 9.83427C3.49551 8.70146 3.51165 7.76174 3.91043 7.05515C4.38413 6.21646 5.24969 5.9331 5.5165 5.86316C5.81155 6.08434 6.85518 6.80587 8.25667 7.09341C8.5961 7.41323 9.12281 7.97993 9.21559 8.27046L9.63166 8.12699C9.53254 7.81673 9.18274 7.40366 8.89633 7.10238C9.55585 6.94694 10.098 6.34965 10.1428 6.30024L10.1445 6.29835L9.8201 5.99109C9.61322 6.22602 8.958 6.80169 8.41688 6.66181L8.39786 6.65822C7.07013 6.39998 6.0507 5.69817 5.77755 5.49672C5.75508 4.99757 5.76142 2.59984 7.88037 1.72049C8.35291 1.52442 8.78627 1.44611 9.17813 1.44611C10.5716 1.44611 11.4412 2.43843 11.6417 2.69369V14.0266L10.8194 13.6523L10.6436 14.069L11.6417 14.5227V22.0543C10.0621 22.6855 8.79779 22.7154 7.88094 22.1427C6.81426 21.4756 6.52555 20.1658 6.46101 19.7767L9.23691 17.4931Z" fill="#002439"/>
<path d="M146.478 6.46852L148.998 1.87349C147.92 1.30993 146.688 0.856538 145.297 0.513317C143.908 0.171308 142.6 0 141.371 0C138.916 0 136.901 0.699758 135.329 2.10048C133.756 3.50121 132.969 5.34988 132.969 7.64709C132.969 8.7155 133.11 9.61199 133.391 10.3378C133.67 11.063 134.145 11.6628 134.812 12.1362C135.479 12.6096 136.147 12.9776 136.814 13.2391C137.483 13.5018 138.399 13.7833 139.561 14.086C140.014 14.207 140.273 14.2778 140.337 14.2972C142.384 14.8614 143.407 15.6574 143.407 16.6852C143.407 17.431 143.1 18 142.486 18.3929C141.872 18.7863 141.157 18.9824 140.337 18.9824C138.507 18.9824 136.632 18.1967 134.716 16.6253L132 21.4007C134.65 23.1344 137.504 24 140.563 24C143.365 24 145.67 23.2857 147.478 21.8541C149.159 20.5242 150 18.4788 150 15.7179C150 14.0054 149.471 12.6701 148.417 11.7125C147.36 10.7561 145.885 10.0157 143.989 9.49092L142.374 9.03753C141.835 8.87712 141.408 8.73547 141.096 8.61441C140.784 8.49395 140.45 8.27179 140.096 7.94915C139.74 7.62712 139.561 7.26453 139.561 6.86077C139.561 6.27724 139.848 5.81356 140.419 5.47034C140.988 5.12833 141.609 4.95642 142.277 4.95642C143.785 4.95642 145.184 5.46126 146.478 6.46852Z" fill="#002439"/>
<path d="M130 0H124.118V12.3105C124.065 12.8363 124.042 13.2999 124.022 13.7016C124.014 13.8687 124.006 14.0251 123.997 14.1709C123.966 14.667 123.875 15.2253 123.724 15.8456C123.572 16.4653 123.359 16.9621 123.085 17.334C122.813 17.706 122.411 18.0214 121.884 18.2797C121.357 18.5381 120.73 18.6666 120.001 18.6666C119.271 18.6666 118.643 18.5381 118.116 18.2797C117.589 18.0214 117.189 17.706 116.916 17.334C116.641 16.9621 116.429 16.4653 116.277 15.8456C116.125 15.2253 116.003 14.1709 116.003 14.1709C116.003 14.1709 115.958 13.055 115.882 12.3105V0H110V13.1475C110 15.0495 110.147 16.6466 110.441 17.9382C110.735 19.2304 111.388 20.3829 112.401 21.3957C114.123 23.1325 116.657 24 120.001 24C123.343 24 125.877 23.1325 127.599 21.3957C128.612 20.3829 129.265 19.2304 129.559 17.9382C129.853 16.6466 130 15.0495 130 13.1475V0Z" fill="#002439"/>
<path fill-rule="evenodd" clip-rule="evenodd" d="M90 0V24H96.1465V15.7974H99.6267C105.209 15.7974 108 13.1229 108 7.77316C108 5.16202 107.231 3.21308 105.695 1.9276C104.159 0.642742 102.062 0 99.4075 0H90ZM95.9873 10.6939V4.80129H97.0222C97.6275 4.80129 98.0935 4.81258 98.4175 4.83267C98.7415 4.85401 99.1277 4.91113 99.5774 5.00465C100.027 5.09943 100.366 5.2507 100.596 5.45972C100.826 5.66874 101.025 5.96688 101.192 6.35291C101.36 6.73955 101.442 7.22538 101.442 7.81037C101.442 8.37403 101.354 8.84416 101.177 9.22076C101 9.59674 100.794 9.8792 100.566 10.0675C100.335 10.2552 99.9849 10.4014 99.5152 10.5056C99.0442 10.6111 98.6568 10.6676 98.3541 10.6782C98.0508 10.6889 97.6068 10.6939 97.0222 10.6939H95.9873Z" fill="#002439"/>
<path fill-rule="evenodd" clip-rule="evenodd" d="M74.0009 0C71.909 0 69.9526 0.483013 68.1304 1.44725C66.3071 2.41327 64.8295 3.79057 63.6983 5.58215C62.5659 7.37312 62 9.37272 62 11.5821C62 15.2239 63.1278 18.2044 65.3821 20.5227C67.6359 22.8409 70.5081 24 74.0009 24C77.4919 24 80.3652 22.8409 82.6196 20.5227C84.8734 18.2044 86 15.2239 86 11.5821C86 9.37272 85.4341 7.37312 84.3029 5.58215C83.1705 3.79057 81.6929 2.41327 79.8708 1.44725C78.048 0.483013 76.091 0 74.0009 0ZM74.0878 5.71408C75.8827 5.71408 77.4298 6.3072 78.7301 7.49345C80.0292 8.67911 80.6794 10.0536 80.6794 11.6145C80.6794 13.512 80.0398 15.0978 78.7605 16.3731C77.4806 17.6478 75.923 18.2855 74.0878 18.2855C72.2507 18.2855 70.6931 17.6478 69.4138 16.3731C68.1339 15.0978 67.4943 13.512 67.4943 11.6145C67.4943 10.0536 68.1445 8.67911 69.4448 7.49345C70.7452 6.3072 72.2922 5.71408 74.0878 5.71408Z" fill="#002439"/>
<path d="M55.6923 24V6H60V0H46V6H50.3077V24H55.6923Z" fill="#002439"/>
<path d="M44 8.25121V1.1483C42.0866 0.383172 40.2245 0 38.4154 0C36.7731 0 35.1615 0.327482 33.5811 0.982445C32.0006 1.6368 30.6282 2.53874 29.4638 3.68705C27.1544 5.98426 26 8.76513 26 12.0303C26 15.5769 27.2581 18.4492 29.7755 20.6447C32.3123 22.882 35.2546 24 38.6034 24C39.8297 24 41.6287 23.6477 44 22.9425V15.839C43.3553 16.5847 42.5645 17.1737 41.6287 17.6077C40.693 18.0412 39.726 18.2573 38.7271 18.2573C36.835 18.2573 35.302 17.6786 34.127 16.5194C32.952 15.3602 32.3636 13.8741 32.3636 12.0599C32.3636 10.2669 32.9464 8.76513 34.1114 7.55629C35.2758 6.34746 36.7838 5.74274 38.634 5.74274C39.6941 5.74274 40.6986 5.95944 41.6444 6.39286C42.5907 6.82688 43.3759 7.44613 44 8.25121Z" fill="#002439"/>
</svg>
