<svg width="160" height="24" viewBox="0 0 160 24" fill="none" xmlns="http://www.w3.org/2000/svg">
<path fill-rule="evenodd" clip-rule="evenodd" d="M148.998 1.87349L146.478 6.46852C145.184 5.46126 143.785 4.95642 142.277 4.95642C141.609 4.95642 140.988 5.12833 140.419 5.47034C139.848 5.81356 139.561 6.27724 139.561 6.86077C139.561 7.26453 139.74 7.62712 140.096 7.94915C140.45 8.27179 140.784 8.49395 141.096 8.61441C141.408 8.73547 141.835 8.87712 142.374 9.03753L143.989 9.49092C145.885 10.0157 147.36 10.7561 148.417 11.7125C149.471 12.6701 150 14.0054 150 15.7179C150 18.4788 149.159 20.5242 147.478 21.8541C145.67 23.2857 143.365 24 140.563 24C137.504 24 134.65 23.1344 132 21.4007L134.716 16.6253C136.632 18.1967 138.507 18.9824 140.337 18.9824C141.157 18.9824 141.872 18.7863 142.486 18.3929C143.1 18 143.407 17.431 143.407 16.6852C143.407 15.6574 142.384 14.8614 140.337 14.2972C140.273 14.2778 140.014 14.207 139.561 14.086C138.399 13.7833 137.483 13.5018 136.814 13.2391C136.147 12.9776 135.479 12.6096 134.812 12.1362C134.145 11.6628 133.67 11.063 133.391 10.3378C133.11 9.61199 132.969 8.7155 132.969 7.64709C132.969 5.34988 133.756 3.50121 135.329 2.10048C136.901 0.699758 138.916 0 141.371 0C142.6 0 143.908 0.171308 145.297 0.513317C146.688 0.856538 147.92 1.30993 148.998 1.87349ZM124.118 0H130V13.1475C130 15.0495 129.853 16.6466 129.559 17.9382C129.265 19.2304 128.612 20.3829 127.599 21.3957C125.877 23.1325 123.343 24 120.001 24C116.657 24 114.123 23.1325 112.401 21.3957C111.388 20.3829 110.735 19.2304 110.441 17.9382C110.147 16.6466 110 15.0495 110 13.1475V0H115.882V12.3105C115.958 13.055 116.003 14.1709 116.003 14.1709C116.003 14.1709 116.125 15.2253 116.277 15.8456C116.429 16.4653 116.641 16.9621 116.916 17.334C117.189 17.706 117.589 18.0214 118.116 18.2797C118.643 18.5381 119.271 18.6666 120.001 18.6666C120.73 18.6666 121.357 18.5381 121.884 18.2797C122.411 18.0214 122.813 17.706 123.085 17.334C123.359 16.9621 123.572 16.4653 123.724 15.8456C123.875 15.2253 123.966 14.667 123.997 14.1709C124.028 13.6747 124.043 13.055 124.118 12.3105V0ZM95.9873 4.80129V10.6939H97.0222C97.6068 10.6939 98.0508 10.6889 98.3541 10.6782C98.6568 10.6676 99.0442 10.6111 99.5152 10.5056C99.9849 10.4014 100.335 10.2552 100.566 10.0675C100.794 9.8792 101 9.59674 101.177 9.22076C101.354 8.84416 101.442 8.37403 101.442 7.81037C101.442 7.22538 101.36 6.73955 101.192 6.35291C101.025 5.96688 100.826 5.66874 100.596 5.45972C100.366 5.2507 100.027 5.09943 99.5774 5.00465C99.1277 4.91113 98.7415 4.85401 98.4175 4.83267C98.0935 4.81258 97.6275 4.80129 97.0222 4.80129H95.9873ZM90 24V0H99.4075C102.062 0 104.159 0.642742 105.695 1.9276C107.231 3.21308 108 5.16202 108 7.77316C108 13.1229 105.209 15.7974 99.6267 15.7974H96.1465V24H90ZM78.7301 7.49345C77.4298 6.3072 75.8827 5.71408 74.0878 5.71408C72.2922 5.71408 70.7452 6.3072 69.4448 7.49345C68.1445 8.67911 67.4943 10.0536 67.4943 11.6145C67.4943 13.512 68.1339 15.0978 69.4138 16.3731C70.6931 17.6478 72.2507 18.2855 74.0878 18.2855C75.923 18.2855 77.4806 17.6478 78.7605 16.3731C80.0398 15.0978 80.6794 13.512 80.6794 11.6145C80.6794 10.0536 80.0292 8.67911 78.7301 7.49345ZM68.1304 1.44725C69.9526 0.483013 71.909 0 74.0009 0C76.091 0 78.048 0.483013 79.8708 1.44725C81.6929 2.41327 83.1705 3.79057 84.3029 5.58215C85.4341 7.37312 86 9.37272 86 11.5821C86 15.2239 84.8734 18.2044 82.6196 20.5227C80.3652 22.8409 77.4919 24 74.0009 24C70.5081 24 67.6359 22.8409 65.3821 20.5227C63.1278 18.2044 62 15.2239 62 11.5821C62 9.37272 62.5659 7.37312 63.6983 5.58215C64.8295 3.79057 66.3071 2.41327 68.1304 1.44725ZM55.6923 6V24H50.3077V6H46V0H60V6H55.6923ZM44 1.1483V8.25121C43.3759 7.44613 42.5907 6.82688 41.6444 6.39286C40.6986 5.95944 39.6941 5.74274 38.634 5.74274C36.7838 5.74274 35.2758 6.34746 34.1114 7.55629C32.9464 8.76513 32.3636 10.2669 32.3636 12.0599C32.3636 13.8741 32.952 15.3602 34.127 16.5194C35.302 17.6786 36.835 18.2573 38.7271 18.2573C39.726 18.2573 40.693 18.0412 41.6287 17.6077C42.5645 17.1737 43.3553 16.5847 44 15.839V22.9425C41.6287 23.6477 39.8297 24 38.6034 24C35.2546 24 32.3123 22.882 29.7755 20.6447C27.2581 18.4492 26 15.5769 26 12.0303C26 8.76513 27.1544 5.98426 29.4638 3.68705C30.6282 2.53874 32.0006 1.6368 33.5811 0.982445C35.1615 0.327482 36.7731 0 38.4154 0C40.2245 0 42.0866 0.383172 44 1.1483Z" fill="#008AD2"/>
<path fill-rule="evenodd" clip-rule="evenodd" d="M22.3029 5.58215C21.1705 3.79117 19.6929 2.41327 17.8713 1.44725C16.048 0.483013 14.091 0 12.0009 0C9.909 0 7.95255 0.483013 6.13038 1.44725C4.30706 2.41327 2.8295 3.79117 1.69827 5.58215C0.565899 7.37312 0 9.37272 0 11.5821C0 15.2239 1.12776 18.2044 3.38214 20.5227C5.63594 22.8409 8.50866 24 12.0009 24C15.4919 24 18.3652 22.8409 20.619 20.5227C22.8734 18.2044 24 15.2239 24 11.5821C24 9.37272 23.4341 7.37312 22.3029 5.58215ZM20.6709 14.5662L19.9627 14.0204L19.701 14.3857L20.5176 15.0146C20.5678 15.3971 20.7239 17.0542 19.8699 18.233C19.376 18.9157 18.6165 19.3192 17.6207 19.4412L15.9639 18.3251L15.4193 17.2144L15.0286 17.4206L15.4603 18.3012L13.5563 18.5738L13.6162 19.0245L15.7444 18.7196L17.3349 19.7921C17.2674 20.1944 16.9782 21.4772 15.9201 22.1408C15.0044 22.7153 13.7384 22.6866 12.1565 22.0547V11.0638C12.6388 11.5587 13.2001 11.97 13.2324 11.9933L13.4836 11.6203C13.4738 11.6131 12.6181 10.9861 12.1565 10.3853V2.69354C12.4141 2.36715 13.77 0.828442 15.9178 1.72094C18.0817 2.61882 18.0489 5.03926 18.0212 5.51271C16.7085 6.91871 15.511 6.69992 15.4579 6.68916L15.3692 7.13511C15.3859 7.13869 15.5046 7.16261 15.6994 7.16261C16.2071 7.16261 17.2306 6.99044 18.2984 5.86839C18.5813 5.94491 19.4227 6.23185 19.8878 7.0556C20.3027 7.78968 20.3119 8.77185 19.9333 9.96563L17.8673 10.6047L16.8254 9.6494L16.535 9.99014L17.5579 10.9281L17.2254 11.9246L17.6403 12.0734L17.9843 11.0434L20.0526 10.4038C20.4467 10.8091 22.0027 12.6198 20.6709 14.5662ZM10.3295 17.6031L9.23691 17.4931L6.46101 19.7767C6.52555 20.1658 6.81426 21.4756 7.88094 22.1427C8.79779 22.7154 10.0621 22.6855 11.6417 22.0543V14.5227L10.6436 14.069L10.8194 13.6523L11.6417 14.0266V2.69369C11.4412 2.43843 10.5716 1.44611 9.17813 1.44611C8.78627 1.44611 8.35291 1.52442 7.88037 1.72049C5.76142 2.59984 5.75508 4.99757 5.77755 5.49672C6.0507 5.69817 7.07013 6.39998 8.39786 6.65822L8.41688 6.66181C8.958 6.80169 9.61322 6.22602 9.8201 5.99109L10.1445 6.29835L10.1428 6.30024C10.098 6.34968 9.55584 6.94695 8.89633 7.10238C9.18274 7.40366 9.53254 7.81673 9.63166 8.12699L9.21559 8.27046C9.12281 7.97993 8.5961 7.41323 8.25667 7.09341C6.85518 6.80587 5.81155 6.08434 5.5165 5.86316C5.24969 5.9331 4.38413 6.21646 3.91043 7.05515C3.51165 7.76174 3.49551 8.70146 3.8309 9.83427L5.44965 9.10856C5.65826 8.92982 6.44315 8.2866 6.88515 8.2866V8.74211C6.74108 8.74211 6.41145 8.93878 6.08586 9.1785C6.57396 9.42299 7.08972 9.98192 7.2822 10.2067L6.9543 10.5092C6.44257 9.91258 5.8202 9.44033 5.65192 9.51385L3.80843 10.3406C3.57907 10.563 1.70792 12.4932 3.12901 14.5682L3.8626 14.0188L4.11904 14.3876L3.28056 15.0159C3.23043 15.4057 3.07945 17.0627 3.93002 18.235C4.42216 18.9135 5.17708 19.3146 6.16653 19.4389L8.94647 17.1518C8.93725 16.8989 8.92054 16.3071 8.95223 16.0447L9.38732 16.1015C9.36369 16.2958 9.37234 16.7513 9.38213 17.0508L10.3716 17.15L10.3295 17.6031Z" fill="#008AD2"/>
</svg>
