<svg width="200" height="96" viewBox="0 0 200 96" fill="none" xmlns="http://www.w3.org/2000/svg">
<path fill-rule="evenodd" clip-rule="evenodd" d="M24.8285 33.9297C27.2573 35.2177 29.2273 37.0549 30.7372 39.4429C32.2455 41.8308 33 44.497 33 47.4429C33 52.2985 31.4979 56.2726 28.492 59.3636C25.4869 62.4545 21.6559 64 17.0012 64C12.3449 64 8.51459 62.4545 5.50952 59.3636C2.50369 56.2726 1 52.2985 1 47.4429C1 44.497 1.75453 41.8308 3.26436 39.4429C4.77266 37.0549 6.74274 35.2177 9.17384 33.9297C11.6034 32.644 14.212 32 17.0012 32C19.788 32 22.3974 32.644 24.8285 33.9297ZM27.6167 50.6939L28.5611 51.4216C30.3367 48.8264 28.2622 46.4121 27.7366 45.8717L24.9789 46.7246L24.5202 48.0979L23.967 47.8994L24.4104 46.5708L23.0465 45.3202L23.4338 44.8659L24.823 46.1396L27.5776 45.2875C28.0824 43.6958 28.0701 42.3862 27.5168 41.4075C26.8968 40.3091 25.775 39.9265 25.3977 39.8245C23.9739 41.3206 22.6093 41.5501 21.9324 41.5501C21.6727 41.5501 21.5144 41.5183 21.4921 41.5135L21.6104 40.9189C21.6811 40.9332 23.2778 41.2249 25.0281 39.3503C25.065 38.719 25.1088 35.4918 22.2236 34.2946C19.3599 33.1046 17.552 35.1562 17.2085 35.5914V45.847C17.824 46.6481 18.965 47.4842 18.978 47.4937L18.643 47.9911C18.6 47.96 17.8516 47.4116 17.2085 46.7517V61.4063C19.3177 62.2487 21.0057 62.287 22.2267 61.521C23.6374 60.6363 24.0231 58.9258 24.113 58.3894L21.9923 56.9595L19.1548 57.366L19.0748 56.765L21.6135 56.4016L21.038 55.2275L21.559 54.9525L22.2851 56.4335L24.4941 57.9216C25.8218 57.759 26.8345 57.221 27.493 56.3107C28.6317 54.7389 28.4235 52.5295 28.3567 52.0194L27.2679 51.1809L27.6167 50.6939ZM13.3159 55.3242L14.7727 55.4708L14.8288 54.8667L13.5095 54.7344C13.4965 54.335 13.4849 53.7277 13.5164 53.4686L12.9363 53.3929C12.8941 53.7428 12.9164 54.5319 12.9286 54.8691L9.22206 57.9186C7.90278 57.7528 6.89623 57.218 6.24005 56.3133C5.10594 54.7503 5.30725 52.5409 5.3741 52.0212L6.49207 51.1835L6.15015 50.6917L5.17202 51.4242C3.27724 48.6576 5.77211 46.084 6.07792 45.7875L8.53591 44.6851C8.76028 44.5871 9.59011 45.2168 10.2724 46.0122L10.7096 45.6089C10.453 45.3092 9.7653 44.564 9.11449 44.238C9.54862 43.9184 9.98812 43.6561 10.1802 43.6561V43.0488C9.59088 43.0488 8.54437 43.9064 8.26622 44.1447L6.10789 45.1124C5.6607 43.6019 5.68222 42.349 6.21392 41.4069C6.84552 40.2886 7.9996 39.9108 8.35535 39.8175C8.74875 40.1125 10.1403 41.0745 12.0089 41.4579C12.4615 41.8843 13.1638 42.6399 13.2875 43.0273L13.8422 42.836C13.7101 42.4223 13.2437 41.8715 12.8618 41.4698C13.7412 41.2626 14.464 40.4662 14.5238 40.4003L14.5261 40.3978L14.0935 39.9881C13.8176 40.3014 12.944 41.0689 12.2225 40.8824L12.1972 40.8776C10.4269 40.5333 9.06762 39.5976 8.70342 39.329C8.67345 38.6634 8.6819 35.4664 11.5072 34.294C12.1372 34.0325 12.715 33.9281 13.2375 33.9281C15.0954 33.9281 16.2549 35.2512 16.5223 35.5916V50.7021L15.4258 50.2031L15.1915 50.7587L16.5223 51.3636V61.4057C14.4162 62.2474 12.7304 62.2872 11.5079 61.5236C10.0857 60.6341 9.70075 58.8878 9.6147 58.3689L13.3159 55.3242Z" fill="#002439"/>
<path d="M194.301 40.6247L197.662 34.498C196.224 33.7466 194.582 33.1421 192.727 32.6844C190.875 32.2284 189.13 32 187.493 32C184.218 32 181.532 32.933 179.436 34.8006C177.339 36.6683 176.29 39.1332 176.29 42.1961C176.29 43.6207 176.477 44.816 176.852 45.7837C177.224 46.7506 177.857 47.5504 178.747 48.1816C179.636 48.8128 180.526 49.3035 181.417 49.6521C182.308 50.0024 183.529 50.3777 185.08 50.7813C185.683 50.9427 186.029 51.0371 186.114 51.063C188.843 51.8152 190.206 52.8765 190.206 54.247C190.206 55.2413 189.797 56 188.979 56.5238C188.16 57.0484 187.206 57.3099 186.114 57.3099C183.673 57.3099 181.174 56.2623 178.619 54.1671L174.998 60.5343C178.531 62.8458 182.337 64 186.415 64C190.15 64 193.224 63.0476 195.635 61.1388C197.877 59.3656 198.998 56.6384 198.998 52.9572C198.998 50.6739 198.293 48.8935 196.886 47.6166C195.477 46.3414 193.511 45.3543 190.983 44.6546L188.829 44.05C188.111 43.8362 187.542 43.6473 187.126 43.4859C186.709 43.3253 186.264 43.0291 185.792 42.5989C185.318 42.1695 185.08 41.686 185.08 41.1477C185.08 40.3697 185.461 39.7514 186.223 39.2938C186.982 38.8378 187.809 38.6086 188.7 38.6086C190.71 38.6086 192.577 39.2817 194.301 40.6247Z" fill="#002439"/>
<path d="M173 32H165.353V48.414C165.285 49.1152 165.255 49.7334 165.229 50.2691C165.218 50.4918 165.208 50.7002 165.196 50.8945C165.156 51.556 165.038 52.3003 164.841 53.1275C164.643 53.9537 164.366 54.6161 164.011 55.112C163.657 55.608 163.134 56.0286 162.45 56.373C161.765 56.7174 160.95 56.8888 160.001 56.8888C159.053 56.8888 158.235 56.7174 157.551 56.373C156.866 56.0286 156.346 55.608 155.991 55.112C155.634 54.6161 155.358 53.9537 155.161 53.1275C154.962 52.3003 154.804 50.8945 154.804 50.8945C154.804 50.8945 154.745 49.4067 154.647 48.414V32H147V49.53C147 52.066 147.191 54.1955 147.573 55.9176C147.955 57.6406 148.805 59.1772 150.122 60.5276C152.36 62.8434 155.653 64 160.001 64C164.347 64 167.64 62.8434 169.878 60.5276C171.195 59.1772 172.045 57.6406 172.427 55.9176C172.809 54.1955 173 52.066 173 49.53V32Z" fill="#002439"/>
<path fill-rule="evenodd" clip-rule="evenodd" d="M121 32V64H129.195V53.0632H133.836C141.279 53.0632 145 49.4971 145 42.3642C145 38.8827 143.975 36.2841 141.926 34.5701C139.878 32.857 137.083 32 133.543 32H121ZM128.983 46.2586V38.4017H130.363C131.17 38.4017 131.791 38.4168 132.223 38.4436C132.655 38.472 133.17 38.5482 133.77 38.6729C134.369 38.7992 134.821 39.0009 135.128 39.2796C135.435 39.5583 135.7 39.9558 135.923 40.4705C136.146 40.9861 136.257 41.6338 136.257 42.4138C136.257 43.1654 136.138 43.7922 135.902 44.2944C135.666 44.7957 135.392 45.1723 135.088 45.4233C134.78 45.6736 134.313 45.8686 133.687 46.0075C133.059 46.1481 132.542 46.2234 132.139 46.2376C131.734 46.2519 131.142 46.2586 130.363 46.2586H128.983Z" fill="#002439"/>
<path fill-rule="evenodd" clip-rule="evenodd" d="M101.001 32C98.212 32 95.6034 32.644 93.1738 33.9297C90.7427 35.2177 88.7727 37.0541 87.2644 39.4429C85.7545 41.8308 85 44.497 85 47.4429C85 52.2985 86.5037 56.2726 89.5095 59.3636C92.5146 62.4545 96.3441 64 101.001 64C105.656 64 109.487 62.4545 112.493 59.3636C115.498 56.2726 117 52.2985 117 47.4429C117 44.497 116.245 41.8308 114.737 39.4429C113.227 37.0541 111.257 35.2177 108.828 33.9297C106.397 32.644 103.788 32 101.001 32ZM101.117 39.6188C103.51 39.6188 105.573 40.4096 107.307 41.9913C109.039 43.5722 109.906 45.4048 109.906 47.486C109.906 50.016 109.053 52.1304 107.347 53.8308C105.641 55.5305 103.564 56.3807 101.117 56.3807C98.6676 56.3807 96.5908 55.5305 94.8851 53.8308C93.1786 52.1304 92.3257 50.016 92.3257 47.486C92.3257 45.4048 93.1926 43.5722 94.9264 41.9913C96.6602 40.4096 98.7229 39.6188 101.117 39.6188Z" fill="#002439"/>
<path d="M76.8462 64V40H83V32H63V40H69.1538V64H76.8462Z" fill="#002439"/>
<path d="M59 43.0016V33.5311C56.4488 32.5109 53.966 32 51.5539 32C49.3642 32 47.2153 32.4366 45.1081 33.3099C43.0008 34.1824 41.171 35.385 39.6184 36.9161C36.5392 39.979 35 43.6868 35 48.0404C35 52.7692 36.6775 56.5989 40.034 59.5262C43.4165 62.5093 47.3394 64 51.8046 64C53.4396 64 55.8383 63.5303 59 62.59V53.1186C58.1404 54.113 57.086 54.8983 55.8383 55.477C54.5906 56.0549 53.3013 56.343 51.9695 56.343C49.4466 56.343 47.4027 55.5714 45.836 54.0258C44.2693 52.4802 43.4847 50.4988 43.4847 48.0799C43.4847 45.6893 44.2618 43.6868 45.8152 42.0751C47.3677 40.4633 49.3783 39.657 51.8454 39.657C53.2588 39.657 54.5981 39.9459 55.8591 40.5238C57.121 41.1025 58.1679 41.9282 59 43.0016Z" fill="#002439"/>
</svg>
