<svg width="200" height="96" viewBox="0 0 200 96" fill="none" xmlns="http://www.w3.org/2000/svg">
<path d="M29.2925 40.2684L37.4162 32.5927L29.2925 24.916L21.165 32.5927L29.2925 40.2684Z" fill="#B00000"/>
<path d="M28.1282 41.3663L20.0055 49.0412L11.8828 41.3663L20.0055 33.6897L28.1282 41.3663Z" fill="#B00000"/>
<path d="M18.8469 50.14L10.7223 57.8148L2.59961 50.14L10.7223 42.4624L18.8469 50.14Z" fill="#B00000"/>
<path d="M28.1282 58.9118L20.0055 66.5885L11.8828 58.9118L20.0055 51.2361L28.1282 58.9118Z" fill="#B00000"/>
<path d="M38.5749 49.0412L46.6995 41.3663L38.5749 33.6897L30.4521 41.3663L38.5749 49.0412Z" fill="#B00000"/>
<path d="M46.6995 58.9118L38.5749 66.5885L30.4521 58.9118L38.5749 51.2361L46.6995 58.9118Z" fill="#B00000"/>
<path d="M47.859 57.8148L55.9826 50.14L47.859 42.4624L39.7344 50.14L47.859 57.8148Z" fill="#B00000"/>
<path fill-rule="evenodd" clip-rule="evenodd" d="M197.33 62.2203L192.707 66.5887L188.084 62.2203L192.707 57.8501L197.33 62.2203Z" fill="#B00000"/>
<path d="M77.5957 52.0957H66.6775C65.2726 51.9518 64.3083 51.0086 64.3378 49.0717V47.5597C64.3083 46.0369 65.2726 45.0955 66.6775 45.2917H78.3755L82.2749 41.5117H65.1177C62.6057 41.5117 60.4385 43.5443 60.4385 46.0477V51.3397C60.4385 53.5039 62.6057 55.5329 65.1177 55.8757H75.2561C77.3562 55.5293 78.3215 56.4725 78.3755 58.1437V60.4117C78.3215 61.9337 77.3562 62.876 75.2561 62.6797H64.3378L60.4385 66.4597H77.5957C80.0269 66.4597 82.1913 64.4289 82.2749 61.9237V56.6317C82.1913 53.979 80.0269 51.9465 77.5957 52.0957Z" fill="black" fill-opacity="0.88"/>
<path fill-rule="evenodd" clip-rule="evenodd" d="M92.4128 62.6797H104.111L108.01 66.4597H90.8531C88.3422 66.4597 86.1738 64.4289 86.1738 61.9237V46.0477C86.1738 43.5443 88.3422 41.5117 90.8531 41.5117H103.331C105.796 41.5117 107.965 43.5443 108.01 46.0477V55.8757H90.0732V60.4117C90.0537 61.9337 91.018 62.876 92.4128 62.6797ZM92.4128 45.2917C91.0375 45.2917 90.0732 46.1938 90.0732 47.5597V52.0957H104.111V47.5597C103.979 46.0751 103.019 45.2917 101.771 45.2917H92.4128Z" fill="black" fill-opacity="0.88"/>
<path d="M134.526 46.0477C134.526 43.5443 132.354 41.5117 129.847 41.5117H112.689V66.4597H116.589V47.5597C116.575 46.0369 117.543 45.0955 118.928 45.2917H128.287C129.673 45.0955 130.639 46.0369 130.627 47.5597V66.4597H134.526V46.0477Z" fill="black" fill-opacity="0.88"/>
<path fill-rule="evenodd" clip-rule="evenodd" d="M182.878 62.6797H171.18C169.786 62.876 168.82 61.9337 168.841 60.4117V55.8757H186.778V46.0477C186.735 43.5443 184.567 41.5117 182.099 41.5117H169.621C167.115 41.5117 164.941 43.5443 164.941 46.0477V61.9237C164.941 64.4289 167.115 66.4597 169.621 66.4597H186.778L182.878 62.6797ZM168.841 47.5597C168.841 46.1938 169.806 45.2917 171.18 45.2917H180.539C181.789 45.2917 182.746 46.0751 182.878 47.5597V52.0957H168.841V47.5597Z" fill="black" fill-opacity="0.88"/>
<path d="M144.665 52.0957H155.583C158.011 51.9465 160.176 53.979 160.262 56.6317V61.9237C160.176 64.4289 158.011 66.4597 155.583 66.4597H138.426L142.325 62.6797H153.243C155.343 62.876 156.309 61.9337 156.363 60.4117V58.1437C156.309 56.4725 155.343 55.5293 153.243 55.8757H143.105C140.587 55.5329 138.426 53.5039 138.426 51.3397V46.0477C138.426 43.5443 140.587 41.5117 143.105 41.5117H160.262L156.363 45.2917H144.665C143.261 45.0955 142.295 46.0369 142.325 47.5597V49.0717C142.295 51.0086 143.261 51.9518 144.665 52.0957Z" fill="black" fill-opacity="0.88"/>
</svg>
