<svg width="200" height="96" viewBox="0 0 200 96" fill="none" xmlns="http://www.w3.org/2000/svg">
<path d="M29.2925 40.2684L37.4162 32.5927L29.2925 24.916L21.165 32.5927L29.2925 40.2684Z" fill="#008AD2"/>
<path d="M28.1282 41.3663L20.0055 49.0412L11.8828 41.3663L20.0055 33.6897L28.1282 41.3663Z" fill="#008AD2"/>
<path d="M18.8469 50.14L10.7223 57.8148L2.59961 50.14L10.7223 42.4624L18.8469 50.14Z" fill="#008AD2"/>
<path d="M28.1282 58.9118L20.0055 66.5885L11.8828 58.9118L20.0055 51.2361L28.1282 58.9118Z" fill="#008AD2"/>
<path d="M38.5749 49.0412L46.6995 41.3663L38.5749 33.6897L30.4521 41.3663L38.5749 49.0412Z" fill="#008AD2"/>
<path d="M46.6995 58.9118L38.5749 66.5885L30.4521 58.9118L38.5749 51.2361L46.6995 58.9118Z" fill="#008AD2"/>
<path d="M47.859 57.8148L55.9826 50.14L47.859 42.4624L39.7344 50.14L47.859 57.8148Z" fill="#008AD2"/>
<path d="M197.33 62.2201L192.707 66.5885L188.084 62.2201L192.707 57.8499L197.33 62.2201Z" fill="#008AD2"/>
<path d="M66.6775 52.096H77.5957C80.0269 51.9467 82.1913 53.9793 82.2749 56.632V61.924C82.1913 64.4292 80.0269 66.46 77.5957 66.46H60.4385L64.3378 62.68H75.2561C77.3562 62.8762 78.3215 61.9339 78.3755 60.412V58.144C78.3215 56.4727 77.3562 55.5296 75.2561 55.876H65.1177C62.6057 55.5331 60.4385 53.5041 60.4385 51.34V46.048C60.4385 43.5445 62.6057 41.512 65.1177 41.512H82.2749L78.3755 45.292H66.6775C65.2726 45.0957 64.3083 46.0371 64.3378 47.56V49.072C64.3083 51.0089 65.2726 51.9521 66.6775 52.096Z" fill="#008AD2"/>
<path fill-rule="evenodd" clip-rule="evenodd" d="M104.111 62.68H92.4128C91.018 62.8762 90.0537 61.9339 90.0732 60.412V55.876H108.01V46.048C107.965 43.5445 105.796 41.512 103.331 41.512H90.8531C88.3422 41.512 86.1738 43.5445 86.1738 46.048V61.924C86.1738 64.4292 88.3422 66.46 90.8531 66.46H108.01L104.111 62.68ZM90.0732 47.56C90.0732 46.194 91.0375 45.292 92.4128 45.292H101.771C103.019 45.292 103.979 46.0753 104.111 47.56V52.096H90.0732V47.56Z" fill="#008AD2"/>
<path d="M129.847 41.512C132.354 41.512 134.526 43.5445 134.526 46.048V66.46H130.627V47.56C130.639 46.0371 129.673 45.0957 128.287 45.292H118.928C117.543 45.0957 116.575 46.0371 116.589 47.56V66.46H112.689V41.512H129.847Z" fill="#008AD2"/>
<path fill-rule="evenodd" clip-rule="evenodd" d="M171.18 62.68H182.878L186.778 66.46H169.621C167.115 66.46 164.941 64.4292 164.941 61.924V46.048C164.941 43.5445 167.115 41.512 169.621 41.512H182.099C184.567 41.512 186.735 43.5445 186.778 46.048V55.876H168.841V60.412C168.82 61.9339 169.786 62.8762 171.18 62.68ZM171.18 45.292C169.806 45.292 168.841 46.194 168.841 47.56V52.096H182.878V47.56C182.746 46.0753 181.789 45.292 180.539 45.292H171.18Z" fill="#008AD2"/>
<path d="M155.583 52.096H144.665C143.261 51.9521 142.295 51.0089 142.325 49.072V47.56C142.295 46.0371 143.261 45.0957 144.665 45.292H156.363L160.262 41.512H143.105C140.587 41.512 138.426 43.5445 138.426 46.048V51.34C138.426 53.5041 140.587 55.5331 143.105 55.876H153.243C155.343 55.5296 156.309 56.4727 156.363 58.144V60.412C156.309 61.9339 155.343 62.8762 153.243 62.68H142.325L138.426 66.46H155.583C158.011 66.46 160.176 64.4292 160.262 61.924V56.632C160.176 53.9793 158.011 51.9467 155.583 52.096Z" fill="#008AD2"/>
</svg>
