<svg width="32" height="32" viewBox="0 0 32 32" fill="none" xmlns="http://www.w3.org/2000/svg">
<path d="M16.001 13.1269L20.8707 8.56372L16.001 4L11.129 8.56372L16.001 13.1269Z" fill="#B00000"/>
<path d="M15.3028 13.7794L10.4336 18.3421L5.5645 13.7794L10.4336 9.21571L15.3028 13.7794Z" fill="#B00000"/>
<path d="M9.73943 18.9957L4.86915 23.5583L0 18.9957L4.86915 14.4314L9.73943 18.9957Z" fill="#B00000"/>
<path d="M15.3028 24.2103L10.4336 28.774L5.5645 24.2103L10.4336 19.6471L15.3028 24.2103Z" fill="#B00000"/>
<path d="M21.5657 18.3421L26.4359 13.7794L21.5657 9.21571L16.6965 13.7794L21.5657 18.3421Z" fill="#B00000"/>
<path d="M26.4359 24.2103L21.5657 28.774L16.6965 24.2103L21.5657 19.6471L26.4359 24.2103Z" fill="#B00000"/>
<path d="M27.1303 23.5583L32 18.9957L27.1303 14.4314L22.26 18.9957L27.1303 23.5583Z" fill="#B00000"/>
</svg>
