<svg width="64" height="96" viewBox="0 0 64 96" fill="none" xmlns="http://www.w3.org/2000/svg">
<path d="M32.001 45.1269L36.8707 40.5637L32.001 36L27.129 40.5637L32.001 45.1269Z" fill="#B00000"/>
<path d="M31.3028 45.7794L26.4336 50.3421L21.5645 45.7794L26.4336 41.2157L31.3028 45.7794Z" fill="#B00000"/>
<path d="M25.7394 50.9957L20.8691 55.5583L16 50.9957L20.8691 46.4314L25.7394 50.9957Z" fill="#B00000"/>
<path d="M31.3028 56.2103L26.4336 60.774L21.5645 56.2103L26.4336 51.6471L31.3028 56.2103Z" fill="#B00000"/>
<path d="M37.5657 50.3421L42.4359 45.7794L37.5657 41.2157L32.6965 45.7794L37.5657 50.3421Z" fill="#B00000"/>
<path d="M42.4359 56.2103L37.5657 60.774L32.6965 56.2103L37.5657 51.6471L42.4359 56.2103Z" fill="#B00000"/>
<path d="M43.1303 55.5583L48 50.9957L43.1303 46.4314L38.26 50.9957L43.1303 55.5583Z" fill="#B00000"/>
</svg>
