<svg width="24" height="24" viewBox="0 0 24 24" fill="none" xmlns="http://www.w3.org/2000/svg">
<path d="M12.0008 9.84519L15.6531 6.42279L12.0008 3L8.34677 6.42279L12.0008 9.84519Z" fill="#008AD2"/>
<path d="M11.4771 10.3345L7.82524 13.7565L4.17338 10.3345L7.82524 6.91175L11.4771 10.3345Z" fill="#008AD2"/>
<path d="M7.30458 14.2467L3.65186 17.6687L0 14.2467L3.65186 10.8235L7.30458 14.2467Z" fill="#008AD2"/>
<path d="M11.4771 18.1578L7.82524 21.5806L4.17338 18.1578L7.82524 14.7354L11.4771 18.1578Z" fill="#008AD2"/>
<path d="M16.1742 13.7565L19.827 10.3345L16.1742 6.91175L12.5224 10.3345L16.1742 13.7565Z" fill="#008AD2"/>
<path d="M19.827 18.1578L16.1742 21.5806L12.5224 18.1578L16.1742 14.7354L19.827 18.1578Z" fill="#008AD2"/>
<path d="M20.3477 17.6687L24 14.2467L20.3477 10.8235L16.695 14.2467L20.3477 17.6687Z" fill="#008AD2"/>
</svg>
