<svg width="160" height="24" viewBox="0 0 160 24" fill="none" xmlns="http://www.w3.org/2000/svg">
<g clip-path="url(#clip0)">
<path d="M15.501 8.84173L20.2186 4.42112L15.501 0L10.7812 4.42112L15.501 8.84173Z" fill="#B00000"/>
<path d="M14.8246 9.47386L10.1076 13.8939L5.39062 9.47386L10.1076 5.05273L14.8246 9.47386Z" fill="#B00000"/>
<path d="M9.43511 14.5269L4.717 18.947L0 14.5269L4.717 10.1052L9.43511 14.5269Z" fill="#B00000"/>
<path d="M14.8246 19.5788L10.1076 23.9999L5.39062 19.5788L10.1076 15.1582L14.8246 19.5788Z" fill="#B00000"/>
<path d="M20.8918 13.8939L25.6099 9.47386L20.8918 5.05273L16.1748 9.47386L20.8918 13.8939Z" fill="#B00000"/>
<path d="M25.6099 19.5788L20.8918 23.9999L16.1748 19.5788L20.8918 15.1582L25.6099 19.5788Z" fill="#B00000"/>
<path d="M26.2826 18.947L31.0001 14.5269L26.2826 10.1052L21.5645 14.5269L26.2826 18.947Z" fill="#B00000"/>
<path fill-rule="evenodd" clip-rule="evenodd" d="M113.083 21.4842L110.399 24L107.714 21.4842L110.399 18.9673L113.083 21.4842Z" fill="#B00000"/>
<path d="M43.5514 15.6531H37.211C36.3952 15.5703 35.8352 15.0271 35.8523 13.9116V13.0408C35.8352 12.1637 36.3952 11.6216 37.211 11.7346H44.0043L46.2687 9.55762H36.3052C34.8464 9.55762 33.5879 10.7282 33.5879 12.17V15.2177C33.5879 16.4641 34.8464 17.6327 36.3052 17.8301H42.1927C43.4123 17.6306 43.9729 18.1738 44.0043 19.1363V20.4425C43.9729 21.319 43.4123 21.8617 42.1927 21.7487H35.8523L33.5879 23.9256H43.5514C44.9633 23.9256 46.2201 22.7561 46.2687 21.3133V18.2655C46.2201 16.7378 44.9633 15.5672 43.5514 15.6531Z" fill="black" fill-opacity="0.88"/>
<path fill-rule="evenodd" clip-rule="evenodd" d="M52.1563 21.7487H58.9496L61.214 23.9256H51.2505C49.7924 23.9256 48.5332 22.7561 48.5332 21.3133V12.17C48.5332 10.7282 49.7924 9.55762 51.2505 9.55762H58.4967C59.9282 9.55762 61.1875 10.7282 61.214 12.17V17.8301H50.7976V20.4425C50.7863 21.319 51.3463 21.8617 52.1563 21.7487ZM52.1563 11.7346C51.3576 11.7346 50.7976 12.2541 50.7976 13.0408V15.6531H58.9496V13.0408C58.8727 12.1857 58.3155 11.7346 57.5909 11.7346H52.1563Z" fill="black" fill-opacity="0.88"/>
<path d="M76.6115 12.17C76.6115 10.7282 75.3504 9.55762 73.8941 9.55762H63.9307V23.9256H66.1951V13.0408C66.187 12.1637 66.7492 11.6216 67.5538 11.7346H72.9884C73.7935 11.6216 74.3546 12.1637 74.347 13.0408V23.9256H76.6115V12.17Z" fill="black" fill-opacity="0.88"/>
<path fill-rule="evenodd" clip-rule="evenodd" d="M104.691 21.7487H97.8975C97.0875 21.8617 96.527 21.319 96.5388 20.4425V17.8301H106.955V12.17C106.93 10.7282 105.671 9.55762 104.238 9.55762H96.9917C95.5364 9.55762 94.2744 10.7282 94.2744 12.17V21.3133C94.2744 22.7561 95.5364 23.9256 96.9917 23.9256H106.955L104.691 21.7487ZM96.5388 13.0408C96.5388 12.2541 97.0994 11.7346 97.8975 11.7346H103.332C104.058 11.7346 104.614 12.1857 104.691 13.0408V15.6531H96.5388V13.0408Z" fill="black" fill-opacity="0.88"/>
<path d="M82.4991 15.6531H88.8395C90.2497 15.5672 91.5066 16.7378 91.5568 18.2655V21.3133C91.5066 22.7561 90.2497 23.9256 88.8395 23.9256H78.876L81.1404 21.7487H87.4808C88.6998 21.8617 89.261 21.319 89.2923 20.4425V19.1363C89.261 18.1738 88.6998 17.6306 87.4808 17.8301H81.5933C80.1312 17.6327 78.876 16.4641 78.876 15.2177V12.17C78.876 10.7282 80.1312 9.55762 81.5933 9.55762H91.5568L89.2923 11.7346H82.4991C81.6838 11.6216 81.1227 12.1637 81.1404 13.0408V13.9116C81.1227 15.0271 81.6838 15.5703 82.4991 15.6531Z" fill="black" fill-opacity="0.88"/>
</g>
<defs>
<clipPath id="clip0">
<path d="M0 0H160V24H0V0Z" fill="white"/>
</clipPath>
</defs>
</svg>
