<svg width="160" height="24" viewBox="0 0 160 24" fill="none" xmlns="http://www.w3.org/2000/svg">
<g clip-path="url(#clip0)">
<path d="M15.501 8.84173L20.2186 4.42112L15.501 0L10.7812 4.42112L15.501 8.84173Z" fill="#008AD2"/>
<path d="M14.8246 9.47386L10.1076 13.8939L5.39062 9.47386L10.1076 5.05273L14.8246 9.47386Z" fill="#008AD2"/>
<path d="M9.43511 14.5269L4.717 18.947L0 14.5269L4.717 10.1052L9.43511 14.5269Z" fill="#008AD2"/>
<path d="M14.8246 19.5788L10.1076 23.9999L5.39062 19.5788L10.1076 15.1582L14.8246 19.5788Z" fill="#008AD2"/>
<path d="M20.8918 13.8939L25.6099 9.47386L20.8918 5.05273L16.1748 9.47386L20.8918 13.8939Z" fill="#008AD2"/>
<path d="M25.6099 19.5788L20.8918 23.9999L16.1748 19.5788L20.8918 15.1582L25.6099 19.5788Z" fill="#008AD2"/>
<path d="M26.2826 18.947L31.0001 14.5269L26.2826 10.1052L21.5645 14.5269L26.2826 18.947Z" fill="#008AD2"/>
<path d="M113.083 21.4842L110.398 24L107.714 21.4842L110.398 18.9673L113.083 21.4842Z" fill="#008AD2"/>
<path d="M37.211 15.6534H43.5514C44.9633 15.5674 46.2201 16.738 46.2687 18.2657V21.3135C46.2201 22.7563 44.9633 23.9259 43.5514 23.9259H33.5879L35.8523 21.7489H42.1927C43.4123 21.8619 43.9729 21.3193 44.0043 20.4427V19.1365C43.9729 18.174 43.4123 17.6309 42.1927 17.8304H36.3052C34.8464 17.6329 33.5879 16.4644 33.5879 15.218V12.1702C33.5879 10.7285 34.8464 9.55786 36.3052 9.55786H46.2687L44.0043 11.7348H37.211C36.3952 11.6218 35.8352 12.164 35.8523 13.041V13.9118C35.8352 15.0273 36.3952 15.5705 37.211 15.6534Z" fill="#008AD2"/>
<path fill-rule="evenodd" clip-rule="evenodd" d="M58.9496 21.7489H52.1563C51.3463 21.8619 50.7863 21.3193 50.7976 20.4427V17.8304H61.214V12.1702C61.1875 10.7285 59.9282 9.55786 58.4967 9.55786H51.2505C49.7924 9.55786 48.5332 10.7285 48.5332 12.1702V21.3135C48.5332 22.7563 49.7924 23.9259 51.2505 23.9259H61.214L58.9496 21.7489ZM50.7976 13.041C50.7976 12.2544 51.3576 11.7348 52.1563 11.7348H57.5909C58.3155 11.7348 58.8727 12.186 58.9496 13.041V15.6534H50.7976V13.041Z" fill="#008AD2"/>
<path d="M73.8941 9.55786C75.3504 9.55786 76.6115 10.7285 76.6115 12.1702V23.9259H74.347V13.041C74.3546 12.164 73.7935 11.6218 72.9884 11.7348H67.5538C66.7492 11.6218 66.187 12.164 66.1951 13.041V23.9259H63.9307V9.55786H73.8941Z" fill="#008AD2"/>
<path fill-rule="evenodd" clip-rule="evenodd" d="M97.8975 21.7489H104.691L106.955 23.9259H96.9917C95.5364 23.9259 94.2744 22.7563 94.2744 21.3135V12.1702C94.2744 10.7285 95.5364 9.55786 96.9917 9.55786H104.238C105.671 9.55786 106.93 10.7285 106.955 12.1702V17.8304H96.5388V20.4427C96.527 21.3193 97.0875 21.8619 97.8975 21.7489ZM97.8975 11.7348C97.0994 11.7348 96.5388 12.2544 96.5388 13.041V15.6534H104.691V13.041C104.614 12.186 104.058 11.7348 103.332 11.7348H97.8975Z" fill="#008AD2"/>
<path d="M88.8395 15.6534H82.4991C81.6838 15.5705 81.1227 15.0273 81.1404 13.9118V13.041C81.1227 12.164 81.6838 11.6218 82.4991 11.7348H89.2923L91.5568 9.55786H81.5933C80.1312 9.55786 78.876 10.7285 78.876 12.1702V15.218C78.876 16.4644 80.1312 17.6329 81.5933 17.8304H87.4808C88.6998 17.6309 89.261 18.174 89.2923 19.1365V20.4427C89.261 21.3193 88.6998 21.8619 87.4808 21.7489H81.1404L78.876 23.9259H88.8395C90.2497 23.9259 91.5066 22.7563 91.5568 21.3135V18.2657C91.5066 16.738 90.2497 15.5674 88.8395 15.6534Z" fill="#008AD2"/>
</g>
<defs>
<clipPath id="clip0">
<path d="M0 0H160V24H0V0Z" fill="white"/>
</clipPath>
</defs>
</svg>
