<svg width="200" height="96" viewBox="0 0 200 96" fill="none" xmlns="http://www.w3.org/2000/svg">
<path d="M26.4885 20.1944L46.1582 9V31.3876L26.4885 20.1944Z" fill="#008AD2"/>
<path d="M1.57349 34.2509L21.2431 23.0571V45.4447L1.57349 34.2509Z" fill="#008AD2"/>
<path d="M0 59.5024L19.6697 48.3083L0 37.1147V59.5024Z" fill="#008AD2"/>
<path d="M21.2431 73.5595V51.1719L1.57349 62.3657L21.2431 73.5595Z" fill="#008AD2"/>
<path d="M24.3904 51.1719V73.5595L44.06 62.3657L24.3904 51.1719Z" fill="#008AD2"/>
<path d="M19.6697 76.4233L0 87.6171V65.2295L19.6697 76.4233Z" fill="#008AD2"/>
<path d="M24.3904 45.4447L44.06 34.2509L24.3904 23.0571V45.4447Z" fill="#008AD2"/>
<path d="M26.4885 48.3086L46.1582 59.5024V37.1147L26.4885 48.3086Z" fill="#008AD2"/>
<path fill-rule="evenodd" clip-rule="evenodd" d="M129.219 37.8547C139.448 39.7239 146.596 42.5763 147.758 49.8144V23.0576H167.464C175.486 23.0576 181.753 25.5041 184.873 30.3969V23.5205H199.511V66.9305H184.873V46.8948C181.716 52.0129 175.332 54.6849 167.151 54.6849H162.396V66.4676H147.758V54.2748C146.589 62.0684 139.341 66.9227 128.594 66.9227L106.049 66.8061L101.773 55.2187H101.84L101.761 55.0051H86.8279L82.6318 66.5457H68.6262L68.6594 66.4671H60.9231V23.0571H75.5618V50.1151L87.081 22.8257H101.595L115.268 55.2187L129.282 55.2187C131.909 55.2187 133.035 54.5365 133.035 53.2342C133.035 51.9939 131.659 51.3118 126.967 50.3816C117.145 48.3971 108.512 45.6065 108.512 36.3043C108.512 28.0564 115.018 21.6689 127.092 21.6689C135.538 21.6689 141.793 23.6534 146.861 27.6223L139.729 37.4206C135.6 34.4439 130.658 33.1416 126.592 33.1416C124.402 33.1416 123.401 33.8858 123.401 35.064C123.401 36.2423 124.59 36.9865 129.219 37.8547ZM98.109 44.7065L94.3387 34.1641L90.5684 44.7065H98.109ZM166.288 43.7269H162.347V34.0527H166.35C170.229 34.0527 172.544 35.665 172.544 38.8278V38.9518C172.544 42.0525 170.041 43.7269 166.288 43.7269Z" fill="#008AD2"/>
</svg>
