<svg width="160" height="24" viewBox="0 0 160 24" fill="none" xmlns="http://www.w3.org/2000/svg">
<path fill-rule="evenodd" clip-rule="evenodd" d="M56.4375 17.6847H60.9063V4.43262H56.4375V17.6847Z" fill="#0073BF"/>
<path fill-rule="evenodd" clip-rule="evenodd" d="M56.4375 17.6139H59.5504V4.36182H56.4375V17.6139Z" fill="url(#paint0_radial)" fill-opacity="0.7"/>
<path fill-rule="evenodd" clip-rule="evenodd" d="M45.1069 17.5431V4.29102H51.1227C54.6749 4.29102 57.1003 5.86233 57.1003 9.00497V9.04283C57.1003 12.2423 54.6367 13.9461 51.0272 13.9461H49.5758V17.5431H45.1069ZM49.5606 10.6009H50.7637C51.9096 10.6009 52.6735 10.0897 52.6735 9.14314V9.10528C52.6735 8.13977 51.9669 7.64755 50.7828 7.64755H49.5606V10.6009Z" fill="#0073BF"/>
<path fill-rule="evenodd" clip-rule="evenodd" d="M18.5984 17.5431H23.0672V4.29102H18.5984V17.5431Z" fill="#4A90E2"/>
<path style="mix-blend-mode:multiply" fill-rule="evenodd" clip-rule="evenodd" d="M18.5984 17.5431H23.0672V4.29102H18.5984V17.5431Z" fill="url(#paint1_linear)" fill-opacity="0.7"/>
<path fill-rule="evenodd" clip-rule="evenodd" d="M20.95 17.567L26.5838 4.22021H31.0144L36.6482 17.567H32.3675L31.0652 14.0438H26.5065L25.2255 17.567H20.95ZM27.6484 10.8999H29.9504L28.7994 7.68158L27.6484 10.8999Z" fill="#4A90E2"/>
<path style="mix-blend-mode:multiply" fill-rule="evenodd" clip-rule="evenodd" d="M20.95 17.6378H25.2255L26.5065 14.1147H31.0652L32.3675 17.6378H36.6482L31.0144 4.29102H26.5838L20.95 17.6378Z" fill="url(#paint2_linear)" fill-opacity="0.7"/>
<path fill-rule="evenodd" clip-rule="evenodd" d="M45.1578 13.1247C45.1578 10.4175 42.8661 9.43306 39.4476 8.80832C38.0344 8.54328 37.6716 8.3161 37.6716 7.9564C37.6716 7.5967 37.9771 7.36952 38.6455 7.36952C39.8869 7.36952 41.3956 7.76709 42.656 8.6758L44.8332 5.68462C43.2863 4.473 41.3765 3.86719 38.7983 3.86719C35.1125 3.86719 33.1263 5.81714 33.1263 8.33503C33.1263 11.1748 35.7618 12.0267 38.7601 12.6325C40.1925 12.9165 40.6126 13.1247 40.6126 13.5033C40.6126 13.9009 40.2688 14.1092 39.4667 14.1092C37.9007 14.1092 31.0688 14.1092 31.0688 14.1092L32.3742 17.6465L39.2567 17.6821C42.847 17.6821 45.1578 15.9077 45.1578 13.1247Z" fill="#4A90E2"/>
<path fill-rule="evenodd" clip-rule="evenodd" d="M7.4458 12.874V19.7084L13.4505 16.2912L7.4458 12.874Z" fill="#4A90E2"/>
<path fill-rule="evenodd" clip-rule="evenodd" d="M6.48517 19.7084V12.874L0.480469 16.2912L6.48517 19.7084Z" fill="#4A90E2"/>
<path fill-rule="evenodd" clip-rule="evenodd" d="M0 24L6.0047 20.5827L0 17.1655V24Z" fill="#4A90E2"/>
<path fill-rule="evenodd" clip-rule="evenodd" d="M0 15.4174L6.0047 12.0001L0 8.58301V15.4174Z" fill="#A5C5E7"/>
<path fill-rule="evenodd" clip-rule="evenodd" d="M6.48517 11.1259V4.2915L0.480469 7.70872L6.48517 11.1259Z" fill="#A4C7F0"/>
<path fill-rule="evenodd" clip-rule="evenodd" d="M7.4458 4.2915V11.1259L13.4505 7.70872L7.4458 4.2915Z" fill="#4A90E2"/>
<path fill-rule="evenodd" clip-rule="evenodd" d="M14.0911 0L8.08643 3.41739L14.0911 6.83443V0Z" fill="#4A90E2"/>
<path fill-rule="evenodd" clip-rule="evenodd" d="M8.08643 12.0002L14.0911 15.4174V8.58301L8.08643 12.0002Z" fill="#4A90E2"/>
<defs>
<radialGradient id="paint0_radial" cx="0" cy="0" r="1" gradientUnits="userSpaceOnUse" gradientTransform="translate(52.1516 5.20018) scale(7.013 6.79496)">
<stop stop-opacity="0.924535"/>
<stop offset="1" stop-opacity="0"/>
</radialGradient>
<linearGradient id="paint1_linear" x1="19.9973" y1="13.3605" x2="25.9324" y2="13.7821" gradientUnits="userSpaceOnUse">
<stop stop-opacity="0"/>
<stop offset="1"/>
</linearGradient>
<linearGradient id="paint2_linear" x1="31.9534" y1="13.4752" x2="34.2251" y2="17.3579" gradientUnits="userSpaceOnUse">
<stop stop-opacity="0"/>
<stop offset="0.316546" stop-opacity="0.285751"/>
<stop offset="1"/>
</linearGradient>
</defs>
</svg>
