<svg width="160" height="24" viewBox="0 0 160 24" fill="none" xmlns="http://www.w3.org/2000/svg">
<path d="M8.08634 3.41739L14.091 0V6.83443L8.08634 3.41739Z" fill="#008AD2"/>
<path d="M0.480349 7.70853L6.48504 4.29132V11.1257L0.480349 7.70853Z" fill="#008AD2"/>
<path d="M0 15.4172L6.00469 11.9999L0 8.58279V15.4172Z" fill="#008AD2"/>
<path d="M6.48504 19.7085V12.8741L0.480349 16.2913L6.48504 19.7085Z" fill="#008AD2"/>
<path d="M7.44582 12.8741V19.7085L13.4505 16.2913L7.44582 12.8741Z" fill="#008AD2"/>
<path d="M6.00469 20.5828L0 24V17.1656L6.00469 20.5828Z" fill="#008AD2"/>
<path d="M7.44582 11.1257L13.4505 7.70853L7.44582 4.29132V11.1257Z" fill="#008AD2"/>
<path d="M8.08634 12L14.091 15.4172V8.58279L8.08634 12Z" fill="#008AD2"/>
<path fill-rule="evenodd" clip-rule="evenodd" d="M39.4476 8.80832C42.5701 9.37896 44.7525 10.2497 45.107 12.4593V4.29112H51.1228C53.5717 4.29112 55.4851 5.03796 56.4374 6.53164V4.43243H60.9062V17.6845H56.4374V11.5681C55.4736 13.1305 53.5247 13.9462 51.0273 13.9462H49.5759V17.5432H45.107V13.821C44.7502 16.2002 42.5377 17.6821 39.2567 17.6821L32.3742 17.6465L31.0688 14.1091H31.0893L31.0652 14.0439H26.5065L25.2256 17.567H20.95L20.9601 17.543H18.5984V4.29097H23.0672V12.5512L26.5838 4.22031H31.0144L35.1886 14.1091L39.4667 14.1091C40.2688 14.1091 40.6126 13.9009 40.6126 13.5033C40.6126 13.1247 40.1924 12.9165 38.7601 12.6325C35.7618 12.0267 33.1263 11.1748 33.1263 8.33503C33.1263 5.81714 35.1125 3.86719 38.7983 3.86719C41.3765 3.86719 43.2863 4.473 44.8332 5.68462L42.656 8.6758C41.3956 7.76708 39.8869 7.36952 38.6455 7.36952C37.9771 7.36952 37.6715 7.5967 37.6715 7.9564C37.6715 8.3161 38.0344 8.54328 39.4476 8.80832ZM29.9504 10.9L28.7994 7.68168L27.6484 10.9H29.9504ZM50.7638 10.601H49.5607V7.64765H50.7829C51.967 7.64765 52.6736 8.13987 52.6736 9.10538V9.14324C52.6736 10.0898 51.9097 10.601 50.7638 10.601Z" fill="#008AD2"/>
</svg>
