<svg width="200" height="96" viewBox="0 0 200 96" fill="none" xmlns="http://www.w3.org/2000/svg">
<g clip-path="url(#clip0)">
<path d="M45.5467 35.1194C45.5467 31.1497 43.4808 27.9092 40.9694 27.9092C38.4579 27.9092 36.3921 31.1092 36.3921 35.1194C37.8908 34.8764 39.3896 34.7144 40.9694 34.7144C42.5087 34.7144 44.0479 34.8764 45.5467 35.1194Z" fill="#FFCC00"/>
<path d="M49.9217 27.8686C51.866 28.3952 53.4863 29.5699 54.6205 31.0686C52.2711 31.8788 50.3673 33.6611 49.4356 36.132C48.504 35.8485 47.5723 35.5649 46.6001 35.3624C47.0457 32.7294 46.1951 30.0965 44.4533 28.2331C46.1545 27.5445 48.0179 27.3825 49.9217 27.8686Z" fill="#FFCC00"/>
<path d="M61.0608 43.7478C63.0457 42.087 65.6381 41.5199 68.0685 41.9655C67.866 40.1022 67.0559 38.2793 65.5976 36.8211C64.2204 35.4439 62.4786 34.6337 60.6962 34.3907C61.2633 36.8616 60.6962 39.5756 58.995 41.6414C59.157 41.8034 59.319 41.9553 59.481 42.1072C59.643 42.2591 59.8051 42.4111 59.9671 42.5731C60.3722 42.9782 60.7368 43.3832 61.0608 43.7478Z" fill="#FFCC00"/>
<path d="M74.7119 52.4968C75.2385 54.4411 75.0359 56.4259 74.2663 58.1677C72.403 56.588 69.8915 55.8183 67.3396 56.2234C67.1371 55.2512 66.8535 54.3196 66.57 53.3879C69.0814 52.4157 70.9042 50.3904 71.6738 47.96C73.0916 49.0537 74.2258 50.5929 74.7119 52.4968Z" fill="#FFCC00"/>
<path d="M74.3879 65.1354C72.5246 66.8772 69.8916 67.7279 67.2586 67.2823C67.0561 68.2545 66.7726 69.1861 66.489 70.1178C68.9194 71.0495 70.7017 72.9533 71.5119 75.3027C73.0107 74.1685 74.1854 72.5482 74.7119 70.6039C75.2385 68.7001 75.0765 66.8367 74.3879 65.1354Z" fill="#FFCC00"/>
<path d="M58.8334 81.743C60.4941 83.7279 61.0612 86.3203 60.6157 88.7507C62.479 88.5482 64.3018 87.7381 65.7601 86.2798C67.1373 84.9026 67.9474 83.1608 68.1905 81.3784C65.7195 81.9455 63.0056 81.3784 60.9397 79.6771C60.7777 79.8392 60.6258 80.0012 60.4739 80.1632C60.3221 80.3252 60.17 80.4873 60.0081 80.6493C59.603 81.0544 59.2384 81.4189 58.8334 81.743Z" fill="#FFCC00"/>
<path d="M37.4858 28.3548C35.744 27.5851 33.7592 27.3826 31.8149 27.9092C29.911 28.3953 28.3718 29.5295 27.2781 30.9472C29.7085 31.7168 31.7338 33.5397 32.706 36.0511C33.6377 35.7675 34.5693 35.484 35.5415 35.2815C35.0959 32.7295 35.9061 30.2181 37.4858 28.3548Z" fill="#FFCC00"/>
<path d="M21.283 34.5117C20.8374 36.9421 21.4045 39.5345 23.0653 41.5194C22.7008 41.8839 22.2957 42.2485 21.8906 42.6131C21.7286 42.7751 21.5767 42.9371 21.4248 43.0991C21.2729 43.2612 21.121 43.4232 20.959 43.5852C18.8931 41.8839 16.1791 41.3168 13.7082 41.8839C13.9513 40.1016 14.7614 38.3598 16.1386 36.9826C17.5969 35.5243 19.4197 34.7142 21.283 34.5117Z" fill="#FFCC00"/>
<path d="M10.3867 48.0009C8.88796 49.1351 7.71326 50.7554 7.18667 52.6997C6.70058 54.6035 6.86261 56.4668 7.55123 58.1681C9.41455 56.4263 12.0475 55.5757 14.6805 56.0213C14.883 55.0491 15.1666 54.1174 15.4501 53.1858C12.9792 52.2541 11.1969 50.3098 10.3867 48.0009Z" fill="#FFCC00"/>
<path d="M7.18668 70.7655C6.66009 68.8212 6.86262 66.8363 7.63225 65.0945C9.49558 66.7148 12.0475 67.4845 14.559 67.0389C14.7615 68.0111 15.045 68.9427 15.3286 69.8744C12.8172 70.8465 10.9943 72.8719 10.2247 75.3023C8.80696 74.2086 7.67276 72.6694 7.18668 70.7655Z" fill="#FFCC00"/>
<path d="M20.8375 79.5153C18.8526 81.176 16.2602 81.7431 13.8298 81.2976C14.0323 83.1609 14.8424 84.9837 16.3007 86.442C17.6779 87.8192 19.4197 88.6294 21.202 88.8724C20.6349 86.361 21.202 83.6875 22.9033 81.6216C22.7413 81.4596 22.5793 81.3077 22.4172 81.1558C22.2552 81.0039 22.0932 80.852 21.9312 80.69C21.5666 80.3254 21.202 79.9203 20.8375 79.5153Z" fill="#FFCC00"/>
<path d="M32.0175 95.4341C30.0732 94.9075 28.4529 93.7733 27.3187 92.234C29.6276 91.4239 31.5719 89.6011 32.5036 87.1706C33.4352 87.4542 34.3669 87.7377 35.3391 87.9403C34.8935 90.5732 35.7441 93.2062 37.4859 95.0695C35.7846 95.7581 33.9213 95.9202 32.0175 95.4341Z" fill="#FFCC00"/>
<path d="M44.4126 94.9482C46.1544 95.7178 48.1393 95.9203 50.0836 95.3938C51.9875 94.9077 53.5267 93.7735 54.6204 92.3557C52.19 91.5861 50.1646 89.7633 49.1925 87.2519C48.261 87.5354 47.329 87.819 46.357 88.0215C46.8026 90.5734 46.0329 93.0849 44.4126 94.9482Z" fill="#FFCC00"/>
<path d="M40.9696 95.3531C38.4582 95.3531 36.3923 92.1531 36.3923 88.1834C37.8506 88.4264 39.3899 88.5479 40.9696 88.5884C42.5494 88.5884 44.0482 88.4264 45.5469 88.1834C45.5469 92.1531 43.4811 95.3531 40.9696 95.3531Z" fill="#FFCC00"/>
<path d="M57.8204 90.8577C60.0078 89.602 60.1698 85.7943 58.185 82.3512C55.8356 84.2956 53.1621 85.8753 50.2456 86.9285C52.271 90.3311 55.6331 92.1134 57.8204 90.8577Z" fill="#FFCC00"/>
<path d="M66.2055 70.9272C69.6486 72.9526 71.3904 76.3147 70.1346 78.502C68.8789 80.6894 65.0713 80.8515 61.6282 78.8666C63.5725 76.5172 65.1523 73.8438 66.2055 70.9272Z" fill="#FFCC00"/>
<path d="M67.4611 66.2285C71.4308 66.2285 74.6714 64.1627 74.6714 61.6512C74.6714 59.1398 71.4713 57.074 67.4611 57.074C67.7042 58.5727 67.8662 60.0715 67.8662 61.6512C67.8662 63.1905 67.7447 64.7298 67.4611 66.2285Z" fill="#FFCC00"/>
<path d="M61.6282 44.4356C65.0713 42.4507 68.8789 42.6127 70.1346 44.8001C71.4309 46.9875 69.6486 50.3496 66.2055 52.3749C65.1523 49.4584 63.5725 46.785 61.6282 44.4356Z" fill="#FFCC00"/>
<path d="M57.8204 32.446C55.6331 31.1903 52.271 32.9321 50.2456 36.3752C53.1621 37.4284 55.8356 39.0081 58.185 40.9525C60.1698 37.5094 60.0078 33.7017 57.8204 32.446Z" fill="#FFCC00"/>
<path d="M23.7539 40.9525C21.7691 37.5094 21.9311 33.7017 24.1185 32.446C26.2654 31.1903 29.668 32.9321 31.6933 36.3752C28.7768 37.4284 26.1033 39.0081 23.7539 40.9525Z" fill="#FFCC00"/>
<path d="M11.7641 44.8006C10.5084 46.988 12.2502 50.3501 15.6933 52.3349C16.7465 49.4184 18.3262 46.745 20.2706 44.3956C16.8275 42.4512 13.0198 42.6133 11.7641 44.8006Z" fill="#FFCC00"/>
<path d="M7.26748 61.6512C7.26748 59.1398 10.4675 57.074 14.4372 57.074C14.1942 58.5727 14.0322 60.0715 14.0322 61.6512C14.0322 63.231 14.1942 64.7298 14.4372 66.2285C10.4675 66.2285 7.26748 64.1627 7.26748 61.6512Z" fill="#FFCC00"/>
<path d="M11.7641 78.502C13.0198 80.6894 16.8275 80.8515 20.2706 78.8666C18.3262 76.5172 16.7465 73.8438 15.6933 70.9272C12.2502 72.9526 10.5084 76.3147 11.7641 78.502Z" fill="#FFCC00"/>
<path d="M31.653 86.9285C29.6682 90.3716 26.3061 92.1134 24.1187 90.8577C21.9314 89.602 21.7693 85.7943 23.7137 82.3512C26.0631 84.2956 28.7365 85.8753 31.653 86.9285Z" fill="#FFCC00"/>
<path d="M59.3191 43.3023C54.6203 38.6035 48.1392 35.687 40.9694 35.687C33.7997 35.687 27.3185 38.6035 22.6197 43.3023C17.9209 48.0012 15.0044 54.4823 15.0044 61.652C15.0044 68.8218 17.9209 75.3029 22.6197 80.0017C27.3185 84.7005 33.7997 87.617 40.9694 87.617C48.1392 87.617 54.6203 84.7005 59.3191 80.0017C64.0179 75.3029 66.9344 68.8218 66.9344 61.652C66.8939 54.4823 64.0179 48.0012 59.3191 43.3023Z" fill="#070C3D"/>
<path d="M67.461 57.0742C67.4205 56.7907 67.38 56.5071 67.299 56.2236C67.0964 55.2514 66.8534 54.3198 66.5293 53.3881C66.4078 53.0235 66.2863 52.6995 66.1648 52.3754C65.1116 49.4589 63.5318 46.7855 61.5875 44.436C61.3849 44.2335 61.2229 43.9905 61.0204 43.7879C60.6558 43.3829 60.3317 43.0183 59.9267 42.6132C59.6026 42.2892 59.2786 41.9651 58.9545 41.6816C58.671 41.4385 58.4279 41.1955 58.1444 40.9524C55.795 39.0081 53.1215 37.4283 50.205 36.3751C49.9214 36.2941 49.6784 36.1726 49.3948 36.0916C48.4632 35.7675 47.5315 35.5245 46.5594 35.322C46.1948 35.2409 45.8707 35.2004 45.5062 35.1194C44.0074 34.8764 42.5086 34.7144 40.9289 34.7144C39.3491 34.7144 37.8503 34.8359 36.3516 35.1194C36.068 35.1599 35.7845 35.2004 35.5009 35.2815C34.5288 35.484 33.5971 35.727 32.6654 36.0511C32.3009 36.1726 31.9768 36.2941 31.6528 36.4157C28.7363 37.4688 26.0628 39.0486 23.7134 40.9929C23.5109 41.1955 23.2678 41.3575 23.0653 41.56C22.6602 41.9246 22.2956 42.2892 21.8906 42.6537C21.5665 42.9778 21.2425 43.3018 20.9589 43.6259C20.7159 43.9095 20.4728 44.1525 20.2298 44.436C18.2854 46.7855 16.7057 49.4589 15.6525 52.3754C15.5715 52.659 15.45 52.902 15.3689 53.1856C15.0449 54.1172 14.8018 55.0489 14.5993 56.0211C14.5183 56.3856 14.4778 56.7097 14.3968 57.0742C14.1537 58.573 13.9917 60.0718 13.9917 61.6515C13.9917 63.2313 14.1132 64.7301 14.3968 66.2288C14.4373 66.5124 14.4778 66.7959 14.5588 67.0795C14.7613 68.0516 15.0044 68.9833 15.3284 69.915C15.45 70.2795 15.5715 70.6036 15.693 70.9276C16.7462 73.8442 18.326 76.5176 20.2703 78.867C20.4728 79.0696 20.6349 79.3126 20.8374 79.5151C21.202 79.9202 21.526 80.2848 21.9311 80.6898C22.2551 81.0139 22.5792 81.338 22.9032 81.6215C23.1868 81.8645 23.4298 82.1076 23.7134 82.3506C26.0628 84.295 28.7363 85.8747 31.6528 86.9279C31.9363 87.0089 32.1794 87.1305 32.4629 87.2115C33.3946 87.5355 34.3262 87.7786 35.2984 87.9811C35.663 88.0621 35.987 88.1026 36.3516 88.1836C37.8503 88.4267 39.3491 88.5887 40.9289 88.5887C42.5086 88.5887 44.0074 88.4672 45.5062 88.1836C45.7897 88.1431 46.0733 88.1026 46.3568 88.0216C47.329 87.8191 48.2607 87.576 49.1923 87.252C49.5569 87.1305 49.8809 87.0089 50.205 86.8874C53.1215 85.8342 55.795 84.2545 58.1444 82.3101C58.3469 82.1076 58.5899 81.9456 58.7925 81.743C59.1975 81.3785 59.5621 81.0544 59.9267 80.6493C60.2507 80.3253 60.5748 80.0012 60.8583 79.6772C61.1014 79.3936 61.3444 79.1506 61.5875 78.867C63.5318 76.5176 65.1116 73.8442 66.1648 70.9276C66.2458 70.6441 66.3673 70.4011 66.4483 70.1175C66.7724 69.1858 67.0154 68.2542 67.2179 67.282C67.299 66.9174 67.3395 66.5934 67.4205 66.2288C67.6635 64.7301 67.8255 63.2313 67.8255 61.6515C67.8661 60.0718 67.7445 58.573 67.461 57.0742ZM40.9694 87.576C33.7996 87.576 27.3185 84.6595 22.6197 79.9607C17.9209 75.2619 15.0044 68.7808 15.0044 61.611C15.0044 54.4413 17.9209 47.9602 22.6197 43.2613C27.3185 38.5625 33.7996 35.646 40.9694 35.646C48.1391 35.646 54.6203 38.5625 59.3191 43.2613C64.0179 47.9602 66.9344 54.4413 66.9344 61.611C66.9344 68.7808 64.0179 75.2619 59.3191 79.9607C54.6203 84.7 48.1391 87.576 40.9694 87.576Z" fill="white"/>
<path fill-rule="evenodd" clip-rule="evenodd" d="M81.8409 64.0412C54.5796 59.3018 44.1288 37.8331 41.0098 0.0805664V64.0412H81.8409Z" fill="#008837"/>
<path d="M81.8408 64.1226H40.9692C40.9287 64.1226 40.8882 64.0821 40.8882 64.0416V0.0810144C40.8882 0.0405073 40.9287 0 40.9692 0C41.0097 0 41.0502 0.0405073 41.0502 0.0810144C42.711 20.1725 46.3161 34.269 52.3922 44.3957C58.9138 55.2516 68.514 61.6517 81.8003 63.9606C81.8408 63.9606 81.8813 64.0011 81.8813 64.0416C81.9218 64.0821 81.8813 64.1226 81.8408 64.1226ZM41.0907 63.9606H80.8686C68.0684 61.5302 58.7113 55.1301 52.3112 44.5172C46.4376 34.7145 42.8325 21.2257 41.0907 2.18738V63.9606Z" fill="#FFCC00"/>
<path fill-rule="evenodd" clip-rule="evenodd" d="M41.0101 64.041V88.3857C33.7593 78.8666 20.1489 68.9019 0.219482 64.041H41.0101Z" fill="#008837"/>
<path d="M41.091 64.0412V88.3859C41.091 88.4264 41.0505 88.4669 41.01 88.4669C40.9695 88.4669 40.929 88.4669 40.929 88.4264C37.0403 83.3225 31.3288 78.0971 23.7945 73.6008C17.2729 69.7121 9.41449 66.3906 0.219396 64.1222C0.178889 64.1222 0.138381 64.0817 0.178888 64.0412C0.178888 64.0007 0.219395 64.0007 0.259902 64.0007H41.0505C41.0505 63.9602 41.091 64.0007 41.091 64.0412ZM40.929 88.1428V64.1222H0.827001C9.81956 66.3906 17.5159 69.6716 23.916 73.4793C31.3288 77.9351 36.9998 83.0794 40.929 88.1428Z" fill="#FFCC00"/>
<path fill-rule="evenodd" clip-rule="evenodd" d="M0.0976562 64.0412C27.3589 59.3018 37.8097 37.8331 40.9287 0.0805664V64.0412H0.0976562Z" fill="#FFFF00"/>
<path d="M0.0572851 63.9606C13.6676 61.6112 23.0653 55.0491 29.4654 44.3957C35.8655 33.7424 39.2681 18.9168 40.8479 0.0810144C40.8479 0.0405073 40.8884 0 40.9289 0C40.9694 0 41.0099 0.0405073 41.0099 0.0810144V64.0416C41.0099 64.0821 40.9694 64.1226 40.9289 64.1226H0.097793C0.057286 64.1226 0.0167787 64.0821 0.0167787 64.0416C-0.0237283 64.0011 0.0167781 63.9606 0.0572851 63.9606ZM29.6274 44.4767C23.3488 54.968 14.1132 61.4897 0.867426 63.9606H40.8479V2.14687C39.1871 20.051 35.825 34.1474 29.6274 44.4767Z" fill="#FFCC00"/>
<path fill-rule="evenodd" clip-rule="evenodd" d="M40.9695 64.041V88.3857C48.2202 78.8666 61.8306 68.9019 81.7601 64.041H40.9695Z" fill="#FFFF00"/>
<path d="M40.9692 88.4672C40.8882 88.4672 40.8882 88.4267 40.8882 88.3862V64.0415C40.8882 64.001 40.9287 63.9604 40.9692 63.9604H81.7598C81.8003 63.9604 81.8408 64.001 81.8408 64.0415C81.8408 64.082 81.8003 64.1225 81.7598 64.1225C64.4228 68.3757 49.5567 77.2062 41.0502 88.4267C41.0097 88.4672 41.0097 88.4672 40.9692 88.4672ZM41.0502 64.1225V88.1026C49.5162 77.1252 64.0177 68.4162 80.9901 64.1225H41.0502Z" fill="#FFCC00"/>
<path fill-rule="evenodd" clip-rule="evenodd" d="M38.0933 33.0533L38.1338 36.4964C38.7009 35.8483 39.3895 35.5242 40.1591 35.4837C40.0781 36.3344 39.6325 36.9015 38.9844 37.266H42.9946C42.306 36.8204 41.9009 36.2533 41.7794 35.4432C42.6301 35.4837 43.3187 35.8078 43.8858 36.4559V32.9723C43.2377 33.7014 42.549 34.066 41.7794 34.066C41.7389 33.4179 42.2655 32.6887 42.9946 32.2026H38.9439C39.6325 32.6482 40.0781 33.2153 40.1996 34.1065C39.349 33.9849 38.6604 33.6609 38.0933 33.0533ZM39.43 34.6331H40.8477V33.2558H41.2123V34.6331H42.7111V34.9976H41.2123V36.4154H40.8477V34.9976H39.43V34.6331Z" fill="#FF0000"/>
<path fill-rule="evenodd" clip-rule="evenodd" d="M42.7515 34.6331H41.2122V33.2559H40.8477V34.6331H39.4299V34.9977H40.8477V36.4154H41.2122V34.9977H42.7515V34.6331Z" fill="white"/>
<path fill-rule="evenodd" clip-rule="evenodd" d="M40.9692 37.4688C42.8326 37.4688 44.3718 38.5219 44.3718 39.8182C44.3718 41.1144 42.8326 42.1676 40.9692 42.1676C39.1059 42.1676 37.5667 41.1144 37.5667 39.8182C37.5667 38.5219 39.0654 37.4688 40.9692 37.4688Z" fill="#070C3D"/>
<path d="M40.9694 37.2666C41.9416 37.2666 42.8327 37.5502 43.4808 37.9957C44.1289 38.4413 44.5745 39.0894 44.5745 39.8185C44.5745 40.5477 44.1694 41.1958 43.4808 41.6414C42.8327 42.0869 41.9416 42.3705 40.9694 42.3705C39.9972 42.3705 39.1061 42.0869 38.458 41.6414C37.8098 41.1958 37.3643 40.5477 37.3643 39.8185C37.3643 39.0894 37.7693 38.4413 38.458 37.9957C39.1061 37.5502 39.9972 37.2666 40.9694 37.2666ZM43.2378 38.3198C42.6707 37.9147 41.8605 37.6717 40.9694 37.6717C40.0782 37.6717 39.2681 37.9147 38.701 38.3198C38.1339 38.7249 37.8098 39.2514 37.8098 39.8185C37.8098 40.3856 38.1744 40.9122 38.701 41.3173C39.2681 41.7224 40.0782 41.9654 40.9694 41.9654C41.8605 41.9654 42.6707 41.7224 43.2378 41.3173C43.8049 40.9122 44.1289 40.3856 44.1289 39.8185C44.1694 39.2514 43.8049 38.7249 43.2378 38.3198Z" fill="white"/>
<path fill-rule="evenodd" clip-rule="evenodd" d="M38.8222 39.4941H43.0754C43.1969 39.4941 43.2779 39.5752 43.2779 39.6967V39.8992C43.2779 40.0207 43.1969 40.1017 43.0754 40.1017H38.8222C38.7006 40.1017 38.6196 40.0207 38.6196 39.8992V39.6967C38.6196 39.5752 38.7006 39.4941 38.8222 39.4941Z" fill="white"/>
<path fill-rule="evenodd" clip-rule="evenodd" d="M27.1565 41.5605L27.521 42.6542H28.6552L27.7236 43.3023L28.0881 44.396L27.1565 43.7074L26.2248 44.396L26.5894 43.3023L25.6577 42.6542H26.7919L27.1565 41.5605Z" fill="white"/>
<path fill-rule="evenodd" clip-rule="evenodd" d="M23.1867 45.5303L23.5108 46.624H24.645L23.7538 47.2721L24.0779 48.3658L23.1867 47.6771L22.2551 48.3658L22.6196 47.2721L21.688 46.624H22.8222L23.1867 45.5303Z" fill="white"/>
<path fill-rule="evenodd" clip-rule="evenodd" d="M20.2297 50.3911L20.5943 51.4848H21.7285L20.7968 52.1329L21.1614 53.2266L20.2297 52.538L19.2981 53.2266L19.6626 52.1329L18.731 51.4848H19.8652L20.2297 50.3911Z" fill="white"/>
<path fill-rule="evenodd" clip-rule="evenodd" d="M54.782 41.5605L54.4174 42.6542H53.2832L54.2149 43.3023L53.8503 44.396L54.782 43.7074L55.6731 44.396L55.3491 43.3023L56.2402 42.6542H55.106L54.782 41.5605Z" fill="white"/>
<path fill-rule="evenodd" clip-rule="evenodd" d="M58.7517 45.5303L58.3871 46.624H57.2529L58.1846 47.2721L57.82 48.3658L58.7517 47.6771L59.6834 48.3658L59.3188 47.2721L60.2504 46.624H59.0757L58.7517 45.5303Z" fill="white"/>
<path fill-rule="evenodd" clip-rule="evenodd" d="M61.709 50.3911L61.3444 51.4848H60.2102L61.1419 52.1329L60.7773 53.2266L61.709 52.538L62.6001 53.2266L62.2761 52.1329L63.1672 51.4848H62.033L61.709 50.3911Z" fill="white"/>
<path fill-rule="evenodd" clip-rule="evenodd" d="M21.5664 75.8705H22.7006L23.0652 74.7769L23.3892 75.8705H24.5234L23.6323 76.5187L23.9563 77.6123L23.0652 76.9642L22.1335 77.6123L22.4981 76.5187L21.5664 75.8705Z" fill="white"/>
<path fill-rule="evenodd" clip-rule="evenodd" d="M25.8601 79.8393H26.9943L27.3589 78.7861L27.6829 79.8393L28.8171 79.8798L27.926 80.5279L28.25 81.6216L27.3589 80.933L26.4272 81.6216L26.7918 80.5279L25.8601 79.8393Z" fill="white"/>
<path fill-rule="evenodd" clip-rule="evenodd" d="M30.5591 82.8374H31.6933L32.0578 81.7842L32.4224 82.8374H33.5566L32.6249 83.526L32.9895 84.6197L32.0578 83.931L31.1262 84.6197L31.4907 83.526L30.5591 82.8374Z" fill="white"/>
<path fill-rule="evenodd" clip-rule="evenodd" d="M60.3318 75.8705H59.1976L58.833 74.7769L58.4684 75.8705H57.3342L58.2659 76.5187L57.9013 77.6123L58.833 76.9642L59.7647 77.6123L59.4001 76.5187L60.3318 75.8705Z" fill="white"/>
<path fill-rule="evenodd" clip-rule="evenodd" d="M56.038 79.8393H54.9038L54.5393 78.7861L54.1747 79.8393L53.0405 79.8798L53.9722 80.5279L53.6076 81.6216L54.5393 80.933L55.4709 81.6216L55.1064 80.5279L56.038 79.8393Z" fill="white"/>
<path fill-rule="evenodd" clip-rule="evenodd" d="M51.2986 82.8374H50.1644L49.7998 81.7842L49.4758 82.8374H48.3416L49.2732 83.526L48.9086 84.6197L49.8403 83.931L50.772 84.6197L50.4074 83.526L51.2986 82.8374Z" fill="white"/>
<path fill-rule="evenodd" clip-rule="evenodd" d="M40.9695 42.3301C30.2757 42.3301 21.5667 50.9581 21.5667 61.6519C21.5667 72.3053 30.2352 80.9738 40.9695 80.9738C51.6634 80.9738 60.3724 72.3458 60.3724 61.6519C60.3724 50.9986 51.6634 42.3301 40.9695 42.3301Z" fill="#FFCC00"/>
<path fill-rule="evenodd" clip-rule="evenodd" d="M36.7974 75.1812C38.2151 74.8571 39.2683 74.7356 40.6051 74.7356V80.042C40.6051 80.042 40.443 79.961 40.2405 79.7585C38.9443 78.2597 37.7696 76.7609 36.7974 75.1812ZM50.6913 45.7325C48.6254 44.4768 46.3165 43.5857 43.8051 43.2211C45.4659 44.1528 47.1672 45.368 48.7065 46.9072C49.4356 46.5832 50.0027 46.2186 50.6913 45.7325ZM57.2534 52.4567C58.7522 55.0492 59.6029 58.0062 59.6839 61.2062H54.985C54.8635 59.0188 54.58 56.791 53.6078 54.2795C54.823 53.7529 55.9977 53.1858 57.2534 52.4567ZM56.8484 51.8086C55.6332 52.4972 54.499 53.0643 53.2838 53.5504C53.0407 52.9833 52.7572 52.4162 52.4331 51.8086C51.542 50.1478 50.4483 48.7301 49.2736 47.4743C49.9217 47.1098 50.5698 46.7047 51.3394 46.1376C53.5673 47.5959 55.4306 49.5402 56.8484 51.8086ZM52.8787 54.5631C53.8103 56.953 54.0939 59.0594 54.2154 61.2062H49.4356C49.3951 58.8973 49.2736 57.3986 48.9495 55.8593C50.2862 55.4947 51.5825 55.0897 52.8787 54.5631ZM52.5951 53.8744C51.2989 54.3605 50.0432 54.8061 48.747 55.1302C48.5039 54.158 48.2204 53.1858 47.7748 52.0111C47.3697 50.7959 46.8431 49.7022 46.195 48.6085C46.2355 48.6085 46.276 48.6085 46.3165 48.6085C47.2077 48.3655 47.9368 48.1224 48.6254 47.7984C49.8001 49.0136 50.8533 50.4313 51.704 52.0516C52.0685 52.6997 52.3521 53.2668 52.5951 53.8744ZM48.0178 55.3327C47.7748 54.3605 47.4913 53.3884 47.0457 52.1732C46.6406 50.9984 46.114 49.8643 45.5064 48.7706C43.8861 49.1351 42.7924 49.2566 41.2937 49.2566V56.0213C44.1697 56.0213 45.79 55.8593 48.0178 55.3327ZM45.871 47.9604C44.9798 46.4617 43.8861 45.0439 42.6709 43.6667C42.3469 43.3021 41.9823 43.0186 41.9823 43.0186C41.9823 43.0186 42.5494 43.1806 43.0355 43.4641C44.6963 44.4363 46.4381 45.6515 48.0583 47.2313C47.4913 47.4743 46.8836 47.6769 46.114 47.8794C46.033 47.8794 45.9115 47.9199 45.871 47.9604ZM48.666 61.2062C48.6254 59.0188 48.5039 57.5201 48.1799 56.0618C45.952 56.6289 44.2507 56.7504 41.2937 56.791V61.1657H48.666V61.2062ZM45.1013 48.1224C43.6836 48.4465 42.6304 48.568 41.2937 48.568V43.2616C41.2937 43.2616 41.4557 43.3426 41.6582 43.5451C42.995 45.0439 44.1292 46.5427 45.1013 48.1224ZM31.2074 45.7325C33.2733 44.4768 35.6227 43.5857 38.0936 43.2211C36.4328 44.1528 34.7315 45.368 33.1518 46.9072C32.5036 46.5832 31.896 46.2186 31.2074 45.7325ZM24.6453 52.4567C23.1465 55.0492 22.2959 58.0062 22.2554 61.2062H26.9542C27.0757 59.0188 27.3593 56.791 28.2909 54.2795C27.0757 53.7529 25.901 53.1858 24.6453 52.4567ZM25.0504 51.8086C26.2251 52.4972 27.3998 53.0643 28.5745 53.5504C28.8175 52.9833 29.1011 52.4162 29.4656 51.8086C30.3568 50.1478 31.41 48.7301 32.6252 47.4743C31.9771 47.1098 31.3289 46.7047 30.5593 46.1376C28.3314 47.5959 26.4681 49.5402 25.0504 51.8086ZM29.02 54.5631C28.0884 56.953 27.8048 59.0594 27.7238 61.2062H32.5037C32.5442 58.8973 32.6657 57.3986 32.9897 55.8593C31.6125 55.4947 30.3163 55.0897 29.02 54.5631ZM29.3036 53.8744C30.5593 54.3605 31.815 54.8061 33.1113 55.1302C33.3543 54.158 33.6784 53.1858 34.0834 52.0111C34.4885 50.7959 35.0151 49.7022 35.6632 48.6085C35.6227 48.6085 35.5822 48.6085 35.5417 48.6085C34.6505 48.3655 33.9619 48.1224 33.2733 47.7984C32.0986 49.0136 31.0454 50.4313 30.1947 52.0516C29.8302 52.6997 29.5466 53.2668 29.3036 53.8744ZM33.8809 55.3327C34.1239 54.3605 34.448 53.3884 34.8531 52.1732C35.2581 50.9984 35.7442 49.8643 36.3923 48.7706C38.0126 49.1351 39.1063 49.2566 40.6051 49.2566V56.0213C37.7291 56.0213 36.1088 55.8593 33.8809 55.3327ZM36.0683 47.9604C36.9594 46.4617 38.0531 45.0439 39.2683 43.6667C39.5924 43.3021 39.9569 43.0186 39.9569 43.0186C39.9569 43.0186 39.3898 43.1806 38.9038 43.4641C37.243 44.4363 35.5012 45.6515 33.8809 47.2313C34.448 47.4743 35.0556 47.6769 35.8252 47.8794C35.8657 47.8794 35.9873 47.9199 36.0683 47.9604ZM33.2328 61.2062C33.2733 59.0188 33.4353 57.5201 33.7189 56.0618C35.9873 56.6289 37.648 56.7504 40.6456 56.791V61.1657H33.2328V61.2062ZM36.7974 48.1224C38.2151 48.4465 39.2683 48.568 40.6051 48.568V43.2616C40.6051 43.2616 40.443 43.3426 40.2405 43.5451C38.9443 45.0439 37.7696 46.5427 36.7974 48.1224ZM50.6913 77.5711C48.6254 78.8268 46.3165 79.718 43.8051 80.0825C45.4659 79.1509 47.1672 77.9356 48.7065 76.3964C49.4356 76.7204 50.0027 77.085 50.6913 77.5711ZM57.2534 70.8469C58.7522 68.2545 59.6029 65.2974 59.6839 62.0974H54.985C54.8635 64.2848 54.58 66.5127 53.6078 69.0241C54.823 69.5507 55.9977 70.1178 57.2534 70.8469ZM56.8484 71.495C55.6332 70.8064 54.499 70.2393 53.2838 69.7532C53.0407 70.3203 52.7572 70.8874 52.4331 71.495C51.542 73.1558 50.4483 74.5736 49.2736 75.8293C49.9217 76.1938 50.5698 76.5989 51.3394 77.166C53.5673 75.6672 55.4306 73.7634 56.8484 71.495ZM52.8787 68.7405C53.8103 66.3506 54.0939 64.2443 54.2154 62.0974H49.4356C49.3951 64.4063 49.2736 65.905 48.9495 67.4443C50.2862 67.8089 51.5825 68.2139 52.8787 68.7405ZM52.5951 69.4292C51.2989 68.9431 50.0432 68.4975 48.747 68.1734C48.5039 69.1456 48.2204 70.1178 47.7748 71.2925C47.3697 72.5077 46.8431 73.6014 46.195 74.6951C46.2355 74.6951 46.276 74.6951 46.3165 74.6951C47.2077 74.9381 47.9368 75.1812 48.6254 75.5052C49.8001 74.29 50.8533 72.8723 51.704 71.252C52.0685 70.6039 52.3521 70.0368 52.5951 69.4292ZM48.0178 67.9709C47.7748 68.9431 47.4913 69.9152 47.0457 71.1305C46.6406 72.3052 46.114 73.4394 45.5064 74.4925C43.8861 74.128 42.7924 74.0065 41.2937 74.0065V67.2418C44.1697 67.2823 45.79 67.4038 48.0178 67.9709ZM41.9823 80.285C41.9823 80.285 42.5494 80.123 43.0355 79.8395C44.6963 78.8673 46.4381 77.6521 48.0583 76.0723C47.4913 75.8293 46.8836 75.6267 46.114 75.4242C46.033 75.4242 45.9115 75.3837 45.8305 75.3432V75.3027C44.9393 76.8014 43.8456 78.2192 42.6304 79.5964C42.3063 80.0015 41.9823 80.285 41.9823 80.285ZM48.666 62.0974C48.6254 64.2848 48.5039 65.7835 48.1799 67.2418C45.952 66.6747 44.2507 66.5532 41.2937 66.5126V62.1379H48.666V62.0974ZM45.1013 75.1812C43.6836 74.8571 42.6304 74.7356 41.2937 74.7356V80.042C41.2937 80.042 41.4557 79.961 41.6582 79.7585C42.995 78.2597 44.1292 76.7609 45.1013 75.1812ZM31.2074 77.5711C33.2733 78.8268 35.6227 79.718 38.0936 80.0825C36.4328 79.1509 34.7315 77.9356 33.1518 76.3964C32.5036 76.7204 31.896 77.085 31.2074 77.5711ZM24.6453 70.8469C23.1465 68.2545 22.2959 65.2974 22.2554 62.0974H26.9542C27.0757 64.2848 27.3593 66.5127 28.2909 69.0241C27.0757 69.5507 25.901 70.1178 24.6453 70.8469ZM25.0504 71.495C26.2251 70.8064 27.3998 70.2393 28.5745 69.7532C28.8175 70.3203 29.1011 70.8874 29.4656 71.495C30.3568 73.1558 31.41 74.5736 32.6252 75.8293C31.9771 76.1938 31.3289 76.5989 30.5593 77.166C28.3314 75.6672 26.4681 73.7634 25.0504 71.495ZM29.02 68.7405C28.0884 66.3506 27.8048 64.2443 27.7238 62.0974H32.5037C32.5442 64.4063 32.6657 65.905 32.9897 67.4443C31.6125 67.8089 30.3163 68.2139 29.02 68.7405ZM29.3036 69.4292C30.5593 68.9431 31.815 68.4975 33.1113 68.1734C33.3543 69.1456 33.6784 70.1178 34.0834 71.2925C34.4885 72.5077 35.0151 73.6014 35.6632 74.6951C35.6227 74.6951 35.5822 74.6951 35.5417 74.6951C34.6505 74.9381 33.9619 75.1812 33.2733 75.5052C32.0986 74.29 31.0454 72.8723 30.1947 71.252C29.8302 70.6039 29.5466 70.0368 29.3036 69.4292ZM33.8809 67.9709C34.1239 68.9431 34.448 69.9152 34.8531 71.1305C35.2581 72.3052 35.7442 73.4394 36.3923 74.4925C38.0126 74.128 39.1063 74.0065 40.6051 74.0065V67.2418C37.7291 67.2823 36.1088 67.4038 33.8809 67.9709ZM39.9569 80.285C39.9569 80.285 39.5924 80.0015 39.2683 79.6369C38.0531 78.2597 36.9594 76.8419 36.0683 75.3432V75.3837C35.9467 75.3837 35.8657 75.4242 35.7847 75.4647C35.0151 75.6672 34.448 75.8698 33.8404 76.1128C35.4202 77.6926 37.162 78.9078 38.8633 79.88C39.3493 80.123 39.9164 80.285 39.9569 80.285ZM33.2328 62.0974C33.2733 64.2848 33.4353 65.7835 33.7189 67.2418C35.9873 66.6747 37.648 66.5532 40.6456 66.5126V62.1379H33.2328V62.0974Z" fill="#FF0000"/>
<path fill-rule="evenodd" clip-rule="evenodd" d="M52.0278 77.4905C52.0278 77.4905 25.6172 49.9457 25.6172 49.8647C26.8324 48.2849 28.2907 46.9077 29.8704 45.814C29.9109 45.814 56.2405 73.5208 56.2405 73.5208C55.1468 74.8575 53.7291 76.3563 52.0278 77.4905Z" fill="#FFCC00"/>
<path d="M36.5946 84.3765H45.3442C45.6682 84.3765 45.9518 84.5385 46.1543 84.822C46.3568 85.1056 46.5189 85.4702 46.5189 85.9157V86.8879C46.5189 87.293 46.3973 87.698 46.1543 87.9816C45.9518 88.2651 45.6277 88.1031 45.3442 88.1031L41.0099 88.5487L36.5946 88.1841C36.2706 88.1841 35.987 88.2651 35.7845 87.9816C35.582 87.698 35.4199 87.3335 35.4199 86.8879V85.9157C35.4199 85.5107 35.5414 85.1056 35.7845 84.822C35.987 84.5385 36.2706 84.3765 36.5946 84.3765ZM45.3442 85.3081H36.5946C36.4731 85.3081 36.3516 85.3891 36.2706 85.4702C36.1896 85.5512 36.149 85.7132 36.149 85.8752V86.8474C36.149 87.0094 36.1896 87.131 36.2706 87.2525C36.3516 87.374 36.4731 87.4145 36.5946 87.4145H45.3442C45.4657 87.4145 45.5872 87.3335 45.6682 87.2525C45.7492 87.1715 45.7897 87.0094 45.7897 86.8474V85.8752C45.7897 85.7132 45.7492 85.5917 45.6682 85.4702C45.5872 85.3891 45.4657 85.3081 45.3442 85.3081Z" fill="white"/>
<path d="M38.6201 80.8115H43.3189C43.724 80.8115 44.0885 80.9736 44.3721 81.2571C44.6556 81.5407 44.8177 81.9052 44.8177 82.3103V83.323C44.8177 83.728 44.6556 84.0926 44.3721 84.3761C44.0885 84.6597 43.724 84.8217 43.3189 84.8217H38.6201C38.215 84.8217 37.8505 84.6597 37.5669 84.3761C37.2834 84.0926 37.1213 83.728 37.1213 83.323V82.3103C37.1213 81.9052 37.2834 81.5407 37.5669 81.2571C37.81 80.9736 38.215 80.8115 38.6201 80.8115ZM43.3189 81.5812H38.6201C38.4176 81.5812 38.215 81.6622 38.053 81.7837C37.9315 81.9052 37.8505 82.1077 37.8505 82.3103V83.323C37.8505 83.5255 37.9315 83.6875 38.053 83.8495C38.1745 83.9711 38.3771 84.0521 38.6201 84.0521H43.3189C43.5214 84.0521 43.724 83.9711 43.886 83.8495C44.0075 83.728 44.0885 83.5255 44.0885 83.323V82.3103C44.0885 82.1077 44.0075 81.9457 43.886 81.7837C43.724 81.6622 43.5214 81.5812 43.3189 81.5812Z" fill="white"/>
<path fill-rule="evenodd" clip-rule="evenodd" d="M36.8377 85.1055H45.0607C45.4657 85.1055 45.8303 85.47 45.8303 85.9561V86.7663C45.8303 87.2523 45.5063 87.6169 45.0607 87.6169H36.8377C36.4327 87.6169 36.0681 87.2523 36.0681 86.7663V85.9561C36.0681 85.47 36.4327 85.1055 36.8377 85.1055Z" fill="#FFCC00"/>
<path fill-rule="evenodd" clip-rule="evenodd" d="M38.8227 81.5H43.076C43.6431 81.5 44.0886 81.9051 44.0886 82.4317V83.2823C44.0886 83.7684 43.6431 84.214 43.076 84.214H38.8227C38.2556 84.214 37.8101 83.8089 37.8101 83.2823V82.4317C37.8101 81.9051 38.2556 81.5 38.8227 81.5Z" fill="#FFCC00"/>
<path d="M120.12 51.971V61.7332H117.893V51.971H120.12Z" fill="black"/>
<path d="M121.498 49.6621L119.715 51.4444H117.933L119.148 49.6621H121.498Z" fill="black"/>
<path fill-rule="evenodd" clip-rule="evenodd" d="M109.062 56.751C109.062 59.951 107.117 61.8954 104.282 61.8954C101.365 61.8954 99.7046 59.708 99.7046 56.913C99.7046 53.9965 101.568 51.8091 104.444 51.8091C107.401 51.8091 109.062 54.0775 109.062 56.751ZM101.973 56.8725C101.973 58.7763 102.864 60.1536 104.363 60.1536C105.862 60.1536 106.712 58.7358 106.712 56.832C106.712 55.0902 105.862 53.5509 104.363 53.5509C102.864 53.5509 101.973 55.0092 101.973 56.8725Z" fill="black"/>
<path fill-rule="evenodd" clip-rule="evenodd" d="M91.6843 52.0923C92.3729 51.9708 93.3046 51.8898 94.6818 51.8898C96.0591 51.8898 97.0312 52.1328 97.6794 52.6594C98.287 53.1455 98.7325 53.9556 98.7325 54.9278C98.7325 55.9 98.4085 56.7101 97.8414 57.2367C97.0718 57.9658 95.9781 58.2494 94.6818 58.2494C94.3983 58.2494 94.1147 58.2494 93.9122 58.2089V61.6925H91.7248V52.0923H91.6843ZM93.8717 56.5481C94.0742 56.5886 94.2767 56.5886 94.6007 56.5886C95.7754 56.5886 96.5047 55.981 96.5047 55.0088C96.5047 54.1177 95.8971 53.5911 94.7629 53.5911C94.3173 53.5911 93.9932 53.6316 93.8312 53.6721V56.5481H93.8717Z" fill="black"/>
<path d="M112.708 51.9704H110.48V61.7326H116.596V59.8693H112.708V51.9704Z" fill="black"/>
<path d="M126.682 61.8954C127.857 61.8954 128.789 61.6928 129.194 61.4903L128.829 59.7485C128.424 59.9105 127.655 60.0725 127.006 60.0725C125.062 60.0725 123.887 58.8168 123.887 56.8725C123.887 54.6851 125.265 53.6319 127.006 53.6319C127.817 53.6319 128.424 53.794 128.87 53.9965L129.315 52.2547C128.951 52.0521 128.06 51.8091 126.925 51.8091C123.968 51.8091 121.579 53.6724 121.579 56.994C121.579 59.789 123.32 61.8954 126.682 61.8954Z" fill="black"/>
<path d="M132.88 51.9704V61.7326H130.652V51.9704H132.88Z" fill="black"/>
<path fill-rule="evenodd" clip-rule="evenodd" d="M136.364 61.7326L137.052 59.2212H139.847L140.617 61.7326H143.007L139.969 51.9704H137.052L134.055 61.7326H136.364ZM138.956 55.5351L139.564 57.6009H137.417L137.984 55.5351C138.065 55.2515 138.136 54.9173 138.207 54.5831C138.278 54.249 138.348 53.9148 138.429 53.6312H138.47C138.591 54.2388 138.794 54.968 138.956 55.5351Z" fill="black"/>
<path d="M155.483 58.0063C155.442 56.8316 155.402 55.4139 155.402 53.9962H155.361C155.037 55.2519 154.632 56.6291 154.268 57.7633L153.093 61.571H151.351L150.298 57.8038C149.974 56.6696 149.65 55.2519 149.407 53.9962C149.385 54.7227 149.351 55.4972 149.318 56.2479L149.318 56.2528C149.29 56.8815 149.263 57.4936 149.245 58.0469L149.083 61.7735H147.057L147.665 52.0113H150.622L151.594 55.2924C151.918 56.4266 152.202 57.6418 152.404 58.776H152.445C152.728 57.6418 153.052 56.3455 153.377 55.2519L154.43 52.0113H157.306L157.832 61.7735H155.685L155.483 58.0063Z" fill="black"/>
<path d="M161.721 61.7326V51.9704H159.493V61.7326H161.721Z" fill="black"/>
<path d="M163.625 51.9704H165.853V59.8693H169.741V61.7326H163.625V51.9704Z" fill="black"/>
<path d="M173.266 61.7326V51.9704H171.038V61.7326H173.266Z" fill="black"/>
<path d="M177.033 53.8338H174.44V51.9704H181.934V53.8338H179.261V61.7326H177.033V53.8338Z" fill="black"/>
<path fill-rule="evenodd" clip-rule="evenodd" d="M184.689 61.7326L185.377 59.2212H188.172L188.942 61.7326H191.332L188.294 51.9704H185.377L182.38 61.7326H184.689ZM187.281 55.5351L187.889 57.6009H185.742L186.309 55.5351C186.39 55.2517 186.461 54.9179 186.531 54.584C186.602 54.2498 186.673 53.9148 186.754 53.6312H186.795C186.916 54.2388 187.119 54.968 187.281 55.5351Z" fill="black"/>
<path fill-rule="evenodd" clip-rule="evenodd" d="M192.628 52.0923C193.357 51.9708 194.41 51.8898 195.585 51.8898C197.043 51.8898 198.056 52.0923 198.744 52.6594C199.312 53.105 199.636 53.7936 199.636 54.6848C199.636 55.9405 198.744 56.7911 197.894 57.0747V57.1152C198.582 57.3987 198.947 58.0469 199.19 58.938C199.307 59.3339 199.419 59.7564 199.524 60.1516C199.709 60.848 199.871 61.4599 200 61.6925H197.732C197.57 61.4089 197.327 60.6393 197.043 59.4241C196.8 58.2089 196.355 57.8848 195.463 57.8443H194.815V61.6925H192.628V52.0923ZM195.666 56.305C196.76 56.305 197.408 55.7379 197.408 54.8873C197.408 53.9961 196.8 53.5506 195.787 53.5101C195.261 53.5101 194.937 53.5506 194.775 53.5911V56.305H195.666Z" fill="black"/>
<path d="M108.171 72.8312C108.616 73.0743 109.224 73.3173 109.872 73.3173C110.844 73.3173 111.411 72.7907 111.411 72.0616C111.411 71.373 111.006 70.9679 110.034 70.6033C108.819 70.1578 108.09 69.5502 108.09 68.497C108.09 67.3628 109.021 66.5121 110.48 66.5121C111.249 66.5121 111.776 66.6742 112.1 66.8767L111.857 67.6463C111.614 67.5248 111.128 67.2818 110.439 67.2818C109.426 67.2818 109.062 67.8894 109.062 68.3755C109.062 69.0641 109.507 69.3881 110.52 69.7932C111.776 70.2793 112.383 70.8869 112.383 71.9401C112.383 73.0743 111.533 74.0464 109.791 74.0464C109.062 74.0464 108.292 73.8439 107.928 73.5604L108.171 72.8312Z" fill="black"/>
<path fill-rule="evenodd" clip-rule="evenodd" d="M98.6921 66.553C97.9225 66.553 97.2338 66.634 96.6667 66.715H96.7073V73.9658C97.1933 74.0063 97.7604 74.0468 98.4491 74.0468C99.8668 74.0468 101.001 73.6823 101.69 72.9936C102.378 72.305 102.743 71.3329 102.743 70.1176C102.743 68.9429 102.338 68.0923 101.69 67.4847C101.042 66.8771 100.069 66.553 98.6921 66.553ZM98.6111 73.2772C98.2465 73.2772 97.882 73.2772 97.6389 73.2367H97.5984V67.4037C97.882 67.3632 98.2465 67.3227 98.7326 67.3227C100.758 67.3227 101.73 68.4163 101.73 70.1581C101.73 72.143 100.636 73.2772 98.6111 73.2772Z" fill="black"/>
<path d="M105.781 74.0059V66.6337H104.849V74.0059H105.781Z" fill="black"/>
<path d="M113.761 67.4438H115.989V74.0059H116.961V67.4438H119.229V66.6337H113.761V67.4438Z" fill="black"/>
<path fill-rule="evenodd" clip-rule="evenodd" d="M120.89 66.715C121.376 66.634 122.065 66.553 122.713 66.553C123.725 66.553 124.373 66.7556 124.86 67.1606C125.224 67.4847 125.427 68.0113 125.427 68.5784C125.427 69.5505 124.819 70.1987 124.049 70.4417V70.4822C124.616 70.6847 124.941 71.2113 125.143 71.981L125.222 72.3098C125.422 73.151 125.566 73.7545 125.71 74.0063H124.697C124.576 73.8038 124.414 73.1557 124.211 72.2645C124.009 71.2518 123.604 70.8468 122.753 70.8468H121.862V74.0468H120.93V66.715H120.89ZM121.862 70.0771H122.834C123.847 70.0771 124.495 69.51 124.495 68.6594C124.495 67.7277 123.806 67.2821 122.794 67.2821C122.348 67.2821 122.024 67.3227 121.862 67.3632V70.0771Z" fill="black"/>
<path d="M128.586 74.0059V66.6337H127.655V74.0059H128.586Z" fill="black"/>
<path d="M132.556 67.4438H130.328V66.6337H135.796V67.4438H133.528V74.0059H132.556V67.4438Z" fill="black"/>
<path fill-rule="evenodd" clip-rule="evenodd" d="M140.333 74.1275C142.197 74.1275 143.736 72.7907 143.736 70.2388C143.736 68.0514 142.44 66.5121 140.414 66.5121C138.47 66.5121 137.012 68.0514 137.012 70.4008C137.012 72.6287 138.389 74.1275 140.333 74.1275ZM140.374 73.3578C138.875 73.3578 138.024 71.9401 138.024 70.3603C138.024 68.74 138.835 67.2818 140.374 67.2818C141.954 67.2818 142.723 68.821 142.723 70.2793C142.723 71.9806 141.873 73.3578 140.374 73.3578Z" fill="black"/>
<path d="M149.042 66.6337H153.012V67.4438H149.974V69.8742H152.769V70.6439H149.974V73.9654H149.042V66.6337Z" fill="black"/>
<path d="M156.212 70.5224H159.088V69.7527H156.212V67.4438H159.25V66.6337H155.281V74.0059H159.412V73.1958H156.212V70.5224Z" fill="black"/>
<path fill-rule="evenodd" clip-rule="evenodd" d="M161.518 66.715C162.086 66.634 162.774 66.553 163.544 66.553C164.921 66.553 165.893 66.8771 166.541 67.4847C167.189 68.0923 167.595 68.9429 167.595 70.1176C167.595 71.3329 167.23 72.305 166.541 72.9936C165.853 73.6823 164.719 74.0468 163.301 74.0468C162.612 74.0468 162.045 74.0063 161.559 73.9658V66.715H161.518ZM162.45 73.2367C162.693 73.2772 163.058 73.2772 163.422 73.2772C165.448 73.2772 166.541 72.143 166.541 70.1581C166.541 68.4163 165.569 67.3227 163.544 67.3227C163.058 67.3227 162.693 67.3632 162.41 67.4037V73.2367H162.45Z" fill="black"/>
<path d="M170.592 70.5224H173.468V69.7527H170.592V67.4438H173.63V66.6337H169.66V74.0059H173.792V73.1958H170.592V70.5224Z" fill="black"/>
<path fill-rule="evenodd" clip-rule="evenodd" d="M175.939 66.715C176.425 66.634 177.114 66.553 177.762 66.553C178.774 66.553 179.423 66.7556 179.909 67.1606C180.273 67.4847 180.476 68.0113 180.476 68.5784C180.476 69.5505 179.868 70.1987 179.099 70.4417V70.4822C179.666 70.6847 179.99 71.2113 180.192 71.981L180.271 72.31L180.271 72.3117C180.472 73.152 180.616 73.7547 180.759 74.0063H179.787C179.666 73.8038 179.504 73.1557 179.301 72.2645C179.099 71.2518 178.693 70.8468 177.843 70.8468H176.952V74.0468H176.02V66.715H175.939ZM176.871 70.0771H177.843C178.855 70.0771 179.504 69.51 179.504 68.6594C179.504 67.7277 178.815 67.2821 177.802 67.2821C177.357 67.2821 177.033 67.3227 176.871 67.3632V70.0771Z" fill="black"/>
<path fill-rule="evenodd" clip-rule="evenodd" d="M183.109 73.9651L183.878 71.6562H186.511L187.281 73.9651H188.294L185.782 66.5928H184.648L182.137 73.9651H183.109ZM185.58 68.8207L186.309 70.927V70.9675H184.081L184.81 68.8207L185.175 67.4839H185.215C185.296 67.889 185.418 68.3346 185.58 68.8207Z" fill="black"/>
<path d="M190.238 66.6337H191.17V73.1958H194.329V74.0059H190.238V66.6337Z" fill="black"/>
</g>
<defs>
<clipPath id="clip0">
<path d="M0 0H200V96H0V0Z" fill="white"/>
</clipPath>
</defs>
</svg>
