<svg width="32" height="32" viewBox="0 0 32 32" fill="none" xmlns="http://www.w3.org/2000/svg">
<path d="M15.9776 11.312C16.0047 11.1632 16.14 10.9873 16.3295 10.8655L16.5595 10.6761H15.5582V0.0270624C15.5582 0.0135312 15.5717 0 15.5852 0C15.5988 0 15.6123 0.0135312 15.6123 0.0270624C16.0453 5.22302 16.8707 9.20117 18.1562 12.3133C18.535 13.2334 18.9545 14.0588 19.4146 14.8301C19.7393 15.3714 20.0911 15.8855 20.47 16.3727C20.4023 16.2915 20.3347 16.2103 20.2535 16.1291L20.0235 15.8991C19.9693 15.8585 19.9287 15.8179 19.8881 15.7773C19.8611 15.7502 19.8205 15.7096 19.7799 15.6826L19.6175 15.5608C19.604 15.5473 19.5871 15.5337 19.5702 15.5202C19.5533 15.5067 19.5363 15.4931 19.5228 15.4796C19.4687 15.4255 19.4146 15.3849 19.3469 15.3443C19.3334 15.3375 19.3198 15.3274 19.3063 15.3172C19.2928 15.3071 19.2792 15.2969 19.2657 15.2902C19.1981 15.2361 19.1304 15.1955 19.0627 15.1549C19.0492 15.1481 19.0391 15.1413 19.0289 15.1346C19.0188 15.1278 19.0086 15.121 18.9951 15.1143C18.9139 15.0601 18.8462 15.0196 18.7651 14.979C18.7515 14.979 18.7245 14.9654 18.7109 14.9519L18.4674 14.8301C18.4606 14.8234 18.4538 14.82 18.4471 14.8166C18.4403 14.8132 18.4335 14.8098 18.4268 14.8031C18.3456 14.7625 18.2644 14.7219 18.1697 14.6813C18.1629 14.6813 18.1562 14.6779 18.1494 14.6745C18.1426 14.6711 18.1359 14.6677 18.1291 14.6677C18.0817 14.6474 18.0344 14.6305 17.987 14.6136C17.9397 14.5967 17.8923 14.5798 17.8449 14.5595C17.8382 14.5595 17.8348 14.5561 17.8314 14.5527C17.828 14.5493 17.8246 14.546 17.8179 14.546C17.7705 14.5324 17.7198 14.5155 17.6691 14.4986C17.6183 14.4817 17.5676 14.4648 17.5202 14.4512C17.5067 14.4377 17.5067 14.4377 17.4931 14.4377C17.3984 14.4107 17.3037 14.3836 17.1954 14.3565H17.1819C17.1282 14.3431 17.0779 14.3331 17.0276 14.323L17.0266 14.3228L17.0262 14.3227C16.9755 14.3125 16.9248 14.3024 16.8707 14.2889H16.8572C16.7625 14.2618 16.6542 14.2483 16.546 14.2347H16.5324L16.2077 14.1942H16.1806C16.1265 14.1942 16.0724 14.1908 16.0182 14.1874C15.9641 14.184 15.91 14.1806 15.8559 14.1806H15.8288C16.0588 14.14 16.2753 14.0588 16.4377 13.9506C16.6677 13.7882 16.803 13.5717 16.803 13.3282C16.803 13.0981 16.6813 12.8681 16.4377 12.7057C16.3565 12.6516 16.2753 12.611 16.1806 12.5704H16.5866L16.3159 12.408C16.14 12.2863 16.0318 12.151 15.9776 11.975C16.1806 12.0021 16.3565 12.1104 16.5054 12.2727L16.6677 12.4486V10.8114L16.5054 10.9873C16.343 11.1767 16.1671 11.285 15.9776 11.312Z" fill="#008AD2"/>
<path d="M13.1767 11.9615C13.0549 11.9885 12.9467 12.0156 12.8384 12.0562C12.5137 11.2308 11.8371 10.6219 11.0388 10.3648C11.4041 9.89122 11.9183 9.51235 12.5543 9.34997C13.0549 9.21466 13.5691 9.22819 14.0427 9.34997C13.7856 10.2701 13.5015 11.1361 13.1767 11.9615Z" fill="#008AD2"/>
<path d="M21.6201 13.9506C21.6743 14.0047 21.7284 14.0555 21.7825 14.1062C21.8366 14.157 21.8908 14.2077 21.9449 14.2618C22.0666 14.3836 22.1884 14.5189 22.3101 14.6541C22.9731 14.0993 23.8392 13.91 24.6511 14.0589C24.5835 13.4364 24.3128 12.8275 23.8257 12.3404C23.3657 11.8804 22.7838 11.6097 22.1884 11.5285C22.3779 12.3675 22.1884 13.2605 21.6201 13.9506Z" fill="#008AD2"/>
<path d="M24.4075 18.8083C24.3399 18.4836 24.2452 18.1723 24.1505 17.8611C24.9894 17.5364 25.5983 16.8598 25.8554 16.0615C26.329 16.4268 26.7078 16.941 26.8702 17.577C27.0461 18.2265 26.9785 18.8895 26.7214 19.4713C26.0989 18.9301 25.26 18.673 24.4075 18.8083Z" fill="#008AD2"/>
<path d="M24.2317 23.1382C24.2046 23.2465 24.1775 23.3412 24.1369 23.4494C24.9488 23.7607 25.5442 24.3966 25.8148 25.1814C26.3155 24.8026 26.7079 24.2613 26.8838 23.6118C27.0191 23.1112 27.0055 22.597 26.8838 22.1234C25.9636 22.4211 25.0841 22.7729 24.2317 23.1382Z" fill="#008AD2"/>
<path d="M22.114 26.8052C22.0633 26.8593 22.0125 26.9135 21.9584 26.9676C21.8975 27.0285 21.8333 27.0894 21.769 27.1503C21.7047 27.2111 21.6404 27.272 21.5795 27.3329C22.1343 27.996 22.3237 28.862 22.1749 29.6738C22.7973 29.6062 23.4062 29.3355 23.8934 28.8484C24.3534 28.3884 24.624 27.8065 24.7052 27.2112C23.8528 27.4006 22.9597 27.2112 22.2696 26.6428C22.2155 26.6969 22.1647 26.7511 22.114 26.8052Z" fill="#008AD2"/>
<path d="M8.92795 14.5866C8.98207 14.5325 9.03281 14.4784 9.08356 14.4242C9.1343 14.3701 9.18504 14.316 9.23916 14.2619C9.36092 14.1401 9.49621 14.0183 9.6315 13.8966C9.07673 13.2336 8.88735 12.3675 9.03619 11.5556C8.41376 11.6233 7.80486 11.8939 7.31774 12.381C6.85768 12.8411 6.58706 13.4229 6.50587 14.0183C7.3448 13.8424 8.23786 14.0318 8.92795 14.5866Z" fill="#008AD2"/>
<path d="M7.06063 17.7935C6.96591 18.1047 6.8712 18.4159 6.80354 18.7406C5.92402 18.5918 5.05802 18.876 4.43559 19.4578C4.20556 18.8895 4.15144 18.2671 4.31381 17.6311C4.48972 16.9816 4.86859 16.4403 5.38277 16.0615C5.65339 16.8463 6.24876 17.4822 7.06063 17.7935Z" fill="#008AD2"/>
<path d="M9.5639 27.2922C9.50978 27.2381 9.45565 27.1874 9.40153 27.1366C9.3474 27.0859 9.29328 27.0351 9.23915 26.981C9.17826 26.9201 9.11737 26.8559 9.05648 26.7916C8.99559 26.7273 8.9347 26.663 8.87381 26.6021C8.21079 27.1569 7.3448 27.3464 6.53293 27.1975C6.60058 27.82 6.87121 28.4289 7.35833 28.916C7.81839 29.376 8.40022 29.6467 8.99559 29.7278C8.81969 28.8754 9.00912 27.9823 9.5639 27.2922Z" fill="#008AD2"/>
<path d="M12.7708 29.1596C13.082 29.2543 13.3932 29.349 13.718 29.4167C13.5691 30.2962 13.8533 31.1622 14.4351 31.7846C13.8668 32.0147 13.2444 32.0688 12.6084 31.9064C11.9589 31.7305 11.4177 31.3516 11.0388 30.8374C11.8236 30.5668 12.4596 29.9715 12.7708 29.1596Z" fill="#008AD2"/>
<path d="M18.3591 29.1731C18.0479 29.2678 17.7367 29.3625 17.412 29.4302C17.5473 30.2826 17.2902 31.1215 16.7489 31.744C17.3308 32.0011 17.9938 32.0687 18.6433 31.8928C19.2793 31.7304 19.7934 31.3516 20.1588 30.878C19.3604 30.6209 18.6839 30.012 18.3591 29.1731Z" fill="#008AD2"/>
<path d="M14.0698 29.4708C14.5704 29.5655 15.0711 29.6061 15.5988 29.6061C16.113 29.6061 16.6271 29.5655 17.1278 29.4708C17.1278 30.7968 16.4377 31.8658 15.5988 31.8658C14.7598 31.8658 14.0698 30.7968 14.0698 29.4708Z" fill="#008AD2"/>
<path d="M18.7109 29.0649C19.374 30.215 20.5106 30.7969 21.2277 30.3774C21.9584 29.9579 22.0125 28.686 21.3495 27.5358C20.5647 28.1853 19.6717 28.6995 18.7109 29.0649Z" fill="#008AD2"/>
<path d="M24.0287 17.5228C23.6769 16.5486 23.1492 15.6555 22.4997 14.8707C23.6633 14.2077 24.9353 14.2618 25.3412 15.006C25.7607 15.7232 25.1788 16.8598 24.0287 17.5228Z" fill="#008AD2"/>
<path d="M18.7109 12.178C19.6852 12.5298 20.5782 13.0575 21.363 13.707C22.0261 12.5568 21.9719 11.2849 21.2413 10.8654C20.4971 10.446 19.374 11.0278 18.7109 12.178Z" fill="#008AD2"/>
<path d="M9.96982 10.8654C10.687 10.446 11.8236 11.0278 12.4866 12.178C11.5124 12.5433 10.6193 13.0575 9.84804 13.707C9.18502 12.5568 9.23914 11.2849 9.96982 10.8654Z" fill="#008AD2"/>
<path d="M7.15538 17.5093C7.50719 16.535 8.0349 15.642 8.6844 14.8572C7.53425 14.1941 6.26232 14.2483 5.84286 14.979C5.42339 15.7232 6.00523 16.8462 7.15538 17.5093Z" fill="#008AD2"/>
<path d="M4.34766 20.7093C4.34427 20.6789 4.34089 20.6484 4.34089 20.6214C4.34089 19.7825 5.40985 19.0924 6.7359 19.0924C6.69868 19.3033 6.67284 19.537 6.64794 19.7621L6.64118 19.8231C5.93757 20.2019 5.16629 20.5267 4.35442 20.7973C4.35442 20.7702 4.35104 20.7398 4.34766 20.7093Z" fill="#008AD2"/>
<path d="M8.6844 26.3721C8.0349 25.5873 7.50719 24.6943 7.15538 23.72C6.00523 24.3831 5.42339 25.5197 5.84286 26.2368C6.26232 26.981 7.53425 27.0352 8.6844 26.3721Z" fill="#008AD2"/>
<path d="M9.83453 27.5358C10.6193 28.1853 11.5124 28.7131 12.4866 29.0649C11.8236 30.2015 10.7005 30.7969 9.95631 30.3774C9.22563 29.9579 9.1715 28.686 9.83453 27.5358Z" fill="#008AD2"/>
<path fill-rule="evenodd" clip-rule="evenodd" d="M14.6516 12.2186C14.841 12.0021 15.0711 11.8939 15.3282 11.8804C15.3011 12.1645 15.1523 12.3539 14.9358 12.4757H16.2889C16.0588 12.3269 15.9235 12.1375 15.8829 11.8668C16.1671 11.8804 16.3971 11.9886 16.5866 12.2051V11.0414C16.3701 11.285 16.14 11.4068 15.8829 11.4068C15.8694 11.1903 16.0453 10.9467 16.2889 10.7843H14.9358C15.1658 10.9332 15.3146 11.1226 15.3552 11.4203C15.0575 11.3797 14.841 11.2715 14.6516 11.0685V12.2186ZM15.0846 11.5962H15.5582V11.1361H15.68V11.5962H16.1806V11.718H15.68V12.1916H15.5582V11.718H15.0846V11.5962Z" fill="#008AD2"/>
<path fill-rule="evenodd" clip-rule="evenodd" d="M15.5853 14.0453C15.2876 14.0453 15.017 13.9642 14.8275 13.8288C14.6516 13.6935 14.5298 13.5176 14.5298 13.3282C14.5298 13.1388 14.6381 12.9628 14.8275 12.8275C15.017 12.6922 15.2876 12.611 15.5853 12.611C15.883 12.611 16.1536 12.6922 16.343 12.8275C16.5189 12.9628 16.6407 13.1388 16.6407 13.3282C16.6407 13.5176 16.5324 13.6935 16.343 13.8288C16.1536 13.9642 15.883 14.0453 15.5853 14.0453ZM14.8816 13.2199C14.8411 13.2199 14.814 13.247 14.814 13.2876V13.3553C14.814 13.3958 14.8411 13.4229 14.8816 13.4229H16.3024C16.343 13.4229 16.3701 13.3958 16.3701 13.3553V13.2876C16.3701 13.247 16.343 13.2199 16.3024 13.2199H14.8816Z" fill="#008AD2"/>
<path d="M24.0422 23.7337C23.6904 24.7079 23.1627 25.601 22.5132 26.3858C23.6634 27.0488 24.9353 26.9947 25.3547 26.264C25.7742 25.5198 25.1788 24.3967 24.0422 23.7337Z" fill="#008AD2"/>
<path d="M29.2517 21.3927C25.6659 20.7703 22.8785 19.2548 20.7947 16.7786C21.5931 17.8476 22.0802 19.1871 22.0802 20.6214C22.0802 20.8785 22.0667 21.1356 22.0261 21.3927V21.4468H29.2517C29.2652 21.4468 29.2787 21.4333 29.2787 21.4198C29.2787 21.4062 29.2787 21.3927 29.2517 21.3927Z" fill="#008AD2"/>
<path fill-rule="evenodd" clip-rule="evenodd" d="M10.3758 16.8192C9.41505 17.9558 8.29196 18.903 6.99297 19.6472C7.20947 17.6446 8.11606 15.845 9.46917 14.4919C10.4434 13.5041 11.6612 12.7599 13.0143 12.3404C12.6355 13.247 12.216 14.0859 11.7559 14.8572C11.4447 15.3985 11.1064 15.8856 10.7411 16.3592C10.6193 16.5215 10.4975 16.6704 10.3758 16.8192ZM10.9847 13.91L10.8629 14.2754H10.484L10.7952 14.5054L10.6734 14.8707L10.9847 14.6407L11.2959 14.8707L11.1741 14.5054L11.4853 14.2754H11.1064L10.9847 13.91ZM8.67083 17.577L8.98205 17.807L8.86027 17.4417L9.17149 17.2116H8.79261L8.67083 16.8463L8.54905 17.2116H8.17018L8.4814 17.4417L8.35962 17.807L8.67083 17.577ZM9.78039 15.6014L9.65861 15.2361L9.53683 15.6014H9.15795L9.46917 15.8314L9.34739 16.1968L9.65861 15.9668L9.96982 16.1968L9.84804 15.8314L10.1593 15.6014H9.78039Z" fill="#008AD2"/>
<path d="M19.1304 25.7498C19.0606 25.6722 18.9641 25.5724 18.8485 25.4529L18.8472 25.4515C18.7616 25.3629 18.6655 25.2635 18.5621 25.1544C18.5283 25.1882 18.4978 25.2221 18.4674 25.2559C18.4369 25.2897 18.4065 25.3236 18.3727 25.3574C18.5892 25.4792 18.8057 25.6145 19.0628 25.8039C19.0786 25.7881 19.0945 25.7769 19.1076 25.7676C19.1169 25.761 19.1248 25.7554 19.1304 25.7498Z" fill="#008AD2"/>
<path d="M18.1697 25.2491C17.9397 25.1408 17.6961 25.0596 17.3984 24.9784C17.3849 24.9784 17.3714 24.9649 17.3849 24.9649C17.5202 24.7349 17.6285 24.5049 17.7367 24.2613C17.8933 24.4353 18.0443 24.5925 18.1862 24.7402L18.1865 24.7405L18.1869 24.7409C18.2653 24.8226 18.3411 24.9014 18.4133 24.9784C18.3321 25.0731 18.2509 25.1679 18.1697 25.2491Z" fill="#008AD2"/>
<path d="M18.1968 25.5467C17.6826 26.0609 17.1143 26.4669 16.5595 26.7781C17.3849 26.6563 18.1697 26.3586 18.8598 25.9391C18.6162 25.7768 18.4268 25.655 18.1968 25.5467Z" fill="#008AD2"/>
<path d="M17.1278 24.9108C16.5865 24.789 16.2212 24.7484 15.7206 24.7484V22.4752C15.8288 22.4887 15.9235 22.4887 16.0182 22.4887L16.1991 22.6787L16.1999 22.6795C16.6745 23.178 17.1254 23.6515 17.5337 24.0718C17.4255 24.356 17.2766 24.6401 17.1278 24.9108Z" fill="#008AD2"/>
<path d="M15.7747 22.2316C15.7679 22.2181 15.7578 22.2079 15.7476 22.1978C15.7375 22.1876 15.7273 22.1775 15.7206 22.164V22.2316H15.7747Z" fill="#008AD2"/>
<path d="M15.9371 26.8322C15.9371 26.8322 16.0588 26.7375 16.1671 26.6157C16.573 26.1557 16.9248 25.6821 17.2225 25.1679V25.1814C17.2496 25.195 17.2902 25.2085 17.3172 25.2085C17.5743 25.2762 17.7773 25.3438 17.9667 25.425C17.4255 25.9527 16.8436 26.3586 16.2889 26.6834C16.1265 26.7781 15.9371 26.8322 15.9371 26.8322Z" fill="#008AD2"/>
<path d="M15.477 22.4752C14.5163 22.4887 13.975 22.5428 13.2308 22.7322C13.312 23.057 13.4203 23.3817 13.5556 23.7877C13.6909 24.1801 13.8533 24.5589 14.0698 24.9108C14.611 24.789 14.9764 24.7484 15.477 24.7484V22.4752Z" fill="#008AD2"/>
<path d="M15.477 24.992V26.7646C15.477 26.7646 15.4229 26.7375 15.3552 26.6699C14.9087 26.1692 14.5298 25.6686 14.2051 25.1409C14.6787 25.0326 15.0305 24.992 15.477 24.992Z" fill="#008AD2"/>
<path d="M15.2605 26.8458C15.2605 26.8458 15.1387 26.7511 15.0305 26.6293C14.6245 26.1692 14.2592 25.6956 13.9615 25.195V25.2085C13.9209 25.2085 13.8939 25.2221 13.8668 25.2356C13.6097 25.3032 13.4203 25.3709 13.2173 25.4521C13.745 25.9798 14.3268 26.3857 14.8952 26.7105C15.0575 26.7917 15.247 26.8458 15.2605 26.8458Z" fill="#008AD2"/>
<path d="M13.0685 19.4172C13.3932 19.7554 13.7315 20.1073 14.0833 20.4726H13.0143C13.0143 20.0667 13.0414 19.7284 13.0685 19.4172Z" fill="#008AD2"/>
<path d="M15.7206 26.7646C15.7206 26.7646 15.7747 26.7375 15.8423 26.6699C16.2889 26.1692 16.6677 25.6686 16.9925 25.1409C16.5189 25.0326 16.1671 24.992 15.7206 24.992V26.7646Z" fill="#008AD2"/>
<path d="M19.7258 23.3277C20.1317 23.4901 20.5106 23.6795 20.9165 23.9096L20.5512 24.4373C20.4666 24.3462 20.3509 24.224 20.2083 24.0734L20.2079 24.073C20.0539 23.9104 19.8688 23.7148 19.6581 23.4901C19.6717 23.436 19.6987 23.3818 19.7258 23.3277Z" fill="#008AD2"/>
<path d="M17.0737 20.7703C17.4119 21.1346 17.7502 21.4863 18.0764 21.8256L18.1156 21.8663C18.1562 21.5551 18.1697 21.2033 18.1832 20.7703H17.0737Z" fill="#008AD2"/>
<path d="M16.7518 20.4199C16.4117 20.0667 16.0598 19.7013 15.7206 19.336V18.9842C16.7083 18.9706 17.2766 18.93 18.0208 18.7406C18.1291 19.2277 18.1697 19.7284 18.1832 20.4591H16.7895L16.7518 20.4199Z" fill="#008AD2"/>
<path d="M13.7992 16.2644C13.5015 16.1833 13.2714 16.1021 13.0414 15.9938C12.9602 16.075 12.879 16.1697 12.7978 16.2644C13.0008 16.4809 13.2308 16.7245 13.4879 16.9816C13.5962 16.738 13.7044 16.508 13.8533 16.2644H13.7992Z" fill="#008AD2"/>
<path d="M12.3513 25.9391C12.5813 25.7768 12.7708 25.655 13.0008 25.5467C13.5285 26.0609 14.0833 26.4669 14.6516 26.7781C13.8262 26.6563 13.0414 26.3586 12.3513 25.9391Z" fill="#008AD2"/>
<path d="M11.1741 20.4727H12.7708C12.7843 19.9449 12.7978 19.539 12.852 19.1737C12.6084 18.9166 12.3784 18.673 12.1619 18.443C11.986 18.3889 11.7965 18.3212 11.6206 18.2535C11.2959 19.0519 11.2012 19.7555 11.1741 20.4727Z" fill="#008AD2"/>
<path d="M20.2805 20.4726C20.24 19.7284 20.1452 18.9977 19.8205 18.1588C20.24 17.9829 20.6188 17.7935 21.0383 17.5499C21.5389 18.4159 21.8231 19.4037 21.8502 20.4726H20.2805Z" fill="#008AD2"/>
<path d="M15.477 18.9978H15.3958C15.4093 19.0113 15.4229 19.0282 15.4364 19.0451C15.4499 19.062 15.4635 19.0789 15.477 19.0925V18.9978Z" fill="#008AD2"/>
<path d="M14.0698 16.3321C14.611 16.4539 14.9763 16.4945 15.477 16.4945H15.4905V18.7677C15.3823 18.7542 15.2741 18.7542 15.1658 18.7542C14.6246 18.1994 14.1104 17.6582 13.6638 17.1846C13.7721 16.8869 13.9074 16.6163 14.0698 16.3321Z" fill="#008AD2"/>
<path d="M11.7154 18.0235C11.7221 18.0235 11.7289 18.0268 11.7357 18.0302C11.7424 18.0336 11.7492 18.037 11.756 18.037L11.7154 17.9964V18.0235Z" fill="#008AD2"/>
<path d="M11.4583 17.9152C11.0658 17.7528 10.6734 17.5634 10.281 17.3334L10.6058 16.8463C10.6811 16.9274 10.7837 17.0333 10.9083 17.1619L10.9085 17.1621L10.9088 17.1624C11.0751 17.3341 11.2805 17.5461 11.5124 17.7934C11.5056 17.8137 11.4955 17.834 11.4853 17.8543C11.4752 17.8746 11.465 17.8949 11.4583 17.9152Z" fill="#008AD2"/>
<path d="M19.4822 23.2194C19.4416 23.2059 19.401 23.1924 19.3604 23.1653L19.4687 23.2736C19.4687 23.268 19.471 23.2624 19.4737 23.2558C19.4776 23.2465 19.4822 23.2353 19.4822 23.2194Z" fill="#008AD2"/>
<path d="M12.3355 15.79C12.22 15.6705 12.1235 15.5707 12.0536 15.4931C12.0807 15.4796 12.1078 15.4525 12.1213 15.4255C12.3784 15.6149 12.5949 15.7502 12.8114 15.872C12.7776 15.9058 12.7471 15.943 12.7167 15.9802C12.6862 16.0174 12.6558 16.0547 12.6219 16.0885C12.5182 15.979 12.4219 15.8794 12.336 15.7906L12.3355 15.79Z" fill="#008AD2"/>
<path d="M20.0235 20.7703H18.4268C18.4133 21.3251 18.3862 21.731 18.3456 22.1099C18.4521 22.223 18.5586 22.3329 18.6635 22.4411L18.6637 22.4413C18.772 22.553 18.8785 22.663 18.9816 22.7729L18.9819 22.773L18.9825 22.7733C19.1851 22.8408 19.3879 22.9084 19.5905 22.9894C19.9017 22.1911 19.9829 21.4874 20.0235 20.7703Z" fill="#008AD2"/>
<path d="M15.4392 21.8948L15.477 21.934H15.4905V22.2452C14.4892 22.2587 13.9344 22.2993 13.1767 22.4887C13.082 22.0016 13.0279 21.501 13.0143 20.7703H14.3674C14.7202 21.1492 15.0856 21.5281 15.4392 21.8948Z" fill="#008AD2"/>
<path d="M12.9196 22.5564C12.8114 22.0422 12.7708 21.5416 12.7572 20.7703H11.1606C11.2012 21.4874 11.2959 22.1775 11.5936 22.9894C12.0401 22.8135 12.4866 22.6782 12.9196 22.5564Z" fill="#008AD2"/>
<path d="M10.917 20.4726H9.34741C9.36094 19.4037 9.65863 18.4024 10.1457 17.5499C10.5652 17.7935 10.9441 17.9829 11.3635 18.1588C11.0523 18.9977 10.9576 19.7419 10.917 20.4726Z" fill="#008AD2"/>
<path d="M15.7206 14.4783V16.2509C16.1535 16.2509 16.5189 16.2103 16.9925 16.102C16.6677 15.5743 16.2889 15.0737 15.8423 14.573C15.7747 14.5054 15.7206 14.4783 15.7206 14.4783Z" fill="#008AD2"/>
<path d="M20.2805 20.7703H21.8502C21.8231 21.8392 21.5389 22.827 21.0383 23.693C20.6188 23.4494 20.24 23.26 19.8205 23.0841C20.1452 22.2452 20.24 21.501 20.2805 20.7703Z" fill="#008AD2"/>
<path d="M15.477 14.4783C15.477 14.4783 15.4229 14.5054 15.3552 14.573C14.9222 15.0737 14.5298 15.5743 14.2051 16.102C14.6787 16.2103 15.0305 16.2509 15.477 16.2509V14.4783Z" fill="#008AD2"/>
<path d="M16.1671 14.6137C16.0588 14.4919 15.9371 14.3972 15.9371 14.3972C15.9371 14.3972 16.1265 14.4513 16.3024 14.5325C16.8572 14.8572 17.4525 15.2632 17.9803 15.7909C17.7773 15.8721 17.5879 15.9397 17.3308 16.0074C17.3037 16.0209 17.2631 16.0344 17.2361 16.0344V16.048C16.9384 15.5473 16.573 15.0737 16.1671 14.6137Z" fill="#008AD2"/>
<path d="M15.7206 18.7541C16.6813 18.7406 17.2225 18.6864 17.9667 18.497C17.8855 18.1723 17.7908 17.8475 17.642 17.4416C17.5067 17.0492 17.3308 16.6703 17.1278 16.3185C16.5865 16.4403 16.2212 16.4809 15.7206 16.4809V18.7541Z" fill="#008AD2"/>
<path d="M13.8803 16.0209C13.6232 15.9532 13.4203 15.8855 13.2308 15.8044C13.7586 15.2902 14.3404 14.8707 14.9222 14.5595C15.0846 14.4648 15.274 14.4107 15.274 14.4107C15.274 14.4107 15.1523 14.5054 15.044 14.6272C14.6381 15.0872 14.2727 15.5608 13.975 16.0615V16.0479C13.9642 16.0443 13.9544 16.0407 13.9452 16.0374C13.9201 16.0282 13.9001 16.0209 13.8803 16.0209Z" fill="#008AD2"/>
<path d="M13.0008 15.6962C13.5285 15.182 14.0968 14.776 14.6516 14.4648C13.8262 14.5866 13.0414 14.8843 12.3513 15.3038C12.5813 15.4661 12.7708 15.5879 13.0008 15.6962Z" fill="#008AD2"/>
<path d="M13.7992 24.9785C13.515 25.0597 13.2714 25.1544 13.0414 25.2491C12.649 24.8296 12.2972 24.356 12.013 23.8148C11.8913 23.6118 11.7965 23.4224 11.7154 23.2194C12.1348 23.057 12.5543 22.9217 12.9873 22.8C13.0685 23.1247 13.1767 23.4494 13.312 23.8419C13.4473 24.2478 13.6232 24.6131 13.8397 24.9785H13.7992Z" fill="#008AD2"/>
<path d="M18.1562 15.9938C17.9261 16.0885 17.6826 16.1833 17.3849 16.2644H17.3443C17.5608 16.6298 17.7367 16.9951 17.872 17.4011C18.0073 17.7935 18.1156 18.1182 18.1967 18.443C18.6297 18.3212 19.0492 18.1859 19.4822 18.0235C19.401 17.8205 19.3063 17.6311 19.1845 17.4281C18.9004 16.8733 18.5486 16.4133 18.1562 15.9938Z" fill="#008AD2"/>
<path d="M18.4268 20.4727C18.4133 19.6878 18.3727 19.2007 18.2644 18.6865C18.7109 18.5648 19.1439 18.4295 19.5769 18.2535C19.9017 19.0654 19.9829 19.7555 20.0235 20.4727H18.4268Z" fill="#008AD2"/>
<path d="M12.1348 25.8039C12.3784 25.628 12.5949 25.4792 12.8249 25.3574C12.419 24.9379 12.0672 24.4643 11.7695 23.9096C11.6613 23.7066 11.5666 23.5172 11.4719 23.3278C11.0794 23.4902 10.687 23.6795 10.2946 23.9096C10.7546 24.6673 11.3771 25.3033 12.1348 25.8039Z" fill="#008AD2"/>
<path d="M18.1832 15.6962C17.669 15.182 17.1007 14.776 16.546 14.4648C17.3849 14.5866 18.1562 14.8843 18.8327 15.3038C18.6027 15.4661 18.4133 15.5879 18.1832 15.6962Z" fill="#008AD2"/>
<path d="M11.3771 23.0841C11.0523 22.2452 10.9576 21.5145 10.9306 20.7703H9.34741C9.36094 21.8392 9.6451 22.827 10.1457 23.693C10.5652 23.4494 10.9576 23.26 11.3771 23.0841Z" fill="#008AD2"/>
<path d="M18.3727 15.8855C18.6027 15.7637 18.8192 15.6149 19.0628 15.439C19.807 15.9261 20.4429 16.5756 20.903 17.3333C20.4971 17.5634 20.1182 17.7528 19.7122 17.9152C19.6311 17.7257 19.5363 17.5363 19.4281 17.3333C19.1304 16.7785 18.7651 16.305 18.3727 15.8855Z" fill="#008AD2"/>
<path d="M14.2186 29.2814H16.9654C17.1007 29.2814 17.2225 29.1596 17.2225 28.9972V28.7266C17.2225 28.5642 17.1143 28.4425 16.9654 28.4425H14.2186C14.0833 28.4425 13.9615 28.5642 13.9615 28.7266V28.9972C13.975 29.1596 14.0833 29.2814 14.2186 29.2814Z" fill="#008AD2"/>
<path d="M14.5434 27.8335V27.5494C14.5434 27.387 14.6922 27.2517 14.8816 27.2381H16.3024C16.4918 27.2381 16.6407 27.387 16.6407 27.5494V27.8335C16.6407 28.0094 16.4918 28.1447 16.3024 28.1447H14.8816C14.6922 28.1447 14.5434 27.9959 14.5434 27.8335Z" fill="#008AD2"/>
<path d="M14.4351 28.2124H14.4622C14.381 28.1177 14.3269 27.9959 14.3269 27.8742V27.5359C14.3269 27.4006 14.381 27.2788 14.4757 27.1841C14.5704 27.0893 14.6922 27.0352 14.8275 27.0352H14.8546C11.9048 26.6969 9.5639 24.3831 9.19856 21.4469V21.4063H2.02706C2.01353 21.4063 2 21.4063 2 21.4198C2 21.4256 2 21.4289 2.00104 21.4318C2.00243 21.4358 2.0057 21.439 2.01337 21.4467L2.02706 21.4469C5.11216 22.2046 7.7372 23.3142 9.90218 24.6132C11.7154 25.7092 13.2308 26.954 14.4351 28.2124Z" fill="#008AD2"/>
<path fill-rule="evenodd" clip-rule="evenodd" d="M14.0427 28.2259C13.975 28.253 13.9209 28.2936 13.8668 28.3612C13.7856 28.4424 13.745 28.5777 13.745 28.7131V29.0919C12.0942 28.7266 10.6193 27.9012 9.46918 26.751C8.60319 25.885 7.9131 24.8432 7.48011 23.6795C8.25138 24.0448 8.99559 24.4372 9.71274 24.8567C11.3771 25.8445 12.8249 26.9811 14.0427 28.2259ZM9.6045 25.7227L9.91571 25.9527L9.79393 25.5738L10.1051 25.3573H9.72628L9.6045 24.992L9.48272 25.3573H9.10384L9.41506 25.5874L9.29328 25.9527L9.6045 25.7227ZM11.0388 27.0623L11.35 27.2923L11.2282 26.9134L11.5394 26.6969H11.1606L11.0388 26.3316L10.917 26.6969H10.5381L10.8494 26.9269L10.7276 27.2923L11.0388 27.0623ZM12.6219 28.0636L12.9332 28.2936L12.8114 27.9147L13.1226 27.6982H12.7437L12.6219 27.3329L12.5002 27.6982H12.1213L12.4325 27.9283L12.3107 28.2936L12.6219 28.0636Z" fill="#008AD2"/>
<path d="M6.93886 23.4224C6.0864 23.0435 5.19335 22.7052 4.27323 22.394C4.19205 22.8 4.20558 23.233 4.31383 23.6659C4.4762 24.3019 4.85507 24.8161 5.32866 25.1814C5.58575 24.4102 6.15406 23.7607 6.93886 23.4224Z" fill="#008AD2"/>
<path fill-rule="evenodd" clip-rule="evenodd" d="M21.7148 26.7511C20.5647 27.9012 19.0898 28.7402 17.439 29.092C17.4525 29.0649 17.4525 29.0514 17.439 29.0514V28.7266C17.439 28.5778 17.3849 28.456 17.3172 28.3613C17.2496 28.2666 17.1549 28.2125 17.0466 28.2125H16.776C18.6162 26.2775 21.0383 24.6132 23.8257 23.3277C23.3927 24.6267 22.662 25.8039 21.7148 26.7511ZM21.5795 25.0056L21.4578 25.3709L21.0789 25.3845L21.3901 25.601L21.2683 25.9663L21.5795 25.7363L21.8908 25.9663L21.769 25.601L22.0802 25.3709H21.7013L21.5795 25.0056ZM20.1452 26.3316L20.0235 26.697L19.6311 26.7105L19.9423 26.927L19.8205 27.2923L20.1317 27.0623L20.4429 27.2923L20.3211 26.927L20.6459 26.697H20.267L20.1452 26.3316ZM18.5621 27.3329L18.4403 27.6983L18.0614 27.7118L18.3727 27.9283L18.2509 28.2936L18.5621 28.0636L18.8733 28.2936L18.7515 27.9283L19.0627 27.6983H18.6839L18.5621 27.3329Z" fill="#008AD2"/>
<path d="M24.4617 19.0924C24.4863 19.2032 24.4997 19.3252 24.5121 19.438L24.5158 19.4712C25.2465 19.8772 26.0178 20.2155 26.8567 20.4861C26.7484 19.7148 25.7201 19.0924 24.4617 19.0924Z" fill="#008AD2"/>
<path fill-rule="evenodd" clip-rule="evenodd" d="M19.6852 14.7084C19.2657 14.0183 18.9004 13.2741 18.5486 12.4757C19.7528 12.9087 20.8353 13.5988 21.7284 14.4919C23.0003 15.7638 23.8798 17.4146 24.164 19.2684C22.3373 18.1723 20.8624 16.6704 19.6852 14.7084ZM20.2129 14.6272L20.5241 14.8572L20.4023 14.4919L20.7136 14.2618H20.3347L20.2129 13.8965L20.0911 14.2618H19.7123L20.0235 14.4919L19.9017 14.8572L20.2129 14.6272ZM22.6485 17.2252L22.5267 16.8598L22.405 17.2252H22.0261L22.3373 17.4552L22.2155 17.8205L22.5267 17.5905L22.8379 17.8205L22.7162 17.4552L23.0274 17.2252H22.6485ZM21.8502 16.1833L21.7284 15.8179L22.0396 15.5879H21.6607L21.539 15.2225L21.4172 15.5879H21.0383L21.3495 15.8179L21.2277 16.1833L21.539 15.9532L21.8502 16.1833Z" fill="#008AD2"/>
<path d="M18.4268 12.0833C18.738 11.2714 19.374 10.6761 20.1588 10.4054C19.7799 9.90479 19.2387 9.51239 18.5892 9.33648C18.1968 9.22823 17.8044 9.2147 17.439 9.26883C17.7232 10.2837 18.0344 11.2038 18.3862 12.0698C18.393 12.0698 18.3997 12.0732 18.4065 12.0765C18.4133 12.0799 18.42 12.0833 18.4268 12.0833Z" fill="#008AD2"/>
</svg>
