<svg width="160" height="24" viewBox="0 0 160 24" fill="none" xmlns="http://www.w3.org/2000/svg">
<path d="M12.9207 8.80599C12.9207 7.81061 12.4027 6.99805 11.773 6.99805C11.1433 6.99805 10.6252 7.80045 10.6252 8.80599C11.0011 8.74505 11.3769 8.70442 11.773 8.70442C12.1589 8.70442 12.5449 8.74505 12.9207 8.80599Z" fill="#FFCC00"/>
<path d="M14.0177 6.98774C14.5053 7.11978 14.9115 7.41433 15.1959 7.79014C14.6068 7.99328 14.1295 8.44019 13.8958 9.05977C13.6622 8.98867 13.4286 8.91757 13.1849 8.86678C13.2966 8.20658 13.0833 7.54637 12.6465 7.07915C13.0731 6.90648 13.5403 6.86585 14.0177 6.98774Z" fill="#FFCC00"/>
<path d="M16.8108 10.9694C17.3085 10.553 17.9586 10.4108 18.568 10.5225C18.5172 10.0553 18.3141 9.5982 17.9484 9.23255C17.6031 8.88721 17.1663 8.68407 16.7194 8.62313C16.8616 9.24271 16.7194 9.92322 16.2928 10.4412C16.3334 10.4819 16.3741 10.5199 16.4147 10.558C16.4553 10.5961 16.4959 10.6342 16.5366 10.6748C16.6381 10.7764 16.7296 10.878 16.8108 10.9694Z" fill="#FFCC00"/>
<path d="M20.2338 13.1632C20.3658 13.6507 20.315 14.1484 20.122 14.5851C19.6548 14.189 19.0251 13.996 18.3852 14.0976C18.3344 13.8538 18.2633 13.6202 18.1922 13.3866C18.8219 13.1428 19.279 12.635 19.472 12.0256C19.8275 12.2998 20.1119 12.6858 20.2338 13.1632Z" fill="#FFCC00"/>
<path d="M20.1525 16.3323C19.6853 16.769 19.0251 16.9823 18.3649 16.8706C18.3141 17.1144 18.243 17.348 18.1719 17.5816C18.7813 17.8152 19.2282 18.2926 19.4314 18.8817C19.8072 18.5973 20.1017 18.191 20.2338 17.7035C20.3658 17.2261 20.3252 16.7589 20.1525 16.3323Z" fill="#FFCC00"/>
<path d="M16.2523 20.4966C16.6687 20.9942 16.8109 21.6443 16.6992 22.2537C17.1664 22.2029 17.6235 21.9998 17.9891 21.6341C18.3345 21.2888 18.5376 20.852 18.5986 20.4051C17.979 20.5473 17.2985 20.4051 16.7805 19.9785C16.7398 20.0192 16.7017 20.0598 16.6636 20.1004C16.6256 20.141 16.5875 20.1817 16.5468 20.2223C16.4453 20.3239 16.3539 20.4153 16.2523 20.4966Z" fill="#FFCC00"/>
<path d="M10.8995 7.10965C10.4627 6.91667 9.96504 6.86588 9.4775 6.99792C9.00012 7.11981 8.61416 7.4042 8.33992 7.7597C8.94934 7.95268 9.45719 8.40974 9.70095 9.03947C9.93457 8.96838 10.1682 8.89728 10.4119 8.84649C10.3002 8.2066 10.5034 7.57687 10.8995 7.10965Z" fill="#FFCC00"/>
<path d="M6.83668 8.65347C6.72496 9.26289 6.86715 9.91294 7.28359 10.4106C7.19218 10.502 7.09061 10.5935 6.98904 10.6849C6.94841 10.7255 6.91032 10.7661 6.87223 10.8067C6.83414 10.8474 6.79606 10.888 6.75543 10.9286C6.23742 10.502 5.5569 10.3598 4.93733 10.502C4.99827 10.0551 5.20141 9.61838 5.54675 9.27305C5.9124 8.90739 6.36946 8.70425 6.83668 8.65347Z" fill="#FFCC00"/>
<path d="M4.10448 12.0358C3.72867 12.3202 3.43411 12.7265 3.30207 13.214C3.18019 13.6914 3.22082 14.1586 3.39349 14.5852C3.86071 14.1485 4.52091 13.9352 5.18112 14.0469C5.2319 13.8032 5.303 13.5695 5.3741 13.3359C4.75452 13.1023 4.30762 12.6148 4.10448 12.0358Z" fill="#FFCC00"/>
<path d="M3.30208 17.744C3.17004 17.2565 3.22082 16.7588 3.4138 16.322C3.88102 16.7283 4.52092 16.9213 5.15065 16.8095C5.20143 17.0533 5.27253 17.2869 5.34363 17.5205C4.7139 17.7643 4.25683 18.2722 4.06385 18.8816C3.70836 18.6073 3.42396 18.2214 3.30208 17.744Z" fill="#FFCC00"/>
<path d="M6.72496 19.938C6.22727 20.3544 5.57722 20.4966 4.9678 20.3849C5.01859 20.8521 5.22173 21.3091 5.58738 21.6748C5.93272 22.0201 6.36947 22.2233 6.81638 22.2842C6.67418 21.6545 6.81638 20.9841 7.24297 20.4661C7.20234 20.4255 7.16171 20.3874 7.12109 20.3493C7.08046 20.3112 7.03983 20.2731 6.9992 20.2325C6.90779 20.1411 6.81638 20.0395 6.72496 19.938Z" fill="#FFCC00"/>
<path d="M9.52831 23.9295C9.04078 23.7975 8.6345 23.5131 8.3501 23.1271C8.92905 22.924 9.41658 22.4669 9.65019 21.8575C9.88381 21.9286 10.1174 21.9997 10.3612 22.0505C10.2495 22.7107 10.4628 23.3709 10.8995 23.8381C10.4729 24.0108 10.0057 24.0514 9.52831 23.9295Z" fill="#FFCC00"/>
<path d="M12.6363 23.8077C13.0731 24.0007 13.5708 24.0515 14.0583 23.9194C14.5357 23.7975 14.9217 23.5131 15.1959 23.1577C14.5865 22.9647 14.0786 22.5076 13.8349 21.8779C13.6013 21.949 13.3676 22.0201 13.1239 22.0709C13.2356 22.7107 13.0426 23.3405 12.6363 23.8077Z" fill="#FFCC00"/>
<path d="M11.773 23.9092C11.1433 23.9092 10.6253 23.1068 10.6253 22.1114C10.9909 22.1724 11.3769 22.2029 11.773 22.213C12.1691 22.213 12.545 22.1724 12.9208 22.1114C12.9208 23.1068 12.4028 23.9092 11.773 23.9092Z" fill="#FFCC00"/>
<path d="M15.9983 22.782C16.5468 22.4672 16.5874 21.5124 16.0897 20.6491C15.5006 21.1366 14.8302 21.5327 14.0989 21.7968C14.6068 22.65 15.4498 23.0969 15.9983 22.782Z" fill="#FFCC00"/>
<path d="M18.1008 17.7845C18.9642 18.2924 19.4009 19.1354 19.086 19.6839C18.7712 20.2324 17.8164 20.273 16.9531 19.7753C17.4406 19.1862 17.8367 18.5158 18.1008 17.7845Z" fill="#FFCC00"/>
<path d="M18.4157 16.6064C19.4111 16.6064 20.2236 16.0884 20.2236 15.4586C20.2236 14.8289 19.4212 14.3109 18.4157 14.3109C18.4766 14.6867 18.5172 15.0625 18.5172 15.4586C18.5172 15.8446 18.4868 16.2305 18.4157 16.6064Z" fill="#FFCC00"/>
<path d="M16.9531 11.1418C17.8164 10.6442 18.7712 10.6848 19.086 11.2333C19.4111 11.7817 18.9642 12.6248 18.1008 13.1326C17.8367 12.4013 17.4406 11.731 16.9531 11.1418Z" fill="#FFCC00"/>
<path d="M15.9983 8.13551C15.4498 7.82064 14.6068 8.25739 14.0989 9.12074C14.8302 9.38482 15.5006 9.78094 16.0897 10.2685C16.5874 9.40513 16.5468 8.45038 15.9983 8.13551Z" fill="#FFCC00"/>
<path d="M7.45625 10.2685C6.95856 9.40513 6.99919 8.45038 7.54767 8.13551C8.08599 7.82064 8.93917 8.25739 9.44702 9.12074C8.71572 9.38482 8.04536 9.78094 7.45625 10.2685Z" fill="#FFCC00"/>
<path d="M4.44985 11.2334C4.13498 11.7819 4.57173 12.6249 5.43507 13.1226C5.69916 12.3913 6.09528 11.7209 6.58281 11.1318C5.71947 10.6443 4.76471 10.6849 4.44985 11.2334Z" fill="#FFCC00"/>
<path d="M3.32234 15.4586C3.32234 14.8289 4.12474 14.3109 5.12012 14.3109C5.05918 14.6867 5.01855 15.0625 5.01855 15.4586C5.01855 15.8547 5.05918 16.2305 5.12012 16.6064C4.12474 16.6064 3.32234 16.0884 3.32234 15.4586Z" fill="#FFCC00"/>
<path d="M4.44985 19.6839C4.76471 20.2324 5.71947 20.273 6.58281 19.7753C6.09528 19.1862 5.69916 18.5158 5.43507 17.7845C4.57173 18.2924 4.13498 19.1354 4.44985 19.6839Z" fill="#FFCC00"/>
<path d="M9.43693 21.7968C8.93924 22.6601 8.0962 23.0969 7.54773 22.782C6.99925 22.4672 6.95862 21.5124 7.44616 20.6491C8.03526 21.1366 8.70562 21.5327 9.43693 21.7968Z" fill="#FFCC00"/>
<path d="M16.374 10.8582C15.1957 9.68003 13.5706 8.94873 11.7728 8.94873C9.97505 8.94873 8.34993 9.68003 7.17172 10.8582C5.99351 12.0365 5.26221 13.6616 5.26221 15.4594C5.26221 17.2571 5.99351 18.8823 7.17172 20.0605C8.34993 21.2387 9.97505 21.97 11.7728 21.97C13.5706 21.97 15.1957 21.2387 16.374 20.0605C17.5522 18.8823 18.2835 17.2571 18.2835 15.4594C18.2733 13.6616 17.5522 12.0365 16.374 10.8582Z" fill="#070C3D"/>
<path d="M18.4155 14.3112C18.4054 14.2401 18.3952 14.169 18.3749 14.098C18.3241 13.8542 18.2632 13.6206 18.1819 13.387C18.1514 13.2955 18.121 13.2143 18.0905 13.133C17.8264 12.4017 17.4303 11.7314 16.9428 11.1423C16.892 11.0915 16.8513 11.0305 16.8006 10.9798C16.7092 10.8782 16.6279 10.7868 16.5263 10.6852C16.4451 10.6039 16.3638 10.5227 16.2826 10.4516C16.2115 10.3907 16.1505 10.3297 16.0794 10.2688C15.4903 9.78123 14.82 9.38511 14.0886 9.12103C14.0175 9.10071 13.9566 9.07024 13.8855 9.04993C13.6519 8.96867 13.4183 8.90773 13.1745 8.85694C13.0831 8.83663 13.0018 8.82647 12.9104 8.80616C12.5346 8.74522 12.1588 8.70459 11.7627 8.70459C11.3666 8.70459 10.9908 8.73506 10.615 8.80616C10.5439 8.81632 10.4728 8.82647 10.4017 8.84679C10.1579 8.89757 9.92428 8.95851 9.69067 9.03977C9.59926 9.07024 9.518 9.10071 9.43675 9.13118C8.70544 9.39527 8.03508 9.79139 7.44598 10.2789C7.39519 10.3297 7.33425 10.3703 7.28347 10.4211C7.1819 10.5125 7.09048 10.6039 6.98891 10.6954C6.90766 10.7766 6.8264 10.8579 6.7553 10.9391C6.69436 11.0102 6.63342 11.0712 6.57248 11.1423C6.08494 11.7314 5.68882 12.4017 5.42474 13.133C5.40442 13.2041 5.37395 13.2651 5.35364 13.3362C5.27238 13.5698 5.21144 13.8034 5.16066 14.0472C5.14034 14.1386 5.13018 14.2198 5.10987 14.3112C5.04893 14.6871 5.0083 15.0629 5.0083 15.459C5.0083 15.8551 5.03877 16.2309 5.10987 16.6067C5.12003 16.6778 5.13018 16.7489 5.1505 16.82C5.20128 17.0638 5.26223 17.2974 5.34348 17.531C5.37395 17.6224 5.40442 17.7037 5.43489 17.7849C5.69898 18.5162 6.0951 19.1866 6.58263 19.7757C6.63342 19.8265 6.67405 19.8874 6.72483 19.9382C6.81624 20.0398 6.8975 20.1312 6.99907 20.2328C7.08033 20.314 7.16158 20.3953 7.24284 20.4664C7.31394 20.5273 7.37488 20.5883 7.44598 20.6492C8.03508 21.1367 8.70544 21.5329 9.43675 21.7969C9.50785 21.8173 9.56879 21.8477 9.63989 21.868C9.8735 21.9493 10.1071 22.0102 10.3509 22.061C10.4423 22.0813 10.5235 22.0915 10.615 22.1118C10.9908 22.1728 11.3666 22.2134 11.7627 22.2134C12.1588 22.2134 12.5346 22.1829 12.9104 22.1118C12.9815 22.1017 13.0526 22.0915 13.1237 22.0712C13.3675 22.0204 13.6011 21.9595 13.8347 21.8782C13.9261 21.8477 14.0074 21.8173 14.0886 21.7868C14.82 21.5227 15.4903 21.1266 16.0794 20.639C16.1302 20.5883 16.1911 20.5476 16.2419 20.4969C16.3435 20.4054 16.4349 20.3242 16.5263 20.2226C16.6076 20.1414 16.6888 20.0601 16.7599 19.9788C16.8209 19.9077 16.8818 19.8468 16.9428 19.7757C17.4303 19.1866 17.8264 18.5162 18.0905 17.7849C18.1108 17.7138 18.1413 17.6529 18.1616 17.5818C18.2429 17.3482 18.3038 17.1146 18.3546 16.8708C18.3749 16.7794 18.3851 16.6981 18.4054 16.6067C18.4663 16.2309 18.5069 15.8551 18.5069 15.459C18.5171 15.0629 18.4866 14.6871 18.4155 14.3112ZM11.7729 21.9595C9.97507 21.9595 8.34995 21.2282 7.17174 20.0499C5.99353 18.8717 5.26223 17.2466 5.26223 15.4488C5.26223 13.651 5.99353 12.0259 7.17174 10.8477C8.34995 9.6695 9.97507 8.9382 11.7729 8.9382C13.5706 8.9382 15.1958 9.6695 16.374 10.8477C17.5522 12.0259 18.2835 13.651 18.2835 15.4488C18.2835 17.2466 17.5522 18.8717 16.374 20.0499C15.1958 21.2383 13.5706 21.9595 11.7729 21.9595Z" fill="white"/>
<path fill-rule="evenodd" clip-rule="evenodd" d="M22.0212 16.0579C15.1855 14.8695 12.565 9.48633 11.783 0.0200195V16.0579H22.0212Z" fill="#008837"/>
<path d="M22.0211 16.0785H11.7728C11.7626 16.0785 11.7524 16.0684 11.7524 16.0582V0.0203141C11.7524 0.0101571 11.7626 0 11.7728 0C11.7829 0 11.7931 0.0101571 11.7931 0.0203141C12.2095 5.05818 13.1135 8.59281 14.637 11.1321C16.2723 13.8541 18.6795 15.4589 22.011 16.0379C22.0211 16.0379 22.0313 16.048 22.0313 16.0582C22.0415 16.0684 22.0313 16.0785 22.0211 16.0785ZM11.8032 16.0379H21.7774C18.5678 15.4285 16.2215 13.8237 14.6167 11.1625C13.1439 8.70454 12.24 5.32226 11.8032 0.548477V16.0379Z" fill="#FFCC00"/>
<path fill-rule="evenodd" clip-rule="evenodd" d="M11.783 16.0581V22.1625C9.96492 19.7756 6.55217 17.2769 1.55493 16.0581H11.783Z" fill="#008837"/>
<path d="M11.8033 16.0583V22.1626C11.8033 22.1728 11.7931 22.183 11.783 22.183C11.7728 22.183 11.7627 22.183 11.7627 22.1728C10.7876 20.893 9.35546 19.5828 7.46626 18.4554C5.83098 17.4803 3.86053 16.6474 1.55489 16.0786C1.54473 16.0786 1.53458 16.0685 1.54473 16.0583C1.54473 16.0482 1.55489 16.0482 1.56505 16.0482H11.7931C11.7931 16.038 11.8033 16.0482 11.8033 16.0583ZM11.7627 22.1017V16.0786H1.70725C3.9621 16.6474 5.89192 17.4701 7.49673 18.4249C9.35546 19.5422 10.7774 20.8321 11.7627 22.1017Z" fill="#FFCC00"/>
<path fill-rule="evenodd" clip-rule="evenodd" d="M1.52441 16.0579C8.36007 14.8695 10.9806 9.48633 11.7627 0.0200195V16.0579H1.52441Z" fill="#FFFF00"/>
<path d="M1.51436 16.0379C4.92711 15.4488 7.28353 13.8033 8.88834 11.1321C10.4931 8.46077 11.3463 4.74331 11.7424 0.0203141C11.7424 0.0101571 11.7526 0 11.7628 0C11.7729 0 11.7831 0.0101571 11.7831 0.0203141V16.0582C11.7831 16.0684 11.7729 16.0785 11.7628 16.0785H1.52452C1.51436 16.0785 1.50421 16.0684 1.50421 16.0582C1.49405 16.048 1.50421 16.0379 1.51436 16.0379ZM8.92896 11.1524C7.35463 13.783 5.03884 15.4183 1.7175 16.0379H11.7424V0.53832C11.326 5.02771 10.483 8.56234 8.92896 11.1524Z" fill="#FFCC00"/>
<path fill-rule="evenodd" clip-rule="evenodd" d="M11.7727 16.0581V22.1625C13.5908 19.7756 17.0036 17.2769 22.0008 16.0581H11.7727Z" fill="#FFFF00"/>
<path d="M11.7728 22.1831C11.7524 22.1831 11.7524 22.1729 11.7524 22.1627V16.0584C11.7524 16.0482 11.7626 16.0381 11.7728 16.0381H22.0008C22.011 16.0381 22.0212 16.0482 22.0212 16.0584C22.0212 16.0686 22.011 16.0787 22.0008 16.0787C17.6536 17.1452 13.926 19.3594 11.7931 22.1729C11.7829 22.1831 11.7829 22.1831 11.7728 22.1831ZM11.7931 16.0787V22.0916C13.9159 19.3391 17.5521 17.1554 21.8079 16.0787H11.7931Z" fill="#FFCC00"/>
<path fill-rule="evenodd" clip-rule="evenodd" d="M11.0518 8.288L11.0619 9.15135C11.2041 8.98884 11.3768 8.90758 11.5698 8.89743C11.5495 9.11072 11.4377 9.25292 11.2752 9.34433H12.2808C12.1081 9.23261 12.0065 9.09041 11.976 8.88727C12.1893 8.89742 12.362 8.97868 12.5042 9.14119V8.26769C12.3417 8.45052 12.169 8.54193 11.976 8.54193C11.9659 8.37942 12.0979 8.19659 12.2808 8.07471H11.2651C11.4377 8.18643 11.5495 8.32863 11.5799 8.55209C11.3666 8.52161 11.194 8.44036 11.0518 8.288ZM11.3869 8.68413H11.7424V8.33879H11.8338V8.68413H12.2097V8.77554H11.8338V9.13104H11.7424V8.77554H11.3869V8.68413Z" fill="#FF0000"/>
<path fill-rule="evenodd" clip-rule="evenodd" d="M12.2198 8.6842H11.8339V8.33887H11.7425V8.6842H11.387V8.77562H11.7425V9.13111H11.8339V8.77562H12.2198V8.6842Z" fill="white"/>
<path fill-rule="evenodd" clip-rule="evenodd" d="M11.7729 9.39502C12.2401 9.39502 12.6261 9.6591 12.6261 9.98413C12.6261 10.3091 12.2401 10.5732 11.7729 10.5732C11.3056 10.5732 10.9197 10.3091 10.9197 9.98413C10.9197 9.6591 11.2955 9.39502 11.7729 9.39502Z" fill="#070C3D"/>
<path d="M11.7729 9.34424C12.0166 9.34424 12.2401 9.41534 12.4026 9.52706C12.5651 9.63879 12.6768 9.8013 12.6768 9.98413C12.6768 10.167 12.5753 10.3295 12.4026 10.4412C12.2401 10.5529 12.0166 10.624 11.7729 10.624C11.5291 10.624 11.3056 10.5529 11.1431 10.4412C10.9806 10.3295 10.8689 10.167 10.8689 9.98413C10.8689 9.8013 10.9705 9.63879 11.1431 9.52706C11.3056 9.41534 11.5291 9.34424 11.7729 9.34424ZM12.3417 9.60832C12.1995 9.50675 11.9963 9.44581 11.7729 9.44581C11.5494 9.44581 11.3463 9.50675 11.2041 9.60832C11.0619 9.70989 10.9806 9.84193 10.9806 9.98413C10.9806 10.1263 11.072 10.2584 11.2041 10.3599C11.3463 10.4615 11.5494 10.5225 11.7729 10.5225C11.9963 10.5225 12.1995 10.4615 12.3417 10.3599C12.4839 10.2584 12.5651 10.1263 12.5651 9.98413C12.5753 9.84193 12.4839 9.70989 12.3417 9.60832Z" fill="white"/>
<path fill-rule="evenodd" clip-rule="evenodd" d="M11.2344 9.90283H12.3009C12.3313 9.90283 12.3516 9.92315 12.3516 9.95362V10.0044C12.3516 10.0349 12.3313 10.0552 12.3009 10.0552H11.2344C11.2039 10.0552 11.1836 10.0349 11.1836 10.0044V9.95362C11.1836 9.92315 11.2039 9.90283 11.2344 9.90283Z" fill="white"/>
<path fill-rule="evenodd" clip-rule="evenodd" d="M8.3094 10.4209L8.40081 10.6951H8.68521L8.4516 10.8576L8.54301 11.1319L8.3094 10.9592L8.07579 11.1319L8.1672 10.8576L7.93359 10.6951H8.21799L8.3094 10.4209Z" fill="white"/>
<path fill-rule="evenodd" clip-rule="evenodd" d="M7.31404 11.4165L7.3953 11.6907H7.67969L7.45624 11.8533L7.53749 12.1275L7.31404 11.9548L7.08043 12.1275L7.17184 11.8533L6.93823 11.6907H7.22263L7.31404 11.4165Z" fill="white"/>
<path fill-rule="evenodd" clip-rule="evenodd" d="M6.57259 12.6353L6.664 12.9095H6.94839L6.71478 13.072L6.8062 13.3462L6.57259 13.1736L6.33898 13.3462L6.43039 13.072L6.19678 12.9095H6.48117L6.57259 12.6353Z" fill="white"/>
<path fill-rule="evenodd" clip-rule="evenodd" d="M15.2364 10.4209L15.145 10.6951H14.8606L15.0942 10.8576L15.0028 11.1319L15.2364 10.9592L15.4599 11.1319L15.3786 10.8576L15.6021 10.6951H15.3177L15.2364 10.4209Z" fill="white"/>
<path fill-rule="evenodd" clip-rule="evenodd" d="M16.2318 11.4165L16.1404 11.6907H15.856L16.0896 11.8533L15.9982 12.1275L16.2318 11.9548L16.4654 12.1275L16.374 11.8533L16.6076 11.6907H16.313L16.2318 11.4165Z" fill="white"/>
<path fill-rule="evenodd" clip-rule="evenodd" d="M16.9735 12.6353L16.8821 12.9095H16.5977L16.8313 13.072L16.7399 13.3462L16.9735 13.1736L17.1969 13.3462L17.1157 13.072L17.3391 12.9095H17.0547L16.9735 12.6353Z" fill="white"/>
<path fill-rule="evenodd" clip-rule="evenodd" d="M6.90771 19.0242H7.19211L7.28352 18.75L7.36478 19.0242H7.64917L7.42572 19.1868L7.50698 19.461L7.28352 19.2985L7.04991 19.461L7.14132 19.1868L6.90771 19.0242Z" fill="white"/>
<path fill-rule="evenodd" clip-rule="evenodd" d="M7.98438 20.019H8.26877L8.36018 19.7549L8.44144 20.019L8.72583 20.0291L8.50238 20.1916L8.58364 20.4659L8.36018 20.2932L8.12657 20.4659L8.21799 20.1916L7.98438 20.019Z" fill="white"/>
<path fill-rule="evenodd" clip-rule="evenodd" d="M9.1626 20.7709H9.44699L9.53841 20.5068L9.62982 20.7709H9.91421L9.6806 20.9436L9.77202 21.2178L9.53841 21.0452L9.3048 21.2178L9.39621 20.9436L9.1626 20.7709Z" fill="white"/>
<path fill-rule="evenodd" clip-rule="evenodd" d="M16.6281 19.0242H16.3437L16.2523 18.75L16.1609 19.0242H15.8765L16.1101 19.1868L16.0187 19.461L16.2523 19.2985L16.4859 19.461L16.3945 19.1868L16.6281 19.0242Z" fill="white"/>
<path fill-rule="evenodd" clip-rule="evenodd" d="M15.5514 20.019H15.267L15.1756 19.7549L15.0842 20.019L14.7998 20.0291L15.0334 20.1916L14.942 20.4659L15.1756 20.2932L15.4092 20.4659L15.3178 20.1916L15.5514 20.019Z" fill="white"/>
<path fill-rule="evenodd" clip-rule="evenodd" d="M14.363 20.7709H14.0786L13.9872 20.5068L13.906 20.7709H13.6216L13.8552 20.9436L13.7638 21.2178L13.9974 21.0452L14.231 21.2178L14.1396 20.9436L14.363 20.7709Z" fill="white"/>
<path fill-rule="evenodd" clip-rule="evenodd" d="M11.7729 10.6143C9.09147 10.6143 6.90771 12.7777 6.90771 15.4591C6.90771 18.1304 9.08131 20.304 11.7729 20.304C14.4544 20.304 16.6381 18.1406 16.6381 15.4591C16.6381 12.7879 14.4544 10.6143 11.7729 10.6143Z" fill="#FFCC00"/>
<path fill-rule="evenodd" clip-rule="evenodd" d="M10.7267 18.8513C11.0822 18.77 11.3463 18.7395 11.6814 18.7395V20.0701C11.6814 20.0701 11.6408 20.0498 11.59 19.999C11.265 19.6232 10.9704 19.2474 10.7267 18.8513ZM14.2105 11.4671C13.6925 11.1523 13.1136 10.9288 12.4838 10.8374C12.9003 11.071 13.3269 11.3757 13.7128 11.7617C13.8957 11.6804 14.0379 11.589 14.2105 11.4671ZM15.856 13.1532C16.2318 13.8032 16.4451 14.5447 16.4654 15.3471H15.2872C15.2567 14.7986 15.1856 14.24 14.9418 13.6103C15.2465 13.4782 15.5411 13.336 15.856 13.1532ZM15.7544 12.9907C15.4497 13.1634 15.1653 13.3056 14.8606 13.4274C14.7996 13.2852 14.7285 13.143 14.6473 12.9907C14.4238 12.5743 14.1496 12.2188 13.855 11.9039C14.0175 11.8125 14.1801 11.7109 14.373 11.5687C14.9317 11.9344 15.3989 12.4219 15.7544 12.9907ZM14.759 13.6814C14.9926 14.2806 15.0637 14.8088 15.0942 15.3471H13.8957C13.8855 14.7682 13.855 14.3924 13.7738 14.0064C14.109 13.915 14.434 13.8134 14.759 13.6814ZM14.6879 13.5087C14.3629 13.6306 14.048 13.7423 13.723 13.8236C13.662 13.5798 13.591 13.336 13.4792 13.0415C13.3777 12.7368 13.2456 12.4625 13.0831 12.1883C13.0933 12.1883 13.1034 12.1883 13.1136 12.1883C13.337 12.1273 13.5199 12.0664 13.6925 11.9851C13.9871 12.2899 14.2512 12.6454 14.4645 13.0516C14.5559 13.2141 14.627 13.3563 14.6879 13.5087ZM13.5402 13.8743C13.4792 13.6306 13.4081 13.3868 13.2964 13.0821C13.1948 12.7875 13.0628 12.5032 12.9104 12.2289C12.5042 12.3203 12.2299 12.3508 11.8541 12.3508V14.047C12.5753 14.047 12.9815 14.0064 13.5402 13.8743ZM13.0018 12.0258C12.7784 11.65 12.5042 11.2945 12.1994 10.9491C12.1182 10.8577 12.0268 10.7866 12.0268 10.7866C12.0268 10.7866 12.169 10.8272 12.2909 10.8983C12.7073 11.1421 13.144 11.4468 13.5503 11.8429C13.4081 11.9039 13.2558 11.9547 13.0628 12.0055C13.0425 12.0055 13.012 12.0156 13.0018 12.0258ZM13.7027 15.3471C13.6925 14.7986 13.662 14.4228 13.5808 14.0572C13.0222 14.1994 12.5956 14.2298 11.8541 14.24V15.337H13.7027V15.3471ZM12.8089 12.0664C12.4534 12.1477 12.1893 12.1781 11.8541 12.1781V10.8476C11.8541 10.8476 11.8947 10.8679 11.9455 10.9187C12.2807 11.2945 12.5651 11.6703 12.8089 12.0664ZM9.32502 11.4671C9.84302 11.1523 10.4321 10.9288 11.0517 10.8374C10.6353 11.071 10.2087 11.3757 9.81255 11.7617C9.65004 11.6804 9.49768 11.589 9.32502 11.4671ZM7.67958 13.1532C7.30378 13.8032 7.09048 14.5447 7.08032 15.3471H8.25853C8.289 14.7986 8.3601 14.24 8.59371 13.6103C8.289 13.4782 7.99445 13.336 7.67958 13.1532ZM7.78115 12.9907C8.07571 13.1634 8.37026 13.3056 8.66481 13.4274C8.72575 13.2852 8.79685 13.143 8.88827 12.9907C9.11172 12.5743 9.3758 12.2188 9.68051 11.9039C9.518 11.8125 9.35549 11.7109 9.1625 11.5687C8.60387 11.9344 8.13665 12.4219 7.78115 12.9907ZM8.77654 13.6814C8.54293 14.2806 8.47183 14.8088 8.45152 15.3471H9.65004C9.6602 14.7682 9.69067 14.3924 9.77192 14.0064C9.42659 13.915 9.10156 13.8134 8.77654 13.6814ZM8.84764 13.5087C9.1625 13.6306 9.47737 13.7423 9.80239 13.8236C9.86334 13.5798 9.94459 13.336 10.0462 13.0415C10.1477 12.7368 10.2798 12.4625 10.4423 12.1883C10.4321 12.1883 10.422 12.1883 10.4118 12.1883C10.1884 12.1273 10.0157 12.0664 9.84302 11.9851C9.54847 12.2899 9.28439 12.6454 9.07109 13.0516C8.97968 13.2141 8.90858 13.3563 8.84764 13.5087ZM9.99538 13.8743C10.0563 13.6306 10.1376 13.3868 10.2391 13.0821C10.3407 12.7875 10.4626 12.5032 10.6251 12.2289C11.0314 12.3203 11.3056 12.3508 11.6814 12.3508V14.047C10.9603 14.047 10.554 14.0064 9.99538 13.8743ZM10.5439 12.0258C10.7673 11.65 11.0415 11.2945 11.3463 10.9491C11.4275 10.8577 11.5189 10.7866 11.5189 10.7866C11.5189 10.7866 11.3767 10.8272 11.2548 10.8983C10.8384 11.1421 10.4017 11.4468 9.99538 11.8429C10.1376 11.9039 10.2899 11.9547 10.4829 12.0055C10.4931 12.0055 10.5235 12.0156 10.5439 12.0258ZM9.83287 15.3471C9.84302 14.7986 9.88365 14.4228 9.95475 14.0572C10.5235 14.1994 10.94 14.2298 11.6916 14.24V15.337H9.83287V15.3471ZM10.7267 12.0664C11.0822 12.1477 11.3463 12.1781 11.6814 12.1781V10.8476C11.6814 10.8476 11.6408 10.8679 11.59 10.9187C11.265 11.2945 10.9704 11.6703 10.7267 12.0664ZM14.2105 19.4505C13.6925 19.7654 13.1136 19.9889 12.4838 20.0803C12.9003 19.8467 13.3269 19.542 13.7128 19.156C13.8957 19.2372 14.0379 19.3287 14.2105 19.4505ZM15.856 17.7645C16.2318 17.1144 16.4451 16.373 16.4654 15.5706H15.2872C15.2567 16.119 15.1856 16.6777 14.9418 17.3074C15.2465 17.4395 15.5411 17.5817 15.856 17.7645ZM15.7544 17.927C15.4497 17.7543 15.1653 17.6121 14.8606 17.4902C14.7996 17.6324 14.7285 17.7746 14.6473 17.927C14.4238 18.3434 14.1496 18.6989 13.855 19.0138C14.0175 19.1052 14.1801 19.2068 14.373 19.349C14.9317 18.9732 15.3989 18.4958 15.7544 17.927ZM14.759 17.2363C14.9926 16.637 15.0637 16.1089 15.0942 15.5706H13.8957C13.8855 16.1495 13.855 16.5253 13.7738 16.9113C14.109 17.0027 14.434 17.1043 14.759 17.2363ZM14.6879 17.409C14.3629 17.2871 14.048 17.1754 13.723 17.0941C13.662 17.3379 13.591 17.5817 13.4792 17.8762C13.3777 18.1809 13.2456 18.4552 13.0831 18.7294C13.0933 18.7294 13.1034 18.7294 13.1136 18.7294C13.337 18.7903 13.5199 18.8513 13.6925 18.9325C13.9871 18.6278 14.2512 18.2723 14.4645 17.866C14.5559 17.7035 14.627 17.5613 14.6879 17.409ZM13.5402 17.0433C13.4792 17.2871 13.4081 17.5309 13.2964 17.8356C13.1948 18.1301 13.0628 18.4145 12.9104 18.6786C12.5042 18.5872 12.2299 18.5567 11.8541 18.5567V16.8605C12.5753 16.8707 12.9815 16.9011 13.5402 17.0433ZM12.0268 20.1311C12.0268 20.1311 12.169 20.0904 12.2909 20.0193C12.7073 19.7756 13.144 19.4709 13.5503 19.0747C13.4081 19.0138 13.2558 18.963 13.0628 18.9122C13.0425 18.9122 13.012 18.9021 12.9917 18.8919V18.8817C12.7682 19.2576 12.494 19.613 12.1893 19.9584C12.108 20.06 12.0268 20.1311 12.0268 20.1311ZM13.7027 15.5706C13.6925 16.119 13.662 16.4949 13.5808 16.8605C13.0222 16.7183 12.5956 16.6878 11.8541 16.6777V15.5807H13.7027V15.5706ZM12.8089 18.8513C12.4534 18.77 12.1893 18.7395 11.8541 18.7395V20.0701C11.8541 20.0701 11.8947 20.0498 11.9455 19.999C12.2807 19.6232 12.5651 19.2474 12.8089 18.8513ZM9.32502 19.4505C9.84302 19.7654 10.4321 19.9889 11.0517 20.0803C10.6353 19.8467 10.2087 19.542 9.81255 19.156C9.65004 19.2372 9.49768 19.3287 9.32502 19.4505ZM7.67958 17.7645C7.30378 17.1144 7.09048 16.373 7.08032 15.5706H8.25853C8.289 16.119 8.3601 16.6777 8.59371 17.3074C8.289 17.4395 7.99445 17.5817 7.67958 17.7645ZM7.78115 17.927C8.07571 17.7543 8.37026 17.6121 8.66481 17.4902C8.72575 17.6324 8.79685 17.7746 8.88827 17.927C9.11172 18.3434 9.3758 18.6989 9.68051 19.0138C9.518 19.1052 9.35549 19.2068 9.1625 19.349C8.60387 18.9732 8.13665 18.4958 7.78115 17.927ZM8.77654 17.2363C8.54293 16.637 8.47183 16.1089 8.45152 15.5706H9.65004C9.6602 16.1495 9.69067 16.5253 9.77192 16.9113C9.42659 17.0027 9.10156 17.1043 8.77654 17.2363ZM8.84764 17.409C9.1625 17.2871 9.47737 17.1754 9.80239 17.0941C9.86334 17.3379 9.94459 17.5817 10.0462 17.8762C10.1477 18.1809 10.2798 18.4552 10.4423 18.7294C10.4321 18.7294 10.422 18.7294 10.4118 18.7294C10.1884 18.7903 10.0157 18.8513 9.84302 18.9325C9.54847 18.6278 9.28439 18.2723 9.07109 17.866C8.97968 17.7035 8.90858 17.5613 8.84764 17.409ZM9.99538 17.0433C10.0563 17.2871 10.1376 17.5309 10.2391 17.8356C10.3407 18.1301 10.4626 18.4145 10.6251 18.6786C11.0314 18.5872 11.3056 18.5567 11.6814 18.5567V16.8605C10.9603 16.8707 10.554 16.9011 9.99538 17.0433ZM11.5189 20.1311C11.5189 20.1311 11.4275 20.06 11.3463 19.9685C11.0415 19.6232 10.7673 19.2677 10.5439 18.8919V18.9021C10.5134 18.9021 10.4931 18.9122 10.4728 18.9224C10.2798 18.9732 10.1376 19.0239 9.98522 19.0849C10.3813 19.481 10.8181 19.7857 11.2447 20.0295C11.3666 20.0904 11.5088 20.1311 11.5189 20.1311ZM9.83287 15.5706C9.84302 16.119 9.88365 16.4949 9.95475 16.8605C10.5235 16.7183 10.94 16.6878 11.6916 16.6777V15.5807H9.83287V15.5706Z" fill="#FF0000"/>
<path fill-rule="evenodd" clip-rule="evenodd" d="M14.5457 19.4306C14.5457 19.4306 7.92334 12.5238 7.92334 12.5035C8.22805 12.1074 8.5937 11.762 8.98982 11.4878C8.99998 11.4878 15.602 18.4352 15.602 18.4352C15.3278 18.7704 14.9723 19.1462 14.5457 19.4306Z" fill="#FFCC00"/>
<path d="M10.6759 21.1572H12.8698C12.9511 21.1572 13.0222 21.1979 13.073 21.269C13.1237 21.3401 13.1644 21.4315 13.1644 21.5432V21.787C13.1644 21.8885 13.1339 21.9901 13.073 22.0612C13.0222 22.1323 12.9409 22.0917 12.8698 22.0917L11.783 22.2034L10.6759 22.112C10.5946 22.112 10.5235 22.1323 10.4728 22.0612C10.422 21.9901 10.3813 21.8987 10.3813 21.787V21.5432C10.3813 21.4416 10.4118 21.3401 10.4728 21.269C10.5235 21.1979 10.5946 21.1572 10.6759 21.1572ZM12.8698 21.3908H10.6759C10.6454 21.3908 10.615 21.4112 10.5946 21.4315C10.5743 21.4518 10.5642 21.4924 10.5642 21.533V21.7768C10.5642 21.8174 10.5743 21.8479 10.5946 21.8784C10.615 21.9088 10.6454 21.919 10.6759 21.919H12.8698C12.9003 21.919 12.9308 21.8987 12.9511 21.8784C12.9714 21.8581 12.9815 21.8174 12.9815 21.7768V21.533C12.9815 21.4924 12.9714 21.4619 12.9511 21.4315C12.9308 21.4112 12.9003 21.3908 12.8698 21.3908Z" fill="white"/>
<path d="M11.1837 20.2632H12.3619C12.4634 20.2632 12.5549 20.3038 12.626 20.3749C12.6971 20.446 12.7377 20.5374 12.7377 20.639V20.8929C12.7377 20.9945 12.6971 21.0859 12.626 21.157C12.5549 21.2281 12.4634 21.2687 12.3619 21.2687H11.1837C11.0821 21.2687 10.9907 21.2281 10.9196 21.157C10.8485 21.0859 10.8079 20.9945 10.8079 20.8929V20.639C10.8079 20.5374 10.8485 20.446 10.9196 20.3749C10.9805 20.3038 11.0821 20.2632 11.1837 20.2632ZM12.3619 20.4562H11.1837C11.1329 20.4562 11.0821 20.4765 11.0415 20.507C11.011 20.5374 10.9907 20.5882 10.9907 20.639V20.8929C10.9907 20.9437 11.011 20.9843 11.0415 21.025C11.0719 21.0554 11.1227 21.0757 11.1837 21.0757H12.3619C12.4127 21.0757 12.4634 21.0554 12.5041 21.025C12.5345 20.9945 12.5549 20.9437 12.5549 20.8929V20.639C12.5549 20.5882 12.5345 20.5476 12.5041 20.507C12.4634 20.4765 12.4127 20.4562 12.3619 20.4562Z" fill="white"/>
<path fill-rule="evenodd" clip-rule="evenodd" d="M10.7369 21.3398H12.7988C12.9004 21.3398 12.9918 21.4313 12.9918 21.5531V21.7563C12.9918 21.8782 12.9105 21.9696 12.7988 21.9696H10.7369C10.6354 21.9696 10.5439 21.8782 10.5439 21.7563V21.5531C10.5439 21.4313 10.6354 21.3398 10.7369 21.3398Z" fill="#FFCC00"/>
<path fill-rule="evenodd" clip-rule="evenodd" d="M11.2346 20.436H12.3011C12.4433 20.436 12.555 20.5376 12.555 20.6696V20.8829C12.555 21.0048 12.4433 21.1166 12.3011 21.1166H11.2346C11.0924 21.1166 10.9807 21.015 10.9807 20.8829V20.6696C10.9807 20.5376 11.0924 20.436 11.2346 20.436Z" fill="#FFCC00"/>
<path d="M44.5968 5.50999V11.8943H43.1398V5.50999H44.5968Z" fill="black"/>
<path d="M45.4975 4L44.3319 5.16561H43.1663L43.961 4H45.4975Z" fill="black"/>
<path fill-rule="evenodd" clip-rule="evenodd" d="M37.3646 8.63602C37.3646 10.7288 36.093 12.0004 34.2387 12.0004C32.3313 12.0004 31.2452 10.5699 31.2452 8.74198C31.2452 6.83462 32.4638 5.40411 34.3446 5.40411C36.2785 5.40411 37.3646 6.88761 37.3646 8.63602ZM32.7287 8.71549C32.7287 9.96057 33.3115 10.8613 34.2916 10.8613C35.2718 10.8613 35.8281 9.93408 35.8281 8.68899C35.8281 7.54988 35.2718 6.54322 34.2916 6.54322C33.3115 6.54322 32.7287 7.4969 32.7287 8.71549Z" fill="black"/>
<path fill-rule="evenodd" clip-rule="evenodd" d="M26 5.58932C26.4503 5.50984 27.0596 5.45686 27.9603 5.45686C28.861 5.45686 29.4968 5.61581 29.9207 5.96019C30.318 6.27808 30.6094 6.80791 30.6094 7.44369C30.6094 8.07948 30.3975 8.6093 30.0266 8.95369C29.5233 9.43052 28.808 9.61596 27.9603 9.61596C27.7749 9.61596 27.5895 9.61596 27.457 9.58947V11.8677H26.0265V5.58932H26ZM27.4305 8.50334C27.563 8.52983 27.6954 8.52983 27.9073 8.52983C28.6755 8.52983 29.1524 8.13246 29.1524 7.49668C29.1524 6.91387 28.7551 6.56948 28.0133 6.56948C27.7219 6.56948 27.51 6.59598 27.404 6.62247V8.50334H27.4305Z" fill="black"/>
<path d="M39.7489 5.50961H38.2919V11.8939H42.2921V10.6754H39.7489V5.50961Z" fill="black"/>
<path d="M48.8883 12.0004C49.6565 12.0004 50.2658 11.8679 50.5307 11.7355L50.2923 10.5964C50.0274 10.7023 49.524 10.8083 49.1002 10.8083C47.8286 10.8083 47.0604 9.98706 47.0604 8.71549C47.0604 7.28497 47.9611 6.59621 49.1002 6.59621C49.63 6.59621 50.0274 6.70217 50.3188 6.83462L50.6102 5.69551C50.3718 5.56305 49.789 5.40411 49.0472 5.40411C47.1134 5.40411 45.5504 6.6227 45.5504 8.79496C45.5504 10.6228 46.6895 12.0004 48.8883 12.0004Z" fill="black"/>
<path d="M52.9414 5.50961V11.8939H51.4844V5.50961H52.9414Z" fill="black"/>
<path fill-rule="evenodd" clip-rule="evenodd" d="M55.2196 11.8939L55.67 10.2515H57.4979L58.0012 11.8939H59.5642L57.5773 5.50961H55.67L53.7097 11.8939H55.2196ZM56.9151 7.84082L57.3124 9.19186H55.9084L56.2793 7.84082C56.3323 7.65538 56.3786 7.43683 56.425 7.21828C56.4713 6.99973 56.5177 6.78118 56.5707 6.59575H56.5972C56.6766 6.99311 56.8091 7.46995 56.9151 7.84082Z" fill="black"/>
<path d="M67.7234 9.45701C67.6969 8.68878 67.6704 7.76159 67.6704 6.83441H67.6439C67.432 7.65563 67.1671 8.55632 66.9287 9.29807L66.1604 11.7882H65.0213L64.3325 9.32456C64.1206 8.58281 63.9087 7.65563 63.7497 6.83441C63.7353 7.30957 63.7131 7.81604 63.6916 8.30702L63.6914 8.3102C63.6734 8.7214 63.6558 9.12167 63.6438 9.48351L63.5378 11.9207H62.2133L62.6106 5.53635H64.5445L65.1802 7.68212C65.3922 8.42387 65.5776 9.2186 65.7101 9.96035H65.7366C65.922 9.21863 66.1339 8.37085 66.3459 7.65563L67.0346 5.53635H68.9155L69.2599 11.9207H67.8558L67.7234 9.45701Z" fill="black"/>
<path d="M71.8032 11.8939V5.50961H70.3461V11.8939H71.8032Z" fill="black"/>
<path d="M73.0481 5.50961H74.5051V10.6754H77.0483V11.8939H73.0481V5.50961Z" fill="black"/>
<path d="M79.353 11.8939V5.50961H77.896V11.8939H79.353Z" fill="black"/>
<path d="M81.8167 6.7282H80.1213V5.50961H85.0221V6.7282H83.2737V11.8939H81.8167V6.7282Z" fill="black"/>
<path fill-rule="evenodd" clip-rule="evenodd" d="M86.8235 11.8939L87.2738 10.2515H89.1017L89.605 11.8939H91.168L89.1812 5.50961H87.2738L85.3135 11.8939H86.8235ZM88.5189 7.84082L88.9163 9.19186H87.5123L87.8831 7.84082C87.9361 7.65554 87.9824 7.4372 88.0287 7.21883C88.0751 7.00028 88.1216 6.78118 88.1745 6.59575H88.201C88.2805 6.99311 88.4129 7.46995 88.5189 7.84082Z" fill="black"/>
<path fill-rule="evenodd" clip-rule="evenodd" d="M92.0157 5.58932C92.4925 5.50984 93.1813 5.45686 93.9496 5.45686C94.9032 5.45686 95.5655 5.58931 96.0158 5.96019C96.3867 6.25159 96.5987 6.70194 96.5987 7.28474C96.5987 8.10597 96.0159 8.66228 95.4595 8.84772V8.87421C95.9099 9.05965 96.1483 9.48351 96.3073 10.0663C96.384 10.3252 96.4572 10.6015 96.5257 10.86C96.6465 11.3154 96.7526 11.7156 96.8371 11.8677H95.3536C95.2476 11.6823 95.0887 11.1789 94.9032 10.3842C94.7443 9.58947 94.4529 9.37754 93.8701 9.35105H93.4462V11.8677H92.0157V5.58932ZM94.0025 8.34439C94.7178 8.34439 95.1416 7.97351 95.1416 7.4172C95.1416 6.8344 94.7443 6.54299 94.082 6.51651C93.7376 6.51651 93.5257 6.54299 93.4197 6.56948V8.34439H94.0025Z" fill="black"/>
<path d="M36.7819 19.1523C37.0733 19.3112 37.4707 19.4702 37.8945 19.4702C38.5303 19.4702 38.9012 19.1258 38.9012 18.649C38.9012 18.1986 38.6362 17.9337 38.0005 17.6953C37.2057 17.4039 36.7289 17.0065 36.7289 16.3177C36.7289 15.576 37.3382 15.0197 38.2919 15.0197C38.7952 15.0197 39.1396 15.1256 39.3515 15.2581L39.1926 15.7614C39.0336 15.682 38.7157 15.523 38.2654 15.523C37.6031 15.523 37.3647 15.9204 37.3647 16.2383C37.3647 16.6886 37.6561 16.9005 38.3184 17.1655C39.1396 17.4833 39.5369 17.8807 39.5369 18.5695C39.5369 19.3112 38.9806 19.947 37.8415 19.947C37.3647 19.947 36.8614 19.8146 36.623 19.6291L36.7819 19.1523Z" fill="black"/>
<path fill-rule="evenodd" clip-rule="evenodd" d="M30.583 15.0464C30.0797 15.0464 29.6293 15.0994 29.2584 15.1524H29.2849V19.8943C29.6028 19.9208 29.9737 19.9473 30.424 19.9473C31.3512 19.9473 32.093 19.7088 32.5433 19.2585C32.9937 18.8082 33.2321 18.1724 33.2321 17.3776C33.2321 16.6094 32.9672 16.0531 32.5433 15.6557C32.1195 15.2584 31.4837 15.0464 30.583 15.0464ZM30.53 19.4439C30.2916 19.4439 30.0532 19.4439 29.8942 19.4174H29.8677V15.6027C30.0532 15.5762 30.2916 15.5498 30.6095 15.5498C31.934 15.5498 32.5698 16.265 32.5698 17.4041C32.5698 18.7022 31.8546 19.4439 30.53 19.4439Z" fill="black"/>
<path d="M35.2189 19.9205V15.0992H34.6097V19.9205H35.2189Z" fill="black"/>
<path d="M40.4376 15.629H41.8946V19.9205H42.5304V15.629H44.0139V15.0992H40.4376V15.629Z" fill="black"/>
<path fill-rule="evenodd" clip-rule="evenodd" d="M45.1 15.1524C45.4179 15.0994 45.8682 15.0464 46.2921 15.0464C46.9544 15.0464 47.3782 15.1789 47.6961 15.4438C47.9345 15.6557 48.067 16.0001 48.067 16.371C48.067 17.0068 47.6696 17.4306 47.1663 17.5896V17.6161C47.5372 17.7485 47.7491 18.0929 47.8816 18.5962L47.933 18.8112C48.0642 19.3614 48.1583 19.7561 48.2524 19.9208H47.5902C47.5107 19.7883 47.4047 19.3645 47.2723 18.7817C47.1398 18.1194 46.8749 17.8545 46.3186 17.8545H45.7358V19.9473H45.1265V15.1524H45.1ZM45.7358 17.3511H46.3716C47.0338 17.3511 47.4577 16.9803 47.4577 16.424C47.4577 15.8147 47.0074 15.5233 46.3451 15.5233C46.0537 15.5233 45.8418 15.5498 45.7358 15.5762V17.3511Z" fill="black"/>
<path d="M50.1334 19.9205V15.0992H49.5241V19.9205H50.1334Z" fill="black"/>
<path d="M52.7293 15.629H51.2723V15.0992H54.8486V15.629H53.3651V19.9205H52.7293V15.629Z" fill="black"/>
<path fill-rule="evenodd" clip-rule="evenodd" d="M57.8157 20C59.0343 20 60.041 19.1258 60.041 17.4569C60.041 16.0263 59.1933 15.0197 57.8687 15.0197C56.5971 15.0197 55.6435 16.0263 55.6435 17.5628C55.6435 19.0198 56.5442 20 57.8157 20ZM57.8422 19.4967C56.8621 19.4967 56.3057 18.5695 56.3057 17.5363C56.3057 16.4767 56.8356 15.523 57.8422 15.523C58.8754 15.523 59.3787 16.5297 59.3787 17.4834C59.3787 18.596 58.8224 19.4967 57.8422 19.4967Z" fill="black"/>
<path d="M63.5113 15.0992H66.1074V15.629H64.1206V17.2185H65.9485V17.7218H64.1206V19.894H63.5113V15.0992Z" fill="black"/>
<path d="M68.2003 17.6423H70.0812V17.139H68.2003V15.629H70.1872V15.0992H67.591V19.9205H70.2931V19.3907H68.2003V17.6423Z" fill="black"/>
<path fill-rule="evenodd" clip-rule="evenodd" d="M71.6706 15.1524C72.0415 15.0994 72.4918 15.0464 72.9951 15.0464C73.8958 15.0464 74.5316 15.2584 74.9555 15.6557C75.3793 16.0531 75.6442 16.6094 75.6442 17.3776C75.6442 18.1724 75.4058 18.8082 74.9555 19.2585C74.5051 19.7088 73.7634 19.9473 72.8362 19.9473C72.3858 19.9473 72.015 19.9208 71.6971 19.8943V15.1524H71.6706ZM72.2799 19.4174C72.4388 19.4439 72.6772 19.4439 72.9157 19.4439C74.2402 19.4439 74.9555 18.7022 74.9555 17.4041C74.9555 16.265 74.3197 15.5498 72.9951 15.5498C72.6772 15.5498 72.4388 15.5762 72.2534 15.6027V19.4174H72.2799Z" fill="black"/>
<path d="M77.6045 17.6423H79.4854V17.139H77.6045V15.629H79.5914V15.0992H76.9952V19.9205H79.6973V19.3907H77.6045V17.6423Z" fill="black"/>
<path fill-rule="evenodd" clip-rule="evenodd" d="M81.1013 15.1524C81.4192 15.0994 81.8696 15.0464 82.2935 15.0464C82.9557 15.0464 83.3796 15.1789 83.6975 15.4438C83.9359 15.6557 84.0684 16.0001 84.0684 16.371C84.0684 17.0068 83.671 17.4306 83.1677 17.5896V17.6161C83.5385 17.7485 83.7505 18.0929 83.8829 18.5962L83.9344 18.8114L83.9346 18.8125C84.0657 19.3621 84.1598 19.7562 84.2538 19.9208H83.618C83.5385 19.7883 83.4326 19.3645 83.3001 18.7817C83.1677 18.1194 82.9028 17.8545 82.3464 17.8545H81.7636V19.9473H81.1543V15.1524H81.1013ZM81.7106 17.3511H82.3464C83.0087 17.3511 83.4326 16.9803 83.4326 16.424C83.4326 15.8147 82.9822 15.5233 82.3199 15.5233C82.0285 15.5233 81.8166 15.5498 81.7106 15.5762V17.3511Z" fill="black"/>
<path fill-rule="evenodd" clip-rule="evenodd" d="M85.7903 19.8938L86.2936 18.3838H88.0155L88.5189 19.8938H89.1812L87.5387 15.0724H86.797L85.1545 19.8938H85.7903ZM87.4062 16.5294L87.8831 17.907V17.9335H86.4261L86.9029 16.5294L87.1413 15.6552H87.1678C87.2208 15.9201 87.3003 16.2115 87.4062 16.5294Z" fill="black"/>
<path d="M90.4528 15.0992H91.0621V19.3907H93.1284V19.9205H90.4528V15.0992Z" fill="black"/>
</svg>
