<svg width="200" height="96" viewBox="0 0 200 96" fill="none" xmlns="http://www.w3.org/2000/svg">
<path d="M41.8812 33.8942C41.9623 33.4482 42.3677 32.9211 42.9353 32.5563L43.6245 31.9886H40.6243V0.0810869C40.6243 0.0405436 40.6649 0 40.7054 0C40.746 0 40.7865 0.0405436 40.7865 0.0810869C42.0839 15.6497 44.557 27.5694 48.4087 36.8944C49.5439 39.6513 50.8007 42.1245 52.1792 44.4354C53.1522 46.0572 54.2063 47.5978 55.3416 49.0574C55.1388 48.8141 54.9361 48.5708 54.6929 48.3276L54.0036 47.6383C53.8415 47.5167 53.7198 47.3951 53.5982 47.2735C53.5171 47.1924 53.3955 47.0707 53.2738 46.9897L52.7873 46.6248C52.7468 46.5842 52.6961 46.5437 52.6454 46.5031C52.5947 46.4626 52.5441 46.4221 52.5035 46.3815C52.3414 46.2193 52.1792 46.0977 51.9765 45.9761C51.9359 45.9558 51.8954 45.9254 51.8548 45.895C51.8143 45.8646 51.7737 45.8342 51.7332 45.8139C51.5305 45.6517 51.3278 45.5301 51.125 45.4085C51.0845 45.3882 51.0541 45.3679 51.0237 45.3477C50.9933 45.3274 50.9629 45.3071 50.9223 45.2868C50.6791 45.1247 50.4764 45.003 50.2331 44.8814C50.1926 44.8814 50.1115 44.8409 50.0709 44.8003L49.3411 44.4354C49.3209 44.4152 49.3006 44.405 49.2803 44.3949C49.2601 44.3848 49.2398 44.3746 49.2195 44.3543C48.9763 44.2327 48.733 44.1111 48.4492 43.9895C48.4289 43.9895 48.4087 43.9793 48.3884 43.9692C48.3681 43.959 48.3478 43.9489 48.3276 43.9489C48.1857 43.8881 48.0438 43.8374 47.9018 43.7867C47.7599 43.7361 47.618 43.6854 47.4762 43.6246C47.4559 43.6246 47.4457 43.6144 47.4356 43.6043C47.4255 43.5942 47.4153 43.584 47.3951 43.584C47.2532 43.5435 47.1012 43.4928 46.9491 43.4421C46.7971 43.3914 46.645 43.3408 46.5031 43.3002C46.4626 43.2597 46.4626 43.2597 46.422 43.2597C46.1382 43.1786 45.8544 43.0975 45.5301 43.0164H45.4895C45.3286 42.9762 45.1778 42.9461 45.027 42.916L45.024 42.9152L45.023 42.915C44.8711 42.8846 44.7191 42.8542 44.557 42.8137H44.5165C44.2327 42.7326 43.9084 42.6921 43.584 42.6515H43.5435L42.5704 42.5299H42.4893C42.3272 42.5299 42.165 42.5198 42.0028 42.5096C41.8406 42.4995 41.6785 42.4894 41.5163 42.4894H41.4352C42.1244 42.3677 42.7731 42.1245 43.2597 41.8001C43.9489 41.3136 44.3543 40.6649 44.3543 39.9351C44.3543 39.2459 43.9894 38.5567 43.2597 38.0701C43.0164 37.908 42.7731 37.7863 42.4893 37.6647H43.7056L42.8948 37.1782C42.3677 36.8133 42.0434 36.4079 41.8812 35.8808C42.4893 35.9619 43.0164 36.2862 43.4624 36.7728L43.9489 37.2998V32.3941L43.4624 32.9211C42.9759 33.4887 42.4488 33.8131 41.8812 33.8942Z" fill="#008AD2"/>
<path d="M33.4888 35.8401C33.1239 35.9212 32.7995 36.0023 32.4752 36.1239C31.5021 33.6508 29.475 31.8264 27.0829 31.056C28.1776 29.637 29.7182 28.5018 31.6238 28.0153C33.1239 27.6099 34.6645 27.6504 36.0835 28.0153C35.3132 30.7722 34.4618 33.367 33.4888 35.8401Z" fill="#008AD2"/>
<path d="M58.7878 41.8002C58.9499 41.9624 59.1121 42.1144 59.2743 42.2665C59.4364 42.4184 59.5987 42.5706 59.7608 42.7327C60.1256 43.0975 60.4904 43.5028 60.8551 43.9081C62.8418 42.2458 65.4369 41.6786 67.8694 42.1245C67.6667 40.2596 66.8559 38.4351 65.3963 36.9756C64.0178 35.5971 62.2745 34.7862 60.4906 34.543C61.0582 37.0566 60.4906 39.7325 58.7878 41.8002Z" fill="#008AD2"/>
<path d="M67.1396 56.3552C66.9369 55.3822 66.6531 54.4497 66.3693 53.5172C68.883 52.5442 70.7075 50.517 71.4778 48.125C72.8968 49.2196 74.032 50.7603 74.5185 52.6658C75.0456 54.6119 74.8429 56.5985 74.0725 58.3419C72.2076 56.7201 69.6939 55.9498 67.1396 56.3552Z" fill="#008AD2"/>
<path d="M66.6126 69.329C66.5316 69.6534 66.4505 69.9372 66.3288 70.2615C68.7614 71.194 70.5453 73.0995 71.3562 75.451C72.8563 74.3158 74.0321 72.6941 74.5591 70.748C74.9646 69.2479 74.924 67.7073 74.5591 66.2883C71.8022 67.1802 69.1669 68.2343 66.6126 69.329Z" fill="#008AD2"/>
<path d="M60.2676 80.3164C60.1155 80.4786 59.9635 80.6407 59.8013 80.8029C59.6189 80.9854 59.4263 81.1678 59.2337 81.3502C59.0411 81.5327 58.8486 81.7151 58.6661 81.8976C60.3284 83.8842 60.896 86.479 60.45 88.9116C62.315 88.7088 64.1394 87.898 65.599 86.4384C66.9775 85.06 67.7883 83.3166 68.0316 81.5327C65.4774 82.1003 62.8015 81.5327 60.7338 79.8299C60.5717 79.992 60.4196 80.1543 60.2676 80.3164Z" fill="#008AD2"/>
<path d="M20.7582 43.7058C20.9204 43.5436 21.0724 43.3815 21.2244 43.2193C21.3765 43.0571 21.5285 42.8949 21.6907 42.7328C22.0555 42.3679 22.4609 42.0031 22.8662 41.6383C21.204 39.6516 20.6365 37.0567 21.0825 34.6241C19.2175 34.8268 17.3931 35.6377 15.9335 37.0973C14.5551 38.4757 13.7442 40.2191 13.5009 42.003C16.0146 41.4759 18.6905 42.0435 20.7582 43.7058Z" fill="#008AD2"/>
<path d="M15.1632 53.3145C14.8794 54.247 14.5955 55.1795 14.3928 56.1525C11.7575 55.7065 9.16275 56.558 7.29776 58.3013C6.60852 56.5985 6.44635 54.7335 6.93287 52.828C7.45993 50.8819 8.59514 49.2602 10.1358 48.125C10.9467 50.4765 12.7306 52.382 15.1632 53.3145Z" fill="#008AD2"/>
<path d="M22.6637 81.7756C22.5015 81.6134 22.3393 81.4614 22.1772 81.3094C22.015 81.1573 21.8528 81.0053 21.6907 80.8431C21.5082 80.6607 21.3258 80.4681 21.1433 80.2755C20.9609 80.0829 20.7784 79.8904 20.596 79.7079C18.6094 81.3702 16.0146 81.9378 13.582 81.4918C13.7847 83.3568 14.5956 85.1813 16.0551 86.6408C17.4336 88.0193 19.177 88.8302 20.9609 89.0734C20.4338 86.5192 21.0014 83.8433 22.6637 81.7756Z" fill="#008AD2"/>
<path d="M32.2725 87.3708C33.205 87.6546 34.1375 87.9384 35.1105 88.1411C34.6645 90.7764 35.5159 93.3712 37.2593 95.2362C35.5565 95.9254 33.6915 96.0876 31.7859 95.601C29.8399 95.074 28.2181 93.9388 27.0829 92.3981C29.4344 91.5873 31.34 89.8034 32.2725 87.3708Z" fill="#008AD2"/>
<path d="M49.0168 87.4111C48.0843 87.695 47.1518 87.9788 46.1788 88.1815C46.5842 90.7357 45.8139 93.2494 44.1922 95.1144C45.9355 95.8847 47.9222 96.0874 49.8682 95.5603C51.7738 95.0738 53.3144 93.9386 54.4091 92.5196C52.017 91.7493 49.9899 89.9248 49.0168 87.4111Z" fill="#008AD2"/>
<path d="M36.1646 88.3032C37.6647 88.587 39.1648 88.7086 40.746 88.7086C42.2866 88.7086 43.8273 88.587 45.3274 88.3032C45.3274 92.2764 43.2597 95.4793 40.746 95.4793C38.2323 95.4793 36.1646 92.2764 36.1646 88.3032Z" fill="#008AD2"/>
<path d="M50.0709 87.087C52.0576 90.5331 55.4632 92.2765 57.612 91.0197C59.8013 89.7628 59.9635 85.9518 57.9769 82.5056C55.6254 84.4516 52.9495 85.9923 50.0709 87.087Z" fill="#008AD2"/>
<path d="M66.0044 52.5036C64.9503 49.5845 63.3691 46.9086 61.4231 44.5571C64.9098 42.5705 68.7209 42.7326 69.9372 44.9625C71.194 47.1113 69.4506 50.517 66.0044 52.5036Z" fill="#008AD2"/>
<path d="M50.0709 36.4888C52.9901 37.5429 55.6659 39.1241 58.0174 41.0702C60.004 37.624 59.8419 33.8129 57.6525 32.5561C55.4227 31.2992 52.0576 33.0426 50.0709 36.4888Z" fill="#008AD2"/>
<path d="M23.8799 32.5561C26.0287 31.2992 29.4344 33.0426 31.421 36.4888C28.5019 37.5834 25.826 39.1241 23.5151 41.0702C21.5284 37.624 21.6906 33.8129 23.8799 32.5561Z" fill="#008AD2"/>
<path d="M15.447 52.463C16.5012 49.5439 18.0824 46.868 20.0284 44.5165C16.5823 42.5299 12.7712 42.692 11.5143 44.8814C10.2575 47.1113 12.0009 50.4764 15.447 52.463Z" fill="#008AD2"/>
<path d="M7.03428 62.0513C7.02414 61.9601 7.01401 61.8689 7.01401 61.7878C7.01401 59.2741 10.2169 57.2064 14.1902 57.2064C14.0786 57.8384 14.0012 58.5385 13.9266 59.2131L13.9064 59.3957C11.7981 60.531 9.48715 61.504 7.05455 62.3149C7.05455 62.2338 7.04441 62.1425 7.03428 62.0513Z" fill="#008AD2"/>
<path d="M20.0284 79.0188C18.0824 76.6673 16.5012 73.9914 15.447 71.0723C12.0009 73.0589 10.2575 76.4645 11.5143 78.6133C12.7712 80.8432 16.5823 81.0054 20.0284 79.0188Z" fill="#008AD2"/>
<path d="M23.4746 82.5056C25.8261 84.4516 28.5019 86.0328 31.4211 87.087C29.4344 90.4926 26.0693 92.2765 23.8395 91.0197C21.6501 89.7628 21.488 85.9518 23.4746 82.5056Z" fill="#008AD2"/>
<path fill-rule="evenodd" clip-rule="evenodd" d="M37.908 36.6107C38.4756 35.962 39.1648 35.6376 39.9351 35.5971C39.854 36.4485 39.4081 37.0161 38.7594 37.381H42.8137C42.1245 36.935 41.719 36.3674 41.5974 35.5565C42.4488 35.5971 43.138 35.9214 43.7057 36.5701V33.0834C43.057 33.8132 42.3677 34.1781 41.5974 34.1781C41.5569 33.5294 42.0839 32.7996 42.8137 32.3131H38.7594C39.4486 32.759 39.8946 33.3267 40.0162 34.2186C39.1243 34.097 38.4756 33.7726 37.908 33.1645V36.6107ZM39.2053 34.7457H40.6244V33.3672H40.9893V34.7457H42.4894V35.1106H40.9893V36.5296H40.6244V35.1106H39.2053V34.7457Z" fill="#008AD2"/>
<path fill-rule="evenodd" clip-rule="evenodd" d="M40.7055 42.084C39.8135 42.084 39.0027 41.8407 38.4351 41.4353C37.908 41.0299 37.5431 40.5028 37.5431 39.9352C37.5431 39.3676 37.8675 38.8405 38.4351 38.4351C39.0027 38.0297 39.8135 37.7864 40.7055 37.7864C41.5974 37.7864 42.4083 38.0297 42.9759 38.4351C43.503 38.8405 43.8679 39.3676 43.8679 39.9352C43.8679 40.5028 43.5435 41.0299 42.9759 41.4353C42.4083 41.8407 41.5974 42.084 40.7055 42.084ZM38.5972 39.6109C38.4756 39.6109 38.3945 39.6919 38.3945 39.8136V40.0163C38.3945 40.1379 38.4756 40.219 38.5972 40.219H42.8543C42.9759 40.219 43.057 40.1379 43.057 40.0163V39.8136C43.057 39.6919 42.9759 39.6109 42.8543 39.6109H38.5972Z" fill="#008AD2"/>
<path d="M66.045 71.1131C64.9909 74.0322 63.4097 76.708 61.4636 79.0596C64.9098 81.0462 68.7209 80.884 69.9777 78.6947C71.2346 76.4648 69.4507 73.0997 66.045 71.1131Z" fill="#008AD2"/>
<path d="M81.6541 64.0989C70.9102 62.2339 62.5582 57.6931 56.3146 50.2737C58.7066 53.4766 60.1662 57.4904 60.1662 61.788C60.1662 62.5583 60.1256 63.3286 60.004 64.0989V64.2611H81.6541C81.6947 64.2611 81.7352 64.2206 81.7352 64.18C81.7352 64.1395 81.7352 64.0989 81.6541 64.0989Z" fill="#008AD2"/>
<path fill-rule="evenodd" clip-rule="evenodd" d="M25.0963 50.3954C22.2177 53.801 18.8526 56.639 14.9604 58.8689C15.6091 52.8685 18.3255 47.4763 22.3799 43.4219C25.299 40.4623 28.9479 38.2324 33.0022 36.9755C31.867 39.6919 30.6101 42.2056 29.2317 44.5166C28.2992 46.1383 27.2856 47.5979 26.1909 49.0169C25.826 49.5034 25.4611 49.9494 25.0963 50.3954ZM26.9207 41.6786L26.5558 42.7732H25.4206L26.3531 43.4625L25.9882 44.5571L26.9207 43.8679L27.8532 44.5571L27.4883 43.4625L28.4208 42.7732H27.2856L26.9207 41.6786ZM19.9878 52.6658L20.9203 53.355L20.5554 52.2604L21.4879 51.5711H20.3527L19.9878 50.4765L19.6229 51.5711H18.4877L19.4202 52.2604L19.0553 53.355L19.9878 52.6658ZM23.3123 46.7465L22.9475 45.6518L22.5826 46.7465H21.4474L22.3799 47.4357L22.015 48.5304L22.9475 47.8411L23.88 48.5304L23.5151 47.4357L24.4476 46.7465H23.3123Z" fill="#008AD2"/>
<path d="M51.3278 77.154C51.1186 76.9216 50.8294 76.6225 50.4832 76.2644L50.4792 76.2603C50.2226 75.9948 49.9347 75.6971 49.625 75.3701C49.5236 75.4715 49.4324 75.5728 49.3412 75.6742C49.2499 75.7755 49.1587 75.8769 49.0574 75.9783C49.7061 76.3431 50.3547 76.7486 51.1251 77.3162C51.1726 77.2687 51.2201 77.2351 51.2594 77.2073C51.2872 77.1876 51.311 77.1708 51.3278 77.154Z" fill="#008AD2"/>
<path d="M48.4493 75.6537C47.76 75.3293 47.0302 75.0861 46.1383 74.8428C46.0978 74.8428 46.0572 74.8023 46.0978 74.8023C46.5032 74.113 46.8275 73.4238 47.1519 72.694C47.6211 73.2154 48.0736 73.6865 48.4985 74.1289L48.4996 74.13L48.5006 74.131C48.7357 74.3758 48.9626 74.612 49.179 74.8428C48.9359 75.1265 48.6925 75.4105 48.4493 75.6537Z" fill="#008AD2"/>
<path d="M48.5303 76.5456C46.9897 78.0863 45.2869 79.3026 43.6246 80.2351C46.0977 79.8702 48.4493 78.9782 50.517 77.7214C49.7872 77.2349 49.2196 76.87 48.5303 76.5456Z" fill="#008AD2"/>
<path d="M45.3273 74.64C43.7056 74.2751 42.6109 74.1535 41.1108 74.1535V67.3422C41.4352 67.3828 41.719 67.3828 42.0028 67.3828L42.5448 67.952L42.5472 67.9545C43.9693 69.4481 45.3203 70.867 46.5436 72.1263C46.2193 72.9777 45.7733 73.8291 45.3273 74.64Z" fill="#008AD2"/>
<path d="M41.273 66.6125C41.2527 66.572 41.2223 66.5416 41.1919 66.5112C41.1615 66.4808 41.1311 66.4504 41.1108 66.4098V66.6125H41.273Z" fill="#008AD2"/>
<path d="M41.7596 80.3973C41.7596 80.3973 42.1245 80.1135 42.4488 79.7486C43.6651 78.3702 44.7192 76.9511 45.6112 75.4105V75.451C45.6923 75.4916 45.8139 75.5321 45.895 75.5321C46.6653 75.7348 47.2735 75.9376 47.8411 76.1808C46.2193 77.762 44.476 78.9783 42.8137 79.9513C42.3272 80.2351 41.7596 80.3973 41.7596 80.3973Z" fill="#008AD2"/>
<path d="M40.3811 67.3422C37.5025 67.3828 35.8808 67.5449 33.6509 68.1125C33.8942 69.0856 34.2185 70.0586 34.624 71.2749C35.0294 72.4507 35.5159 73.5859 36.1646 74.64C37.7863 74.2751 38.881 74.1535 40.3811 74.1535V67.3422Z" fill="#008AD2"/>
<path d="M40.3811 74.8835V80.1947C40.3811 80.1947 40.2189 80.1136 40.0162 79.9109C38.6783 78.4108 37.5431 76.9107 36.57 75.3295C37.989 75.0051 39.0432 74.8835 40.3811 74.8835Z" fill="#008AD2"/>
<path d="M39.7324 80.4379C39.7324 80.4379 39.3675 80.1541 39.0431 79.7893C37.8268 78.4108 36.7322 76.9918 35.8402 75.4917V75.5322C35.7186 75.5322 35.6375 75.5727 35.5564 75.6133C34.7861 75.816 34.2185 76.0187 33.6103 76.262C35.1915 77.8432 36.9349 79.0595 38.6377 80.0325C39.1242 80.2758 39.6918 80.4379 39.7324 80.4379Z" fill="#008AD2"/>
<path d="M33.1644 58.1796C34.1374 59.1932 35.151 60.2473 36.2051 61.342H33.0022C33.0022 60.1257 33.0833 59.1121 33.1644 58.1796Z" fill="#008AD2"/>
<path d="M41.1108 80.1947C41.1108 80.1947 41.273 80.1136 41.4757 79.9109C42.8137 78.4108 43.9489 76.9107 44.9219 75.3295C43.5029 75.0051 42.4488 74.8835 41.1108 74.8835V80.1947Z" fill="#008AD2"/>
<path d="M53.1117 69.8968C54.328 70.3833 55.4632 70.9509 56.6795 71.6401L55.5848 73.2213C55.3315 72.9486 54.9846 72.5822 54.5576 72.1311L54.5563 72.1298C54.095 71.6425 53.5402 71.0566 52.909 70.3833C52.9495 70.2211 53.0306 70.0589 53.1117 69.8968Z" fill="#008AD2"/>
<path d="M45.1652 62.2339C46.1787 63.3254 47.1923 64.3795 48.1698 65.396L48.287 65.5179C48.4086 64.5854 48.4492 63.5313 48.4897 62.2339H45.1652Z" fill="#008AD2"/>
<path d="M44.2008 61.1841C43.1816 60.1258 42.1274 59.0311 41.1108 57.9363V56.8822C44.0705 56.8417 45.7733 56.72 48.0032 56.1524C48.3275 57.612 48.4492 59.1121 48.4897 61.3014H44.3138L44.2008 61.1841Z" fill="#008AD2"/>
<path d="M35.3538 48.7331C34.4618 48.4898 33.7726 48.2466 33.0833 47.9222C32.8401 48.1655 32.5968 48.4493 32.3536 48.7331C32.9617 49.3818 33.6509 50.1116 34.4213 50.8819C34.7456 50.1521 35.07 49.4629 35.5159 48.7331H35.3538Z" fill="#008AD2"/>
<path d="M31.0156 77.7214C31.7048 77.2349 32.2724 76.87 32.9617 76.5456C34.5429 78.0863 36.2052 79.3026 37.908 80.2351C35.4348 79.8702 33.0833 78.9782 31.0156 77.7214Z" fill="#008AD2"/>
<path d="M27.4884 61.3421H32.2725C32.313 59.761 32.3536 58.5447 32.5157 57.45C31.786 56.6797 31.0967 55.9499 30.448 55.2607C29.921 55.0985 29.3534 54.8958 28.8263 54.693C27.8533 57.0851 27.5695 59.1934 27.4884 61.3421Z" fill="#008AD2"/>
<path d="M54.7739 61.3421C54.6523 59.1122 54.3685 56.9228 53.3955 54.4092C54.6523 53.8821 55.7875 53.3145 57.0444 52.5847C58.5445 55.1795 59.3959 58.1391 59.477 61.3421H54.7739Z" fill="#008AD2"/>
<path d="M40.3811 56.9229H40.1378C40.1784 56.9634 40.2189 57.0141 40.2594 57.0648C40.3 57.1155 40.3406 57.1662 40.3811 57.2067V56.9229Z" fill="#008AD2"/>
<path d="M36.1646 48.9358C37.7863 49.3007 38.881 49.4223 40.3811 49.4223H40.4216V56.2336C40.0973 56.1931 39.773 56.1931 39.4487 56.1931C37.827 54.5308 36.2862 52.9091 34.9483 51.49C35.2726 50.5981 35.6781 49.7872 36.1646 48.9358Z" fill="#008AD2"/>
<path d="M29.1101 54.0036C29.1304 54.0036 29.1506 54.0138 29.1709 54.0239C29.1912 54.0341 29.2115 54.0442 29.2317 54.0442L29.1101 53.9226V54.0036Z" fill="#008AD2"/>
<path d="M28.3397 53.6793C27.164 53.1928 25.9882 52.6252 24.8125 51.9359L25.7855 50.4764C26.0112 50.7194 26.3186 51.0368 26.6919 51.4221L26.6926 51.4229L26.6935 51.4238C27.1918 51.9381 27.8071 52.5733 28.5019 53.3144C28.4816 53.3752 28.4512 53.436 28.4208 53.4969C28.3904 53.5577 28.36 53.6185 28.3397 53.6793Z" fill="#008AD2"/>
<path d="M52.3819 69.5723C52.2603 69.5318 52.1387 69.4913 52.017 69.4102L52.3414 69.7345C52.3414 69.7177 52.3484 69.7009 52.3565 69.6813C52.368 69.6534 52.3819 69.6199 52.3819 69.5723Z" fill="#008AD2"/>
<path d="M30.9682 47.3116C30.622 46.9536 30.3329 46.6545 30.1237 46.4221C30.2048 46.3815 30.2858 46.3004 30.3264 46.2193C31.0967 46.7869 31.7454 47.1924 32.3941 47.5573C32.2928 47.6586 32.2015 47.7701 32.1103 47.8816C32.0192 47.993 31.9278 48.1046 31.8265 48.206C31.5157 47.8779 31.227 47.5793 30.9698 47.3132L30.9682 47.3116Z" fill="#008AD2"/>
<path d="M54.0037 62.2339H49.2196C49.179 63.8962 49.0979 65.1125 48.9763 66.2477C49.2954 66.5867 49.6144 66.9159 49.9287 67.2402L49.9294 67.2409C50.2538 67.5756 50.573 67.905 50.8818 68.2343L50.8828 68.2347L50.8848 68.2355C51.4917 68.4377 52.0993 68.6402 52.7063 68.883C53.6388 66.491 53.882 64.3827 54.0037 62.2339Z" fill="#008AD2"/>
<path d="M40.2678 65.6032L40.3811 65.7207H40.4216V66.6531C37.4214 66.6937 35.7591 66.8153 33.4887 67.3829C33.2049 65.9234 33.0427 64.4233 33.0022 62.2339H37.0565C38.1135 63.3692 39.2082 64.5044 40.2678 65.6032Z" fill="#008AD2"/>
<path d="M32.7184 67.5856C32.3941 66.045 32.2724 64.5449 32.2319 62.2339H27.4478C27.5694 64.3827 27.8532 66.4504 28.7452 68.883C30.0831 68.356 31.421 67.9505 32.7184 67.5856Z" fill="#008AD2"/>
<path d="M26.718 61.3421H22.015C22.0556 58.1391 22.9475 55.1389 24.4071 52.5847C25.6639 53.3145 26.7991 53.8821 28.056 54.4092C27.1235 56.9228 26.8397 59.1527 26.718 61.3421Z" fill="#008AD2"/>
<path d="M41.1108 43.3813V48.6925C42.4082 48.6925 43.5029 48.5709 44.9219 48.2465C43.9489 46.6653 42.8137 45.1652 41.4757 43.6651C41.273 43.4624 41.1108 43.3813 41.1108 43.3813Z" fill="#008AD2"/>
<path d="M54.7739 62.2339H59.477C59.3959 65.4369 58.5445 68.3965 57.0444 70.9913C55.7875 70.2615 54.6523 69.6939 53.3955 69.1668C54.3685 66.6532 54.6523 64.4233 54.7739 62.2339Z" fill="#008AD2"/>
<path d="M40.3811 43.3813C40.3811 43.3813 40.2189 43.4624 40.0162 43.6651C38.7188 45.1652 37.5431 46.6653 36.57 48.2465C37.989 48.5709 39.0432 48.6925 40.3811 48.6925V43.3813Z" fill="#008AD2"/>
<path d="M42.4488 43.7869C42.1245 43.422 41.7596 43.1382 41.7596 43.1382C41.7596 43.1382 42.3272 43.3004 42.8542 43.5436C44.5165 44.5167 46.3004 45.733 47.8816 47.3142C47.2735 47.5574 46.7059 47.7601 45.9355 47.9629C45.8544 48.0034 45.7328 48.0439 45.6517 48.0439V48.0845C44.7598 46.5844 43.6651 45.1654 42.4488 43.7869Z" fill="#008AD2"/>
<path d="M41.1108 56.1928C43.9894 56.1523 45.6111 55.9901 47.841 55.4225C47.5978 54.4495 47.314 53.4764 46.868 52.2601C46.4626 51.0844 45.9355 49.9492 45.3273 48.895C43.7056 49.2599 42.6109 49.3816 41.1108 49.3816V56.1928Z" fill="#008AD2"/>
<path d="M35.597 48.0032C34.8267 47.8005 34.2185 47.5978 33.6509 47.3546C35.2321 45.8139 36.9755 44.5571 38.7188 43.6246C39.2054 43.3408 39.773 43.1786 39.773 43.1786C39.773 43.1786 39.4081 43.4624 39.0837 43.8273C37.8674 45.2058 36.7728 46.6248 35.8808 48.1249V48.0843C35.8484 48.0735 35.8189 48.0627 35.7914 48.0527C35.7162 48.0251 35.6563 48.0032 35.597 48.0032Z" fill="#008AD2"/>
<path d="M32.9617 47.0304C34.5429 45.4897 36.2457 44.2734 37.908 43.3409C35.4348 43.7058 33.0833 44.5978 31.0156 45.8546C31.7048 46.3411 32.2724 46.706 32.9617 47.0304Z" fill="#008AD2"/>
<path d="M35.3538 74.8429C34.5023 75.0862 33.7726 75.37 33.0833 75.6538C31.9076 74.3969 30.8535 72.9779 30.002 71.3562C29.6372 70.748 29.3534 70.1804 29.1101 69.5723C30.3669 69.0857 31.6238 68.6803 32.9212 68.3154C33.1644 69.2885 33.4888 70.2615 33.8942 71.4373C34.2996 72.6535 34.8267 73.7482 35.4754 74.8429H35.3538Z" fill="#008AD2"/>
<path d="M48.4086 47.9222C47.7194 48.206 46.9896 48.4898 46.0977 48.7331H45.976C46.6247 49.8278 47.1518 50.9224 47.5572 52.1387C47.9627 53.3145 48.287 54.2875 48.5303 55.2606C49.8277 54.8957 51.0845 54.4902 52.3819 54.0037C52.1386 53.3956 51.8548 52.828 51.4899 52.2198C50.6385 50.5575 49.5844 49.1791 48.4086 47.9222Z" fill="#008AD2"/>
<path d="M49.2195 61.3421C49.179 58.9906 49.0573 57.5311 48.733 55.9904C50.0709 55.6255 51.3683 55.2201 52.6657 54.693C53.6387 57.1256 53.882 59.1934 54.0036 61.3421H49.2195Z" fill="#008AD2"/>
<path d="M30.3669 77.3162C31.0967 76.7891 31.7454 76.3431 32.4346 75.9783C31.2183 74.7214 30.1642 73.3024 29.2723 71.6401C28.948 71.0321 28.6642 70.4646 28.3805 69.8971C27.2047 70.3836 26.0288 70.9509 24.8531 71.6401C26.2315 73.9106 28.0965 75.8161 30.3669 77.3162Z" fill="#008AD2"/>
<path d="M48.4898 47.0304C46.9491 45.4897 45.2463 44.2734 43.584 43.3409C46.0977 43.7058 48.4087 44.5978 50.4358 45.8546C49.7466 46.3411 49.179 46.706 48.4898 47.0304Z" fill="#008AD2"/>
<path d="M28.0965 69.1668C27.1235 66.6532 26.8397 64.4638 26.7586 62.2339H22.015C22.0556 65.4369 22.907 68.3965 24.4071 70.9913C25.6639 70.2615 26.8397 69.6939 28.0965 69.1668Z" fill="#008AD2"/>
<path d="M49.0574 47.5976C49.7466 47.2328 50.3953 46.7868 51.1251 46.2597C53.3549 47.7193 55.2605 49.6654 56.639 51.9358C55.4227 52.625 54.2874 53.1926 53.0711 53.6791C52.8279 53.1115 52.5441 52.5439 52.2197 51.9358C51.3278 50.2735 50.2331 48.8545 49.0574 47.5976Z" fill="#008AD2"/>
<path d="M36.6105 87.7357H44.8408C45.2463 87.7357 45.6111 87.3708 45.6111 86.8843V86.0735C45.6111 85.5869 45.2868 85.2221 44.8408 85.2221H36.6105C36.2051 85.2221 35.8402 85.5869 35.8402 86.0735V86.8843C35.8808 87.3708 36.2051 87.7357 36.6105 87.7357Z" fill="#008AD2"/>
<path d="M37.5836 83.3974V82.546C37.5836 82.0595 38.0296 81.6541 38.5972 81.6135H42.8542C43.4218 81.6135 43.8678 82.0595 43.8678 82.546V83.3974C43.8678 83.9245 43.4218 84.3299 42.8542 84.3299H38.5972C38.0296 84.3299 37.5836 83.884 37.5836 83.3974Z" fill="#008AD2"/>
<path d="M37.2593 84.5328H37.3404C37.0971 84.249 36.9349 83.8841 36.9349 83.5192V82.5057C36.9349 82.1002 37.0971 81.7353 37.3809 81.4515C37.6647 81.1677 38.0296 81.0056 38.435 81.0056H38.5161C29.6777 79.992 22.6637 73.0591 21.569 64.2612V64.1395H0.0810869C0.0405436 64.1395 0 64.1395 0 64.1801C0 64.1973 0 64.2072 0.00311214 64.216C0.00729361 64.2279 0.0170933 64.2377 0.0400598 64.2607L0.0810869 64.2612C9.32495 66.5316 17.1904 69.8561 23.6773 73.7483C29.1101 77.0323 33.6509 80.7623 37.2593 84.5328Z" fill="#008AD2"/>
<path fill-rule="evenodd" clip-rule="evenodd" d="M36.0835 84.5733C35.8808 84.6544 35.7186 84.776 35.5565 84.9787C35.3132 85.222 35.1916 85.6274 35.1916 86.0328V87.168C30.2453 86.0734 25.8261 83.6002 22.3799 80.1541C19.7851 77.5593 17.7174 74.4375 16.42 70.9507C18.731 72.0454 20.9609 73.2212 23.1097 74.478C28.0965 77.4377 32.4346 80.8433 36.0835 84.5733ZM22.7853 77.0728L23.7178 77.762L23.3529 76.6268L24.2854 75.9781H23.1502L22.7853 74.8834L22.4204 75.9781H21.2852L22.2177 76.6673L21.8528 77.762L22.7853 77.0728ZM27.0829 81.0866L28.0154 81.7758L27.6505 80.6406L28.583 79.9919H27.4478L27.0829 78.8972L26.718 79.9919H25.5828L26.5153 80.6811L26.1504 81.7758L27.0829 81.0866ZM31.8265 84.0868L32.759 84.776L32.3941 83.6408L33.3266 82.9921H32.1914L31.8265 81.8974L31.4616 82.9921H30.3264L31.2589 83.6813L30.894 84.776L31.8265 84.0868Z" fill="#008AD2"/>
<path d="M14.7983 70.1804C12.2441 69.0452 9.56822 68.0316 6.81128 67.0991C6.56802 68.3154 6.60856 69.6128 6.93291 70.9102C7.41943 72.8157 8.55464 74.3564 9.97365 75.451C10.744 73.1401 12.4468 71.194 14.7983 70.1804Z" fill="#008AD2"/>
<path fill-rule="evenodd" clip-rule="evenodd" d="M59.0715 80.1542C55.6254 83.6004 51.2061 86.1141 46.2599 87.1682C46.3004 87.0871 46.3004 87.0466 46.2599 87.0466V86.0735C46.2599 85.6276 46.0977 85.2627 45.895 84.9789C45.6923 84.6951 45.4085 84.5329 45.0841 84.5329H44.2732C49.7871 78.7352 57.0444 73.7484 65.3963 69.8968C64.0989 73.7889 61.9096 77.3162 59.0715 80.1542ZM58.6661 74.9241L58.3012 76.0188L57.166 76.0593L58.0985 76.708L57.7336 77.8027L58.6661 77.1135L59.5986 77.8027L59.2337 76.708L60.1662 76.0188H59.031L58.6661 74.9241ZM54.3685 78.8974L54.0036 79.992L52.8279 80.0326L53.7604 80.6813L53.3955 81.7759L54.328 81.0867L55.2605 81.7759L54.8956 80.6813L55.8686 79.992H54.7334L54.3685 78.8974ZM49.625 81.8976L49.2601 82.9922L48.1249 83.0328L49.0573 83.6815L48.6925 84.7762L49.625 84.0869L50.5574 84.7762L50.1926 83.6815L51.125 82.9922H49.9898L49.625 81.8976Z" fill="#008AD2"/>
<path d="M67.3018 57.2064C67.3756 57.5384 67.4158 57.9039 67.453 58.242L67.464 58.3416C69.6534 59.5579 71.9643 60.5715 74.478 61.3824C74.1537 59.0714 71.0724 57.2064 67.3018 57.2064Z" fill="#008AD2"/>
<path fill-rule="evenodd" clip-rule="evenodd" d="M52.9901 44.0706C51.7332 42.0029 50.6386 39.773 49.5844 37.381C53.1928 38.6784 56.4363 40.7461 59.1121 43.4219C62.9232 47.233 65.5585 52.1793 66.4099 57.7337C60.9366 54.4497 56.5174 49.9494 52.9901 44.0706ZM54.5713 43.8274L55.5038 44.5166L55.1389 43.4219L56.0714 42.7327H54.9362L54.5713 41.638L54.2064 42.7327H53.0712L54.0037 43.4219L53.6388 44.5166L54.5713 43.8274ZM61.8691 51.6117L61.5042 50.517L61.1393 51.6117H60.0041L60.9366 52.3009L60.5717 53.3956L61.5042 52.7063L62.4367 53.3956L62.0718 52.3009L63.0043 51.6117H61.8691ZM59.477 48.4898L59.1121 47.3952L60.0446 46.7059H58.9094L58.5445 45.6113L58.1796 46.7059H57.0444L57.9769 47.3952L57.612 48.4898L58.5445 47.8006L59.477 48.4898Z" fill="#008AD2"/>
<path d="M49.2196 36.2052C50.1521 33.7726 52.0576 31.9887 54.4091 31.1778C53.2739 29.6777 51.6522 28.5019 49.7061 27.9749C48.5303 27.6505 47.3546 27.61 46.2599 27.7722C47.1113 30.8129 48.0438 33.5698 49.0979 36.1646C49.1182 36.1646 49.1385 36.1747 49.1588 36.1849C49.179 36.195 49.1993 36.2052 49.2196 36.2052Z" fill="#008AD2"/>
<path fill-rule="evenodd" clip-rule="evenodd" d="M94.5874 52.0169C93.209 52.0169 92.2765 52.098 91.5872 52.2197H91.6278V61.8284H93.8171V58.3417C94.0198 58.3822 94.3036 58.3822 94.5874 58.3822C95.8848 58.3822 96.9795 58.0984 97.7498 57.3687C98.3174 56.8416 98.6418 56.0307 98.6418 55.0577C98.6418 54.0847 98.1958 53.2738 97.5876 52.7873C96.9389 52.2602 95.9659 52.0169 94.5874 52.0169ZM94.5063 56.72C94.182 56.72 93.9793 56.72 93.7766 56.6794H93.736V53.8008C93.8982 53.7603 94.2225 53.7198 94.6685 53.7198C95.8037 53.7198 96.4119 54.2468 96.4119 55.1388C96.4119 56.1118 95.682 56.72 94.5063 56.72Z" fill="#008AD2"/>
<path fill-rule="evenodd" clip-rule="evenodd" d="M108.98 56.8821C108.98 60.085 107.034 62.0311 104.196 62.0311C101.277 62.0311 99.6148 59.8417 99.6148 57.0442C99.6148 54.1251 101.48 51.9358 104.358 51.9358C107.318 51.9358 108.98 54.2062 108.98 56.8821ZM101.885 57.0037C101.885 58.9092 102.777 60.2877 104.277 60.2877C105.777 60.2877 106.629 58.8687 106.629 56.9631C106.629 55.2198 105.777 53.6791 104.277 53.6791C102.777 53.6791 101.885 55.1387 101.885 57.0037Z" fill="#008AD2"/>
<path d="M112.629 52.0981H110.399V61.869H116.521V60.0041H112.629V52.0981Z" fill="#008AD2"/>
<path d="M120.049 52.098V61.869H117.819V52.098H120.049Z" fill="#008AD2"/>
<path d="M121.427 49.7871L119.643 51.571H117.859L119.076 49.7871H121.427Z" fill="#008AD2"/>
<path d="M126.617 62.0311C127.792 62.0311 128.725 61.8283 129.13 61.6256L128.765 59.8823C128.36 60.0444 127.59 60.2066 126.941 60.2066C124.995 60.2066 123.819 58.9498 123.819 57.0037C123.819 54.8144 125.198 53.7602 126.941 53.7602C127.752 53.7602 128.36 53.9224 128.806 54.1251L129.252 52.3818C128.887 52.179 127.995 51.9358 126.86 51.9358C123.9 51.9358 121.508 53.8008 121.508 57.1253C121.508 59.9228 123.252 62.0311 126.617 62.0311Z" fill="#008AD2"/>
<path d="M132.82 52.0981V61.869H130.59V52.0981H132.82Z" fill="#008AD2"/>
<path fill-rule="evenodd" clip-rule="evenodd" d="M136.307 61.869L136.996 59.3554H139.793L140.564 61.869H142.956L139.915 52.0981H136.996L133.996 61.869H136.307ZM138.901 55.6659L139.509 57.7336H137.361L137.928 55.6659C138.009 55.3821 138.08 55.0476 138.151 54.7132C138.222 54.3787 138.293 54.0442 138.374 53.7604H138.415C138.536 54.3685 138.739 55.0983 138.901 55.6659Z" fill="#008AD2"/>
<path d="M155.443 58.1389C155.402 56.9631 155.362 55.5441 155.362 54.1251H155.321C154.997 55.382 154.591 56.7604 154.227 57.8956L153.051 61.7067H151.307L150.253 57.9362C149.929 56.801 149.605 55.382 149.361 54.1251C149.339 54.8521 149.305 55.627 149.272 56.3782C149.245 57.0095 149.218 57.6241 149.199 58.1794L149.037 61.9094H147.01L147.618 52.1385H150.578L151.551 55.4225C151.875 56.5577 152.159 57.774 152.362 58.9092H152.402L152.402 58.908L152.403 58.9052C152.687 57.7709 153.011 56.4753 153.335 55.382L154.389 52.1385H157.267L157.794 61.9094H155.646L155.443 58.1389Z" fill="#008AD2"/>
<path d="M161.687 61.869V52.0981H159.457V61.869H161.687Z" fill="#008AD2"/>
<path d="M163.592 52.0981H165.822V60.0041H169.714V61.869H163.592V52.0981Z" fill="#008AD2"/>
<path d="M173.241 61.869V52.0981H171.011V61.869H173.241Z" fill="#008AD2"/>
<path d="M177.012 53.9631H174.417V52.0981H181.918V53.9631H179.242V61.869H177.012V53.9631Z" fill="#008AD2"/>
<path fill-rule="evenodd" clip-rule="evenodd" d="M184.675 61.869L185.364 59.3554H188.161L188.932 61.869H191.324L188.283 52.0981H185.364L182.364 61.869H184.675ZM187.269 55.6659L187.877 57.7336H185.729L186.296 55.6659C186.377 55.3823 186.448 55.0481 186.519 54.7139C186.59 54.3794 186.661 54.0442 186.742 53.7604H186.783C186.904 54.3685 187.107 55.0983 187.269 55.6659Z" fill="#008AD2"/>
<path fill-rule="evenodd" clip-rule="evenodd" d="M192.621 52.2197C193.351 52.098 194.405 52.0169 195.581 52.0169C197.04 52.0169 198.054 52.2197 198.743 52.7873C199.311 53.2332 199.635 53.9225 199.635 54.8144C199.635 56.0713 198.743 56.9227 197.892 57.2065V57.247C198.581 57.5308 198.946 58.1795 199.189 59.0715C199.306 59.4678 199.419 59.8907 199.523 60.2863C199.708 60.9833 199.871 61.5956 200 61.8284H197.729C197.567 61.5446 197.324 60.7743 197.04 59.558C196.797 58.3417 196.351 58.0173 195.459 57.9768H194.81V61.8284H192.621V52.2197ZM195.662 56.4362C196.756 56.4362 197.405 55.8686 197.405 55.0171C197.405 54.1252 196.797 53.6792 195.783 53.6387C195.256 53.6387 194.932 53.6792 194.77 53.7198V56.4362H195.662Z" fill="#008AD2"/>
<path fill-rule="evenodd" clip-rule="evenodd" d="M98.6012 66.6937C97.8309 66.6937 97.1417 66.7748 96.5741 66.8559H96.6146V74.1131C97.1011 74.1537 97.6687 74.1942 98.358 74.1942C99.777 74.1942 100.912 73.8293 101.601 73.1401C102.291 72.4508 102.656 71.4778 102.656 70.2615C102.656 69.0857 102.25 68.2343 101.601 67.6262C100.953 67.018 99.9797 66.6937 98.6012 66.6937ZM98.5202 73.4239C98.1553 73.4239 97.7904 73.4239 97.5471 73.3833H97.5066V67.5451C97.7904 67.5046 98.1553 67.464 98.6418 67.464C100.669 67.464 101.642 68.5587 101.642 70.302C101.642 72.2887 100.547 73.4239 98.5202 73.4239Z" fill="#008AD2"/>
<path d="M105.696 66.7749V74.1537H104.764V66.7749H105.696Z" fill="#008AD2"/>
<path d="M109.791 73.4646C109.143 73.4646 108.534 73.2213 108.088 72.9781L107.845 73.7078C108.21 73.9916 108.98 74.1944 109.71 74.1944C111.453 74.1944 112.305 73.2213 112.305 72.0861C112.305 71.032 111.697 70.4238 110.44 69.9373C109.426 69.5319 108.98 69.2075 108.98 68.5183C108.98 68.0318 109.345 67.4236 110.359 67.4236C111.048 67.4236 111.535 67.6669 111.778 67.7885L112.021 67.0182C111.697 66.8155 111.17 66.6533 110.399 66.6533C108.94 66.6533 108.007 67.5047 108.007 68.6399C108.007 69.6941 108.737 70.3022 109.953 70.7482C110.926 71.1131 111.332 71.5185 111.332 72.2077C111.332 72.9375 110.764 73.4646 109.791 73.4646Z" fill="#008AD2"/>
<path d="M115.913 67.5857H113.683V66.7749H119.157V67.5857H116.886V74.1537H115.913V67.5857Z" fill="#008AD2"/>
<path fill-rule="evenodd" clip-rule="evenodd" d="M122.643 66.6937C121.995 66.6937 121.305 66.7748 120.819 66.8559H120.86V74.1942H121.792V70.9913H122.684C123.535 70.9913 123.941 71.3967 124.144 72.4103C124.346 73.3023 124.508 73.9509 124.63 74.1537H125.644C125.5 73.9016 125.356 73.2979 125.155 72.456C125.129 72.3499 125.103 72.2399 125.076 72.1265C124.873 71.3562 124.549 70.8291 123.981 70.6264V70.5859C124.752 70.3426 125.36 69.6939 125.36 68.7209C125.36 68.1533 125.157 67.6262 124.792 67.3018C124.306 66.8964 123.657 66.6937 122.643 66.6937ZM122.765 70.221H121.792V67.5046C121.954 67.464 122.279 67.4235 122.724 67.4235C123.738 67.4235 124.427 67.8694 124.427 68.8019C124.427 69.6534 123.779 70.221 122.765 70.221Z" fill="#008AD2"/>
<path d="M128.522 66.7749V74.1537H127.59V66.7749H128.522Z" fill="#008AD2"/>
<path d="M130.266 67.5857H132.495V74.1537H133.468V67.5857H135.739V66.7749H130.266V67.5857Z" fill="#008AD2"/>
<path fill-rule="evenodd" clip-rule="evenodd" d="M143.685 70.3833C143.685 72.9375 142.145 74.2754 140.28 74.2754C138.334 74.2754 136.955 72.7753 136.955 70.5455C136.955 68.194 138.415 66.6533 140.361 66.6533C142.388 66.6533 143.685 68.194 143.685 70.3833ZM137.969 70.5049C137.969 72.0861 138.82 73.5051 140.32 73.5051C141.82 73.5051 142.672 72.1267 142.672 70.4238C142.672 68.9643 141.902 67.4236 140.32 67.4236C138.78 67.4236 137.969 68.8832 137.969 70.5049Z" fill="#008AD2"/>
<path d="M152.97 66.7749H148.997V74.1132H149.929V70.7887H152.727V70.0183H149.929V67.5857H152.97V66.7749Z" fill="#008AD2"/>
<path d="M159.051 70.667H156.173V73.3429H159.376V74.1537H155.24V66.7749H159.213V67.5857H156.173V69.8967H159.051V70.667Z" fill="#008AD2"/>
<path fill-rule="evenodd" clip-rule="evenodd" d="M163.511 66.6937C162.741 66.6937 162.051 66.7748 161.484 66.8559H161.524V74.1131C162.011 74.1537 162.579 74.1942 163.268 74.1942C164.687 74.1942 165.822 73.8293 166.511 73.1401C167.201 72.4508 167.565 71.4778 167.565 70.2615C167.565 69.0857 167.16 68.2343 166.511 67.6262C165.863 67.018 164.89 66.6937 163.511 66.6937ZM163.389 73.4239C163.025 73.4239 162.66 73.4239 162.416 73.3833H162.376V67.5451C162.66 67.5046 163.025 67.464 163.511 67.464C165.538 67.464 166.511 68.5587 166.511 70.302C166.511 72.2887 165.417 73.4239 163.389 73.4239Z" fill="#008AD2"/>
<path d="M173.444 70.667H170.566V73.3429H173.768V74.1537H169.633V66.7749H173.606V67.5857H170.566V69.8967H173.444V70.667Z" fill="#008AD2"/>
<path fill-rule="evenodd" clip-rule="evenodd" d="M177.742 66.6937C177.093 66.6937 176.404 66.7748 175.917 66.8559H175.998V74.1942H176.931V70.9913H177.823C178.674 70.9913 179.08 71.3967 179.282 72.4103C179.485 73.3023 179.647 73.9509 179.769 74.1537H180.742C180.598 73.9016 180.454 73.2977 180.253 72.4556L180.253 72.4544C180.227 72.3488 180.201 72.2394 180.174 72.1265C179.972 71.3562 179.647 70.8291 179.08 70.6264V70.5859C179.85 70.3426 180.458 69.6939 180.458 68.7209C180.458 68.1533 180.255 67.6262 179.89 67.3018C179.404 66.8964 178.755 66.6937 177.742 66.6937ZM177.823 70.221H176.85V67.5046C177.012 67.464 177.336 67.4235 177.782 67.4235C178.796 67.4235 179.485 67.8694 179.485 68.8019C179.485 69.6534 178.836 70.221 177.823 70.221Z" fill="#008AD2"/>
<path fill-rule="evenodd" clip-rule="evenodd" d="M183.864 71.8024L183.093 74.1133H182.12L184.634 66.7345H185.769L188.283 74.1133H187.269L186.499 71.8024H183.864ZM186.296 71.0726L185.567 68.9644C185.404 68.4778 185.283 68.0319 185.202 67.6264H185.161L184.796 68.9644L184.066 71.1131H186.296V71.0726Z" fill="#008AD2"/>
<path d="M191.162 66.7749H190.229V74.1537H194.324V73.3429H191.162V66.7749Z" fill="#008AD2"/>
</svg>
