<svg width="160" height="24" viewBox="0 0 160 24" fill="none" xmlns="http://www.w3.org/2000/svg">
<path d="M10.7471 8.14912C10.605 8.24046 10.5035 8.37239 10.4832 8.48402C10.6253 8.46372 10.7572 8.38253 10.879 8.24046L11.0008 8.10853V9.33648L10.879 9.20455C10.7674 9.08277 10.6355 9.00158 10.4832 8.98129C10.5238 9.11322 10.605 9.2147 10.7369 9.30603L10.9399 9.42781H10.6355C10.7065 9.45826 10.7674 9.4887 10.8283 9.5293C11.011 9.65108 11.1023 9.8236 11.1023 9.99612C11.1023 10.1788 11.0008 10.3412 10.8283 10.4629C10.7065 10.5441 10.5441 10.605 10.3716 10.6355H10.3919C10.4325 10.6355 10.4731 10.638 10.5137 10.6405C10.5543 10.6431 10.5949 10.6456 10.6355 10.6456H10.6558L10.8993 10.6761H10.9095C10.9907 10.6862 11.0718 10.6964 11.1429 10.7167H11.153C11.1936 10.7268 11.2316 10.7344 11.2697 10.742L11.2707 10.7423C11.3081 10.7497 11.3465 10.7574 11.3864 10.7674H11.3966C11.4778 10.7877 11.5488 10.808 11.6199 10.8283C11.63 10.8283 11.63 10.8283 11.6401 10.8384C11.6756 10.8486 11.7137 10.8613 11.7517 10.8739C11.7898 10.8866 11.8279 10.8993 11.8634 10.9095C11.8685 10.9095 11.871 10.912 11.8736 10.9145C11.8761 10.9171 11.8786 10.9196 11.8837 10.9196C11.9192 10.9348 11.9547 10.9475 11.9902 10.9602C12.0257 10.9729 12.0613 10.9856 12.0968 11.0008C12.1019 11.0008 12.107 11.0033 12.112 11.0059C12.1171 11.0084 12.1222 11.011 12.1273 11.011C12.1983 11.0414 12.2592 11.0718 12.3201 11.1023C12.3252 11.1074 12.3302 11.1099 12.3353 11.1124C12.3404 11.115 12.3455 11.1175 12.3505 11.1226L12.5332 11.2139C12.5434 11.2241 12.5636 11.2342 12.5738 11.2342C12.6347 11.2647 12.6854 11.2951 12.7463 11.3357C12.7565 11.3408 12.7641 11.3458 12.7717 11.3509C12.7793 11.356 12.7869 11.3611 12.7971 11.3661C12.8476 11.3964 12.8988 11.4272 12.9493 11.4676C12.9594 11.4727 12.9696 11.4803 12.9797 11.4879C12.9899 11.4955 13 11.5032 13.0102 11.5082C13.0609 11.5387 13.1015 11.5691 13.1421 11.6097C13.1523 11.6199 13.1649 11.63 13.1776 11.6402C13.1903 11.6503 13.203 11.6604 13.2131 11.6706L13.3349 11.7619C13.3654 11.7822 13.3958 11.8127 13.4161 11.833C13.4466 11.8634 13.477 11.8939 13.5176 11.9243L13.6901 12.0968C13.751 12.1577 13.8017 12.2186 13.8525 12.2795C13.5683 11.9142 13.3045 11.5285 13.0609 11.1226C12.7159 10.5441 12.4013 9.92508 12.1171 9.235C11.153 6.90088 10.534 3.91726 10.2092 0.0202968C10.2092 0.0101484 10.1991 0 10.1889 0C10.1788 0 10.1686 0.0101484 10.1686 0.0202968V8.00705H10.9196L10.7471 8.14912Z" fill="#008AD2"/>
<path d="M8.12883 9.04215C8.21002 9.0117 8.2912 8.99141 8.38254 8.97111C8.6261 8.35206 8.83921 7.70257 9.03203 7.01248C8.67684 6.92114 8.2912 6.911 7.91572 7.01248C7.43874 7.13426 7.05311 7.41841 6.7791 7.7736C7.37785 7.96642 7.88527 8.4231 8.12883 9.04215Z" fill="#008AD2"/>
<path d="M14.7151 10.463C14.7557 10.5036 14.7963 10.5416 14.8369 10.5797C14.8774 10.6177 14.9181 10.6558 14.9587 10.6964C15.05 10.7877 15.1413 10.8891 15.2326 10.9906C15.7299 10.5745 16.3794 10.4325 16.9883 10.5442C16.9376 10.0773 16.7346 9.62065 16.3693 9.25531C16.0242 8.91027 15.5879 8.7073 15.1413 8.64641C15.2834 9.27561 15.1413 9.9454 14.7151 10.463Z" fill="#008AD2"/>
<path d="M16.6128 13.3958C16.6839 13.6293 16.7549 13.8627 16.8057 14.1062C17.445 14.0047 18.0742 14.1976 18.541 14.6035C18.7338 14.1671 18.7846 13.6698 18.6527 13.1827C18.5309 12.7057 18.2467 12.3201 17.8915 12.0461C17.6987 12.6449 17.242 13.1523 16.6128 13.3958Z" fill="#008AD2"/>
<path d="M16.6737 17.3537C16.6534 17.4349 16.6332 17.5059 16.6027 17.5871C17.2116 17.8205 17.6581 18.2975 17.8611 18.8861C18.2366 18.6019 18.5309 18.196 18.6628 17.7089C18.7643 17.3334 18.7542 16.9477 18.6628 16.5925C17.9727 16.8158 17.3131 17.0797 16.6737 17.3537Z" fill="#008AD2"/>
<path d="M14.9688 20.2257C15.0094 20.1851 15.0475 20.1445 15.0855 20.1039C15.1236 20.0633 15.1616 20.0227 15.2022 19.9821C15.7198 20.4084 16.3896 20.5504 17.0289 20.4084C16.968 20.8549 16.7651 21.2913 16.42 21.6363C16.0547 22.0017 15.598 22.2046 15.1312 22.2554C15.2428 21.6465 15.1007 20.997 14.6847 20.4997C14.7303 20.454 14.7785 20.4084 14.8267 20.3627C14.8749 20.3171 14.9232 20.2713 14.9688 20.2257Z" fill="#008AD2"/>
<path d="M5.19596 10.94C5.23655 10.8994 5.27461 10.8588 5.31267 10.8182C5.3507 10.7776 5.3888 10.737 5.42937 10.6964C5.52069 10.6051 5.62216 10.5138 5.72363 10.4224C5.30754 9.92516 5.16551 9.27563 5.27714 8.66673C4.81032 8.71747 4.35365 8.92044 3.98831 9.28578C3.64326 9.63082 3.44029 10.0672 3.3794 10.5137C4.0086 10.3818 4.67839 10.5239 5.19596 10.94Z" fill="#008AD2"/>
<path d="M3.79547 13.3451C3.18657 13.1117 2.74005 12.6347 2.53708 12.0461C2.15144 12.3303 1.86729 12.7362 1.73536 13.2233C1.61358 13.7003 1.65417 14.1671 1.82669 14.5933C2.29352 14.157 2.94301 13.9438 3.60266 14.0555C3.6534 13.8119 3.72444 13.5785 3.79547 13.3451Z" fill="#008AD2"/>
<path d="M5.67293 20.4692C5.63233 20.4286 5.59174 20.3905 5.55115 20.3525C5.51055 20.3144 5.46996 20.2764 5.42937 20.2358C5.3837 20.1901 5.33803 20.1419 5.29236 20.0937C5.2467 20.0455 5.20103 19.9973 5.15536 19.9516C4.65809 20.3677 4.0086 20.5098 3.3997 20.3981C3.45044 20.865 3.6534 21.3216 4.01875 21.687C4.36379 22.032 4.80017 22.235 5.2467 22.2959C5.11477 21.6565 5.25684 20.9867 5.67293 20.4692Z" fill="#008AD2"/>
<path d="M8.78847 22.0625C8.54491 22.0118 8.3115 21.9407 8.07809 21.8697C7.84468 22.4786 7.36771 22.9251 6.7791 23.1281C7.06325 23.5137 7.46919 23.7979 7.95631 23.9298C8.43328 24.0516 8.9001 24.011 9.32634 23.8385C8.88996 23.3716 8.67684 22.7221 8.78847 22.0625Z" fill="#008AD2"/>
<path d="M12.2694 21.8798C12.0359 21.9508 11.8025 22.0219 11.559 22.0726C11.6604 22.712 11.4676 23.3412 11.0617 23.808C11.4981 24.0008 11.9953 24.0515 12.4825 23.9196C12.9594 23.7978 13.3451 23.5137 13.6191 23.1585C13.0203 22.9657 12.5129 22.509 12.2694 21.8798Z" fill="#008AD2"/>
<path d="M10.1991 22.2046C9.8033 22.2046 9.42781 22.1741 9.05232 22.1031C9.05232 23.0976 9.56989 23.8993 10.1991 23.8993C10.8283 23.8993 11.3458 23.0976 11.3458 22.1031C10.9704 22.1741 10.5847 22.2046 10.1991 22.2046Z" fill="#008AD2"/>
<path d="M12.5332 21.7986C13.0305 22.6613 13.8829 23.0976 14.4208 22.783C14.9688 22.4684 15.0094 21.5145 14.5121 20.6519C13.9235 21.139 13.2537 21.5246 12.5332 21.7986Z" fill="#008AD2"/>
<path d="M15.3747 11.153C15.8619 11.7416 16.2577 12.4114 16.5215 13.1421C17.3841 12.6448 17.8205 11.7924 17.5059 11.2545C17.2014 10.6964 16.2475 10.6558 15.3747 11.153Z" fill="#008AD2"/>
<path d="M12.5332 9.13346C13.2639 9.39732 13.9337 9.79311 14.5223 10.2802C15.0196 9.41762 14.979 8.46367 14.4309 8.14908C13.8728 7.83448 13.0305 8.27086 12.5332 9.13346Z" fill="#008AD2"/>
<path d="M7.86496 9.13346C7.36769 8.27086 6.51523 7.83448 5.97737 8.14908C5.42936 8.46367 5.38876 9.41762 5.88603 10.2802C6.46449 9.79311 7.13428 9.40747 7.86496 9.13346Z" fill="#008AD2"/>
<path d="M3.86653 13.132C4.13039 12.4013 4.52618 11.7315 5.0133 11.1429C4.15069 10.6456 3.19674 10.6862 2.88214 11.2342C2.56754 11.7924 3.00392 12.6347 3.86653 13.132Z" fill="#008AD2"/>
<path d="M1.76074 15.532C1.76328 15.5548 1.76582 15.5777 1.76582 15.598C2.37472 15.395 2.95317 15.1514 3.48089 14.8673L3.48595 14.8216C3.50463 14.6527 3.52401 14.4775 3.55193 14.3193C2.55739 14.3193 1.75567 14.8368 1.75567 15.466C1.75567 15.4863 1.75821 15.5092 1.76074 15.532Z" fill="#008AD2"/>
<path d="M5.0133 19.7791C4.52618 19.1905 4.13039 18.5207 3.86653 17.79C3.00392 18.2873 2.56754 19.1398 2.88214 19.6776C3.19674 20.2358 4.15069 20.2764 5.0133 19.7791Z" fill="#008AD2"/>
<path d="M7.86497 21.7986C7.13429 21.5348 6.4645 21.139 5.8759 20.6519C5.37863 21.5145 5.41922 22.4684 5.96723 22.783C6.52539 23.0976 7.3677 22.6511 7.86497 21.7986Z" fill="#008AD2"/>
<path fill-rule="evenodd" clip-rule="evenodd" d="M9.4887 9.16398C9.63078 9.00161 9.8033 8.92042 9.99612 8.91027C9.97583 9.12338 9.86419 9.26546 9.70182 9.3568H10.7167C10.5441 9.24516 10.4426 9.10309 10.4122 8.90012C10.6253 8.91027 10.7978 8.99146 10.9399 9.15383V8.28107C10.7775 8.46374 10.605 8.55508 10.4122 8.55508C10.4021 8.3927 10.534 8.21003 10.7167 8.08825H9.70182C9.87434 8.19988 9.98597 8.34196 10.0164 8.56522C9.79315 8.53478 9.63078 8.45359 9.4887 8.30137V9.16398ZM9.81345 8.69715H10.1686V8.35211H10.26V8.69715H10.6355V8.78849H10.26V9.14368H10.1686V8.78849H9.81345V8.69715Z" fill="#008AD2"/>
<path fill-rule="evenodd" clip-rule="evenodd" d="M9.62064 10.3716C9.76272 10.4731 9.96569 10.534 10.189 10.534C10.4122 10.534 10.6152 10.4731 10.7573 10.3716C10.8993 10.2701 10.9805 10.1382 10.9805 9.99614C10.9805 9.85406 10.8892 9.72214 10.7573 9.62065C10.6152 9.51917 10.4122 9.45828 10.189 9.45828C9.96569 9.45828 9.76272 9.51917 9.62064 9.62065C9.47857 9.72214 9.39738 9.85406 9.39738 9.99614C9.39738 10.1382 9.48871 10.2701 9.62064 10.3716ZM9.61049 9.9657C9.61049 9.93525 9.63079 9.91496 9.66124 9.91496H10.7268C10.7573 9.91496 10.7776 9.93525 10.7776 9.9657V10.0164C10.7776 10.0469 10.7573 10.0672 10.7268 10.0672H9.66124C9.63079 10.0672 9.61049 10.0469 9.61049 10.0164V9.9657Z" fill="#008AD2"/>
<path d="M16.5317 17.8002C16.2678 18.5309 15.872 19.2007 15.3849 19.7893C16.2475 20.2866 17.2015 20.246 17.5161 19.698C17.8307 19.1398 17.3841 18.2975 16.5317 17.8002Z" fill="#008AD2"/>
<path d="M14.096 12.584C15.6589 14.4411 17.7494 15.5777 20.4388 16.0445C20.4591 16.0445 20.4591 16.0547 20.4591 16.0648C20.4591 16.075 20.4489 16.0851 20.4388 16.0851H15.0195V16.0445C15.05 15.8517 15.0601 15.6589 15.0601 15.4661C15.0601 14.3904 14.6948 13.3857 14.096 12.584Z" fill="#008AD2"/>
<path fill-rule="evenodd" clip-rule="evenodd" d="M6.28182 12.6144C5.56128 13.4669 4.71897 14.1773 3.74473 14.7354C3.9071 13.2335 4.58704 11.8837 5.60188 10.8689C6.33256 10.1281 7.24591 9.56991 8.26075 9.25531C7.97659 9.93525 7.66199 10.5644 7.31695 11.1429C7.08354 11.5488 6.82983 11.9142 6.55582 12.2694C6.46449 12.3912 6.37315 12.5028 6.28182 12.6144ZM6.73849 10.4325L6.64716 10.7065H6.363L6.59642 10.879L6.50508 11.1531L6.73849 10.9805L6.9719 11.1531L6.88057 10.879L7.11398 10.7065H6.82983L6.73849 10.4325ZM5.00313 13.1827L5.23654 13.3552L5.1452 13.0812L5.37861 12.9087H5.09446L5.00313 12.6347L4.91179 12.9087H4.62764L4.86105 13.0812L4.76971 13.3552L5.00313 13.1827ZM5.83529 11.7011L5.74395 11.4271L5.65262 11.7011H5.36847L5.60188 11.8736L5.51054 12.1476L5.74395 11.9751L5.97737 12.1476L5.88603 11.8736L6.11944 11.7011H5.83529Z" fill="#008AD2"/>
<path d="M12.6364 19.0897C12.7231 19.1793 12.7954 19.2542 12.8478 19.3123C12.8436 19.3165 12.8377 19.3208 12.8307 19.3257C12.8208 19.3326 12.809 19.341 12.7971 19.3529C12.6042 19.2109 12.4419 19.1094 12.2795 19.018C12.3049 18.9927 12.3277 18.9673 12.3505 18.9419C12.3734 18.9166 12.3962 18.8912 12.4216 18.8658C12.4991 18.9477 12.5712 19.0222 12.6354 19.0886L12.6364 19.0897Z" fill="#008AD2"/>
<path d="M12.1273 18.9368C11.9548 18.8556 11.7721 18.7947 11.5488 18.7338C11.5387 18.7338 11.5285 18.7237 11.5387 18.7237C11.6402 18.5512 11.7214 18.3786 11.8025 18.196C11.92 18.3265 12.0333 18.4444 12.1396 18.5551C12.1984 18.6163 12.2558 18.6761 12.31 18.7338C12.2493 18.8046 12.188 18.8761 12.1273 18.9368Z" fill="#008AD2"/>
<path d="M10.9196 20.0836C11.3357 19.8501 11.7619 19.5457 12.1476 19.1601C12.3201 19.2412 12.4622 19.3326 12.6448 19.4544C12.1273 19.769 11.5387 19.9922 10.9196 20.0836Z" fill="#008AD2"/>
<path d="M11.3458 18.6831C10.9399 18.5917 10.6659 18.5613 10.2904 18.5613V16.8564C10.3716 16.8665 10.4426 16.8665 10.5137 16.8665L10.6494 17.009C11.0053 17.3829 11.3441 17.7387 11.6503 18.0539C11.5691 18.267 11.4575 18.4801 11.3458 18.6831Z" fill="#008AD2"/>
<path d="M10.3107 16.6483C10.3183 16.656 10.3259 16.6636 10.331 16.6737H10.2904V16.623C10.2955 16.6331 10.3031 16.6407 10.3107 16.6483Z" fill="#008AD2"/>
<path d="M10.4528 20.1242C10.4528 20.1242 10.5441 20.0531 10.6253 19.9618C10.9298 19.6168 11.1936 19.2616 11.4169 18.8759V18.8861C11.4372 18.8962 11.4676 18.9064 11.4879 18.9064C11.6807 18.9571 11.833 19.0079 11.9751 19.0687C11.5691 19.4645 11.1327 19.769 10.7167 20.0125C10.5949 20.0836 10.4528 20.1242 10.4528 20.1242Z" fill="#008AD2"/>
<path d="M8.42313 17.0492C8.98129 16.9071 9.38722 16.8665 10.1078 16.8564V18.5613C9.73226 18.5613 9.45826 18.5917 9.05233 18.6831C8.88995 18.4192 8.76817 18.1351 8.66669 17.8408C8.56521 17.5363 8.48401 17.2927 8.42313 17.0492Z" fill="#008AD2"/>
<path d="M10.1077 18.744V20.0735C10.1077 20.0735 10.0672 20.0532 10.0164 20.0024C9.68152 19.6269 9.39736 19.2514 9.1538 18.8556C9.509 18.7745 9.77285 18.744 10.1077 18.744Z" fill="#008AD2"/>
<path d="M9.77285 19.972C9.85404 20.0633 9.94537 20.1343 9.94537 20.1343C9.93522 20.1343 9.79314 20.0937 9.67136 20.0329C9.24513 19.7893 8.80876 19.4848 8.41297 19.0891C8.5652 19.0282 8.70727 18.9774 8.90009 18.9267C8.92039 18.9165 8.94068 18.9064 8.97113 18.9064V18.8962C9.19439 19.2717 9.4684 19.6269 9.77285 19.972Z" fill="#008AD2"/>
<path d="M8.30134 14.5629C8.5449 14.8166 8.79861 15.0804 9.06246 15.3544H8.26075C8.26075 15.05 8.28104 14.7963 8.30134 14.5629Z" fill="#008AD2"/>
<path d="M10.3817 20.0024C10.331 20.0532 10.2904 20.0735 10.2904 20.0735V18.744C10.6253 18.744 10.8892 18.7745 11.2444 18.8556C11.0008 19.2514 10.7166 19.6269 10.3817 20.0024Z" fill="#008AD2"/>
<path d="M13.2943 17.4958C13.5988 17.6176 13.8829 17.7596 14.1874 17.9322L13.9134 18.328C13.85 18.2597 13.7631 18.168 13.6563 18.0551C13.5408 17.9331 13.4016 17.7861 13.2436 17.6176C13.2537 17.577 13.274 17.5364 13.2943 17.4958Z" fill="#008AD2"/>
<path d="M12.0573 16.3692C11.8126 16.1148 11.5589 15.8509 11.3052 15.5777H12.1374C12.1273 15.9025 12.1171 16.1663 12.0867 16.3997L12.0573 16.3692Z" fill="#008AD2"/>
<path d="M11.0639 15.3149C10.8087 15.05 10.5449 14.776 10.2904 14.502V14.2381C11.0312 14.228 11.4575 14.1975 12.0156 14.0555C12.0968 14.4208 12.1273 14.7963 12.1374 15.3443H11.0921L11.0639 15.3149Z" fill="#008AD2"/>
<path d="M8.28106 11.9954C8.45358 12.0766 8.6261 12.1374 8.84936 12.1983H8.88996C8.77833 12.381 8.69714 12.5535 8.61595 12.7362C8.42313 12.5434 8.25061 12.3607 8.09839 12.1983C8.15928 12.1273 8.22017 12.0563 8.28106 11.9954Z" fill="#008AD2"/>
<path d="M7.76349 19.4544C7.93601 19.3326 8.07808 19.2412 8.25061 19.1601C8.64639 19.5457 9.06247 19.8501 9.4887 20.0836C8.86966 19.9922 8.28105 19.769 7.76349 19.4544Z" fill="#008AD2"/>
<path d="M8.07809 15.3545H6.88058C6.90088 14.8166 6.97192 14.2889 7.21548 13.6902C7.34741 13.7409 7.48948 13.7916 7.62141 13.8322C7.78379 14.0048 7.95631 14.1874 8.13898 14.3802C8.09839 14.6543 8.08824 14.9587 8.07809 15.3545Z" fill="#008AD2"/>
<path d="M13.7104 15.3545C13.68 14.7963 13.6089 14.2483 13.3654 13.6191C13.68 13.4872 13.9641 13.3451 14.2787 13.1624C14.6542 13.8119 14.8673 14.5528 14.8876 15.3545H13.7104Z" fill="#008AD2"/>
<path d="M10.0469 14.2483H10.1078V14.3194C10.0976 14.3092 10.0875 14.2965 10.0773 14.2838C10.0672 14.2712 10.057 14.2585 10.0469 14.2483Z" fill="#008AD2"/>
<path d="M9.05232 12.2491C9.45825 12.3404 9.73226 12.3709 10.1077 12.3709H10.1179V14.0758C10.0367 14.0656 9.95554 14.0656 9.87436 14.0656C9.46843 13.6495 9.08277 13.2436 8.74787 12.8884C8.82906 12.6652 8.93054 12.4622 9.05232 12.2491Z" fill="#008AD2"/>
<path d="M7.30174 13.5227C7.29667 13.5201 7.29159 13.5176 7.28652 13.5176V13.4973L7.31696 13.5277C7.31189 13.5277 7.30681 13.5252 7.30174 13.5227Z" fill="#008AD2"/>
<path d="M7.09369 13.4364C6.79939 13.3146 6.50508 13.1726 6.21078 13L6.45434 12.6347C6.51083 12.6955 6.58779 12.775 6.68123 12.8714C6.80594 13.0002 6.96038 13.1596 7.13428 13.3451C7.12921 13.3603 7.1216 13.3755 7.11399 13.3907C7.10638 13.4059 7.09876 13.4212 7.09369 13.4364Z" fill="#008AD2"/>
<path d="M13.0203 17.374C13.0508 17.3943 13.0812 17.4044 13.1117 17.4146C13.1117 17.4265 13.1082 17.4349 13.1053 17.4418C13.1033 17.4468 13.1015 17.451 13.1015 17.4552L13.0203 17.374Z" fill="#008AD2"/>
<path d="M7.75162 11.8425C7.66497 11.7529 7.59259 11.678 7.54023 11.6199C7.56052 11.6097 7.58082 11.5894 7.59097 11.5691C7.78379 11.7112 7.94616 11.8127 8.10853 11.904C8.08317 11.9294 8.06034 11.9573 8.03751 11.9852C8.01469 12.0131 7.99181 12.041 7.96646 12.0664C7.8887 11.9843 7.816 11.9091 7.75162 11.8425Z" fill="#008AD2"/>
<path d="M12.3201 15.5777H13.5176C13.4872 16.1156 13.4263 16.6433 13.1929 17.242C13.0409 17.1813 12.8888 17.1306 12.7369 17.08C12.6596 16.9975 12.579 16.9148 12.4978 16.831C12.4191 16.7498 12.3391 16.6673 12.2592 16.5824C12.2897 16.2982 12.31 15.9938 12.3201 15.5777Z" fill="#008AD2"/>
<path d="M10.0794 16.4211L10.1077 16.4505H10.1179V16.6839C9.36692 16.694 8.95083 16.7245 8.38252 16.8666C8.31149 16.5012 8.27089 16.1257 8.26075 15.5777H9.27558C9.54015 15.8619 9.81417 16.146 10.0794 16.4211Z" fill="#008AD2"/>
<path d="M8.06793 15.5777C8.07808 16.1562 8.10853 16.5317 8.18971 16.9173C7.86496 17.0086 7.53007 17.1101 7.19517 17.242C6.97191 16.6331 6.90087 16.1156 6.87043 15.5777H8.06793Z" fill="#008AD2"/>
<path d="M6.68777 15.3545H5.51056C5.52071 14.5528 5.74397 13.8018 6.10931 13.1624C6.42391 13.3451 6.70806 13.4872 7.02266 13.6191C6.78925 14.2483 6.71821 14.8065 6.68777 15.3545Z" fill="#008AD2"/>
<path d="M10.2904 12.1882V10.8587C10.2904 10.8587 10.331 10.879 10.3817 10.9298C10.7166 11.3053 11.0008 11.6807 11.2444 12.0765C10.8892 12.1577 10.6152 12.1882 10.2904 12.1882Z" fill="#008AD2"/>
<path d="M13.7104 15.5777H14.8876C14.8673 16.3794 14.6542 17.1203 14.2787 17.7698C13.9641 17.5871 13.68 17.445 13.3654 17.3131C13.6089 16.6839 13.68 16.1257 13.7104 15.5777Z" fill="#008AD2"/>
<path d="M10.0164 10.9298C10.0672 10.879 10.1077 10.8587 10.1077 10.8587V12.1882C9.77285 12.1882 9.509 12.1577 9.1538 12.0765C9.39736 11.6807 9.69167 11.3053 10.0164 10.9298Z" fill="#008AD2"/>
<path d="M10.6253 10.9603C10.5441 10.8689 10.4528 10.7979 10.4528 10.7979C10.4528 10.7979 10.5949 10.8385 10.7268 10.8994C11.1429 11.1429 11.5894 11.4474 11.9852 11.8432C11.833 11.9041 11.6909 11.9548 11.4981 12.0055C11.4778 12.0157 11.4473 12.0258 11.427 12.0258V12.036C11.2038 11.6605 10.9298 11.3053 10.6253 10.9603Z" fill="#008AD2"/>
<path d="M11.975 13.8728C11.4169 14.0148 11.0109 14.0554 10.2904 14.0656V12.3606C10.6659 12.3606 10.9399 12.3302 11.3458 12.2389C11.4981 12.5027 11.63 12.7869 11.7315 13.0812C11.8431 13.3856 11.9142 13.6292 11.975 13.8728Z" fill="#008AD2"/>
<path d="M8.91025 12.0156C8.71743 11.9649 8.5652 11.9142 8.42313 11.8533C8.81891 11.4676 9.25529 11.153 9.69167 10.9196C9.81345 10.8486 9.95553 10.808 9.95553 10.808C9.95553 10.808 9.86419 10.879 9.78301 10.9704C9.47856 11.3154 9.20455 11.6706 8.98129 12.0461V12.0359C8.97317 12.0332 8.96578 12.0305 8.95891 12.028C8.94008 12.0211 8.9251 12.0156 8.91025 12.0156Z" fill="#008AD2"/>
<path d="M9.4887 10.8486C9.07262 11.082 8.64639 11.3865 8.25061 11.7721C8.07808 11.6909 7.93601 11.5996 7.76349 11.4778C8.28105 11.1632 8.86966 10.94 9.4887 10.8486Z" fill="#008AD2"/>
<path d="M8.84936 18.7339C8.63625 18.7947 8.45358 18.8658 8.28106 18.9368C7.98675 18.6222 7.7229 18.267 7.50978 17.8611C7.41845 17.7089 7.34741 17.5668 7.28652 17.4146C7.60112 17.2928 7.91572 17.1913 8.24046 17.1C8.30135 17.3435 8.38254 17.5871 8.48402 17.8814C8.58551 18.1858 8.71743 18.4598 8.87981 18.7339H8.84936Z" fill="#008AD2"/>
<path d="M11.5387 12.1983C11.7619 12.1374 11.9446 12.0664 12.1171 11.9954C12.4114 12.31 12.6753 12.655 12.8884 13.0711C12.9797 13.2233 13.0508 13.3654 13.1117 13.5176C12.7869 13.6394 12.4723 13.7409 12.1476 13.8322C12.0867 13.5887 12.0055 13.3451 11.904 13.0508C11.8025 12.7463 11.6706 12.4723 11.5082 12.1983H11.5387Z" fill="#008AD2"/>
<path d="M12.3201 15.3545C12.3099 14.7659 12.2795 14.4005 12.1983 14.0149C12.5332 13.9236 12.858 13.8221 13.1827 13.6902C13.4263 14.2991 13.4871 14.8166 13.5176 15.3545H12.3201Z" fill="#008AD2"/>
<path d="M8.11868 19.018C7.94616 19.1094 7.78379 19.221 7.60112 19.3529C7.03281 18.9774 6.56599 18.5005 6.22094 17.9322C6.51524 17.7596 6.80959 17.6176 7.10389 17.4959C7.17491 17.6379 7.24594 17.78 7.32711 17.9322C7.55038 18.3483 7.81423 18.7034 8.11868 19.018Z" fill="#008AD2"/>
<path d="M12.1374 11.7721C11.7518 11.3865 11.3256 11.082 10.9095 10.8486C11.5387 10.94 12.1171 11.1632 12.6245 11.4778C12.452 11.5996 12.3099 11.6909 12.1374 11.7721Z" fill="#008AD2"/>
<path d="M6.69791 15.5777C6.71821 16.1359 6.78925 16.6839 7.03281 17.3131C6.71821 17.445 6.42391 17.5871 6.10931 17.7698C5.73382 17.1203 5.52071 16.3794 5.51056 15.5777H6.69791Z" fill="#008AD2"/>
<path d="M12.2795 11.9141C12.452 11.8228 12.6144 11.7112 12.7971 11.5792C13.3552 11.9446 13.8322 12.4317 14.1772 13C13.8728 13.1725 13.5886 13.3146 13.2842 13.4364C13.2233 13.2943 13.1523 13.1522 13.0711 13C12.8478 12.5839 12.5738 12.2287 12.2795 11.9141Z" fill="#008AD2"/>
<path d="M11.2241 21.961H9.16395C9.06246 21.961 8.98128 21.8697 8.97113 21.7479V21.545C8.97113 21.4232 9.06246 21.3318 9.16395 21.3318H11.2241C11.3357 21.3318 11.4169 21.4232 11.4169 21.545V21.7479C11.4169 21.8697 11.3255 21.961 11.2241 21.961Z" fill="#008AD2"/>
<path d="M9.40751 20.8751V20.662C9.40751 20.5402 9.51915 20.4388 9.66122 20.4286H10.7268C10.8689 20.4286 10.9805 20.5402 10.9805 20.662V20.8751C10.9805 21.0071 10.8689 21.1085 10.7268 21.1085H9.66122C9.51915 21.1085 9.40751 20.9969 9.40751 20.8751Z" fill="#008AD2"/>
<path d="M9.34663 21.1593H9.32633C8.42313 20.2155 7.28651 19.2819 5.92663 18.4599C4.3029 17.4856 2.33412 16.6535 0.0202968 16.0851L0.0100273 16.085C0.00427861 16.0793 0.00182566 16.0768 0.000778997 16.0739C0 16.0716 0 16.0692 0 16.0649C0 16.0547 0.0101484 16.0547 0.0202968 16.0547H5.39892V16.0851C5.67293 18.2873 7.42859 20.0227 9.64093 20.2764H9.62063C9.51915 20.2764 9.42781 20.317 9.35678 20.3881C9.28574 20.4591 9.24514 20.5504 9.24514 20.6519V20.9056C9.24514 20.997 9.28574 21.0883 9.34663 21.1593Z" fill="#008AD2"/>
<path fill-rule="evenodd" clip-rule="evenodd" d="M9.03203 21.1695C8.98129 21.1897 8.94069 21.2202 8.9001 21.2709C8.83921 21.3318 8.80877 21.4333 8.80877 21.5348V21.8189C7.57067 21.5449 6.4645 20.9259 5.60189 20.0633C4.95239 19.4138 4.43483 18.6324 4.11008 17.7596C4.68854 18.0336 5.2467 18.3279 5.78456 18.6425C7.0328 19.3833 8.11868 20.2358 9.03203 21.1695ZM5.70337 19.292L5.93678 19.4645L5.84545 19.1804L6.07886 19.018H5.79471L5.70337 18.744L5.61204 19.018H5.32788L5.56129 19.1905L5.46996 19.4645L5.70337 19.292ZM6.7791 20.2967L7.01251 20.4692L6.92117 20.1851L7.15458 20.0227H6.87043L6.7791 19.7487L6.68776 20.0227H6.40361L6.63702 20.1952L6.54568 20.4692L6.7791 20.2967ZM7.96645 21.0477L8.19987 21.2202L8.10853 20.936L8.34194 20.7737H8.05779L7.96645 20.4997L7.87512 20.7737H7.59096L7.82438 20.9462L7.73304 21.2202L7.96645 21.0477Z" fill="#008AD2"/>
<path d="M1.70492 16.7955C2.39501 17.0289 3.0648 17.2826 3.70415 17.5668C3.11554 17.8205 2.68931 18.3076 2.4965 18.8861C2.1413 18.6121 1.85715 18.2264 1.73537 17.7495C1.65418 17.4247 1.64403 17.1 1.70492 16.7955Z" fill="#008AD2"/>
<path fill-rule="evenodd" clip-rule="evenodd" d="M14.7861 20.0633C13.9235 20.9259 12.8174 21.5551 11.5793 21.819C11.5894 21.7987 11.5894 21.7885 11.5793 21.7885V21.545C11.5793 21.4333 11.5387 21.342 11.4879 21.271C11.4372 21.1999 11.3661 21.1593 11.285 21.1593H11.082C12.4622 19.7081 14.2787 18.4599 16.3693 17.4958C16.0445 18.47 15.4965 19.3529 14.7861 20.0633ZM14.6847 18.7542L14.5933 19.0282L14.3092 19.0383L14.5426 19.2007L14.4512 19.4747L14.6847 19.3022L14.9181 19.4747L14.8267 19.2007L15.0601 19.0282H14.776L14.6847 18.7542ZM13.6089 19.7487L13.5176 20.0227L13.2233 20.0329L13.4567 20.1952L13.3654 20.4693L13.5988 20.2967L13.8322 20.4693L13.7409 20.1952L13.9844 20.0227H13.7003L13.6089 19.7487ZM12.4216 20.4997L12.3302 20.7737L12.0461 20.7839L12.2795 20.9462L12.1882 21.2202L12.4216 21.0477L12.655 21.2202L12.5636 20.9462L12.7971 20.7737H12.5129L12.4216 20.4997Z" fill="#008AD2"/>
<path d="M16.8841 14.5785C16.8748 14.4939 16.8647 14.4024 16.8463 14.3193C17.7901 14.3193 18.5613 14.7861 18.6425 15.3646C18.0133 15.1616 17.4349 14.9079 16.8868 14.6034L16.8841 14.5785Z" fill="#008AD2"/>
<path fill-rule="evenodd" clip-rule="evenodd" d="M13.2639 11.0313C12.9493 10.5137 12.6753 9.95555 12.4114 9.3568C13.3146 9.68154 14.1265 10.1991 14.7963 10.8689C15.7502 11.8228 16.4099 13.0609 16.623 14.4513C15.253 13.6292 14.1468 12.5028 13.2639 11.0313ZM13.6597 10.9704L13.8931 11.1429L13.8018 10.8689L14.0352 10.6964H13.751L13.6597 10.4224L13.5683 10.6964H13.2842L13.5176 10.8689L13.4263 11.1429L13.6597 10.9704ZM15.4864 12.9189L15.395 12.6449L15.3037 12.9189H15.0196L15.253 13.0914L15.1616 13.3654L15.395 13.1929L15.6285 13.3654L15.5371 13.0914L15.7705 12.9189H15.4864ZM14.8876 12.1374L14.7963 11.8634L15.0297 11.6909H14.7456L14.6542 11.4169L14.5629 11.6909H14.2787L14.5121 11.8634L14.4208 12.1374L14.6542 11.9649L14.8876 12.1374Z" fill="#008AD2"/>
<path d="M13.6191 7.80408C13.0305 8.00705 12.5535 8.45358 12.3201 9.06248C12.315 9.06248 12.31 9.05994 12.3049 9.0574C12.2998 9.05487 12.2947 9.05233 12.2897 9.05233C12.0258 8.40283 11.7924 7.71275 11.5793 6.95162C11.8533 6.91103 12.1476 6.92117 12.4419 7.00236C12.929 7.13429 13.3349 7.42859 13.6191 7.80408Z" fill="#008AD2"/>
<path d="M42.3319 5.16561L43.4975 4H41.961L41.1663 5.16561H42.3319Z" fill="#008AD2"/>
<path d="M42.5968 11.8943V5.50999H41.1398V11.8943H42.5968Z" fill="#008AD2"/>
<path fill-rule="evenodd" clip-rule="evenodd" d="M35.3646 8.63602C35.3646 10.7288 34.093 12.0004 32.2387 12.0004C30.3313 12.0004 29.2452 10.5699 29.2452 8.74198C29.2452 6.83462 30.4638 5.40411 32.3446 5.40411C34.2785 5.40411 35.3646 6.88761 35.3646 8.63602ZM30.7287 8.71549C30.7287 9.96057 31.3115 10.8613 32.2916 10.8613C33.2718 10.8613 33.8281 9.93408 33.8281 8.689C33.8281 7.54988 33.2718 6.54322 32.2916 6.54322C31.3115 6.54322 30.7287 7.4969 30.7287 8.71549Z" fill="#008AD2"/>
<path fill-rule="evenodd" clip-rule="evenodd" d="M25.9603 5.45686C25.0596 5.45686 24.4503 5.50984 24 5.58932H24.0265V11.8677H25.457V9.58947C25.5895 9.61596 25.7749 9.61596 25.9603 9.61596C26.808 9.61596 27.5233 9.43052 28.0266 8.95368C28.3975 8.6093 28.6094 8.07948 28.6094 7.44369C28.6094 6.80791 28.318 6.27808 27.9207 5.96019C27.4968 5.61581 26.861 5.45686 25.9603 5.45686ZM25.9073 8.52983C25.6954 8.52983 25.563 8.52983 25.4305 8.50334H25.404V6.62247C25.51 6.59598 25.7219 6.56948 26.0133 6.56948C26.7551 6.56948 27.1524 6.91387 27.1524 7.49668C27.1524 8.13246 26.6755 8.52983 25.9073 8.52983Z" fill="#008AD2"/>
<path d="M37.7489 5.50961H36.2919V11.894H40.2921V10.6754H37.7489V5.50961Z" fill="#008AD2"/>
<path d="M48.5307 11.7355C48.2658 11.8679 47.6565 12.0004 46.8883 12.0004C44.6895 12.0004 43.5504 10.6228 43.5504 8.79496C43.5504 6.6227 45.1134 5.40411 47.0472 5.40411C47.789 5.40411 48.3718 5.56305 48.6102 5.69551L48.3188 6.83462C48.0274 6.70217 47.63 6.59621 47.1002 6.59621C45.9611 6.59621 45.0604 7.28497 45.0604 8.71549C45.0604 9.98706 45.8286 10.8083 47.1002 10.8083C47.524 10.8083 48.0274 10.7023 48.2923 10.5964L48.5307 11.7355Z" fill="#008AD2"/>
<path d="M50.9414 5.50961V11.894H49.4844V5.50961H50.9414Z" fill="#008AD2"/>
<path fill-rule="evenodd" clip-rule="evenodd" d="M53.67 10.2515L53.2196 11.894H51.7097L53.67 5.50961H55.5773L57.5642 11.894H56.0012L55.4979 10.2515H53.67ZM55.3124 9.19186L54.9151 7.84082C54.8091 7.46995 54.6766 6.99311 54.5972 6.59575H54.5707C54.5177 6.78118 54.4713 6.99973 54.425 7.21828C54.3786 7.43683 54.3323 7.65538 54.2793 7.84082L53.9084 9.19186H55.3124Z" fill="#008AD2"/>
<path d="M65.7234 9.45701C65.6969 8.68878 65.6704 7.76159 65.6704 6.83441H65.6439C65.432 7.65563 65.1671 8.55632 64.9287 9.29807L64.1604 11.7882H63.0213L62.3325 9.32456C62.1206 8.58281 61.9087 7.65563 61.7497 6.83441C61.7353 7.30957 61.7131 7.81604 61.6916 8.30702L61.6914 8.3102C61.6734 8.7214 61.6558 9.12167 61.6438 9.48351L61.5378 11.9207H60.2133L60.6106 5.53635H62.5445L63.1802 7.68212C63.3922 8.42387 63.5776 9.2186 63.7101 9.96035H63.7366C63.922 9.21863 64.1339 8.37085 64.3459 7.65563L65.0346 5.53635H66.9155L67.2599 11.9207H65.8558L65.7234 9.45701Z" fill="#008AD2"/>
<path d="M69.8032 5.50961V11.894H68.3461V5.50961H69.8032Z" fill="#008AD2"/>
<path d="M71.0481 5.50961H72.5051V10.6754H75.0483V11.894H71.0481V5.50961Z" fill="#008AD2"/>
<path d="M77.353 5.50961V11.894H75.896V5.50961H77.353Z" fill="#008AD2"/>
<path d="M79.8167 6.7282H78.1213V5.50961H83.0221V6.7282H81.2737V11.894H79.8167V6.7282Z" fill="#008AD2"/>
<path fill-rule="evenodd" clip-rule="evenodd" d="M85.2738 10.2515L84.8235 11.894H83.3135L85.2738 5.50961H87.1812L89.168 11.894H87.605L87.1017 10.2515H85.2738ZM86.9163 9.19186L86.5189 7.84082C86.4129 7.46995 86.2805 6.99311 86.201 6.59575H86.1745C86.1216 6.78094 86.0752 6.99972 86.0289 7.218C85.9826 7.43634 85.9361 7.65556 85.8831 7.84082L85.5123 9.19186H86.9163Z" fill="#008AD2"/>
<path fill-rule="evenodd" clip-rule="evenodd" d="M90.0157 5.58932C90.4925 5.50984 91.1813 5.45686 91.9496 5.45686C92.9032 5.45686 93.5655 5.58931 94.0158 5.96019C94.3867 6.25159 94.5987 6.70194 94.5987 7.28474C94.5987 8.10597 94.0159 8.66228 93.4595 8.84772V8.87421C93.9099 9.05965 94.1483 9.48351 94.3073 10.0663C94.384 10.3252 94.4572 10.6015 94.5257 10.86C94.6464 11.3152 94.7526 11.7157 94.8371 11.8677H93.3536C93.2476 11.6823 93.0887 11.1789 92.9032 10.3842C92.7443 9.58947 92.4529 9.37754 91.8701 9.35105H91.4462V11.8677H90.0157V5.58932ZM92.0025 8.34439C92.7178 8.34439 93.1416 7.97351 93.1416 7.4172C93.1416 6.8344 92.7443 6.54299 92.082 6.51651C91.7376 6.51651 91.5257 6.54299 91.4197 6.56948V8.34439H92.0025Z" fill="#008AD2"/>
<path d="M35.8945 19.4702C35.4707 19.4702 35.0733 19.3112 34.7819 19.1523L34.623 19.6291C34.8614 19.8146 35.3647 19.947 35.8415 19.947C36.9806 19.947 37.5369 19.3112 37.5369 18.5695C37.5369 17.8807 37.1396 17.4833 36.3184 17.1655C35.6561 16.9005 35.3647 16.6886 35.3647 16.2383C35.3647 15.9204 35.6031 15.523 36.2654 15.523C36.7157 15.523 37.0336 15.682 37.1926 15.7614L37.3515 15.2581C37.1396 15.1256 36.7952 15.0197 36.2919 15.0197C35.3382 15.0197 34.7289 15.576 34.7289 16.3177C34.7289 17.0065 35.2057 17.4039 36.0005 17.6953C36.6362 17.9337 36.9012 18.1986 36.9012 18.649C36.9012 19.1258 36.5303 19.4702 35.8945 19.4702Z" fill="#008AD2"/>
<path fill-rule="evenodd" clip-rule="evenodd" d="M28.583 15.0464C28.0797 15.0464 27.6293 15.0994 27.2584 15.1524H27.2849V19.8943C27.6028 19.9208 27.9737 19.9473 28.424 19.9473C29.3512 19.9473 30.093 19.7088 30.5433 19.2585C30.9937 18.8082 31.2321 18.1724 31.2321 17.3776C31.2321 16.6094 30.9672 16.0531 30.5433 15.6557C30.1195 15.2584 29.4837 15.0464 28.583 15.0464ZM28.53 19.4439C28.2916 19.4439 28.0532 19.4439 27.8942 19.4174H27.8677V15.6027C28.0532 15.5762 28.2916 15.5498 28.6095 15.5498C29.934 15.5498 30.5698 16.265 30.5698 17.4041C30.5698 18.7022 29.8546 19.4439 28.53 19.4439Z" fill="#008AD2"/>
<path d="M33.2189 15.0992V19.9205H32.6097V15.0992H33.2189Z" fill="#008AD2"/>
<path d="M38.4376 15.629H39.8946V19.9205H40.5304V15.629H42.0139V15.0992H38.4376V15.629Z" fill="#008AD2"/>
<path fill-rule="evenodd" clip-rule="evenodd" d="M44.2921 15.0464C43.8682 15.0464 43.4179 15.0994 43.1 15.1524H43.1265V19.9473H43.7358V17.8545H44.3186C44.8749 17.8545 45.1398 18.1194 45.2723 18.7817C45.4047 19.3645 45.5107 19.7883 45.5902 19.9208H46.2524C46.1583 19.7561 46.0642 19.3614 45.933 18.8113L45.8816 18.5962C45.7491 18.0929 45.5372 17.7485 45.1663 17.6161V17.5896C45.6696 17.4306 46.067 17.0068 46.067 16.371C46.067 16.0001 45.9345 15.6557 45.6961 15.4438C45.3782 15.1789 44.9544 15.0464 44.2921 15.0464ZM44.3716 17.3511H43.7358V15.5762C43.8418 15.5498 44.0537 15.5233 44.3451 15.5233C45.0074 15.5233 45.4577 15.8147 45.4577 16.424C45.4577 16.9803 45.0338 17.3511 44.3716 17.3511Z" fill="#008AD2"/>
<path d="M48.1334 19.9205V15.0992H47.5241V19.9205H48.1334Z" fill="#008AD2"/>
<path d="M49.2723 15.629H50.7293V19.9205H51.3651V15.629H52.8486V15.0992H49.2723V15.629Z" fill="#008AD2"/>
<path fill-rule="evenodd" clip-rule="evenodd" d="M55.8157 20C57.0343 20 58.041 19.1258 58.041 17.4569C58.041 16.0263 57.1933 15.0197 55.8687 15.0197C54.5971 15.0197 53.6435 16.0263 53.6435 17.5628C53.6435 19.0198 54.5442 20 55.8157 20ZM55.8422 19.4967C54.8621 19.4967 54.3057 18.5695 54.3057 17.5363C54.3057 16.4767 54.8356 15.523 55.8422 15.523C56.8754 15.523 57.3787 16.5297 57.3787 17.4834C57.3787 18.596 56.8224 19.4967 55.8422 19.4967Z" fill="#008AD2"/>
<path d="M64.1074 15.0992H61.5113V19.894H62.1206V17.7218H63.9485V17.2185H62.1206V15.629H64.1074V15.0992Z" fill="#008AD2"/>
<path d="M66.2003 17.6423H68.0812V17.139H66.2003V15.629H68.1872V15.0992H65.591V19.9205H68.2931V19.3907H66.2003V17.6423Z" fill="#008AD2"/>
<path fill-rule="evenodd" clip-rule="evenodd" d="M70.9951 15.0464C70.4918 15.0464 70.0415 15.0994 69.6706 15.1524H69.6971V19.8943C70.015 19.9208 70.3858 19.9473 70.8362 19.9473C71.7634 19.9473 72.5051 19.7088 72.9555 19.2585C73.4058 18.8082 73.6442 18.1724 73.6442 17.3776C73.6442 16.6094 73.3793 16.0531 72.9555 15.6557C72.5316 15.2584 71.8958 15.0464 70.9951 15.0464ZM70.9157 19.4439C70.6772 19.4439 70.4388 19.4439 70.2799 19.4174H70.2534V15.6027C70.4388 15.5762 70.6772 15.5498 70.9951 15.5498C72.3197 15.5498 72.9555 16.265 72.9555 17.4041C72.9555 18.7022 72.2402 19.4439 70.9157 19.4439Z" fill="#008AD2"/>
<path d="M75.6045 17.6423H77.4854V17.139H75.6045V15.629H77.5914V15.0992H74.9952V19.9205H77.6973V19.3907H75.6045V17.6423Z" fill="#008AD2"/>
<path fill-rule="evenodd" clip-rule="evenodd" d="M80.2935 15.0464C79.8696 15.0464 79.4192 15.0994 79.1013 15.1524H79.1543V19.9473H79.7636V17.8545H80.3464C80.9028 17.8545 81.1677 18.1194 81.3001 18.7817C81.4326 19.3645 81.5386 19.7883 81.618 19.9208H82.2538C82.1598 19.7562 82.0657 19.3621 81.9346 18.8125L81.9344 18.8114L81.8829 18.5962C81.7505 18.0929 81.5386 17.7485 81.1677 17.6161V17.5896C81.671 17.4306 82.0684 17.0068 82.0684 16.371C82.0684 16.0001 81.9359 15.6557 81.6975 15.4438C81.3796 15.1789 80.9557 15.0464 80.2935 15.0464ZM80.3464 17.3511H79.7106V15.5762C79.8166 15.5498 80.0285 15.5233 80.3199 15.5233C80.9822 15.5233 81.4326 15.8147 81.4326 16.424C81.4326 16.9803 81.0087 17.3511 80.3464 17.3511Z" fill="#008AD2"/>
<path fill-rule="evenodd" clip-rule="evenodd" d="M83.7903 19.8938L84.2936 18.3838H86.0155L86.5189 19.8938H87.1812L85.5387 15.0724H84.797L83.1545 19.8938H83.7903ZM85.4062 16.5294L85.8831 17.907V17.9335H84.4261L84.9029 16.5294L85.1413 15.6552H85.1678C85.2208 15.9201 85.3003 16.2115 85.4062 16.5294Z" fill="#008AD2"/>
<path d="M89.0621 15.0992H88.4528V19.9205H91.1284V19.3907H89.0621V15.0992Z" fill="#008AD2"/>
</svg>
