<svg width="64" height="96" viewBox="0 0 64 96" fill="none" xmlns="http://www.w3.org/2000/svg">
<path d="M33.2276 43.7416C33.2276 42.4145 32.537 41.3311 31.6973 41.3311C30.8577 41.3311 30.167 42.4009 30.167 43.7416C30.6681 43.6604 31.1691 43.6062 31.6973 43.6062C32.2119 43.6062 32.7266 43.6604 33.2276 43.7416Z" fill="#FFCC00"/>
<path d="M34.6903 41.3173C35.3403 41.4934 35.8821 41.8861 36.2612 42.3872C35.4758 42.658 34.8393 43.2539 34.5278 44.08C34.2163 43.9852 33.9048 43.8904 33.5798 43.8227C33.7288 42.9424 33.4444 42.0622 32.862 41.4392C33.4308 41.209 34.0538 41.1548 34.6903 41.3173Z" fill="#FFCC00"/>
<path d="M38.4144 46.6262C39.078 46.0709 39.9447 45.8813 40.7573 46.0303C40.6896 45.4073 40.4187 44.7979 39.9312 44.3104C39.4707 43.8499 38.8884 43.5791 38.2925 43.4978C38.4821 44.3239 38.2925 45.2313 37.7237 45.922C37.7779 45.9761 37.8321 46.0269 37.8862 46.0777C37.9404 46.1285 37.9946 46.1793 38.0488 46.2334C38.1842 46.3689 38.3061 46.5043 38.4144 46.6262Z" fill="#FFCC00"/>
<path d="M42.9784 49.5512C43.1544 50.2013 43.0867 50.8648 42.8294 51.4472C42.2064 50.919 41.3668 50.6617 40.5136 50.7971C40.4459 50.4721 40.3511 50.1606 40.2563 49.8491C41.0959 49.5241 41.7053 48.847 41.9627 48.0344C42.4366 48.4001 42.8158 48.9147 42.9784 49.5512Z" fill="#FFCC00"/>
<path d="M42.87 53.7767C42.2471 54.359 41.3668 54.6434 40.4865 54.4944C40.4188 54.8195 40.324 55.1309 40.2292 55.4424C41.0418 55.7539 41.6377 56.3904 41.9085 57.1759C42.4096 56.7967 42.8023 56.255 42.9784 55.6049C43.1544 54.9684 43.1003 54.3455 42.87 53.7767Z" fill="#FFCC00"/>
<path d="M37.6697 59.3291C38.225 59.9926 38.4146 60.8594 38.2656 61.6719C38.8886 61.6042 39.498 61.3334 39.9855 60.8458C40.446 60.3854 40.7168 59.8031 40.7981 59.2072C39.972 59.3968 39.0646 59.2072 38.3739 58.6384C38.3198 58.6926 38.269 58.7467 38.2182 58.8009C38.1674 58.855 38.1166 58.9093 38.0625 58.9634C37.927 59.0988 37.8051 59.2207 37.6697 59.3291Z" fill="#FFCC00"/>
<path d="M30.5326 41.4799C29.9503 41.2225 29.2867 41.1548 28.6367 41.3309C28.0002 41.4934 27.4855 41.8726 27.1199 42.3466C27.9325 42.6039 28.6096 43.2133 28.9346 44.053C29.2461 43.9582 29.5576 43.8634 29.8826 43.7956C29.7336 42.9425 30.0045 42.1028 30.5326 41.4799Z" fill="#FFCC00"/>
<path d="M25.1156 43.5383C24.9666 44.3508 25.1562 45.2176 25.7115 45.8812C25.5896 46.003 25.4541 46.1249 25.3187 46.2468C25.2645 46.301 25.2138 46.3552 25.163 46.4093C25.1122 46.4635 25.0614 46.5177 25.0072 46.5718C24.3166 46.003 23.4092 45.8134 22.5831 46.003C22.6644 45.4072 22.9352 44.8248 23.3957 44.3644C23.8832 43.8769 24.4926 43.606 25.1156 43.5383Z" fill="#FFCC00"/>
<path d="M21.4726 48.0481C20.9716 48.4273 20.5788 48.969 20.4028 49.6191C20.2403 50.2556 20.2944 50.8785 20.5246 51.4473C21.1476 50.865 22.0279 50.5806 22.9082 50.7296C22.9759 50.4045 23.0707 50.093 23.1655 49.7816C22.3394 49.4701 21.7435 48.82 21.4726 48.0481Z" fill="#FFCC00"/>
<path d="M20.4028 55.659C20.2267 55.0089 20.2944 54.3453 20.5517 53.763C21.1747 54.3047 22.0279 54.562 22.8675 54.4131C22.9352 54.7381 23.03 55.0496 23.1248 55.361C22.2852 55.6861 21.6758 56.3632 21.4185 57.1758C20.9445 56.8101 20.5653 56.2955 20.4028 55.659Z" fill="#FFCC00"/>
<path d="M24.9666 58.5843C24.303 59.1395 23.4363 59.3291 22.6237 59.1801C22.6915 59.8031 22.9623 60.4125 23.4498 60.9001C23.9103 61.3605 24.4926 61.6314 25.0885 61.7126C24.8989 60.873 25.0885 59.9792 25.6573 59.2885C25.6031 59.2343 25.549 59.1835 25.4948 59.1327C25.4406 59.082 25.3864 59.0312 25.3323 58.977C25.2104 58.8551 25.0885 58.7197 24.9666 58.5843Z" fill="#FFCC00"/>
<path d="M28.7044 63.9064C28.0544 63.7303 27.5127 63.3511 27.1335 62.8365C27.9054 62.5657 28.5554 61.9562 28.8669 61.1437C29.1784 61.2385 29.4899 61.3333 29.8149 61.401C29.6659 62.2813 29.9503 63.1615 30.5327 63.7845C29.9639 64.0147 29.3409 64.0689 28.7044 63.9064Z" fill="#FFCC00"/>
<path d="M32.8485 63.7439C33.4308 64.0012 34.0944 64.0689 34.7444 63.8929C35.3809 63.7304 35.8956 63.3512 36.2612 62.8772C35.4487 62.6199 34.7715 62.0105 34.4465 61.1708C34.1351 61.2656 33.8235 61.3604 33.4985 61.4281C33.6475 62.2813 33.3902 63.121 32.8485 63.7439Z" fill="#FFCC00"/>
<path d="M31.6974 63.8793C30.8577 63.8793 30.167 62.8094 30.167 61.4823C30.6546 61.5635 31.1692 61.6041 31.6974 61.6177C32.2255 61.6177 32.7266 61.5635 33.2277 61.4823C33.2277 62.8094 32.537 63.8793 31.6974 63.8793Z" fill="#FFCC00"/>
<path d="M37.3311 62.3764C38.0624 61.9565 38.1165 60.6835 37.453 59.5324C36.6675 60.1825 35.7737 60.7106 34.7986 61.0627C35.4757 62.2003 36.5998 62.7962 37.3311 62.3764Z" fill="#FFCC00"/>
<path d="M40.1344 55.713C41.2855 56.3902 41.8679 57.5142 41.4481 58.2455C41.0282 58.9768 39.7552 59.031 38.6041 58.3674C39.2541 57.5819 39.7823 56.6881 40.1344 55.713Z" fill="#FFCC00"/>
<path d="M40.5542 54.1421C41.8814 54.1421 42.9648 53.4515 42.9648 52.6118C42.9648 51.7722 41.8949 51.0815 40.5542 51.0815C40.6355 51.5826 40.6897 52.0837 40.6897 52.6118C40.6897 53.1264 40.649 53.6411 40.5542 54.1421Z" fill="#FFCC00"/>
<path d="M38.6041 46.8561C39.7552 46.1925 41.0282 46.2467 41.4481 46.978C41.8814 47.7093 41.2855 48.8333 40.1344 49.5105C39.7823 48.5354 39.2541 47.6416 38.6041 46.8561Z" fill="#FFCC00"/>
<path d="M37.3311 42.8477C36.5998 42.4279 35.4757 43.0102 34.7986 44.1613C35.7737 44.5134 36.6675 45.0416 37.453 45.6916C38.1165 44.5405 38.0624 43.2675 37.3311 42.8477Z" fill="#FFCC00"/>
<path d="M25.9417 45.6916C25.2781 44.5405 25.3322 43.2675 26.0636 42.8477C26.7813 42.4279 27.9189 43.0102 28.596 44.1613C27.621 44.5134 26.7271 45.0416 25.9417 45.6916Z" fill="#FFCC00"/>
<path d="M21.9331 46.9782C21.5133 47.7095 22.0956 48.8335 23.2468 49.4971C23.5989 48.522 24.127 47.6282 24.7771 46.8428C23.626 46.1927 22.353 46.2469 21.9331 46.9782Z" fill="#FFCC00"/>
<path d="M20.4298 52.6118C20.4298 51.7722 21.4997 51.0815 22.8268 51.0815C22.7456 51.5826 22.6914 52.0837 22.6914 52.6118C22.6914 53.14 22.7456 53.6411 22.8268 54.1421C21.4997 54.1421 20.4298 53.4515 20.4298 52.6118Z" fill="#FFCC00"/>
<path d="M21.9331 58.2455C22.353 58.9768 23.626 59.031 24.7771 58.3674C24.127 57.5819 23.5989 56.6881 23.2468 55.713C22.0956 56.3902 21.5133 57.5142 21.9331 58.2455Z" fill="#FFCC00"/>
<path d="M28.5826 61.0627C27.919 62.2139 26.7949 62.7962 26.0636 62.3764C25.3323 61.9565 25.2782 60.6835 25.9282 59.5324C26.7137 60.1825 27.6075 60.7106 28.5826 61.0627Z" fill="#FFCC00"/>
<path d="M37.832 46.4772C36.2611 44.9062 34.0942 43.9312 31.6972 43.9312C29.3001 43.9312 27.1333 44.9062 25.5624 46.4772C23.9914 48.0481 23.0164 50.2149 23.0164 52.612C23.0164 55.009 23.9914 57.1759 25.5624 58.7468C27.1333 60.3178 29.3001 61.2928 31.6972 61.2928C34.0942 61.2928 36.2611 60.3178 37.832 58.7468C39.403 57.1759 40.378 55.009 40.378 52.612C40.3645 50.2149 39.403 48.0481 37.832 46.4772Z" fill="#070C3D"/>
<path d="M40.554 51.0815C40.5405 50.9867 40.5269 50.8919 40.4999 50.7971C40.4321 50.4721 40.3509 50.1606 40.2425 49.8491C40.2019 49.7272 40.1613 49.6189 40.1207 49.5106C39.7686 48.5355 39.2404 47.6417 38.5903 46.8562C38.5226 46.7885 38.4685 46.7072 38.4008 46.6395C38.2789 46.5041 38.1705 46.3822 38.0351 46.2468C37.9268 46.1384 37.8184 46.0301 37.7101 45.9353C37.6153 45.854 37.534 45.7728 37.4392 45.6915C36.6537 45.0415 35.7599 44.5133 34.7849 44.1612C34.6901 44.1341 34.6088 44.0935 34.514 44.0664C34.2025 43.9581 33.891 43.8768 33.566 43.8091C33.4441 43.782 33.3358 43.7685 33.2139 43.7414C32.7128 43.6601 32.2118 43.606 31.6836 43.606C31.1554 43.606 30.6544 43.6466 30.1533 43.7414C30.0585 43.7549 29.9637 43.7685 29.8689 43.7956C29.5439 43.8633 29.2324 43.9445 28.9209 44.0529C28.799 44.0935 28.6907 44.1341 28.5823 44.1748C27.6073 44.5269 26.7134 45.055 25.928 45.7051C25.8603 45.7728 25.779 45.827 25.7113 45.8947C25.5759 46.0166 25.454 46.1384 25.3186 46.2603C25.2102 46.3687 25.1019 46.477 25.0071 46.5853C24.9258 46.6801 24.8446 46.7614 24.7633 46.8562C24.1133 47.6417 23.5851 48.5355 23.233 49.5106C23.2059 49.6054 23.1653 49.6866 23.1382 49.7814C23.0298 50.0929 22.9486 50.4044 22.8809 50.7294C22.8538 50.8513 22.8402 50.9596 22.8132 51.0815C22.7319 51.5826 22.6777 52.0837 22.6777 52.6118C22.6777 53.14 22.7184 53.6411 22.8132 54.1421C22.8267 54.2369 22.8402 54.3317 22.8673 54.4265C22.935 54.7516 23.0163 55.063 23.1246 55.3745C23.1653 55.4964 23.2059 55.6047 23.2465 55.7131C23.5986 56.6882 24.1268 57.582 24.7768 58.3674C24.8446 58.4352 24.8987 58.5164 24.9664 58.5841C25.0883 58.7196 25.1967 58.8414 25.3321 58.9769C25.4404 59.0852 25.5488 59.1935 25.6571 59.2883C25.7519 59.3696 25.8332 59.4509 25.928 59.5321C26.7134 60.1822 27.6073 60.7103 28.5823 61.0624C28.6771 61.0895 28.7584 61.1301 28.8532 61.1572C29.1647 61.2656 29.4761 61.3468 29.8012 61.4145C29.9231 61.4416 30.0314 61.4552 30.1533 61.4823C30.6544 61.5635 31.1554 61.6177 31.6836 61.6177C32.2118 61.6177 32.7128 61.5771 33.2139 61.4823C33.3087 61.4687 33.4035 61.4552 33.4983 61.4281C33.8233 61.3604 34.1348 61.2791 34.4463 61.1708C34.5682 61.1301 34.6765 61.0895 34.7849 61.0489C35.7599 60.6968 36.6537 60.1686 37.4392 59.5186C37.5069 59.4509 37.5882 59.3967 37.6559 59.329C37.7913 59.2071 37.9132 59.0988 38.0351 58.9633C38.1434 58.855 38.2518 58.7466 38.3466 58.6383C38.4278 58.5435 38.5091 58.4622 38.5903 58.3674C39.2404 57.582 39.7686 56.6882 40.1207 55.7131C40.1478 55.6183 40.1884 55.537 40.2155 55.4422C40.3238 55.1308 40.4051 54.8193 40.4728 54.4942C40.4999 54.3724 40.5134 54.264 40.5405 54.1421C40.6217 53.6411 40.6759 53.14 40.6759 52.6118C40.6895 52.0837 40.6488 51.5826 40.554 51.0815ZM31.6971 61.2791C29.3001 61.2791 27.1333 60.304 25.5623 58.7331C23.9914 57.1622 23.0163 54.9953 23.0163 52.5983C23.0163 50.2012 23.9914 48.0344 25.5623 46.4635C27.1333 44.8925 29.3001 43.9174 31.6971 43.9174C34.0942 43.9174 36.261 44.8925 37.832 46.4635C39.4029 48.0344 40.378 50.2012 40.378 52.5983C40.378 54.9953 39.4029 57.1622 37.832 58.7331C36.261 60.3176 34.0942 61.2791 31.6971 61.2791Z" fill="white"/>
<path fill-rule="evenodd" clip-rule="evenodd" d="M45.3617 53.4107C36.2475 51.8262 32.7535 44.6486 31.7107 32.0269V53.4107H45.3617Z" fill="#008837"/>
<path d="M45.3618 53.438H31.6973C31.6837 53.438 31.6702 53.4245 31.6702 53.4109V32.0271C31.6702 32.0135 31.6837 32 31.6973 32C31.7108 32 31.7243 32.0135 31.7243 32.0271C32.2796 38.7442 33.4849 43.4571 35.5163 46.8427C37.6966 50.4722 40.9062 52.6119 45.3482 53.3838C45.3618 53.3838 45.3753 53.3974 45.3753 53.4109C45.3889 53.4245 45.3753 53.438 45.3618 53.438ZM31.7379 53.3838H45.0368C40.7573 52.5713 37.6289 50.4315 35.4892 46.8834C33.5255 43.6061 32.3202 39.0963 31.7379 32.7313V53.3838Z" fill="#FFCC00"/>
<path fill-rule="evenodd" clip-rule="evenodd" d="M31.7109 53.4106V61.5498C29.2868 58.3673 24.7365 55.0358 18.0735 53.4106H31.7109Z" fill="#008837"/>
<path d="M31.7379 53.4108V61.5499C31.7379 61.5634 31.7243 61.577 31.7108 61.577C31.6973 61.577 31.6837 61.577 31.6837 61.5634C30.3836 59.857 28.4741 58.11 25.9552 56.6068C23.7748 55.3067 21.1475 54.1962 18.0734 53.4378C18.0598 53.4378 18.0463 53.4243 18.0598 53.4108C18.0598 53.3972 18.0734 53.3972 18.0869 53.3972H31.7243C31.7243 53.3837 31.7379 53.3972 31.7379 53.4108ZM31.6837 61.4686V53.4378H18.2765C21.283 54.1962 23.8561 55.2932 25.9958 56.5662C28.4741 58.0559 30.3701 59.7758 31.6837 61.4686Z" fill="#FFCC00"/>
<path fill-rule="evenodd" clip-rule="evenodd" d="M18.0327 53.4107C27.1469 51.8262 30.6409 44.6486 31.6837 32.0269V53.4107H18.0327Z" fill="#FFFF00"/>
<path d="M18.0192 53.3838C22.5695 52.5984 25.7114 50.4045 27.8511 46.8427C29.9909 43.281 31.1284 38.3244 31.6566 32.0271C31.6566 32.0135 31.6701 32 31.6837 32C31.6972 32 31.7108 32.0135 31.7108 32.0271V53.4109C31.7108 53.4245 31.6972 53.438 31.6837 53.438H18.0327C18.0192 53.438 18.0056 53.4245 18.0056 53.4109C17.9921 53.3974 18.0056 53.3838 18.0192 53.3838ZM27.9053 46.8698C25.8062 50.3774 22.7185 52.5577 18.29 53.3838H31.6566V32.7178C31.1013 38.7036 29.9773 43.4165 27.9053 46.8698Z" fill="#FFCC00"/>
<path fill-rule="evenodd" clip-rule="evenodd" d="M31.6973 53.4106V61.5498C34.1214 58.3673 38.6717 55.0358 45.3347 53.4106H31.6973Z" fill="#FFFF00"/>
<path d="M31.6973 61.5771C31.6702 61.5771 31.6702 61.5635 31.6702 61.55V53.4109C31.6702 53.3973 31.6837 53.3838 31.6973 53.3838H45.3347C45.3482 53.3838 45.3618 53.3973 45.3618 53.4109C45.3618 53.4244 45.3482 53.438 45.3347 53.438C39.5384 54.8599 34.5683 57.8122 31.7243 61.5635C31.7108 61.5771 31.7108 61.5771 31.6973 61.5771ZM31.7243 53.438V61.4552C34.5547 57.7851 39.403 54.8735 45.0774 53.438H31.7243Z" fill="#FFCC00"/>
<path fill-rule="evenodd" clip-rule="evenodd" d="M30.7356 43.0505L30.7491 44.2016C30.9387 43.985 31.169 43.8766 31.4263 43.8631C31.3992 44.1475 31.2502 44.3371 31.0335 44.4589H32.3743C32.144 44.31 32.0086 44.1204 31.968 43.8495C32.2524 43.8631 32.4826 43.9714 32.6722 44.1881V43.0234C32.4555 43.2672 32.2253 43.3891 31.968 43.3891C31.9544 43.1724 32.1305 42.9286 32.3743 42.7661H31.02C31.2502 42.9151 31.3992 43.1047 31.4398 43.4026C31.1554 43.362 30.9252 43.2537 30.7356 43.0505ZM31.1825 43.5787H31.6565V43.1182H31.7784V43.5787H32.2795V43.7006H31.7784V44.1746H31.6565V43.7006H31.1825V43.5787Z" fill="#FF0000"/>
<path fill-rule="evenodd" clip-rule="evenodd" d="M32.2931 43.5786H31.7785V43.1182H31.6566V43.5786H31.1826V43.7005H31.6566V44.1745H31.7785V43.7005H32.2931V43.5786Z" fill="white"/>
<path fill-rule="evenodd" clip-rule="evenodd" d="M31.6972 44.5269C32.3201 44.5269 32.8347 44.879 32.8347 45.3123C32.8347 45.7457 32.3201 46.0978 31.6972 46.0978C31.0742 46.0978 30.5596 45.7457 30.5596 45.3123C30.5596 44.879 31.0606 44.5269 31.6972 44.5269Z" fill="#070C3D"/>
<path d="M31.6972 44.4595C32.0223 44.4595 32.3202 44.5543 32.5369 44.7032C32.7536 44.8522 32.9025 45.0689 32.9025 45.3127C32.9025 45.5564 32.7671 45.7731 32.5369 45.9221C32.3202 46.071 32.0223 46.1658 31.6972 46.1658C31.3722 46.1658 31.0743 46.071 30.8576 45.9221C30.6409 45.7731 30.4919 45.5564 30.4919 45.3127C30.4919 45.0689 30.6274 44.8522 30.8576 44.7032C31.0743 44.5543 31.3722 44.4595 31.6972 44.4595ZM32.4556 44.8116C32.266 44.6762 31.9952 44.5949 31.6972 44.5949C31.3993 44.5949 31.1284 44.6762 30.9389 44.8116C30.7493 44.947 30.6409 45.1231 30.6409 45.3127C30.6409 45.5023 30.7628 45.6783 30.9389 45.8137C31.1284 45.9492 31.3993 46.0304 31.6972 46.0304C31.9952 46.0304 32.266 45.9492 32.4556 45.8137C32.6452 45.6783 32.7536 45.5023 32.7536 45.3127C32.7671 45.1231 32.6452 44.947 32.4556 44.8116Z" fill="white"/>
<path fill-rule="evenodd" clip-rule="evenodd" d="M30.9793 45.2041H32.4013C32.4419 45.2041 32.469 45.2312 32.469 45.2718V45.3395C32.469 45.3802 32.4419 45.4072 32.4013 45.4072H30.9793C30.9387 45.4072 30.9116 45.3802 30.9116 45.3395V45.2718C30.9116 45.2312 30.9387 45.2041 30.9793 45.2041Z" fill="white"/>
<path fill-rule="evenodd" clip-rule="evenodd" d="M27.0794 45.8945L27.2013 46.2602H27.5805L27.269 46.4769L27.3909 46.8425L27.0794 46.6123L26.768 46.8425L26.8899 46.4769L26.5784 46.2602H26.9576L27.0794 45.8945Z" fill="white"/>
<path fill-rule="evenodd" clip-rule="evenodd" d="M25.7521 47.2217L25.8604 47.5873H26.2396L25.9417 47.804L26.05 48.1697L25.7521 47.9394L25.4406 48.1697L25.5625 47.804L25.251 47.5873H25.6302L25.7521 47.2217Z" fill="white"/>
<path fill-rule="evenodd" clip-rule="evenodd" d="M24.7635 48.8467L24.8854 49.2123H25.2646L24.9531 49.429L25.075 49.7947L24.7635 49.5644L24.452 49.7947L24.5739 49.429L24.2625 49.2123H24.6416L24.7635 48.8467Z" fill="white"/>
<path fill-rule="evenodd" clip-rule="evenodd" d="M36.3153 45.8945L36.1934 46.2602H35.8142L36.1257 46.4769L36.0038 46.8425L36.3153 46.6123L36.6132 46.8425L36.5049 46.4769L36.8028 46.2602H36.4236L36.3153 45.8945Z" fill="white"/>
<path fill-rule="evenodd" clip-rule="evenodd" d="M37.6424 47.2217L37.5206 47.5873H37.1414L37.4528 47.804L37.331 48.1697L37.6424 47.9394L37.9539 48.1697L37.832 47.804L38.1435 47.5873H37.7508L37.6424 47.2217Z" fill="white"/>
<path fill-rule="evenodd" clip-rule="evenodd" d="M38.6312 48.8467L38.5093 49.2123H38.1301L38.4416 49.429L38.3197 49.7947L38.6312 49.5644L38.9291 49.7947L38.8208 49.429L39.1187 49.2123H38.7395L38.6312 48.8467Z" fill="white"/>
<path fill-rule="evenodd" clip-rule="evenodd" d="M25.2104 57.3652H25.5896L25.7115 56.9995L25.8199 57.3652H26.1991L25.9011 57.5818L26.0095 57.9475L25.7115 57.7308L25.4 57.9475L25.5219 57.5818L25.2104 57.3652Z" fill="white"/>
<path fill-rule="evenodd" clip-rule="evenodd" d="M26.646 58.6924H27.0252L27.1471 58.3403L27.2554 58.6924L27.6346 58.706L27.3367 58.9227L27.445 59.2883L27.1471 59.0581L26.8356 59.2883L26.9575 58.9227L26.646 58.6924Z" fill="white"/>
<path fill-rule="evenodd" clip-rule="evenodd" d="M28.217 59.6944H28.5962L28.7181 59.3423L28.84 59.6944H29.2192L28.9077 59.9246L29.0296 60.2903L28.7181 60.06L28.4066 60.2903L28.5285 59.9246L28.217 59.6944Z" fill="white"/>
<path fill-rule="evenodd" clip-rule="evenodd" d="M38.1709 57.3652H37.7917L37.6698 56.9995L37.5479 57.3652H37.1687L37.4802 57.5818L37.3583 57.9475L37.6698 57.7308L37.9813 57.9475L37.8594 57.5818L38.1709 57.3652Z" fill="white"/>
<path fill-rule="evenodd" clip-rule="evenodd" d="M36.7353 58.6924H36.3561L36.2342 58.3403L36.1123 58.6924L35.7332 58.706L36.0446 58.9227L35.9228 59.2883L36.2342 59.0581L36.5457 59.2883L36.4238 58.9227L36.7353 58.6924Z" fill="white"/>
<path fill-rule="evenodd" clip-rule="evenodd" d="M35.1507 59.6944H34.7715L34.6496 59.3423L34.5413 59.6944H34.1621L34.4736 59.9246L34.3517 60.2903L34.6632 60.06L34.9747 60.2903L34.8528 59.9246L35.1507 59.6944Z" fill="white"/>
<path fill-rule="evenodd" clip-rule="evenodd" d="M31.6974 46.1523C28.1221 46.1523 25.2104 49.0369 25.2104 52.6122C25.2104 56.1739 28.1086 59.072 31.6974 59.072C35.2726 59.072 38.1843 56.1874 38.1843 52.6122C38.1843 49.0505 35.2726 46.1523 31.6974 46.1523Z" fill="#FFCC00"/>
<path fill-rule="evenodd" clip-rule="evenodd" d="M30.3025 57.1352C30.7765 57.0269 31.1286 56.9862 31.5755 56.9862V58.7603C31.5755 58.7603 31.5213 58.7332 31.4536 58.6655C31.0202 58.1644 30.6275 57.6634 30.3025 57.1352ZM34.9476 47.2897C34.2569 46.8699 33.485 46.5719 32.6454 46.45C33.2006 46.7615 33.7694 47.1678 34.284 47.6824C34.5278 47.5741 34.7174 47.4522 34.9476 47.2897ZM37.1415 49.5378C37.6426 50.4045 37.927 51.3931 37.9541 52.463H36.3831C36.3425 51.7317 36.2477 50.9868 35.9227 50.1472C36.329 49.9711 36.7217 49.7815 37.1415 49.5378ZM37.0061 49.3211C36.5998 49.5513 36.2206 49.7409 35.8143 49.9034C35.7331 49.7138 35.6383 49.5242 35.5299 49.3211C35.232 48.7658 34.8664 48.2918 34.4736 47.872C34.6903 47.7501 34.907 47.6147 35.1643 47.4251C35.9091 47.9126 36.5321 48.5627 37.0061 49.3211ZM35.6789 50.242C35.9904 51.041 36.0852 51.7452 36.1258 52.463H34.5278C34.5142 51.691 34.4736 51.19 34.3653 50.6753C34.8122 50.5535 35.2456 50.418 35.6789 50.242ZM35.5841 50.0118C35.1508 50.1743 34.7309 50.3232 34.2976 50.4316C34.2163 50.1066 34.1215 49.7815 33.9725 49.3888C33.8371 48.9825 33.6611 48.6169 33.4444 48.2512C33.4579 48.2512 33.4715 48.2512 33.485 48.2512C33.7829 48.17 34.0267 48.0887 34.2569 47.9804C34.6497 48.3866 35.0018 48.8606 35.2862 49.4023C35.4081 49.619 35.5029 49.8086 35.5841 50.0118ZM34.0538 50.4993C33.9725 50.1743 33.8777 49.8492 33.7288 49.443C33.5933 49.0502 33.4173 48.671 33.2142 48.3054C32.6724 48.4273 32.3068 48.4679 31.8057 48.4679V50.7295C32.7672 50.7295 33.309 50.6753 34.0538 50.4993ZM33.336 48.0345C33.0381 47.5335 32.6724 47.0595 32.2662 46.599C32.1578 46.4771 32.0359 46.3823 32.0359 46.3823C32.0359 46.3823 32.2255 46.4365 32.3881 46.5313C32.9433 46.8563 33.5256 47.2626 34.0673 47.7908C33.8777 47.872 33.6746 47.9397 33.4173 48.0074C33.3902 48.0074 33.3496 48.021 33.336 48.0345ZM34.2705 52.463C34.2569 51.7317 34.2163 51.2306 34.108 50.7431C33.3631 50.9327 32.7943 50.9733 31.8057 50.9868V52.4494H34.2705V52.463ZM33.0787 48.0887C32.6047 48.197 32.2526 48.2377 31.8057 48.2377V46.4636C31.8057 46.4636 31.8599 46.4907 31.9276 46.5584C32.3745 47.0595 32.7537 47.5605 33.0787 48.0887ZM28.4336 47.2897C29.1243 46.8699 29.9097 46.5719 30.7358 46.45C30.1806 46.7615 29.6118 47.1678 29.0836 47.6824C28.867 47.5741 28.6638 47.4522 28.4336 47.2897ZM26.2397 49.5378C25.7386 50.4045 25.4542 51.3931 25.4407 52.463H27.0116C27.0522 51.7317 27.147 50.9868 27.4585 50.1472C27.0522 49.9711 26.6595 49.7815 26.2397 49.5378ZM26.3751 49.3211C26.7679 49.5513 27.1606 49.7409 27.5533 49.9034C27.6346 49.7138 27.7294 49.5242 27.8513 49.3211C28.1492 48.7658 28.5013 48.2918 28.9076 47.872C28.6909 47.7501 28.4742 47.6147 28.2169 47.4251C27.4721 47.9126 26.8491 48.5627 26.3751 49.3211ZM27.7023 50.242C27.3908 51.041 27.296 51.7452 27.2689 52.463H28.867C28.8805 51.691 28.9211 51.19 29.0295 50.6753C28.569 50.5535 28.1357 50.418 27.7023 50.242ZM27.7971 50.0118C28.2169 50.1743 28.6367 50.3232 29.0701 50.4316C29.1514 50.1066 29.2597 49.7815 29.3951 49.3888C29.5306 48.9825 29.7066 48.6169 29.9233 48.2512C29.9097 48.2512 29.8962 48.2512 29.8827 48.2512C29.5847 48.17 29.3545 48.0887 29.1243 47.9804C28.7315 48.3866 28.3794 48.8606 28.095 49.4023C27.9731 49.619 27.8784 49.8086 27.7971 50.0118ZM29.3274 50.4993C29.4087 50.1743 29.517 49.8492 29.6524 49.443C29.7879 49.0502 29.9504 48.671 30.1671 48.3054C30.7088 48.4273 31.0744 48.4679 31.5755 48.4679V50.7295C30.614 50.7295 30.0723 50.6753 29.3274 50.4993ZM30.0587 48.0345C30.3567 47.5335 30.7223 47.0595 31.1286 46.599C31.2369 46.4771 31.3588 46.3823 31.3588 46.3823C31.3588 46.3823 31.1692 46.4365 31.0067 46.5313C30.4515 46.8563 29.8691 47.2626 29.3274 47.7908C29.517 47.872 29.7202 47.9397 29.9775 48.0074C29.991 48.0074 30.0316 48.021 30.0587 48.0345ZM29.1107 52.463C29.1243 51.7317 29.1784 51.2306 29.2732 50.7431C30.0316 50.9327 30.5869 50.9733 31.589 50.9868V52.4494H29.1107V52.463ZM30.3025 48.0887C30.7765 48.197 31.1286 48.2377 31.5755 48.2377V46.4636C31.5755 46.4636 31.5213 46.4907 31.4536 46.5584C31.0202 47.0595 30.6275 47.5605 30.3025 48.0887ZM34.9476 57.9342C34.2569 58.354 33.485 58.652 32.6454 58.7739C33.2006 58.4624 33.7694 58.0561 34.284 57.5415C34.5278 57.6498 34.7174 57.7717 34.9476 57.9342ZM37.1415 55.6861C37.6426 54.8194 37.927 53.8308 37.9541 52.7609H36.3831C36.3425 53.4922 36.2477 54.2371 35.9227 55.0767C36.329 55.2528 36.7217 55.4424 37.1415 55.6861ZM37.0061 55.9028C36.5998 55.6726 36.2206 55.483 35.8143 55.3205C35.7331 55.5101 35.6383 55.6997 35.5299 55.9028C35.232 56.4581 34.8664 56.9321 34.4736 57.3519C34.6903 57.4738 34.907 57.6092 35.1643 57.7988C35.9091 57.2977 36.5321 56.6612 37.0061 55.9028ZM35.6789 54.9819C35.9904 54.1829 36.0852 53.4787 36.1258 52.7609H34.5278C34.5142 53.5328 34.4736 54.0339 34.3653 54.5485C34.8122 54.6704 35.2456 54.8059 35.6789 54.9819ZM35.5841 55.2121C35.1508 55.0496 34.7309 54.9007 34.2976 54.7923C34.2163 55.1173 34.1215 55.4424 33.9725 55.8351C33.8371 56.2414 33.6611 56.607 33.4444 56.9727C33.4579 56.9727 33.4715 56.9727 33.485 56.9727C33.7829 57.0539 34.0267 57.1352 34.2569 57.2435C34.6497 56.8373 35.0018 56.3633 35.2862 55.8216C35.4081 55.6049 35.5029 55.4153 35.5841 55.2121ZM34.0538 54.7246C33.9725 55.0496 33.8777 55.3747 33.7288 55.7809C33.5933 56.1737 33.4173 56.5529 33.2142 56.905C32.6724 56.7831 32.3068 56.7425 31.8057 56.7425V54.4808C32.7672 54.4944 33.309 54.535 34.0538 54.7246ZM32.0359 58.8416C32.0359 58.8416 32.2255 58.7874 32.3881 58.6926C32.9433 58.3676 33.5256 57.9613 34.0673 57.4331C33.8777 57.3519 33.6746 57.2842 33.4173 57.2165C33.3902 57.2165 33.3496 57.2029 33.3225 57.1894V57.1758C33.0246 57.6769 32.6589 58.1509 32.2526 58.6113C32.1443 58.7468 32.0359 58.8416 32.0359 58.8416ZM34.2705 52.7609C34.2569 53.4922 34.2163 53.9933 34.108 54.4808C33.3631 54.2912 32.7943 54.2506 31.8057 54.2371V52.7745H34.2705V52.7609ZM33.0787 57.1352C32.6047 57.0269 32.2526 56.9862 31.8057 56.9862V58.7603C31.8057 58.7603 31.8599 58.7332 31.9276 58.6655C32.3745 58.1644 32.7537 57.6634 33.0787 57.1352ZM28.4336 57.9342C29.1243 58.354 29.9097 58.652 30.7358 58.7739C30.1806 58.4624 29.6118 58.0561 29.0836 57.5415C28.867 57.6498 28.6638 57.7717 28.4336 57.9342ZM26.2397 55.6861C25.7386 54.8194 25.4542 53.8308 25.4407 52.7609H27.0116C27.0522 53.4922 27.147 54.2371 27.4585 55.0767C27.0522 55.2528 26.6595 55.4424 26.2397 55.6861ZM26.3751 55.9028C26.7679 55.6726 27.1606 55.483 27.5533 55.3205C27.6346 55.5101 27.7294 55.6997 27.8513 55.9028C28.1492 56.4581 28.5013 56.9321 28.9076 57.3519C28.6909 57.4738 28.4742 57.6092 28.2169 57.7988C27.4721 57.2977 26.8491 56.6612 26.3751 55.9028ZM27.7023 54.9819C27.3908 54.1829 27.296 53.4787 27.2689 52.7609H28.867C28.8805 53.5328 28.9211 54.0339 29.0295 54.5485C28.569 54.6704 28.1357 54.8059 27.7023 54.9819ZM27.7971 55.2121C28.2169 55.0496 28.6367 54.9007 29.0701 54.7923C29.1514 55.1173 29.2597 55.4424 29.3951 55.8351C29.5306 56.2414 29.7066 56.607 29.9233 56.9727C29.9097 56.9727 29.8962 56.9727 29.8827 56.9727C29.5847 57.0539 29.3545 57.1352 29.1243 57.2435C28.7315 56.8373 28.3794 56.3633 28.095 55.8216C27.9731 55.6049 27.8784 55.4153 27.7971 55.2121ZM29.3274 54.7246C29.4087 55.0496 29.517 55.3747 29.6524 55.7809C29.7879 56.1737 29.9504 56.5529 30.1671 56.905C30.7088 56.7831 31.0744 56.7425 31.5755 56.7425V54.4808C30.614 54.4944 30.0723 54.535 29.3274 54.7246ZM31.3588 58.8416C31.3588 58.8416 31.2369 58.7468 31.1286 58.6249C30.7223 58.1644 30.3567 57.6904 30.0587 57.1894V57.2029C30.0181 57.2029 29.991 57.2165 29.9639 57.23C29.7066 57.2977 29.517 57.3654 29.3139 57.4467C29.842 57.9748 30.4244 58.3811 30.9932 58.7061C31.1557 58.7874 31.3453 58.8416 31.3588 58.8416ZM29.1107 52.7609C29.1243 53.4922 29.1784 53.9933 29.2732 54.4808C30.0316 54.2912 30.5869 54.2506 31.589 54.2371V52.7745H29.1107V52.7609Z" fill="#FF0000"/>
<path fill-rule="evenodd" clip-rule="evenodd" d="M35.3943 57.9072C35.3943 57.9072 26.5645 48.6982 26.5645 48.6712C26.9707 48.143 27.4583 47.6825 27.9864 47.3169C28 47.3169 36.8027 56.5801 36.8027 56.5801C36.437 57.027 35.963 57.528 35.3943 57.9072Z" fill="#FFCC00"/>
<path d="M30.2345 60.2095H33.1597C33.2681 60.2095 33.3629 60.2636 33.4306 60.3584C33.4983 60.4532 33.5525 60.5751 33.5525 60.7241V61.0491C33.5525 61.1845 33.5119 61.32 33.4306 61.4148C33.3629 61.5096 33.2545 61.4554 33.1597 61.4554L31.7107 61.6044L30.2345 61.4825C30.1262 61.4825 30.0314 61.5096 29.9637 61.4148C29.896 61.32 29.8418 61.1981 29.8418 61.0491V60.7241C29.8418 60.5887 29.8824 60.4532 29.9637 60.3584C30.0314 60.2636 30.1262 60.2095 30.2345 60.2095ZM33.1597 60.521H30.2345C30.1939 60.521 30.1533 60.548 30.1262 60.5751C30.0991 60.6022 30.0856 60.6564 30.0856 60.7106V61.0356C30.0856 61.0897 30.0991 61.1304 30.1262 61.171C30.1533 61.2116 30.1939 61.2252 30.2345 61.2252H33.1597C33.2004 61.2252 33.241 61.1981 33.2681 61.171C33.2952 61.1439 33.3087 61.0897 33.3087 61.0356V60.7106C33.3087 60.6564 33.2952 60.6158 33.2681 60.5751C33.241 60.548 33.2004 60.521 33.1597 60.521Z" fill="white"/>
<path d="M30.9117 59.0176H32.4827C32.6181 59.0176 32.74 59.0717 32.8348 59.1665C32.9296 59.2613 32.9837 59.3832 32.9837 59.5187V59.8572C32.9837 59.9926 32.9296 60.1145 32.8348 60.2093C32.74 60.3041 32.6181 60.3583 32.4827 60.3583H30.9117C30.7763 60.3583 30.6544 60.3041 30.5596 60.2093C30.4648 60.1145 30.4106 59.9926 30.4106 59.8572V59.5187C30.4106 59.3832 30.4648 59.2613 30.5596 59.1665C30.6409 59.0717 30.7763 59.0176 30.9117 59.0176ZM32.4827 59.2749H30.9117C30.844 59.2749 30.7763 59.302 30.7221 59.3426C30.6815 59.3832 30.6544 59.4509 30.6544 59.5187V59.8572C30.6544 59.9249 30.6815 59.9791 30.7221 60.0333C30.7628 60.0739 30.8305 60.101 30.9117 60.101H32.4827C32.5504 60.101 32.6181 60.0739 32.6723 60.0333C32.7129 59.9926 32.74 59.9249 32.74 59.8572V59.5187C32.74 59.4509 32.7129 59.3968 32.6723 59.3426C32.6181 59.302 32.5504 59.2749 32.4827 59.2749Z" fill="white"/>
<path fill-rule="evenodd" clip-rule="evenodd" d="M30.3159 60.4531H33.0651C33.2005 60.4531 33.3224 60.575 33.3224 60.7375V61.0084C33.3224 61.1709 33.214 61.2928 33.0651 61.2928H30.3159C30.1805 61.2928 30.0586 61.1709 30.0586 61.0084V60.7375C30.0586 60.575 30.1805 60.4531 30.3159 60.4531Z" fill="#FFCC00"/>
<path fill-rule="evenodd" clip-rule="evenodd" d="M30.9794 59.2476H32.4014C32.591 59.2476 32.74 59.383 32.74 59.559V59.8434C32.74 60.0059 32.591 60.1549 32.4014 60.1549H30.9794C30.7898 60.1549 30.6409 60.0195 30.6409 59.8434V59.559C30.6409 59.383 30.7898 59.2476 30.9794 59.2476Z" fill="#FFCC00"/>
</svg>
