<svg width="24" height="24" viewBox="0 0 24 24" fill="none" xmlns="http://www.w3.org/2000/svg">
<path d="M11.9832 8.48402C12.0035 8.37239 12.105 8.24046 12.2471 8.14912L12.4196 8.00705H11.6686V0.0202968C11.6686 0.0101484 11.6788 0 11.6889 0C11.6991 0 11.7092 0.0101484 11.7092 0.0202968C12.034 3.91726 12.653 6.90088 13.6171 9.235C13.9013 9.92508 14.2159 10.5441 14.5609 11.1226C14.8045 11.5285 15.0683 11.9142 15.3525 12.2795C15.3017 12.2186 15.251 12.1577 15.1901 12.0968L15.0176 11.9243C14.977 11.8939 14.9466 11.8634 14.9161 11.833C14.8958 11.8127 14.8654 11.7822 14.8349 11.7619L14.7131 11.6706C14.703 11.6604 14.6903 11.6503 14.6776 11.6402C14.6649 11.63 14.6523 11.6199 14.6421 11.6097C14.6015 11.5691 14.5609 11.5387 14.5102 11.5082C14.5 11.5032 14.4899 11.4955 14.4797 11.4879C14.4696 11.4803 14.4594 11.4727 14.4493 11.4676C14.3985 11.427 14.3478 11.3966 14.2971 11.3661C14.2869 11.3611 14.2793 11.356 14.2717 11.3509C14.2641 11.3459 14.2565 11.3408 14.2463 11.3357C14.1854 11.2951 14.1347 11.2647 14.0738 11.2342C14.0636 11.2342 14.0434 11.2241 14.0332 11.2139L13.8505 11.1226C13.8455 11.1175 13.8404 11.115 13.8353 11.1124C13.8302 11.1099 13.8252 11.1074 13.8201 11.1023C13.7592 11.0718 13.6983 11.0414 13.6273 11.011C13.6222 11.011 13.6171 11.0084 13.612 11.0059C13.607 11.0033 13.6019 11.0008 13.5968 11.0008C13.5613 10.9856 13.5258 10.9729 13.4903 10.9602C13.4547 10.9475 13.4192 10.9348 13.3837 10.9196C13.3786 10.9196 13.3761 10.9171 13.3736 10.9145C13.371 10.912 13.3685 10.9095 13.3634 10.9095C13.3279 10.8993 13.2898 10.8866 13.2518 10.874C13.2137 10.8613 13.1757 10.8486 13.1401 10.8384C13.13 10.8283 13.13 10.8283 13.1199 10.8283C13.0488 10.808 12.9778 10.7877 12.8966 10.7674H12.8864C12.8462 10.7573 12.8084 10.7498 12.7707 10.7423L12.7699 10.7421L12.7697 10.742C12.7316 10.7344 12.6936 10.7268 12.653 10.7167H12.6429C12.5718 10.6964 12.4907 10.6862 12.4095 10.6761H12.3993L12.1558 10.6456H12.1355C12.0949 10.6456 12.0543 10.6431 12.0137 10.6405C11.9731 10.638 11.9325 10.6355 11.8919 10.6355H11.8716C12.0441 10.605 12.2065 10.5441 12.3283 10.4629C12.5008 10.3412 12.6023 10.1788 12.6023 9.99612C12.6023 9.8236 12.511 9.65108 12.3283 9.5293C12.2674 9.4887 12.2065 9.45826 12.1355 9.42781H12.4399L12.2369 9.30603C12.105 9.2147 12.0238 9.11322 11.9832 8.98129C12.1355 9.00158 12.2674 9.08277 12.379 9.20455L12.5008 9.33648V8.10853L12.379 8.24046C12.2572 8.38253 12.1253 8.46372 11.9832 8.48402Z" fill="#008AD2"/>
<path d="M9.88254 8.97111C9.7912 8.99141 9.71002 9.0117 9.62883 9.04215C9.38527 8.4231 8.87785 7.96642 8.2791 7.7736C8.55311 7.41841 8.93874 7.13426 9.41572 7.01248C9.7912 6.911 10.1768 6.92114 10.532 7.01248C10.3392 7.70257 10.1261 8.35206 9.88254 8.97111Z" fill="#008AD2"/>
<path d="M16.2151 10.463C16.2557 10.5036 16.2963 10.5416 16.3369 10.5797C16.3775 10.6177 16.4181 10.6558 16.4587 10.6964C16.55 10.7877 16.6413 10.8891 16.7326 10.9906C17.2299 10.5745 17.8794 10.4325 18.4883 10.5442C18.4376 10.0773 18.2346 9.62065 17.8693 9.25531C17.5242 8.91027 17.0879 8.7073 16.6413 8.64641C16.7834 9.27561 16.6413 9.9454 16.2151 10.463Z" fill="#008AD2"/>
<path d="M18.3057 14.1062C18.2549 13.8627 18.1839 13.6293 18.1128 13.3958C18.742 13.1523 19.1987 12.6449 19.3915 12.0461C19.7467 12.3201 20.0309 12.7057 20.1527 13.1827C20.2846 13.6698 20.2338 14.1671 20.041 14.6035C19.5742 14.1976 18.945 14.0047 18.3057 14.1062Z" fill="#008AD2"/>
<path d="M18.1737 17.3537C18.1534 17.4349 18.1332 17.5059 18.1027 17.5871C18.7116 17.8205 19.1581 18.2975 19.3611 18.8861C19.7366 18.6019 20.0309 18.196 20.1628 17.7089C20.2643 17.3334 20.2542 16.9477 20.1628 16.5925C19.4727 16.8158 18.8131 17.0797 18.1737 17.3537Z" fill="#008AD2"/>
<path d="M16.5855 20.1039C16.5475 20.1445 16.5094 20.1851 16.4688 20.2257C16.4231 20.2714 16.3749 20.317 16.3267 20.3627C16.2785 20.4084 16.2303 20.454 16.1847 20.4997C16.6007 20.997 16.7428 21.6465 16.6312 22.2554C17.098 22.2046 17.5547 22.0017 17.92 21.6363C18.2651 21.2913 18.468 20.8549 18.5289 20.4084C17.8896 20.5504 17.2198 20.4084 16.7022 19.9821C16.6616 20.0227 16.6236 20.0633 16.5855 20.1039Z" fill="#008AD2"/>
<path d="M6.69596 10.94C6.73655 10.8994 6.77461 10.8588 6.81267 10.8182C6.85072 10.7776 6.88878 10.737 6.92937 10.6964C7.02069 10.6051 7.12216 10.5138 7.22363 10.4224C6.80754 9.92516 6.66551 9.27563 6.77714 8.66673C6.31032 8.71747 5.85365 8.92044 5.48831 9.28578C5.14326 9.63082 4.94029 10.0672 4.8794 10.5137C5.5086 10.3818 6.17839 10.5239 6.69596 10.94Z" fill="#008AD2"/>
<path d="M5.29547 13.3451C5.22444 13.5785 5.1534 13.8119 5.10266 14.0555C4.44301 13.9438 3.79352 14.157 3.32669 14.5933C3.15417 14.1671 3.11358 13.7003 3.23536 13.2233C3.36729 12.7362 3.65144 12.3303 4.03708 12.0461C4.24005 12.6347 4.68657 13.1117 5.29547 13.3451Z" fill="#008AD2"/>
<path d="M7.17293 20.4692C7.13233 20.4286 7.09174 20.3905 7.05115 20.3525C7.01055 20.3144 6.96996 20.2764 6.92937 20.2358C6.8837 20.1901 6.83803 20.1419 6.79236 20.0937C6.7467 20.0455 6.70103 19.9973 6.65536 19.9516C6.15809 20.3677 5.5086 20.5098 4.8997 20.3981C4.95044 20.865 5.1534 21.3216 5.51875 21.687C5.86379 22.032 6.30017 22.235 6.7467 22.2959C6.61477 21.6565 6.75684 20.9867 7.17293 20.4692Z" fill="#008AD2"/>
<path d="M9.57809 21.8697C9.8115 21.9407 10.0449 22.0118 10.2885 22.0625C10.1768 22.7221 10.39 23.3716 10.8263 23.8385C10.4001 24.011 9.93328 24.0516 9.45631 23.9298C8.96919 23.7979 8.56325 23.5137 8.2791 23.1281C8.86771 22.9251 9.34468 22.4786 9.57809 21.8697Z" fill="#008AD2"/>
<path d="M13.7694 21.8798C13.5359 21.9508 13.3025 22.0219 13.059 22.0726C13.1604 22.712 12.9676 23.3412 12.5617 23.808C12.9981 24.0008 13.4953 24.0515 13.9825 23.9196C14.4594 23.7978 14.8451 23.5137 15.1191 23.1585C14.5203 22.9657 14.0129 22.509 13.7694 21.8798Z" fill="#008AD2"/>
<path d="M10.5523 22.1031C10.9278 22.1741 11.3033 22.2046 11.6991 22.2046C12.0847 22.2046 12.4704 22.1741 12.8458 22.1031C12.8458 23.0976 12.3283 23.8993 11.6991 23.8993C11.0699 23.8993 10.5523 23.0976 10.5523 22.1031Z" fill="#008AD2"/>
<path d="M14.0332 21.7986C14.5305 22.6613 15.3829 23.0976 15.9208 22.783C16.4688 22.4684 16.5094 21.5145 16.0121 20.6519C15.4235 21.139 14.7537 21.5246 14.0332 21.7986Z" fill="#008AD2"/>
<path d="M18.0215 13.1421C17.7577 12.4114 17.3619 11.7416 16.8747 11.153C17.7475 10.6558 18.7014 10.6964 19.0059 11.2545C19.3205 11.7924 18.8841 12.6448 18.0215 13.1421Z" fill="#008AD2"/>
<path d="M14.0332 9.13346C14.7639 9.39732 15.4337 9.79311 16.0223 10.2802C16.5196 9.41762 16.479 8.46367 15.9309 8.14908C15.3728 7.83448 14.5305 8.27086 14.0332 9.13346Z" fill="#008AD2"/>
<path d="M7.47737 8.14908C8.01523 7.83448 8.86769 8.27086 9.36496 9.13346C8.63428 9.40747 7.96449 9.79311 7.38603 10.2802C6.88876 9.41762 6.92936 8.46367 7.47737 8.14908Z" fill="#008AD2"/>
<path d="M5.36653 13.132C5.63039 12.4013 6.02618 11.7315 6.5133 11.1429C5.65069 10.6456 4.69674 10.6862 4.38214 11.2342C4.06754 11.7924 4.50392 12.6347 5.36653 13.132Z" fill="#008AD2"/>
<path d="M3.26074 15.532C3.25821 15.5092 3.25567 15.4863 3.25567 15.466C3.25567 14.8368 4.05739 14.3193 5.05193 14.3193C5.02401 14.4775 5.00463 14.6527 4.98595 14.8216L4.98089 14.8673C4.45317 15.1514 3.87472 15.395 3.26582 15.598C3.26582 15.5777 3.26328 15.5548 3.26074 15.532Z" fill="#008AD2"/>
<path d="M6.5133 19.7791C6.02618 19.1905 5.63039 18.5207 5.36653 17.79C4.50392 18.2873 4.06754 19.1398 4.38214 19.6776C4.69674 20.2358 5.65069 20.2764 6.5133 19.7791Z" fill="#008AD2"/>
<path d="M7.3759 20.6519C7.9645 21.139 8.63429 21.5348 9.36497 21.7986C8.8677 22.6511 8.02539 23.0976 7.46723 22.783C6.91922 22.4684 6.87863 21.5145 7.3759 20.6519Z" fill="#008AD2"/>
<path fill-rule="evenodd" clip-rule="evenodd" d="M10.9887 9.16398C11.1308 9.00161 11.3033 8.92042 11.4961 8.91027C11.4758 9.12338 11.3642 9.26546 11.2018 9.3568H12.2167C12.0441 9.24516 11.9426 9.10309 11.9122 8.90012C12.1253 8.91027 12.2978 8.99146 12.4399 9.15383V8.28107C12.2775 8.46374 12.105 8.55508 11.9122 8.55508C11.9021 8.3927 12.034 8.21003 12.2167 8.08825H11.2018C11.3743 8.19988 11.486 8.34196 11.5164 8.56522C11.2932 8.53478 11.1308 8.45359 10.9887 8.30137V9.16398ZM11.3135 8.69715H11.6686V8.35211H11.76V8.69715H12.1355V8.78849H11.76V9.14368H11.6686V8.78849H11.3135V8.69715Z" fill="#008AD2"/>
<path fill-rule="evenodd" clip-rule="evenodd" d="M11.689 10.534C11.4657 10.534 11.2627 10.4731 11.1206 10.3716C10.9887 10.2701 10.8974 10.1382 10.8974 9.99614C10.8974 9.85406 10.9786 9.72214 11.1206 9.62065C11.2627 9.51917 11.4657 9.45828 11.689 9.45828C11.9122 9.45828 12.1152 9.51917 12.2573 9.62065C12.3892 9.72214 12.4805 9.85406 12.4805 9.99614C12.4805 10.1382 12.3993 10.2701 12.2573 10.3716C12.1152 10.4731 11.9122 10.534 11.689 10.534ZM11.1612 9.91496C11.1308 9.91496 11.1105 9.93525 11.1105 9.9657V10.0164C11.1105 10.0469 11.1308 10.0672 11.1612 10.0672H12.2268C12.2573 10.0672 12.2776 10.0469 12.2776 10.0164V9.9657C12.2776 9.93525 12.2573 9.91496 12.2268 9.91496H11.1612Z" fill="#008AD2"/>
<path d="M18.0317 17.8002C17.7678 18.5309 17.372 19.2007 16.8849 19.7893C17.7475 20.2866 18.7015 20.246 19.0161 19.698C19.3307 19.1398 18.8841 18.2975 18.0317 17.8002Z" fill="#008AD2"/>
<path d="M21.9388 16.0445C19.2494 15.5777 17.1589 14.4411 15.596 12.584C16.1948 13.3857 16.5601 14.3904 16.5601 15.4661C16.5601 15.6589 16.55 15.8517 16.5195 16.0445V16.0851H21.9388C21.9489 16.0851 21.9591 16.075 21.9591 16.0648C21.9591 16.0547 21.9591 16.0445 21.9388 16.0445Z" fill="#008AD2"/>
<path fill-rule="evenodd" clip-rule="evenodd" d="M7.78182 12.6144C7.06128 13.4669 6.21897 14.1773 5.24473 14.7354C5.4071 13.2335 6.08704 11.8837 7.10188 10.8689C7.83256 10.1281 8.74591 9.56991 9.76075 9.25531C9.47659 9.93525 9.16199 10.5644 8.81695 11.1429C8.58354 11.5488 8.32983 11.9142 8.05582 12.2694C7.96449 12.3912 7.87315 12.5028 7.78182 12.6144ZM8.23849 10.4325L8.14716 10.7065H7.863L8.09642 10.879L8.00508 11.1531L8.23849 10.9805L8.4719 11.1531L8.38057 10.879L8.61398 10.7065H8.32983L8.23849 10.4325ZM6.50313 13.1827L6.73654 13.3552L6.6452 13.0812L6.87861 12.9087H6.59446L6.50313 12.6347L6.41179 12.9087H6.12764L6.36105 13.0812L6.26971 13.3552L6.50313 13.1827ZM7.33529 11.7011L7.24395 11.4271L7.15262 11.7011H6.86847L7.10188 11.8736L7.01054 12.1476L7.24395 11.9751L7.47737 12.1476L7.38603 11.8736L7.61944 11.7011H7.33529Z" fill="#008AD2"/>
<path d="M14.3478 19.3123C14.2954 19.2542 14.2231 19.1793 14.1364 19.0897L14.1354 19.0886C14.0712 19.0222 13.9991 18.9477 13.9216 18.8658C13.8962 18.8912 13.8734 18.9166 13.8505 18.9419C13.8277 18.9673 13.8049 18.9927 13.7795 19.018C13.9419 19.1094 14.1042 19.2109 14.2971 19.3529C14.309 19.341 14.3208 19.3326 14.3307 19.3257C14.3377 19.3208 14.3436 19.3165 14.3478 19.3123Z" fill="#008AD2"/>
<path d="M13.6273 18.9368C13.4548 18.8556 13.2721 18.7947 13.0488 18.7338C13.0387 18.7338 13.0285 18.7237 13.0387 18.7237C13.1402 18.5512 13.2214 18.3786 13.3025 18.196C13.42 18.3265 13.5333 18.4444 13.6396 18.5551L13.6399 18.5554L13.6401 18.5557C13.699 18.6169 13.7558 18.6761 13.81 18.7338C13.7491 18.8048 13.6882 18.8759 13.6273 18.9368Z" fill="#008AD2"/>
<path d="M13.6476 19.1601C13.2619 19.5457 12.8357 19.8501 12.4196 20.0836C13.0387 19.9922 13.6273 19.769 14.1448 19.4544C13.9622 19.3326 13.8201 19.2412 13.6476 19.1601Z" fill="#008AD2"/>
<path d="M12.8458 18.6831C12.4399 18.5917 12.1659 18.5613 11.7904 18.5613V16.8564C11.8716 16.8665 11.9426 16.8665 12.0137 16.8665L12.1494 17.009L12.15 17.0096C12.5059 17.3835 12.8441 17.7387 13.1503 18.0539C13.0691 18.267 12.9575 18.4801 12.8458 18.6831Z" fill="#008AD2"/>
<path d="M11.831 16.6737C11.8259 16.6636 11.8183 16.656 11.8107 16.6483C11.8031 16.6407 11.7955 16.6331 11.7904 16.623V16.6737H11.831Z" fill="#008AD2"/>
<path d="M11.9528 20.1242C11.9528 20.1242 12.0441 20.0531 12.1253 19.9618C12.4298 19.6168 12.6936 19.2616 12.9169 18.8759V18.8861C12.9372 18.8962 12.9676 18.9064 12.9879 18.9064C13.1807 18.9571 13.333 19.0079 13.4751 19.0687C13.0691 19.4645 12.6327 19.769 12.2167 20.0125C12.0949 20.0836 11.9528 20.1242 11.9528 20.1242Z" fill="#008AD2"/>
<path d="M11.6078 16.8564C10.8872 16.8665 10.4813 16.9071 9.92313 17.0492C9.98402 17.2927 10.0652 17.5363 10.1667 17.8408C10.2682 18.1351 10.39 18.4192 10.5523 18.6831C10.9583 18.5917 11.2323 18.5613 11.6078 18.5613V16.8564Z" fill="#008AD2"/>
<path d="M11.6077 18.744V20.0735C11.6077 20.0735 11.5672 20.0532 11.5164 20.0024C11.1815 19.6269 10.8974 19.2514 10.6538 18.8556C11.009 18.7745 11.2729 18.744 11.6077 18.744Z" fill="#008AD2"/>
<path d="M11.4454 20.1343C11.4454 20.1343 11.354 20.0633 11.2728 19.972C10.9684 19.6269 10.6944 19.2717 10.4711 18.8962V18.9064C10.4407 18.9064 10.4204 18.9165 10.4001 18.9267C10.2073 18.9774 10.0652 19.0282 9.91297 19.0891C10.3088 19.4848 10.7451 19.7893 11.1714 20.0329C11.2931 20.0937 11.4352 20.1343 11.4454 20.1343Z" fill="#008AD2"/>
<path d="M9.80134 14.5629C10.0449 14.8166 10.2986 15.0804 10.5625 15.3544H9.76075C9.76075 15.05 9.78104 14.7963 9.80134 14.5629Z" fill="#008AD2"/>
<path d="M11.7904 20.0735C11.7904 20.0735 11.831 20.0532 11.8817 20.0024C12.2166 19.6269 12.5008 19.2514 12.7444 18.8556C12.3892 18.7745 12.1253 18.744 11.7904 18.744V20.0735Z" fill="#008AD2"/>
<path d="M14.7943 17.4958C15.0988 17.6176 15.3829 17.7596 15.6874 17.9322L15.4134 18.328C15.35 18.2597 15.2631 18.168 15.1563 18.0551L15.1559 18.0547C15.0405 17.9328 14.9016 17.7861 14.7436 17.6176C14.7537 17.577 14.774 17.5364 14.7943 17.4958Z" fill="#008AD2"/>
<path d="M12.8052 15.5777C13.0589 15.8509 13.3126 16.1148 13.5573 16.3692L13.5867 16.3997C13.6171 16.1663 13.6273 15.9025 13.6374 15.5777H12.8052Z" fill="#008AD2"/>
<path d="M12.5639 15.3149C12.3087 15.05 12.0449 14.776 11.7904 14.502V14.2381C12.5312 14.228 12.9575 14.1975 13.5156 14.0555C13.5968 14.4208 13.6273 14.7963 13.6374 15.3443H12.5921L12.5639 15.3149Z" fill="#008AD2"/>
<path d="M10.3494 12.1983C10.1261 12.1374 9.95358 12.0766 9.78106 11.9954C9.72017 12.0563 9.65928 12.1273 9.59839 12.1983C9.75061 12.3607 9.92313 12.5434 10.116 12.7362C10.1971 12.5535 10.2783 12.381 10.39 12.1983H10.3494Z" fill="#008AD2"/>
<path d="M9.26349 19.4544C9.43601 19.3326 9.57808 19.2412 9.75061 19.1601C10.1464 19.5457 10.5625 19.8501 10.9887 20.0836C10.3697 19.9922 9.78105 19.769 9.26349 19.4544Z" fill="#008AD2"/>
<path d="M8.38058 15.3545H9.57809C9.58824 14.9587 9.59839 14.6543 9.63898 14.3802C9.45631 14.1874 9.28379 14.0048 9.12141 13.8322C8.98948 13.7916 8.84741 13.7409 8.71548 13.6902C8.47192 14.2889 8.40088 14.8166 8.38058 15.3545Z" fill="#008AD2"/>
<path d="M15.2104 15.3545C15.18 14.7963 15.1089 14.2483 14.8654 13.6191C15.18 13.4872 15.4641 13.3451 15.7787 13.1624C16.1542 13.8119 16.3673 14.5528 16.3876 15.3545H15.2104Z" fill="#008AD2"/>
<path d="M11.6078 14.2483H11.5469C11.557 14.2585 11.5672 14.2711 11.5773 14.2838C11.5874 14.2965 11.5976 14.3092 11.6078 14.3194V14.2483Z" fill="#008AD2"/>
<path d="M10.5523 12.2491C10.9583 12.3404 11.2323 12.3709 11.6077 12.3709H11.6179V14.0758C11.5367 14.0656 11.4555 14.0656 11.3744 14.0656C10.9684 13.6495 10.5828 13.2436 10.2479 12.8884C10.3291 12.6652 10.4305 12.4622 10.5523 12.2491Z" fill="#008AD2"/>
<path d="M8.78652 13.5176C8.79159 13.5176 8.79667 13.5201 8.80174 13.5227C8.80681 13.5252 8.81189 13.5277 8.81696 13.5277L8.78652 13.4973V13.5176Z" fill="#008AD2"/>
<path d="M8.59369 13.4364C8.29939 13.3146 8.00508 13.1726 7.71078 13L7.95434 12.6347C8.01083 12.6955 8.08779 12.775 8.18123 12.8714L8.18141 12.8716L8.18163 12.8718C8.30634 13.0006 8.46038 13.1596 8.63428 13.3451C8.62921 13.3603 8.6216 13.3755 8.61399 13.3907C8.60637 13.406 8.59876 13.4212 8.59369 13.4364Z" fill="#008AD2"/>
<path d="M14.6117 17.4146C14.5812 17.4044 14.5508 17.3943 14.5203 17.374L14.6015 17.4552C14.6015 17.451 14.6033 17.4468 14.6053 17.4418C14.6082 17.4349 14.6117 17.4265 14.6117 17.4146Z" fill="#008AD2"/>
<path d="M9.25162 11.8425C9.16497 11.7529 9.09259 11.678 9.04023 11.6199C9.06052 11.6097 9.08082 11.5894 9.09097 11.5691C9.28379 11.7112 9.44616 11.8127 9.60853 11.904C9.58317 11.9294 9.56034 11.9573 9.53751 11.9852C9.51468 12.0131 9.49182 12.041 9.46646 12.0664C9.38867 11.9843 9.3164 11.9095 9.25201 11.8429L9.25162 11.8425Z" fill="#008AD2"/>
<path d="M15.0176 15.5777H13.8201C13.81 15.9938 13.7897 16.2982 13.7592 16.5824C13.8391 16.6673 13.9189 16.7497 13.9976 16.8308L13.9978 16.831C14.079 16.9148 14.1589 16.9972 14.2362 17.0797L14.2364 17.0798L14.2369 17.08C14.3888 17.1306 14.5409 17.1813 14.6929 17.242C14.9263 16.6433 14.9872 16.1156 15.0176 15.5777Z" fill="#008AD2"/>
<path d="M11.5794 16.4211L11.6077 16.4505H11.6179V16.6839C10.8669 16.694 10.4508 16.7245 9.88252 16.8666C9.81149 16.5012 9.77089 16.1257 9.76075 15.5777H10.7756C11.0401 15.8619 11.3142 16.146 11.5794 16.4211Z" fill="#008AD2"/>
<path d="M9.68971 16.9173C9.60853 16.5317 9.57808 16.1562 9.56793 15.5777H8.37043C8.40087 16.1156 8.47191 16.6331 8.69517 17.242C9.03007 17.1101 9.36496 17.0086 9.68971 16.9173Z" fill="#008AD2"/>
<path d="M8.18777 15.3545H7.01056C7.02071 14.5528 7.24397 13.8018 7.60931 13.1624C7.92391 13.3451 8.20806 13.4872 8.52266 13.6191C8.28925 14.2483 8.21821 14.8065 8.18777 15.3545Z" fill="#008AD2"/>
<path d="M11.7904 10.8587V12.1882C12.1152 12.1882 12.3892 12.1577 12.7444 12.0765C12.5008 11.6807 12.2166 11.3053 11.8817 10.9298C11.831 10.879 11.7904 10.8587 11.7904 10.8587Z" fill="#008AD2"/>
<path d="M15.2104 15.5777H16.3876C16.3673 16.3794 16.1542 17.1203 15.7787 17.7698C15.4641 17.5871 15.18 17.445 14.8654 17.3131C15.1089 16.6839 15.18 16.1257 15.2104 15.5777Z" fill="#008AD2"/>
<path d="M11.6077 10.8587C11.6077 10.8587 11.5672 10.879 11.5164 10.9298C11.1917 11.3053 10.8974 11.6807 10.6538 12.0765C11.009 12.1577 11.2729 12.1882 11.6077 12.1882V10.8587Z" fill="#008AD2"/>
<path d="M12.1253 10.9603C12.0441 10.8689 11.9528 10.7979 11.9528 10.7979C11.9528 10.7979 12.0949 10.8385 12.2268 10.8994C12.6429 11.1429 13.0894 11.4474 13.4852 11.8432C13.333 11.9041 13.1909 11.9548 12.9981 12.0055C12.9778 12.0157 12.9473 12.0258 12.927 12.0258V12.036C12.7038 11.6605 12.4298 11.3053 12.1253 10.9603Z" fill="#008AD2"/>
<path d="M11.7904 14.0656C12.5109 14.0554 12.9169 14.0148 13.475 13.8728C13.4142 13.6292 13.3431 13.3856 13.2315 13.0812C13.13 12.7869 12.9981 12.5027 12.8458 12.2389C12.4399 12.3302 12.1659 12.3606 11.7904 12.3606V14.0656Z" fill="#008AD2"/>
<path d="M10.4102 12.0156C10.2174 11.9649 10.0652 11.9142 9.92313 11.8533C10.3189 11.4676 10.7553 11.153 11.1917 10.9196C11.3135 10.8486 11.4555 10.808 11.4555 10.808C11.4555 10.808 11.3642 10.879 11.283 10.9704C10.9786 11.3154 10.7046 11.6706 10.4813 12.0461V12.0359C10.4732 12.0332 10.4658 12.0305 10.4589 12.028C10.4401 12.0211 10.4251 12.0156 10.4102 12.0156Z" fill="#008AD2"/>
<path d="M9.75061 11.7721C10.1464 11.3865 10.5726 11.082 10.9887 10.8486C10.3697 10.94 9.78105 11.1632 9.26349 11.4778C9.43601 11.5996 9.57808 11.6909 9.75061 11.7721Z" fill="#008AD2"/>
<path d="M10.3494 18.7339C10.1362 18.7947 9.95358 18.8658 9.78106 18.9368C9.48675 18.6222 9.2229 18.267 9.00978 17.8611C8.91845 17.7089 8.84741 17.5668 8.78652 17.4146C9.10112 17.2928 9.41572 17.1913 9.74046 17.1C9.80135 17.3435 9.88254 17.5871 9.98402 17.8814C10.0855 18.1858 10.2174 18.4598 10.3798 18.7339H10.3494Z" fill="#008AD2"/>
<path d="M13.6171 11.9954C13.4446 12.0664 13.2619 12.1374 13.0387 12.1983H13.0082C13.1706 12.4723 13.3025 12.7463 13.404 13.0508C13.5055 13.3451 13.5867 13.5887 13.6476 13.8322C13.9723 13.7409 14.2869 13.6394 14.6117 13.5176C14.5508 13.3654 14.4797 13.2233 14.3884 13.0711C14.1753 12.655 13.9114 12.31 13.6171 11.9954Z" fill="#008AD2"/>
<path d="M13.8201 15.3545C13.8099 14.7659 13.7795 14.4005 13.6983 14.0149C14.0332 13.9236 14.358 13.8221 14.6827 13.6902C14.9263 14.2991 14.9871 14.8166 15.0176 15.3545H13.8201Z" fill="#008AD2"/>
<path d="M9.10112 19.3529C9.28379 19.221 9.44616 19.1094 9.61868 19.018C9.31423 18.7034 9.05038 18.3483 8.82711 17.9322C8.74594 17.78 8.67491 17.6379 8.60389 17.4959C8.30959 17.6176 8.01524 17.7596 7.72094 17.9322C8.06599 18.5005 8.53281 18.9774 9.10112 19.3529Z" fill="#008AD2"/>
<path d="M13.6374 11.7721C13.2518 11.3865 12.8256 11.082 12.4095 10.8486C13.0387 10.94 13.6171 11.1632 14.1245 11.4778C13.952 11.5996 13.8099 11.6909 13.6374 11.7721Z" fill="#008AD2"/>
<path d="M8.53281 17.3131C8.28925 16.6839 8.21821 16.1359 8.19791 15.5777H7.01056C7.02071 16.3794 7.23382 17.1203 7.60931 17.7698C7.92391 17.5871 8.21821 17.445 8.53281 17.3131Z" fill="#008AD2"/>
<path d="M13.7795 11.9141C13.952 11.8228 14.1144 11.7112 14.2971 11.5792C14.8552 11.9446 15.3322 12.4317 15.6772 13C15.3728 13.1725 15.0886 13.3146 14.7842 13.4364C14.7233 13.2943 14.6523 13.1522 14.5711 13C14.3478 12.5839 14.0738 12.2287 13.7795 11.9141Z" fill="#008AD2"/>
<path d="M10.6639 21.961H12.7241C12.8255 21.961 12.9169 21.8697 12.9169 21.7479V21.545C12.9169 21.4232 12.8357 21.3318 12.7241 21.3318H10.6639C10.5625 21.3318 10.4711 21.4232 10.4711 21.545V21.7479C10.4813 21.8697 10.5625 21.961 10.6639 21.961Z" fill="#008AD2"/>
<path d="M10.9075 20.8751V20.662C10.9075 20.5402 11.0191 20.4388 11.1612 20.4286H12.2268C12.3689 20.4286 12.4805 20.5402 12.4805 20.662V20.8751C12.4805 21.0071 12.3689 21.1085 12.2268 21.1085H11.1612C11.0191 21.1085 10.9075 20.9969 10.9075 20.8751Z" fill="#008AD2"/>
<path d="M10.8263 21.1593H10.8466C10.7857 21.0883 10.7451 20.997 10.7451 20.9056V20.6519C10.7451 20.5504 10.7857 20.4591 10.8568 20.3881C10.9278 20.317 11.0191 20.2764 11.1206 20.2764H11.1409C8.92859 20.0227 7.17293 18.2873 6.89892 16.0851V16.0547H1.5203C1.51015 16.0547 1.5 16.0547 1.5 16.0649C1.5 16.0692 1.5 16.0716 1.50078 16.0739C1.50183 16.0768 1.50428 16.0793 1.51003 16.085L1.5203 16.0851C3.83412 16.6535 5.8029 17.4856 7.42663 18.4599C8.78651 19.2819 9.92313 20.2155 10.8263 21.1593Z" fill="#008AD2"/>
<path fill-rule="evenodd" clip-rule="evenodd" d="M10.532 21.1695C10.4813 21.1897 10.4407 21.2202 10.4001 21.2709C10.3392 21.3318 10.3088 21.4333 10.3088 21.5348V21.8189C9.07067 21.5449 7.9645 20.9259 7.10189 20.0633C6.45239 19.4138 5.93483 18.6324 5.61008 17.7596C6.18854 18.0336 6.7467 18.3279 7.28456 18.6425C8.5328 19.3833 9.61868 20.2358 10.532 21.1695ZM7.20337 19.292L7.43678 19.4645L7.34545 19.1804L7.57886 19.018H7.29471L7.20337 18.744L7.11204 19.018H6.82788L7.06129 19.1905L6.96996 19.4645L7.20337 19.292ZM8.2791 20.2967L8.51251 20.4692L8.42117 20.1851L8.65458 20.0227H8.37043L8.2791 19.7487L8.18776 20.0227H7.90361L8.13702 20.1952L8.04568 20.4692L8.2791 20.2967ZM9.46645 21.0477L9.69987 21.2202L9.60853 20.936L9.84194 20.7737H9.55779L9.46645 20.4997L9.37512 20.7737H9.09096L9.32438 20.9462L9.23304 21.2202L9.46645 21.0477Z" fill="#008AD2"/>
<path d="M5.20415 17.5668C4.5648 17.2826 3.89501 17.0289 3.20492 16.7955C3.14403 17.1 3.15418 17.4247 3.23537 17.7495C3.35715 18.2264 3.6413 18.6121 3.9965 18.8861C4.18931 18.3076 4.61554 17.8205 5.20415 17.5668Z" fill="#008AD2"/>
<path fill-rule="evenodd" clip-rule="evenodd" d="M16.2861 20.0633C15.4235 20.9259 14.3174 21.5551 13.0793 21.819C13.0894 21.7987 13.0894 21.7885 13.0793 21.7885V21.545C13.0793 21.4333 13.0387 21.342 12.9879 21.271C12.9372 21.1999 12.8661 21.1593 12.785 21.1593H12.582C13.9622 19.7081 15.7787 18.4599 17.8693 17.4958C17.5445 18.47 16.9965 19.3529 16.2861 20.0633ZM16.1847 18.7542L16.0933 19.0282L15.8092 19.0383L16.0426 19.2007L15.9512 19.4747L16.1847 19.3022L16.4181 19.4747L16.3267 19.2007L16.5601 19.0282H16.276L16.1847 18.7542ZM15.1089 19.7487L15.0176 20.0227L14.7233 20.0329L14.9567 20.1952L14.8654 20.4693L15.0988 20.2967L15.3322 20.4693L15.2409 20.1952L15.4844 20.0227H15.2003L15.1089 19.7487ZM13.9216 20.4997L13.8302 20.7737L13.5461 20.7839L13.7795 20.9462L13.6882 21.2202L13.9216 21.0477L14.155 21.2202L14.0636 20.9462L14.2971 20.7737H14.0129L13.9216 20.4997Z" fill="#008AD2"/>
<path d="M18.3463 14.3193C18.3647 14.4024 18.3748 14.4939 18.3841 14.5785L18.3868 14.6034C18.9349 14.9079 19.5133 15.1616 20.1425 15.3646C20.0613 14.7861 19.2901 14.3193 18.3463 14.3193Z" fill="#008AD2"/>
<path fill-rule="evenodd" clip-rule="evenodd" d="M14.7639 11.0313C14.4493 10.5137 14.1753 9.95555 13.9114 9.3568C14.8146 9.68154 15.6265 10.1991 16.2963 10.8689C17.2502 11.8228 17.9099 13.0609 18.123 14.4513C16.753 13.6292 15.6468 12.5028 14.7639 11.0313ZM15.1597 10.9704L15.3931 11.1429L15.3018 10.8689L15.5352 10.6964H15.251L15.1597 10.4224L15.0683 10.6964H14.7842L15.0176 10.8689L14.9263 11.1429L15.1597 10.9704ZM16.9864 12.9189L16.895 12.6449L16.8037 12.9189H16.5196L16.753 13.0914L16.6616 13.3654L16.895 13.1929L17.1285 13.3654L17.0371 13.0914L17.2705 12.9189H16.9864ZM16.3876 12.1374L16.2963 11.8634L16.5297 11.6909H16.2456L16.1542 11.4169L16.0629 11.6909H15.7787L16.0121 11.8634L15.9208 12.1374L16.1542 11.9649L16.3876 12.1374Z" fill="#008AD2"/>
<path d="M13.8201 9.06248C14.0535 8.45358 14.5305 8.00705 15.1191 7.80408C14.8349 7.42859 14.429 7.13429 13.9419 7.00236C13.6476 6.92117 13.3533 6.91103 13.0793 6.95162C13.2924 7.71275 13.5258 8.40283 13.7897 9.05233C13.7947 9.05233 13.7998 9.05486 13.8049 9.0574C13.81 9.05994 13.815 9.06248 13.8201 9.06248Z" fill="#008AD2"/>
</svg>
