<svg width="32" height="32" viewBox="0 0 32 32" fill="none" xmlns="http://www.w3.org/2000/svg">
<g clip-path="url(#clip0)">
<path d="M17.2276 11.7416C17.2276 10.4145 16.537 9.33105 15.6973 9.33105C14.8577 9.33105 14.167 10.4009 14.167 11.7416C14.6681 11.6604 15.1691 11.6062 15.6973 11.6062C16.2119 11.6062 16.7266 11.6604 17.2276 11.7416Z" fill="#FFCC00"/>
<path d="M18.6903 9.31731C19.3403 9.49336 19.8821 9.8861 20.2612 10.3872C19.4758 10.658 18.8393 11.2539 18.5278 12.08C18.2163 11.9852 17.9048 11.8904 17.5798 11.8227C17.7288 10.9424 17.4444 10.0622 16.862 9.43919C17.4308 9.20897 18.0538 9.1548 18.6903 9.31731Z" fill="#FFCC00"/>
<path d="M22.4144 14.6262C23.078 14.0709 23.9447 13.8813 24.7573 14.0303C24.6896 13.4073 24.4187 12.7979 23.9312 12.3104C23.4707 11.8499 22.8884 11.5791 22.2925 11.4978C22.4821 12.3239 22.2925 13.2313 21.7237 13.922C21.7779 13.9761 21.8321 14.0269 21.8862 14.0777C21.9404 14.1285 21.9946 14.1793 22.0488 14.2334C22.1842 14.3689 22.3061 14.5043 22.4144 14.6262Z" fill="#FFCC00"/>
<path d="M26.9784 17.5512C27.1544 18.2013 27.0867 18.8648 26.8294 19.4472C26.2064 18.919 25.3668 18.6617 24.5136 18.7971C24.4459 18.4721 24.3511 18.1606 24.2563 17.8491C25.0959 17.5241 25.7053 16.847 25.9627 16.0344C26.4366 16.4001 26.8158 16.9147 26.9784 17.5512Z" fill="#FFCC00"/>
<path d="M26.87 21.7767C26.2471 22.359 25.3668 22.6434 24.4865 22.4944C24.4188 22.8195 24.324 23.1309 24.2292 23.4424C25.0418 23.7539 25.6377 24.3904 25.9085 25.1759C26.4096 24.7967 26.8023 24.255 26.9784 23.6049C27.1544 22.9684 27.1003 22.3455 26.87 21.7767Z" fill="#FFCC00"/>
<path d="M21.6697 27.3291C22.225 27.9926 22.4146 28.8594 22.2656 29.6719C22.8886 29.6042 23.498 29.3334 23.9855 28.8458C24.446 28.3854 24.7168 27.8031 24.7981 27.2072C23.972 27.3968 23.0646 27.2072 22.3739 26.6384C22.3198 26.6926 22.269 26.7467 22.2182 26.8009C22.1674 26.855 22.1166 26.9093 22.0625 26.9634C21.927 27.0988 21.8051 27.2207 21.6697 27.3291Z" fill="#FFCC00"/>
<path d="M14.5326 9.47986C13.9503 9.22255 13.2867 9.15484 12.6367 9.33089C12.0002 9.4934 11.4855 9.8726 11.1199 10.3466C11.9325 10.6039 12.6096 11.2133 12.9346 12.053C13.2461 11.9582 13.5576 11.8634 13.8826 11.7956C13.7336 10.9425 14.0045 10.1028 14.5326 9.47986Z" fill="#FFCC00"/>
<path d="M9.11558 11.5383C8.96661 12.3508 9.1562 13.2176 9.71145 13.8812C9.58957 14.003 9.45414 14.1249 9.31872 14.2468C9.26455 14.301 9.21376 14.3552 9.16298 14.4093C9.11219 14.4635 9.06141 14.5177 9.00724 14.5718C8.31656 14.003 7.4092 13.8134 6.5831 14.003C6.66436 13.4072 6.93521 12.8248 7.39566 12.3644C7.8832 11.8769 8.49261 11.606 9.11558 11.5383Z" fill="#FFCC00"/>
<path d="M5.47263 16.0481C4.97156 16.4273 4.57882 16.969 4.40277 17.6191C4.24025 18.2556 4.29442 18.8785 4.52465 19.4473C5.14761 18.865 6.02788 18.5806 6.90816 18.7296C6.97587 18.4045 7.07067 18.093 7.16547 17.7816C6.33936 17.4701 5.74349 16.82 5.47263 16.0481Z" fill="#FFCC00"/>
<path d="M4.40277 23.659C4.22671 23.0089 4.29443 22.3453 4.55174 21.763C5.1747 22.3047 6.02789 22.562 6.86753 22.4131C6.93524 22.7381 7.03004 23.0496 7.12484 23.361C6.2852 23.6861 5.67578 24.3632 5.41847 25.1758C4.94447 24.8101 4.56528 24.2955 4.40277 23.659Z" fill="#FFCC00"/>
<path d="M8.96662 26.5843C8.30303 27.1395 7.4363 27.3291 6.62374 27.1801C6.69145 27.8031 6.9623 28.4125 7.44984 28.9001C7.91029 29.3605 8.49262 29.6314 9.0885 29.7126C8.8989 28.873 9.0885 27.9792 9.65729 27.2885C9.60312 27.2343 9.54895 27.1835 9.49478 27.1327C9.44061 27.082 9.38644 27.0312 9.33227 26.977C9.21038 26.8551 9.0885 26.7197 8.96662 26.5843Z" fill="#FFCC00"/>
<path d="M12.7044 31.9064C12.0544 31.7303 11.5127 31.3511 11.1335 30.8365C11.9054 30.5657 12.5554 29.9562 12.8669 29.1437C13.1784 29.2385 13.4899 29.3333 13.8149 29.401C13.6659 30.2813 13.9503 31.1615 14.5327 31.7845C13.9639 32.0147 13.3409 32.0689 12.7044 31.9064Z" fill="#FFCC00"/>
<path d="M16.8485 31.7439C17.4308 32.0012 18.0944 32.0689 18.7444 31.8929C19.3809 31.7304 19.8956 31.3512 20.2612 30.8772C19.4487 30.6199 18.7715 30.0105 18.4465 29.1708C18.1351 29.2656 17.8235 29.3604 17.4985 29.4281C17.6475 30.2813 17.3902 31.121 16.8485 31.7439Z" fill="#FFCC00"/>
<path d="M15.6974 31.8793C14.8577 31.8793 14.167 30.8094 14.167 29.4823C14.6546 29.5635 15.1692 29.6041 15.6974 29.6177C16.2255 29.6177 16.7266 29.5635 17.2277 29.4823C17.2277 30.8094 16.537 31.8793 15.6974 31.8793Z" fill="#FFCC00"/>
<path d="M21.3311 30.3764C22.0624 29.9565 22.1165 28.6835 21.453 27.5324C20.6675 28.1825 19.7737 28.7106 18.7986 29.0627C19.4757 30.2003 20.5998 30.7962 21.3311 30.3764Z" fill="#FFCC00"/>
<path d="M24.1344 23.713C25.2855 24.3902 25.8679 25.5142 25.4481 26.2455C25.0282 26.9768 23.7552 27.031 22.6041 26.3674C23.2541 25.5819 23.7823 24.6881 24.1344 23.713Z" fill="#FFCC00"/>
<path d="M24.5542 22.1421C25.8814 22.1421 26.9648 21.4515 26.9648 20.6118C26.9648 19.7722 25.8949 19.0815 24.5542 19.0815C24.6355 19.5826 24.6897 20.0837 24.6897 20.6118C24.6897 21.1264 24.649 21.6411 24.5542 22.1421Z" fill="#FFCC00"/>
<path d="M22.6041 14.8561C23.7552 14.1925 25.0282 14.2467 25.4481 14.978C25.8814 15.7093 25.2855 16.8333 24.1344 17.5105C23.7823 16.5354 23.2541 15.6416 22.6041 14.8561Z" fill="#FFCC00"/>
<path d="M21.3311 10.8477C20.5998 10.4279 19.4757 11.0102 18.7986 12.1613C19.7737 12.5134 20.6675 13.0416 21.453 13.6916C22.1165 12.5405 22.0624 11.2675 21.3311 10.8477Z" fill="#FFCC00"/>
<path d="M9.94167 13.6916C9.27808 12.5405 9.33225 11.2675 10.0636 10.8477C10.7813 10.4279 11.9189 11.0102 12.596 12.1613C11.621 12.5134 10.7271 13.0416 9.94167 13.6916Z" fill="#FFCC00"/>
<path d="M5.93313 14.9782C5.51331 15.7095 6.09564 16.8335 7.24677 17.4971C7.59888 16.522 8.12704 15.6282 8.77709 14.8428C7.62596 14.1927 6.35295 14.2469 5.93313 14.9782Z" fill="#FFCC00"/>
<path d="M4.42978 20.6118C4.42978 19.7722 5.49965 19.0815 6.82683 19.0815C6.74558 19.5826 6.69141 20.0837 6.69141 20.6118C6.69141 21.14 6.74558 21.6411 6.82683 22.1421C5.49965 22.1421 4.42978 21.4515 4.42978 20.6118Z" fill="#FFCC00"/>
<path d="M5.93313 26.2455C6.35295 26.9768 7.62596 27.031 8.77709 26.3674C8.12704 25.5819 7.59888 24.6881 7.24677 23.713C6.09564 24.3902 5.51331 25.5142 5.93313 26.2455Z" fill="#FFCC00"/>
<path d="M12.5826 29.0627C11.919 30.2139 10.7949 30.7962 10.0636 30.3764C9.33233 29.9565 9.27816 28.6835 9.92821 27.5324C10.7137 28.1825 11.6075 28.7106 12.5826 29.0627Z" fill="#FFCC00"/>
<path d="M21.832 14.4772C20.2611 12.9062 18.0942 11.9312 15.6972 11.9312C13.3001 11.9312 11.1333 12.9062 9.56238 14.4772C7.99143 16.0481 7.01636 18.2149 7.01636 20.612C7.01636 23.009 7.99143 25.1759 9.56238 26.7468C11.1333 28.3178 13.3001 29.2928 15.6972 29.2928C18.0942 29.2928 20.2611 28.3178 21.832 26.7468C23.403 25.1759 24.378 23.009 24.378 20.612C24.3645 18.2149 23.403 16.0481 21.832 14.4772Z" fill="#070C3D"/>
<path d="M24.554 19.0815C24.5405 18.9867 24.5269 18.8919 24.4999 18.7971C24.4321 18.4721 24.3509 18.1606 24.2425 17.8491C24.2019 17.7272 24.1613 17.6189 24.1207 17.5106C23.7686 16.5355 23.2404 15.6417 22.5903 14.8562C22.5226 14.7885 22.4685 14.7072 22.4008 14.6395C22.2789 14.5041 22.1705 14.3822 22.0351 14.2468C21.9268 14.1384 21.8184 14.0301 21.7101 13.9353C21.6153 13.854 21.534 13.7728 21.4392 13.6915C20.6537 13.0415 19.7599 12.5133 18.7849 12.1612C18.6901 12.1341 18.6088 12.0935 18.514 12.0664C18.2025 11.9581 17.891 11.8768 17.566 11.8091C17.4441 11.782 17.3358 11.7685 17.2139 11.7414C16.7128 11.6601 16.2118 11.606 15.6836 11.606C15.1554 11.606 14.6544 11.6466 14.1533 11.7414C14.0585 11.7549 13.9637 11.7685 13.8689 11.7956C13.5439 11.8633 13.2324 11.9445 12.9209 12.0529C12.799 12.0935 12.6907 12.1341 12.5823 12.1748C11.6073 12.5269 10.7134 13.055 9.92797 13.7051C9.86026 13.7728 9.779 13.827 9.71129 13.8947C9.57586 14.0166 9.45398 14.1384 9.31855 14.2603C9.21021 14.3687 9.10187 14.477 9.00707 14.5853C8.92581 14.6801 8.84456 14.7614 8.7633 14.8562C8.11326 15.6417 7.58509 16.5355 7.23298 17.5106C7.2059 17.6054 7.16527 17.6866 7.13818 17.7814C7.02984 18.0929 6.94859 18.4044 6.88087 18.7294C6.85379 18.8513 6.84025 18.9596 6.81316 19.0815C6.7319 19.5826 6.67773 20.0837 6.67773 20.6118C6.67773 21.14 6.71836 21.6411 6.81316 22.1421C6.8267 22.2369 6.84025 22.3317 6.86733 22.4265C6.93504 22.7516 7.0163 23.063 7.12464 23.3745C7.16527 23.4964 7.2059 23.6047 7.24653 23.7131C7.59864 24.6882 8.1268 25.582 8.77684 26.3674C8.84456 26.4352 8.89873 26.5164 8.96644 26.5841C9.08833 26.7196 9.19667 26.8414 9.33209 26.9769C9.44044 27.0852 9.54878 27.1935 9.65712 27.2883C9.75192 27.3696 9.83317 27.4509 9.92797 27.5321C10.7134 28.1822 11.6073 28.7103 12.5823 29.0624C12.6771 29.0895 12.7584 29.1301 12.8532 29.1572C13.1647 29.2656 13.4761 29.3468 13.8012 29.4145C13.9231 29.4416 14.0314 29.4552 14.1533 29.4823C14.6544 29.5635 15.1554 29.6177 15.6836 29.6177C16.2118 29.6177 16.7128 29.5771 17.2139 29.4823C17.3087 29.4687 17.4035 29.4552 17.4983 29.4281C17.8233 29.3604 18.1348 29.2791 18.4463 29.1708C18.5682 29.1301 18.6765 29.0895 18.7849 29.0489C19.7599 28.6968 20.6537 28.1686 21.4392 27.5186C21.5069 27.4509 21.5882 27.3967 21.6559 27.329C21.7913 27.2071 21.9132 27.0988 22.0351 26.9633C22.1434 26.855 22.2518 26.7466 22.3466 26.6383C22.4278 26.5435 22.5091 26.4622 22.5903 26.3674C23.2404 25.582 23.7686 24.6882 24.1207 23.7131C24.1478 23.6183 24.1884 23.537 24.2155 23.4422C24.3238 23.1308 24.4051 22.8193 24.4728 22.4942C24.4999 22.3724 24.5134 22.264 24.5405 22.1421C24.6217 21.6411 24.6759 21.14 24.6759 20.6118C24.6895 20.0837 24.6488 19.5826 24.554 19.0815ZM15.6971 29.2791C13.3001 29.2791 11.1333 28.304 9.56232 26.7331C7.99137 25.1622 7.0163 22.9953 7.0163 20.5983C7.0163 18.2012 7.99137 16.0344 9.56232 14.4635C11.1333 12.8925 13.3001 11.9174 15.6971 11.9174C18.0942 11.9174 20.261 12.8925 21.832 14.4635C23.4029 16.0344 24.378 18.2012 24.378 20.5983C24.378 22.9953 23.4029 25.1622 21.832 26.7331C20.261 28.3176 18.0942 29.2791 15.6971 29.2791Z" fill="white"/>
<path fill-rule="evenodd" clip-rule="evenodd" d="M29.3617 21.4107C20.2475 19.8262 16.7535 12.6486 15.7107 0.0268555V21.4107H29.3617Z" fill="#008837"/>
<path d="M29.3618 21.438H15.6973C15.6837 21.438 15.6702 21.4245 15.6702 21.4109V0.0270854C15.6702 0.0135428 15.6837 0 15.6973 0C15.7108 0 15.7243 0.0135428 15.7243 0.0270854C16.2796 6.74424 17.4849 11.4571 19.5163 14.8427C21.6966 18.4722 24.9062 20.6119 29.3482 21.3838C29.3618 21.3838 29.3753 21.3974 29.3753 21.4109C29.3889 21.4245 29.3753 21.438 29.3618 21.438ZM15.7379 21.3838H29.0368C24.7573 20.5713 21.6289 18.4315 19.4892 14.8834C17.5255 11.6061 16.3202 7.09635 15.7379 0.731303V21.3838Z" fill="#FFCC00"/>
<path fill-rule="evenodd" clip-rule="evenodd" d="M15.7109 21.4106V29.5498C13.2868 26.3673 8.73647 23.0358 2.07349 21.4106H15.7109Z" fill="#008837"/>
<path d="M15.7379 21.4108V29.5499C15.7379 29.5634 15.7243 29.577 15.7108 29.577C15.6973 29.577 15.6837 29.577 15.6837 29.5634C14.3836 27.857 12.4741 26.11 9.95517 24.6068C7.77481 23.3067 5.14753 22.1962 2.07335 21.4378C2.05981 21.4378 2.04627 21.4243 2.05981 21.4108C2.05981 21.3972 2.07335 21.3972 2.08689 21.3972H15.7243C15.7243 21.3837 15.7379 21.3972 15.7379 21.4108ZM15.6837 29.4686V21.4378H2.27649C5.28296 22.1962 7.85606 23.2932 9.9958 24.5662C12.4741 26.0559 14.3701 27.7758 15.6837 29.4686Z" fill="#FFCC00"/>
<path fill-rule="evenodd" clip-rule="evenodd" d="M2.03271 21.4107C11.1469 19.8262 14.6409 12.6486 15.6837 0.0268555V21.4107H2.03271Z" fill="#FFFF00"/>
<path d="M2.01915 21.3838C6.56948 20.5984 9.71138 18.4045 11.8511 14.8427C13.9909 11.281 15.1284 6.32442 15.6566 0.0270854C15.6566 0.0135428 15.6701 0 15.6837 0C15.6972 0 15.7108 0.0135428 15.7108 0.0270854V21.4109C15.7108 21.4245 15.6972 21.438 15.6837 21.438H2.03269C2.01915 21.438 2.00561 21.4245 2.00561 21.4109C1.99207 21.3974 2.00561 21.3838 2.01915 21.3838ZM11.9053 14.8698C9.80617 18.3774 6.71845 20.5577 2.29 21.3838H15.6566V0.71776C15.1013 6.70361 13.9773 11.4165 11.9053 14.8698Z" fill="#FFCC00"/>
<path fill-rule="evenodd" clip-rule="evenodd" d="M15.6973 21.4106V29.5498C18.1214 26.3673 22.6717 23.0358 29.3347 21.4106H15.6973Z" fill="#FFFF00"/>
<path d="M15.6973 29.5771C15.6702 29.5771 15.6702 29.5635 15.6702 29.55V21.4109C15.6702 21.3973 15.6837 21.3838 15.6973 21.3838H29.3347C29.3482 21.3838 29.3618 21.3973 29.3618 21.4109C29.3618 21.4244 29.3482 21.438 29.3347 21.438C23.5384 22.8599 18.5683 25.8122 15.7243 29.5635C15.7108 29.5771 15.7108 29.5771 15.6973 29.5771ZM15.7243 21.438V29.4552C18.5547 25.7851 23.403 22.8735 29.0774 21.438H15.7243Z" fill="#FFCC00"/>
<path fill-rule="evenodd" clip-rule="evenodd" d="M14.7356 11.0505L14.7491 12.2016C14.9387 11.985 15.169 11.8766 15.4263 11.8631C15.3992 12.1475 15.2502 12.3371 15.0335 12.4589H16.3743C16.144 12.31 16.0086 12.1204 15.968 11.8495C16.2524 11.8631 16.4826 11.9714 16.6722 12.1881V11.0234C16.4555 11.2672 16.2253 11.3891 15.968 11.3891C15.9544 11.1724 16.1305 10.9286 16.3743 10.7661H15.02C15.2502 10.9151 15.3992 11.1047 15.4398 11.4026C15.1554 11.362 14.9252 11.2537 14.7356 11.0505ZM15.1825 11.5787H15.6565V11.1182H15.7784V11.5787H16.2795V11.7006H15.7784V12.1746H15.6565V11.7006H15.1825V11.5787Z" fill="#FF0000"/>
<path fill-rule="evenodd" clip-rule="evenodd" d="M16.2931 11.5786H15.7785V11.1182H15.6566V11.5786H15.1826V11.7005H15.6566V12.1745H15.7785V11.7005H16.2931V11.5786Z" fill="white"/>
<path fill-rule="evenodd" clip-rule="evenodd" d="M15.6972 12.5269C16.3201 12.5269 16.8347 12.879 16.8347 13.3123C16.8347 13.7457 16.3201 14.0978 15.6972 14.0978C15.0742 14.0978 14.5596 13.7457 14.5596 13.3123C14.5596 12.879 15.0606 12.5269 15.6972 12.5269Z" fill="#070C3D"/>
<path d="M15.6972 12.4595C16.0223 12.4595 16.3202 12.5543 16.5369 12.7032C16.7536 12.8522 16.9025 13.0689 16.9025 13.3127C16.9025 13.5564 16.7671 13.7731 16.5369 13.9221C16.3202 14.071 16.0223 14.1658 15.6972 14.1658C15.3722 14.1658 15.0743 14.071 14.8576 13.9221C14.6409 13.7731 14.4919 13.5564 14.4919 13.3127C14.4919 13.0689 14.6274 12.8522 14.8576 12.7032C15.0743 12.5543 15.3722 12.4595 15.6972 12.4595ZM16.4556 12.8116C16.266 12.6762 15.9952 12.5949 15.6972 12.5949C15.3993 12.5949 15.1284 12.6762 14.9389 12.8116C14.7493 12.947 14.6409 13.1231 14.6409 13.3127C14.6409 13.5023 14.7628 13.6783 14.9389 13.8137C15.1284 13.9492 15.3993 14.0304 15.6972 14.0304C15.9952 14.0304 16.266 13.9492 16.4556 13.8137C16.6452 13.6783 16.7536 13.5023 16.7536 13.3127C16.7671 13.1231 16.6452 12.947 16.4556 12.8116Z" fill="white"/>
<path fill-rule="evenodd" clip-rule="evenodd" d="M14.9793 13.2041H16.4013C16.4419 13.2041 16.469 13.2312 16.469 13.2718V13.3395C16.469 13.3802 16.4419 13.4072 16.4013 13.4072H14.9793C14.9387 13.4072 14.9116 13.3802 14.9116 13.3395V13.2718C14.9116 13.2312 14.9387 13.2041 14.9793 13.2041Z" fill="white"/>
<path fill-rule="evenodd" clip-rule="evenodd" d="M11.0794 13.8945L11.2013 14.2602H11.5805L11.269 14.4769L11.3909 14.8425L11.0794 14.6123L10.768 14.8425L10.8899 14.4769L10.5784 14.2602H10.9576L11.0794 13.8945Z" fill="white"/>
<path fill-rule="evenodd" clip-rule="evenodd" d="M9.75205 15.2217L9.86039 15.5873H10.2396L9.94165 15.804L10.05 16.1697L9.75205 15.9394L9.44057 16.1697L9.56246 15.804L9.25098 15.5873H9.63017L9.75205 15.2217Z" fill="white"/>
<path fill-rule="evenodd" clip-rule="evenodd" d="M8.76353 16.8467L8.88541 17.2123H9.26461L8.95313 17.429L9.07501 17.7947L8.76353 17.5644L8.45205 17.7947L8.57393 17.429L8.26245 17.2123H8.64164L8.76353 16.8467Z" fill="white"/>
<path fill-rule="evenodd" clip-rule="evenodd" d="M20.3153 13.8945L20.1934 14.2602H19.8142L20.1257 14.4769L20.0038 14.8425L20.3153 14.6123L20.6132 14.8425L20.5049 14.4769L20.8028 14.2602H20.4236L20.3153 13.8945Z" fill="white"/>
<path fill-rule="evenodd" clip-rule="evenodd" d="M21.6424 15.2217L21.5206 15.5873H21.1414L21.4528 15.804L21.331 16.1697L21.6424 15.9394L21.9539 16.1697L21.832 15.804L22.1435 15.5873H21.7508L21.6424 15.2217Z" fill="white"/>
<path fill-rule="evenodd" clip-rule="evenodd" d="M22.6312 16.8467L22.5093 17.2123H22.1301L22.4416 17.429L22.3197 17.7947L22.6312 17.5644L22.9291 17.7947L22.8208 17.429L23.1187 17.2123H22.7395L22.6312 16.8467Z" fill="white"/>
<path fill-rule="evenodd" clip-rule="evenodd" d="M9.21045 25.3652H9.58964L9.71153 24.9995L9.81987 25.3652H10.1991L9.90112 25.5818L10.0095 25.9475L9.71153 25.7308L9.40005 25.9475L9.52193 25.5818L9.21045 25.3652Z" fill="white"/>
<path fill-rule="evenodd" clip-rule="evenodd" d="M10.646 26.6924H11.0252L11.1471 26.3403L11.2554 26.6924L11.6346 26.706L11.3367 26.9227L11.445 27.2883L11.1471 27.0581L10.8356 27.2883L10.9575 26.9227L10.646 26.6924Z" fill="white"/>
<path fill-rule="evenodd" clip-rule="evenodd" d="M12.217 27.6944H12.5962L12.7181 27.3423L12.84 27.6944H13.2192L12.9077 27.9246L13.0296 28.2903L12.7181 28.06L12.4066 28.2903L12.5285 27.9246L12.217 27.6944Z" fill="white"/>
<path fill-rule="evenodd" clip-rule="evenodd" d="M22.1709 25.3652H21.7917L21.6698 24.9995L21.5479 25.3652H21.1687L21.4802 25.5818L21.3583 25.9475L21.6698 25.7308L21.9813 25.9475L21.8594 25.5818L22.1709 25.3652Z" fill="white"/>
<path fill-rule="evenodd" clip-rule="evenodd" d="M20.7353 26.6924H20.3561L20.2342 26.3403L20.1123 26.6924L19.7332 26.706L20.0446 26.9227L19.9228 27.2883L20.2342 27.0581L20.5457 27.2883L20.4238 26.9227L20.7353 26.6924Z" fill="white"/>
<path fill-rule="evenodd" clip-rule="evenodd" d="M19.1507 27.6944H18.7715L18.6496 27.3423L18.5413 27.6944H18.1621L18.4736 27.9246L18.3517 28.2903L18.6632 28.06L18.9747 28.2903L18.8528 27.9246L19.1507 27.6944Z" fill="white"/>
<path fill-rule="evenodd" clip-rule="evenodd" d="M15.6974 14.1523C12.1221 14.1523 9.21045 17.0369 9.21045 20.6122C9.21045 24.1739 12.1086 27.072 15.6974 27.072C19.2726 27.072 22.1843 24.1874 22.1843 20.6122C22.1843 17.0505 19.2726 14.1523 15.6974 14.1523Z" fill="#FFCC00"/>
<path fill-rule="evenodd" clip-rule="evenodd" d="M14.3025 25.1352C14.7765 25.0269 15.1286 24.9862 15.5755 24.9862V26.7603C15.5755 26.7603 15.5213 26.7332 15.4536 26.6655C15.0202 26.1644 14.6275 25.6634 14.3025 25.1352ZM18.9476 15.2897C18.2569 14.8699 17.485 14.5719 16.6454 14.45C17.2006 14.7615 17.7694 15.1678 18.284 15.6824C18.5278 15.5741 18.7174 15.4522 18.9476 15.2897ZM21.1415 17.5378C21.6426 18.4045 21.927 19.3931 21.9541 20.463H20.3831C20.3425 19.7317 20.2477 18.9868 19.9227 18.1472C20.329 17.9711 20.7217 17.7815 21.1415 17.5378ZM21.0061 17.3211C20.5998 17.5513 20.2206 17.7409 19.8143 17.9034C19.7331 17.7138 19.6383 17.5242 19.5299 17.3211C19.232 16.7658 18.8664 16.2918 18.4736 15.872C18.6903 15.7501 18.907 15.6147 19.1643 15.4251C19.9091 15.9126 20.5321 16.5627 21.0061 17.3211ZM19.6789 18.242C19.9904 19.041 20.0852 19.7452 20.1258 20.463H18.5278C18.5142 19.691 18.4736 19.19 18.3653 18.6753C18.8122 18.5535 19.2456 18.418 19.6789 18.242ZM19.5841 18.0118C19.1508 18.1743 18.7309 18.3232 18.2976 18.4316C18.2163 18.1066 18.1215 17.7815 17.9725 17.3888C17.8371 16.9825 17.6611 16.6169 17.4444 16.2512C17.4579 16.2512 17.4715 16.2512 17.485 16.2512C17.7829 16.17 18.0267 16.0887 18.2569 15.9804C18.6497 16.3866 19.0018 16.8606 19.2862 17.4023C19.4081 17.619 19.5029 17.8086 19.5841 18.0118ZM18.0538 18.4993C17.9725 18.1743 17.8777 17.8492 17.7288 17.443C17.5933 17.0502 17.4173 16.671 17.2142 16.3054C16.6724 16.4273 16.3068 16.4679 15.8057 16.4679V18.7295C16.7672 18.7295 17.309 18.6753 18.0538 18.4993ZM17.336 16.0345C17.0381 15.5335 16.6724 15.0595 16.2662 14.599C16.1578 14.4771 16.0359 14.3823 16.0359 14.3823C16.0359 14.3823 16.2255 14.4365 16.3881 14.5313C16.9433 14.8563 17.5256 15.2626 18.0673 15.7908C17.8777 15.872 17.6746 15.9397 17.4173 16.0074C17.3902 16.0074 17.3496 16.021 17.336 16.0345ZM18.2705 20.463C18.2569 19.7317 18.2163 19.2306 18.108 18.7431C17.3631 18.9327 16.7943 18.9733 15.8057 18.9868V20.4494H18.2705V20.463ZM17.0787 16.0887C16.6047 16.197 16.2526 16.2377 15.8057 16.2377V14.4636C15.8057 14.4636 15.8599 14.4907 15.9276 14.5584C16.3745 15.0595 16.7537 15.5605 17.0787 16.0887ZM12.4336 15.2897C13.1243 14.8699 13.9097 14.5719 14.7358 14.45C14.1806 14.7615 13.6118 15.1678 13.0836 15.6824C12.867 15.5741 12.6638 15.4522 12.4336 15.2897ZM10.2397 17.5378C9.73861 18.4045 9.45422 19.3931 9.44067 20.463H11.0116C11.0522 19.7317 11.147 18.9868 11.4585 18.1472C11.0522 17.9711 10.6595 17.7815 10.2397 17.5378ZM10.3751 17.3211C10.7679 17.5513 11.1606 17.7409 11.5533 17.9034C11.6346 17.7138 11.7294 17.5242 11.8513 17.3211C12.1492 16.7658 12.5013 16.2918 12.9076 15.872C12.6909 15.7501 12.4742 15.6147 12.2169 15.4251C11.4721 15.9126 10.8491 16.5627 10.3751 17.3211ZM11.7023 18.242C11.3908 19.041 11.296 19.7452 11.2689 20.463H12.867C12.8805 19.691 12.9211 19.19 13.0295 18.6753C12.569 18.5535 12.1357 18.418 11.7023 18.242ZM11.7971 18.0118C12.2169 18.1743 12.6367 18.3232 13.0701 18.4316C13.1514 18.1066 13.2597 17.7815 13.3951 17.3888C13.5306 16.9825 13.7066 16.6169 13.9233 16.2512C13.9097 16.2512 13.8962 16.2512 13.8827 16.2512C13.5847 16.17 13.3545 16.0887 13.1243 15.9804C12.7315 16.3866 12.3794 16.8606 12.095 17.4023C11.9731 17.619 11.8784 17.8086 11.7971 18.0118ZM13.3274 18.4993C13.4087 18.1743 13.517 17.8492 13.6524 17.443C13.7879 17.0502 13.9504 16.671 14.1671 16.3054C14.7088 16.4273 15.0744 16.4679 15.5755 16.4679V18.7295C14.614 18.7295 14.0723 18.6753 13.3274 18.4993ZM14.0587 16.0345C14.3567 15.5335 14.7223 15.0595 15.1286 14.599C15.2369 14.4771 15.3588 14.3823 15.3588 14.3823C15.3588 14.3823 15.1692 14.4365 15.0067 14.5313C14.4515 14.8563 13.8691 15.2626 13.3274 15.7908C13.517 15.872 13.7202 15.9397 13.9775 16.0074C13.991 16.0074 14.0316 16.021 14.0587 16.0345ZM13.1107 20.463C13.1243 19.7317 13.1784 19.2306 13.2732 18.7431C14.0316 18.9327 14.5869 18.9733 15.589 18.9868V20.4494H13.1107V20.463ZM14.3025 16.0887C14.7765 16.197 15.1286 16.2377 15.5755 16.2377V14.4636C15.5755 14.4636 15.5213 14.4907 15.4536 14.5584C15.0202 15.0595 14.6275 15.5605 14.3025 16.0887ZM18.9476 25.9342C18.2569 26.354 17.485 26.652 16.6454 26.7739C17.2006 26.4624 17.7694 26.0561 18.284 25.5415C18.5278 25.6498 18.7174 25.7717 18.9476 25.9342ZM21.1415 23.6861C21.6426 22.8194 21.927 21.8308 21.9541 20.7609H20.3831C20.3425 21.4922 20.2477 22.2371 19.9227 23.0767C20.329 23.2528 20.7217 23.4424 21.1415 23.6861ZM21.0061 23.9028C20.5998 23.6726 20.2206 23.483 19.8143 23.3205C19.7331 23.5101 19.6383 23.6997 19.5299 23.9028C19.232 24.4581 18.8664 24.9321 18.4736 25.3519C18.6903 25.4738 18.907 25.6092 19.1643 25.7988C19.9091 25.2977 20.5321 24.6612 21.0061 23.9028ZM19.6789 22.9819C19.9904 22.1829 20.0852 21.4787 20.1258 20.7609H18.5278C18.5142 21.5328 18.4736 22.0339 18.3653 22.5485C18.8122 22.6704 19.2456 22.8059 19.6789 22.9819ZM19.5841 23.2121C19.1508 23.0496 18.7309 22.9007 18.2976 22.7923C18.2163 23.1173 18.1215 23.4424 17.9725 23.8351C17.8371 24.2414 17.6611 24.607 17.4444 24.9727C17.4579 24.9727 17.4715 24.9727 17.485 24.9727C17.7829 25.0539 18.0267 25.1352 18.2569 25.2435C18.6497 24.8373 19.0018 24.3633 19.2862 23.8216C19.4081 23.6049 19.5029 23.4153 19.5841 23.2121ZM18.0538 22.7246C17.9725 23.0496 17.8777 23.3747 17.7288 23.7809C17.5933 24.1737 17.4173 24.5529 17.2142 24.905C16.6724 24.7831 16.3068 24.7425 15.8057 24.7425V22.4808C16.7672 22.4944 17.309 22.535 18.0538 22.7246ZM16.0359 26.8416C16.0359 26.8416 16.2255 26.7874 16.3881 26.6926C16.9433 26.3676 17.5256 25.9613 18.0673 25.4331C17.8777 25.3519 17.6746 25.2842 17.4173 25.2165C17.3902 25.2165 17.3496 25.2029 17.3225 25.1894V25.1758C17.0246 25.6769 16.6589 26.1509 16.2526 26.6113C16.1443 26.7468 16.0359 26.8416 16.0359 26.8416ZM18.2705 20.7609C18.2569 21.4922 18.2163 21.9933 18.108 22.4808C17.3631 22.2912 16.7943 22.2506 15.8057 22.2371V20.7745H18.2705V20.7609ZM17.0787 25.1352C16.6047 25.0269 16.2526 24.9862 15.8057 24.9862V26.7603C15.8057 26.7603 15.8599 26.7332 15.9276 26.6655C16.3745 26.1644 16.7537 25.6634 17.0787 25.1352ZM12.4336 25.9342C13.1243 26.354 13.9097 26.652 14.7358 26.7739C14.1806 26.4624 13.6118 26.0561 13.0836 25.5415C12.867 25.6498 12.6638 25.7717 12.4336 25.9342ZM10.2397 23.6861C9.73861 22.8194 9.45422 21.8308 9.44067 20.7609H11.0116C11.0522 21.4922 11.147 22.2371 11.4585 23.0767C11.0522 23.2528 10.6595 23.4424 10.2397 23.6861ZM10.3751 23.9028C10.7679 23.6726 11.1606 23.483 11.5533 23.3205C11.6346 23.5101 11.7294 23.6997 11.8513 23.9028C12.1492 24.4581 12.5013 24.9321 12.9076 25.3519C12.6909 25.4738 12.4742 25.6092 12.2169 25.7988C11.4721 25.2977 10.8491 24.6612 10.3751 23.9028ZM11.7023 22.9819C11.3908 22.1829 11.296 21.4787 11.2689 20.7609H12.867C12.8805 21.5328 12.9211 22.0339 13.0295 22.5485C12.569 22.6704 12.1357 22.8059 11.7023 22.9819ZM11.7971 23.2121C12.2169 23.0496 12.6367 22.9007 13.0701 22.7923C13.1514 23.1173 13.2597 23.4424 13.3951 23.8351C13.5306 24.2414 13.7066 24.607 13.9233 24.9727C13.9097 24.9727 13.8962 24.9727 13.8827 24.9727C13.5847 25.0539 13.3545 25.1352 13.1243 25.2435C12.7315 24.8373 12.3794 24.3633 12.095 23.8216C11.9731 23.6049 11.8784 23.4153 11.7971 23.2121ZM13.3274 22.7246C13.4087 23.0496 13.517 23.3747 13.6524 23.7809C13.7879 24.1737 13.9504 24.5529 14.1671 24.905C14.7088 24.7831 15.0744 24.7425 15.5755 24.7425V22.4808C14.614 22.4944 14.0723 22.535 13.3274 22.7246ZM15.3588 26.8416C15.3588 26.8416 15.2369 26.7468 15.1286 26.6249C14.7223 26.1644 14.3567 25.6904 14.0587 25.1894V25.2029C14.0181 25.2029 13.991 25.2165 13.9639 25.23C13.7066 25.2977 13.517 25.3654 13.3139 25.4467C13.842 25.9748 14.4244 26.3811 14.9932 26.7061C15.1557 26.7874 15.3453 26.8416 15.3588 26.8416ZM13.1107 20.7609C13.1243 21.4922 13.1784 21.9933 13.2732 22.4808C14.0316 22.2912 14.5869 22.2506 15.589 22.2371V20.7745H13.1107V20.7609Z" fill="#FF0000"/>
<path fill-rule="evenodd" clip-rule="evenodd" d="M19.3943 25.9072C19.3943 25.9072 10.5645 16.6982 10.5645 16.6712C10.9707 16.143 11.4583 15.6825 11.9864 15.3169C12 15.3169 20.8027 24.5801 20.8027 24.5801C20.437 25.027 19.963 25.528 19.3943 25.9072Z" fill="#FFCC00"/>
<path d="M14.2348 28.2095H17.16C17.2683 28.2095 17.3631 28.2636 17.4308 28.3584C17.4986 28.4532 17.5527 28.5751 17.5527 28.7241V29.0491C17.5527 29.1845 17.5121 29.32 17.4308 29.4148C17.3631 29.5096 17.2548 29.4554 17.16 29.4554L15.7109 29.6044L14.2348 29.4825C14.1264 29.4825 14.0316 29.5096 13.9639 29.4148C13.8962 29.32 13.842 29.1981 13.842 29.0491V28.7241C13.842 28.5887 13.8827 28.4532 13.9639 28.3584C14.0316 28.2636 14.1264 28.2095 14.2348 28.2095ZM17.16 28.521H14.2348C14.1942 28.521 14.1535 28.548 14.1264 28.5751C14.0994 28.6022 14.0858 28.6564 14.0858 28.7106V29.0356C14.0858 29.0897 14.0994 29.1304 14.1264 29.171C14.1535 29.2116 14.1942 29.2252 14.2348 29.2252H17.16C17.2006 29.2252 17.2412 29.1981 17.2683 29.171C17.2954 29.1439 17.309 29.0897 17.309 29.0356V28.7106C17.309 28.6564 17.2954 28.6158 17.2683 28.5751C17.2412 28.548 17.2006 28.521 17.16 28.521Z" fill="white"/>
<path d="M14.912 27.0176H16.4829C16.6183 27.0176 16.7402 27.0717 16.835 27.1665C16.9298 27.2613 16.984 27.3832 16.984 27.5187V27.8572C16.984 27.9926 16.9298 28.1145 16.835 28.2093C16.7402 28.3041 16.6183 28.3583 16.4829 28.3583H14.912C14.7765 28.3583 14.6547 28.3041 14.5599 28.2093C14.4651 28.1145 14.4109 27.9926 14.4109 27.8572V27.5187C14.4109 27.3832 14.4651 27.2613 14.5599 27.1665C14.6411 27.0717 14.7765 27.0176 14.912 27.0176ZM16.4829 27.2749H14.912C14.8443 27.2749 14.7765 27.302 14.7224 27.3426C14.6817 27.3832 14.6547 27.4509 14.6547 27.5187V27.8572C14.6547 27.9249 14.6817 27.9791 14.7224 28.0333C14.763 28.0739 14.8307 28.101 14.912 28.101H16.4829C16.5506 28.101 16.6183 28.0739 16.6725 28.0333C16.7131 27.9926 16.7402 27.9249 16.7402 27.8572V27.5187C16.7402 27.4509 16.7131 27.3968 16.6725 27.3426C16.6183 27.302 16.5506 27.2749 16.4829 27.2749Z" fill="white"/>
<path fill-rule="evenodd" clip-rule="evenodd" d="M14.3161 28.4531H17.0653C17.2007 28.4531 17.3226 28.575 17.3226 28.7375V29.0084C17.3226 29.1709 17.2143 29.2928 17.0653 29.2928H14.3161C14.1807 29.2928 14.0588 29.1709 14.0588 29.0084V28.7375C14.0588 28.575 14.1807 28.4531 14.3161 28.4531Z" fill="#FFCC00"/>
<path fill-rule="evenodd" clip-rule="evenodd" d="M14.9797 27.2476H16.4017C16.5913 27.2476 16.7402 27.383 16.7402 27.559V27.8434C16.7402 28.0059 16.5913 28.1549 16.4017 28.1549H14.9797C14.7901 28.1549 14.6411 28.0195 14.6411 27.8434V27.559C14.6411 27.383 14.7901 27.2476 14.9797 27.2476Z" fill="#FFCC00"/>
</g>
<defs>
<clipPath id="clip0">
<path d="M0 0H32V32H0V0Z" fill="white"/>
</clipPath>
</defs>
</svg>
