<svg width="64" height="96" viewBox="0 0 64 96" fill="none" xmlns="http://www.w3.org/2000/svg">
<path d="M31.9776 43.312C32.0047 43.1632 32.14 42.9873 32.3295 42.8655L32.5595 42.6761H31.5582V32.0271C31.5582 32.0135 31.5717 32 31.5852 32C31.5988 32 31.6123 32.0135 31.6123 32.0271C32.0453 37.223 32.8707 41.2012 34.1562 44.3133C34.535 45.2334 34.9545 46.0588 35.4146 46.8301C35.7393 47.3714 36.0911 47.8855 36.47 48.3727C36.4023 48.2915 36.3347 48.2103 36.2535 48.1291L36.0235 47.8991C35.9693 47.8585 35.9287 47.8179 35.8881 47.7773C35.8611 47.7502 35.8205 47.7096 35.7799 47.6826L35.6175 47.5608C35.604 47.5473 35.5871 47.5337 35.5702 47.5202C35.5533 47.5067 35.5363 47.4931 35.5228 47.4796C35.4687 47.4255 35.4146 47.3849 35.3469 47.3443C35.3334 47.3375 35.3198 47.3274 35.3063 47.3172C35.2928 47.3071 35.2792 47.2969 35.2657 47.2902C35.1981 47.2361 35.1304 47.1955 35.0627 47.1549C35.0492 47.1481 35.0391 47.1413 35.0289 47.1346C35.0188 47.1278 35.0086 47.121 34.9951 47.1143C34.9139 47.0601 34.8462 47.0196 34.7651 46.979C34.7515 46.979 34.7245 46.9654 34.7109 46.9519L34.4674 46.8301C34.4606 46.8234 34.4538 46.82 34.4471 46.8166C34.4403 46.8132 34.4335 46.8098 34.4268 46.8031C34.3456 46.7625 34.2644 46.7219 34.1697 46.6813C34.1629 46.6813 34.1562 46.6779 34.1494 46.6745C34.1426 46.6711 34.1359 46.6677 34.1291 46.6677C34.0817 46.6474 34.0344 46.6305 33.987 46.6136C33.9397 46.5967 33.8923 46.5798 33.8449 46.5595C33.8382 46.5595 33.8348 46.5561 33.8314 46.5527C33.828 46.5493 33.8246 46.546 33.8179 46.546C33.7705 46.5324 33.7198 46.5155 33.6691 46.4986C33.6183 46.4817 33.5676 46.4648 33.5202 46.4512C33.5067 46.4377 33.5067 46.4377 33.4931 46.4377C33.3984 46.4107 33.3037 46.3836 33.1954 46.3565H33.1819C33.1282 46.3431 33.0779 46.3331 33.0276 46.323L33.0266 46.3228L33.0262 46.3227C32.9755 46.3125 32.9248 46.3024 32.8707 46.2889H32.8572C32.7625 46.2618 32.6542 46.2483 32.546 46.2347H32.5324L32.2077 46.1942H32.1806C32.1265 46.1942 32.0724 46.1908 32.0182 46.1874C31.9641 46.184 31.91 46.1806 31.8559 46.1806H31.8288C32.0588 46.14 32.2753 46.0588 32.4377 45.9506C32.6677 45.7882 32.803 45.5717 32.803 45.3282C32.803 45.0981 32.6813 44.8681 32.4377 44.7057C32.3565 44.6516 32.2753 44.611 32.1806 44.5704H32.5866L32.3159 44.408C32.14 44.2863 32.0318 44.151 31.9776 43.975C32.1806 44.0021 32.3565 44.1104 32.5054 44.2727L32.6677 44.4486V42.8114L32.5054 42.9873C32.343 43.1767 32.1671 43.285 31.9776 43.312Z" fill="#008AD2"/>
<path d="M29.1767 43.9615C29.0549 43.9885 28.9467 44.0156 28.8384 44.0562C28.5137 43.2308 27.8371 42.6219 27.0388 42.3648C27.4041 41.8912 27.9183 41.5123 28.5543 41.35C29.0549 41.2147 29.5691 41.2282 30.0427 41.35C29.7856 42.2701 29.5015 43.1361 29.1767 43.9615Z" fill="#008AD2"/>
<path d="M37.6201 45.9506C37.6743 46.0047 37.7284 46.0555 37.7825 46.1062C37.8366 46.157 37.8908 46.2077 37.9449 46.2618C38.0666 46.3836 38.1884 46.5189 38.3101 46.6541C38.9731 46.0993 39.8392 45.91 40.6511 46.0589C40.5835 45.4364 40.3128 44.8275 39.8257 44.3404C39.3657 43.8804 38.7838 43.6097 38.1884 43.5285C38.3779 44.3675 38.1884 45.2605 37.6201 45.9506Z" fill="#008AD2"/>
<path d="M40.4075 50.8083C40.3399 50.4836 40.2452 50.1723 40.1505 49.8611C40.9894 49.5364 41.5983 48.8598 41.8554 48.0615C42.329 48.4268 42.7078 48.941 42.8702 49.577C43.0461 50.2265 42.9785 50.8895 42.7214 51.4713C42.0989 50.9301 41.26 50.673 40.4075 50.8083Z" fill="#008AD2"/>
<path d="M40.2317 55.1382C40.2046 55.2465 40.1775 55.3412 40.1369 55.4494C40.9488 55.7607 41.5442 56.3966 41.8148 57.1814C42.3155 56.8026 42.7079 56.2613 42.8838 55.6118C43.0191 55.1112 43.0055 54.597 42.8838 54.1234C41.9636 54.4211 41.0841 54.7729 40.2317 55.1382Z" fill="#008AD2"/>
<path d="M38.114 58.8052C38.0633 58.8593 38.0125 58.9135 37.9584 58.9676C37.8975 59.0285 37.8333 59.0894 37.769 59.1503C37.7047 59.2111 37.6404 59.272 37.5795 59.3329C38.1343 59.996 38.3237 60.862 38.1749 61.6738C38.7973 61.6062 39.4062 61.3355 39.8934 60.8484C40.3534 60.3884 40.624 59.8065 40.7052 59.2112C39.8528 59.4006 38.9597 59.2112 38.2696 58.6428C38.2155 58.6969 38.1647 58.7511 38.114 58.8052Z" fill="#008AD2"/>
<path d="M24.9279 46.5866C24.9821 46.5325 25.0328 46.4784 25.0836 46.4242C25.1343 46.3701 25.185 46.316 25.2392 46.2619C25.3609 46.1401 25.4962 46.0183 25.6315 45.8966C25.0767 45.2336 24.8874 44.3675 25.0362 43.5556C24.4138 43.6233 23.8049 43.8939 23.3177 44.381C22.8577 44.8411 22.5871 45.4229 22.5059 46.0183C23.3448 45.8424 24.2379 46.0318 24.9279 46.5866Z" fill="#008AD2"/>
<path d="M23.0606 49.7935C22.9659 50.1047 22.8712 50.4159 22.8035 50.7406C21.924 50.5918 21.058 50.876 20.4356 51.4578C20.2056 50.8895 20.1514 50.2671 20.3138 49.6311C20.4897 48.9816 20.8686 48.4403 21.3828 48.0615C21.6534 48.8463 22.2488 49.4822 23.0606 49.7935Z" fill="#008AD2"/>
<path d="M25.5639 59.2922C25.5098 59.2381 25.4557 59.1874 25.4015 59.1366C25.3474 59.0859 25.2933 59.0351 25.2392 58.981C25.1783 58.9201 25.1174 58.8559 25.0565 58.7916C24.9956 58.7273 24.9347 58.663 24.8738 58.6021C24.2108 59.1569 23.3448 59.3464 22.5329 59.1975C22.6006 59.82 22.8712 60.4289 23.3583 60.916C23.8184 61.376 24.4002 61.6467 24.9956 61.7278C24.8197 60.8754 25.0091 59.9823 25.5639 59.2922Z" fill="#008AD2"/>
<path d="M28.7708 61.1596C29.082 61.2543 29.3932 61.349 29.718 61.4167C29.5691 62.2962 29.8533 63.1622 30.4351 63.7846C29.8668 64.0147 29.2444 64.0688 28.6084 63.9064C27.9589 63.7305 27.4177 63.3516 27.0388 62.8374C27.8236 62.5668 28.4596 61.9715 28.7708 61.1596Z" fill="#008AD2"/>
<path d="M34.3591 61.1731C34.0479 61.2678 33.7367 61.3625 33.412 61.4302C33.5473 62.2826 33.2902 63.1215 32.7489 63.744C33.3308 64.0011 33.9938 64.0687 34.6433 63.8928C35.2793 63.7304 35.7934 63.3516 36.1588 62.878C35.3604 62.6209 34.6839 62.012 34.3591 61.1731Z" fill="#008AD2"/>
<path d="M30.0698 61.4708C30.5704 61.5655 31.0711 61.6061 31.5988 61.6061C32.113 61.6061 32.6271 61.5655 33.1278 61.4708C33.1278 62.7968 32.4377 63.8658 31.5988 63.8658C30.7598 63.8658 30.0698 62.7968 30.0698 61.4708Z" fill="#008AD2"/>
<path d="M34.7109 61.0649C35.374 62.215 36.5106 62.7969 37.2277 62.3774C37.9584 61.9579 38.0125 60.686 37.3495 59.5358C36.5647 60.1853 35.6717 60.6995 34.7109 61.0649Z" fill="#008AD2"/>
<path d="M40.0287 49.5228C39.6769 48.5486 39.1492 47.6555 38.4997 46.8707C39.6633 46.2077 40.9353 46.2618 41.3412 47.006C41.7607 47.7232 41.1788 48.8598 40.0287 49.5228Z" fill="#008AD2"/>
<path d="M34.7109 44.178C35.6852 44.5298 36.5782 45.0575 37.363 45.707C38.0261 44.5568 37.9719 43.2849 37.2413 42.8654C36.4971 42.446 35.374 43.0278 34.7109 44.178Z" fill="#008AD2"/>
<path d="M25.9698 42.8654C26.687 42.446 27.8236 43.0278 28.4866 44.178C27.5124 44.5433 26.6193 45.0575 25.848 45.707C25.185 44.5568 25.2391 43.2849 25.9698 42.8654Z" fill="#008AD2"/>
<path d="M23.1554 49.5093C23.5072 48.535 24.0349 47.642 24.6844 46.8572C23.5342 46.1941 22.2623 46.2483 21.8429 46.979C21.4234 47.7232 22.0052 48.8462 23.1554 49.5093Z" fill="#008AD2"/>
<path d="M20.3477 52.7093C20.3443 52.6789 20.3409 52.6484 20.3409 52.6214C20.3409 51.7825 21.4099 51.0924 22.7359 51.0924C22.6987 51.3033 22.6728 51.537 22.6479 51.7621L22.6412 51.8231C21.9376 52.2019 21.1663 52.5267 20.3544 52.7973C20.3544 52.7702 20.351 52.7398 20.3477 52.7093Z" fill="#008AD2"/>
<path d="M24.6844 58.3721C24.0349 57.5873 23.5072 56.6943 23.1554 55.72C22.0052 56.3831 21.4234 57.5197 21.8429 58.2368C22.2623 58.981 23.5342 59.0352 24.6844 58.3721Z" fill="#008AD2"/>
<path d="M25.8345 59.5358C26.6193 60.1853 27.5124 60.7131 28.4866 61.0649C27.8236 62.2015 26.7005 62.7969 25.9563 62.3774C25.2256 61.9579 25.1715 60.686 25.8345 59.5358Z" fill="#008AD2"/>
<path fill-rule="evenodd" clip-rule="evenodd" d="M30.6516 44.2186C30.841 44.0021 31.0711 43.8939 31.3282 43.8804C31.3011 44.1645 31.1523 44.3539 30.9358 44.4757H32.2889C32.0588 44.3269 31.9235 44.1375 31.8829 43.8668C32.1671 43.8804 32.3971 43.9886 32.5866 44.2051V43.0414C32.3701 43.285 32.14 43.4068 31.8829 43.4068C31.8694 43.1903 32.0453 42.9467 32.2889 42.7843H30.9358C31.1658 42.9332 31.3146 43.1226 31.3552 43.4203C31.0575 43.3797 30.841 43.2715 30.6516 43.0685V44.2186ZM31.0846 43.5962H31.5582V43.1361H31.68V43.5962H32.1806V43.718H31.68V44.1916H31.5582V43.718H31.0846V43.5962Z" fill="#008AD2"/>
<path fill-rule="evenodd" clip-rule="evenodd" d="M31.5853 46.0453C31.2876 46.0453 31.017 45.9642 30.8275 45.8288C30.6516 45.6935 30.5298 45.5176 30.5298 45.3282C30.5298 45.1388 30.6381 44.9628 30.8275 44.8275C31.017 44.6922 31.2876 44.611 31.5853 44.611C31.883 44.611 32.1536 44.6922 32.343 44.8275C32.5189 44.9628 32.6407 45.1388 32.6407 45.3282C32.6407 45.5176 32.5324 45.6935 32.343 45.8288C32.1536 45.9642 31.883 46.0453 31.5853 46.0453ZM30.8816 45.2199C30.8411 45.2199 30.814 45.247 30.814 45.2876V45.3553C30.814 45.3958 30.8411 45.4229 30.8816 45.4229H32.3024C32.343 45.4229 32.3701 45.3958 32.3701 45.3553V45.2876C32.3701 45.247 32.343 45.2199 32.3024 45.2199H30.8816Z" fill="#008AD2"/>
<path d="M40.0422 55.7337C39.6904 56.7079 39.1627 57.601 38.5132 58.3858C39.6634 59.0488 40.9353 58.9947 41.3547 58.264C41.7742 57.5198 41.1788 56.3967 40.0422 55.7337Z" fill="#008AD2"/>
<path d="M45.2517 53.3927C41.6659 52.7703 38.8785 51.2548 36.7947 48.7786C37.5931 49.8476 38.0802 51.1871 38.0802 52.6214C38.0802 52.8785 38.0667 53.1356 38.0261 53.3927V53.4468H45.2517C45.2652 53.4468 45.2787 53.4333 45.2787 53.4198C45.2787 53.4062 45.2787 53.3927 45.2517 53.3927Z" fill="#008AD2"/>
<path fill-rule="evenodd" clip-rule="evenodd" d="M26.3758 48.8192C25.415 49.9558 24.292 50.903 22.993 51.6472C23.2095 49.6446 24.1161 47.845 25.4692 46.4919C26.4434 45.5041 27.6612 44.7599 29.0143 44.3404C28.6355 45.247 28.216 46.0859 27.7559 46.8572C27.4447 47.3985 27.1064 47.8856 26.7411 48.3592C26.6193 48.5215 26.4975 48.6704 26.3758 48.8192ZM26.9847 45.91L26.8629 46.2754H26.484L26.7952 46.5054L26.6734 46.8707L26.9847 46.6407L27.2959 46.8707L27.1741 46.5054L27.4853 46.2754H27.1064L26.9847 45.91ZM24.6708 49.577L24.982 49.807L24.8603 49.4417L25.1715 49.2116H24.7926L24.6708 48.8463L24.5491 49.2116H24.1702L24.4814 49.4417L24.3596 49.807L24.6708 49.577ZM25.7804 47.6014L25.6586 47.2361L25.5368 47.6014H25.158L25.4692 47.8314L25.3474 48.1968L25.6586 47.9668L25.9698 48.1968L25.848 47.8314L26.1593 47.6014H25.7804Z" fill="#008AD2"/>
<path d="M35.1304 57.7498C35.0606 57.6722 34.9641 57.5724 34.8485 57.4529L34.8472 57.4515C34.7616 57.3629 34.6655 57.2635 34.5621 57.1544C34.5283 57.1882 34.4978 57.2221 34.4674 57.2559C34.4369 57.2897 34.4065 57.3236 34.3727 57.3574C34.5892 57.4792 34.8057 57.6145 35.0628 57.8039C35.0786 57.7881 35.0945 57.7769 35.1076 57.7676C35.1169 57.761 35.1248 57.7554 35.1304 57.7498Z" fill="#008AD2"/>
<path d="M34.1697 57.2491C33.9397 57.1408 33.6961 57.0596 33.3984 56.9784C33.3849 56.9784 33.3714 56.9649 33.3849 56.9649C33.5202 56.7349 33.6285 56.5049 33.7367 56.2613C33.8933 56.4353 34.0443 56.5925 34.1862 56.7402L34.1865 56.7405L34.1869 56.7409C34.2653 56.8226 34.3411 56.9014 34.4133 56.9784C34.3321 57.0731 34.2509 57.1679 34.1697 57.2491Z" fill="#008AD2"/>
<path d="M34.1968 57.5467C33.6826 58.0609 33.1143 58.4669 32.5595 58.7781C33.3849 58.6563 34.1697 58.3586 34.8598 57.9391C34.6162 57.7768 34.4268 57.655 34.1968 57.5467Z" fill="#008AD2"/>
<path d="M33.1278 56.9108C32.5865 56.789 32.2212 56.7484 31.7206 56.7484V54.4752C31.8288 54.4887 31.9235 54.4887 32.0182 54.4887L32.1991 54.6787L32.1999 54.6795C32.6745 55.178 33.1254 55.6515 33.5337 56.0718C33.4255 56.356 33.2766 56.6401 33.1278 56.9108Z" fill="#008AD2"/>
<path d="M31.7747 54.2316C31.7679 54.2181 31.7578 54.2079 31.7476 54.1978C31.7375 54.1876 31.7273 54.1775 31.7206 54.164V54.2316H31.7747Z" fill="#008AD2"/>
<path d="M31.9371 58.8322C31.9371 58.8322 32.0588 58.7375 32.1671 58.6157C32.573 58.1557 32.9248 57.6821 33.2225 57.1679V57.1814C33.2496 57.195 33.2902 57.2085 33.3172 57.2085C33.5743 57.2762 33.7773 57.3438 33.9667 57.425C33.4255 57.9527 32.8436 58.3586 32.2889 58.6834C32.1265 58.7781 31.9371 58.8322 31.9371 58.8322Z" fill="#008AD2"/>
<path d="M31.477 54.4752C30.5163 54.4887 29.975 54.5428 29.2308 54.7322C29.312 55.057 29.4203 55.3817 29.5556 55.7877C29.6909 56.1801 29.8533 56.5589 30.0698 56.9108C30.611 56.789 30.9764 56.7484 31.477 56.7484V54.4752Z" fill="#008AD2"/>
<path d="M31.477 56.992V58.7646C31.477 58.7646 31.4229 58.7375 31.3552 58.6699C30.9087 58.1692 30.5298 57.6686 30.2051 57.1409C30.6787 57.0326 31.0305 56.992 31.477 56.992Z" fill="#008AD2"/>
<path d="M31.2605 58.8458C31.2605 58.8458 31.1387 58.7511 31.0305 58.6293C30.6245 58.1692 30.2592 57.6956 29.9615 57.195V57.2085C29.9209 57.2085 29.8939 57.2221 29.8668 57.2356C29.6097 57.3032 29.4203 57.3709 29.2173 57.4521C29.745 57.9798 30.3268 58.3857 30.8952 58.7105C31.0575 58.7917 31.247 58.8458 31.2605 58.8458Z" fill="#008AD2"/>
<path d="M29.0685 51.4172C29.3932 51.7554 29.7315 52.1073 30.0833 52.4726H29.0143C29.0143 52.0667 29.0414 51.7284 29.0685 51.4172Z" fill="#008AD2"/>
<path d="M31.7206 58.7646C31.7206 58.7646 31.7747 58.7375 31.8423 58.6699C32.2889 58.1692 32.6677 57.6686 32.9925 57.1409C32.5189 57.0326 32.1671 56.992 31.7206 56.992V58.7646Z" fill="#008AD2"/>
<path d="M35.7258 55.3277C36.1317 55.4901 36.5106 55.6795 36.9165 55.9096L36.5512 56.4373C36.4666 56.3462 36.3509 56.224 36.2083 56.0734L36.2079 56.073C36.0539 55.9104 35.8688 55.7148 35.6581 55.4901C35.6717 55.436 35.6987 55.3818 35.7258 55.3277Z" fill="#008AD2"/>
<path d="M33.0737 52.7703C33.4119 53.1346 33.7502 53.4863 34.0764 53.8256L34.1156 53.8663C34.1562 53.5551 34.1697 53.2033 34.1832 52.7703H33.0737Z" fill="#008AD2"/>
<path d="M32.7518 52.4199C32.4117 52.0667 32.0598 51.7013 31.7206 51.336V50.9842C32.7083 50.9706 33.2766 50.93 34.0208 50.7406C34.1291 51.2277 34.1697 51.7284 34.1832 52.4591H32.7895L32.7518 52.4199Z" fill="#008AD2"/>
<path d="M29.7992 48.2644C29.5015 48.1833 29.2714 48.1021 29.0414 47.9938C28.9602 48.075 28.879 48.1697 28.7978 48.2644C29.0008 48.4809 29.2308 48.7245 29.4879 48.9816C29.5962 48.738 29.7044 48.508 29.8533 48.2644H29.7992Z" fill="#008AD2"/>
<path d="M28.3513 57.9391C28.5813 57.7768 28.7708 57.655 29.0008 57.5467C29.5285 58.0609 30.0833 58.4669 30.6516 58.7781C29.8262 58.6563 29.0414 58.3586 28.3513 57.9391Z" fill="#008AD2"/>
<path d="M27.1741 52.4727H28.7708C28.7843 51.9449 28.7978 51.539 28.852 51.1737C28.6084 50.9166 28.3784 50.673 28.1619 50.443C27.986 50.3889 27.7965 50.3212 27.6206 50.2535C27.2959 51.0519 27.2012 51.7555 27.1741 52.4727Z" fill="#008AD2"/>
<path d="M36.2805 52.4726C36.24 51.7284 36.1452 50.9977 35.8205 50.1588C36.24 49.9829 36.6188 49.7935 37.0383 49.5499C37.5389 50.4159 37.8231 51.4037 37.8502 52.4726H36.2805Z" fill="#008AD2"/>
<path d="M31.477 50.9978H31.3958C31.4093 51.0113 31.4229 51.0282 31.4364 51.0451C31.4499 51.062 31.4635 51.0789 31.477 51.0925V50.9978Z" fill="#008AD2"/>
<path d="M30.0698 48.3321C30.611 48.4539 30.9763 48.4945 31.477 48.4945H31.4905V50.7677C31.3823 50.7542 31.2741 50.7542 31.1658 50.7542C30.6246 50.1994 30.1104 49.6582 29.6638 49.1846C29.7721 48.8869 29.9074 48.6163 30.0698 48.3321Z" fill="#008AD2"/>
<path d="M27.7154 50.0235C27.7221 50.0235 27.7289 50.0268 27.7357 50.0302C27.7424 50.0336 27.7492 50.037 27.756 50.037L27.7154 49.9964V50.0235Z" fill="#008AD2"/>
<path d="M27.4583 49.9152C27.0658 49.7528 26.6734 49.5634 26.281 49.3334L26.6058 48.8463C26.6811 48.9274 26.7837 49.0333 26.9083 49.1619L26.9085 49.1621L26.9088 49.1624C27.0751 49.3341 27.2805 49.5461 27.5124 49.7934C27.5056 49.8137 27.4955 49.834 27.4853 49.8543C27.4752 49.8746 27.465 49.8949 27.4583 49.9152Z" fill="#008AD2"/>
<path d="M35.4822 55.2194C35.4416 55.2059 35.401 55.1924 35.3604 55.1653L35.4687 55.2736C35.4687 55.268 35.471 55.2624 35.4737 55.2558C35.4776 55.2465 35.4822 55.2353 35.4822 55.2194Z" fill="#008AD2"/>
<path d="M28.3355 47.79C28.22 47.6705 28.1235 47.5707 28.0536 47.4931C28.0807 47.4796 28.1078 47.4525 28.1213 47.4255C28.3784 47.6149 28.5949 47.7502 28.8114 47.872C28.7776 47.9058 28.7471 47.943 28.7167 47.9802C28.6862 48.0174 28.6558 48.0547 28.6219 48.0885C28.5182 47.979 28.4219 47.8794 28.336 47.7906L28.3355 47.79Z" fill="#008AD2"/>
<path d="M36.0235 52.7703H34.4268C34.4133 53.3251 34.3862 53.731 34.3456 54.1099C34.4521 54.223 34.5586 54.3329 34.6635 54.4411L34.6637 54.4413C34.772 54.553 34.8785 54.663 34.9816 54.7729L34.9819 54.773L34.9825 54.7733C35.1851 54.8408 35.3879 54.9084 35.5905 54.9894C35.9017 54.1911 35.9829 53.4874 36.0235 52.7703Z" fill="#008AD2"/>
<path d="M31.4392 53.8948L31.477 53.934H31.4905V54.2452C30.4892 54.2587 29.9344 54.2993 29.1767 54.4887C29.082 54.0016 29.0279 53.501 29.0143 52.7703H30.3674C30.7202 53.1492 31.0856 53.5281 31.4392 53.8948Z" fill="#008AD2"/>
<path d="M28.9196 54.5564C28.8114 54.0422 28.7708 53.5416 28.7572 52.7703H27.1606C27.2012 53.4874 27.2959 54.1775 27.5936 54.9894C28.0401 54.8135 28.4866 54.6782 28.9196 54.5564Z" fill="#008AD2"/>
<path d="M26.917 52.4726H25.3474C25.3609 51.4037 25.6586 50.4024 26.1457 49.5499C26.5652 49.7935 26.9441 49.9829 27.3635 50.1588C27.0523 50.9977 26.9576 51.7419 26.917 52.4726Z" fill="#008AD2"/>
<path d="M31.7206 46.4783V48.2509C32.1535 48.2509 32.5189 48.2103 32.9925 48.102C32.6677 47.5743 32.2889 47.0737 31.8423 46.573C31.7747 46.5054 31.7206 46.4783 31.7206 46.4783Z" fill="#008AD2"/>
<path d="M36.2805 52.7703H37.8502C37.8231 53.8392 37.5389 54.827 37.0383 55.693C36.6188 55.4494 36.24 55.26 35.8205 55.0841C36.1452 54.2452 36.24 53.501 36.2805 52.7703Z" fill="#008AD2"/>
<path d="M31.477 46.4783C31.477 46.4783 31.4229 46.5054 31.3552 46.573C30.9222 47.0737 30.5298 47.5743 30.2051 48.102C30.6787 48.2103 31.0305 48.2509 31.477 48.2509V46.4783Z" fill="#008AD2"/>
<path d="M32.1671 46.6137C32.0588 46.4919 31.9371 46.3972 31.9371 46.3972C31.9371 46.3972 32.1265 46.4513 32.3024 46.5325C32.8572 46.8572 33.4525 47.2632 33.9803 47.7909C33.7773 47.8721 33.5879 47.9397 33.3308 48.0074C33.3037 48.0209 33.2631 48.0344 33.2361 48.0344V48.048C32.9384 47.5473 32.573 47.0737 32.1671 46.6137Z" fill="#008AD2"/>
<path d="M31.7206 50.7541C32.6813 50.7406 33.2225 50.6864 33.9667 50.497C33.8855 50.1723 33.7908 49.8475 33.642 49.4416C33.5067 49.0492 33.3308 48.6703 33.1278 48.3185C32.5865 48.4403 32.2212 48.4809 31.7206 48.4809V50.7541Z" fill="#008AD2"/>
<path d="M29.8803 48.0209C29.6232 47.9532 29.4203 47.8855 29.2308 47.8044C29.7586 47.2902 30.3404 46.8707 30.9222 46.5595C31.0846 46.4648 31.274 46.4107 31.274 46.4107C31.274 46.4107 31.1523 46.5054 31.044 46.6272C30.6381 47.0872 30.2727 47.5608 29.975 48.0615V48.0479C29.9642 48.0443 29.9544 48.0407 29.9452 48.0374C29.9201 48.0282 29.9001 48.0209 29.8803 48.0209Z" fill="#008AD2"/>
<path d="M29.0008 47.6962C29.5285 47.182 30.0968 46.776 30.6516 46.4648C29.8262 46.5866 29.0414 46.8843 28.3513 47.3038C28.5813 47.4661 28.7708 47.5879 29.0008 47.6962Z" fill="#008AD2"/>
<path d="M29.7992 56.9785C29.515 57.0597 29.2714 57.1544 29.0414 57.2491C28.649 56.8296 28.2972 56.356 28.013 55.8148C27.8913 55.6118 27.7965 55.4224 27.7154 55.2194C28.1348 55.057 28.5543 54.9217 28.9873 54.8C29.0685 55.1247 29.1767 55.4494 29.312 55.8419C29.4473 56.2478 29.6232 56.6131 29.8397 56.9785H29.7992Z" fill="#008AD2"/>
<path d="M34.1562 47.9938C33.9261 48.0885 33.6826 48.1833 33.3849 48.2644H33.3443C33.5608 48.6298 33.7367 48.9951 33.872 49.4011C34.0073 49.7935 34.1156 50.1182 34.1967 50.443C34.6297 50.3212 35.0492 50.1859 35.4822 50.0235C35.401 49.8205 35.3063 49.6311 35.1845 49.4281C34.9004 48.8733 34.5486 48.4133 34.1562 47.9938Z" fill="#008AD2"/>
<path d="M34.4268 52.4727C34.4133 51.6878 34.3727 51.2007 34.2644 50.6865C34.7109 50.5648 35.1439 50.4295 35.5769 50.2535C35.9017 51.0654 35.9829 51.7555 36.0235 52.4727H34.4268Z" fill="#008AD2"/>
<path d="M28.1348 57.8039C28.3784 57.628 28.5949 57.4792 28.8249 57.3574C28.419 56.9379 28.0672 56.4643 27.7695 55.9096C27.6613 55.7066 27.5666 55.5172 27.4719 55.3278C27.0794 55.4902 26.687 55.6795 26.2946 55.9096C26.7546 56.6673 27.3771 57.3033 28.1348 57.8039Z" fill="#008AD2"/>
<path d="M34.1832 47.6962C33.669 47.182 33.1007 46.776 32.546 46.4648C33.3849 46.5866 34.1562 46.8843 34.8327 47.3038C34.6027 47.4661 34.4133 47.5879 34.1832 47.6962Z" fill="#008AD2"/>
<path d="M27.3771 55.0841C27.0523 54.2452 26.9576 53.5145 26.9306 52.7703H25.3474C25.3609 53.8392 25.6451 54.827 26.1457 55.693C26.5652 55.4494 26.9576 55.26 27.3771 55.0841Z" fill="#008AD2"/>
<path d="M34.3727 47.8855C34.6027 47.7637 34.8192 47.6149 35.0628 47.439C35.807 47.9261 36.4429 48.5756 36.903 49.3333C36.4971 49.5634 36.1182 49.7528 35.7122 49.9152C35.6311 49.7257 35.5363 49.5363 35.4281 49.3333C35.1304 48.7785 34.7651 48.305 34.3727 47.8855Z" fill="#008AD2"/>
<path d="M30.2186 61.2814H32.9654C33.1007 61.2814 33.2225 61.1596 33.2225 60.9972V60.7266C33.2225 60.5642 33.1143 60.4425 32.9654 60.4425H30.2186C30.0833 60.4425 29.9615 60.5642 29.9615 60.7266V60.9972C29.975 61.1596 30.0833 61.2814 30.2186 61.2814Z" fill="#008AD2"/>
<path d="M30.5434 59.8335V59.5494C30.5434 59.387 30.6922 59.2517 30.8816 59.2381H32.3024C32.4918 59.2381 32.6407 59.387 32.6407 59.5494V59.8335C32.6407 60.0094 32.4918 60.1447 32.3024 60.1447H30.8816C30.6922 60.1447 30.5434 59.9959 30.5434 59.8335Z" fill="#008AD2"/>
<path d="M30.4351 60.2124H30.4622C30.381 60.1177 30.3269 59.9959 30.3269 59.8742V59.5359C30.3269 59.4006 30.381 59.2788 30.4757 59.1841C30.5704 59.0893 30.6922 59.0352 30.8275 59.0352H30.8546C27.9048 58.6969 25.5639 56.3831 25.1986 53.4469V53.4063H18.0271C18.0135 53.4063 18 53.4063 18 53.4198C18 53.4256 18 53.4289 18.001 53.4318C18.0024 53.4358 18.0057 53.439 18.0134 53.4467L18.0271 53.4469C21.1122 54.2046 23.7372 55.3142 25.9022 56.6132C27.7154 57.7092 29.2308 58.954 30.4351 60.2124Z" fill="#008AD2"/>
<path fill-rule="evenodd" clip-rule="evenodd" d="M30.0427 60.2259C29.975 60.253 29.9209 60.2936 29.8668 60.3612C29.7856 60.4424 29.745 60.5777 29.745 60.7131V61.0919C28.0942 60.7266 26.6193 59.9012 25.4692 58.751C24.6032 57.885 23.9131 56.8432 23.4801 55.6795C24.2514 56.0448 24.9956 56.4372 25.7127 56.8567C27.3771 57.8445 28.8249 58.9811 30.0427 60.2259ZM25.6045 57.7227L25.9157 57.9527L25.7939 57.5738L26.1051 57.3573H25.7263L25.6045 56.992L25.4827 57.3573H25.1038L25.4151 57.5874L25.2933 57.9527L25.6045 57.7227ZM27.0388 59.0623L27.35 59.2923L27.2282 58.9134L27.5394 58.6969H27.1606L27.0388 58.3316L26.917 58.6969H26.5381L26.8494 58.9269L26.7276 59.2923L27.0388 59.0623ZM28.6219 60.0636L28.9332 60.2936L28.8114 59.9147L29.1226 59.6982H28.7437L28.6219 59.3329L28.5002 59.6982H28.1213L28.4325 59.9283L28.3107 60.2936L28.6219 60.0636Z" fill="#008AD2"/>
<path d="M22.9389 55.4224C22.0864 55.0435 21.1933 54.7052 20.2732 54.394C20.192 54.8 20.2056 55.233 20.3138 55.6659C20.4762 56.3019 20.8551 56.8161 21.3287 57.1814C21.5858 56.4102 22.1541 55.7607 22.9389 55.4224Z" fill="#008AD2"/>
<path fill-rule="evenodd" clip-rule="evenodd" d="M37.7148 58.7511C36.5647 59.9012 35.0898 60.7402 33.439 61.092C33.4525 61.0649 33.4525 61.0514 33.439 61.0514V60.7266C33.439 60.5778 33.3849 60.456 33.3172 60.3613C33.2496 60.2666 33.1549 60.2125 33.0466 60.2125H32.776C34.6162 58.2775 37.0383 56.6132 39.8257 55.3277C39.3927 56.6267 38.662 57.8039 37.7148 58.7511ZM37.5795 57.0056L37.4578 57.3709L37.0789 57.3845L37.3901 57.601L37.2683 57.9663L37.5795 57.7363L37.8908 57.9663L37.769 57.601L38.0802 57.3709H37.7013L37.5795 57.0056ZM36.1452 58.3316L36.0235 58.697L35.6311 58.7105L35.9423 58.927L35.8205 59.2923L36.1317 59.0623L36.4429 59.2923L36.3211 58.927L36.6459 58.697H36.267L36.1452 58.3316ZM34.5621 59.3329L34.4403 59.6983L34.0614 59.7118L34.3727 59.9283L34.2509 60.2936L34.5621 60.0636L34.8733 60.2936L34.7515 59.9283L35.0627 59.6983H34.6839L34.5621 59.3329Z" fill="#008AD2"/>
<path d="M40.4617 51.0924C40.4863 51.2032 40.4997 51.3252 40.5121 51.438L40.5158 51.4712C41.2465 51.8772 42.0178 52.2155 42.8567 52.4861C42.7484 51.7148 41.7201 51.0924 40.4617 51.0924Z" fill="#008AD2"/>
<path fill-rule="evenodd" clip-rule="evenodd" d="M35.6852 46.7084C35.2657 46.0183 34.9004 45.2741 34.5486 44.4757C35.7528 44.9087 36.8353 45.5988 37.7284 46.4919C39.0003 47.7638 39.8798 49.4146 40.164 51.2684C38.3373 50.1723 36.8624 48.6704 35.6852 46.7084ZM36.2129 46.6272L36.5241 46.8572L36.4023 46.4919L36.7136 46.2618H36.3347L36.2129 45.8965L36.0911 46.2618H35.7123L36.0235 46.4919L35.9017 46.8572L36.2129 46.6272ZM38.6485 49.2252L38.5267 48.8598L38.405 49.2252H38.0261L38.3373 49.4552L38.2155 49.8205L38.5267 49.5905L38.8379 49.8205L38.7162 49.4552L39.0274 49.2252H38.6485ZM37.8502 48.1833L37.7284 47.8179L38.0396 47.5879H37.6607L37.539 47.2225L37.4172 47.5879H37.0383L37.3495 47.8179L37.2277 48.1833L37.539 47.9532L37.8502 48.1833Z" fill="#008AD2"/>
<path d="M34.4268 44.0833C34.738 43.2714 35.374 42.6761 36.1588 42.4054C35.7799 41.9048 35.2387 41.5124 34.5892 41.3365C34.1968 41.2282 33.8044 41.2147 33.439 41.2688C33.7232 42.2837 34.0344 43.2038 34.3862 44.0698C34.393 44.0698 34.3997 44.0732 34.4065 44.0765C34.4133 44.0799 34.42 44.0833 34.4268 44.0833Z" fill="#008AD2"/>
</svg>
