<svg width="24" height="24" viewBox="0 0 24 24" fill="none" xmlns="http://www.w3.org/2000/svg">
<path fill-rule="evenodd" clip-rule="evenodd" d="M17.2845 7.91874C17.5113 8.20825 17.2845 8.7549 17.2845 8.7549L12.8153 11.9069H12.475L10.9234 13.1131L10.8558 13.322C10.8558 13.322 11.0664 13.9171 11.0014 14.8821C10.9367 15.8468 10.1918 16.3776 10.1918 16.3776C10.1918 16.3776 8.4915 17.6963 8.11907 17.9695C7.74664 18.243 7.30947 17.9695 7.30947 17.9695L4.55656 14.3995C4.36236 13.9653 4.73479 13.6598 4.73479 13.6598L7.09886 11.8587L7.73045 11.6334C8.86394 11.3924 9.98124 12.1964 9.98124 12.1964L10.2242 12.1642L11.8436 10.9259L11.9569 10.6203C11.9569 10.6203 15.4223 7.74174 15.8433 7.43616C16.2643 7.13059 16.6529 7.32366 16.6529 7.32366C16.6529 7.32366 17.0577 7.62924 17.2845 7.91874ZM6.54303 10.6687C6.54303 10.6687 4.54374 9.80039 5.62299 7.8464C6.70224 5.8924 6.57824 5.67544 6.54303 5C6.54303 5 8.37809 5.65133 7.60086 7.43636C6.82362 9.22138 6.311 9.58321 6.54303 10.6687ZM9.42502 10.6687C9.42502 10.6687 7.42573 9.80039 8.50498 7.8464C9.58423 5.8924 9.46023 5.67544 9.42502 5C9.42502 5 11.2601 5.65133 10.4828 7.43636C9.7056 9.22138 9.19298 9.58321 9.42502 10.6687ZM23.8266 14.7408C24.3366 15.653 23.5592 15.7585 23.5592 15.7585L21.9321 15.8686C19.7215 15.9789 15.8708 18.2596 15.8708 18.2596L15.8725 18.2541C14.4827 20.5919 11.6008 22.1991 8.26879 22.1991C4.36752 22.1991 1.08122 19.9966 0.0874758 16.9964H0.0911928C0.0317083 16.8286 0 16.6566 0 16.4817C0 15.2761 1.46612 14.2148 3.69023 13.5928V14.4658C2.00367 14.9564 0.922229 15.7105 0.922229 16.5571C0.922229 18.0354 4.21706 19.2341 8.28147 19.2341C12.3461 19.2341 15.6409 18.0354 15.6409 16.5571C15.6409 15.55 14.1112 14.6732 11.8516 14.2163V13.3536C14.423 13.8727 16.2548 14.9339 16.5083 16.1835L16.5087 16.1824C19.0283 14.6524 21.8835 14.1663 21.8835 14.1663C21.8835 14.1663 23.3166 13.8286 23.8266 14.7408ZM9.9047 15.4281C10.0525 15.3134 10.079 15.0997 9.96353 14.9531L9.89857 14.8705C9.78332 14.7237 9.56791 14.6975 9.42029 14.8121L7.49011 16.3092C7.34227 16.4238 7.31581 16.6375 7.43128 16.7844L7.49601 16.8667C7.61148 17.0135 7.82668 17.0398 7.97451 16.9251L9.9047 15.4281ZM7.15813 15.7973L9.47628 13.9992C9.62412 13.8848 9.65058 13.6708 9.53511 13.5242L9.47038 13.4417C9.35491 13.2951 9.13971 13.2688 8.99187 13.3833L6.67373 15.1813C6.52589 15.296 6.49943 15.5097 6.6149 15.6563L6.67985 15.7388C6.7951 15.8857 7.01029 15.9119 7.15813 15.7973ZM5.75981 14.611C5.87506 14.7576 6.09025 14.7839 6.23809 14.6694L8.16827 13.1724C8.31611 13.0577 8.34257 12.844 8.2271 12.6972L8.16237 12.6147C8.0469 12.4681 7.83171 12.4418 7.68387 12.5562L5.75368 14.0535C5.60585 14.168 5.57939 14.3819 5.69486 14.5285L5.75981 14.611Z" fill="#008AD2"/>
</svg>
