<svg width="64" height="96" viewBox="0 0 64 96" fill="none" xmlns="http://www.w3.org/2000/svg">
<path fill-rule="evenodd" clip-rule="evenodd" d="M39.046 40.8917C39.3484 41.2777 39.046 42.0065 39.046 42.0065L33.087 46.2092H32.6333L30.5645 47.8175L30.4744 48.096C30.4744 48.096 30.7552 48.8895 30.6686 50.1761C30.5823 51.4624 29.5891 52.1701 29.5891 52.1701C29.5891 52.1701 27.322 53.9284 26.8254 54.2927C26.3288 54.6573 25.746 54.2927 25.746 54.2927L22.0754 49.5326C21.8165 48.9538 22.3131 48.5463 22.3131 48.5463L25.4652 46.1449L26.3073 45.8446C27.8186 45.5232 29.3083 46.5952 29.3083 46.5952L29.6323 46.5523L31.7915 44.9011L31.9426 44.4937C31.9426 44.4937 36.5631 40.6557 37.1244 40.2482C37.6857 39.8408 38.2039 40.0982 38.2039 40.0982C38.2039 40.0982 38.7436 40.5056 39.046 40.8917ZM24.724 44.5583C24.724 44.5583 22.0583 43.4005 23.4973 40.7952C24.9363 38.1899 24.771 37.9006 24.724 37C24.724 37 27.1708 37.8684 26.1345 40.2485C25.0982 42.6285 24.4147 43.1109 24.724 44.5583ZM28.5667 44.5583C28.5667 44.5583 25.901 43.4005 27.34 40.7952C28.779 38.1899 28.6136 37.9006 28.5667 37C28.5667 37 31.0134 37.8684 29.9771 40.2485C28.9408 42.6285 28.2573 43.1109 28.5667 44.5583ZM47.7688 49.9877C48.4488 51.2039 47.4122 51.3447 47.4122 51.3447L45.2428 51.4915C42.2954 51.6386 37.161 54.6794 37.161 54.6794L37.1634 54.6722C35.3103 57.7892 31.4677 59.9321 27.025 59.9321C21.8234 59.9321 17.4416 56.9955 16.1166 52.9953H16.1216C16.0423 52.7714 16 52.5421 16 52.309C16 50.7015 17.9548 49.2864 20.9203 48.457V49.6211C18.6716 50.2753 17.2296 51.2807 17.2296 52.4094C17.2296 54.3806 21.6227 55.9788 27.042 55.9788C32.4615 55.9788 36.8546 54.3806 36.8546 52.4094C36.8546 51.0667 34.8149 49.8976 31.8022 49.2884V48.1382C35.2307 48.8303 37.6731 50.2451 38.011 51.9114L38.0116 51.9099C41.371 49.8699 45.178 49.2218 45.178 49.2218C45.178 49.2218 47.0888 48.7715 47.7688 49.9877ZM29.2063 50.9041C29.4034 50.7512 29.4387 50.4662 29.2847 50.2708L29.1981 50.1607C29.0444 49.965 28.7572 49.9299 28.5604 50.0828L25.9868 52.0789C25.7897 52.2318 25.7544 52.5167 25.9084 52.7125L25.9947 52.8222C26.1486 53.018 26.4356 53.053 26.6327 52.9001L29.2063 50.9041ZM25.5442 51.3964L28.635 48.9989C28.8322 48.8463 28.8674 48.5611 28.7135 48.3656L28.6272 48.2556C28.4732 48.0601 28.1863 48.0251 27.9892 48.1777L24.8983 50.5751C24.7012 50.728 24.6659 51.013 24.8199 51.2084L24.9065 51.3185C25.0601 51.5142 25.3471 51.5493 25.5442 51.3964ZM23.6797 49.8147C23.8334 50.0101 24.1203 50.0452 24.3175 49.8926L26.891 47.8965C27.0881 47.7436 27.1234 47.4587 26.9695 47.2629L26.8832 47.1529C26.7292 46.9574 26.4423 46.9224 26.2452 47.075L23.6716 49.0713C23.4745 49.2239 23.4392 49.5092 23.5931 49.7046L23.6797 49.8147Z" fill="#FF8822"/>
</svg>
