<svg width="200" height="96" viewBox="0 0 200 96" fill="none" xmlns="http://www.w3.org/2000/svg">
<path fill-rule="evenodd" clip-rule="evenodd" d="M107.77 45.9116C107.684 45.9703 107.105 44.9695 107.067 44.8997C106.725 44.2604 106.572 43.5716 106.572 42.8462C106.574 41.6738 106.852 40.503 107.377 39.4533C107.35 39.5075 106.439 39.7385 106.298 39.7884C105.965 39.9062 105.63 40.0185 105.294 40.1252C104.535 40.3657 103.768 40.5784 102.994 40.7667C101.096 41.2284 99.1632 41.542 97.2193 41.7345C94.9594 41.958 92.684 42.0177 90.4145 41.9443C90.4145 41.9443 75.7775 42.0745 72.0363 38.5547C72.0363 38.5547 70.4608 36.4037 72.6271 34.9046C72.6271 34.9046 74.2023 34.3179 76.434 35.2955C76.434 35.2955 82.9319 37.1209 92.7773 37.1209C97.5942 37.1209 102.412 36.6866 107.176 35.9997C107.695 35.9246 108.318 35.9184 108.815 35.7517C109.148 35.6398 109.22 35.38 109.423 35.0837C109.658 34.7434 109.919 34.4213 110.204 34.1215C110.38 33.9365 110.567 33.7589 110.774 33.6085C111.485 33.0913 112.398 32.9226 113.28 32.9151C113.853 32.9106 114.434 32.9699 114.971 33.1716C115.507 33.3733 115.998 33.727 116.289 34.2174C116.447 34.4807 116.542 34.7764 116.605 35.0762C116.755 35.7938 116.708 36.5714 116.355 37.2149C115.739 38.336 114.642 38.2988 113.527 38.4551C112.525 38.5958 111.686 38.8715 110.762 39.2663C110.595 39.3378 110.426 39.4102 110.28 39.5186C110.075 39.6716 109.928 39.887 109.785 40.0984C109.118 41.0848 108.306 42.1923 108.131 43.3977C108.06 43.8868 108.07 44.4115 108.214 44.8892C108.266 45.057 108.51 45.3438 108.456 45.5239C108.405 45.69 107.947 45.7908 107.77 45.9116ZM107.94 12.3853C108.28 12.8202 107.94 13.6415 107.94 13.6415L101.225 18.3772H100.714L98.3825 20.1895L98.2809 20.5034C98.2809 20.5034 98.5974 21.3975 98.4998 22.8473C98.4025 24.2967 97.2834 25.0942 97.2834 25.0942C97.2834 25.0942 94.7287 27.0756 94.1691 27.486C93.6096 27.8969 92.9528 27.486 92.9528 27.486L88.8167 22.1222C88.5249 21.4699 89.0844 21.0108 89.0844 21.0108L92.6363 18.3048L93.5853 17.9664C95.2883 17.6042 96.967 18.8122 96.967 18.8122L97.332 18.7639L99.7651 16.9033L99.9353 16.4442C99.9353 16.4442 105.142 12.1193 105.774 11.6602C106.407 11.2011 106.991 11.4912 106.991 11.4912C106.991 11.4912 107.599 11.9503 107.94 12.3853ZM91.8012 16.5169C91.8012 16.5169 88.7974 15.2123 90.4189 12.2766C92.0404 9.34079 91.8541 9.01481 91.8012 8C91.8012 8 94.5583 8.97859 93.3906 11.6605C92.2228 14.3424 91.4526 14.886 91.8012 16.5169ZM96.1313 16.5169C96.1313 16.5169 93.1274 15.2123 94.749 12.2766C96.3705 9.34079 96.1842 9.01481 96.1313 8C96.1313 8 98.8883 8.97859 97.7206 11.6605C96.5528 14.3424 95.7826 14.886 96.1313 16.5169ZM117.769 22.635C118.535 24.0055 117.367 24.1641 117.367 24.1641L114.922 24.3295C111.601 24.4953 105.816 27.9218 105.816 27.9218L105.818 27.9137C103.73 31.426 99.4003 33.8407 94.3941 33.8407C88.5326 33.8407 83.5951 30.5316 82.1021 26.024H82.1077C82.0183 25.7718 81.9707 25.5134 81.9707 25.2507C81.9707 23.4394 84.1734 21.8447 87.515 20.9102V22.2219C84.9811 22.959 83.3563 24.092 83.3563 25.3639C83.3563 27.5851 88.3066 29.386 94.4131 29.386C100.52 29.386 105.47 27.5851 105.47 25.3639C105.47 23.8508 103.172 22.5335 99.7771 21.847V20.5509C103.641 21.3308 106.393 22.9251 106.773 24.8027L106.774 24.801C110.56 22.5022 114.85 21.7719 114.85 21.7719C114.85 21.7719 117.003 21.2645 117.769 22.635ZM96.852 23.6676C97.0741 23.4953 97.1138 23.1742 96.9403 22.954L96.8428 22.83C96.6696 22.6094 96.346 22.5699 96.1242 22.7422L93.2242 24.9914C93.002 25.1637 92.9623 25.4848 93.1358 25.7054L93.233 25.8291C93.4065 26.0496 93.7298 26.0891 93.952 25.9168L96.852 23.6676ZM92.7254 24.2223L96.2083 21.5208C96.4304 21.3489 96.4702 21.0275 96.2967 20.8072L96.1994 20.6832C96.0259 20.463 95.7026 20.4235 95.4805 20.5954L91.9976 23.2969C91.7755 23.4692 91.7357 23.7903 91.9092 24.0106L92.0068 24.1346C92.18 24.3551 92.5033 24.3946 92.7254 24.2223ZM90.6245 22.44C90.7976 22.6603 91.121 22.6998 91.3431 22.5278L94.2431 20.2786C94.4652 20.1063 94.505 19.7852 94.3315 19.5646L94.2342 19.4406C94.0607 19.2204 93.7374 19.1809 93.5153 19.3529L90.6153 21.6024C90.3932 21.7744 90.3534 22.0958 90.5269 22.3161L90.6245 22.44Z" fill="#FF8822"/>
<path fill-rule="evenodd" clip-rule="evenodd" d="M71.6771 48.3917C71.6771 48.3917 77.024 50.5578 75.8983 57.2647C74.907 63.1711 71.8884 67.1155 68.0894 67.9541C64.2904 68.7927 61.2653 64.5305 61.1949 59.9195C61.1555 57.3286 61.1604 53.7004 61.1723 51.0192C58.38 51.7775 55.642 53.288 53.8707 55.1942C53.8161 55.2527 53.7596 55.3143 53.685 55.3453C53.4935 55.4227 53.2835 55.2588 53.1935 55.0742C52.9756 54.6255 53.1698 54.0936 53.39 53.6459C54.2991 51.799 56.0449 50.5144 57.8905 49.6503C58.9189 49.1687 60.0426 48.7428 61.1874 48.3868C61.1917 47.775 61.1949 47.4141 61.1949 47.4141C61.1949 47.4141 61.4062 42.4533 59.6473 39.449C58.9472 38.2534 57.4663 37.4928 55.7077 38.4012C53.4958 39.5433 51.9791 43.9902 51.4162 48.1124C50.9204 51.7449 51.2756 57.8236 51.2756 57.8236C51.2756 57.8236 51.4162 61.3167 52.19 64.1115C52.7124 65.9976 53.0653 68.2605 52.3385 70.1407C51.5394 72.2082 49.152 73.0885 47.0685 72.7041C46.2875 72.5602 45.5189 72.2091 45.0189 71.596C44.5056 70.9672 44.3269 70.14 44.1636 69.3461C43.9957 68.5294 43.9691 67.7998 44.0295 66.9644C44.0295 66.9644 43.3964 63.6926 50.5724 42.4076C51.3015 40.2445 52.5705 37.497 54.3346 35.9977C55.897 34.6693 58.1967 34.5737 60.064 35.2537C62.1251 36.0039 63.6497 38.2874 64.2438 40.3287C64.9046 42.5992 65.3968 45.0213 65.9087 47.344C65.9123 47.3603 65.9152 47.3769 65.9192 47.3939C69.1639 47.1991 71.6771 48.3917 71.6771 48.3917ZM73.2093 59.1885C73.9831 57.6862 73.6473 55.8315 72.8732 54.4003C71.4599 51.787 68.3263 50.9173 66.5333 50.6295C66.7488 51.925 66.9388 53.2247 67.131 54.5276C67.3968 56.3288 67.4898 58.7813 68.9132 60.0582C70.4742 61.4583 72.2834 60.9865 73.2093 59.1885Z" fill="#FF8822"/>
<path fill-rule="evenodd" clip-rule="evenodd" d="M154.03 53.5459C154.03 53.5459 156.064 53.0885 155.998 58.189C155.933 63.2898 153.11 66.1339 150.616 67.6776C148.751 68.835 146.661 69.8642 144.51 70.258C143.785 70.3915 143.057 70.5243 142.319 70.554C139.254 70.676 136.811 69.4827 135.135 67.5582C134.445 66.7653 133.888 65.8467 133.469 64.8462C132.215 66.1874 129.941 67.3314 129.941 67.3314C129.941 67.3314 125.583 68.93 124.69 65.2577C123.705 61.2066 123.312 58.4663 123.312 58.4663L122.918 54.8717C122.918 54.8717 123.015 52.3243 123.968 50.9048C125.018 49.3405 126.528 48.6233 126.528 48.6233C126.528 48.6233 127.906 47.9064 128.169 49.4055C128.431 50.9048 127.221 59.9001 128.285 62.2469C129.35 64.5934 130.679 64.3979 130.679 64.3979C130.679 64.3979 131.522 64.625 132.902 63.1031C132.681 62.1794 132.566 61.2125 132.566 60.2258C132.568 53.8373 133.223 42.431 133.223 42.431C133.223 42.431 133.551 40.2043 134.995 39.6554C136.439 39.1066 138.211 39.4978 138.014 40.8014C137.817 42.105 137.752 46.2768 137.752 46.2768L143.987 44.5167C143.987 44.5167 145.3 44.5167 144.381 45.8856C143.462 47.2544 137.621 49.9921 137.621 49.9921L136.832 58.0646C136.551 60.477 136.001 64.6475 138.636 65.9844C139.56 66.4523 140.675 66.359 141.67 66.0683C144.496 65.2421 146.998 63.8412 148.45 61.2066C151.076 56.4455 151.732 53.7101 154.03 53.5459Z" fill="#FF8822"/>
<path fill-rule="evenodd" clip-rule="evenodd" d="M127.713 44.3427C128.68 43.2813 130.017 42.6404 130.606 43.1723C131.196 43.7042 130.981 45.1941 130.606 45.9919C130.231 46.79 127.713 47.1623 127.713 47.1623C127.713 47.1623 126.642 47.4818 126.428 46.5241C126.214 45.5664 127.713 44.3427 127.713 44.3427Z" fill="#FF8822"/>
<path fill-rule="evenodd" clip-rule="evenodd" d="M96.575 78.5025C98.0024 83.7263 101.179 81.641 101.179 81.641C101.845 81.349 103.87 81.7063 101.66 83.9226C99.45 86.1388 95.928 84.3784 95.928 84.3784C93.8604 83.4693 92.6301 80.6062 91.9023 77.7319L83.1944 76.2959C83.1944 76.2959 82.6076 76.1406 81.6672 75.9242C81.5985 77.2644 81.4799 78.5895 81.291 79.8161C80.3066 86.2038 74.9242 87.5074 74.9242 87.5074C68.8856 89.4627 64.6848 84.9655 64.6848 84.9655C64.6848 84.9655 60.8779 81.4457 63.1753 75.6439C65.4724 69.8426 70.7233 69.9734 72.5614 70.0387C73.2665 70.0631 75.1039 70.3382 77.3592 70.7076C77.3553 70.5699 77.3527 70.4945 77.3527 70.4945L76.5651 52.504C76.5651 52.504 79.3875 49.7013 81.5535 49.5705C84.1798 49.4125 86.9595 51.9293 87.8194 54.249C88.8002 56.8954 88.8715 60.102 88.4723 62.8808C88.4306 63.1725 88.3866 63.4639 88.3139 63.7494C87.4117 67.3029 84.6056 67.3029 83.3163 66.4121C82.8087 66.0613 81.3886 64.6833 81.3567 64.3675C81.3573 64.3743 81.6777 67.5392 81.7369 71.4441C84.2452 71.8725 86.7427 72.3016 88.5111 72.576C89.2085 72.6842 90.0707 72.7874 91.0536 72.8854C90.9085 71.5686 90.8738 70.6899 90.8738 70.6899L89.5779 52.5042C89.5779 52.5042 92.4001 49.7009 94.566 49.5704C96.1636 49.4744 97.6865 50.5721 98.8073 51.5834C100.482 53.0948 101.274 55.0833 101.512 57.2784C101.579 57.8902 101.631 58.5164 101.661 59.1478C101.919 59.2907 102.268 59.4202 102.666 59.3974C102.666 59.3974 104.247 50.3039 108.727 48.7396C108.727 48.7396 112.222 48.1532 112.518 52.3084C112.813 56.4636 109.515 61.4505 106.856 63.3082C106.856 63.3082 105.675 65.8501 109.121 65.2634C109.121 65.2634 111.391 65.4781 113.506 60.5623C113.492 60.3186 113.483 60.0702 113.483 59.8161C113.485 53.428 114.14 42.021 114.14 42.021C114.14 42.021 114.468 39.7943 115.912 39.2454C117.356 38.6969 119.128 39.0875 118.931 40.3914C118.734 41.6953 118.669 45.8665 118.669 45.8665L124.904 44.107C124.904 44.107 126.217 44.107 125.298 45.4759C124.379 46.8444 118.538 49.5824 118.538 49.5824L117.75 57.6549C117.514 59.6761 116.958 63.9265 119.14 65.1032C120.003 65.5688 121.082 65.4093 121.99 65.0366C122.283 64.9162 122.576 64.773 122.892 64.7485C123.208 64.7243 123.562 64.8526 123.693 65.1397C123.753 65.2729 123.759 65.4233 123.745 65.5682C123.657 66.4799 122.857 67.1563 122.049 67.5971C121.168 68.0771 120.192 68.407 119.189 68.4576C118.015 68.517 116.691 68.194 115.912 67.2676C115.909 67.264 115.02 66.2025 114.318 64.355C113.892 64.847 113.287 65.2758 112.861 65.563C111.544 66.4499 109.98 66.9504 108.383 66.8688C104.69 66.6815 102.918 63.7497 102.918 63.7497C102.918 63.7497 102.05 63.7715 101.405 63.3822C101.381 63.5053 101.355 63.6276 101.327 63.7497C101.091 64.7691 100.331 65.6794 99.474 66.2688C98.4518 66.9719 97.1588 66.8776 96.0026 66.1235C95.5061 65.7999 94.4642 64.9988 94.3692 64.367C94.3692 64.367 94.9303 68.1016 95.6947 73.2612C100.881 73.6125 107.129 73.868 111.155 74.0144C121.92 74.4059 127.04 70.625 127.04 70.625C127.04 70.625 128.812 70.2994 124.939 75.5134C121.067 80.7281 116.932 80.8586 114.238 80.8188C111.852 80.7826 99.4001 78.9683 99.4001 78.9683L96.575 78.5025ZM84.0477 54.5897C83.3258 53.6121 81.291 53.677 81.291 53.677C81.291 53.677 81.9153 57.4818 82.8004 59.6739C83.6702 61.8282 84.6385 62.4768 84.9667 61.1736C85.2947 59.87 84.7696 55.5673 84.0477 54.5897ZM97.9793 61.1735C98.2717 59.8614 97.7825 55.5672 97.0602 54.5896C96.3384 53.6123 94.3035 53.6769 94.3035 53.6769C94.3035 53.6769 94.8982 57.4941 95.8133 59.6738C96.8828 62.2226 97.6205 62.7828 97.9793 61.1735ZM109.712 52.3084C108.481 53.0419 106.955 58.8107 106.955 58.8107C106.955 58.8107 107.778 57.9662 108.432 57.2947C109.086 56.6241 110.253 54.1174 110.253 54.1174C110.253 54.1174 110.942 51.5749 109.712 52.3084ZM76.5651 81.5756C77.1066 80.2723 77.3041 77.5134 77.3659 75.0746C74.5424 74.6184 71.3858 74.3384 69.6076 74.9271C65.8664 76.1654 66.4572 79.946 66.4572 79.946C67.1916 87.3541 74.8253 85.7637 76.5651 81.5756Z" fill="#FF8822"/>
</svg>
