<svg width="32" height="32" viewBox="0 0 32 32" fill="none" xmlns="http://www.w3.org/2000/svg">
<path fill-rule="evenodd" clip-rule="evenodd" d="M23.046 8.89166C23.3484 9.27766 23.046 10.0065 23.046 10.0065L17.087 14.2092H16.6333L14.5645 15.8175L14.4744 16.096C14.4744 16.096 14.7552 16.8895 14.6686 18.1761C14.5823 19.4624 13.5891 20.1701 13.5891 20.1701C13.5891 20.1701 11.322 21.9284 10.8254 22.2927C10.3288 22.6573 9.74596 22.2927 9.74596 22.2927L6.07541 17.5326C5.81648 16.9538 6.31306 16.5463 6.31306 16.5463L9.46515 14.1449L10.3073 13.8446C11.8186 13.5232 13.3083 14.5952 13.3083 14.5952L13.6323 14.5523L15.7915 12.9011L15.9426 12.4937C15.9426 12.4937 20.5631 8.65565 21.1244 8.24822C21.6857 7.84078 22.2039 8.09821 22.2039 8.09821C22.2039 8.09821 22.7436 8.50565 23.046 8.89166ZM8.72404 12.5583C8.72404 12.5583 6.05832 11.4005 7.49732 8.7952C8.93633 6.18987 8.77099 5.90058 8.72404 5C8.72404 5 11.1708 5.86844 10.1345 8.24848C9.09816 10.6285 8.41467 11.1109 8.72404 12.5583ZM12.5667 12.5583C12.5667 12.5583 9.90097 11.4005 11.34 8.7952C12.779 6.18987 12.6136 5.90058 12.5667 5C12.5667 5 15.0134 5.86844 13.9771 8.24848C12.9408 10.6285 12.2573 11.1109 12.5667 12.5583ZM31.7688 17.9877C32.4488 19.2039 31.4122 19.3447 31.4122 19.3447L29.2428 19.4915C26.2954 19.6386 21.161 22.6794 21.161 22.6794L21.1634 22.6722C19.3103 25.7892 15.4677 27.9321 11.025 27.9321C5.82336 27.9321 1.44162 24.9955 0.116634 20.9953H0.12159C0.0422777 20.7714 0 20.5421 0 20.309C0 18.7015 1.95483 17.2864 4.92031 16.457V17.6211C2.67156 18.2753 1.22964 19.2807 1.22964 20.4094C1.22964 22.3806 5.62274 23.9788 11.042 23.9788C16.4615 23.9788 20.8546 22.3806 20.8546 20.4094C20.8546 19.0667 18.8149 17.8976 15.8022 17.2884V16.1382C19.2307 16.8303 21.6731 18.2451 22.011 19.9114L22.0116 19.9099C25.371 17.8699 29.178 17.2218 29.178 17.2218C29.178 17.2218 31.0888 16.7715 31.7688 17.9877ZM13.2063 18.9041C13.4034 18.7512 13.4387 18.4662 13.2847 18.2708L13.1981 18.1607C13.0444 17.965 12.7572 17.9299 12.5604 18.0828L9.98681 20.0789C9.78969 20.2318 9.75441 20.5167 9.90837 20.7125L9.99468 20.8222C10.1486 21.018 10.4356 21.053 10.6327 20.9001L13.2063 18.9041ZM9.54417 19.3964L12.635 16.9989C12.8322 16.8463 12.8674 16.5611 12.7135 16.3656L12.6272 16.2556C12.4732 16.0601 12.1863 16.0251 11.9892 16.1777L8.8983 18.5751C8.70119 18.728 8.6659 19.013 8.81986 19.2084L8.90646 19.3185C9.06013 19.5142 9.34706 19.5493 9.54417 19.3964ZM7.67974 17.8147C7.83341 18.0101 8.12034 18.0452 8.31746 17.8926L10.891 15.8965C11.0881 15.7436 11.1234 15.4587 10.9695 15.2629L10.8832 15.1529C10.7292 14.9574 10.4423 14.9224 10.2452 15.075L7.67158 17.0713C7.47446 17.2239 7.43918 17.5092 7.59314 17.7046L7.67974 17.8147Z" fill="#FF8822"/>
</svg>
