<svg width="160" height="24" viewBox="0 0 160 24" fill="none" xmlns="http://www.w3.org/2000/svg">
<path d="M63.784 5.66252C63.7463 5.68811 63.4943 5.25208 63.4778 5.22165C63.3285 4.94315 63.2618 4.64303 63.262 4.32699C63.2631 3.81618 63.384 3.30608 63.6128 2.84873C63.6048 2.86466 63.4213 2.9157 63.2841 2.95389C63.218 2.97227 63.1627 2.98767 63.1428 2.99473C62.9976 3.04606 62.8516 3.09496 62.705 3.14145C62.3745 3.24623 62.0402 3.33892 61.7032 3.42095C60.8763 3.62212 60.034 3.75874 59.1871 3.84262C58.2025 3.94001 57.2111 3.96603 56.2223 3.93404C56.2223 3.93404 49.8451 3.99076 48.2151 2.4572C48.2151 2.4572 47.5287 1.52002 48.4725 0.866904C48.4725 0.866904 49.1588 0.611285 50.1311 1.03722C50.1311 1.03722 52.9622 1.83251 57.2518 1.83251C59.3504 1.83251 61.4494 1.64328 63.525 1.34402C63.596 1.33377 63.6713 1.32647 63.748 1.31904C63.916 1.30276 64.0905 1.28585 64.2392 1.23597C64.3496 1.19891 64.394 1.12463 64.4479 1.03444C64.4649 1.00599 64.4829 0.975898 64.5042 0.944955C64.6063 0.796673 64.7201 0.656353 64.8444 0.5257C64.9212 0.445091 65.0024 0.367752 65.0929 0.302213C65.4027 0.0768765 65.8004 0.00337499 66.1846 0.000105124C66.4343 -0.00188524 66.6875 0.0239889 66.9211 0.111849C67.1548 0.199709 67.3686 0.353819 67.4958 0.567498C67.5642 0.682227 67.606 0.811031 67.6333 0.941684C67.6985 1.25431 67.6783 1.5931 67.5243 1.87345C67.2924 2.29543 66.9042 2.34079 66.4898 2.38922C66.4245 2.39685 66.3585 2.40457 66.2924 2.41383C65.8555 2.47511 65.4903 2.59524 65.0874 2.76726C65.0147 2.7984 64.9411 2.82996 64.8777 2.87716C64.7882 2.94384 64.7243 3.03767 64.6618 3.12979L64.5907 3.23447C64.316 3.63743 64.0115 4.08431 63.9412 4.56725C63.9101 4.78036 63.9146 5.00897 63.9775 5.2171C63.9853 5.24234 64.003 5.27376 64.022 5.30732C64.0579 5.37094 64.0982 5.44224 64.0826 5.49362C64.0688 5.53939 63.9838 5.57379 63.9037 5.6062C63.8572 5.62503 63.8123 5.64319 63.784 5.66252Z" fill="#FF8822"/>
<path fill-rule="evenodd" clip-rule="evenodd" d="M48.0586 6.74311C48.0586 6.74311 50.3882 7.68682 49.8978 10.6089C49.4659 13.1823 48.1507 14.9008 46.4955 15.2662C44.8403 15.6316 43.5223 13.7746 43.4917 11.7656C43.4745 10.6368 43.4766 9.05604 43.4818 7.88785C42.2652 8.21824 41.0723 8.87634 40.3005 9.70689L40.2989 9.7086C40.2757 9.73354 40.2514 9.75951 40.2197 9.77271C40.1362 9.8064 40.0447 9.73503 40.0055 9.65457C39.9106 9.45909 39.9952 9.22735 40.0911 9.0323C40.4872 8.22763 41.2478 7.66791 42.0519 7.29145C42.5 7.08161 42.9896 6.89608 43.4884 6.74098C43.4902 6.47441 43.4917 6.31717 43.4917 6.31717C43.4917 6.31717 43.5837 4.15579 42.8174 2.84685C42.5123 2.32595 41.8671 1.99455 41.1009 2.39035C40.1372 2.88794 39.4764 4.8254 39.2312 6.62141C39.0151 8.20403 39.1699 10.8525 39.1699 10.8525C39.1699 10.8525 39.2312 12.3744 39.5683 13.5921C39.7959 14.4138 39.9497 15.3997 39.633 16.2189C39.2849 17.1197 38.2447 17.5032 37.3369 17.3358C36.9966 17.2731 36.6618 17.1201 36.4439 16.853C36.2203 16.579 36.1424 16.2186 36.0713 15.8727C35.9981 15.5169 35.9865 15.199 36.0129 14.835C36.0129 14.835 35.737 13.4095 38.8635 4.13589C39.1812 3.19346 39.7341 1.9964 40.5027 1.34314C41.1834 0.764373 42.1853 0.722717 42.9989 1.019C43.8969 1.34584 44.5612 2.34073 44.82 3.23013C45.0589 4.05094 45.2472 4.91726 45.4318 5.76656C45.4697 5.9408 45.5074 6.11433 45.5454 6.28661C45.547 6.29372 45.5482 6.30097 45.55 6.30836C46.9636 6.22348 48.0586 6.74311 48.0586 6.74311ZM48.7262 11.4472C49.0633 10.7926 48.917 9.98454 48.5797 9.36099C47.964 8.22237 46.5987 7.84349 45.8175 7.7181C45.9053 8.24563 45.9833 8.77478 46.0615 9.30519L46.0779 9.41643C46.095 9.53184 46.1104 9.65337 46.1262 9.77851C46.2182 10.5043 46.3255 11.3516 46.8544 11.826C47.5345 12.4361 48.3228 12.2305 48.7262 11.4472Z" fill="#FF8822"/>
<path d="M84.7965 11.0117C84.8252 8.78942 83.9388 8.98874 83.9388 8.98874C83.183 9.04274 82.8349 9.73545 82.2172 10.9645C82.0169 11.3632 81.7881 11.8184 81.508 12.3264C80.8751 13.4743 79.7852 14.0846 78.5536 14.4446C78.1203 14.5713 77.6343 14.6119 77.232 14.408C76.1086 13.8381 76.3139 12.0862 76.438 11.0264L76.4461 10.9575L76.7895 7.44039C76.7895 7.44039 79.3345 6.2476 79.735 5.6512C80.1354 5.05481 79.5633 5.05481 79.5633 5.05481L76.8466 5.82166C76.8466 5.82166 76.8751 4.00404 76.961 3.43608C77.0466 2.86812 76.2747 2.69766 75.6454 2.93679C75.0164 3.17591 74.8735 4.14607 74.8735 4.14607C74.8735 4.14607 74.5882 9.1157 74.5875 11.8991C74.5873 12.329 74.6376 12.7502 74.7338 13.1527C74.1322 13.8158 73.7653 13.7168 73.7653 13.7168C73.7653 13.7168 73.1862 13.802 72.7221 12.7797C72.4213 12.1165 72.5375 10.2349 72.6251 8.81606L72.6252 8.81478L72.6253 8.81355C72.6726 8.04589 72.7116 7.4141 72.6715 7.18477C72.5569 6.53165 71.9565 6.84399 71.9565 6.84399C71.9565 6.84399 71.2986 7.15648 70.8412 7.83803C70.4259 8.45646 70.3835 9.56637 70.3835 9.56637L70.5553 11.1325C70.5553 11.1325 70.7268 12.3264 71.1557 14.0914C71.5447 15.6914 73.4435 14.9949 73.4435 14.9949C73.4435 14.9949 74.4342 14.4965 74.9809 13.9122C75.1631 14.3481 75.406 14.7483 75.7067 15.0937C76.4366 15.9322 77.5013 16.4521 78.8365 16.399C79.1579 16.386 79.4751 16.3282 79.7914 16.27C80.7283 16.0984 81.6391 15.65 82.4515 15.1458C83.5382 14.4732 84.7681 13.234 84.7965 11.0117Z" fill="#FF8822"/>
<path d="M72.4731 4.979C72.8944 4.51652 73.4767 4.23731 73.7334 4.46904C73.9902 4.70077 73.8969 5.34991 73.7334 5.69751C73.5701 6.04526 72.4731 6.20747 72.4731 6.20747C72.4731 6.20747 72.0062 6.34665 71.9129 5.92939C71.8196 5.51213 72.4731 4.979 72.4731 4.979Z" fill="#FF8822"/>
<path fill-rule="evenodd" clip-rule="evenodd" d="M60.9123 21.2295C60.9123 21.2295 59.5283 22.138 58.9064 19.862L60.1372 20.065C60.1372 20.065 65.5626 20.8555 66.6019 20.8712C67.7756 20.8886 69.5773 20.8317 71.2644 18.5597C72.9516 16.288 72.1796 16.4299 72.1796 16.4299C72.1796 16.4299 69.9489 18.0772 65.2589 17.9066C63.5048 17.8429 60.7824 17.7315 58.5228 17.5785C58.1898 15.3305 57.9453 13.7034 57.9453 13.7034C57.9867 13.9786 58.4407 14.3276 58.657 14.4687C59.1607 14.7972 59.7241 14.8383 60.1694 14.5319C60.5429 14.2752 60.8739 13.8785 60.9767 13.4344C60.989 13.3812 61.0003 13.3279 61.0109 13.2743C61.2918 13.4439 61.6701 13.4344 61.6701 13.4344C61.6701 13.4344 62.4422 14.7118 64.0508 14.7934C64.747 14.8289 65.4283 14.6108 66.0019 14.2244C66.1876 14.0993 66.451 13.9125 66.6367 13.6981C66.9366 14.4877 67.3153 14.9477 67.3308 14.9665C67.6701 15.3701 68.2476 15.5115 68.7591 15.4856C69.1962 15.4636 69.6215 15.3198 70.0051 15.1107C70.3572 14.9186 70.7059 14.6239 70.744 14.2267C70.75 14.1636 70.7474 14.098 70.7212 14.04C70.6645 13.9149 70.5101 13.8591 70.3723 13.8696C70.2556 13.8786 70.1462 13.9248 70.0378 13.9707C70.0184 13.9789 69.999 13.9871 69.9795 13.9951C69.5837 14.1575 69.1139 14.227 68.7375 14.0241C67.8094 13.5236 68.0183 11.7465 68.1245 10.8431L68.1321 10.779L68.4752 7.26189C68.4752 7.26189 71.0204 6.06895 71.4207 5.4727C71.8211 4.87631 71.2492 4.87631 71.2492 4.87631L68.5323 5.64288C68.5323 5.64288 68.561 3.82554 68.6467 3.25744C68.7326 2.68934 67.9604 2.51916 67.3313 2.75814C66.7022 2.99727 66.5592 3.96743 66.5592 3.96743C66.5592 3.96743 66.2741 8.93734 66.2732 11.7206C66.2732 11.8313 66.2769 11.9395 66.2831 12.0457C65.3617 14.1875 64.3725 14.0939 64.3725 14.0939C62.8712 14.3495 63.3859 13.242 63.3859 13.242C64.5441 12.4327 65.9812 10.2599 65.8525 8.44956C65.7238 6.63919 64.2009 6.89467 64.2009 6.89467C62.2492 7.57622 61.56 11.5382 61.56 11.5382C61.3867 11.5481 61.2348 11.4917 61.1223 11.4294C61.1092 11.1543 61.0866 10.8815 61.0576 10.6149C60.9535 9.65855 60.6086 8.79218 59.879 8.13366C59.3906 7.69308 58.7271 7.21483 58.0311 7.25663C57.0874 7.31349 55.8578 8.53486 55.8578 8.53486L56.4224 16.4582C56.4224 16.4582 56.4375 16.841 56.5008 17.4147C56.0725 17.372 55.6969 17.3271 55.393 17.2799C54.6818 17.1696 53.7 17.0018 52.6937 16.8298L52.4416 16.7868C52.416 15.1015 52.2788 13.7325 52.276 13.704C52.2911 13.8425 52.9088 14.4417 53.1297 14.5944C53.6915 14.9825 54.914 14.9825 55.3071 13.4343C55.3388 13.3099 55.3579 13.1829 55.3761 13.0558C55.5501 11.8451 55.519 10.4481 55.0917 9.29507C54.717 8.2844 53.5059 7.18786 52.3617 7.25667C51.418 7.31368 50.1883 8.53476 50.1883 8.53476L50.5314 16.3731C50.5314 16.3731 50.5326 16.4059 50.5343 16.4659C49.5516 16.305 48.7511 16.1851 48.4439 16.1744C47.6431 16.146 45.3553 16.089 44.3545 18.6166C43.3535 21.1444 45.0121 22.6779 45.0121 22.6779C45.0121 22.6779 46.8424 24.6373 49.4733 23.7854C49.4733 23.7854 51.8184 23.2174 52.2473 20.4344C52.3296 19.9 52.3813 19.3226 52.4112 18.7387C52.8209 18.833 53.0766 18.9007 53.0766 18.9007L56.8705 19.5263C57.1876 20.7786 57.7236 22.026 58.6245 22.4221C58.6245 22.4221 60.159 23.1891 61.1218 22.2235C62.0847 21.2579 61.2026 21.1022 60.9123 21.2295ZM52.2473 9.04585C52.2473 9.04585 53.1339 9.01756 53.4484 9.4435C53.7629 9.86943 53.9916 11.7441 53.8488 12.312C53.7058 12.8798 53.2839 12.5972 52.9049 11.6586C52.5193 10.7035 52.2473 9.04585 52.2473 9.04585ZM59.1178 9.44345C59.4324 9.86939 59.6456 11.7403 59.5182 12.312C59.3619 13.0132 59.0405 12.769 58.5745 11.6586C58.1758 10.7089 57.9167 9.04581 57.9167 9.04581C57.9167 9.04581 58.8033 9.01766 59.1178 9.44345ZM63.4288 11.2825C63.4288 11.2825 64.0936 8.76915 64.6299 8.44956C65.166 8.12997 64.8657 9.23774 64.8657 9.23774C64.8657 9.23774 64.3572 10.3299 64.0723 10.622L63.4288 11.2825ZM50.5372 18.3685C50.5103 19.4311 50.4242 20.6331 50.1883 21.201C49.4303 23.0257 46.1043 23.7186 45.7844 20.491C45.7844 20.491 45.527 18.8438 47.1569 18.3043C47.9317 18.0478 49.307 18.1698 50.5372 18.3685Z" fill="#FF8822"/>
<path fill-rule="evenodd" clip-rule="evenodd" d="M20.0994 6.3664C20.0994 6.3664 20.3631 5.73072 20.0994 5.39407C19.8356 5.05742 19.3649 4.70208 19.3649 4.70208C19.3649 4.70208 18.913 4.47756 18.4235 4.8329C17.9339 5.18824 13.9041 8.53557 13.9041 8.53557L13.7724 8.89091L11.8893 10.331L11.6067 10.3683C11.6067 10.3683 10.3075 9.43339 8.98939 9.71372L8.25494 9.97562L5.50587 12.07C5.50587 12.07 5.07279 12.4254 5.29861 12.9302L8.49985 17.0817C8.49985 17.0817 9.00821 17.3996 9.4413 17.0817C9.87438 16.764 11.8516 15.2305 11.8516 15.2305C11.8516 15.2305 12.7178 14.6132 12.7931 13.4914C12.8686 12.3693 12.6237 11.6773 12.6237 11.6773L12.7023 11.4344L14.5066 10.0317H14.9023L20.0994 6.3664ZM11.5861 13.574C11.7204 13.7445 11.6896 13.993 11.5177 14.1263L9.2732 15.8672C9.10128 16.0005 8.85104 15.9699 8.71677 15.7992L8.64149 15.7035C8.50722 15.5328 8.53799 15.2843 8.7099 15.1509L10.9544 13.4101C11.1261 13.2767 11.3766 13.3073 11.5106 13.478L11.5861 13.574ZM11.0195 12.4648L8.32386 14.5556C8.15195 14.689 7.90171 14.6584 7.76769 14.4877L7.69216 14.3917C7.55789 14.2213 7.58866 13.9728 7.76057 13.8394L10.4562 11.7485C10.6281 11.6154 10.8784 11.646 11.0127 11.8165L11.0879 11.9124C11.2222 12.0829 11.1914 12.3317 11.0195 12.4648ZM7.25399 13.2441C7.08208 13.3772 6.83184 13.3467 6.69782 13.1762L6.62229 13.0802C6.48801 12.9098 6.51878 12.661 6.69069 12.5279L8.93522 10.7868C9.10713 10.6537 9.35737 10.6843 9.49165 10.8548L9.56692 10.9507C9.7012 11.1214 9.67042 11.37 9.49851 11.5033L7.25399 13.2441Z" fill="#FF8822"/>
<path d="M6.53872 5.30995C5.28371 7.58216 7.60859 8.59186 7.60859 8.59186C7.41802 7.70034 7.65941 7.2286 8.1361 6.29705C8.33432 5.90968 8.57323 5.44278 8.83869 4.83313C9.7425 2.7574 7.60859 2 7.60859 2C7.61199 2.06519 7.6161 2.12672 7.62006 2.18602C7.66384 2.84124 7.68956 3.22634 6.53872 5.30995Z" fill="#FF8822"/>
<path d="M9.89005 5.30995C8.63504 7.58216 10.9599 8.59186 10.9599 8.59186C10.7693 7.70034 11.0107 7.2286 11.4874 6.29705C11.6856 5.90967 11.9246 5.44278 12.19 4.83313C13.0938 2.7574 10.9599 2 10.9599 2C10.9633 2.06519 10.9674 2.12672 10.9714 2.18602C11.0152 2.84124 11.0409 3.22634 9.89005 5.30995Z" fill="#FF8822"/>
<path d="M27.3959 14.5106C27.3959 14.5106 28.2999 14.3878 27.7069 13.3271C27.1138 12.2664 25.4474 12.6591 25.4474 12.6591C25.4474 12.6591 22.1271 13.2243 19.1972 15.0036L19.1967 15.0048C18.902 13.5516 16.7719 12.3177 13.7817 11.7141V12.7172C16.4092 13.2486 18.1881 14.2681 18.1881 15.4392C18.1881 17.1583 14.3567 18.5522 9.63014 18.5522C4.90382 18.5522 1.07242 17.1583 1.07242 15.4392C1.07242 14.4548 2.32997 13.5779 4.2912 13.0074V11.9921C1.70488 12.7154 0 13.9497 0 15.3516C0 15.5549 0.0368721 15.7549 0.106044 15.9501H0.101722C1.2573 19.4389 5.07879 22 9.61539 22C13.49 22 16.8413 20.1311 18.4574 17.4126L18.4554 17.419C18.4554 17.419 22.9333 14.7669 25.5038 14.6386L27.3959 14.5106Z" fill="#FF8822"/>
</svg>
