<svg width="32" height="32" viewBox="0 0 32 32" fill="none" xmlns="http://www.w3.org/2000/svg">
<g clip-path="url(#clip0)">
<path d="M20.8926 20.1977C22.227 20.1848 23.5096 20.4439 24.7533 20.8585C25.8933 21.2471 26.5929 22.154 26.6448 23.3588C26.6836 24.5507 26.0099 25.5483 24.8699 25.937C24.0278 26.222 23.1727 26.1572 22.4472 25.6779C21.0351 24.758 19.7395 23.6957 18.8067 22.2576C18.6772 22.0504 18.5865 21.8431 18.5088 21.6099C18.3274 21.0269 18.4699 20.7548 19.0011 20.4439C19.4644 20.1876 19.9502 20.1938 20.4357 20.2C20.5882 20.202 20.7408 20.2039 20.8926 20.1977Z" fill="#0DB0DA"/>
<path d="M15.6715 32.0002C14.3112 31.9354 13.2359 31.4172 12.6141 30.1346C12.3161 29.5128 12.342 28.852 12.4586 28.2302C12.7307 26.5978 13.2359 25.0173 14.1428 23.6051C14.3242 23.3331 14.5315 23.0869 14.7776 22.8796C15.4383 22.2966 16.0732 22.2837 16.7209 22.8796C17.3039 23.4108 17.6667 24.0974 17.9905 24.797C18.5347 26.0019 18.8715 27.2456 19.0918 28.5541C19.4027 30.3808 17.8092 31.8707 16.0602 32.0002H15.6715Z" fill="#0DB0DA"/>
<path d="M10.7999 20.2082C10.7699 20.209 10.7399 20.2097 10.7098 20.2104C9.45315 20.1456 8.20944 20.4306 6.99163 20.7804C5.51472 21.1821 4.63375 22.4776 4.85399 23.799C5.20379 25.9108 7.45802 26.6622 9.12927 25.6258C10.0621 25.0428 10.9042 24.3302 11.6685 23.5529C12.1997 23.0088 12.7438 22.4387 12.9511 21.6485C13.1195 21.0007 12.9511 20.625 12.3292 20.3788C11.839 20.1827 11.3256 20.1953 10.7999 20.2082Z" fill="#0DB0DA"/>
<path d="M15.7494 0.000193636C18.755 -0.0257171 21.0093 2.5524 20.6206 5.53214C20.2449 8.40823 19.5194 11.1807 18.185 13.7718C17.887 14.3418 17.5372 14.8859 17.0838 15.3523C16.1899 16.2462 15.296 16.2592 14.3891 15.3394C13.5729 14.5102 13.0676 13.4738 12.6401 12.4244C11.7462 10.1831 11.0725 7.86411 10.8393 5.45441C10.5413 2.42285 12.7049 0.0261044 15.7494 0.000193636Z" fill="#027EC6"/>
<path d="M21.1888 18.4054C20.8995 18.414 20.6082 18.4227 20.3227 18.3968C18.483 18.2025 17.8871 17.0365 18.7551 15.3911C19.5713 13.8495 20.7243 12.5798 21.968 11.3879C22.8879 10.507 23.8336 9.66486 24.9478 9.043C27.0984 7.85111 29.8838 8.6673 31.0109 10.8438C32.151 13.0203 31.1923 15.728 28.9251 16.7903C27.0595 17.6713 23.6781 18.4227 21.6182 18.3968C21.4762 18.3968 21.3327 18.4011 21.1888 18.4054Z" fill="#027EC6"/>
<path d="M2.98804 16.9716C5.15159 17.8008 7.37991 18.3319 9.84144 18.4485C10.1912 18.5392 10.6965 18.4615 11.1758 18.3838C12.9507 18.1117 13.5337 17.3862 12.7823 15.4947C12.7542 15.4198 12.7126 15.3516 12.672 15.2853C12.6565 15.2599 12.6412 15.2348 12.6268 15.2097C11.1888 12.7741 9.19367 10.8826 6.88761 9.27613C6.1362 8.74496 5.30705 8.51176 4.40018 8.4988C1.62772 8.44698 -0.52287 11.064 0.111944 13.7457C0.474694 15.3652 1.48521 16.4016 2.98804 16.9716Z" fill="#027EC6"/>
</g>
<defs>
<clipPath id="clip0">
<path d="M0 0H32V32H0V0Z" fill="white"/>
</clipPath>
</defs>
</svg>
