<svg width="200" height="96" viewBox="0 0 200 96" fill="none" xmlns="http://www.w3.org/2000/svg">
<path d="M22.8487 25.0003C27.2092 24.9627 30.4796 28.7029 29.9157 33.0258C29.3706 37.1984 28.3181 41.2206 26.3822 44.9796C25.9499 45.8066 25.4424 46.596 24.7846 47.2726C23.4877 48.5695 22.1909 48.5883 20.8752 47.2538C19.6911 46.0509 18.9581 44.5473 18.3379 43.0249C17.041 39.7733 16.0636 36.409 15.7253 32.9131C15.293 28.515 18.4318 25.0379 22.8487 25.0003Z" fill="#008AD2"/>
<path d="M67.8446 40.6756C66.5289 40.2997 65.1945 40.3373 63.8412 40.5065C62.3072 40.6919 60.9396 41.3157 59.562 41.9441L59.5608 41.9446C59.4028 42.0167 59.2446 42.0889 59.086 42.1605C59.0484 42.198 58.9168 42.2544 58.8041 42.292C59.4431 39.5855 59.913 37.5368 60.0258 37.0294C60.4205 35.2438 59.2927 33.3267 57.6012 33.1012C56.7178 32.9884 55.778 33.0072 54.8947 33.12C53.535 33.3012 53.5218 33.3601 53.2358 34.6289L53.2031 34.7739C52.8905 36.1265 52.153 39.294 51.2809 43.0399C49.4261 51.006 46.9624 61.5876 46.6812 62.8916C47.5269 63.4555 48.3915 63.7938 49.3501 63.8314C51.8686 63.9441 54.0677 62.3089 54.6691 59.828C54.8383 59.1513 56.1727 53.4752 57.4696 47.9494C57.9583 46.5397 58.7477 45.9759 60.4956 45.8443C60.9091 45.8067 61.3038 45.8067 61.7173 45.8255C63.3149 45.9007 63.9352 46.7465 63.5781 48.3253C62.8262 51.5393 60.6084 61.2564 60.2513 62.8728C63.3901 64.9215 67.3183 63.4179 68.2393 59.9219C68.6152 58.4747 70.7954 49.547 71.2841 46.5022C71.754 43.6453 70.4383 41.4274 67.8446 40.6756Z" fill="#008AD2"/>
<path d="M196.404 40.6756C195.088 40.2997 193.754 40.3373 192.4 40.5065C190.866 40.6919 189.499 41.3157 188.121 41.9441C187.963 42.0164 187.804 42.0887 187.645 42.1605C187.607 42.198 187.476 42.2544 187.363 42.292C188.002 39.5855 188.472 37.5368 188.585 37.0294C188.98 35.2438 187.852 33.3267 186.16 33.1012C185.277 32.9884 184.337 33.0072 183.454 33.12C182.094 33.3012 182.081 33.3601 181.795 34.629L181.762 34.7739C181.45 36.1237 180.715 39.2812 179.845 43.0172L179.839 43.0447C177.984 51.0102 175.521 61.5879 175.24 62.8916C176.086 63.4555 176.951 63.7938 177.909 63.8314C180.428 63.9441 182.627 62.3089 183.228 59.828C183.397 59.1513 184.732 53.4752 186.029 47.9494C186.517 46.5397 187.307 45.9759 189.055 45.8443C189.468 45.8067 189.863 45.8067 190.276 45.8255C191.874 45.9007 192.494 46.7465 192.137 48.3253C191.385 51.5393 189.167 61.2564 188.81 62.8728C191.949 64.9215 195.877 63.4179 196.798 59.9219C197.174 58.4747 199.355 49.547 199.843 46.5022C200.313 43.6453 198.997 41.4274 196.404 40.6756Z" fill="#008AD2"/>
<path fill-rule="evenodd" clip-rule="evenodd" d="M143.759 54.1327H155.543C156.596 51.8961 157.216 49.6219 157.254 47.2913C157.291 43.8893 155.318 41.2768 152.179 40.6942C147.067 39.7356 141.203 41.1828 138.684 47.1973C137.293 50.5429 136.41 53.9636 136.88 57.5911C137.218 60.2036 138.552 62.2147 141.127 63.192C144.36 64.3949 147.593 64.1318 150.788 63.1169C152.442 62.5718 153.363 60.6735 152.95 59.0007C152.649 57.7226 152.292 57.5159 151.014 57.9106C149.548 58.3429 148.082 58.5496 146.559 58.4744C144.36 58.3429 142.913 56.952 143.759 54.1327ZM151.032 47.2913C151.07 48.2122 150.882 49.0956 150.469 49.9414C148.495 49.9414 146.503 49.9414 144.417 49.9226C144.467 49.7932 144.517 49.6639 144.567 49.535L144.567 49.5332L144.568 49.5306C145.313 47.6017 146.02 45.7708 148.326 45.2426C149.924 44.8855 150.957 45.6749 151.032 47.2913Z" fill="#008AD2"/>
<path fill-rule="evenodd" clip-rule="evenodd" d="M119.512 45.5056C119.193 42.5171 117.37 40.5624 114.381 40.1865C111.618 39.8482 108.762 40.4496 106.431 42.0848C106.494 41.7999 106.558 41.5387 106.618 41.2912C106.664 41.0979 106.709 40.9129 106.75 40.7316C105.66 39.8858 99.9654 40.1489 99.4203 40.8255C99.4094 40.8801 98.8615 43.2379 98.0792 46.6045C96.1667 54.8342 92.8535 69.0917 92.5601 70.4656C93.4058 71.0295 94.2704 71.3678 95.229 71.4054C97.7475 71.5182 99.9466 69.883 100.548 67.402C100.586 67.2337 100.699 66.7574 100.867 66.0515C101.11 65.0226 101.47 63.5059 101.882 61.7446C103.273 63.2858 104.965 63.7369 106.788 63.8121C110.34 63.9625 113.404 63.0039 115.659 60.0907C116.881 58.5119 117.689 56.7263 118.272 54.828C119.193 51.7644 119.851 48.7007 119.512 45.5056ZM111.844 48.4752C111.637 51.1441 111.073 53.7191 109.908 56.1437C109.119 57.7788 107.878 58.6998 105.98 58.6434C104.363 58.587 103.461 57.7412 103.349 56.1061C103.293 55.349 103.46 54.6424 103.627 53.9344C103.688 53.6758 103.749 53.4167 103.8 53.1552C104.044 51.9313 104.338 50.7236 104.635 49.5019L104.702 49.227C105.303 46.7085 107.389 45.0733 109.589 45.3552C111.13 45.5619 111.788 46.2762 111.825 47.8174C111.844 48.0428 111.844 48.2498 111.844 48.4752Z" fill="#008AD2"/>
<path fill-rule="evenodd" clip-rule="evenodd" d="M89.8349 40.807C90.38 40.1304 96.0749 39.8672 97.165 40.713C96.9207 41.7468 92.8797 58.8692 92.7106 59.6586C92.1091 62.1208 89.9289 63.7372 87.4291 63.6244C86.4894 63.5868 85.6248 63.2485 84.779 62.6847C84.7978 62.5343 84.8542 62.2712 84.9482 61.8953V61.8765L84.7149 62.0129L84.7138 62.0136C84.3627 62.2193 84.0508 62.402 83.7265 62.5719C81.1703 63.9251 78.4826 64.2447 75.7573 63.2673C73.1636 62.3651 72.1298 60.1849 72.0547 57.6851C71.8855 52.5916 72.9568 47.7424 76.058 43.5511C77.806 41.2017 80.3245 40.2619 83.1438 40.074C84.2339 39.9988 85.3241 39.9988 86.4142 40.168C87.6359 40.3559 88.6132 40.995 89.5906 41.9347C89.6494 41.6797 89.6981 41.4451 89.7391 41.247C89.7767 41.0656 89.808 40.9148 89.8349 40.807ZM79.6855 56.595C79.7795 57.5911 80.4937 58.3054 81.4711 58.4557C83.7453 58.794 85.606 57.7415 86.3954 55.5801C86.6591 54.4617 86.936 53.2641 87.2218 52.0278L87.2241 52.0176L87.2295 51.9945C87.5321 50.6856 87.8447 49.3337 88.1621 47.9868C88.2185 46.7087 87.5043 45.6562 86.3202 45.3367C84.685 44.9044 82.8431 45.6562 81.9409 47.141C80.4185 49.6784 79.9298 52.4976 79.6855 55.3733C79.6855 55.5115 79.6813 55.6497 79.6771 55.7871V55.7882C79.6688 56.0618 79.6605 56.3325 79.6855 56.595Z" fill="#008AD2"/>
<path d="M161.896 63.2112C163.362 63.8314 164.903 63.9818 166.482 63.869C166.761 63.869 167.037 63.8751 167.312 63.8811C167.723 63.8901 168.133 63.8991 168.549 63.8878C169.036 63.8554 169.508 63.7392 169.978 63.6235C170.053 63.605 170.128 63.5864 170.203 63.5683C172.365 63.0796 173.511 60.7114 172.553 58.7379C172.327 58.2492 172.045 58.0049 171.463 58.2117C170.416 58.5905 169.335 58.5538 168.253 58.517L168.117 58.5124C166.651 58.4748 165.58 57.629 165.392 56.163C165.016 53.2497 165.787 50.5244 167.177 47.987C167.816 46.7842 168.888 46.1075 170.297 45.8632C171.198 45.7009 172.063 45.7934 172.93 45.8862C173.167 45.9116 173.405 45.937 173.643 45.9572C175.56 46.1263 177.327 44.6039 177.421 42.6492C177.458 41.935 177.233 41.5779 176.556 41.3335C173.981 40.4126 171.35 40.2434 168.7 40.6757C165.73 41.1644 163.287 42.6304 161.614 45.1302C159.02 48.9832 157.987 53.3249 158.287 57.9485C158.438 60.3543 159.565 62.215 161.896 63.2112Z" fill="#008AD2"/>
<path d="M31.363 51.6897C31.1569 51.6897 30.9488 51.6959 30.74 51.7021C30.3202 51.7147 29.8976 51.7273 29.4835 51.6897C26.8145 51.4077 25.95 49.7162 27.2092 47.3292C28.3933 45.0925 30.0661 43.2506 31.8704 41.5215C33.2049 40.2434 34.577 39.0217 36.1934 38.1195C39.3134 36.3904 43.3543 37.5745 44.9895 40.7321C46.6435 43.8896 45.2527 47.8179 41.9635 49.3591C39.257 50.6371 34.3514 51.7273 31.363 51.6897Z" fill="#008AD2"/>
<path d="M4.33494 49.6223C7.47375 50.8252 10.7065 51.5958 14.2776 51.7649C14.7851 51.8965 15.5181 51.7837 16.2135 51.671C18.7885 51.2763 19.6343 50.2237 18.5441 47.4796C18.5034 47.3709 18.4429 47.272 18.3842 47.1758C18.3617 47.139 18.3394 47.1026 18.3186 47.0661C16.2323 43.5326 13.3379 40.7885 9.99231 38.4579C8.90218 37.6873 7.69929 37.349 6.38362 37.3302C2.36145 37.255 -0.758562 41.0517 0.162404 44.9423C0.688671 47.2917 2.1547 48.7953 4.33494 49.6223Z" fill="#008AD2"/>
<path d="M22.7357 71.4245C20.7622 71.3305 19.2022 70.5787 18.3 68.718C17.8678 67.8158 17.9053 66.8573 18.0745 65.9551C18.4692 63.5869 19.2022 61.2939 20.5179 59.2452C20.781 58.8505 21.0817 58.4934 21.4389 58.1927C22.3974 57.3469 23.3184 57.3281 24.2581 58.1927C25.1039 58.9633 25.6302 59.9594 26.1001 60.9744C26.8895 62.7223 27.3781 64.5267 27.6977 66.425C28.1487 69.0751 25.8369 71.2366 23.2996 71.4245H22.7357Z" fill="#008AD2"/>
<path d="M35.911 55.2605C34.1067 54.6591 32.2459 54.2831 30.31 54.3019C30.0898 54.3109 29.8685 54.3081 29.6472 54.3053C28.9429 54.2962 28.2381 54.2872 27.5659 54.6591C26.7953 55.1101 26.5886 55.5048 26.8517 56.3506C26.9645 56.6889 27.096 56.9897 27.284 57.2904C28.6372 59.3767 30.5168 60.9179 32.5654 62.2523C33.618 62.9478 34.8585 63.0417 36.0802 62.6282C37.7341 62.0644 38.7115 60.6171 38.6551 58.888C38.5799 57.14 37.565 55.8244 35.911 55.2605Z" fill="#008AD2"/>
<path d="M15.5373 54.321L15.668 54.3179C16.4306 54.2992 17.1755 54.2809 17.8867 54.5654C18.7889 54.9225 19.0332 55.4675 18.7889 56.4073C18.4881 57.5538 17.6987 58.3808 16.9281 59.1702C15.8192 60.2979 14.5975 61.3316 13.2443 62.1774C10.8197 63.681 7.54932 62.5909 7.04185 59.5273C6.72233 57.6102 8.00041 55.7307 10.1431 55.148C11.9098 54.6405 13.7142 54.227 15.5373 54.321Z" fill="#008AD2"/>
<path d="M132.425 40.4312H137.086C137.255 42.1228 136.936 43.2881 136.315 44.6413C136.136 45.0188 135.818 45.0181 135.479 45.0173C135.463 45.0173 135.447 45.0172 135.432 45.0172H131.447C130.432 49.716 129.38 54.772 129.192 56.0876C128.948 57.8168 129.53 58.4934 131.259 58.7378C131.695 58.7971 132.12 58.7679 132.556 58.7379C132.949 58.711 133.351 58.6834 133.778 58.719C134.21 60.4105 133.816 61.9517 132.989 63.3802C132.768 63.7469 132.32 63.7473 131.91 63.7476C131.794 63.7477 131.682 63.7478 131.579 63.7561L131.475 63.7655C129.01 63.9881 126.565 64.209 124.23 63.0043C123.309 62.5156 122.726 61.8014 122.426 60.8428C121.768 58.719 122.162 56.6327 122.595 54.5464C122.858 53.2683 123.76 49.077 124.643 45.036H122.05C121.862 43.6264 122.256 42.2731 122.745 40.9387C122.858 40.6004 123.102 40.4312 123.459 40.4312H125.621C125.98 38.7594 126.278 37.4024 126.434 36.6963C126.489 36.4419 126.527 36.272 126.542 36.2023C127.049 35.5444 132.312 35.3565 133.346 36.2023C133.314 36.3809 133.183 36.9763 132.988 37.8606C132.834 38.5585 132.64 39.4363 132.425 40.4312Z" fill="#008AD2"/>
</svg>
