<svg width="24" height="24" viewBox="0 0 24 24" fill="none" xmlns="http://www.w3.org/2000/svg">
<g clip-path="url(#clip0)">
<path d="M15.6694 15.1483C16.6702 15.1386 17.6321 15.3329 18.5649 15.6438C19.42 15.9353 19.9447 16.6155 19.9835 17.5191C20.0127 18.4131 19.5074 19.1612 18.6524 19.4527C18.0208 19.6665 17.3795 19.6179 16.8354 19.2584C15.7763 18.5685 14.8046 17.7718 14.105 16.6932C14.0079 16.5378 13.9398 16.3823 13.8815 16.2074C13.7455 15.7702 13.8524 15.5661 14.2508 15.3329C14.5983 15.1407 14.9626 15.1454 15.3267 15.15C15.4411 15.1515 15.5555 15.1529 15.6694 15.1483Z" fill="#0DB0DA"/>
<path d="M11.7537 24.0002C10.7334 23.9516 9.92694 23.5629 9.46055 22.601C9.23707 22.1346 9.2565 21.639 9.34395 21.1726C9.548 19.9484 9.92694 18.7629 10.6071 17.7038C10.7431 17.4998 10.8986 17.3152 11.0832 17.1597C11.5788 16.7225 12.0549 16.7128 12.5407 17.1597C12.9779 17.5581 13.25 18.0731 13.4929 18.5978C13.901 19.5014 14.1536 20.4342 14.3188 21.4156C14.552 22.7856 13.3569 23.903 12.0451 24.0002H11.7537Z" fill="#0DB0DA"/>
<path d="M8.09986 15.1562C8.07736 15.1567 8.05483 15.1573 8.03228 15.1578C7.08977 15.1092 6.15699 15.323 5.24363 15.5853C4.13595 15.8865 3.47522 16.8582 3.6404 17.8493C3.90275 19.4331 5.59343 19.9966 6.84686 19.2193C7.54645 18.7821 8.17802 18.2477 8.7513 17.6647C9.14968 17.2566 9.55777 16.8291 9.71324 16.2363C9.83955 15.7505 9.71324 15.4687 9.24684 15.2841C8.87917 15.1371 8.4941 15.1465 8.09986 15.1562Z" fill="#0DB0DA"/>
<path d="M11.812 0.000145227C14.0662 -0.0192878 15.7569 1.9143 15.4654 4.1491C15.1836 6.30617 14.6395 8.38551 13.6387 10.3288C13.4152 10.7563 13.1529 11.1644 12.8128 11.5142C12.1424 12.1847 11.4719 12.1944 10.7918 11.5045C10.1796 10.8827 9.80069 10.1053 9.48005 9.3183C8.8096 7.63734 8.30435 5.89808 8.12945 4.0908C7.90597 1.81714 9.52863 0.0195783 11.812 0.000145227Z" fill="#027EC6"/>
<path d="M16.2136 13.7976C16.1071 13.7976 15.9995 13.8008 15.8916 13.804C15.6746 13.8105 15.4561 13.8171 15.242 13.7976C13.8622 13.6518 13.4153 12.7774 14.0663 11.5434C14.6784 10.3871 15.5432 9.43487 16.476 8.54095C17.1659 7.88022 17.8752 7.24865 18.7108 6.78225C20.3237 5.88833 22.4128 6.50047 23.2581 8.13285C24.1132 9.76523 23.3942 11.796 21.6938 12.5927C20.2946 13.2535 17.7586 13.817 16.2136 13.7976Z" fill="#027EC6"/>
<path d="M2.24103 12.7287C3.86369 13.3506 5.53493 13.749 7.38107 13.8364C7.64342 13.9044 8.02237 13.8461 8.38188 13.7878C9.71304 13.5838 10.1503 13.0396 9.58673 11.621C9.56565 11.5648 9.53441 11.5137 9.50404 11.464C9.4924 11.4449 9.48089 11.4261 9.47013 11.4073C8.39159 9.58056 6.89525 8.16195 5.16571 6.9571C4.60215 6.55872 3.98029 6.38382 3.30013 6.3741C1.22079 6.33524 -0.392152 8.29798 0.0839579 10.3093C0.356021 11.5239 1.11391 12.3012 2.24103 12.7287Z" fill="#027EC6"/>
</g>
<defs>
<clipPath id="clip0">
<path d="M0 0H24V24H0V0Z" fill="white"/>
</clipPath>
</defs>
</svg>
