<svg width="64" height="96" viewBox="0 0 64 96" fill="none" xmlns="http://www.w3.org/2000/svg">
<path d="M36.8926 52.1977C38.227 52.1848 39.5096 52.4439 40.7533 52.8585C41.8933 53.2471 42.5929 54.154 42.6448 55.3588C42.6836 56.5507 42.0099 57.5483 40.8699 57.937C40.0278 58.222 39.1727 58.1572 38.4472 57.6779C37.0351 56.758 35.7395 55.6957 34.8067 54.2576C34.6772 54.0504 34.5865 53.8431 34.5088 53.6099C34.3274 53.0269 34.4699 52.7548 35.0011 52.4439C35.4644 52.1876 35.9502 52.1938 36.4357 52.2C36.5882 52.202 36.7408 52.2039 36.8926 52.1977Z" fill="#0DB0DA"/>
<path d="M31.6715 64.0002C30.3112 63.9354 29.2359 63.4172 28.6141 62.1346C28.3161 61.5128 28.342 60.852 28.4586 60.2302C28.7307 58.5978 29.2359 57.0173 30.1428 55.6051C30.3242 55.3331 30.5315 55.0869 30.7776 54.8796C31.4383 54.2966 32.0732 54.2837 32.7209 54.8796C33.3039 55.4108 33.6667 56.0974 33.9905 56.797C34.5347 58.0019 34.8715 59.2456 35.0918 60.5541C35.4027 62.3808 33.8092 63.8707 32.0602 64.0002H31.6715Z" fill="#0DB0DA"/>
<path d="M26.7999 52.2082C26.7699 52.209 26.7399 52.2097 26.7098 52.2104C25.4532 52.1456 24.2094 52.4306 22.9916 52.7804C21.5147 53.1821 20.6338 54.4776 20.854 55.799C21.2038 57.9108 23.458 58.6622 25.1293 57.6258C26.0621 57.0428 26.9042 56.3302 27.6685 55.5529C28.1997 55.0088 28.7438 54.4387 28.9511 53.6485C29.1195 53.0007 28.9511 52.625 28.3292 52.3788C27.839 52.1827 27.3256 52.1953 26.7999 52.2082Z" fill="#0DB0DA"/>
<path d="M31.7494 32.0002C34.755 31.9743 37.0093 34.5524 36.6206 37.5321C36.2449 40.4082 35.5194 43.1807 34.185 45.7718C33.887 46.3418 33.5372 46.8859 33.0838 47.3523C32.1899 48.2462 31.296 48.2592 30.3891 47.3394C29.5729 46.5102 29.0676 45.4738 28.6401 44.4244C27.7462 42.1831 27.0725 39.8641 26.8393 37.4544C26.5413 34.4228 28.7049 32.0261 31.7494 32.0002Z" fill="#027EC6"/>
<path d="M37.1888 50.4054C36.8995 50.414 36.6082 50.4227 36.3227 50.3968C34.483 50.2025 33.8871 49.0365 34.7551 47.3911C35.5713 45.8495 36.7243 44.5798 37.968 43.3879C38.8879 42.507 39.8336 41.6649 40.9478 41.043C43.0984 39.8511 45.8838 40.6673 47.0109 42.8438C48.151 45.0203 47.1923 47.728 44.9251 48.7903C43.0595 49.6713 39.6781 50.4227 37.6182 50.3968C37.4762 50.3968 37.3327 50.4011 37.1888 50.4054Z" fill="#027EC6"/>
<path d="M18.988 48.9716C21.1516 49.8008 23.3799 50.3319 25.8414 50.4485C26.1912 50.5392 26.6965 50.4615 27.1758 50.3838C28.9507 50.1117 29.5337 49.3862 28.7823 47.4947C28.7542 47.4198 28.7126 47.3516 28.672 47.2853C28.6565 47.2599 28.6412 47.2348 28.6268 47.2097C27.1888 44.7741 25.1937 42.8826 22.8876 41.2761C22.1362 40.745 21.3071 40.5118 20.4002 40.4988C17.6277 40.447 15.4771 43.064 16.1119 45.7457C16.4747 47.3652 17.4852 48.4016 18.988 48.9716Z" fill="#027EC6"/>
</svg>
