<svg width="160" height="24" viewBox="0 0 160 24" fill="none" xmlns="http://www.w3.org/2000/svg">
<g clip-path="url(#clip0)">
<path d="M99.4648 8.01641C100.164 7.92896 100.854 7.90953 101.534 8.10386C102.875 8.49252 103.555 9.63907 103.313 11.116C103.06 12.6901 101.933 17.3054 101.738 18.0536C101.262 19.8609 99.2316 20.6382 97.6089 19.5791C97.7935 18.7435 98.9401 13.72 99.3287 12.0585C99.5133 11.2423 99.1927 10.8051 98.3668 10.7662C98.153 10.7565 97.949 10.7565 97.7352 10.7759C96.8316 10.8439 96.4235 11.1354 96.1709 11.8642C95.5004 14.7208 94.8105 17.6552 94.7231 18.005C94.4122 19.2876 93.2753 20.1329 91.9733 20.0746C91.4778 20.0552 91.0308 19.8803 90.5936 19.5888C90.739 18.9146 92.0132 13.4419 92.9721 9.3234L92.9724 9.32224L92.9737 9.31665C93.4236 7.38428 93.8039 5.75096 93.9652 5.05287L93.9821 4.97791C94.1299 4.32197 94.1368 4.29153 94.8397 4.19781C95.2964 4.13951 95.7822 4.1298 96.2389 4.18809C97.1134 4.30469 97.6964 5.29578 97.4923 6.21885C97.434 6.4812 97.1911 7.5403 96.8607 8.93948C96.919 8.92005 96.987 8.8909 97.0065 8.87146C97.0886 8.83441 97.1705 8.79704 97.2524 8.75971C97.9646 8.43485 98.6718 8.11227 99.4648 8.01641Z" fill="#0DB0DA"/>
<path fill-rule="evenodd" clip-rule="evenodd" d="M74.3184 15.0607H80.4107C80.9548 13.9045 81.2755 12.7288 81.2949 11.5239C81.3143 9.76521 80.2941 8.41461 78.6714 8.1134C76.0285 7.61786 72.997 8.36603 71.695 11.4753C70.9759 13.2049 70.5193 14.9733 70.7622 16.8486C70.9371 18.1992 71.6269 19.2388 72.9581 19.7441C74.6293 20.3659 76.3006 20.2299 77.9524 19.7052C78.8075 19.4234 79.2836 18.4421 79.0698 17.5773C78.9143 16.9166 78.7297 16.8097 78.069 17.0137C77.3111 17.2372 76.5532 17.3441 75.7662 17.3052C74.6293 17.2372 73.8812 16.5182 74.3184 15.0607ZM78.0787 11.5239C78.0982 12 78.001 12.4567 77.7872 12.8939C76.767 12.8939 75.737 12.8939 74.6585 12.8842C74.6849 12.8166 74.711 12.749 74.737 12.6816C75.1219 11.6844 75.4872 10.7378 76.6795 10.4648C77.5054 10.2802 78.0398 10.6883 78.0787 11.5239Z" fill="#0DB0DA"/>
<path d="M86.0657 20.0941C85.2495 20.1524 84.4527 20.0747 83.6948 19.754C82.49 19.239 81.907 18.2771 81.8293 17.0334C81.6738 14.6431 82.2082 12.3986 83.5491 10.4067C84.4139 9.11442 85.677 8.35653 87.2122 8.1039C88.5822 7.88042 89.9426 7.96787 91.2737 8.44398C91.6235 8.5703 91.7401 8.75491 91.7207 9.12414C91.6721 10.1347 90.7587 10.9217 89.7677 10.8342C89.6446 10.8238 89.5219 10.8107 89.3993 10.7976C88.951 10.7496 88.5035 10.7017 88.0381 10.7857C87.3094 10.912 86.7555 11.2618 86.4252 11.8836C85.7062 13.1954 85.3078 14.6043 85.5021 16.1103C85.5993 16.8682 86.1531 17.3055 86.911 17.3249L86.9812 17.3273C87.5407 17.3463 88.0996 17.3653 88.6405 17.1694C88.9418 17.0625 89.0875 17.1889 89.2041 17.4415C89.6996 18.4617 89.1069 19.686 87.9895 19.9386C87.9506 19.948 87.9118 19.9576 87.8728 19.9672C87.6298 20.027 87.3858 20.0871 87.1345 20.1038C86.9191 20.1096 86.7073 20.105 86.4947 20.1003C86.3525 20.0972 86.2098 20.0941 86.0657 20.0941Z" fill="#0DB0DA"/>
<path d="M68.4593 7.97738H70.869C70.9565 8.85187 70.7913 9.45429 70.4706 10.1539C70.3777 10.349 70.2137 10.3487 70.0381 10.3483C70.03 10.3482 70.022 10.3482 70.014 10.3482H67.9541C67.4294 12.7773 66.8852 15.3911 66.7881 16.0713C66.6618 16.9652 66.963 17.315 67.8569 17.4413C68.082 17.472 68.3017 17.4569 68.5274 17.4414C68.7303 17.4274 68.9381 17.4132 69.1589 17.4316C69.3824 18.3061 69.1783 19.1028 68.7508 19.8413C68.6371 20.0308 68.405 20.031 68.1931 20.0312C68.1334 20.0313 68.0754 20.0313 68.0221 20.0356L67.9683 20.0405C66.6942 20.1556 65.4302 20.2697 64.2229 19.6469C63.7468 19.3943 63.4456 19.0251 63.2901 18.5295C62.9501 17.4316 63.1541 16.353 63.3776 15.2745C63.5136 14.6138 63.98 12.447 64.4367 10.3579H63.0958C62.9986 9.62919 63.2027 8.9296 63.4553 8.23973C63.5136 8.06483 63.6399 7.97738 63.8245 7.97738H64.9419C65.1278 7.11235 65.2821 6.41038 65.3623 6.04562C65.3911 5.91462 65.4103 5.82711 65.418 5.79116C65.6804 5.45108 68.401 5.35392 68.9354 5.79116C68.9191 5.88346 68.8513 6.19113 68.7505 6.64809C68.6709 7.00894 68.5708 7.46289 68.4593 7.97738Z" fill="#0DB0DA"/>
<path d="M35.0737 8.10386C34.3935 7.90953 33.7037 7.92896 33.0041 8.01641C32.2111 8.11227 31.504 8.43477 30.7918 8.75963C30.7099 8.79699 30.628 8.83438 30.5458 8.87146C30.5264 8.8909 30.4583 8.92005 30.4 8.93948C30.7304 7.5403 30.9733 6.4812 31.0316 6.21885C31.2357 5.29578 30.6527 4.30469 29.7782 4.18809C29.3215 4.1298 28.8357 4.13951 28.379 4.19781C27.6761 4.29153 27.6693 4.32197 27.5214 4.9779L27.5045 5.05287C27.3429 5.75196 26.9618 7.38897 26.511 9.32497L26.5106 9.32675C25.5518 13.4449 24.2783 18.9147 24.1329 19.5888C24.5701 19.8803 25.0171 20.0552 25.5126 20.0746C26.8146 20.1329 27.9515 19.2876 28.2624 18.005C28.3498 17.6552 29.0397 14.7208 29.7102 11.8642C29.9628 11.1354 30.3709 10.8439 31.2745 10.7759C31.4883 10.7565 31.6923 10.7565 31.9061 10.7662C32.732 10.8051 33.0527 11.2423 32.868 12.0585C32.4794 13.72 31.3328 18.7435 31.1482 19.5791C32.7709 20.6382 34.8016 19.8609 35.2777 18.0536C35.4721 17.3054 36.5992 12.6901 36.8518 11.116C37.0947 9.63907 36.4146 8.49252 35.0737 8.10386Z" fill="#027EC6"/>
<path fill-rule="evenodd" clip-rule="evenodd" d="M61.7844 10.6009C61.6192 9.05599 60.6767 8.04547 59.1317 7.85114C57.7034 7.67624 56.2265 7.98717 55.0216 8.83251C55.0543 8.68534 55.087 8.55041 55.118 8.42255C55.1422 8.32262 55.1655 8.22666 55.1868 8.13292C54.6233 7.69568 51.6791 7.83171 51.3974 8.1815C51.3917 8.2097 51.1087 9.4278 50.7044 11.1672L50.7039 11.1696C49.7152 15.4242 48.0025 22.7943 47.8508 23.5045C48.2881 23.796 48.735 23.9709 49.2306 23.9903C50.5326 24.0486 51.6694 23.2033 51.9804 21.9207C52.0001 21.8336 52.0586 21.587 52.1453 21.2215C52.2714 20.6896 52.4571 19.906 52.6702 18.996C53.3893 19.7928 54.2637 20.026 55.2063 20.0648C57.0427 20.1426 58.6265 19.647 59.7925 18.141C60.424 17.3248 60.8418 16.4017 61.1431 15.4203C61.6192 13.8365 61.9593 12.2527 61.7844 10.6009ZM57.82 12.1361C57.7131 13.5159 57.4216 14.847 56.8192 16.1005C56.4111 16.9458 55.7698 17.4219 54.7884 17.3928C53.9528 17.3636 53.4864 16.9264 53.4281 16.081C53.3997 15.6897 53.4858 15.3244 53.5722 14.9584C53.6037 14.8246 53.6353 14.6908 53.6613 14.5556C53.7879 13.9228 53.9396 13.2985 54.0932 12.667L54.1277 12.5248C54.4386 11.2228 55.5172 10.3774 56.654 10.5232C57.4508 10.6301 57.7909 10.9993 57.8103 11.7961C57.82 11.9127 57.82 12.0195 57.82 12.1361Z" fill="#027EC6"/>
<path fill-rule="evenodd" clip-rule="evenodd" d="M46.4416 8.17189C46.7233 7.82209 49.6674 7.68606 50.231 8.1233C50.1047 8.65771 48.0156 17.5095 47.9282 17.9176C47.6173 19.1904 46.4901 20.0261 45.1978 19.9678C44.712 19.9483 44.2651 19.7734 43.8278 19.4819C43.8375 19.4042 43.8667 19.2682 43.9153 19.0738V19.0641C43.8737 19.0883 43.8335 19.1119 43.7941 19.135C43.6126 19.2414 43.4514 19.3358 43.2837 19.4236C41.9622 20.1232 40.5728 20.2884 39.1639 19.7831C37.823 19.3167 37.2886 18.1896 37.2497 16.8973C37.1623 14.2642 37.7161 11.7573 39.3193 9.5905C40.223 8.37593 41.525 7.89011 42.9825 7.79294C43.546 7.75407 44.1096 7.75407 44.6731 7.84152C45.3047 7.93869 45.81 8.26905 46.3152 8.75488C46.3457 8.62301 46.3708 8.50173 46.392 8.39934C46.4115 8.30556 46.4276 8.22762 46.4416 8.17189ZM41.1946 16.3338C41.2432 16.8488 41.6124 17.218 42.1177 17.2957C43.2934 17.4706 44.2553 16.9265 44.6634 15.8091C44.8002 15.2289 44.9439 14.6075 45.0922 13.966C45.2494 13.2861 45.4118 12.5835 45.5768 11.8836C45.6059 11.2229 45.2367 10.6788 44.6246 10.5136C43.7792 10.2901 42.827 10.6788 42.3606 11.4464C41.5736 12.7581 41.3209 14.2156 41.1946 15.7022C41.1946 15.7738 41.1925 15.8454 41.1903 15.9167C41.186 16.0581 41.1817 16.1981 41.1946 16.3338Z" fill="#027EC6"/>
<path d="M15.6694 15.1483C16.6702 15.1386 17.6321 15.3329 18.5649 15.6438C19.42 15.9353 19.9447 16.6155 19.9835 17.5191C20.0127 18.4131 19.5074 19.1612 18.6524 19.4527C18.0208 19.6665 17.3795 19.6179 16.8354 19.2584C15.7763 18.5685 14.8046 17.7718 14.105 16.6932C14.0079 16.5378 13.9398 16.3823 13.8815 16.2074C13.7455 15.7702 13.8524 15.5661 14.2508 15.3329C14.5983 15.1407 14.9626 15.1454 15.3267 15.15C15.4411 15.1515 15.5555 15.1529 15.6694 15.1483Z" fill="#0DB0DA"/>
<path d="M11.7537 24.0002C10.7334 23.9516 9.92694 23.5629 9.46055 22.601C9.23707 22.1346 9.2565 21.639 9.34395 21.1726C9.548 19.9484 9.92694 18.7629 10.6071 17.7038C10.7431 17.4998 10.8986 17.3152 11.0832 17.1597C11.5788 16.7225 12.0549 16.7128 12.5407 17.1597C12.9779 17.5581 13.25 18.0731 13.4929 18.5978C13.901 19.5014 14.1536 20.4342 14.3188 21.4156C14.552 22.7856 13.3569 23.903 12.0451 24.0002H11.7537Z" fill="#0DB0DA"/>
<path d="M8.09993 15.1562C8.07743 15.1567 8.0549 15.1573 8.03234 15.1578C7.08983 15.1092 6.15705 15.323 5.24369 15.5853C4.13601 15.8865 3.47528 16.8582 3.64047 17.8493C3.90281 19.4331 5.59349 19.9966 6.84692 19.2193C7.54651 18.7821 8.17808 18.2477 8.75136 17.6647C9.14974 17.2566 9.55783 16.8291 9.7133 16.2363C9.83961 15.7505 9.7133 15.4687 9.2469 15.2841C8.87923 15.1371 8.49416 15.1465 8.09993 15.1562Z" fill="#0DB0DA"/>
<path d="M11.812 0.000145227C14.0662 -0.0192878 15.7569 1.9143 15.4654 4.1491C15.1836 6.30617 14.6395 8.38551 13.6387 10.3288C13.4152 10.7563 13.1529 11.1644 12.8128 11.5142C12.1424 12.1847 11.4719 12.1944 10.7918 11.5045C10.1796 10.8827 9.80069 10.1053 9.48005 9.3183C8.8096 7.63734 8.30435 5.89808 8.12945 4.0908C7.90597 1.81714 9.52863 0.0195783 11.812 0.000145227Z" fill="#027EC6"/>
<path d="M15.8916 13.804C15.6746 13.8105 15.4561 13.8171 15.242 13.7976C13.8622 13.6518 13.4153 12.7774 14.0663 11.5434C14.6784 10.3871 15.5432 9.43487 16.476 8.54095C17.1659 7.88022 17.8752 7.24865 18.7108 6.78225C20.3237 5.88833 22.4128 6.50047 23.2581 8.13285C24.1132 9.76523 23.3942 11.796 21.6938 12.5927C20.2946 13.2535 17.7586 13.817 16.2136 13.7976C16.1071 13.7976 15.9995 13.8008 15.8916 13.804Z" fill="#027EC6"/>
<path d="M2.24103 12.7287C3.86369 13.3506 5.53493 13.749 7.38107 13.8364C7.64342 13.9044 8.02237 13.8461 8.38188 13.7878C9.71304 13.5838 10.1503 13.0396 9.58673 11.621C9.56565 11.5648 9.53441 11.5137 9.50403 11.464C9.4924 11.4449 9.48089 11.4261 9.47013 11.4073C8.39159 9.58056 6.89525 8.16195 5.16571 6.9571C4.60215 6.55872 3.98029 6.38382 3.30013 6.3741C1.22079 6.33524 -0.392152 8.29798 0.0839579 10.3093C0.356021 11.5239 1.11391 12.3012 2.24103 12.7287Z" fill="#027EC6"/>
</g>
<defs>
<clipPath id="clip0">
<path d="M0 0H160V24H0V0Z" fill="white"/>
</clipPath>
</defs>
</svg>
