<svg width="200" height="96" viewBox="0 0 200 96" fill="none" xmlns="http://www.w3.org/2000/svg">
<path d="M116.298 81.7342C116.672 82.4314 116.855 83.2148 116.83 84.0055V88.2608C116.831 88.3427 116.815 88.424 116.784 88.4998C116.753 88.5756 116.707 88.6445 116.649 88.7025C116.591 88.7604 116.522 88.8062 116.447 88.8372C116.371 88.8683 116.289 88.8839 116.208 88.8832C116.123 88.8863 116.039 88.8719 115.96 88.8407C115.881 88.8096 115.81 88.7625 115.75 88.7023C115.692 88.6448 115.645 88.576 115.614 88.5001C115.583 88.4242 115.568 88.3428 115.569 88.2608V84.0055C115.591 83.4247 115.459 82.8484 115.186 82.3353C114.937 81.9106 114.566 81.5699 114.122 81.3566C113.66 81.1444 113.158 81.0346 112.649 81.0346C112.14 81.0346 111.638 81.1444 111.176 81.3566C110.766 81.5453 110.414 81.8389 110.154 82.2076C109.903 82.5674 109.77 82.9973 109.777 83.4364V88.2768C109.768 88.3961 109.727 88.5107 109.658 88.6081C109.588 88.7054 109.493 88.7817 109.383 88.8285C109.273 88.8753 109.152 88.8907 109.034 88.8731C108.916 88.8556 108.805 88.8056 108.713 88.7289C108.654 88.6695 108.609 88.5987 108.578 88.521C108.548 88.4432 108.534 88.3601 108.537 88.2768V76.7395C108.543 76.6189 108.582 76.5022 108.65 76.4026C108.719 76.303 108.814 76.2245 108.924 76.1759C109.035 76.1272 109.157 76.1104 109.276 76.1273C109.396 76.1442 109.508 76.1941 109.601 76.2715C109.659 76.3344 109.704 76.4082 109.733 76.4885C109.762 76.5689 109.775 76.6542 109.771 76.7395V81.1278C110.075 80.7919 110.435 80.5112 110.835 80.2981C111.43 79.9859 112.094 79.8268 112.766 79.8353C113.488 79.8228 114.202 79.9872 114.846 80.314C115.458 80.6355 115.963 81.1292 116.298 81.7342ZM132.495 81.9789C132.85 82.6831 133.032 83.4616 133.027 84.2502C133.032 84.328 133.019 84.406 132.991 84.4786C132.962 84.5513 132.918 84.6167 132.862 84.6704C132.746 84.7758 132.593 84.8312 132.436 84.8246H125.809C125.847 85.3007 125.987 85.7631 126.218 86.181C126.494 86.6867 126.905 87.1063 127.404 87.3938C127.931 87.6967 128.531 87.8494 129.138 87.8353C129.542 87.8352 129.943 87.7669 130.325 87.6332C130.675 87.5183 131 87.3378 131.282 87.1012C131.397 87.0043 131.541 86.9499 131.692 86.947C131.833 86.9366 131.974 86.9803 132.085 87.0693C132.148 87.1218 132.2 87.1865 132.238 87.2597C132.275 87.3328 132.298 87.4129 132.303 87.4949C132.306 87.5707 132.291 87.6461 132.259 87.7146C132.226 87.7832 132.178 87.8429 132.117 87.8885C131.707 88.2196 131.243 88.477 130.745 88.6491C130.104 88.8898 129.418 88.9892 128.735 88.9406C128.052 88.8919 127.388 88.6963 126.787 88.3672C126.117 87.9938 125.565 87.4413 125.192 86.7715C124.795 86.0503 124.596 85.2377 124.612 84.4151C124.589 83.5957 124.772 82.7837 125.144 82.0534C125.492 81.3935 126.014 80.8416 126.654 80.4576C127.327 80.0563 128.1 79.8518 128.883 79.8672C129.643 79.8477 130.394 80.0432 131.048 80.431C131.665 80.8016 132.167 81.3378 132.495 81.9789ZM126.17 82.6385C125.995 82.9967 125.88 83.3812 125.83 83.7768H131.819C131.783 83.3635 131.673 82.96 131.495 82.5853C131.275 82.1019 130.92 81.692 130.473 81.4044C129.995 81.1094 129.44 80.9615 128.878 80.9789C128.301 80.9672 127.732 81.1203 127.239 81.4204C126.777 81.7196 126.407 82.1413 126.17 82.6385ZM148.277 82.0747C148.683 82.7877 148.896 83.5945 148.894 84.4151V88.2608C148.896 88.3446 148.881 88.4279 148.85 88.5056C148.819 88.5834 148.772 88.654 148.713 88.7129C148.588 88.827 148.424 88.8881 148.255 88.8832C148.086 88.8893 147.922 88.828 147.798 88.7129C147.738 88.6546 147.69 88.5841 147.659 88.5062C147.628 88.4283 147.614 88.3447 147.617 88.2608V87.2555C147.281 87.7295 146.847 88.1266 146.346 88.4204C145.696 88.7829 144.962 88.9665 144.218 88.9523C143.424 88.964 142.641 88.756 141.958 88.3512C141.291 87.9591 140.741 87.3975 140.362 86.7236C139.968 86.0129 139.768 85.2113 139.782 84.3991C139.768 83.5798 139.974 82.7716 140.378 82.0587C140.774 81.3859 141.341 80.8298 142.021 80.447C142.733 80.0564 143.531 79.8515 144.343 79.8515C145.155 79.8515 145.953 80.0564 146.665 80.447C147.335 80.8391 147.891 81.4004 148.277 82.0747ZM147.213 86.1598C147.499 85.6217 147.648 85.0217 147.648 84.4124C147.648 83.8031 147.499 83.2031 147.213 82.6651C146.935 82.1629 146.529 81.7428 146.037 81.447C145.523 81.1506 144.94 80.9946 144.346 80.9946C143.752 80.9946 143.169 81.1506 142.654 81.447C142.158 81.7422 141.747 82.1621 141.463 82.6651C141.173 83.202 141.022 83.8024 141.022 84.4124C141.022 85.0224 141.173 85.6229 141.463 86.1598C141.913 86.9229 142.644 87.4784 143.5 87.7063C144.356 87.9342 145.268 87.8163 146.037 87.3778C146.532 87.085 146.938 86.6642 147.213 86.1598ZM159.154 87.6385H158.745C158.595 87.6365 158.448 87.5945 158.32 87.5169C158.192 87.4393 158.087 87.3289 158.016 87.197C157.811 86.852 157.711 86.4544 157.729 86.0534V76.7236C157.734 76.6404 157.722 76.5571 157.693 76.4791C157.663 76.4011 157.618 76.3303 157.559 76.2713C157.5 76.2124 157.429 76.1668 157.351 76.1374C157.273 76.1081 157.19 76.0958 157.106 76.1012C157.023 76.0966 156.941 76.1096 156.863 76.1392C156.785 76.1688 156.715 76.2145 156.656 76.2733C156.597 76.332 156.552 76.4025 156.522 76.4801C156.492 76.5577 156.479 76.6407 156.484 76.7236V86.0534C156.474 86.5594 156.572 87.0617 156.771 87.5268C156.943 87.9271 157.221 88.2729 157.575 88.5268C157.918 88.7649 158.327 88.8895 158.745 88.8832H158.958C159.149 88.8905 159.338 88.8302 159.489 88.7129C159.557 88.6596 159.611 88.5906 159.646 88.5118C159.682 88.4331 159.697 88.3469 159.692 88.2608C159.7 88.0994 159.649 87.9405 159.548 87.814C159.5 87.7566 159.44 87.711 159.371 87.6806C159.303 87.6502 159.229 87.6358 159.154 87.6385ZM170.856 87.6385H170.415C170.179 87.647 169.944 87.6038 169.726 87.5119C169.508 87.42 169.313 87.2817 169.154 87.1066C168.817 86.7333 168.639 86.2424 168.66 85.7395V81.3725H170.511C170.662 81.3772 170.809 81.3217 170.92 81.2183C170.973 81.1682 171.015 81.1079 171.043 81.0412C171.071 80.9744 171.086 80.9025 171.085 80.83C171.087 80.7556 171.073 80.6817 171.045 80.613C171.017 80.5443 170.974 80.4823 170.92 80.431C170.867 80.3777 170.803 80.3364 170.732 80.3098C170.661 80.2832 170.586 80.272 170.511 80.2768H168.66V77.7395C168.663 77.6547 168.649 77.57 168.619 77.4909C168.588 77.4117 168.541 77.3398 168.481 77.2798C168.421 77.2198 168.349 77.1729 168.27 77.1421C168.191 77.1114 168.106 77.0975 168.021 77.1012C167.938 77.0976 167.855 77.1118 167.778 77.143C167.701 77.1742 167.632 77.2217 167.575 77.2821C167.516 77.3425 167.47 77.4142 167.44 77.4928C167.41 77.5714 167.396 77.6554 167.399 77.7395V80.2768H166.335C166.261 80.2727 166.186 80.2844 166.117 80.3109C166.047 80.3375 165.984 80.3784 165.931 80.431C165.877 80.4823 165.835 80.5443 165.806 80.613C165.778 80.6817 165.764 80.7556 165.766 80.83C165.766 80.9025 165.78 80.9744 165.808 81.0412C165.837 81.1079 165.878 81.1682 165.931 81.2183C166.04 81.3209 166.185 81.3763 166.335 81.3725H167.399V85.7395C167.39 86.3084 167.525 86.8704 167.793 87.3725C168.043 87.8321 168.41 88.2175 168.856 88.4895C169.324 88.7684 169.86 88.9103 170.404 88.8991H170.745C170.925 88.9041 171.101 88.8436 171.239 88.7289C171.302 88.6719 171.352 88.602 171.385 88.5239C171.418 88.4458 171.434 88.3615 171.431 88.2768C171.437 88.1097 171.38 87.9463 171.271 87.8193C171.218 87.7575 171.152 87.7079 171.077 87.674C171.003 87.64 170.922 87.6225 170.84 87.6225L170.856 87.6385ZM186.702 81.7342C186.365 81.1307 185.861 80.6375 185.25 80.314C184.608 79.9872 183.896 79.8228 183.176 79.8353C182.503 79.8255 181.839 79.9846 181.245 80.2981C180.844 80.5098 180.484 80.7907 180.181 81.1278V76.7395C180.185 76.6537 180.172 76.5678 180.142 76.4873C180.112 76.4068 180.065 76.3333 180.005 76.2715C179.946 76.2143 179.876 76.1697 179.799 76.1404C179.723 76.1112 179.641 76.0979 179.559 76.1012C179.473 76.094 179.387 76.1055 179.306 76.135C179.225 76.1645 179.152 76.2113 179.091 76.2721C179.03 76.3328 178.984 76.4062 178.954 76.4869C178.925 76.5677 178.913 76.6539 178.92 76.7395V88.2608C178.917 88.3437 178.931 88.4263 178.96 88.5039C178.989 88.5815 179.034 88.6526 179.09 88.7129C179.153 88.7707 179.227 88.8155 179.308 88.8448C179.388 88.874 179.473 88.887 179.559 88.8832C179.642 88.8878 179.724 88.8748 179.802 88.8452C179.88 88.8156 179.95 88.7699 180.009 88.7111C180.068 88.6524 180.113 88.5819 180.143 88.5043C180.173 88.4267 180.186 88.3438 180.181 88.2608V83.4204C180.173 82.9819 180.303 82.5519 180.553 82.1917C180.816 81.8239 181.17 81.5307 181.58 81.3406C182.032 81.1272 182.527 81.0198 183.027 81.0268C183.545 81.0195 184.059 81.1324 184.527 81.3566C184.971 81.569 185.342 81.91 185.59 82.3353C185.868 82.8469 186.002 83.424 185.979 84.0055V88.2608C185.976 88.343 185.991 88.4248 186.022 88.5008C186.053 88.5769 186.1 88.6456 186.16 88.7023C186.219 88.7627 186.29 88.81 186.369 88.8412C186.448 88.8723 186.532 88.8866 186.617 88.8832C186.699 88.8851 186.781 88.87 186.857 88.8389C186.933 88.8077 187.001 88.7612 187.059 88.7023C187.117 88.6448 187.163 88.576 187.194 88.5001C187.225 88.4242 187.241 88.3428 187.239 88.2608V84.0055C187.261 83.2146 187.076 82.4318 186.702 81.7342Z" fill="#808080"/>
<path d="M78.7234 66.5106C78.7234 67.3571 78.3872 68.1688 77.7886 68.7674C77.1901 69.3659 76.3783 69.7021 75.5319 69.7021C74.6855 69.7021 73.8737 69.3659 73.2752 68.7674C72.6767 68.1688 72.3404 67.3571 72.3404 66.5106V56.8032C73.7103 60.2654 75.9007 63.3431 78.7234 65.7713V66.5106ZM108.511 17.5745C108.511 18.2057 108.698 18.8227 109.048 19.3476C109.399 19.8724 109.898 20.2815 110.481 20.523C111.064 20.7646 111.706 20.8278 112.325 20.7046C112.944 20.5815 113.513 20.2775 113.959 19.8312C114.405 19.3849 114.709 18.8162 114.832 18.1971C114.955 17.578 114.892 16.9363 114.651 16.3531C114.409 15.77 114 15.2715 113.475 14.9208C112.95 14.5702 112.333 14.383 111.702 14.383C110.856 14.383 110.044 14.7192 109.445 15.3177C108.847 15.9163 108.511 16.728 108.511 17.5745ZM114.894 66.5106C114.894 67.3571 114.557 68.1688 113.959 68.7674C113.36 69.3659 112.549 69.7021 111.702 69.7021C110.856 69.7021 110.044 69.3659 109.445 68.7674C108.847 68.1688 108.511 67.3571 108.511 66.5106V63.6223C104.538 67.5268 99.1875 69.7107 93.617 69.7021C87.9741 69.7021 82.5623 67.4605 78.5722 63.4704C74.5821 59.4802 72.3404 54.0684 72.3404 48.4255C72.3404 44.4755 70.7713 40.6872 67.9782 37.8942C65.1851 35.1011 61.3968 33.5319 57.4468 33.5319C53.4968 33.5319 49.7085 35.1011 46.9154 37.8942C44.1223 40.6872 42.5532 44.4755 42.5532 48.4255V66.5106C42.5532 67.3571 42.2169 68.1688 41.6184 68.7674C41.0199 69.3659 40.2081 69.7021 39.3617 69.7021C38.5153 69.7021 37.7035 69.3659 37.105 68.7674C36.5065 68.1688 36.1702 67.3571 36.1702 66.5106V48.4255C36.1702 44.4755 34.6011 40.6872 31.808 37.8942C29.0149 35.1011 25.2266 33.5319 21.2766 33.5319C17.3266 33.5319 13.5383 35.1011 10.7452 37.8942C7.95212 40.6872 6.38298 44.4755 6.38298 48.4255V66.5106C6.38298 67.3571 6.04674 68.1688 5.44822 68.7674C4.8497 69.3659 4.03792 69.7021 3.19149 69.7021C2.34505 69.7021 1.53328 69.3659 0.934763 68.7674C0.336243 68.1688 0 67.3571 0 66.5106V30.3404C0 29.494 0.336243 28.6822 0.934763 28.0837C1.53328 27.4852 2.34505 27.1489 3.19149 27.1489C4.03792 27.1489 4.8497 27.4852 5.44822 28.0837C6.04674 28.6822 6.38298 29.494 6.38298 30.3404V33.2394C10.3534 29.3296 15.7043 27.1415 21.2766 27.1489C24.8994 27.1496 28.4621 28.0753 31.627 29.8383C34.792 31.6014 37.4543 34.1434 39.3617 37.2234C41.2691 34.1434 43.9314 31.6014 47.0964 29.8383C50.2613 28.0753 53.824 27.1496 57.4468 27.1489C63.0897 27.1489 68.5015 29.3906 72.4916 33.3807C76.4818 37.3708 78.7234 42.7826 78.7234 48.4255C78.7234 52.3756 80.2926 56.1638 83.0856 58.9569C85.8787 61.75 89.667 63.3191 93.617 63.3191C96.6349 63.322 99.5824 62.408 102.069 60.6982C104.556 58.9884 106.465 56.5635 107.543 53.7447C108.668 58.4236 111.24 62.6284 114.894 65.7606V66.5106ZM180.851 48.4255C180.851 44.4755 179.282 40.6872 176.489 37.8942C173.696 35.1011 169.907 33.5319 165.957 33.5319C163.2 33.5324 160.497 34.2984 158.149 35.7447C155.801 37.191 153.9 39.2608 152.66 41.7234V31.8245C156.428 28.7923 161.121 27.1422 165.957 27.1489C171.6 27.1489 177.012 29.3906 181.002 33.3807C184.992 37.3708 187.234 42.7826 187.234 48.4255V66.5106C187.234 67.3571 186.898 68.1688 186.299 68.7674C185.701 69.3659 184.889 69.7021 184.043 69.7021C183.196 69.7021 182.384 69.3659 181.786 68.7674C181.187 68.1688 180.851 67.3571 180.851 66.5106V63.6223C176.878 67.5268 171.528 69.7107 165.957 69.7021C160.315 69.7021 154.903 67.4605 150.913 63.4704C146.922 59.4802 144.681 54.0684 144.681 48.4255C144.681 44.4755 143.112 40.6872 140.319 37.8942C137.526 35.1011 133.737 33.5319 129.787 33.5319C127.03 33.5324 124.326 34.2984 121.978 35.7447C119.631 37.191 117.73 39.2608 116.489 41.7234V31.8245C120.258 28.7923 124.951 27.1422 129.787 27.1489C135.36 27.1415 140.71 29.3296 144.681 33.2394V11.1915C144.681 10.3451 145.017 9.53328 145.616 8.93476C146.214 8.33624 147.026 8 147.872 8C148.719 8 149.531 8.33624 150.129 8.93476C150.728 9.53328 151.064 10.3451 151.064 11.1915V48.4255C151.064 52.3756 152.633 56.1638 155.426 58.9569C158.219 61.75 162.007 63.3191 165.957 63.3191C169.907 63.3191 173.696 61.75 176.489 58.9569C179.282 56.1638 180.851 52.3756 180.851 48.4255ZM146.904 61.0638C144.926 63.7428 142.347 65.92 139.374 67.4204C136.401 68.9207 133.117 69.7022 129.787 69.7021C124.144 69.7021 118.733 67.4605 114.742 63.4704C110.752 59.4802 108.511 54.0684 108.511 48.4255C108.511 44.4755 106.941 40.6872 104.148 37.8942C101.355 35.1011 97.5671 33.5319 93.617 33.5319C90.5969 33.5322 87.6483 34.4506 85.1622 36.1653C82.6761 37.88 80.77 40.31 79.6968 43.133C79.074 40.5172 77.9935 38.0321 76.5053 35.7926C78.4805 33.1115 81.0584 30.9323 84.0308 29.4309C87.0032 27.9294 90.2869 27.1477 93.617 27.1489C99.1889 27.1437 104.539 29.3315 108.511 33.2394V30.3404C108.511 29.494 108.847 28.6822 109.445 28.0837C110.044 27.4852 110.856 27.1489 111.702 27.1489C112.549 27.1489 113.36 27.4852 113.959 28.0837C114.557 28.6822 114.894 29.494 114.894 30.3404V48.4255C114.894 52.3756 116.463 56.1638 119.256 58.9569C122.049 61.75 125.837 63.3191 129.787 63.3191C132.804 63.3209 135.751 62.4064 138.236 60.6967C140.722 58.987 142.63 56.5627 143.707 53.7447C144.334 56.3536 145.416 58.8313 146.904 61.0638ZM193.617 66.5106C193.617 67.1419 193.804 67.7589 194.155 68.2837C194.506 68.8086 195.004 69.2176 195.587 69.4592C196.17 69.7007 196.812 69.7639 197.431 69.6408C198.05 69.5177 198.619 69.2137 199.065 68.7674C199.512 68.321 199.816 67.7523 199.939 67.1333C200.062 66.5142 199.999 65.8725 199.757 65.2893C199.516 64.7061 199.106 64.2077 198.582 63.857C198.057 63.5063 197.44 63.3191 196.809 63.3191C195.962 63.3191 195.15 63.6554 194.552 64.2539C193.953 64.8524 193.617 65.6642 193.617 66.5106Z" fill="#0050E5"/>
</svg>
