<svg width="200" height="96" viewBox="0 0 200 96" fill="none" xmlns="http://www.w3.org/2000/svg">
<path d="M77.7886 68.7674C78.3872 68.1688 78.7234 67.3571 78.7234 66.5106V65.7713C75.9007 63.3431 73.7103 60.2654 72.3404 56.8032V66.5106C72.3404 67.3571 72.6767 68.1688 73.2752 68.7674C73.8737 69.3659 74.6855 69.7021 75.5319 69.7021C76.3783 69.7021 77.1901 69.3659 77.7886 68.7674Z" fill="#008AD2"/>
<path d="M109.048 19.3476C108.698 18.8227 108.511 18.2057 108.511 17.5745C108.511 16.728 108.847 15.9163 109.445 15.3177C110.044 14.7192 110.856 14.383 111.702 14.383C112.333 14.383 112.95 14.5702 113.475 14.9208C114 15.2715 114.409 15.77 114.651 16.3531C114.892 16.9363 114.955 17.578 114.832 18.1971C114.709 18.8162 114.405 19.3849 113.959 19.8312C113.513 20.2775 112.944 20.5815 112.325 20.7046C111.706 20.8278 111.064 20.7646 110.481 20.523C109.898 20.2815 109.399 19.8724 109.048 19.3476Z" fill="#008AD2"/>
<path d="M113.959 68.7674C114.557 68.1688 114.894 67.3571 114.894 66.5106V65.7606C111.24 62.6284 108.668 58.4236 107.543 53.7447C106.465 56.5635 104.556 58.9884 102.069 60.6982C99.5824 62.408 96.6349 63.322 93.617 63.3191C89.667 63.3191 85.8787 61.75 83.0856 58.9569C80.2926 56.1638 78.7234 52.3756 78.7234 48.4255C78.7234 42.7826 76.4818 37.3708 72.4916 33.3807C68.5015 29.3906 63.0897 27.1489 57.4468 27.1489C53.824 27.1496 50.2613 28.0753 47.0964 29.8383C43.9314 31.6014 41.2691 34.1434 39.3617 37.2234C37.4543 34.1434 34.792 31.6014 31.627 29.8383C28.4621 28.0753 24.8994 27.1496 21.2766 27.1489C15.7043 27.1415 10.3534 29.3296 6.38298 33.2394V30.3404C6.38298 29.494 6.04674 28.6822 5.44822 28.0837C4.8497 27.4852 4.03792 27.1489 3.19149 27.1489C2.34505 27.1489 1.53328 27.4852 0.934763 28.0837C0.336243 28.6822 0 29.494 0 30.3404V66.5106C0 67.3571 0.336243 68.1688 0.934763 68.7674C1.53328 69.3659 2.34505 69.7021 3.19149 69.7021C4.03792 69.7021 4.8497 69.3659 5.44822 68.7674C6.04674 68.1688 6.38298 67.3571 6.38298 66.5106V48.4255C6.38298 44.4755 7.95212 40.6872 10.7452 37.8942C13.5383 35.1011 17.3266 33.5319 21.2766 33.5319C25.2266 33.5319 29.0149 35.1011 31.808 37.8942C34.6011 40.6872 36.1702 44.4755 36.1702 48.4255V66.5106C36.1702 67.3571 36.5065 68.1688 37.105 68.7674C37.7035 69.3659 38.5153 69.7021 39.3617 69.7021C40.2081 69.7021 41.0199 69.3659 41.6184 68.7674C42.2169 68.1688 42.5532 67.3571 42.5532 66.5106V48.4255C42.5532 44.4755 44.1223 40.6872 46.9154 37.8942C49.7085 35.1011 53.4968 33.5319 57.4468 33.5319C61.3968 33.5319 65.1851 35.1011 67.9782 37.8942C70.7713 40.6872 72.3404 44.4755 72.3404 48.4255C72.3404 54.0684 74.5821 59.4802 78.5722 63.4704C82.5623 67.4605 87.9741 69.7021 93.617 69.7021C99.1875 69.7107 104.538 67.5268 108.511 63.6223V66.5106C108.511 67.3571 108.847 68.1688 109.445 68.7674C110.044 69.3659 110.856 69.7021 111.702 69.7021C112.549 69.7021 113.36 69.3659 113.959 68.7674Z" fill="#008AD2"/>
<path d="M176.489 37.8942C179.282 40.6872 180.851 44.4755 180.851 48.4255C180.851 52.3756 179.282 56.1638 176.489 58.9569C173.696 61.75 169.907 63.3191 165.957 63.3191C162.007 63.3191 158.219 61.75 155.426 58.9569C152.633 56.1638 151.064 52.3756 151.064 48.4255V11.1915C151.064 10.3451 150.728 9.53328 150.129 8.93476C149.531 8.33624 148.719 8 147.872 8C147.026 8 146.214 8.33624 145.616 8.93476C145.017 9.53328 144.681 10.3451 144.681 11.1915V33.2394C140.71 29.3296 135.36 27.1415 129.787 27.1489C124.951 27.1422 120.258 28.7923 116.489 31.8245V41.7234C117.73 39.2608 119.631 37.191 121.978 35.7447C124.326 34.2984 127.03 33.5324 129.787 33.5319C133.737 33.5319 137.526 35.1011 140.319 37.8942C143.112 40.6872 144.681 44.4755 144.681 48.4255C144.681 54.0684 146.922 59.4802 150.913 63.4704C154.903 67.4605 160.315 69.7021 165.957 69.7021C171.528 69.7107 176.878 67.5268 180.851 63.6223V66.5106C180.851 67.3571 181.187 68.1688 181.786 68.7674C182.384 69.3659 183.196 69.7021 184.043 69.7021C184.889 69.7021 185.701 69.3659 186.299 68.7674C186.898 68.1688 187.234 67.3571 187.234 66.5106V48.4255C187.234 42.7826 184.992 37.3708 181.002 33.3807C177.012 29.3906 171.6 27.1489 165.957 27.1489C161.121 27.1422 156.428 28.7923 152.66 31.8245V41.7234C153.9 39.2608 155.801 37.191 158.149 35.7447C160.497 34.2984 163.2 33.5324 165.957 33.5319C169.907 33.5319 173.696 35.1011 176.489 37.8942Z" fill="#008AD2"/>
<path d="M139.374 67.4204C142.347 65.92 144.926 63.7428 146.904 61.0638C145.416 58.8313 144.334 56.3536 143.707 53.7447C142.63 56.5627 140.722 58.987 138.236 60.6967C135.751 62.4064 132.804 63.3209 129.787 63.3191C125.837 63.3191 122.049 61.75 119.256 58.9569C116.463 56.1638 114.894 52.3756 114.894 48.4255V30.3404C114.894 29.494 114.557 28.6822 113.959 28.0837C113.36 27.4852 112.549 27.1489 111.702 27.1489C110.856 27.1489 110.044 27.4852 109.445 28.0837C108.847 28.6822 108.511 29.494 108.511 30.3404V33.2394C104.539 29.3315 99.1889 27.1437 93.617 27.1489C90.2869 27.1477 87.0032 27.9294 84.0308 29.4309C81.0584 30.9323 78.4805 33.1115 76.5053 35.7926C77.9935 38.0321 79.074 40.5172 79.6968 43.133C80.77 40.31 82.6761 37.88 85.1622 36.1653C87.6483 34.4506 90.5969 33.5322 93.617 33.5319C97.5671 33.5319 101.355 35.1011 104.148 37.8942C106.941 40.6872 108.511 44.4755 108.511 48.4255C108.511 54.0684 110.752 59.4802 114.742 63.4704C118.733 67.4605 124.144 69.7021 129.787 69.7021C133.117 69.7022 136.401 68.9207 139.374 67.4204Z" fill="#008AD2"/>
<path d="M194.155 68.2837C193.804 67.7589 193.617 67.1419 193.617 66.5106C193.617 65.6642 193.953 64.8524 194.552 64.2539C195.15 63.6554 195.962 63.3191 196.809 63.3191C197.44 63.3191 198.057 63.5063 198.582 63.857C199.106 64.2077 199.516 64.7061 199.757 65.2893C199.999 65.8725 200.062 66.5142 199.939 67.1333C199.816 67.7523 199.512 68.321 199.065 68.7674C198.619 69.2137 198.05 69.5177 197.431 69.6408C196.812 69.7639 196.17 69.7007 195.587 69.4592C195.004 69.2176 194.506 68.8086 194.155 68.2837Z" fill="#008AD2"/>
<path d="M116.83 84.0055C116.855 83.2148 116.672 82.4314 116.298 81.7342C115.963 81.1292 115.458 80.6355 114.846 80.314C114.202 79.9872 113.488 79.8228 112.766 79.8353C112.094 79.8268 111.43 79.9859 110.835 80.2981C110.435 80.5112 110.075 80.7919 109.771 81.1278V76.7395C109.775 76.6542 109.762 76.5688 109.733 76.4885C109.704 76.4082 109.659 76.3344 109.601 76.2715C109.508 76.1941 109.396 76.1442 109.276 76.1273C109.157 76.1104 109.035 76.1272 108.924 76.1759C108.814 76.2245 108.719 76.303 108.65 76.4026C108.582 76.5022 108.543 76.6189 108.537 76.7395V88.2768C108.534 88.3601 108.548 88.4432 108.578 88.521C108.609 88.5987 108.654 88.6695 108.713 88.7289C108.805 88.8056 108.916 88.8556 109.034 88.8731C109.152 88.8907 109.273 88.8753 109.383 88.8285C109.493 88.7817 109.588 88.7054 109.658 88.6081C109.727 88.5107 109.768 88.3961 109.777 88.2768V83.4364C109.77 82.9973 109.903 82.5674 110.154 82.2076C110.414 81.8389 110.766 81.5453 111.176 81.3566C111.638 81.1444 112.14 81.0346 112.649 81.0346C113.158 81.0346 113.66 81.1444 114.122 81.3566C114.566 81.5699 114.937 81.9106 115.186 82.3353C115.459 82.8484 115.591 83.4247 115.569 84.0055V88.2608C115.568 88.3428 115.583 88.4242 115.614 88.5001C115.645 88.576 115.692 88.6448 115.75 88.7023C115.81 88.7625 115.881 88.8096 115.96 88.8407C116.039 88.8719 116.123 88.8863 116.208 88.8832C116.289 88.8839 116.371 88.8683 116.447 88.8372C116.522 88.8062 116.591 88.7604 116.649 88.7025C116.707 88.6445 116.753 88.5756 116.784 88.4998C116.815 88.424 116.831 88.3428 116.83 88.2608V84.0055Z" fill="#008AD2"/>
<path fill-rule="evenodd" clip-rule="evenodd" d="M133.027 84.2502C133.032 83.4616 132.85 82.6831 132.495 81.9789C132.167 81.3378 131.665 80.8016 131.048 80.431C130.394 80.0432 129.643 79.8477 128.883 79.8672C128.1 79.8518 127.327 80.0563 126.654 80.4576C126.014 80.8416 125.492 81.3935 125.144 82.0534C124.772 82.7837 124.589 83.5957 124.612 84.4151C124.596 85.2377 124.795 86.0502 125.192 86.7715C125.565 87.4413 126.117 87.9938 126.787 88.3672C127.388 88.6964 128.052 88.8919 128.735 88.9406C129.418 88.9892 130.104 88.8898 130.745 88.6491C131.243 88.477 131.707 88.2196 132.117 87.8885C132.178 87.8429 132.226 87.7832 132.259 87.7146C132.291 87.6461 132.306 87.5706 132.303 87.4949C132.298 87.4129 132.275 87.3328 132.238 87.2597C132.2 87.1865 132.148 87.1218 132.085 87.0693C131.974 86.9803 131.833 86.9366 131.692 86.947C131.541 86.9499 131.397 87.0043 131.282 87.1012C131 87.3378 130.675 87.5183 130.325 87.6332C129.943 87.7669 129.542 87.8352 129.138 87.8353C128.531 87.8494 127.931 87.6967 127.404 87.3938C126.905 87.1063 126.494 86.6867 126.218 86.181C125.987 85.7631 125.847 85.3007 125.809 84.8246H132.436C132.593 84.8312 132.746 84.7758 132.862 84.6704C132.918 84.6167 132.962 84.5513 132.991 84.4786C133.019 84.406 133.032 84.328 133.027 84.2502ZM125.83 83.7768C125.88 83.3812 125.995 82.9967 126.17 82.6385C126.407 82.1413 126.777 81.7196 127.239 81.4204C127.732 81.1203 128.301 80.9672 128.878 80.9789C129.44 80.9615 129.995 81.1094 130.473 81.4044C130.92 81.692 131.275 82.1019 131.495 82.5853C131.673 82.96 131.783 83.3635 131.819 83.7768H125.83Z" fill="#008AD2"/>
<path fill-rule="evenodd" clip-rule="evenodd" d="M148.894 84.4151C148.896 83.5945 148.683 82.7877 148.277 82.0747C147.891 81.4004 147.335 80.8391 146.665 80.447C145.953 80.0564 145.155 79.8515 144.343 79.8515C143.531 79.8515 142.733 80.0564 142.021 80.447C141.341 80.8298 140.774 81.3859 140.378 82.0587C139.974 82.7716 139.768 83.5798 139.782 84.3991C139.768 85.2113 139.968 86.0129 140.362 86.7236C140.741 87.3975 141.291 87.9591 141.958 88.3512C142.641 88.756 143.424 88.964 144.218 88.9523C144.962 88.9665 145.696 88.7829 146.346 88.4204C146.847 88.1266 147.281 87.7295 147.617 87.2555V88.2608C147.614 88.3447 147.628 88.4283 147.659 88.5062C147.69 88.5841 147.738 88.6546 147.798 88.7129C147.922 88.828 148.086 88.8893 148.255 88.8832C148.424 88.8881 148.588 88.827 148.713 88.7129C148.772 88.654 148.819 88.5834 148.85 88.5056C148.881 88.4279 148.896 88.3446 148.894 88.2608V84.4151ZM147.648 84.4124C147.648 85.0217 147.499 85.6217 147.213 86.1598C146.938 86.6642 146.532 87.085 146.037 87.3778C145.268 87.8163 144.356 87.9342 143.5 87.7063C142.644 87.4784 141.913 86.9229 141.463 86.1598C141.173 85.6229 141.022 85.0224 141.022 84.4124C141.022 83.8024 141.173 83.202 141.463 82.6651C141.747 82.1621 142.158 81.7422 142.654 81.447C143.169 81.1506 143.752 80.9946 144.346 80.9946C144.94 80.9946 145.523 81.1506 146.037 81.447C146.529 81.7428 146.935 82.1629 147.213 82.6651C147.499 83.2031 147.648 83.8031 147.648 84.4124Z" fill="#008AD2"/>
<path d="M158.745 87.6385H159.154C159.229 87.6357 159.303 87.6502 159.371 87.6806C159.44 87.711 159.5 87.7566 159.548 87.814C159.649 87.9405 159.7 88.0994 159.692 88.2608C159.697 88.3469 159.682 88.4331 159.646 88.5118C159.611 88.5906 159.557 88.6596 159.489 88.7129C159.338 88.8302 159.149 88.8905 158.958 88.8832H158.745C158.327 88.8895 157.918 88.7649 157.575 88.5268C157.221 88.2729 156.943 87.9271 156.771 87.5268C156.572 87.0617 156.474 86.5593 156.484 86.0534V76.7236C156.479 76.6406 156.492 76.5577 156.522 76.4801C156.552 76.4025 156.597 76.332 156.656 76.2733C156.715 76.2145 156.785 76.1688 156.863 76.1392C156.941 76.1096 157.023 76.0966 157.106 76.1012C157.19 76.0958 157.273 76.1081 157.351 76.1374C157.429 76.1668 157.5 76.2124 157.559 76.2713C157.618 76.3303 157.663 76.4011 157.693 76.4791C157.722 76.5571 157.734 76.6404 157.729 76.7236V86.0534C157.711 86.4544 157.811 86.852 158.016 87.197C158.087 87.3288 158.192 87.4393 158.32 87.5169C158.448 87.5946 158.595 87.6365 158.745 87.6385Z" fill="#008AD2"/>
<path d="M170.415 87.6385H170.856L170.84 87.6225C170.922 87.6225 171.003 87.64 171.077 87.674C171.152 87.7079 171.218 87.7575 171.271 87.8193C171.38 87.9463 171.437 88.1097 171.431 88.2768C171.434 88.3615 171.418 88.4458 171.385 88.5239C171.352 88.602 171.302 88.6719 171.239 88.7289C171.101 88.8436 170.925 88.9041 170.745 88.8991H170.404C169.86 88.9103 169.324 88.7684 168.856 88.4895C168.41 88.2175 168.043 87.8321 167.793 87.3725C167.525 86.8704 167.39 86.3084 167.399 85.7395V81.3725H166.335C166.185 81.3763 166.04 81.3209 165.931 81.2183C165.878 81.1682 165.837 81.1079 165.808 81.0412C165.78 80.9744 165.766 80.9025 165.766 80.83C165.764 80.7556 165.778 80.6817 165.806 80.613C165.835 80.5443 165.877 80.4823 165.931 80.431C165.984 80.3784 166.047 80.3375 166.117 80.3109C166.186 80.2844 166.261 80.2727 166.335 80.2768H167.399V77.7395C167.396 77.6554 167.41 77.5714 167.44 77.4928C167.47 77.4142 167.516 77.3425 167.575 77.2821C167.632 77.2217 167.701 77.1742 167.778 77.143C167.855 77.1118 167.938 77.0976 168.021 77.1012C168.106 77.0975 168.191 77.1114 168.27 77.1421C168.349 77.1729 168.421 77.2198 168.481 77.2798C168.541 77.3398 168.588 77.4117 168.619 77.4909C168.649 77.57 168.663 77.6547 168.66 77.7395V80.2768H170.511C170.586 80.272 170.661 80.2832 170.732 80.3098C170.803 80.3364 170.867 80.3777 170.92 80.431C170.974 80.4823 171.017 80.5443 171.045 80.613C171.073 80.6817 171.087 80.7556 171.085 80.83C171.086 80.9025 171.071 80.9744 171.043 81.0412C171.014 81.1079 170.973 81.1682 170.92 81.2183C170.809 81.3217 170.662 81.3772 170.511 81.3725H168.66V85.7395C168.639 86.2424 168.817 86.7333 169.154 87.1066C169.313 87.2817 169.508 87.4201 169.726 87.5119C169.944 87.6038 170.179 87.647 170.415 87.6385Z" fill="#008AD2"/>
<path d="M185.25 80.314C185.861 80.6375 186.365 81.1307 186.702 81.7342C187.076 82.4318 187.261 83.2146 187.239 84.0055V88.2608C187.241 88.3428 187.225 88.4242 187.194 88.5001C187.163 88.576 187.117 88.6448 187.059 88.7023C187.001 88.7612 186.933 88.8077 186.857 88.8389C186.781 88.87 186.699 88.8851 186.617 88.8832C186.532 88.8866 186.448 88.8723 186.369 88.8412C186.29 88.81 186.219 88.7627 186.16 88.7023C186.1 88.6456 186.053 88.5769 186.022 88.5008C185.991 88.4248 185.976 88.343 185.979 88.2608V84.0055C186.002 83.424 185.868 82.8469 185.59 82.3353C185.342 81.91 184.971 81.569 184.527 81.3566C184.059 81.1324 183.545 81.0195 183.027 81.0268C182.527 81.0198 182.032 81.1272 181.58 81.3406C181.17 81.5307 180.816 81.8239 180.553 82.1917C180.303 82.5519 180.173 82.9819 180.181 83.4204V88.2608C180.186 88.3438 180.173 88.4267 180.143 88.5043C180.113 88.5819 180.068 88.6524 180.009 88.7111C179.95 88.7699 179.88 88.8156 179.802 88.8452C179.724 88.8748 179.642 88.8878 179.559 88.8832C179.473 88.887 179.388 88.874 179.308 88.8447C179.227 88.8155 179.153 88.7707 179.09 88.7129C179.034 88.6526 178.989 88.5815 178.96 88.5039C178.931 88.4263 178.917 88.3437 178.92 88.2608V76.7395C178.913 76.6539 178.925 76.5677 178.954 76.4869C178.984 76.4062 179.03 76.3328 179.091 76.2721C179.152 76.2113 179.225 76.1645 179.306 76.135C179.387 76.1055 179.473 76.094 179.559 76.1012C179.641 76.0979 179.723 76.1112 179.799 76.1404C179.876 76.1697 179.946 76.2143 180.005 76.2715C180.065 76.3333 180.112 76.4068 180.142 76.4873C180.172 76.5678 180.185 76.6537 180.181 76.7395V81.1278C180.484 80.7907 180.844 80.5098 181.245 80.2981C181.839 79.9846 182.503 79.8255 183.176 79.8353C183.896 79.8228 184.608 79.9872 185.25 80.314Z" fill="#008AD2"/>
</svg>
