<svg width="64" height="96" viewBox="0 0 64 96" fill="none" xmlns="http://www.w3.org/2000/svg">
<path d="M16.7394 38.8243C16.3793 39.0188 16.1344 39.3285 16.0263 39.7247C15.9759 39.9048 16.0047 54.7935 16.0552 55.06C16.1128 55.3985 16.6314 55.91 16.9772 55.9748C17.3949 56.0468 17.7983 55.9604 18.0864 55.7299C18.6122 55.3121 18.5906 55.485 18.5978 50.911C18.605 47.6048 18.6266 46.7117 18.7131 46.2507C18.9508 45.0261 19.5198 43.9601 20.4418 43.0597C21.1981 42.3106 22.1634 41.7704 23.2438 41.4822C23.8129 41.331 25.1814 41.3022 25.7865 41.4318C28.0987 41.9144 29.849 43.5495 30.4901 45.8113C30.6486 46.3731 30.6486 46.4812 30.6774 50.6013C30.6918 52.9207 30.7134 54.9159 30.735 55.0312C30.7854 55.3193 31.1672 55.7803 31.4625 55.9028C31.765 56.0324 32.2188 56.0324 32.5213 55.9028C32.7735 55.8019 33.1192 55.4346 33.2272 55.1608C33.2561 55.0744 33.2921 53.1584 33.2921 50.911C33.2993 46.5604 33.3209 46.2363 33.6666 45.3071C34.3941 43.319 36.1517 41.8208 38.219 41.4318C38.896 41.3022 40.1566 41.331 40.7472 41.4822C42.5264 41.9504 43.9382 43.0813 44.7305 44.6588C44.9394 45.0838 45.1627 45.6672 45.2203 45.9553C45.2347 46.0346 45.278 46.2579 45.314 46.4596C45.35 46.654 45.386 48.6277 45.3932 50.839C45.3932 53.0431 45.4148 54.9448 45.4364 55.06C45.494 55.3481 45.8614 55.7731 46.1639 55.8956C46.4809 56.0324 46.913 56.0324 47.2156 55.9028C47.4749 55.7947 47.8134 55.4346 47.9287 55.1464C48.0079 54.9375 48.0295 47.4968 47.9503 46.5316C47.8206 44.9037 47.0643 43.0813 45.9983 41.8496C45.494 41.2589 45.3788 41.1437 44.925 40.7547C43.9598 39.9336 42.5192 39.1845 41.4603 38.9684C39.638 38.5866 38.0461 38.6586 36.4974 39.1845C35.9788 39.3573 34.9704 39.8543 34.5526 40.1497C33.5874 40.8196 32.543 41.8784 32.0676 42.6707C32.0027 42.7788 31.9883 42.7788 31.9235 42.6707C31.7074 42.3106 31.1456 41.6335 30.6846 41.1725C29.6761 40.1641 28.0122 39.2277 26.7661 38.9684C25.059 38.6082 23.5535 38.6442 22.1634 39.0764C20.8452 39.4798 19.6063 40.1929 18.6987 41.0789C18.6122 41.1581 18.5978 41.0573 18.5978 40.4306C18.5978 39.5806 18.5042 39.3285 18.0648 38.9684C17.8343 38.7811 17.7263 38.7523 17.3517 38.7451C17.1068 38.7379 16.8331 38.7739 16.7394 38.8243Z" fill="#008AD2"/>
</svg>
