<svg width="24" height="24" viewBox="0 0 24 24" fill="none" xmlns="http://www.w3.org/2000/svg">
<g clip-path="url(#clip0)">
<path d="M0.554587 5.11823C0.284472 5.26409 0.100794 5.49639 0.01976 5.79352C-0.018056 5.92857 0.00355315 17.0951 0.0413692 17.295C0.0845875 17.5489 0.473553 17.9325 0.732863 17.9811C1.0462 18.0351 1.34872 17.9703 1.56482 17.7974C1.95918 17.4841 1.94298 17.6137 1.94838 14.1833C1.95378 11.7036 1.96999 11.0337 2.03481 10.688C2.21309 9.76961 2.63987 8.97007 3.33136 8.29478C3.89861 7.73294 4.62251 7.32777 5.43286 7.11168C5.85964 6.99823 6.88607 6.97662 7.33987 7.07386C9.074 7.43582 10.3868 8.66214 10.8676 10.3585C10.9864 10.7798 10.9864 10.8609 11.008 13.951C11.0188 15.6905 11.035 17.187 11.0512 17.2734C11.0891 17.4895 11.3754 17.8352 11.5969 17.9271C11.8238 18.0243 12.1641 18.0243 12.391 17.9271C12.5801 17.8514 12.8394 17.5759 12.9204 17.3706C12.942 17.3058 12.9691 15.8688 12.9691 14.1833C12.9745 10.9203 12.9907 10.6772 13.25 9.9803C13.7956 8.48926 15.1138 7.36559 16.6642 7.07386C17.172 6.97662 18.1174 6.99823 18.5604 7.11168C19.8948 7.46283 20.9536 8.31099 21.5479 9.49409C21.7046 9.81282 21.872 10.2504 21.9152 10.4665C21.9261 10.5259 21.9585 10.6934 21.9855 10.8447C22.0125 10.9905 22.0395 12.4708 22.0449 14.1293C22.0449 15.7824 22.0611 17.2086 22.0773 17.295C22.1205 17.5111 22.3961 17.8298 22.6229 17.9217C22.8606 18.0243 23.1848 18.0243 23.4117 17.9271C23.6062 17.846 23.8601 17.5759 23.9465 17.3598C24.0059 17.2032 24.0221 11.6226 23.9627 10.8987C23.8655 9.67777 23.2982 8.31099 22.4987 7.38719C22.1205 6.94421 22.0341 6.85777 21.6938 6.56605C20.9698 5.95018 19.8894 5.38835 19.0953 5.22628C17.7285 4.93995 16.5346 4.99398 15.3731 5.38835C14.9841 5.518 14.2278 5.89076 13.9145 6.11225C13.1905 6.61467 12.4072 7.4088 12.0507 8.00306C12.002 8.08409 11.9912 8.08409 11.9426 8.00306C11.7805 7.73294 11.3592 7.22513 11.0134 6.87938C10.2571 6.12306 9.00917 5.42076 8.07458 5.22628C6.79423 4.95616 5.66515 4.98317 4.62251 5.30731C3.63389 5.60984 2.7047 6.14467 2.02401 6.80915C1.95918 6.86857 1.94838 6.79294 1.94838 6.32294C1.94838 5.68547 1.87815 5.49639 1.54861 5.22628C1.37574 5.08582 1.2947 5.06421 1.01378 5.05881C0.830104 5.0534 0.624817 5.08042 0.554587 5.11823Z" fill="#0050E5"/>
</g>
<defs>
<clipPath id="clip0">
<path d="M0 0H24V24H0V0Z" fill="white"/>
</clipPath>
</defs>
</svg>
