<svg width="32" height="32" viewBox="0 0 32 32" fill="none" xmlns="http://www.w3.org/2000/svg">
<g clip-path="url(#clip0)">
<path d="M0.739449 6.82431C0.379296 7.01879 0.134393 7.32852 0.0263467 7.72469C-0.0240747 7.90477 0.00473753 22.7935 0.0551589 23.06C0.112783 23.3985 0.631403 23.91 0.97715 23.9748C1.39493 24.0468 1.7983 23.9604 2.08642 23.7299C2.61224 23.3121 2.59063 23.485 2.59784 18.911C2.60504 15.6048 2.62665 14.7117 2.71309 14.2507C2.95079 13.0261 3.51983 11.9601 4.44182 11.0597C5.19814 10.3106 6.16335 9.77036 7.24381 9.48224C7.81285 9.33097 9.18143 9.30216 9.78649 9.43182C12.0987 9.91442 13.849 11.5495 14.4901 13.8113C14.6486 14.3731 14.6486 14.4812 14.6774 18.6013C14.6918 20.9207 14.7134 22.9159 14.735 23.0312C14.7854 23.3193 15.1672 23.7803 15.4625 23.9028C15.765 24.0324 16.2188 24.0324 16.5213 23.9028C16.7735 23.8019 17.1192 23.4346 17.2272 23.1608C17.2561 23.0744 17.2921 21.1584 17.2921 18.911C17.2993 14.5604 17.3209 14.2363 17.6666 13.3071C18.3941 11.319 20.1517 9.82078 22.219 9.43182C22.896 9.30216 24.1566 9.33097 24.7472 9.48224C26.5264 9.95044 27.9382 11.0813 28.7305 12.6588C28.9394 13.0838 29.1627 13.6672 29.2203 13.9553C29.2347 14.0346 29.278 14.2579 29.314 14.4596C29.35 14.654 29.386 16.6277 29.3932 18.839C29.3932 21.0431 29.4148 22.9448 29.4364 23.06C29.494 23.3481 29.8614 23.7731 30.1639 23.8956C30.4809 24.0324 30.913 24.0324 31.2156 23.9028C31.4749 23.7947 31.8134 23.4346 31.9287 23.1464C32.0079 22.9375 32.0295 15.4968 31.9503 14.5316C31.8206 12.9037 31.0643 11.0813 29.9983 9.84959C29.494 9.25894 29.3788 9.14369 28.925 8.75473C27.9598 7.93358 26.5192 7.18446 25.4603 6.96837C23.638 6.58661 22.0461 6.65864 20.4974 7.18446C19.9788 7.35734 18.9704 7.85435 18.5526 8.14967C17.5874 8.81956 16.543 9.87841 16.0676 10.6707C16.0027 10.7788 15.9883 10.7788 15.9235 10.6707C15.7074 10.3106 15.1456 9.6335 14.6846 9.17251C13.6761 8.16408 12.0122 7.22768 10.7661 6.96837C9.05898 6.60822 7.55354 6.64423 6.16335 7.07642C4.84519 7.47979 3.60627 8.19289 2.69868 9.07887C2.61224 9.1581 2.59784 9.05726 2.59784 8.43059C2.59784 7.58063 2.5042 7.32852 2.06481 6.96837C1.83431 6.78109 1.72627 6.75228 1.35171 6.74508C1.10681 6.73787 0.833089 6.77389 0.739449 6.82431Z" fill="#0050E5"/>
</g>
<defs>
<clipPath id="clip0">
<path d="M0 0H32V32H0V0Z" fill="white"/>
</clipPath>
</defs>
</svg>
