<svg width="160" height="24" viewBox="0 0 160 24" fill="none" xmlns="http://www.w3.org/2000/svg">
<path d="M30.6207 22.7586C30.6207 23.0878 30.4899 23.4036 30.2571 23.6364C30.0243 23.8692 29.7085 24 29.3793 24C29.0501 24 28.7343 23.8692 28.5015 23.6364C28.2687 23.4036 28.1379 23.0878 28.1379 22.7586V18.9828C28.6707 20.3294 29.5228 21.5265 30.6207 22.471V22.7586ZM42.2069 3.72414C42.2069 3.96966 42.2797 4.20967 42.4161 4.41381C42.5525 4.61795 42.7464 4.77706 42.9732 4.87102C43.2 4.96498 43.4496 4.98956 43.6904 4.94166C43.9312 4.89376 44.1524 4.77553 44.326 4.60192C44.4997 4.42831 44.6179 4.20712 44.6658 3.96632C44.7137 3.72551 44.6891 3.47591 44.5951 3.24908C44.5012 3.02225 44.3421 2.82837 44.1379 2.69197C43.9338 2.55556 43.6938 2.48276 43.4483 2.48276C43.119 2.48276 42.8033 2.61354 42.5705 2.84635C42.3377 3.07915 42.2069 3.3949 42.2069 3.72414ZM44.6896 22.7586C44.6896 23.0878 44.5588 23.4036 44.326 23.6364C44.0932 23.8692 43.7775 24 43.4483 24C43.119 24 42.8033 23.8692 42.5705 23.6364C42.3377 23.4036 42.2069 23.0878 42.2069 22.7586V21.6352C40.6615 23.1538 38.5805 24.0033 36.4138 24C34.2189 24 32.1139 23.1281 30.5619 21.576C29.0098 20.024 28.1379 17.919 28.1379 15.7241C28.1379 14.1877 27.5276 12.7142 26.4412 11.6278C25.3547 10.5414 23.8812 9.93103 22.3448 9.93103C20.8084 9.93103 19.3349 10.5414 18.2485 11.6278C17.1621 12.7142 16.5517 14.1877 16.5517 15.7241V22.7586C16.5517 23.0878 16.4209 23.4036 16.1881 23.6364C15.9553 23.8692 15.6396 24 15.3103 24C14.9811 24 14.6654 23.8692 14.4325 23.6364C14.1997 23.4036 14.069 23.0878 14.069 22.7586V15.7241C14.069 14.1877 13.4586 12.7142 12.3722 11.6278C11.2858 10.5414 9.81228 9.93103 8.27586 9.93103C6.73943 9.93103 5.26593 10.5414 4.17952 11.6278C3.0931 12.7142 2.48276 14.1877 2.48276 15.7241V22.7586C2.48276 23.0878 2.35197 23.4036 2.11917 23.6364C1.88636 23.8692 1.57061 24 1.24138 24C0.912145 24 0.596394 23.8692 0.36359 23.6364C0.130787 23.4036 0 23.0878 0 22.7586V8.68965C0 8.36042 0.130787 8.04467 0.36359 7.81186C0.596394 7.57906 0.912145 7.44827 1.24138 7.44827C1.57061 7.44827 1.88636 7.57906 2.11917 7.81186C2.35197 8.04467 2.48276 8.36042 2.48276 8.68965V9.81724C4.02711 8.29647 6.10843 7.44536 8.27586 7.44827C9.68502 7.44852 11.0708 7.80858 12.3018 8.49435C13.5329 9.18011 14.5684 10.1689 15.3103 11.3669C16.0523 10.1689 17.0878 9.18011 18.3189 8.49435C19.5499 7.80858 20.9357 7.44852 22.3448 7.44827C24.5397 7.44827 26.6447 8.32019 28.1967 9.87222C29.7488 11.4242 30.6207 13.5292 30.6207 15.7241C30.6207 17.2606 31.231 18.7341 32.3174 19.8205C33.4039 20.9069 34.8773 21.5172 36.4138 21.5172C37.5876 21.5183 38.7341 21.1628 39.7014 20.4978C40.6687 19.8327 41.4111 18.8895 41.8303 17.7931C42.268 19.613 43.2686 21.2485 44.6896 22.4669V22.7586ZM70.3448 15.7241C70.3448 14.1877 69.7345 12.7142 68.648 11.6278C67.5616 10.5414 66.0881 9.93103 64.5517 9.93103C63.4791 9.93121 62.4276 10.2292 61.5143 10.7917C60.6011 11.3543 59.862 12.1594 59.3793 13.1172V9.26689C60.845 8.08749 62.6704 7.44567 64.5517 7.44827C66.7466 7.44827 68.8516 8.32019 70.4036 9.87222C71.9556 11.4242 72.8276 13.5292 72.8276 15.7241V22.7586C72.8276 23.0878 72.6968 23.4036 72.464 23.6364C72.2312 23.8692 71.9154 24 71.5862 24C71.2569 24 70.9412 23.8692 70.7084 23.6364C70.4756 23.4036 70.3448 23.0878 70.3448 22.7586V21.6352C68.7994 23.1538 66.7184 24.0033 64.5517 24C62.3568 24 60.2518 23.1281 58.6998 21.576C57.1478 20.024 56.2758 17.919 56.2758 15.7241C56.2758 14.1877 55.6655 12.7142 54.5791 11.6278C53.4927 10.5414 52.0192 9.93103 50.4827 9.93103C49.4101 9.93121 48.3586 10.2292 47.4454 10.7917C46.5321 11.3543 45.793 12.1594 45.3103 13.1172V9.26689C46.776 8.08749 48.6014 7.44567 50.4827 7.44827C52.6502 7.44536 54.7315 8.29647 56.2758 9.81724V1.24138C56.2758 0.912145 56.4066 0.596394 56.6394 0.36359C56.8722 0.130787 57.188 0 57.5172 0C57.8464 0 58.1622 0.130787 58.395 0.36359C58.6278 0.596394 58.7586 0.912145 58.7586 1.24138V15.7241C58.7586 17.2606 59.3689 18.7341 60.4554 19.8205C61.5418 20.9069 63.0153 21.5172 64.5517 21.5172C66.0881 21.5172 67.5616 20.9069 68.648 19.8205C69.7345 18.7341 70.3448 17.2606 70.3448 15.7241ZM57.1407 20.64C56.3713 21.682 55.368 22.5289 54.2116 23.1125C53.0552 23.696 51.778 24 50.4827 24C48.2878 24 46.1828 23.1281 44.6308 21.576C43.0788 20.024 42.2069 17.919 42.2069 15.7241C42.2069 14.1877 41.5965 12.7142 40.5101 11.6278C39.4237 10.5414 37.9502 9.93103 36.4138 9.93103C35.2391 9.93113 34.0921 10.2884 33.1251 10.9553C32.1581 11.6223 31.4167 12.5675 30.9993 13.6655C30.757 12.6481 30.3368 11.6814 29.7579 10.8103C30.5262 9.7675 31.5289 8.91987 32.6851 8.33586C33.8412 7.75185 35.1185 7.44781 36.4138 7.44827C38.581 7.44625 40.662 8.29723 42.2069 9.81724V8.68965C42.2069 8.36042 42.3377 8.04467 42.5705 7.81186C42.8033 7.57906 43.119 7.44827 43.4483 7.44827C43.7775 7.44827 44.0932 7.57906 44.326 7.81186C44.5588 8.04467 44.6896 8.36042 44.6896 8.68965V15.7241C44.6896 17.2606 45.3 18.7341 46.3864 19.8205C47.4728 20.9069 48.9463 21.5172 50.4827 21.5172C51.6562 21.5179 52.8023 21.1622 53.7691 20.4972C54.736 19.8322 55.4781 18.8892 55.8972 17.7931C56.1409 18.8079 56.5618 19.7716 57.1407 20.64ZM75.3103 22.7586C75.3103 23.0041 75.3831 23.2441 75.5195 23.4483C75.6559 23.6524 75.8498 23.8115 76.0766 23.9055C76.3035 23.9995 76.5531 24.024 76.7939 23.9761C77.0347 23.9282 77.2559 23.81 77.4295 23.6364C77.6031 23.4628 77.7213 23.2416 77.7692 23.0008C77.8171 22.76 77.7925 22.5104 77.6986 22.2836C77.6046 22.0567 77.4455 21.8628 77.2414 21.7264C77.0372 21.59 76.7972 21.5172 76.5517 21.5172C76.2225 21.5172 75.9067 21.648 75.6739 21.8808C75.4411 22.1136 75.3103 22.4294 75.3103 22.7586Z" fill="#0050E5"/>
</svg>
