<svg width="200" height="96" viewBox="0 0 200 96" fill="none" xmlns="http://www.w3.org/2000/svg">
<path d="M59 26.5556L58.3725 25H44.7255H43L49.5882 39H51.3137L45.5098 26.5556H59Z" fill="#BB2222"/>
<path d="M31.1111 46.4667H1.48148V25H0V71H1.48148V48H31.1111V71H32.5926V25H31.1111V46.4667Z" fill="#444444"/>
<path d="M48.8889 71H50.3704L69.6296 25H68.1481L48.8889 71Z" fill="#444444"/>
<path fill-rule="evenodd" clip-rule="evenodd" d="M100.741 26.38C103.704 27.1467 106.221 28.68 108.443 30.52C110.666 32.3601 112.445 34.8134 113.779 37.7267C115.11 40.6399 115.703 44.0134 115.703 48C115.703 51.9866 114.962 55.3601 113.779 58.2733C112.593 61.1866 110.816 63.6399 108.594 65.48C106.372 67.32 103.704 68.7 100.741 69.62C97.7778 70.5399 94.5197 71 91.1111 71H78.5185V25H91.1111C94.5197 25 97.7778 25.4601 100.741 26.38ZM107.407 64.2533C109.482 62.5667 111.111 60.42 112.297 57.6601C113.481 55.0533 114.074 51.8333 114.074 48.1533C114.074 44.32 113.481 41.1 112.297 38.3399C111.111 35.58 109.482 33.28 107.407 31.5934C105.333 29.9066 102.815 28.5267 100 27.7601C97.1846 26.9934 94.0741 26.5333 90.816 26.5333H80V69.3134H90.816C94.0741 69.3134 97.1846 68.8533 100 68.0866C102.815 67.32 105.333 65.9399 107.407 64.2533Z" fill="#444444"/>
<path fill-rule="evenodd" clip-rule="evenodd" d="M139.407 48C140.888 48 142.37 47.8467 143.999 47.3866C145.48 46.9267 146.962 46.3134 148.296 45.3934C149.63 44.4733 150.665 43.4 151.406 41.8667C152.147 40.4866 152.593 38.6467 152.593 36.5C152.593 34.2 152.147 32.2066 151.259 30.6733C150.37 29.1399 149.334 28.0667 148.001 27.1467C146.667 26.38 145.185 25.7667 143.409 25.4601C142.859 25.3569 142.312 25.2712 141.759 25.2027C140.666 25.0676 139.551 25 138.371 25H125.926V71H127.407V48H137.925L151.259 71H152.74L139.407 48ZM127.407 26.5333H137.63C139.259 26.5333 141.036 26.6866 142.668 26.9934C144.297 27.3 145.778 27.7601 146.962 28.5267C148.148 29.2934 149.184 30.2134 149.925 31.5934C150.665 32.82 151.111 34.5066 151.111 36.5C151.111 39.72 150.075 42.1733 147.853 43.8601C145.631 45.5467 142.517 46.4667 138.371 46.4667H127.407V26.5333Z" fill="#444444"/>
<path fill-rule="evenodd" clip-rule="evenodd" d="M200 71H198.519L192.74 57.2H167.26L161.481 71H160L179.259 25H180.741L200 71ZM180 26.8399L167.853 55.6667H192.147L180 26.8399Z" fill="#444444"/>
</svg>
