<svg width="200" height="96" viewBox="0 0 200 96" fill="none" xmlns="http://www.w3.org/2000/svg">
<path d="M1.48148 45.4667H31.1111V24H32.5926V70H31.1111V47H1.48148V70H0V24H1.48148V45.4667Z" fill="#008AD2"/>
<path d="M45.3333 25.5333L50.8148 37.8H49.1852L42.963 24H57.4815L58.0741 25.5333H45.3333Z" fill="#008AD2"/>
<path d="M48.8889 70H50.3704L69.6296 24H68.1481L48.8889 70Z" fill="#008AD2"/>
<path fill-rule="evenodd" clip-rule="evenodd" d="M100.593 25.38C103.704 26.3 106.222 27.68 108.444 29.52C110.667 31.36 112.444 33.8133 113.778 36.7267C115.111 39.64 115.704 43.0133 115.704 47C115.704 50.9867 114.963 54.36 113.778 57.2733C112.593 60.1867 110.815 62.64 108.593 64.48C106.37 66.32 103.704 67.7 100.741 68.62C97.7778 69.54 94.5185 70 91.1111 70H78.5185V24H90.963C94.3704 24 97.6296 24.46 100.593 25.38ZM107.407 63.2533C109.481 61.5667 111.111 59.42 112.296 56.66C113.481 54.0533 114.074 50.8333 114.074 47C114.074 43.1667 113.481 39.9467 112.296 37.1867C111.111 34.4267 109.481 32.1267 107.407 30.44C105.333 28.7533 102.815 27.3733 100 26.6067C97.1852 25.84 94.0741 25.38 90.8148 25.38H80V68.3133H90.8148C94.0741 68.3133 97.1852 67.8533 100 67.0867C102.815 66.32 105.333 64.94 107.407 63.2533Z" fill="#008AD2"/>
<path fill-rule="evenodd" clip-rule="evenodd" d="M139.407 47C140.889 47 142.37 46.8467 144 46.3867C145.481 45.9267 146.963 45.3133 148.296 44.3933C149.63 43.4733 150.667 42.4 151.407 40.8667C152.148 39.4867 152.593 37.6467 152.593 35.5C152.593 33.2 152.148 31.2067 151.259 29.6733C150.37 28.14 149.333 27.0667 148 26.1467C146.667 25.2267 145.185 24.7667 143.407 24.46C141.778 24.1533 140 24 138.37 24H125.926V70H127.407V47H137.926L151.259 70H152.741L139.407 47ZM127.407 45.4667V25.5333H137.63C139.259 25.5333 141.037 25.6867 142.667 25.9933C144.296 26.3 145.778 26.76 146.963 27.5267C148.148 28.2933 149.185 29.2133 149.926 30.5933C150.667 31.82 151.111 33.5067 151.111 35.5C151.111 38.72 150.074 41.1733 147.852 42.86C145.63 44.5467 142.519 45.4667 138.37 45.4667H127.407Z" fill="#008AD2"/>
<path fill-rule="evenodd" clip-rule="evenodd" d="M179.259 24H180.741L200 70H198.519L192.741 56.2H167.259L161.481 70H160L179.259 24ZM180 25.84L167.852 54.6667H192.148L180 25.84Z" fill="#008AD2"/>
</svg>
