<svg width="160" height="24" viewBox="0 0 160 24" fill="none" xmlns="http://www.w3.org/2000/svg">
<path d="M33 0.777778L32.6471 0H24.9706H24L27.7059 7H28.6765L25.4118 0.777778H33Z" fill="#BB2222"/>
<path d="M16.8 11.2H0.8V0H0V24H0.8V12H16.8V24H17.6V0H16.8V11.2Z" fill="#444444"/>
<path d="M26.4 24H27.2L37.6 0H36.8L26.4 24Z" fill="#444444"/>
<path fill-rule="evenodd" clip-rule="evenodd" d="M54.4 0.72002C56 1.12002 57.3594 1.92002 58.5594 2.87998C59.7594 3.84004 60.7203 5.12002 61.4406 6.64004C62.1594 8.15996 62.4797 9.92002 62.4797 12C62.4797 14.08 62.0797 15.84 61.4406 17.36C60.8 18.88 59.8406 20.16 58.6406 21.12C57.4406 22.08 56 22.8 54.4 23.28C52.8 23.76 51.0406 24 49.2 24H42.4V0H49.2C51.0406 0 52.8 0.240039 54.4 0.72002ZM58 20.48C59.1203 19.6 60 18.48 60.6406 17.04C61.2797 15.68 61.6 14 61.6 12.08C61.6 10.08 61.2797 8.4 60.6406 6.95996C60 5.52002 59.1203 4.32002 58 3.44004C56.8797 2.55996 55.5203 1.84004 54 1.44004C52.4797 1.04004 50.8 0.8 49.0406 0.8H43.2V23.12H49.0406C50.8 23.12 52.4797 22.88 54 22.48C55.5203 22.08 56.8797 21.36 58 20.48Z" fill="#444444"/>
<path fill-rule="evenodd" clip-rule="evenodd" d="M75.2797 12C76.0797 12 76.8797 11.92 77.7594 11.68C78.5594 11.44 79.3594 11.12 80.0797 10.64C80.8 10.16 81.3594 9.6 81.7594 8.8C82.1594 8.07998 82.4 7.12002 82.4 6C82.4 4.8 82.1594 3.75996 81.6797 2.95996C81.2 2.15996 80.6406 1.6 79.9203 1.12002C79.2 0.72002 78.4 0.4 77.4406 0.240039C77.1438 0.18623 76.8484 0.141504 76.55 0.105762C75.9594 0.0352539 75.3578 0 74.7203 0H68V24H68.8V12H74.4797L81.6797 24H82.4797L75.2797 12ZM68.8 0.8H74.3203C75.2 0.8 76.1594 0.879981 77.0406 1.04004C77.9203 1.2 78.7203 1.44004 79.3594 1.84004C80 2.24004 80.5594 2.72002 80.9594 3.44004C81.3594 4.07998 81.6 4.95996 81.6 6C81.6 7.67998 81.0406 8.95996 79.8406 9.84004C78.6406 10.72 76.9594 11.2 74.7203 11.2H68.8V0.8Z" fill="#444444"/>
<path fill-rule="evenodd" clip-rule="evenodd" d="M108 24H107.2L104.08 16.8H90.3203L87.2 24H86.4L96.8 0H97.6L108 24ZM97.2 0.959961L90.6406 16H103.759L97.2 0.959961Z" fill="#444444"/>
</svg>
