<svg width="160" height="24" viewBox="0 0 160 24" fill="none" xmlns="http://www.w3.org/2000/svg">
<path d="M0.8 11.2H16.8V0H17.6V24H16.8V12H0.8V24H0V0H0.8V11.2Z" fill="#008AD2"/>
<path d="M24.48 0.8L27.44 7.2H26.56L23.2 0H31.04L31.36 0.8H24.48Z" fill="#008AD2"/>
<path d="M26.4 24H27.2L37.6 0H36.8L26.4 24Z" fill="#008AD2"/>
<path fill-rule="evenodd" clip-rule="evenodd" d="M54.32 0.720001C56 1.2 57.36 1.92 58.56 2.88C59.76 3.84 60.72 5.12 61.44 6.64C62.16 8.16 62.48 9.92 62.48 12C62.48 14.08 62.08 15.84 61.44 17.36C60.8 18.88 59.84 20.16 58.64 21.12C57.44 22.08 56 22.8 54.4 23.28C52.8 23.76 51.04 24 49.2 24H42.4V0H49.12C50.96 0 52.72 0.240001 54.32 0.720001ZM58 20.48C59.12 19.6 60 18.48 60.64 17.04C61.28 15.68 61.6 14 61.6 12C61.6 10 61.28 8.32 60.64 6.88C60 5.44 59.12 4.24 58 3.36C56.88 2.48 55.52 1.76 54 1.36C52.48 0.959998 50.8 0.720001 49.04 0.720001H43.2V23.12H49.04C50.8 23.12 52.48 22.88 54 22.48C55.52 22.08 56.88 21.36 58 20.48Z" fill="#008AD2"/>
<path fill-rule="evenodd" clip-rule="evenodd" d="M75.28 12C76.08 12 76.88 11.92 77.76 11.68C78.56 11.44 79.36 11.12 80.08 10.64C80.8 10.16 81.36 9.6 81.76 8.8C82.16 8.08 82.4 7.12 82.4 6C82.4 4.8 82.16 3.76 81.68 2.96C81.2 2.16 80.64 1.6 79.92 1.12C79.2 0.640001 78.4 0.400002 77.44 0.240002C76.56 0.0800024 75.6 0 74.72 0H68V24H68.8V12H74.48L81.68 24H82.48L75.28 12ZM68.8 11.2V0.8H74.32C75.2 0.8 76.16 0.880002 77.04 1.04C77.92 1.2 78.72 1.44 79.36 1.84C80 2.24 80.56 2.72 80.96 3.44C81.36 4.08 81.6 4.96 81.6 6C81.6 7.68 81.04 8.96 79.84 9.84C78.64 10.72 76.96 11.2 74.72 11.2H68.8Z" fill="#008AD2"/>
<path fill-rule="evenodd" clip-rule="evenodd" d="M96.8 0H97.6L108 24H107.2L104.08 16.8H90.32L87.2 24H86.4L96.8 0ZM97.2 0.959998L90.64 16H103.76L97.2 0.959998Z" fill="#008AD2"/>
</svg>
