<svg width="32" height="32" viewBox="0 0 32 32" fill="none" xmlns="http://www.w3.org/2000/svg">
<g clip-path="url(#clip0)">
<path d="M10.6819 4.79399C10.6819 2.14685 12.8694 0 15.5655 0C18.2592 0 20.4478 2.14685 20.4478 4.79399C20.4478 7.43635 18.2592 16.0464 15.5655 16.0464C12.8694 16.0464 10.6819 7.43635 10.6819 4.79399Z" fill="#008AD2"/>
<path d="M12.8217 17.485C11.6695 19.5864 4.3561 17.7978 2.25461 16.6372C0.153142 15.4885 -0.61819 12.8462 0.536432 10.7388C1.69463 8.63605 4.33101 7.86471 6.43249 9.02533C8.53993 10.1799 13.9799 15.3823 12.8217 17.485Z" fill="#008AD2"/>
<path d="M24.7141 9.1937C26.8168 8.03309 29.4532 8.80442 30.6102 10.9071C31.7636 13.0157 30.9935 15.6581 28.8932 16.8056C26.7917 17.9674 19.4771 19.756 18.3249 17.6533C17.1679 15.5506 22.6079 10.3483 24.7141 9.1937Z" fill="#008AD2"/>
<path d="M18.313 20.8855C18.9506 19.5482 23.495 20.3959 24.8299 21.0168C26.1553 21.6568 26.726 23.2449 26.0932 24.5762C25.458 25.9063 23.8688 26.4771 22.5338 25.8371C21.2049 25.209 17.6861 22.2037 18.313 20.8855Z" fill="#008AD2"/>
<path d="M8.59605 25.8359C7.26591 26.4771 5.67906 25.9052 5.04623 24.5751C4.41459 23.2449 4.98056 21.6569 6.30711 21.0157C7.63486 20.3948 12.1805 19.5542 12.8121 20.8843C13.4497 22.2025 9.92857 25.2079 8.59605 25.8359Z" fill="#008AD2"/>
<path d="M15.5643 22.4419C13.7232 22.4419 12.2354 27.4066 12.2354 29.0317C12.2354 30.6699 13.7232 32 15.5643 32C17.4019 32 18.8933 30.6699 18.8933 29.0317C18.8933 27.4066 17.4019 22.4419 15.5643 22.4419Z" fill="#008AD2"/>
</g>
<defs>
<clipPath id="clip0">
<path d="M0 0H32V32H0V0Z" fill="white"/>
</clipPath>
</defs>
</svg>
