<svg width="64" height="96" viewBox="0 0 64 96" fill="none" xmlns="http://www.w3.org/2000/svg">
<path d="M28.2354 61.0317C28.2354 59.4066 29.7232 54.4419 31.5643 54.4419C33.4019 54.4419 34.8933 59.4066 34.8933 61.0317C34.8933 62.6699 33.4019 64 31.5643 64C29.7232 64 28.2354 62.6699 28.2354 61.0317Z" fill="#FDB92E"/>
<path d="M21.0462 56.5751C21.6791 57.9052 23.2659 58.4771 24.596 57.8359C25.9286 57.2079 29.4497 54.2025 28.8121 52.8843C28.1805 51.5542 23.6349 52.3948 22.3071 53.0157C20.9806 53.6569 20.4146 55.2449 21.0462 56.5751Z" fill="#F58634"/>
<path d="M40.8299 53.0168C39.495 52.3959 34.9506 51.5482 34.313 52.8855C33.6861 54.2037 37.2049 57.209 38.5338 57.8371C39.8688 58.4771 41.458 57.9063 42.0932 56.5762C42.726 55.2449 42.1553 53.6568 40.8299 53.0168Z" fill="#F58634"/>
<path d="M28.8217 49.485C27.6695 51.5864 20.3561 49.7978 18.2546 48.6372C16.1531 47.4885 15.3818 44.8462 16.5364 42.7388C17.6946 40.636 20.331 39.8647 22.4325 41.0253C24.5399 42.1799 29.9799 47.3823 28.8217 49.485Z" fill="#F16136"/>
<path d="M40.7141 41.1937C42.8168 40.0331 45.4532 40.8044 46.6102 42.9071C47.7636 45.0157 46.9935 47.6581 44.8932 48.8056C42.7917 49.9674 35.4771 51.756 34.3249 49.6533C33.1679 47.5506 38.6079 42.3483 40.7141 41.1937Z" fill="#F16136"/>
<path d="M31.5655 32C28.8694 32 26.6819 34.1468 26.6819 36.794C26.6819 39.4364 28.8694 48.0464 31.5655 48.0464C34.2592 48.0464 36.4478 39.4364 36.4478 36.794C36.4478 34.1468 34.2592 32 31.5655 32Z" fill="#EF4B3F"/>
</svg>
