<svg width="160" height="24" viewBox="0 0 160 24" fill="none" xmlns="http://www.w3.org/2000/svg">
<g clip-path="url(#clip0)">
<path fill-rule="evenodd" clip-rule="evenodd" d="M91.5423 5.06423C91.4661 4.85286 91.347 4.65946 91.1975 4.49465C90.9405 4.22153 90.5903 4.03347 90.1963 3.98602C90.1452 3.97614 90.0933 3.97168 90.0396 3.97168H89.8909C89.1727 3.99048 88.6972 4.06123 88.4617 4.1078C88.4143 4.11733 88.3765 4.12538 88.3485 4.13154C88.3082 4.14042 88.2879 4.14541 88.2879 4.14541L88.0524 5.18063L87.1873 8.80929C86.6769 8.07048 85.7814 7.67017 84.3315 7.67017C81.6423 7.67017 79.4867 9.03046 78.4479 13.6057C77.3796 18.2535 78.8572 19.9523 81.4721 19.9523C82.6542 19.9523 83.6115 19.6836 84.3844 19.1848C84.5572 19.072 84.7238 18.9537 84.8778 18.8221C84.8795 18.82 84.881 18.8188 84.8826 18.8178L84.8832 18.8174C84.8848 18.8164 84.8865 18.8152 84.8885 18.8132L84.7327 19.4768C84.7601 19.4963 84.7882 19.5149 84.8165 19.5329C84.8487 19.5535 84.8814 19.5734 84.914 19.5933L84.9154 19.5941C85.3094 19.8242 85.767 19.9612 86.2578 19.9612C86.9751 19.9612 87.6244 19.6737 88.1008 19.2081C88.1118 19.2001 88.1228 19.1907 88.1338 19.1799C88.1425 19.1713 88.1512 19.1619 88.1599 19.1516C88.1706 19.1409 88.1802 19.1301 88.1898 19.1194C88.197 19.1113 88.2041 19.1033 88.2118 19.0952C88.3408 18.9537 88.4545 18.7988 88.5494 18.6296C88.6605 18.437 88.7482 18.2293 88.8073 18.0126C88.8086 18.0087 88.8096 18.0055 88.8106 18.0029L88.8122 17.9988C88.8137 17.9951 88.8145 17.9938 88.8145 17.9938L88.8369 17.8952L88.8503 17.8343L90.5285 10.4633L90.5966 10.1669L90.9664 8.57107L91.3739 6.9663C91.3739 6.9663 91.4133 6.82034 91.4518 6.59467L91.5745 6.06273C91.5897 6.00632 91.604 5.94987 91.613 5.89347C91.6189 5.86085 91.6236 5.82761 91.6272 5.79399C91.63 5.76723 91.6321 5.74025 91.6336 5.71314C91.6354 5.68082 91.6363 5.64833 91.6363 5.61585C91.6372 5.42244 91.6031 5.23437 91.5423 5.06423ZM86.3608 12.4496L85.7097 15.2875C85.6891 15.3627 85.6658 15.4379 85.6417 15.5132C85.2978 16.5206 84.5491 17.1842 83.6169 17.2451C83.573 17.2496 83.5282 17.2496 83.4826 17.2496C82.2235 17.2496 81.6897 16.6236 82.3426 13.809C83.0223 10.886 83.8676 10.3496 85.0784 10.3496C86.1342 10.3496 86.5524 11.1403 86.419 12.1379C86.4046 12.2427 86.3858 12.3457 86.3608 12.4496Z" fill="#2074B9"/>
<path d="M30.0754 8.98481C31.0668 8.27018 32.291 7.83677 33.5733 7.83677C36.045 7.83677 36.9011 9.45137 36.4166 11.5926L34.9489 17.9705L34.945 17.9824C34.9429 17.9887 34.94 17.9975 34.9363 18.0081C34.8808 18.2149 34.8038 18.4128 34.7017 18.5964C34.6949 18.609 34.6887 18.6219 34.6822 18.6347C34.6768 18.6456 34.6712 18.6565 34.665 18.6672C34.2835 19.3173 33.6325 19.7875 32.8641 19.929C32.7423 19.9522 32.6169 19.9666 32.4898 19.9711C32.3698 19.9711 32.2569 19.9666 32.1504 19.9621C31.9274 19.9433 31.7116 19.8958 31.5065 19.8206C31.3941 19.7829 31.1102 19.6385 30.9549 19.5596C30.9146 19.5391 30.883 19.523 30.8653 19.5144L30.8671 19.5054L32.5919 11.9552C32.7862 11.1269 32.471 10.6138 31.3569 10.6138C30.7498 10.6138 30.122 10.835 29.5408 11.2397L29.1011 13.1597L27.9942 17.9705C27.9942 17.9705 27.9898 17.9848 27.9808 18.0081C27.9754 18.0322 27.9683 18.0556 27.962 18.0744C27.9217 18.1827 27.8527 18.3663 27.7704 18.5499C27.7632 18.5678 27.756 18.5821 27.748 18.5964C27.7413 18.608 27.7353 18.6197 27.7293 18.6314L27.7291 18.6319L27.7288 18.6324C27.7229 18.6441 27.717 18.6557 27.7104 18.6672C27.328 19.3173 26.6778 19.7875 25.9095 19.929C25.7877 19.9522 25.6632 19.9666 25.536 19.9711H25.3963C25.3775 19.9711 25.3578 19.9666 25.3381 19.9666H25.2235C25.2136 19.9666 25.2029 19.9621 25.1931 19.9621C24.9701 19.9433 24.7551 19.8958 24.5519 19.8206C24.437 19.7816 24.1441 19.6317 23.9908 19.5533L23.9875 19.5516L23.9338 19.5242L23.9142 19.5144L26.5901 7.91198L27.2107 5.23883L27.4471 4.20811C27.4471 4.20811 27.9808 4.05673 29.051 4.03347H29.2005C29.8945 4.05227 30.4811 4.49915 30.7032 5.1251C30.7641 5.29437 30.7981 5.48244 30.7981 5.67584C30.7981 5.76989 30.7901 5.85945 30.7748 5.95346C30.765 6.00987 30.7507 6.06632 30.7354 6.11822L30.6441 6.49974L30.6423 6.5087L30.0754 8.98481Z" fill="#2074B9"/>
<path d="M78.929 6.30961L78.9288 6.31092C78.9142 6.38705 78.8996 6.46384 78.8867 6.53826L78.7811 7.029C78.7811 7.029 78.0987 7.19827 76.8897 7.19827C75.6109 7.19827 75.0432 7.01916 75.0432 7.01916L75.2429 6.12452L75.5617 4.73558C75.5617 4.73558 76.3247 4.63169 77.5999 4.63169C78.1623 4.63169 78.55 4.84394 78.8035 5.06961C78.9342 5.18243 78.9888 5.45559 79.0032 5.7287C79.0145 5.86259 78.9724 6.08302 78.929 6.30961Z" fill="#2074B9"/>
<path d="M74.8282 7.8466C74.8282 7.8466 75.456 7.6675 76.7402 7.6675C77.9267 7.6675 78.5554 7.8466 78.5545 7.84748L76.2512 17.915C76.2512 17.915 76.2342 17.9714 76.202 18.0609C76.1429 18.2633 76.0587 18.4559 75.9548 18.6394C75.5026 19.4203 74.6635 19.9523 73.6972 19.9621H73.5709C73.0462 19.9433 72.5608 19.7732 72.1578 19.4911L73.2575 14.709L74.8282 7.8466Z" fill="#2074B9"/>
<path fill-rule="evenodd" clip-rule="evenodd" d="M47.8856 7.809C46.6963 7.809 46.0551 8.08658 46.0551 8.08658L45.8993 8.76451C45.2921 7.89405 44.5283 7.65854 43.1214 7.65854C40.3104 7.65854 38.2515 8.93378 37.2065 13.4946C36.1426 18.0556 37.5942 19.9478 40.3095 19.9478C41.5345 19.9478 42.4703 19.6182 43.228 19.0863C43.2631 19.0608 43.2926 19.0396 43.3181 19.0214L43.3732 18.9823C43.4516 18.9266 43.4889 18.9001 43.5844 18.823L43.4304 19.4911L43.4569 19.5043L43.4999 19.5261C43.6483 19.6014 43.9592 19.759 44.0787 19.8018C44.3545 19.9003 44.6492 19.9567 44.9572 19.9567C45.1211 19.9567 45.2814 19.9379 45.4372 19.9093C46.2056 19.7678 46.8575 19.2977 47.2399 18.643C47.3644 18.4361 47.4548 18.2096 47.5166 17.9696C47.5229 17.9463 47.5327 17.9087 47.5327 17.9087L49.8029 8.08124C49.8029 8.08124 49.0712 7.809 47.8856 7.809ZM42.3396 17.2415C42.2859 17.246 42.2321 17.246 42.1775 17.246C40.8665 17.246 40.3847 16.6012 41.0142 13.8529C41.6671 11.0096 42.4668 10.3415 43.776 10.3415C44.8435 10.3415 45.302 11.1233 45.0844 12.1961L44.3572 15.369C44.1038 16.389 43.348 17.1654 42.3396 17.2415Z" fill="#2074B9"/>
<path fill-rule="evenodd" clip-rule="evenodd" d="M54.5124 8.82092C55.3596 8.08658 56.4754 7.6818 57.9262 7.6818C60.55 7.6818 62.0268 9.38062 60.9584 14.0328C59.9178 18.617 57.7596 19.9818 55.0685 19.9818C53.6196 19.9818 52.7259 19.5815 52.2136 18.8472C52.2129 18.8472 52.2122 18.8465 52.2115 18.8454C52.2104 18.8437 52.2093 18.8409 52.2083 18.8382L51.7086 21.0501L51.5259 21.8364C51.5259 21.8364 51.516 21.8785 51.5106 21.8973C51.4489 22.1418 51.3575 22.3639 51.2339 22.5752C50.8515 23.2245 50.1996 23.7 49.4312 23.8415C49.2754 23.8692 49.1151 23.8836 48.9512 23.8836C48.6432 23.8836 48.3468 23.8316 48.0718 23.7332C47.9534 23.6905 47.6437 23.5335 47.4949 23.458C47.4626 23.4416 47.4379 23.4291 47.4244 23.4224L47.5551 22.8483L49.51 14.3382L49.7232 13.4203C49.7227 13.4177 49.7617 13.2474 49.8056 13.0555C49.8266 12.964 49.8487 12.8676 49.8681 12.7822L49.8942 12.6672L49.9135 12.583L49.9265 12.5257L50.9474 8.08212C50.9474 8.08212 51.6495 7.80896 52.8396 7.80896C54.0244 7.80896 54.6817 8.08658 54.6817 8.08658L54.5124 8.82092ZM54.3172 17.2979C55.5315 17.2979 56.3796 16.7606 57.0557 13.8287C57.7103 11.014 57.1784 10.3881 55.9166 10.3881C54.85 10.3881 54.0011 11.169 53.6868 12.3555L53.6133 12.6707L53.0312 15.1979C52.999 15.3305 52.9775 15.4621 52.965 15.5937C52.8683 16.5493 53.2918 17.2979 54.3172 17.2979Z" fill="#2074B9"/>
<path d="M70.082 7.85106L66.4542 16.869C66.4513 16.875 66.4475 16.8806 66.4428 16.8853C66.4328 16.8955 66.4193 16.9021 66.4041 16.9021C66.3736 16.9021 66.3476 16.8788 66.3476 16.8457L66.1685 13.4848L65.7235 8.0857C65.7235 8.0857 65.136 7.81258 63.8984 7.81258C62.7315 7.81258 61.9739 8.0857 61.9739 8.0857L63.4327 19.7355C64.3533 19.8958 65.5533 19.9666 66.516 19.9711C66.6772 19.9666 66.8339 19.9621 66.9781 19.9523C67.6282 19.8627 68.2041 19.5376 68.6151 19.0675L68.6291 19.0515L68.6489 19.0281L68.6656 19.008L68.667 19.0063C68.6791 18.9917 68.691 18.9773 68.7029 18.9636C69.2044 18.3421 69.5465 17.6508 69.5465 17.6508L73.6712 7.85106C73.6712 7.85106 73.0882 7.6675 71.9715 7.6675C70.9309 7.6675 70.082 7.85106 70.082 7.85106Z" fill="#2074B9"/>
<path fill-rule="evenodd" clip-rule="evenodd" d="M99.9324 8.08658C99.9324 8.08658 100.574 7.809 101.763 7.809C102.949 7.809 103.68 8.08124 103.681 8.08124L101.411 17.9087L101.403 17.9376L101.395 17.9696C101.333 18.2096 101.243 18.4361 101.118 18.643C100.736 19.2977 100.084 19.7678 99.3154 19.9093C99.1596 19.9379 99.0002 19.9567 98.8354 19.9567C98.5273 19.9567 98.2318 19.9003 97.956 19.8018C97.8375 19.7591 97.5279 19.6022 97.3791 19.5267C97.3468 19.5103 97.3221 19.4977 97.3085 19.4911L97.4626 18.823C97.3671 18.9001 97.3298 18.9266 97.2514 18.9823C97.2151 19.008 97.17 19.0401 97.1061 19.0863C96.3485 19.6182 95.4127 19.9478 94.1876 19.9478C91.4715 19.9478 90.0208 18.0556 91.0846 13.4946C92.1297 8.93378 94.1876 7.65854 96.9987 7.65854C98.4055 7.65854 99.1694 7.89405 99.7766 8.76451L99.9324 8.08658ZM96.0548 17.246C96.1094 17.246 96.1632 17.246 96.2169 17.2415C97.2252 17.1654 97.9811 16.389 98.2345 15.369L98.9626 12.1961C99.1793 11.1233 98.7199 10.3415 97.6533 10.3415C96.3449 10.3415 95.5443 11.0096 94.8915 13.8529C94.262 16.6012 94.7429 17.246 96.0548 17.246Z" fill="#2074B9"/>
<path d="M9.17664 21.7739C9.17664 20.5551 10.2925 16.8315 11.6734 16.8315C13.0516 16.8315 14.1701 20.5551 14.1701 21.7739C14.1701 23.0026 13.0516 24.0002 11.6734 24.0002C10.2925 24.0002 9.17664 23.0026 9.17664 21.7739Z" fill="#FDB92E"/>
<path d="M3.78473 18.4316C4.25936 19.4292 5.44951 19.8581 6.44712 19.3772C7.44652 18.9062 10.0874 16.6522 9.60921 15.6635C9.13548 14.6659 5.72622 15.2963 4.7304 15.762C3.73548 16.2429 3.311 17.434 3.78473 18.4316Z" fill="#F58634"/>
<path d="M18.6226 15.7629C17.6214 15.2972 14.2131 14.6614 13.7349 15.6644C13.2647 16.653 15.9038 18.907 16.9006 19.3781C17.9017 19.8581 19.0937 19.43 19.5701 18.4324C20.0447 17.4339 19.6167 16.2429 18.6226 15.7629Z" fill="#F58634"/>
<path d="M9.61634 13.1139C8.75217 14.69 3.2671 13.3485 1.69097 12.4781C0.114857 11.6166 -0.463646 9.63479 0.402327 8.0542C1.27098 6.47716 3.24829 5.89865 4.8244 6.76912C6.405 7.63508 10.485 11.5369 9.61634 13.1139Z" fill="#F16136"/>
<path d="M18.5357 6.8954C20.1128 6.02494 22.0901 6.60344 22.9578 8.18048C23.8229 9.76195 23.2453 11.7438 21.6701 12.6044C20.0939 13.4757 14.608 14.8172 13.7438 13.2402C12.876 11.6631 16.956 7.76136 18.5357 6.8954Z" fill="#F16136"/>
<path d="M11.6742 0C9.65213 0 8.01154 1.61015 8.01154 3.59552C8.01154 5.57731 9.65213 12.0349 11.6742 12.0349C13.6945 12.0349 15.336 5.57731 15.336 3.59552C15.336 1.61015 13.6945 0 11.6742 0Z" fill="#EF4B3F"/>
</g>
<defs>
<clipPath id="clip0">
<path d="M0 0H160V24H0V0Z" fill="white"/>
</clipPath>
</defs>
</svg>
