<svg width="64" height="96" viewBox="0 0 64 96" fill="none" xmlns="http://www.w3.org/2000/svg">
<path d="M36.6204 37.5321C37.0091 34.5524 34.7549 31.9743 31.7492 32.0002C28.7048 32.0261 26.5412 34.4228 26.8392 37.4544C27.0724 39.8641 27.7461 42.1831 28.64 44.4243C29.0675 45.4737 29.5728 46.5101 30.3889 47.3393C31.2958 48.2591 32.1897 48.2461 33.0836 47.3522C33.5371 46.8858 33.8869 46.3417 34.1848 45.7717C35.5192 43.1806 36.2447 40.4082 36.6204 37.5321Z" fill="#008AD2"/>
<path d="M37.1886 50.4053C37.3325 50.401 37.4761 50.3967 37.6181 50.3967C39.6779 50.4226 43.0593 49.6712 44.9248 48.7902C47.192 47.7279 48.1507 45.0202 47.0106 42.8437C45.8835 40.6672 43.0981 39.8511 40.9476 41.0429C39.8334 41.6648 38.8877 42.5069 37.9678 43.3879C36.7241 44.5797 35.5711 45.8494 34.7549 47.391C33.8869 49.0364 34.4829 50.2023 36.3225 50.3967C36.608 50.4226 36.8993 50.4139 37.1886 50.4053Z" fill="#008AD2"/>
<path d="M25.8414 50.4484C23.3799 50.3318 21.1516 49.8007 18.988 48.9715C17.4852 48.4015 16.4747 47.3651 16.1119 45.7456C15.4771 43.0639 17.6277 40.4469 20.4001 40.4987C21.307 40.5117 22.1362 40.7449 22.8876 41.2761C25.1936 42.8825 27.1887 44.774 28.6268 47.2096C28.6411 47.2347 28.6565 47.2598 28.672 47.2852C28.7125 47.3515 28.7541 47.4197 28.7822 47.4946C29.5336 49.3861 28.9506 50.1116 27.1758 50.3836C26.6964 50.4614 26.1912 50.5391 25.8414 50.4484Z" fill="#008AD2"/>
<path d="M28.614 62.1344C29.2358 63.417 30.3111 63.9352 31.6714 64H32.0601C33.8091 63.8704 35.4026 62.3806 35.0916 60.5539C34.8714 59.2454 34.5346 58.0017 33.9904 56.7969C33.6665 56.0973 33.3038 55.4106 32.7208 54.8795C32.073 54.2835 31.4382 54.2965 30.7775 54.8795C30.5314 55.0868 30.3241 55.3329 30.1427 55.605C29.2358 57.0171 28.7306 58.5976 28.4585 60.23C28.3419 60.8519 28.316 61.5126 28.614 62.1344Z" fill="#008AD2"/>
<path d="M36.8924 52.1976C38.2268 52.1846 39.5094 52.4438 40.7531 52.8583C41.8931 53.247 42.5927 54.1539 42.6445 55.3587C42.6834 56.5506 42.0097 57.5481 40.8697 57.9368C40.0276 58.2218 39.1725 58.157 38.447 57.6777C37.0349 56.7579 35.7394 55.6955 34.8066 54.2575C34.677 54.0502 34.5863 53.8429 34.5086 53.6097C34.3272 53.0267 34.4697 52.7547 35.0009 52.4438C35.4642 52.1875 35.95 52.1937 36.4355 52.1999C36.5881 52.2018 36.7406 52.2038 36.8924 52.1976Z" fill="#008AD2"/>
<path d="M26.7998 52.2081C26.7698 52.2088 26.7397 52.2096 26.7096 52.2103C25.453 52.1455 24.2093 52.4305 22.9915 52.7803C21.5146 53.1819 20.6336 54.4775 20.8538 55.7989C21.2036 57.9106 23.4579 58.662 25.1291 57.6256C26.0619 57.0426 26.904 56.3301 27.6683 55.5527C28.1995 55.0086 28.7436 54.4386 28.9509 53.6483C29.1193 53.0006 28.9509 52.6248 28.329 52.3787C27.8388 52.1826 27.3254 52.1952 26.7998 52.2081Z" fill="#008AD2"/>
</svg>
