<svg width="200" height="96" viewBox="0 0 200 96" fill="none" xmlns="http://www.w3.org/2000/svg">
<path fill-rule="evenodd" clip-rule="evenodd" d="M176.584 34.7687C176.438 34.3609 176.208 33.9878 175.919 33.6699C175.423 33.1431 174.748 32.7803 173.988 32.6888C173.89 32.6697 173.789 32.6611 173.686 32.6611H173.399C172.013 32.6974 171.096 32.8339 170.642 32.9237C170.55 32.9421 170.478 32.9576 170.424 32.9695C170.346 32.9866 170.307 32.9962 170.307 32.9962L169.852 34.9932L168.184 41.9928C167.199 40.5677 165.472 39.7955 162.675 39.7955C157.487 39.7955 153.329 42.4195 151.325 51.2451C149.265 60.2106 152.115 63.4876 157.159 63.4876C159.439 63.4876 161.286 62.9694 162.777 62.0071C163.11 61.7895 163.432 61.5614 163.729 61.3075C163.732 61.3034 163.735 61.3012 163.738 61.2992L163.739 61.2984C163.742 61.2964 163.745 61.2942 163.749 61.2902L163.449 62.5703C163.502 62.608 163.556 62.6439 163.61 62.6787C163.673 62.7183 163.736 62.7567 163.799 62.7951L163.801 62.7966C164.561 63.2405 165.444 63.5048 166.391 63.5048C167.774 63.5048 169.027 62.9503 169.946 62.0521C169.967 62.0366 169.988 62.0185 170.009 61.9977C170.026 61.9811 170.043 61.963 170.06 61.9432C170.08 61.9224 170.099 61.9017 170.117 61.8809C170.131 61.8654 170.145 61.8499 170.16 61.8344C170.409 61.5614 170.628 61.2626 170.811 60.9361C171.025 60.5647 171.195 60.1639 171.309 59.7459C171.311 59.7384 171.313 59.7322 171.315 59.7273L171.318 59.7193C171.321 59.7123 171.323 59.7096 171.323 59.7096L171.366 59.5196L171.392 59.4021L174.629 45.1835L174.76 44.6117L175.474 41.5333L176.26 38.4377C176.26 38.4377 176.336 38.1562 176.41 37.7209L176.647 36.6948C176.676 36.5859 176.704 36.4771 176.721 36.3682C176.732 36.3053 176.741 36.2412 176.748 36.1764C176.754 36.1247 176.758 36.0727 176.761 36.0204C176.764 35.9581 176.766 35.8954 176.766 35.8327C176.767 35.4596 176.702 35.0969 176.584 34.7687ZM166.589 49.0149L165.333 54.4892C165.294 54.6344 165.249 54.7795 165.202 54.9246C164.539 56.8679 163.095 58.148 161.296 58.2655C161.212 58.2741 161.125 58.2741 161.037 58.2741C158.608 58.2741 157.579 57.0666 158.838 51.6372C160.149 45.9988 161.78 44.9641 164.116 44.9641C166.152 44.9641 166.959 46.4894 166.702 48.4138C166.674 48.6159 166.638 48.8146 166.589 49.0149Z" fill="#2074B9"/>
<path d="M58.0153 42.3314C59.9276 40.9529 62.289 40.1169 64.7627 40.1169C69.5305 40.1169 71.182 43.2314 70.2474 47.3618L67.4161 59.6647L67.4087 59.6876C67.4046 59.6999 67.399 59.7168 67.3919 59.7372C67.2848 60.1363 67.1363 60.518 66.9393 60.8722C66.9263 60.8965 66.9142 60.9213 66.9018 60.946C66.8912 60.967 66.8804 60.988 66.8685 61.0087C66.1326 62.2628 64.8767 63.1697 63.3946 63.4426C63.1597 63.4875 62.9178 63.5152 62.6725 63.5239C62.441 63.5239 62.2234 63.5152 62.0178 63.5066C61.5877 63.4703 61.1714 63.3787 60.7758 63.2336C60.5591 63.1609 60.0114 62.8824 59.7118 62.7302C59.6341 62.6906 59.5731 62.6596 59.5389 62.6429L59.5424 62.6256L62.8694 48.0614C63.2443 46.4635 62.6362 45.4737 60.4873 45.4737C59.3161 45.4737 58.1051 45.9004 56.984 46.6812L56.1358 50.3848L54.0007 59.6647C54.0007 59.6647 53.9921 59.6923 53.9748 59.7372C53.9644 59.7839 53.9506 59.8288 53.9385 59.8651C53.8608 60.0741 53.7277 60.4282 53.5688 60.7824C53.555 60.8169 53.5412 60.8445 53.5256 60.8722C53.5128 60.8944 53.5012 60.917 53.4897 60.9396L53.4893 60.9406L53.4887 60.9416C53.4773 60.9641 53.4658 60.9866 53.4531 61.0087C52.7155 62.2628 51.4613 63.1697 49.9792 63.4426C49.7442 63.4875 49.5041 63.5152 49.2588 63.5239H48.9893C48.9531 63.5239 48.9151 63.5152 48.8771 63.5152H48.6559C48.6369 63.5152 48.6162 63.5066 48.5972 63.5066C48.1671 63.4703 47.7525 63.3787 47.3603 63.2336C47.1387 63.1583 46.5737 62.8692 46.2781 62.718L46.2717 62.7147L46.1681 62.6619L46.1304 62.6429L51.292 40.2619L52.4892 35.1055L52.9452 33.1172C52.9452 33.1172 53.9748 32.8252 56.0391 32.7803H56.3276C57.6664 32.8166 58.7978 33.6786 59.2262 34.8861C59.3437 35.2126 59.4093 35.5754 59.4093 35.9484C59.4093 36.1299 59.3938 36.3026 59.3644 36.484C59.3454 36.5928 59.3178 36.7017 59.2884 36.8018L59.1122 37.5377L59.1088 37.555L58.0153 42.3314Z" fill="#2074B9"/>
<path d="M152.254 37.171L152.253 37.1735C152.225 37.3204 152.197 37.4685 152.172 37.612L151.968 38.5587C151.968 38.5587 150.652 38.8852 148.32 38.8852C145.853 38.8852 144.758 38.5397 144.758 38.5397L145.143 36.8139L145.758 34.1347C145.758 34.1347 147.23 33.9343 149.69 33.9343C150.774 33.9343 151.522 34.3437 152.011 34.779C152.264 34.9967 152.369 35.5236 152.397 36.0504C152.418 36.3087 152.337 36.7339 152.254 37.171Z" fill="#2074B9"/>
<path d="M144.343 40.1358C144.343 40.1358 145.554 39.7903 148.031 39.7903C150.32 39.7903 151.533 40.1358 151.531 40.1375L147.088 59.5576C147.088 59.5576 147.055 59.6665 146.993 59.8392C146.879 60.2296 146.717 60.601 146.516 60.9551C145.644 62.4615 144.025 63.4876 142.161 63.5066H141.918C140.905 63.4703 139.969 63.1421 139.192 62.598L141.313 53.3733L144.343 40.1358Z" fill="#2074B9"/>
<path fill-rule="evenodd" clip-rule="evenodd" d="M92.3709 40.0633C90.0769 40.0633 88.84 40.5987 88.84 40.5987L88.5394 41.9065C87.3682 40.2274 85.8947 39.7731 83.1809 39.7731C77.7584 39.7731 73.787 42.233 71.771 51.0309C69.7188 59.8288 72.519 63.4789 77.7566 63.4789C80.1198 63.4789 81.925 62.8432 83.3864 61.8171C83.4543 61.7679 83.5112 61.7271 83.5603 61.692L83.6665 61.6165C83.8178 61.5091 83.8898 61.458 84.0739 61.3092L83.7768 62.5979L83.828 62.6235L83.9109 62.6655C84.1972 62.8107 84.797 63.1148 85.0275 63.1974C85.5596 63.3874 86.1279 63.4962 86.7221 63.4962C87.0382 63.4962 87.3475 63.4599 87.648 63.4046C89.1302 63.1317 90.3878 62.2248 91.1254 60.962C91.3655 60.563 91.54 60.1259 91.6592 59.663C91.6713 59.618 91.6903 59.5455 91.6903 59.5455L96.0694 40.5884C96.0694 40.5884 94.6581 40.0633 92.3709 40.0633ZM81.6728 58.2586C81.5691 58.2672 81.4655 58.2672 81.3601 58.2672C78.8311 58.2672 77.9018 57.0234 79.1161 51.7218C80.3755 46.2372 81.9181 44.9485 84.4436 44.9485C86.5027 44.9485 87.3872 46.4566 86.9674 48.5261L85.5647 54.6465C85.0759 56.614 83.6179 58.1117 81.6728 58.2586Z" fill="#2074B9"/>
<path fill-rule="evenodd" clip-rule="evenodd" d="M105.154 42.0153C106.788 40.5987 108.941 39.8179 111.739 39.8179C116.801 39.8179 119.649 43.0949 117.588 52.069C115.581 60.9119 111.418 63.5445 106.227 63.5445C103.432 63.5445 101.708 62.7723 100.72 61.3559C100.718 61.3559 100.717 61.3545 100.716 61.3524C100.714 61.3491 100.711 61.3438 100.709 61.3386L99.7454 65.6053L99.393 67.1221C99.393 67.1221 99.374 67.2032 99.3636 67.2396C99.2445 67.7112 99.0683 68.1396 98.8299 68.5472C98.0922 69.7996 96.8347 70.7169 95.3525 70.9899C95.0519 71.0434 94.7427 71.071 94.4266 71.071C93.8323 71.071 93.2606 70.9708 92.7302 70.7809C92.5017 70.6985 91.9044 70.3956 91.6173 70.2501C91.5551 70.2185 91.5074 70.1943 91.4813 70.1814L91.7335 69.0741L95.5045 52.6581L95.9156 50.8875C95.9146 50.8824 95.9899 50.5539 96.0747 50.1838C96.1152 50.0073 96.1578 49.8214 96.1953 49.6566L96.2456 49.4347L96.2829 49.2723L96.3078 49.1617L98.2771 40.5901C98.2771 40.5901 99.6314 40.0632 101.927 40.0632C104.213 40.0632 105.481 40.5987 105.481 40.5987L105.154 42.0153ZM104.777 58.3673C107.12 58.3673 108.756 57.3308 110.06 51.6752C111.323 46.2458 110.297 45.0383 107.863 45.0383C105.805 45.0383 104.168 46.5446 103.561 48.8335L103.42 49.4416L102.297 54.3165C102.235 54.5721 102.193 54.826 102.169 55.08C101.982 56.9232 102.8 58.3673 104.777 58.3673Z" fill="#2074B9"/>
<path d="M135.188 40.1444L128.19 57.5399C128.184 57.5516 128.177 57.5623 128.168 57.5715C128.148 57.5911 128.122 57.6039 128.093 57.6039C128.034 57.6039 127.984 57.5589 127.984 57.4951L127.639 51.0119L126.78 40.5971C126.78 40.5971 125.647 40.0702 123.26 40.0702C121.009 40.0702 119.547 40.5971 119.547 40.5971L122.361 63.0695C124.137 63.3787 126.452 63.5152 128.309 63.5239C128.62 63.5152 128.922 63.5066 129.2 63.4876C130.454 63.3149 131.565 62.6877 132.358 61.7808L132.385 61.7499L132.423 61.7048L132.455 61.6661L132.458 61.6628C132.481 61.6347 132.505 61.6069 132.527 61.5805C133.495 60.3816 134.155 59.048 134.155 59.048L142.111 40.1444C142.111 40.1444 140.987 39.7903 138.833 39.7903C136.825 39.7903 135.188 40.1444 135.188 40.1444Z" fill="#2074B9"/>
<path fill-rule="evenodd" clip-rule="evenodd" d="M192.769 40.5987C192.769 40.5987 194.006 40.0633 196.3 40.0633C198.587 40.0633 199.998 40.5884 200 40.5884L195.621 59.5455L195.606 59.6013L195.59 59.663C195.471 60.1259 195.296 60.563 195.056 60.962C194.318 62.2248 193.061 63.1317 191.579 63.4046C191.278 63.4599 190.971 63.4962 190.653 63.4962C190.058 63.4962 189.488 63.3874 188.956 63.1974C188.728 63.115 188.131 62.8122 187.844 62.6666C187.781 62.635 187.734 62.6108 187.707 62.5979L188.005 61.3092C187.82 61.4579 187.748 61.5091 187.597 61.6164C187.527 61.6661 187.44 61.7279 187.317 61.8171C185.856 62.8432 184.05 63.4789 181.687 63.4789C176.448 63.4789 173.649 59.8288 175.702 51.0309C177.718 42.233 181.687 39.7731 187.11 39.7731C189.824 39.7731 191.297 40.2274 192.468 41.9065L192.769 40.5987ZM185.289 58.2672C185.394 58.2672 185.498 58.2672 185.602 58.2586C187.547 58.1117 189.005 56.614 189.494 54.6465L190.898 48.5261C191.316 46.4566 190.43 44.9485 188.372 44.9485C185.849 44.9485 184.304 46.2372 183.045 51.7218C181.831 57.0234 182.758 58.2672 185.289 58.2672Z" fill="#2074B9"/>
<path d="M17.7017 67.0016C17.7017 64.6505 19.8541 57.4678 22.5178 57.4678C25.1764 57.4678 27.334 64.6505 27.334 67.0016C27.334 69.3717 25.1764 71.296 22.5178 71.296C19.8541 71.296 17.7017 69.3717 17.7017 67.0016Z" fill="#FDB92E"/>
<path d="M7.30066 60.5546C8.21621 62.479 10.512 63.3064 12.4364 62.3788C14.3642 61.4701 19.4585 57.1221 18.536 55.215C17.6222 53.2906 11.0458 54.5068 9.12486 55.405C7.20565 56.3327 6.38684 58.6302 7.30066 60.5546Z" fill="#F58634"/>
<path d="M35.9229 55.4067C33.9916 54.5084 27.4169 53.2819 26.4944 55.2166C25.5875 57.1238 30.6783 61.4718 32.601 62.3804C34.5323 63.3063 36.8315 62.4806 37.7505 60.5562C38.6661 58.6301 37.8404 56.3326 35.9229 55.4067Z" fill="#F58634"/>
<path d="M18.5499 50.2968C16.8829 53.3371 6.30221 50.7494 3.26188 49.0703C0.221559 47.4085 -0.89437 43.5857 0.776087 40.5367C2.45171 37.4946 6.26592 36.3787 9.30624 38.0578C12.3552 39.7282 20.2255 47.2547 18.5499 50.2968Z" fill="#F16136"/>
<path d="M35.7553 38.3014C38.7974 36.6223 42.6116 37.7382 44.2855 40.7803C45.9542 43.8309 44.84 47.6539 41.8014 49.3139C38.7611 50.9947 28.1787 53.5825 26.5117 50.5404C24.8378 47.4983 32.7081 39.9718 35.7553 38.3014Z" fill="#F16136"/>
<path d="M22.5195 25C18.6189 25 15.4542 28.106 15.4542 31.9357C15.4542 35.7586 18.6189 48.2153 22.5195 48.2153C26.4167 48.2153 29.5831 35.7586 29.5831 31.9357C29.5831 28.106 26.4167 25 22.5195 25Z" fill="#EF4B3F"/>
</svg>
