<svg width="32" height="32" viewBox="0 0 32 32" fill="none" xmlns="http://www.w3.org/2000/svg">
<path d="M12.2354 29.0317C12.2354 27.4066 13.7232 22.4419 15.5643 22.4419C17.4019 22.4419 18.8933 27.4066 18.8933 29.0317C18.8933 30.6699 17.4019 32 15.5643 32C13.7232 32 12.2354 30.6699 12.2354 29.0317Z" fill="#FDB92E"/>
<path d="M5.04623 24.5751C5.67906 25.9052 7.26591 26.4771 8.59605 25.8359C9.92857 25.2079 13.4497 22.2025 12.8121 20.8843C12.1805 19.5542 7.63486 20.3948 6.30711 21.0157C4.98056 21.6569 4.41459 23.2449 5.04623 24.5751Z" fill="#F58634"/>
<path d="M24.8299 21.0168C23.495 20.3959 18.9506 19.5482 18.313 20.8855C17.6861 22.2037 21.2049 25.209 22.5338 25.8371C23.8688 26.4771 25.458 25.9063 26.0932 24.5762C26.726 23.2449 26.1553 21.6568 24.8299 21.0168Z" fill="#F58634"/>
<path d="M12.8217 17.485C11.6695 19.5864 4.3561 17.7978 2.25461 16.6372C0.153142 15.4885 -0.61819 12.8462 0.536432 10.7388C1.69463 8.63605 4.33101 7.86471 6.43249 9.02533C8.53993 10.1799 13.9799 15.3823 12.8217 17.485Z" fill="#F16136"/>
<path d="M24.7141 9.1937C26.8168 8.03309 29.4532 8.80442 30.6102 10.9071C31.7636 13.0157 30.9935 15.6581 28.8932 16.8056C26.7917 17.9674 19.4771 19.756 18.3249 17.6533C17.1679 15.5506 22.6079 10.3483 24.7141 9.1937Z" fill="#F16136"/>
<path d="M15.5655 0C12.8694 0 10.6819 2.14685 10.6819 4.79399C10.6819 7.43635 12.8694 16.0464 15.5655 16.0464C18.2592 16.0464 20.4478 7.43635 20.4478 4.79399C20.4478 2.14685 18.2592 0 15.5655 0Z" fill="#EF4B3F"/>
</svg>
