<svg width="24" height="24" viewBox="0 0 24 24" fill="none" xmlns="http://www.w3.org/2000/svg">
<g clip-path="url(#clip0)">
<path d="M9.17664 21.7739C9.17664 20.5551 10.2925 16.8315 11.6734 16.8315C13.0516 16.8315 14.1701 20.5551 14.1701 21.7739C14.1701 23.0026 13.0516 24.0002 11.6734 24.0002C10.2925 24.0002 9.17664 23.0026 9.17664 21.7739Z" fill="#FDB92E"/>
<path d="M3.7847 18.4316C4.25933 19.4292 5.44948 19.8581 6.44709 19.3772C7.44649 18.9062 10.0874 16.6522 9.60918 15.6635C9.13544 14.6659 5.72619 15.2963 4.73037 15.762C3.73545 16.2429 3.31097 17.434 3.7847 18.4316Z" fill="#F58634"/>
<path d="M18.6226 15.7629C17.6214 15.2972 14.2131 14.6614 13.7349 15.6644C13.2647 16.653 15.9038 18.907 16.9005 19.3781C17.9017 19.8581 19.0937 19.43 19.5701 18.4324C20.0447 17.4339 19.6166 16.2429 18.6226 15.7629Z" fill="#F58634"/>
<path d="M9.61634 13.1139C8.75217 14.69 3.2671 13.3485 1.69097 12.4781C0.114857 11.6166 -0.463646 9.63479 0.402327 8.0542C1.27098 6.47716 3.24829 5.89865 4.8244 6.76912C6.405 7.63508 10.485 11.5369 9.61634 13.1139Z" fill="#F16136"/>
<path d="M18.5357 6.8954C20.1128 6.02494 22.0901 6.60344 22.9578 8.18048C23.8229 9.76195 23.2453 11.7438 21.6701 12.6044C20.0939 13.4757 14.608 14.8172 13.7438 13.2402C12.876 11.6631 16.956 7.76136 18.5357 6.8954Z" fill="#F16136"/>
<path d="M11.6742 0C9.65213 0 8.01154 1.61015 8.01154 3.59552C8.01154 5.57731 9.65213 12.0349 11.6742 12.0349C13.6945 12.0349 15.336 5.57731 15.336 3.59552C15.336 1.61015 13.6945 0 11.6742 0Z" fill="#EF4B3F"/>
</g>
<defs>
<clipPath id="clip0">
<path d="M0 0H24V24H0V0Z" fill="white"/>
</clipPath>
</defs>
</svg>
