<svg width="160" height="24" viewBox="0 0 160 24" fill="none" xmlns="http://www.w3.org/2000/svg">
<g clip-path="url(#clip0)">
<path fill-rule="evenodd" clip-rule="evenodd" d="M8.81641 23.9998V5.60105L15.6736 0V11.4204H17.6432V11.4284L24 16.2034V24H17.6326V19H15.6736V23.9998H8.81641ZM15.6736 12.4204H17.6326V18H15.6736V12.4204Z" fill="#008AD2"/>
<path d="M0 13.9492V23.9998H6.36738V8.34814L0 13.9492Z" fill="#008AD2"/>
<path d="M46.7246 13.3678V8H48.0241V20H46.7246V14.5994H39.9762V20H38.6767V8H39.9762V13.3678H46.7246Z" fill="#008AD2"/>
<path d="M33.3353 8.66667H32V10H33.3353V8.66667Z" fill="#008AD2"/>
<path d="M33.2886 12H32V20H33.2886V12Z" fill="#008AD2"/>
<path fill-rule="evenodd" clip-rule="evenodd" d="M59.3744 14.7673C59.3744 12.7257 58.3315 10.6667 56 10.6667C53.3933 10.6667 52.0301 13.0218 52.0301 15.3501C52.0301 18.0441 53.7956 20 56.2274 20C57.9635 20 59.081 18.8144 59.1262 18.7635L59.2864 18.592L58.625 17.4908L58.3902 17.7668L58.3873 17.7699C58.3327 17.8298 57.5184 18.722 56.2274 18.722C54.556 18.722 53.3627 17.4172 53.249 15.5135H59.3145L59.3439 15.2523C59.3451 15.2416 59.3744 14.9656 59.3744 14.7673ZM53.3456 14.2703C53.6672 12.8248 54.6746 11.9099 55.9853 11.9099C57.2055 11.9099 57.9965 12.786 58.1445 14.2703H53.3456Z" fill="#008AD2"/>
<path fill-rule="evenodd" clip-rule="evenodd" d="M66.9649 10.6667C68.958 10.6667 70.0571 11.8924 70.0571 14.1163V19.8004H68.8253V18.7715C68.7935 18.8131 68.7603 18.8533 68.7246 18.8935C68.2885 19.3972 67.5234 20 66.3618 20C64.9259 20 63.3804 19.1507 63.3804 17.2845C63.3804 14.1189 67.2964 14.1189 68.5843 14.1189H68.8253C68.8228 12.6346 68.2209 11.9434 66.933 11.9434C65.6808 11.9434 64.8545 12.6654 64.8456 12.6748L64.611 12.8838L63.9084 11.8389L64.0907 11.662C64.1328 11.6218 65.1453 10.6667 66.9649 10.6667ZM66.3924 18.7555C67.8958 18.7555 68.8253 17.0742 68.8253 15.5175V15.3635H68.5996C66.6436 15.3635 64.6441 15.5859 64.6441 17.235C64.6441 17.9905 65.2447 18.7555 66.3924 18.7555Z" fill="#008AD2"/>
<path d="M76.7338 18.715L76.4665 18.7606L76.4537 18.7622C76.4279 18.7656 76.3673 18.7737 76.2989 18.7737C76.1238 18.7737 75.7557 18.7737 75.7557 17.7976V8H74.7308V18.0087C74.7308 19.4774 75.5223 20 76.2607 20C76.4018 20 76.5354 19.9648 76.5492 19.9609L76.7338 19.9101V18.715Z" fill="#008AD2"/>
<path d="M84.3922 18.7282L84.7446 18.6518L84.7459 19.9128L84.5132 19.9611C84.4894 19.9656 84.3096 20 84.0451 20C83.1774 20 81.1528 19.67 81.1528 16.6126V12.2674H80.0722V11.0385H81.1528V8.66667H82.4228V11.0385H84.5671V12.2674H82.4228V16.563C82.4228 18.3741 83.3234 18.755 84.0793 18.755C84.2686 18.755 84.3922 18.7282 84.3922 18.7282Z" fill="#008AD2"/>
<path d="M95.4286 14.5378C95.4286 13.0481 95.121 11.0671 92.4621 11.0671C91.035 11.0671 89.978 11.7812 89.3445 12.5516V8H88.0842V20H89.3445V15.7288C89.3445 15.3161 89.3823 14.9807 89.4645 14.695C89.8385 13.2945 91.0715 12.3158 92.4621 12.3158C93.8971 12.3158 94.1708 13.1831 94.1708 14.7828V20H95.4286V14.5378Z" fill="#008AD2"/>
</g>
<defs>
<clipPath id="clip0">
<path d="M0 0H160V24H0V0Z" fill="white"/>
</clipPath>
</defs>
</svg>
