<svg width="160" height="24" viewBox="0 0 160 24" fill="none" xmlns="http://www.w3.org/2000/svg">
<path d="M32 12H33.2886V20H32V12Z" fill="#666767"/>
<path d="M32 8.66667H33.3353V10H32V8.66667Z" fill="#666767"/>
<path d="M46.7246 13.3678V8H48.0241V20H46.7246V14.5994H39.9762V20H38.6767V8H39.9762V13.3678H46.7246Z" fill="#666767"/>
<path fill-rule="evenodd" clip-rule="evenodd" d="M56 10.6667C58.3315 10.6667 59.3744 12.7257 59.3744 14.7673C59.3744 14.9656 59.3451 15.2416 59.3439 15.2523L59.3145 15.5135H53.249C53.3627 17.4172 54.556 18.722 56.2274 18.722C57.5184 18.722 58.3327 17.8298 58.3873 17.7699L58.3902 17.7668L58.625 17.4908L59.2864 18.592L59.1262 18.7635C59.081 18.8144 57.9635 20 56.2274 20C53.7956 20 52.0301 18.0441 52.0301 15.3501C52.0301 13.0218 53.3933 10.6667 56 10.6667ZM55.9853 11.9099C54.6746 11.9099 53.6672 12.8248 53.3456 14.2703H58.1445C57.9965 12.786 57.2055 11.9099 55.9853 11.9099Z" fill="#666767"/>
<path fill-rule="evenodd" clip-rule="evenodd" d="M66.9649 10.6667C68.958 10.6667 70.0571 11.8924 70.0571 14.1163V19.8004H68.8253V18.7715C68.7935 18.8131 68.7603 18.8533 68.7246 18.8935C68.2885 19.3972 67.5234 20 66.3618 20C64.9259 20 63.3804 19.1507 63.3804 17.2845C63.3804 14.1189 67.2964 14.1189 68.5843 14.1189H68.8253C68.8228 12.6346 68.2209 11.9434 66.933 11.9434C65.6808 11.9434 64.8545 12.6654 64.8456 12.6748L64.611 12.8838L63.9084 11.8389L64.0907 11.662C64.1328 11.6218 65.1453 10.6667 66.9649 10.6667ZM66.3924 18.7555C67.8958 18.7555 68.8253 17.0742 68.8253 15.5175V15.3635H68.5996C66.6436 15.3635 64.6441 15.5859 64.6441 17.235C64.6441 17.9905 65.2447 18.7555 66.3924 18.7555Z" fill="#666767"/>
<path d="M76.4665 18.7606L76.7338 18.715V19.9101L76.5492 19.9609C76.5354 19.9648 76.4018 20 76.2607 20C75.5223 20 74.7308 19.4774 74.7308 18.0087V8H75.7557V17.7976C75.7557 18.7737 76.1238 18.7737 76.2989 18.7737C76.3673 18.7737 76.4279 18.7656 76.4537 18.7622C76.4607 18.7612 76.4665 18.7606 76.4665 18.7606Z" fill="#666767"/>
<path d="M84.3922 18.7282L84.7445 18.6518L84.7459 19.9128L84.5132 19.9611C84.4898 19.9656 84.3099 20 84.0451 20C83.1774 20 81.1528 19.67 81.1528 16.6126V12.2674H80.0722V11.0385H81.1528V8.66667H82.4228V11.0385H84.5671V12.2674H82.4228V16.563C82.4228 18.3741 83.3234 18.755 84.0793 18.755C84.2686 18.755 84.3922 18.7282 84.3922 18.7282Z" fill="#666767"/>
<path d="M92.4621 11.0671C95.121 11.0671 95.4286 13.0481 95.4286 14.5378V20H94.1708V14.7828C94.1708 13.1831 93.8971 12.3158 92.4621 12.3158C91.0715 12.3158 89.8385 13.2945 89.4645 14.695C89.3823 14.9807 89.3445 15.3161 89.3445 15.7288V20H88.0842V8H89.3445V12.5516C89.978 11.7812 91.035 11.0671 92.4621 11.0671Z" fill="#666767"/>
<path fill-rule="evenodd" clip-rule="evenodd" d="M15.2432 11.4204H17.6432V18.7645H15.2432V11.4204Z" fill="#393A88"/>
<path fill-rule="evenodd" clip-rule="evenodd" d="M8.81641 23.9998V5.60105L15.6736 0V23.9998H8.81641Z" fill="#37A7DF"/>
<path fill-rule="evenodd" clip-rule="evenodd" d="M0 23.9998V13.9492L6.36738 8.34814V23.9998H0Z" fill="#37A7DF"/>
<path fill-rule="evenodd" clip-rule="evenodd" d="M17.6326 24V11.4204L24 16.2034V24H17.6326Z" fill="#37A7DF"/>
</svg>
