<svg width="200" height="96" viewBox="0 0 200 96" fill="none" xmlns="http://www.w3.org/2000/svg">
<path fill-rule="evenodd" clip-rule="evenodd" d="M61 86.6667H62.5034V96H61V86.6667ZM61 82.7778H62.5579V84.3333H61V82.7778ZM78.1787 88.2625V82H79.6947V96H78.1787V89.6993H70.3056V96H68.7895V82H70.3056V88.2625H78.1787ZM89 85.1111C91.7201 85.1111 92.9368 87.5133 92.9368 89.8952C92.9368 90.1265 92.9026 90.4485 92.9012 90.461L92.8669 90.7658H85.7905C85.9232 92.9867 87.3154 94.509 89.2653 94.509C90.8172 94.509 91.7786 93.404 91.7886 93.3946L92.0625 93.0726L92.8341 94.3574L92.6473 94.5574C92.5945 94.6168 91.2908 96 89.2653 96C86.4282 96 84.3684 93.7181 84.3684 90.5751C84.3684 87.8587 85.9589 85.1111 89 85.1111ZM88.9828 86.5615C87.4537 86.5615 86.2784 87.629 85.9032 89.3154H91.5019C91.3293 87.5837 90.4064 86.5615 88.9828 86.5615ZM101.792 85.1111C104.118 85.1111 105.4 86.5412 105.4 89.1356V95.7671H103.963V94.5668C103.926 94.6153 103.887 94.6621 103.845 94.709C103.337 95.2967 102.444 96 101.089 96C99.4136 96 97.6105 95.0091 97.6105 92.832C97.6105 89.1388 102.179 89.1388 103.682 89.1388H103.963C103.96 87.407 103.258 86.6006 101.755 86.6006C100.294 86.6006 99.3303 87.443 99.3199 87.4539L99.0461 87.6978L98.2264 86.4787L98.4392 86.2724C98.4883 86.2255 99.6695 85.1111 101.792 85.1111ZM101.124 94.548C102.878 94.548 103.963 92.5866 103.963 90.7705V90.5907H103.7C101.417 90.5907 99.0848 90.8502 99.0848 92.7741C99.0848 93.6556 99.7855 94.548 101.124 94.548ZM112.878 94.5541L113.189 94.5009V95.8951L112.974 95.9544C112.958 95.959 112.802 96 112.637 96C111.776 96 110.853 95.3903 110.853 93.6768V82H112.048V93.4305C112.048 94.5693 112.478 94.5693 112.682 94.5693C112.784 94.5693 112.87 94.5541 112.878 94.5541ZM122.124 94.5163L122.535 94.427L122.537 95.8983L122.265 95.9546C122.241 95.9593 122.031 96 121.719 96C120.707 96 118.345 95.615 118.345 92.048V86.9786H117.084V85.5449H118.345V82.7778H119.827V85.5449H122.328V86.9786H119.827V91.9901C119.827 94.1031 120.877 94.5476 121.759 94.5476C121.98 94.5476 122.124 94.5163 122.124 94.5163ZM131.539 85.5783C134.641 85.5783 135 87.8895 135 89.6275V96H133.533V89.9133C133.533 88.0469 133.213 87.035 131.539 87.035C129.917 87.035 128.478 88.1769 128.042 89.8109C127.946 90.1441 127.902 90.5354 127.902 91.0169V96H126.432V82H127.902V87.3102C128.641 86.4114 129.874 85.5783 131.539 85.5783Z" fill="#666767"/>
<path fill-rule="evenodd" clip-rule="evenodd" d="M108 35.2124H115.4V57.8566H108V35.2124Z" fill="#393A88"/>
<path d="M88.1837 73.9994V17.2699L109.327 0V73.9994H88.1837Z" fill="#37A7DF"/>
<path d="M61 73.9995V43.0101L80.6327 25.7402V73.9995H61Z" fill="#37A7DF"/>
<path d="M115.367 35.2124V73.9995H135V49.9598L115.367 35.2124Z" fill="#37A7DF"/>
</svg>
