<svg width="200" height="96" viewBox="0 0 200 96" fill="none" xmlns="http://www.w3.org/2000/svg">
<path fill-rule="evenodd" clip-rule="evenodd" d="M90.1837 17.2699V73.9994H111.327V57.8566H117.367V73.9995H137V49.9598L117.4 35.2371V35.2124H111.327V0L90.1837 17.2699ZM117.367 56H111.327V37.2124H117.367V56Z" fill="#008AD2"/>
<path d="M63 43.0101V73.9995H82.6327V25.7402L63 43.0101Z" fill="#008AD2"/>
<path d="M64.5034 86.6667H63V96H64.5034V86.6667Z" fill="#008AD2"/>
<path d="M64.5579 82.7778H63V84.3333H64.5579V82.7778Z" fill="#008AD2"/>
<path d="M80.1787 82V88.2625H72.3056V82H70.7895V96H72.3056V89.6993H80.1787V96H81.6947V82H80.1787Z" fill="#008AD2"/>
<path fill-rule="evenodd" clip-rule="evenodd" d="M94.9368 89.8952C94.9368 87.5133 93.7201 85.1111 91 85.1111C87.9589 85.1111 86.3684 87.8587 86.3684 90.5751C86.3684 93.7181 88.4282 96 91.2653 96C93.2908 96 94.5945 94.6168 94.6473 94.5574L94.8341 94.3574L94.0625 93.0726L93.7886 93.3946C93.7883 93.3949 93.7872 93.3961 93.7852 93.3982C93.7215 93.4681 92.7715 94.509 91.2653 94.509C89.3154 94.509 87.9232 92.9867 87.7905 90.7658H94.8669L94.9012 90.461C94.9026 90.4485 94.9368 90.1265 94.9368 89.8952ZM87.9032 89.3154C88.2784 87.629 89.4537 86.5615 90.9828 86.5615C92.4064 86.5615 93.3293 87.5837 93.5019 89.3154H87.9032Z" fill="#008AD2"/>
<path fill-rule="evenodd" clip-rule="evenodd" d="M107.4 89.1356C107.4 86.5412 106.118 85.1111 103.792 85.1111C101.669 85.1111 100.488 86.2255 100.439 86.2724L100.226 86.4787L101.046 87.6978L101.32 87.4539C101.33 87.443 102.294 86.6006 103.755 86.6006C105.258 86.6006 105.96 87.4071 105.963 89.1388H105.682C104.179 89.1388 99.6105 89.1388 99.6105 92.8319C99.6105 95.0091 101.414 96 103.089 96C104.444 96 105.337 95.2967 105.845 94.709C105.887 94.6621 105.926 94.6153 105.963 94.5668V95.7671H107.4V89.1356ZM105.963 90.7705C105.963 92.5866 104.878 94.548 103.124 94.548C101.786 94.548 101.085 93.6556 101.085 92.7741C101.085 90.8502 103.417 90.5907 105.7 90.5907H105.963V90.7705Z" fill="#008AD2"/>
<path d="M115.189 94.5009L114.878 94.5541C114.876 94.5541 114.871 94.5548 114.863 94.5559C114.833 94.5599 114.762 94.5693 114.682 94.5693C114.478 94.5693 114.048 94.5693 114.048 93.4305V82H112.853V93.6768C112.853 95.3903 113.776 96 114.637 96C114.802 96 114.958 95.959 114.974 95.9544L115.189 95.8951V94.5009Z" fill="#008AD2"/>
<path d="M124.535 94.427L124.124 94.5163C124.124 94.5163 123.98 94.5476 123.759 94.5476C122.877 94.5476 121.827 94.1031 121.827 91.9901V86.9786H124.328V85.5449H121.827V82.7778H120.345V85.5449H119.084V86.9786H120.345V92.048C120.345 95.615 122.707 96 123.719 96C124.029 96 124.238 95.9599 124.265 95.9547L124.537 95.8983L124.535 94.427Z" fill="#008AD2"/>
<path d="M137 89.6275C137 87.8895 136.641 85.5783 133.539 85.5783C131.874 85.5783 130.641 86.4114 129.902 87.3102V82H128.432V96H129.902V91.0169C129.902 90.5354 129.946 90.1441 130.042 89.8109C130.478 88.1769 131.917 87.035 133.539 87.035C135.213 87.035 135.533 88.0469 135.533 89.9133V96H137V89.6275Z" fill="#008AD2"/>
</svg>
